<?xml version="1.0" encoding="utf-8"?>
<!-- Generator: Adobe Adobe Illustrator 24.2.0, SVG Export Plug-In . SVG Version: 6.00 Build 0)  -->
<svg version="1.1" id="Layer_1" xmlns="http://www.w3.org/2000/svg" xmlns:xlink="http://www.w3.org/1999/xlink" x="0px" y="0px"
	 viewBox="0 0 1728 1296" style="enable-background:new 0 0 1728 1296;" xml:space="preserve">
<style type="text/css">
	.st0{fill:#C6CBAB;}
</style>
<g>
	<path class="st0" d="M520.03,639.35c-40.07-3.06-78.83-14.64-117.54-25.65c-38.5-9.61-77.43-19.18-113.14-38.23
		c-31.17-17.29-7.67-65.15,28.58-39.4c34.66,17.11,72.57,23.54,109.11,34.13c26.38,7.17,52.53,15.52,79.63,18.63
		c54.91,7.58,110.46-0.88,165.42-4.75c48.58-4.59,95.31-20.51,142.64-32.36c33.64-11.48,68.93-17.41,103.93-10.46
		c42.07,5.76,81.23,25.05,122.47,34.85c59.89,13.14,122.3,14.58,182.78,5.66c47.02-9.66,94.46-16.5,141.38-26.71
		c13.17-3.29,26.38-6.65,39.24-11.19c11.52-3.61,21.65-14.88,34.25-10.96c18.41,4.73,22.38,34.96,5.27,44.7
		c-7.08,4.15-14.39,8.13-21.94,11.13c-43.53,15.81-89.24,22.55-134.38,30.34c-32.81,5.73-65.33,13.96-98.59,15.86
		c-44.09,2.26-88.56,0.93-132.29-5.89c-61.07-9.11-117.74-44.51-180.34-41.81c-58.26,9.17-114.06,33.12-172.57,41.63
		c-38.38,5.81-77.22,8.3-115.89,10.48C565.35,639.61,542.71,642.49,520.03,639.35z"/>
	<path class="st0" d="M810.12,697.16c-28.91-6.62-57.34-17.78-83.02-33.89c-13.38-8.39-26.08-18.24-37.43-29.7
		c-8.91-9-8.44-25.34-0.16-34.52c4.04-4.49,9.65-7.13,15.39-7.24c6.1-0.11,11.57,2.59,16.01,7.06c0.44,0.44,0.89,0.88,1.33,1.32
		c5.21,4.88,10.67,9.4,16.33,13.6c7.18,5.12,14.64,9.74,22.31,13.94c9.71,5.09,19.69,9.5,29.87,13.27
		c11.81,4.18,23.84,7.53,36.04,10.09c12.46,2.44,25.04,4.05,37.67,4.83c11.97,0.57,23.98,0.37,35.94-0.63
		c10.12-1.01,20.2-2.62,30.15-4.91c7.93-1.97,15.78-4.38,23.47-7.3c6.08-2.46,12.05-5.22,17.87-8.38c4.56-2.6,8.98-5.45,13.26-8.56
		c3.29-2.54,6.45-5.22,9.5-8.1c2.49-2.51,4.87-5.12,7.12-7.87c1.82-2.38,3.52-4.83,5.14-7.39c0-0.02,0.01-0.02,0.03-0.03
		c6.9-10.92,21.83-12.41,31.13-4.62c4.56,3.82,7.65,9.58,8.51,15.81c0.92,6.73-0.9,12.87-4.29,18.4l-0.01,0.02
		c-0.01,0.02-0.01,0.03-0.03,0.03c-14.51,22.95-36.34,39.25-59.29,50.51c-26.92,13.19-56.41,19.42-85.7,21.52
		c-6.36,0.46-12.74,0.68-19.12,0.68C855.31,705.12,832.46,702.27,810.12,697.16z"/>
	<path class="st0" d="M273.15,568.29c-11.68-3.47-18.81-17.1-15.64-29.93c2.92-11.71,13-17.83,21.25-24.66
		c24.17-17.59,48.04-35.72,72.93-52.07c47.76-36.23,96.28-71.5,147.94-100.73c105.78-61,258.04-159.58,360.66-43.04
		c18.78,15.88,16.28,46.22-9.62,48.67c-17.48-0.39-24.36-21.99-38.72-29.93c-17.5-16.84-40.17-22.48-62.91-23.72
		c-51.63-3.3-99.46,22.55-145.73,44.22c-53.99,28.53-105.13,58.92-156.14,92.97c-38.9,28.83-78.34,56.69-117.49,85.06
		c-11.34,8.46-23.22,16.06-33.95,25.47C290.29,567.53,281.27,570.78,273.15,568.29z"/>
	<path class="st0" d="M1429.78,560.11c-28.49-18.11-54.97-39.64-83.54-57.59c-64.59-39.81-130.16-77.76-192.85-121.31
		c-69.33-47.01-139.38-103.79-221.56-54.33c-10.06,5.84-20.09,11.84-29.77,18.45c-16.3,9.76-29.11,34.75-49.94,28.71
		c-20.51-5.43-21.71-39.64-1.57-46.49c15.26-14.35,31.63-27.2,49.51-37.3c105.62-67.54,185.27-14.46,276.98,49.65
		c57.27,38.99,115.92,75.4,175.41,110c34.32,20.95,66.15,46.22,99.89,68.16C1476.9,534.93,1455.31,575.84,1429.78,560.11z"/>
	<path class="st0" d="M1422.33,550.72c-0.06-13.24,10.01-24.53,22.1-24.53c12.09,0,22.26,10.95,22.32,24.29
		c0.06,13.24-10.01,24.53-22.1,24.53C1432.56,575.01,1422.39,564.06,1422.33,550.72z"/>
	<path class="st0" d="M748.09,975.35c-35.69-3.92-71.98-6.2-106.72-16.5c-27.81-10.35-56.39-18.85-80.96-37.19
		c-20.25-11.31-37.34-27.48-54.82-43.16c-36.78-30.76-67.97-69.01-97.1-108.21c-19.89-28.26-43.35-53.1-61.57-82.85
		c-16.59-23.69-36.97-43.94-51.64-69.27c-5.2-8.39-10.46-16.71-16.28-24.6c-5.71-7.76-12.86-14.84-15.17-24.84
		c-2.99-12.88,4.25-26.39,15.99-29.7c10.41-2.94,21.31,3.04,25.69,13.47c16.43,19.75,28.31,43.24,43.93,63.67
		c21.09,23.8,38.71,50.71,57.13,76.88c36.09,42.8,66.72,91.11,106.85,129.81c16.8,14.87,33.55,29.88,50.52,44.52
		c13.13,8.82,26.6,17.11,40.02,25.41c12.71,6.46,26.51,9.81,39.53,15.44c23.36,9.66,48.4,11.19,72.91,14.67
		c31.02,3.94,56.72,6.38,86.14,7.4c57.72-2.15,115.46-0.39,173.19-1.53c106.66-5.6,155.16-24.94,234.47-103.72
		c55.7-50.8,108.86-106.15,153.58-168.84c24.01-32.08,43.19-67.97,57.3-106.47c8.57-30.27,50.01-17.99,42.7,13.39
		c-28.73,85.32-85.17,154.49-142.73,218.08c-48.93,50.88-99.05,101.05-154.57,143.2c-74.01,50.77-164.75,54.63-249.61,53.59
		C860.59,975.87,804.19,982.67,748.09,975.35z"/>
</g>
</svg>
