<?xml version="1.0" encoding="utf-8"?>
<!-- Generator: Adobe Adobe Illustrator 24.2.0, SVG Export Plug-In . SVG Version: 6.00 Build 0)  -->
<svg version="1.1" id="Capa_de_vector_1_" xmlns="http://www.w3.org/2000/svg" xmlns:xlink="http://www.w3.org/1999/xlink" x="0px"
	 y="0px" viewBox="0 0 1000 1000" style="enable-background:new 0 0 1000 1000;" xml:space="preserve">
<style type="text/css">
	.st0{fill:#C7CCAE;}
</style>
<path class="st0" d="M252.35,610.52c0.32-0.03,0.64-0.06,0.96-0.1c-2.39-11.77-4.14-23.69-5.36-35.66
	c-4.36-28.48-5.47-57.36-4.74-86.2c-1.4-0.05-2.8-0.04-4.21,0.02c-1.74,0.16-3.47,0.38-5.2,0.68c-1.64,0.38-3.26,0.81-4.86,1.33
	c-1.49,0.55-2.96,1.17-4.39,1.85c-1.52,0.8-3,1.68-4.44,2.61c-1.45,1.03-2.84,2.11-4.2,3.25c-1.46,1.34-2.85,2.73-4.19,4.19
	c-1.37,1.61-2.66,3.29-3.87,5.02c-1.3,2-2.51,4.07-3.62,6.2c-1.15,2.39-2.18,4.84-3.09,7.34c-0.94,2.85-1.73,5.74-2.37,8.68
	c-0.58,3.12-1,6.25-1.27,9.41c-0.18,3.46-0.18,6.92,0,10.38c0.29,3.5,0.77,6.98,1.42,10.43c0.75,3.39,1.68,6.74,2.78,10.05
	c1.12,3.05,2.38,6.04,3.79,8.96c1.38,2.65,2.9,5.23,4.54,7.73c1.57,2.25,3.24,4.43,5.02,6.52c1.72,1.89,3.51,3.7,5.39,5.42
	c1.71,1.46,3.48,2.85,5.33,4.15c1.85,1.2,3.75,2.31,5.7,3.34c1.75,0.84,3.54,1.61,5.37,2.28c1.71,0.56,3.45,1.04,5.2,1.44
	c1.69,0.31,3.39,0.54,5.1,0.69C248.88,610.59,250.61,610.6,252.35,610.52z M394.66,829.35c1.66-4.07,1.91-8.82,2.35-13.43
	c-17.65-10.43-34.57-22.03-50.03-35.61c-17.31-13.61-30.78-31.23-42.48-49.72c-12.52-17.3-23.34-35.55-30.43-55.79
	c-5.3-11.41-9.73-23.14-13.39-35.11c-3.5,0.58-7.06,0.89-10.61,0.89c-1.32,0-2.65-0.04-3.97-0.13c-5.35-0.35-10.61-1.16-15.76-2.67
	c-5.25-1.55-10.25-3.72-15.07-6.33c-17.7-9.59-31.24-26.21-39.14-44.54c-0.48-1.1-0.93-2.21-1.37-3.33
	c-0.34,42.45,0.52,84.95,0.79,127.33c-0.49,39.82-2.46,79.61,0.71,119.38c0.3,9.62,0.49,19.25,1.01,28.87
	c17.65-11.76,39.55-4.29,58.4,0.31c11.95,3.24,23.16,12.17,36.08,9.52c20.36-9.11,43.16-14.7,65.3-9.01
	c14.29,2.78,28.38,11.56,43.15,9.75C386.21,856.73,391.15,843.26,394.66,829.35z M722.58,579.64c7.57-57.12,2.83-116.13,4.55-173.79
	c0-13.01,0.05-26.08-2.17-38.94c-1.55-5.05-2.36-11.15-1.35-16.42c-7.33-5.58-16.79-7.22-24.34-12.61
	c-5.02-3.21-9.69-7.32-13.63-11.79c-24.83-26.13-13.94-48.58-34.96-59.23c-12.84-6.05-27.5-6.55-40.66-11.8
	c-20.81-7.7-36.13-24.91-55.28-35.71c-20.36-12.89-44.03-13.86-67.19-10c-14.52,2.56-27.36,10.41-40,17.61
	c-17.04,11.03-34.3,22.58-46.79,38.86c-7.03,7.94-13.75,16.14-20.24,24.53c-10.38,12.55-23.75,22.17-35.93,32.86
	c-15.2,13.45-31.93,24.8-50.71,32.64c-4.39,2.15-8.96,3.85-13.66,5.02c-1.98,25.74-1.7,51.64-4.01,77.38
	c-3.13,24.2-2.41,48.66-3.17,73.01c0.32,34.93,4.89,69.73,11.79,103.95c6.78,25.5,16.82,50.03,28.2,73.79
	c8.89,14.35,18.65,28.16,28.14,42.13c34.72,44.22,87.2,69.34,137.32,92.05c10.23,4.29,20.86,8.96,32.18,8.52
	c0.61,0.01,1.2,0.05,1.77,0.11c6.95-5.71,18.88-8.45,26.33-12.16c18.06-7.13,36.23-15.19,51.21-27.79
	c28.17-24.82,55.7-51.12,76.95-82.29C696.07,671.7,717.87,627.69,722.58,579.64z M808.12,546.59c-0.05-3.01-0.23-5.99-0.54-8.99
	c-0.4-2.54-0.89-5.04-1.5-7.54c-0.74-2.52-1.56-5.01-2.5-7.47c-1.2-2.74-2.53-5.41-3.98-8.02c-1.41-2.25-2.89-4.41-4.46-6.54
	c-1.44-1.75-2.92-3.45-4.46-5.12c-2-1.94-4.07-3.78-6.23-5.56c-2.18-1.61-4.41-3.11-6.7-4.54c-2.37-1.3-4.77-2.51-7.23-3.62
	c-2.61-1.03-5.23-1.93-7.92-2.72c-1.86-0.46-3.73-0.87-5.61-1.21c-0.11,46.92-0.99,85.43-8.63,121.94c2.09-0.08,4.17-0.25,6.25-0.47
	c2.79-0.43,5.54-1,8.27-1.67c2.5-0.75,4.94-1.59,7.38-2.53c2.57-1.15,5.07-2.39,7.54-3.74c2.23-1.39,4.4-2.85,6.51-4.4
	c2.08-1.7,4.06-3.46,6-5.31c1.64-1.74,3.21-3.52,4.73-5.36c1.78-2.4,3.43-4.86,4.98-7.4c1.06-1.96,2.05-3.93,3-5.94
	c1.03-2.54,1.95-5.09,2.77-7.7c0.71-2.78,1.29-5.57,1.76-8.4C807.82,551.7,808.02,549.16,808.12,546.59z M822.71,495.1
	c-2.1-22.37-4.62-44.7-7.43-67.01c-1.61-25.41-4.92-50.61-11.39-75.27c-10.91-51.69-33.64-100.67-66.27-142.25
	c-6.89-10.09-15.27-18.88-24.6-26.74c-12.54-12.62-26.1-24.1-40.34-34.77c-26.59-17.87-56.21-31.54-87.14-39.91
	c-21.54-6.52-43.58-12.12-66.21-12.61c-39.21,0.94-77.74,9.2-114.55,22.55c-24,8.97-48.13,18.93-68.32,35.04
	c-46.26,34.55-84.52,80.15-108.54,132.78c-23.43,45.12-37.16,94.22-43.58,144.52c-3.18,22.87-5.36,45.81-6.83,68.8
	c5.08-10.08,12.05-19.15,20.95-26.45c12.87-10.55,29.55-15.96,46.12-15.17c0.63-9.83,1.42-19.63,2.32-29.4
	c1.25-21.14,1.93-42.3,2.88-63.45c0.26-4.71,0.55-9.96,1.84-14.72c-1.73-7.9,2.35-17.11,13.17-18.27c4.88-0.2,9.62-0.93,14.07-3.02
	c20.73-8.07,38.04-21.67,54.46-36.27c24.7-18.05,39.77-45.36,62.13-65.81c37.34-30.12,73.74-53.4,123.59-50.27
	c36.73,1.07,65.4,25.97,93.89,46.11c28.1,13.03,59.45,8.17,76.53,41.2c4.87,10.3,5.55,22.18,11.58,32
	c10.33,19.19,25.79,18.72,41.11,30.12c5.71,4.52,10.68,10.07,13.44,16.87c1.95,4.75,0.94,9.6-1.7,13.36
	c0.64,3.76,1.04,7.59,1.56,10.96c2.99,27.08,1.39,54.44,1.58,81.63c0,1.76-0.01,3.51-0.01,5.25c21.42,2.43,41.74,12.75,56.46,28.48
	C816.91,487.05,819.98,490.97,822.71,495.1z M835.47,837.76c0-26.98,2.1-53.92,1.05-80.92c0.66-57.28-3.85-114.18-7.58-171.25
	c-5.09,10.42-12.13,19.89-20.71,27.79c-8.62,7.93-19,14.24-30.02,18.21c-10.49,3.77-21.35,5.58-32.45,5.58
	c-0.75,0-1.49-0.01-2.24-0.02c-1.04-0.02-2.09-0.07-3.13-0.13c-11.89,36.09-32.29,71.94-67.32,114.07
	c-21.97,24.48-44.46,49.84-71.19,69.21c1.38,1.98,2.3,4.45,2.58,7.4c1.25,12.43,4.37,24.82,8.55,36.64
	c0.21-0.15,0.42-0.29,0.63-0.43c10.17-8.09,22.98-11.52,35.69-13.04c30.66-5.82,46.34,8.75,73.75,14.42
	c9.97,0.45,20.03,0.41,29.96-0.63c18.79-4.37,36.85-15.27,56.77-10.01c8.57,0.91,17.48,4.97,26.02,3.56
	c0.07-1.49,0.18-2.99,0.23-4.48C835.93,848.39,835.57,843.08,835.47,837.76z M865.98,857.31c0.49,5.59-1.62,10.45-5,13.76
	c0.06,5.53-2.82,11.05-9.73,13.71c-18.75,9.25-38.25-1.71-57.43-1.18c-10.8,2.03-20.56,7.57-31.34,9.76
	c-14.29,2.75-29.12,2.47-43.58,1.59c-13.18-1.8-25.59-6.98-37.84-11.94c-13.83-5.51-30.04-3.44-43.78,1.41
	c-2.03,1.01-4.03,2.08-5.75,3.57c-0.66,2.23-1.85,4.14-3.39,5.7c9.07,14.92,19.89,28.77,33.68,39.34
	c8.64,7.71,25.1,12.3,28.28,23.93c3.24,12.5-12.28,23.36-22.83,15.8c-19.43-12.34-39.04-25.35-51.86-44.98
	c-20.43-26.65-35.95-57.71-40.12-91.19c-2.39,1.2-4.81,2.35-7.27,3.44c-13.29,5.83-26.91,10.89-40.21,16.71
	c-2.14,0.93-4.42,1.29-6.66,1.14c-4.91,3.84-13.32,5.61-25.81,2.54c-24.34-5.55-46.39-18.33-69.03-28.44
	c-0.41-0.21-0.82-0.43-1.24-0.64c-7.29,31.68-20.97,61.73-38.48,89.04c-10.2,16.26-24.67,28.77-40.5,39.34
	c-9.82,7.96-23.8,16.05-32.33,1.65c-3.86-7.39-0.73-16.78,6.73-20.43c7.77-5.12,15.21-10.7,22.68-16.25
	c8.82-7.04,15.52-16.17,21.45-25.71c-18.94-3.36-36.69-14.46-56.39-10.42c-19.11,3.41-31.62,14.95-52.59,9.8
	c-8.19-1.36-15.68-5.09-23.25-8.32c-9.66-3.58-19.84-5.47-29.99-7.04c-6.54-1.61-11.32,3.53-16.97,5.75
	c-10.1,4.12-17.89,0.84-22.1-4.8c-7.07,0.27-14.25-3.99-15.3-13.55c-1.29-31.63-3.56-63.25-3.59-94.92
	c0.4-31.62,1.86-63.21,0.74-94.84c0.06-90.64-3.11-182.04,12.52-271.71c6.68-49.69,23.75-97.43,46.7-141.87
	c25.72-54.34,66.42-101.11,114.36-137.07c41.07-31.01,91.99-46.45,141.66-57.48c58.21-10.61,91.47-5.92,147.16,11.75
	c45.35,15,88,39.2,121.5,73.53c13.12,11.46,25.54,23.63,35.16,38.27c15.53,20,28.88,41.57,39.31,64.66
	c12.29,22.32,19.97,46.55,26.1,71.18c8.7,31.66,13.89,63.99,15.86,96.75c10.95,80.57,13.23,161.89,19.19,242.91
	C868.09,733.45,865.46,795.42,865.98,857.31z"/>
<path class="st0" d="M540.97,301.48c8.18,0,15,6.82,15,15c0,8.18-6.82,15-15,15s-15-6.82-15-15
	C525.97,308.3,532.8,301.48,540.97,301.48z"/>
<path class="st0" d="M486.41,254.71c8.18,0,15,6.82,15,15s-6.82,15-15,15s-15-6.82-15-15S478.24,254.71,486.41,254.71z"/>
<path class="st0" d="M480.6,294.82c8.18,0,15,6.82,15,15s-6.82,15-15,15s-15-6.82-15-15S472.42,294.82,480.6,294.82z"/>
<path class="st0" d="M510.42,344.07c8.18,0,15,6.82,15,15s-6.82,15-15,15s-15-6.82-15-15S502.24,344.07,510.42,344.07z"/>
<path class="st0" d="M506.46,394.56c8.18,0,15,6.82,15,15s-6.82,15-15,15s-15-6.82-15-15S498.29,394.56,506.46,394.56z"/>
<path class="st0" d="M572.5,345.93c8.18,0,15,6.82,15,15s-6.82,15-15,15s-15-6.82-15-15S564.32,345.93,572.5,345.93z"/>
<path class="st0" d="M708.41,428.73c16.82,9.82,1.91,35.72-15.14,25.91c-17.53-11.11-28.39-13.41-48.98-11.36
	c-20.66,1.81-41.41,2.7-62.14,3.16c-7.91-0.86-16.16,2.06-23.75-0.47c-7.58-2.96-11.2-12.38-7.98-19.82
	c6.74-14.3,25.36-8.35,37.99-9.8c29.46,0.3,59.2-6.24,88.48-2.04C688.3,416.79,698.18,423.43,708.41,428.73z"/>
<path class="st0" d="M683.28,495.7c19.6,9.48,4.35,37.22-14.62,26.48c-23.41,12.07-49.95,15.14-75.95,13.23
	c-8.41-0.64-17.46-1.09-24.64-6.01c-9.75-6.99-6.42-23.59,5.19-26.38c6.99-2.04,13.28,2.82,20.32,2.44
	c21.02,1.39,42.55-0.2,61.54-10.01C663.82,488.05,674.11,491.01,683.28,495.7z"/>
<path class="st0" d="M430.65,505.14c11.96,4.53,12.05,23.18,0,27.64c-15.91,4.36-32.91,3.54-49.29,3.32
	c-16.93-0.22-33.76-4.27-47.95-13.77c-8.31,1.41-17.62,6.7-25.24,0.28c-7.67-5.7-7.78-18.16-0.02-23.79
	c6.98-4.65,15.93-4.67,23.86-6.82c13.1-2.14,22.15,10.88,34.68,12.49c14.82,2.53,29.93,1.98,44.88,1.19
	C418,505.86,424.45,502.31,430.65,505.14z"/>
<path class="st0" d="M444.8,418.32c12.5,2.86,14.9,21.37,3.58,27.41c-6.94,3.83-14.71,0.84-22.15,1.58
	c-31.34-1.48-62.66-4.72-94.08-4.26c-15.53-0.33-32.81,23.02-45.21,4.32c-10.67-20.57,23.27-30.43,37.95-33.71
	C364.82,411.75,404.96,416.52,444.8,418.32z"/>
<path class="st0" d="M439.96,344.71c8.18,0,15,6.82,15,15s-6.82,15-15,15s-15-6.82-15-15S431.78,344.71,439.96,344.71z"/>
<path class="st0" d="M428.13,295.93c8.18,0,15,6.82,15,15s-6.82,15-15,15s-15-6.82-15-15S419.96,295.93,428.13,295.93z"/>
<path class="st0" d="M512.76,708.46c19.58,0.26,19.57,29.83,0,30c-5.72-0.08-11.51-0.12-17.2-0.75
	c-13.93,0.28-27.51-12.96-17.84-26.25C486.87,699.52,500.79,710.35,512.76,708.46z"/>
<path class="st0" d="M567.13,667.67c12.91-0.55,20.09,16.82,10.61,25.61c-8.24,7.4-20.71,3.86-30.84,4.52
	c-6.25-0.09-12.53-0.98-18.77-0.47c-8.61,6.48-19.45,10.07-30.23,7.77c-39.9-11.73-6-12.6-60.77-11.57c-19.54-0.2-19.61-29.79,0-30
	c15.7,0.98,32.31-2.55,47.39,2.71c5.98,2.54,10.7,7.68,17.16,9.07c6.1,1.95,10.03-4.23,15.4-5.95
	C533.2,664.45,550.54,669.58,567.13,667.67z"/>
<path class="st0" d="M533.98,597.3c5.73,5.73,5.84,15.49,0,21.21c-9.95,8.68-24.55,9.99-37.21,8.8
	c-11.83-2.04-28.5-3.48-33.08-16.62c-2.16-7.88,2.59-16.28,10.48-18.45c7.5-2.31,13.29,3.45,20.35,4.43
	C511.95,602.53,521.18,585.7,533.98,597.3z"/>
<path class="st0" d="M404.59,635.28c8.18,0,15,6.82,15,15s-6.82,15-15,15s-15-6.82-15-15S396.42,635.28,404.59,635.28z"/>
<path class="st0" d="M376.29,604.18c8.18,0,15,6.82,15,15s-6.82,15-15,15s-15-6.82-15-15S368.11,604.18,376.29,604.18z"/>
<path class="st0" d="M360.5,687.11c8.18,0,15,6.82,15,15s-6.82,15-15,15s-15-6.82-15-15S352.33,687.11,360.5,687.11z"/>
<path class="st0" d="M365.43,644.9c8.18,0,15,6.82,15,15s-6.82,15-15,15s-15-6.82-15-15S357.25,644.9,365.43,644.9z"/>
<path class="st0" d="M331.69,638.86c8.18,0,15,6.82,15,15s-6.82,15-15,15s-15-6.82-15-15S323.52,638.86,331.69,638.86z"/>
<path class="st0" d="M337.08,601.09c8.18,0,15,6.82,15,15s-6.82,15-15,15s-15-6.82-15-15S328.91,601.09,337.08,601.09z"/>
<path class="st0" d="M326.15,560.34c8.18,0,15,6.82,15,15s-6.82,15-15,15s-15-6.82-15-15S317.97,560.34,326.15,560.34z"/>
<path class="st0" d="M608.99,572.32c8.18,0,15,6.82,15,15s-6.82,15-15,15s-15-6.82-15-15S600.81,572.32,608.99,572.32z"/>
<path class="st0" d="M662.81,565.16c8.18,0,15,6.82,15,15s-6.82,15-15,15s-15-6.82-15-15S654.64,565.16,662.81,565.16z"/>
<path class="st0" d="M699.38,591.7c8.18,0,15,6.82,15,15s-6.82,15-15,15s-15-6.82-15-15S691.2,591.7,699.38,591.7z"/>
<path class="st0" d="M663.78,609.61c8.18,0,15,6.82,15,15s-6.82,15-15,15s-15-6.82-15-15S655.61,609.61,663.78,609.61z"/>
<path class="st0" d="M643.07,652.55c8.18,0,15,6.82,15,15s-6.82,15-15,15s-15-6.82-15-15S634.9,652.55,643.07,652.55z"/>
<path class="st0" d="M613.91,614.9c8.18,0,15,6.82,15,15s-6.82,15-15,15s-15-6.82-15-15S605.74,614.9,613.91,614.9z"/>
<path class="st0" d="M616.74,705.51c8.18,0,15,6.82,15,15s-6.82,15-15,15s-15-6.82-15-15S608.57,705.51,616.74,705.51z"/>
</svg>
