<?xml version="1.0" encoding="utf-8"?>
<!-- Generator: Adobe Adobe Illustrator 24.2.0, SVG Export Plug-In . SVG Version: 6.00 Build 0)  -->
<svg version="1.1" id="Layer_1" xmlns="http://www.w3.org/2000/svg" xmlns:xlink="http://www.w3.org/1999/xlink" x="0px" y="0px"
	 viewBox="0 0 612 792" style="enable-background:new 0 0 612 792;" xml:space="preserve">
<style type="text/css">
	.st0{fill:#C7CCAC;}
</style>
<g>
	<path class="st0" d="M318.9,560.49c-4.6-0.03-8.38-3.9-8.36-8.51c0-0.04,0-0.08,0-0.12c0-0.03,0-0.05,0-0.08
		c0.06-12.99,0.13-25.98,0.2-38.97c0.1-19.25,0.19-38.5,0.29-57.75c0.1-19.86,0.2-39.73,0.3-59.59c0.1-19.9,0.2-39.81,0.3-59.71
		c0.1-20.23,0.2-40.46,0.3-60.69c0.1-20.29,0.2-40.57,0.3-60.85c0.1-19.96,0.2-39.91,0.3-59.88c0.1-19.77,0.2-39.54,0.3-59.31
		c0.03-6.25,0.06-12.5,0.1-18.75c0.02-4.61,3.9-8.42,8.48-8.39c4.6,0.03,8.38,3.9,8.36,8.51c0,0.63-0.01,1.27-0.01,1.9
		c0,0.05,0,0.09,0,0.14c-0.1,18.26-0.18,36.51-0.28,54.77c-0.1,20.07-0.2,40.14-0.3,60.22c-0.1,20.12-0.2,40.25-0.3,60.37
		c-0.1,20.19-0.2,40.38-0.3,60.57c-0.1,20.08-0.2,40.17-0.3,60.26c-0.1,19.95-0.2,39.89-0.3,59.84c-0.1,19.61-0.2,39.22-0.3,58.83
		c-0.08,17.09-0.17,34.19-0.26,51.28c-0.01,2.51-0.03,5.02-0.04,7.52c-0.03,4.58-3.87,8.39-8.42,8.39
		C318.93,560.49,318.91,560.49,318.9,560.49z"/>
	<path class="st0" d="M493.76,561.89c-11.34-0.01-22.69-0.03-34.03-0.04c-14.12-0.02-28.23-0.03-42.35-0.05
		c-14.75-0.02-29.5-0.03-44.26-0.05c-14.65-0.02-29.3-0.03-43.95-0.05c-15-0.02-30.01-0.03-45.01-0.05
		c-14.72-0.02-29.45-0.03-44.17-0.05c-14.56-0.02-29.12-0.03-43.68-0.05c-14.64-0.02-29.29-0.03-43.93-0.05
		c-2.09,0-4.18-0.01-6.28-0.01c-4.59,0-8.43-3.83-8.43-8.44c-0.01-4.6,3.82-8.46,8.41-8.46c13.65,0,27.3,0.03,40.94,0.05
		c14.61,0.02,29.23,0.03,43.84,0.05c14.91,0.02,29.83,0.03,44.75,0.05c14.71,0.02,29.42,0.03,44.13,0.05
		c14.8,0.02,29.59,0.03,44.39,0.05c14.69,0.02,29.38,0.03,44.08,0.05c14.43,0.02,28.87,0.03,43.31,0.05
		c12.94,0.02,25.89,0.03,38.83,0.05c1.13,0,2.26,0,3.4,0.01c4.59,0.01,8.43,3.82,8.43,8.44
		C502.18,558.03,498.35,561.89,493.76,561.89C493.77,561.89,493.76,561.89,493.76,561.89z"/>
	<path class="st0" d="M449.55,444.5c-16.76-6.11-25.63-118.48-25.02-138.96c-1.13-25.91,1.3-52.11-0.67-77.76
		c-4.4-24.6-10.95-50.42-27.89-69.53c-8.53-7.94-17.39-15.7-27.3-21.86c-8-4.31-16.51-7.57-24.76-11.36
		c-3.91-1.54-7.88-3.05-12.07-3.61c-3.6-0.37-7.36,1.09-10.42-1.9c-7.64-7.29,0.69-17.37,10.02-15.11
		c10.98,0.7,20.84,5.99,30.74,10.31c13.21,4.89,24.78,13.02,35.33,22.26c16.17,12.15,26.1,30.1,33.31,48.67
		c4.61,15.48,9.32,31.27,10.39,47.47c1.02,17.19-0.85,34.37,0.03,51.55c-0.39,24.3,0.58,48.54,3.55,72.66
		c1.71,19.39,4.99,38.57,9.07,57.57c1.54,6.12,3.23,12.22,5.94,17.93C463.08,439.22,456.37,447.04,449.55,444.5z"/>
	<path class="st0" d="M340.5,489.15c-4.18,0.03-8.35-0.06-12.51-0.47c-5.63,0.19-11.48-1.41-12.25-7.76
		c-0.92-5.65,4.94-10.78,10.4-9.21c13.67,1.08,27.39,0.55,41.05-0.5c12.92-1.11,26.12-2.39,38.03-7.88
		c8.77-3.33,16.67-8.44,24.05-14.18c6.74-4.8,12.88-10.35,18.37-16.55c8.02-7.61,19.52,3.76,11.93,11.93
		c-11.65,12.63-25.62,23.49-40.9,31.34c-5.41,2.46-10.87,4.88-16.54,6.68c-8.56,2.68-17.43,3.91-26.31,4.83
		C363.44,488.49,352.67,489.27,340.5,489.15z M332.38,478.41c-0.11-0.63-0.28-1.27-0.57-1.84
		C332.05,477.15,332.24,477.76,332.38,478.41z"/>
	<path class="st0" d="M250.83,168.6c1.79-10.02,22.57-24.32,32.45-25.63c12.45-2.28,15.94,15.69-0.09,17.52
		c-5.9,2.69-11.07,6.89-15.55,11.54c-1.16,3.55-4.25,6.41-8.24,6.38C254.31,178.41,250.01,173.75,250.83,168.6z"/>
	<path class="st0" d="M257.92,343c0.3-10.27,0.84-21.08-3.77-30.57c-4.09-7.05-10.35-12.56-15.12-19.14
		c-7.8-11.17-7.62-25.85-5.28-38.76c1.49-9.44,5.08-18.27,7.82-27.37c1.07-3.15,1.66-6.74,3.72-9.43c2.76-3.59,8.25-4.4,11.81-1.53
		c3.64,2.72,4.13,7.85,1.89,11.64c-1.7,5.57-3.35,11.16-5.42,16.6c-3.37,12.28-7.51,26.79-1.08,38.7
		c13.07,15.8,21.35,23.05,22.36,45.17c0.25,4.91,0.01,9.79-0.09,14.69C274.47,354.05,258.15,354.11,257.92,343z"/>
	<path class="st0" d="M218.48,439.39c0.84-23.24-23.35-23.42-26.14-48.32c-0.99-12.57,2-25.08,6.73-36.66
		c2.59-7.63,9.32-16.89,17.62-9.76c3.33,3.22,3.21,8.88-0.1,12.06c-1.57,2.78-2.61,5.83-3.72,8.83
		c-3.08,10.23-7.11,22.93-0.12,32.36c2.53,3.77,6.5,6.2,9.53,9.52c8.62,8.28,13.46,20,13.04,31.98
		C235.09,450.44,218.78,450.5,218.48,439.39z"/>
	<path class="st0" d="M271.14,489.7c-9.57-1.08-36.09-8.67-35.08-20.83c0.44-5.87,7.48-9.52,12.54-6.56
		c2.05,1.17,3.22,3.17,5.31,4.27c3.14,1.93,6.66,3.11,10.14,4.28c9.41,3.44,12.22,1.23,21.25,0.9c11.12,0.07,11.39,16.43,0.35,16.9
		C280.78,488.72,276.01,490.18,271.14,489.7z M244.69,478.16c1.1-0.06,2.16-0.26,3.16-0.71c-1.76,0.74-3.75,0.9-5.64,0.37
		C243.03,478.09,243.86,478.14,244.69,478.16z"/>
	<path class="st0" d="M494.49,146.6c-6.86-1.51-13.08-5.68-17.19-11.39c-2.08-2.89-3.61-6.13-4.54-9.56
		c-0.96-3.54-1.12-7.14-0.81-10.77c0.31-3.78,1.66-7.45,3.39-10.79c1.68-3.24,4.12-5.99,6.84-8.39c3.74-3.29,8.57-5.49,13.45-6.38
		c3-0.55,6.17-0.7,9.21-0.28c4.82,0.61,9.46,2.6,13.37,5.43c2.38,1.71,4.54,3.88,6.26,6.26c1.9,2.65,3.28,5.49,4.32,8.57
		c2.15,6.36,1.63,13.52-0.77,19.71c-2.43,6.25-7.29,11.6-13.16,14.77c-4.32,2.33-9.1,3.51-13.93,3.51
		C498.77,147.3,496.62,147.06,494.49,146.6z M501.75,130.42c0.52-0.05,1.04-0.12,1.57-0.21c0.59-0.14,1.17-0.3,1.75-0.48
		c0.48-0.19,0.95-0.39,1.43-0.61c0.45-0.25,0.9-0.51,1.34-0.79c0.42-0.3,0.83-0.62,1.24-0.95c0.39-0.37,0.77-0.74,1.14-1.14
		c0.33-0.39,0.64-0.8,0.94-1.22c0.3-0.48,0.59-0.97,0.86-1.48c0.22-0.47,0.42-0.95,0.61-1.44c0.16-0.51,0.3-1.03,0.43-1.55
		c0.09-0.52,0.16-1.05,0.21-1.58c0.02-0.6,0.02-1.2,0-1.8c-0.06-0.54-0.12-1.06-0.21-1.59c-0.13-0.54-0.27-1.06-0.44-1.59
		c-0.2-0.51-0.4-1.02-0.64-1.52c-0.24-0.45-0.5-0.9-0.77-1.33c-0.3-0.42-0.61-0.83-0.94-1.23c-0.37-0.39-0.75-0.77-1.13-1.14
		c-0.41-0.34-0.83-0.66-1.26-0.98c-0.43-0.27-0.86-0.52-1.31-0.77c-0.52-0.24-1.04-0.47-1.57-0.67c-0.53-0.17-1.07-0.32-1.62-0.45
		c-0.22-0.04-0.44-0.07-0.67-0.11c-0.22-0.03-0.44-0.06-0.66-0.07c-0.63-0.02-1.26-0.02-1.89-0.01c-0.56,0.06-1.11,0.14-1.66,0.23
		c-0.53,0.13-1.05,0.28-1.57,0.43c-0.56,0.22-1.11,0.46-1.65,0.72c-0.36,0.2-0.72,0.41-1.07,0.63c-0.52,0.38-1.03,0.77-1.52,1.18
		c-0.33,0.32-0.65,0.64-0.97,0.97c-0.31,0.38-0.61,0.77-0.9,1.17c-0.3,0.48-0.59,0.97-0.86,1.47c-0.22,0.49-0.43,0.98-0.62,1.48
		c-0.17,0.54-0.31,1.09-0.45,1.64c-0.09,0.54-0.16,1.08-0.22,1.62c-0.02,0.55-0.02,1.1-0.01,1.64c0.06,0.54,0.13,1.07,0.22,1.6
		c0.13,0.54,0.27,1.06,0.43,1.59c0.2,0.52,0.42,1.04,0.66,1.55c0.24,0.44,0.5,0.88,0.76,1.31c0.3,0.43,0.62,0.84,0.95,1.25
		c0.36,0.39,0.74,0.77,1.13,1.14c0.38,0.32,0.77,0.62,1.17,0.91c0.47,0.3,0.94,0.57,1.42,0.84c0.51,0.24,1.03,0.46,1.56,0.66
		c0.51,0.16,1.02,0.3,1.54,0.43c0.52,0.09,1.04,0.16,1.57,0.22C500.61,130.43,501.18,130.43,501.75,130.42z"/>
	<path class="st0" d="M507.41,294.98c-7.24-2.86-12.74-8.99-14.85-16.5c-0.93-3.32-1.16-6.99-0.58-10.39
		c0.33-1.95,0.82-3.89,1.61-5.71c0.8-1.87,1.81-3.55,2.97-5.22c2.45-3.53,6.11-6.13,9.94-7.92c2.93-1.36,6.29-2.03,9.52-2.08
		c0.02,0,0.04,0,0.06,0c0.06,0,0.11,0,0.17,0c6.52,0.01,12.94,2.65,17.55,7.28c5.5,5.52,8.1,13.51,6.93,21.22
		c-1.1,7.28-5.57,13.96-11.95,17.64c-3.82,2.2-8.17,3.35-12.52,3.35C513.26,296.66,510.26,296.11,507.41,294.98z M516.9,279.76
		c0.36-0.04,0.72-0.09,1.08-0.15c0.31-0.08,0.61-0.16,0.92-0.25c0.31-0.12,0.62-0.25,0.93-0.39c0.3-0.16,0.6-0.34,0.88-0.52
		c0.28-0.21,0.56-0.42,0.83-0.64c0.24-0.23,0.47-0.47,0.7-0.7c0.21-0.26,0.42-0.52,0.61-0.79c0.17-0.28,0.33-0.55,0.48-0.83
		c0.15-0.33,0.29-0.66,0.42-0.99c0.1-0.34,0.19-0.68,0.28-1.02c0.06-0.34,0.1-0.68,0.14-1.03c0.01-0.34,0.01-0.67,0-1.01
		c-0.04-0.35-0.09-0.71-0.15-1.06c-0.09-0.35-0.19-0.7-0.29-1.05c-0.12-0.3-0.25-0.61-0.38-0.91c-0.16-0.29-0.33-0.59-0.51-0.87
		c-0.19-0.26-0.39-0.52-0.6-0.78c-0.23-0.24-0.46-0.48-0.7-0.71c-0.26-0.21-0.53-0.42-0.8-0.62c-0.26-0.16-0.53-0.32-0.81-0.48
		c-0.35-0.16-0.7-0.31-1.06-0.45c-0.34-0.1-0.69-0.2-1.03-0.28c-0.37-0.06-0.74-0.11-1.11-0.15c-0.16-0.01-0.31-0.01-0.48-0.01
		c-0.03,0-0.07,0-0.1,0c-0.04,0-0.08,0-0.12,0.01c-0.03,0-0.06,0-0.09,0c-0.31,0.03-0.62,0.08-0.92,0.12
		c-0.39,0.1-0.77,0.2-1.16,0.31c-0.33,0.13-0.65,0.26-0.97,0.41c-0.31,0.17-0.62,0.35-0.93,0.54c-0.24,0.17-0.47,0.35-0.7,0.54
		c-0.26,0.24-0.51,0.5-0.76,0.75c-0.22,0.27-0.43,0.55-0.64,0.83c-0.18,0.29-0.35,0.59-0.52,0.88c-0.12,0.28-0.24,0.56-0.36,0.84
		c-0.11,0.37-0.21,0.73-0.3,1.1c-0.05,0.34-0.1,0.68-0.13,1.03c-0.01,0.37-0.01,0.74,0,1.1c0.04,0.33,0.08,0.65,0.13,0.97
		c0.08,0.32,0.16,0.63,0.25,0.93c0.13,0.33,0.26,0.66,0.4,0.99c0.17,0.31,0.35,0.62,0.53,0.92c0.19,0.26,0.39,0.52,0.59,0.77
		c0.21,0.23,0.43,0.44,0.66,0.66c0.28,0.23,0.57,0.45,0.86,0.66c0.31,0.19,0.62,0.37,0.93,0.54c0.25,0.11,0.51,0.22,0.76,0.32
		c0.39,0.12,0.77,0.23,1.17,0.33c0.34,0.05,0.69,0.1,1.03,0.14C516.21,279.77,516.56,279.77,516.9,279.76z"/>
	<path class="st0" d="M91.1,350.94c0-4.61,3.83-8.45,8.42-8.45c4.59,0,8.42,3.84,8.42,8.45s-3.83,8.45-8.42,8.45
		C94.93,359.39,91.1,355.55,91.1,350.94z"/>
	<path class="st0" d="M161.74,134.03c0-4.61,3.83-8.45,8.42-8.45s8.42,3.84,8.42,8.45s-3.83,8.45-8.42,8.45
		S161.74,138.64,161.74,134.03z"/>
	<path class="st0" d="M145.05,239.83c-17.58-7.46-23.61-28.46-24.35-46.1c-0.48-5.65,3.13-8.99,7.15-9.67
		c0,0.23,0.01,0.46,0.02,0.68c0.06,1.28,0.24,2.56,0.33,3.84c0.21,2.93,0.71,5.77,1.2,8.66c0.26,1.56,0.56,3.09,0.92,4.63
		c0.38,1.61,0.97,3.14,1.56,4.68c0.45,1.18,0.9,2.36,1.48,3.48c0.49,0.95,1.02,1.88,1.54,2.82c1.03,2.03,1.97,4.06,3.44,5.85
		c1.67,2.04,3.65,3.51,6.04,4.6c0.84,0.38,1.74,0.59,2.62,0.81c1.01,0.42,2.05,0.61,3.09,0.61c0.58,0,1.16-0.06,1.74-0.17
		c0.56,0.26,1.13,0.51,1.74,0.72c7.94,4.96,3.27,15.8-4.17,15.8C148.01,241.04,146.55,240.67,145.05,239.83z"/>
	<path class="st0" d="M121.46,286.94c-0.26-17.36,6.49-43.06,19.13-55.37c3.79-2.3,6.21-6.9,11.14-6.86
		c6.58-0.1,10.6,7.64,7.14,13.13c-1.76,3.03-5.08,4.67-7.69,6.86c-8.67,11.97-12.88,27.49-12.86,42.23
		C138.04,298,121.71,298.03,121.46,286.94z"/>
	<path class="st0" d="M122.77,291.19c-3.99-4.33-2.02-10.9-3.56-16.2c-2.73-11.44-7.01-23.16-15.64-31.47
		c-4.8-4.74-12.13-2.78-12.57-11.6c-0.16-5.31,5.09-9.67,10.26-8.57c15.04,4.1,24.3,18.91,29.71,32.66
		c2.8,7.69,9.94,28.8,3.71,35.18C131.54,294.46,125.91,294.47,122.77,291.19z"/>
	<path class="st0" d="M100.55,239.73c-7.17-0.72-9.93-10.88-4-15.06c4.94-3.21,9.12-7.36,12.44-12.24
		c3.26-5.58,6.79-11.09,8.96-17.21c1.88-4.67,1.68-8.98,5.36-12.15c1.38-1.11,3.08-1.68,4.8-1.73c-0.22,1.13-0.3,2.28-0.25,3.41
		c0.06,1.28,0.24,2.56,0.33,3.84c0.21,2.93,0.71,5.77,1.2,8.66c0.26,1.56,0.56,3.09,0.92,4.63c0.35,1.46,0.87,2.87,1.4,4.27
		c-0.58,1.3-1.21,2.57-1.89,3.82c-5.12,9.62-10.87,19.38-19.88,25.82c-2.44,1.86-5.12,4.05-8.25,4.05
		C101.32,239.82,100.94,239.79,100.55,239.73z"/>
	<path class="st0" d="M93.6,95.18c0-4.61,3.83-8.45,8.42-8.45c4.59,0,8.42,3.84,8.42,8.45c0,4.61-3.83,8.45-8.42,8.45
		C97.43,103.62,93.6,99.78,93.6,95.18z"/>
	<path class="st0" d="M139.59,554.83c-1.67-1.3-3.02-3.39-3.2-5.54c-0.56-8.61-0.29-17.24-0.68-25.86
		c0.02-17.67-0.64-35.47,2.53-52.94c1.1-11.82,19.08-61.69,34.47-40.38c1.74,4.12-0.16,9.07-4.19,10.94
		c-2.15,2.1-3.66,4.73-5.04,7.37c-6.95,13.06-9.86,27.57-10.62,42.25c-0.57,14.96-0.41,29.96,0.02,44.93
		c-0.69,5.67,1.84,12.89-1.48,17.7C148.71,556.94,143.12,557.68,139.59,554.83z"/>
	<path class="st0" d="M486.72,549.93c-1.13-22.44,0.29-45.02-2.84-67.32c-2.53-21-6.32-38.17-23.26-52.25
		c-5.15-5.36-16.55-4.91-16.77-14.07c-0.08-6.7,7.65-10.55,13.21-7.2c10.52,3.77,18.41,11.65,25.72,19.8
		c12.05,14.51,15.58,33.97,17.87,52.22c3.14,22.84,1.78,45.9,2.91,68.83C503.31,560.97,487,561.06,486.72,549.93z"/>
	<path class="st0" d="M246.78,536.4c-14.87-2.52-31.11-4.56-42.72-15.17c-22.73-18.52-23.57-50.54-36.26-75.22
		c-7.36-13.8-17.22-26.14-23.9-40.35c-6.23-11.43-10.75-24.41-7.64-37.49c3.62-20.62,19.55-36.07,25.43-55.94
		c5.33-17.66,7.6-36.08,11.6-54.06c4.35-19.9,10.95-39.2,17.04-58.61c12.13-40.99,39.85-73.63,80.22-88.64
		c6.17-2.84,12.92-3.89,19.38-5.87c8.78-1.95,26.9-7.87,28.16,5.71c-0.97,11.26-11.34,7.24-18.88,9.41
		c-6.29,1.56-12.54,3.29-18.81,4.95c-6.39,2.62-12.69,5.54-18.98,8.4c-30.57,16.7-47.71,44.49-57.1,77.3
		c-3.4,11.83-7.37,23.47-10.77,35.28c-5.61,20.75-8.6,42.08-13.39,63.01c-3.05,12.05-8.21,23.47-14.28,34.29
		c-4.99,8.51-10.92,16.81-12.84,26.68c-3.07,10.97,2.32,21.26,7.25,30.76c7.29,14.29,17.66,26.78,24.34,41.39
		c12.83,25.27,12.66,65.46,45.33,73.73c10.41,1.84,20.28,5.94,30.63,1.29c15.49-4.61,28.34-15.75,44.35-18.62
		c6.09-0.77,14.38-3.06,18.88,2.39c2.82,3.53,2.12,9.16-1.52,11.85c-2.85,2.37-6.49,1.5-9.87,1.68c-3.35,0.36-6.7,0.99-9.92,2.02
		C284.46,524.16,267.18,537.14,246.78,536.4z"/>
	<path class="st0" d="M402.46,377.46c-5.13-0.63-8.08-5.83-7.11-10.7c0.41-6.12,0.83-12.23,1.26-18.35
		c0.81-11.79,0.7-23.61,1.09-35.41c0.32-18.82-0.1-37.65-1.04-56.44c-1.24-18.87-3.83-37.79-12.04-55.03
		c-3.64-8.98-7.29-18.43-14.93-24.81c-16.68-10.37-2.73-24.74,6.5-16.5c10.56,7.73,17.92,18.78,22.39,31.01
		c17.6,36.51,15.56,78.04,16.04,117.59c-0.41,16.6-0.45,33.21-1.88,49.77C412.11,366.15,413.57,378.43,402.46,377.46z"/>
	<path class="st0" d="M147.33,238.36c-17.58-8.14-26.91-33.51-27.49-51.87c0.27-11.07,16.58-11.1,16.85,0
		c0,3.89,0.58,7.81,1.78,11.52c3.47,9.73,6.22,19.53,15.43,24.78C164.03,227.3,157.51,242.53,147.33,238.36z"/>
</g>
</svg>
