<?xml version="1.0" encoding="utf-8"?>
<!-- Generator: Adobe Adobe Illustrator 24.2.0, SVG Export Plug-In . SVG Version: 6.00 Build 0)  -->
<svg version="1.1" id="Capa_de_vector_1_" xmlns="http://www.w3.org/2000/svg" xmlns:xlink="http://www.w3.org/1999/xlink" x="0px"
	 y="0px" viewBox="0 0 1000 1000" style="enable-background:new 0 0 1000 1000;" xml:space="preserve">
<style type="text/css">
	.st0{fill:#A46460;}
</style>
<path class="st0" d="M35.1,405.74c-3.37-1.93-5.91-5.16-6.97-8.9c-1.1-3.86-0.59-8.09,1.41-11.57c1.87-3.25,5.19-6.1,8.9-6.97
	c17.71-4.16,35.47-8.16,53.21-12.24c19.91-4.59,39.82-9.17,59.73-13.75c19.77-4.55,39.53-9.1,59.3-13.65
	c20.11-4.62,40.21-9.25,60.31-13.88c19.36-4.46,38.72-8.91,58.09-13.37c19.54-4.5,39.09-9,58.63-13.49
	c19.98-4.6,39.95-9.2,59.93-13.79c20.25-4.66,40.5-9.32,60.75-13.98c8.18-1.88,16.36-3.76,24.53-5.65c0.01,0,0.03-0.01,0.04-0.01
	c0.36-0.08,0.71-0.16,1.07-0.25c3.99-0.91,7.96-0.66,11.57,1.41c3.37,1.93,5.91,5.17,6.97,8.9c1.1,3.86,0.59,8.09-1.41,11.57
	c-1.86,3.24-5.2,6.12-8.9,6.97c-18.88,4.35-37.75,8.69-56.63,13.03c-20.11,4.62-40.22,9.25-60.33,13.88
	c-20.06,4.62-40.13,9.23-60.19,13.85c-19.07,4.39-38.13,8.77-57.2,13.16c-19.99,4.6-39.98,9.2-59.97,13.8
	c-19.86,4.57-39.71,9.14-59.57,13.71c-19.71,4.54-39.42,9.07-59.13,13.61c-19.91,4.58-39.81,9.16-59.71,13.74
	c-7.62,1.75-15.25,3.47-22.86,5.26c-1.41,0.33-2.83,0.51-4.23,0.51C39.91,407.67,37.42,407.08,35.1,405.74z"/>
<path class="st0" d="M912.93,371c-64.54-22.19-128.74-45.69-194.28-64.78c-43.97-12.27-89.64-17.91-135.16-18.79
	c-15.46-0.43-30.36,3.81-45.46,6.44c-6.71,1.12-13.95,4.06-20.07-0.53c-10.75-6.86-7.18-25.08,5.57-27.09
	c8.57-1.99,17.31-3.21,25.91-5.14c20.84-5.04,42.33-3.57,63.55-2.62c33.58,2.57,67.24,6.94,99.91,15.23
	c71.1,19.19,140.17,45.19,209.83,68.93C941.2,349.67,931.84,376.92,912.93,371z"/>
<path class="st0" d="M907.81,362.22c-12.49-10.13-26.65-17.94-39.48-27.61c-10.91-8.44-23.49-14.29-34.54-22.5
	c-37.45-26.39-74.96-52.86-115.33-74.68c-27.45-14.28-56.97-25.69-87.48-31.22c-48.05-8.21-97.15-6.05-145.34-0.24
	c-51.33,2.04-102.41,7.18-153.27,14.28c-34.51,4.57-69.31,6.94-103.48,13.93c-24.18,5.26-48.75,8.38-72.87,14.05
	c-7.43,1.46-14.9,2.49-22.25,4.33c-5.29,1.67-11,3.36-16.22,0.51c-11.51-5.34-10.48-24.04,1.99-27.6
	c15.54-4.85,31.83-6.42,47.61-10.34c32.26-5.66,64.3-12.57,96.76-17.01c68.29-7.37,136.26-18.67,204.99-21.23
	c19.15-0.21,38-4.18,57.11-4.95c40.43-2.4,81.35-1.18,121.16,6.7c33.93,8.57,67.06,21.31,97.34,38.97
	c18.95,11.56,38.73,21.99,56.39,35.51c11.78,8.71,24.74,15.62,36.31,24.64c14.52,11.23,30.64,20.03,45.75,30.35
	c14.56,11.18,30.84,19.97,44.91,31.78C942.03,353.25,923.01,375.07,907.81,362.22z"/>
<path class="st0" d="M24.23,396.94c-1.49-7.09-2.58-14.3-3.2-21.52c-0.72-8.39-0.84-16.86-0.29-25.27
	c0.64-9.75,2.21-19.34,4.57-28.81c2.52-10.11,6.21-20.02,10.96-29.29c5.51-10.77,12.35-20.9,20.59-29.77
	c9.29-9.99,19.99-18.41,31.92-25.04c8.82-4.91,18.27-8.57,27.99-11.26c2.29-0.64,4.6-1.2,6.93-1.69c8-1.69,16.11,3.29,17.93,11.34
	c1.79,7.89-3.34,16.25-11.34,17.93c-2.68,0.57-5.34,1.23-7.97,1.98c-3.93,1.2-7.79,2.61-11.56,4.23c-3.69,1.67-7.29,3.53-10.78,5.58
	c-3.47,2.14-6.82,4.46-10.04,6.96c-3.19,2.58-6.24,5.33-9.13,8.24c-2.99,3.13-5.8,6.43-8.42,9.87c-2.7,3.7-5.19,7.55-7.46,11.53
	c-2.32,4.26-4.39,8.65-6.2,13.15c-1.85,4.85-3.42,9.8-4.71,14.83c-1.3,5.48-2.26,11.04-2.9,16.63c-0.59,5.95-0.82,11.92-0.7,17.9
	c0.22,6.33,0.81,12.65,1.77,18.91c0.38,2.32,0.82,4.63,1.3,6.94c1.68,8-3.28,16.11-11.34,17.94c-1.06,0.24-2.13,0.35-3.18,0.35
	C32.15,408.63,25.68,403.86,24.23,396.94z"/>
<path class="st0" d="M428.51,705.24c-53.43-1.71-107.34-8.97-157.62-27.76c-45.84-16.21-114.78-57.14-162.61-47.44
	c-20.98,23.11-45.8-18.54-7.39-29.06c30.47-7.44,62.27,1.81,91.09,11.88c28.14,10.98,56.05,22.53,83.79,34.49
	c58.18,22.31,121.2,28.88,183.16,28.02c52.48-3.07,104.9-13.2,153.26-34.23c54.91-25.91,107.42-58.58,150.5-101.71
	c4.58-4.77,9.11-9.59,13.57-14.47c9.3-10.24,20.22-28.26,34.94-14.22c5.2,5.25,4.91,15.23-0.02,20.09
	c-9.8,10.85-19.36,21.93-29.74,32.25c-32.33,31.9-69.61,58.54-109.22,80.66c-26.29,15.15-53.51,28.79-82.52,37.94
	C538,698.71,482.96,706.86,428.51,705.24z"/>
<path class="st0" d="M241.77,715.35c-3.81-7.35-0.77-16.33,6.42-20.22c4-2.13,7.89-4.71,10.69-8.34
	c7.33-10.21,0.15-23.88,17.73-26.92c23.84-0.21,16.7,29.73,7.86,42.66C275.88,714.92,253.33,734.28,241.77,715.35z"/>
<path class="st0" d="M318.76,758.67c-16-16.24,9.28-26.15,9.19-44.91c1.37-8.73-2.41-17.46-0.46-26.07
	c2.41-7.81,11.09-12.21,18.84-9.76c10.28,3.23,10.62,13.06,11.34,21.61c1.69,16.76-1.16,34.46-11.11,48.39
	C340.12,758.6,331.11,767.76,318.76,758.67z"/>
<path class="st0" d="M378.93,800.65c-14.51-7.79-6.65-21.26-1.71-32.46c5.77-17.02,10.41-35.12,7.8-53.18
	c-0.74-6.85-4.71-13.52-2.55-20.44c4.52-14.76,26.77-13.15,29.05,2.05c5.07,16.61,5.35,34.41,2.12,51.42
	c-2.21,11.9-5.53,23.57-10.03,34.8C399.52,794.42,393.24,806.4,378.93,800.65z"/>
<path class="st0" d="M461.6,812.19c-17.63-4.7-11.7-19.58-9-32.64c2.64-14.7,4.58-29.83,2.25-44.7c-1.31-7.51-3.35-14.84-6.23-21.91
	c-1.44-3.09-2.99-6.21-2.7-9.72c0.8-16.53,23.75-19.68,29.28-4.25c12.57,26.66,12.65,57.11,7,85.53
	C479.82,796.54,478.41,814.68,461.6,812.19z"/>
<path class="st0" d="M547.64,802.44c-13.35-19.86-25.34-41.03-30.81-64.52c-3.05-15.32-11.88-38.95-4.12-53.27
	c6.83-11.07,25.29-7.15,27.19,5.65c-0.66,11.5,1.5,22.38,4.23,33.51c3.21,14.51,8.5,28.38,15.6,41.41
	c4.15,7.13,8.52,14.14,13.14,20.97C583.11,802.92,558.78,818.77,547.64,802.44z"/>
<path class="st0" d="M660.53,824.34c-35.38-24.08-64.89-57.3-80.3-97.57c-4.97-14.93-11.72-37.35-6.15-52.47
	c5.34-11.89,24.17-10.42,27.72,2.06c0.94,2.93,0.9,5.95,0.08,8.83c0.72,11.07,2.97,22.09,6.94,32.46
	c6.48,15.38,14.97,29.94,25.36,43c8.18,9.76,17.22,18.69,27.04,26.79c7.29,6.91,20.13,11.26,22.44,21.74
	C686.47,821.64,670.86,832.02,660.53,824.34z"/>
<path class="st0" d="M793.39,786.68c-40.74-3.34-82.24-14.43-113.63-41.86c-10.28-10.18-37.04-31.77-31.83-47.36
	c3.74-12.38,22.7-13.61,27.76-1.55c0.57,1.39,1.48,2.59,2.3,3.85c7.61,9.64,16.41,18.35,25.9,26.14
	c21.41,16.29,47.38,25.45,73.94,28.7c9.32,2.05,21.05-0.27,28.07,7.39C814.55,771.46,806.23,788.15,793.39,786.68z"/>
<path class="st0" d="M847.48,716.85c-38.76-1.31-85.6-6.78-116.3-32.39c-13.73-10.6-25.1-23.6-34.39-38.21
	c-6.85-11.29-21.03-27.42-5.43-37.89c18.41-9.3,23.13,12.14,31.71,23.24c13.01,19.73,31.37,37.2,54.33,44.31
	c27.88,8.83,57.62,12.61,86.79,9.95c12.96-0.94,20.5,16.49,11.18,25.41C868.09,718.25,856.72,715.77,847.48,716.85z"/>
<path class="st0" d="M855.88,646.61c-23.96,0.12-47.6-5.86-68.29-18.02c-19.18-10.65-38.27-22.94-51.5-40.8
	c-12.02-18.48,15.74-35.12,25.86-15.47c13.33,15.26,31.11,25.54,49.02,34.56c20.97,10.24,45.53,11.98,68.23,7.34
	c20.76-4.88,39.53-15.87,56.3-28.78c15.72-11.96,33.86,10.69,18.75,23.42C926.27,630.91,892.13,647.24,855.88,646.61z"/>
</svg>
