<?xml version="1.0" encoding="utf-8"?>
<!-- Generator: Adobe Adobe Illustrator 24.2.0, SVG Export Plug-In . SVG Version: 6.00 Build 0)  -->
<svg version="1.1" id="Capa_de_vector_1_" xmlns="http://www.w3.org/2000/svg" xmlns:xlink="http://www.w3.org/1999/xlink" x="0px"
	 y="0px" viewBox="0 0 1000 1000" style="enable-background:new 0 0 1000 1000;" xml:space="preserve">
<style type="text/css">
	.st0{fill:#A46460;}
</style>
<path class="st0" d="M962.82,449.25c-16.98-8.06-34.04-15.95-51.07-23.92c-18.01-8.44-36.03-16.88-54.04-25.32
	c-17.21-8.06-34.41-16.12-51.62-24.18c-15.53-7.27-31.06-14.54-46.59-21.82c-3.57-1.67-6.29-5.33-7.38-9.05
	c-1.09-3.72-0.67-7.8,1.14-11.23c1.88-3.55,5.19-6.26,9.05-7.38c3.85-1.13,7.66-0.54,11.23,1.14c15.77,7.39,31.54,14.77,47.3,22.16
	c17.26,8.08,34.51,16.17,51.77,24.25c18.09,8.47,36.17,16.94,54.26,25.41c16.66,7.81,33.36,15.52,49.98,23.41
	c7.39,3.51,9.94,13.29,6.25,20.28c-1.88,3.55-5.19,6.25-9.05,7.38c-1.35,0.4-2.71,0.58-4.05,0.58
	C967.54,450.97,965.13,450.34,962.82,449.25z"/>
<path class="st0" d="M955.05,441.36c-21.74-23.19-44.25-45.7-67.59-67.34c-19.5-17.08-40.28-32.7-60.23-49.27
	c-48.39-38.33-69.54-45.94-130.59-35.26c-25.07,6.47-50.43,12.69-74.42,22.55c-21.7,7.93-43.71,15.91-53.96,37.83
	c4.51,17.98,15.73,13.19,28.46,6.75c11.52-5.17,22.27-11.96,34.19-16.25c22.38-6.59,45.21-12.4,68.57-14.09
	c17.4-0.21,34.78-3.25,52.15-2.61c9.43,1.91,21.36-0.99,28.17,7.32c9.24,10.73-2.08,28.1-15.53,23.92
	c-15.51-2.22-30.71-0.84-46.05,0.44c-26.1,0.16-51.63,5.73-76.57,12.98c-24.65,8.47-50.07,33.2-77.3,21.24
	c-15.8-8.19-27.31-24.73-26.05-42.93c1.72-10.85,8.19-20.55,15.37-28.63c8.9-8.27,17.41-17.53,28.88-22.22
	c15.19-6.74,30.75-12.74,46.36-18.4c29.05-8.84,58.13-18.52,88.58-20.8c51-9.79,96.88,17.06,134.05,49.38
	c18.94,15.45,38.39,30.31,56.74,46.44c14.12,12.83,27.43,26.46,41.16,39.7c10.01,9.73,19.05,20.35,28.84,30.27
	C990.27,437.82,968.03,456.37,955.05,441.36z"/>
<path class="st0" d="M20.94,443.69c-2.57-3-3.87-6.97-3.57-10.91c0.31-4.08,2.27-7.47,5.19-10.24
	c12.5-11.82,25.07-23.57,37.61-35.36c12.87-12.1,25.75-24.21,38.62-36.31c12.51-11.76,25.02-23.52,37.53-35.29
	c0.58-0.54,1.16-1.09,1.74-1.63c5.98-5.59,16-4.38,21.15,1.62c2.57,3,3.87,6.97,3.57,10.91c-0.31,4.07-2.26,7.48-5.19,10.24
	c-0.04,0.04-0.08,0.08-0.13,0.12c-0.22,0.21-0.44,0.42-0.66,0.62c-11.24,10.51-22.43,21.09-33.64,31.63
	c-12.94,12.17-25.88,24.34-38.83,36.51c-13.48,12.68-26.97,25.36-40.45,38.04c-0.59,0.55-1.18,1.11-1.77,1.67
	c-2.61,2.46-6.01,3.61-9.44,3.61C28.26,448.92,23.82,447.05,20.94,443.69z"/>
<path class="st0" d="M21.02,441.38c-2.32-7.94,2.38-16.19,10.19-18.61c3.94-0.85,7.55-1.99,11.26-3.53
	c8.48-3.97,16.73-8.32,25.12-12.48c8.97-4.91,18.13-9.4,27.32-13.87c12.61-6.49,24.58-14.16,37.66-19.7
	c21.49-11.11,42.06-23.92,63.53-35.05c28.76-13.8,61.71-18.23,93.32-15.15c44.58,2.49,84.72,24.28,128.02,32.81
	c8.84-1.24,15.06-9.87,13.17-18.7c-8.46-15.58-49.15-26.74-66.21-33.19c-66.36-23.48-103.64-26.99-168.26,4.52
	c-11.89,6.23-22.79,14.11-32.75,23.08c-5.23,4.02-9.63,10.01-16.49,11.12c-15.4,2.62-23.83-18.36-10.92-27.11
	c18.14-16.19,37.61-31.41,60.58-40.12c24.11-10.66,49.61-19.2,76.23-19.54c24.8-1.99,49.22,3.74,72.89,10.48
	c24.64,7.51,49.01,15.83,72.77,25.79c19.13,8.8,42.76,22.55,42.28,46.44c0.47,8.87-1.49,17.89-6.32,25.39
	c-12.48,19.68-34.28,26.39-55.87,18.17c-32.41-7.27-62.63-22.12-95.51-27.43c-32.23-4.97-66.68-3.56-96.15,11.56
	c-38.56,21.75-77.47,42.77-117.06,62.55c-11.01,6.01-22.35,11.36-33.48,17.12C44.63,451.37,26.78,458.06,21.02,441.38z"/>
<path class="st0" d="M553.12,564.61c-3.42-2.11-5.9-5.6-6.77-9.52c-0.86-3.89-0.05-7.7,1.88-11.13
	c8.84-15.69,19.27-30.66,31.07-44.27c12.24-14.12,26.05-26.98,41.44-37.63c15.46-10.69,32.45-19.38,50.43-24.96
	c20.14-6.26,41.09-9.01,62.18-8.12c20.32,0.85,40.57,5.14,59.68,12.06c19.05,6.9,37.14,16.15,54.09,27.25
	c2.07,1.36,4.12,2.75,6.16,4.16c0.76,0.53,1.53,1.05,2.28,1.59c0.79,0.47,1.54,1,2.24,1.6c0.26,0.19,0.53,0.38,0.79,0.57
	c1.14,0.82,2.27,1.65,3.4,2.48c3.77,2.79,7.46,5.67,11.09,8.62c14.39,11.68,27.79,24.62,40.25,38.32c0.3,0.33,0.61,0.66,0.91,1
	c5.47,6.06,5.38,15.54-0.67,21.2c-5.88,5.51-15.72,5.41-21.2-0.66c-6.95-7.7-14.2-15.12-21.75-22.24
	c-6.64-6.16-13.51-12.08-20.64-17.67c-1.84-1.45-3.7-2.87-5.57-4.28c-1.43-1.07-2.98-2.09-4.44-3.21c-0.58-0.37-1.13-0.78-1.66-1.22
	c-8.75-6.1-17.8-11.73-27.19-16.79c-8.22-4.3-16.66-8.14-25.32-11.47c-7.52-2.76-15.17-5.12-22.96-7.02
	c-7.04-1.61-14.15-2.83-21.33-3.64c-6.64-0.64-13.31-0.92-19.98-0.82c-6.41,0.21-12.8,0.76-19.15,1.68
	c-6.44,1.04-12.8,2.46-19.08,4.23c-6.31,1.91-12.5,4.17-18.56,6.78c-6.57,2.96-12.95,6.33-19.12,10.06
	c-6.55,4.11-12.84,8.6-18.86,13.45c-6.68,5.53-12.99,11.48-18.95,17.76c-6.9,7.45-13.3,15.34-19.24,23.58
	c-5.31,7.54-10.3,15.32-14.83,23.36c-2.6,4.62-7.68,7.05-12.77,7.05C558.24,566.78,555.48,566.07,553.12,564.61z"/>
<path class="st0" d="M945.32,571.53c-8.22-0.47-15.52-4.25-23.34-6.37c-11.51-3.33-20.91-11.28-30.59-18.02
	c-14.61-12.19,2.79-34.83,18.36-23.67c5.56,4.06,11.29,7.91,17.12,11.57c4.91,2.13,10.3,2.99,15.2,5.23
	c8.51,3.83,16.96,0.16,24.55-3.81c11.94-4.79,24.37,9.17,18.55,20.51C978.44,568.52,957.85,573,945.32,571.53z"/>
<path class="st0" d="M434.18,565.94c-3.87-1.27-6.86-4.04-8.75-7.6c-1.43-2.7-2.93-5.36-4.46-8.01
	c-5.4-9.15-11.31-17.97-17.79-26.39c-5.53-6.97-11.42-13.62-17.74-19.88c-5.38-5.17-11.03-10.03-16.97-14.54
	c-5.44-4-11.09-7.68-16.96-11.02c-5.38-2.95-10.91-5.6-16.58-7.93c-5.49-2.15-11.08-3.99-16.77-5.52
	c-5.83-1.46-11.73-2.59-17.68-3.4c-6.13-0.72-12.3-1.1-18.48-1.14c-6.83,0.06-13.64,0.53-20.42,1.36
	c-7.68,1.07-15.26,2.6-22.76,4.54c-8.87,2.43-17.55,5.43-26.06,8.91c-10.3,4.35-20.28,9.38-29.95,14.96
	c-11.95,7.06-23.4,14.91-34.38,23.4c-13.69,10.76-26.64,22.45-38.85,34.86c-0.39,0.4-0.79,0.8-1.18,1.21
	c-1.35,1.38-2.69,2.78-4,4.19c-2.83,2.96-6.25,4.95-10.42,5.23c-3.88,0.25-7.78-1.03-10.73-3.55c-6-5.13-7.25-15.18-1.67-21.15
	c0.03-0.04,0.06-0.07,0.09-0.1c0.02-0.02,0.05-0.05,0.07-0.07c10.94-11.71,22.58-22.83,34.78-33.22
	c14.61-12.43,30.07-23.9,46.48-33.84c16.92-10.25,34.8-19.01,53.55-25.37c18.86-6.39,38.62-10.46,58.55-11.19
	c19.67-0.72,39.41,1.7,58.23,7.55c17.83,5.54,34.82,14.08,49.95,25.02c8.44,6.11,16.34,12.79,23.78,20.08
	c7.51,7.36,14.35,15.29,20.81,23.59c9.28,11.92,17.39,24.82,24.48,38.15c3.84,7.22,0.36,16.55-6.8,20.1
	c-2.07,1.03-4.36,1.55-6.66,1.55C437.28,566.69,435.7,566.44,434.18,565.94z"/>
<path class="st0" d="M52.69,570.04c-10.81-0.26-26.76-1.89-31.12-13.5c-2.8-7.56,1.56-16.59,9.21-19.11
	c5.93-2.46,11.25,1.13,16.89,2.38c10.66,0.68,21.74-0.41,31.8-4.11c6.21-2.14,8.98-8.53,14.24-11.99
	c7.28-5.24,18.37-2.72,22.31,5.44c5.14,11.78-2.16,16.54-9.45,24.03C92.52,566.95,71.51,569.54,52.69,570.04z"/>
<path class="st0" d="M300.56,670.92c-20.31-2.76-40.34-7.93-59.59-14.95c-20.13-7.34-39.47-16.45-58.08-27.06
	c-17.94-10.23-35.07-21.98-51.22-34.85c-13.79-10.99-26.91-22.87-39.19-35.53c-0.01-0.01-0.02-0.02-0.03-0.03
	c-0.05-0.05-0.1-0.11-0.16-0.16c-0.28-0.29-0.55-0.57-0.83-0.86c-5.67-5.89-5.09-15.74,0.82-21.2c6.09-5.63,15.52-5.07,21.2,0.82
	c0.25,0.26,0.49,0.51,0.74,0.77c3.5,3.62,7.09,7.15,10.73,10.64c12.44,11.71,25.57,22.63,39.35,32.72
	c13.54,9.72,27.63,18.61,42.27,26.57c12.58,6.68,25.49,12.67,38.76,17.84c11.39,4.31,22.99,7.98,34.81,10.93
	c9.8,2.32,19.68,4.13,29.68,5.32c8.24,0.87,16.5,1.32,24.79,1.25c6.93-0.16,13.84-0.68,20.71-1.62c5.76-0.89,11.45-2.08,17.07-3.62
	c4.82-1.41,9.55-3.07,14.18-5.02c4.33-1.92,8.54-4.09,12.61-6.51c2.73-1.62,6.4-1.97,9.46-1.43c3.89,0.69,7.41,2.93,9.68,6.17
	c4.57,6.52,3.17,16.43-3.69,20.89c-0.77,0.5-1.58,0.96-2.37,1.43c-0.06,0.04-0.12,0.07-0.19,0.11
	c-14.63,8.56-31.06,14.01-47.72,16.88c-10.78,1.85-21.68,2.7-32.58,2.7C321.35,673.11,310.91,672.33,300.56,670.92z"/>
<path class="st0" d="M74.86,619.96c-21.83,2.02-23.77-29.86-1.73-29.99c18.75,2.12,32.7-12.11,45.32-23.78
	c16.15-10.77,32.86,11.88,17.8,24.14c-3.03,2.92-5.87,6.05-9.18,8.68C112.45,611.43,94.63,621.28,74.86,619.96z"/>
<path class="st0" d="M108.22,649.71c-0.24-15.93,12.92-15.04,24-19.27c11.94-5.87,17.47-14.25,22.95-25.88
	c12.28-20.95,41.4-0.48,24.64,17.39c-4.9,10.3-11.33,20.13-20.88,26.69c-8.79,7.36-19.44,12.02-30.64,14.27
	C119.14,665.86,108.89,659.49,108.22,649.71z"/>
<path class="st0" d="M166.2,688.94c-3.45-11.4,4.24-17.8,14.06-21.25c6.73-3.98,11.58-10.09,15.23-16.91
	c4.94-7.95,5.53-18.29,11.92-25.25c12.38-10.97,30.83,3.13,23.51,17.9c-3.53,9.91-7.33,19.79-13.26,28.56
	C209.09,686.44,177.61,713.57,166.2,688.94z"/>
<path class="st0" d="M244.48,719.99c-7.95-1.29-13.67-9.55-12.07-17.44c0.71-5.59,5.29-8.88,9.27-12.23
	c3.29-3.25,3.88-7.97,5.65-12.05c3.56-7.1,5.2-14.85,5.11-22.78c0.01,0.61,0.01,1.21,0.02,1.82c0.09,0.62,0.18,1.25,0.26,1.87
	c0-0.01,0-0.03,0-0.04c0.01,0,0.02,0.01,0.03,0.01c-0.65-3.27-0.18-6.71,1.31-9.75c-0.48,0.61-0.63,1.42-0.95,2.14
	c4.39-14.5,26.14-13.43,28.99,1.48c0.83,6.5-0.39,13.13-1.21,19.59c-1.33,8.06-5.52,15.16-7.86,22.91
	C269.1,706.13,257.25,722.21,244.48,719.99z"/>
<path class="st0" d="M291.3,729.14c-5.82-8.41-1.52-17.67,6.14-22.98c2.99-4.5,5.2-9.63,6.71-14.82c1.47-6.81,2.63-13.73,3.07-20.69
	c-0.62-8.48,5.1-16.98,14-17.42c5.3-0.4,10.43,2.09,13.48,6.43c4.86,7.32,1.93,15.98,1.26,23.96c-1.7,14.47-6.1,28.82-14.65,40.76
	C313.72,734.46,300.65,741.22,291.3,729.14z"/>
<path class="st0" d="M362.36,726.73c-6.12-4.24-7.9-13.47-4.05-19.62c2.46-4.65,5.98-9.26,6.3-14.66
	c-0.23-6.63,0.71-13.34-0.14-19.92c-3.31-8.05-4.38-16.39,3.13-22.51c7.87-6.66,21.1-2.5,23.74,7.46c0.68,3.45,2.07,6.66,2.74,10.17
	c1.38,7.71,0.43,15.63,0.55,23.42c0.37,11.82-5.05,22.73-11.28,32.45C378.78,730.31,368.75,731.41,362.36,726.73z"/>
<path class="st0" d="M660.49,670.48c-10.88-0.65-21.73-2.33-32.31-4.93c-10.7-2.64-21.21-6.58-30.83-11.97
	c-1.55-0.87-3.06-1.8-4.56-2.75c-3.2-2.04-5.34-5.95-5.98-9.6c-0.69-3.95,0.28-8.11,2.64-11.36c2.28-3.14,5.77-5.31,9.6-5.98
	c4.13-0.71,7.89,0.44,9.67,1.58c3.05,1.88,6.22,3.55,9.46,5.07c3.89,1.68,7.85,3.13,11.89,4.43c5.6,1.61,11.26,2.87,17,3.87
	c7.62,1.13,15.26,1.81,22.97,2.07c10.01,0.18,20-0.28,29.97-1.29c11.73-1.33,23.35-3.39,34.84-6.1
	c12.54-3.07,24.88-6.91,36.96-11.46c11.68-4.51,23.07-9.67,34.14-15.52c9.74-5.27,19.16-11.05,28.21-17.41
	c7.23-5.22,14.18-10.8,20.77-16.81c5.03-4.73,9.82-9.7,14.27-14.97c3.39-4.15,6.57-8.47,9.46-12.98c1.93-3.15,3.72-6.39,5.32-9.72
	c3.55-7.37,13.38-9.82,20.32-6.09c3.45,1.85,6.06,5.05,7.22,8.79c1.22,3.95,0.63,7.88-1.13,11.54c-0.27,0.56-0.54,1.11-0.82,1.67
	c-0.05,0.1-0.1,0.2-0.15,0.3c-6.86,13.57-16.46,25.76-27.06,36.59c-14.48,14.79-31.24,27.29-48.93,37.96
	c-17.23,10.39-35.52,18.89-54.36,25.92c-18.25,6.82-37.2,11.92-56.38,15.33c-15.62,2.77-31.46,4.26-47.31,4.26
	C670.42,670.92,665.46,670.77,660.49,670.48z"/>
<path class="st0" d="M618.7,722.51c-9.5-10.89-13.77-25.36-14.5-39.59c-1.36-51.33,42.32-35.96,31.75-12.12
	c-3.85,10.72-1.29,24.07,6.01,32.77C653.88,719.32,631.62,737.45,618.7,722.51z"/>
<path class="st0" d="M683.27,729.67c-13.88-12.56-20.4-31.48-20.82-49.88c-1.54-40.31,37.59-29.92,30.82-7.05
	c-2.39,12.24,1.29,26.58,10.63,35.13C717.79,721.9,698.08,742.77,683.27,729.67z"/>
<path class="st0" d="M753.21,717.57c-19.3-7.59-30.76-21.81-33.85-42.36c-5.8-35.44,36.09-32.86,29.63-6.23
	c1.04,13.45,6.99,17.21,18.46,22.18C784.55,700.79,770.94,726.51,753.21,717.57z"/>
<path class="st0" d="M820.1,700.65c-13.43-4.18-25.87-12.3-35.54-22.48c-4.92-5.55-7.87-12.46-10.85-19.16
	c-2.36-4.98-4.16-10.69-2.01-16.07c2.86-7.66,11.66-11.65,19.31-8.79c13.51,5.56,7.17,21.43,24.8,31.38c3.13,1.9,6.31,3.75,9.6,5.34
	c2.61,0.77,5.29,1.18,7.57,2.99C846.33,683.64,836.1,704.7,820.1,700.65z"/>
<path class="st0" d="M868.48,662.44c-6.42-2.35-12.25-6.07-18.09-9.57c-7.8-4.88-16.23-9.27-22.23-16.41
	c-16.51-20.88,14.87-41.65,24.99-17.44c7.92,5.53,16.25,10.63,24.9,14.94C905.04,629.54,903.39,673.34,868.48,662.44z"/>
<path class="st0" d="M908.94,618.88c-14.27-2.51-43.91-9.46-44.88-27.05c-0.61-10.83,10.96-18.8,20.87-14.78
	c3.18,1.07,5.88,3.17,7.66,5.83c9.83,4.43,20.66,7.69,31.53,6.46c9.14-3.61,20.27,3.42,20.39,13.42
	C944.62,620.99,922.1,620.69,908.94,618.88z"/>
</svg>
