<?xml version="1.0" encoding="utf-8"?>
<!-- Generator: Adobe Adobe Illustrator 24.2.0, SVG Export Plug-In . SVG Version: 6.00 Build 0)  -->
<svg version="1.1" id="Capa_de_vector_1_" xmlns="http://www.w3.org/2000/svg" xmlns:xlink="http://www.w3.org/1999/xlink" x="0px"
	 y="0px" viewBox="0 0 1000 1000" style="enable-background:new 0 0 1000 1000;" xml:space="preserve">
<style type="text/css">
	.st0{fill:#A46460;}
</style>
<path class="st0" d="M418.64,448.47c-11.07-15.41,9.27-27.58,21.41-33.25c25.44-10.42,53.3-9.19,80.26-9.71
	c19.73,0.68,19.76,29.39,0,30c-6.46-0.07-12.92,0.02-19.37,0.42c-16.89,0.18-34.12,0.57-49.93,7.26c-4.23,2.03-7.76,4.99-11.33,7.98
	C433.37,456.32,423.55,454.83,418.64,448.47z"/>
<path class="st0" d="M724.95,454.34c-27.12-22-50.11-16.82-82.34-17.06c-19.72-0.63-19.78-29.35,0-30
	c9.33,0.21,18.65-0.27,27.98-0.42c29.99,0.24,48.79,5.37,72.69,23.72C758.49,443.22,740.93,465.91,724.95,454.34z"/>
<path class="st0" d="M483.6,507.9c-6.55-0.48-13.18-1.7-19.39-3.84c-8.03-2.78-15.66-6.77-21.08-13.51
	c-5.12-6.37-3.66-16.12,2.71-21.04c6.45-4.99,15.61-3.7,20.78,2.39c0.14,0.15,0.29,0.29,0.44,0.44c0.24,0.19,0.49,0.38,0.74,0.57
	c0.61,0.38,1.22,0.74,1.85,1.07c1.16,0.54,2.33,1.03,3.53,1.48c1.96,0.64,3.95,1.16,5.96,1.61c2.63,0.49,5.29,0.84,7.96,1.06
	c2.8,0.15,5.59,0.15,8.39,0c2.33-0.19,4.65-0.49,6.95-0.92c1.57-0.35,3.12-0.76,4.65-1.25c0.85-0.32,1.7-0.67,2.53-1.06
	c0.41-0.23,0.82-0.46,1.22-0.71c0.03-0.02,0.06-0.05,0.1-0.07c3.26-7.09,12.23-10.24,19.34-7.23c3.57,1.51,6.47,4.41,7.98,7.98
	c1.6,3.78,1.47,7.89,0,11.68c-2.36,6.06-7.47,10.78-13,13.98c-5.87,3.4-12.49,5.29-19.13,6.48c-4.74,0.85-9.55,1.2-14.35,1.2
	C489.06,508.21,486.33,508.1,483.6,507.9z"/>
<path class="st0" d="M662.89,512.27c-9.7-0.48-19.49-2.29-28.34-6.43c-4.55-2.13-8.68-4.77-12.43-8.12
	c-2.39-2.15-4.45-4.72-6.11-7.47c-1.84-3.05-2.91-6.32-3.58-9.79c-0.75-3.83,0.64-8.17,2.99-11.2c2.39-3.09,5.96-5.17,9.84-5.7
	c3.96-0.54,8.04,0.55,11.2,2.99c2.8,2.17,4.54,5.11,5.32,8.03c0.03,0.16,0.07,0.32,0.11,0.47c0.07,0.09,0.14,0.18,0.22,0.28
	c0.19,0.2,0.39,0.4,0.59,0.59c0.41,0.33,0.82,0.65,1.25,0.96c0.76,0.48,1.55,0.93,2.34,1.35c1.26,0.59,2.55,1.12,3.86,1.6
	c1.84,0.59,3.7,1.09,5.59,1.51c2.24,0.41,4.5,0.71,6.77,0.91c2.42,0.12,4.84,0.13,7.26,0.01c2.04-0.17,4.07-0.44,6.09-0.81
	c1.5-0.34,2.98-0.73,4.45-1.19c0.97-0.36,1.93-0.76,2.87-1.2c0.58-0.32,1.16-0.65,1.72-1c0.2-0.15,0.4-0.29,0.59-0.45
	c0.33-6.97,6.08-12.94,12.95-13.88c7.91-1.07,16.04,4.69,16.9,12.83c0.09,0.85,0.16,1.81,0.15,2.7c0,0.21-0.01,0.42-0.02,0.62
	c-0.19,6.97-3.39,13.32-8.16,18.35c-5.15,5.44-12.26,8.82-19.3,11.03c-6.77,2.13-14.07,3.1-21.22,3.1
	C665.49,512.37,664.18,512.34,662.89,512.27z"/>
<path class="st0" d="M559.93,654.77c-10.74-1.32-21.04-4.67-31.27-8.04c-9.18-2.52-19.62-9.16-18-20.04c0.8-7.42,7.6-13.2,15-13.15
	c4.77-0.48,8.22,3.01,12.21,4.69c6.39,1.98,12.74,4.13,19.25,5.7c23.86,4.19,48.75,1.35,72.01-4.74c16.22-9.11,31.28,13.8,16.47,25
	C623.44,655.35,584.64,657.36,559.93,654.77z"/>
<path class="st0" d="M508.43,358.58c-9.33-10.06-20.41-18.34-29-29.1c-13.67-14.15-28.27-27.3-41.36-42.03
	c-15.74-18.4-36.36-33.25-48.37-54.5c-6.06-13.62-14.69-26.01-25.17-36.61c-7.8-6.15-15.05-12.95-21.9-20.16
	c-19.55-20.18-38.86-40.63-58.83-60.38c-5.35-4.46-11.35-8.79-12.93-16.01c-2.03-7.79,2.92-16.39,10.83-18.25
	c6.67-1.7,14.14,1.67,17.17,7.77c4.15,3.51,8.24,7.07,12.1,10.9c21.92,22.51,43.29,45.6,65.84,67.47c7.95,5.94,14.87,13,20.73,21.01
	c9.11,10.3,14.73,22.7,21.18,34.67c9.52,11.58,20.59,21.84,31,32.62c25.83,27.93,52.84,54.62,79.88,81.32
	C543.18,351.41,522.82,372.15,508.43,358.58z"/>
<path class="st0" d="M475.65,384.83c-33.77-30.97-64.94-64.85-100.87-93.41c-16.73-15.56-41.11-25.86-57.02-41.53
	c-23.35-20.25-44.97-42.43-68.29-62.74c-25.04-23.69-45.68-51.67-71.71-74.38c-10.89-7.67-18.7-22.18-4.7-31.37
	c13.17-7.41,21.7,7.34,30.67,14.51c20.85,18.84,38.16,41.1,57.89,61.03c22.58,21.99,44.64,40.8,66.83,62.66
	c10.5,8.99,18.41,16.12,29.45,23.55c8.2,5.27,17.15,9.37,24.62,15.72c23.01,18.66,45.45,37.88,66.25,58.59
	c10.98,11.52,22.95,22.07,34.52,32.98c5.43,6.87,14.99,11.4,16.38,20.68C501.63,383.75,485.5,393.07,475.65,384.83z"/>
<path class="st0" d="M487.65,391.17c-26.83-6.56-12.77-41.24,11.57-27.7c2.94-1.61,6.44-3.44,7.71-6.72
	c-2.42-9.97,7.13-20.26,17.37-18.04c9.91,1.69,14.35,12.54,12.54,21.62C534.27,380.86,507.68,400.65,487.65,391.17z"/>
<path class="st0" d="M460.98,360.19c-11.59-14.6,2.94-35.73,16.99-42.81c6.23-3.61,13.91-7.28,20.98-3.8
	c11.69,5.03,11.02,23.72-1.24,27.61c-3,1-5.77,2.63-8.31,4.5c-4.52,3.64-0.4,9.62-7.22,15.45
	C476.33,366.48,466.22,366.46,460.98,360.19z"/>
<path class="st0" d="M530.02,734.61c-17.22-8.86-32.14-21.36-46.92-33.53C463.17,686,447,666.63,431.48,647.18
	c-13.25-15.65-25.46-32.2-35.6-50.06c-6.43-10.17-13.57-20.09-16.18-32.08c-7.27-27.84-7.49-56.84-9.73-85.36
	c-1.51-36.57-2.61-75.05,11.97-109.36c6.27-12.58,12.59-25.28,21.31-36.39c5.72-9.79,16.66-18.87,27.46-9.96
	c9.38,8.68,4.96,18.43-2.18,26.13c-13.63,18.47-25.01,39.64-26.91,62.88c-4.4,26.69-2.54,53.84-0.56,80.68
	c1.82,23.72,1.79,48.26,10.04,70.86c13.15,22.79,27.33,45.13,44.64,65.05c4.83,6.41,9.86,12.63,15.55,18.3
	c7.32,7.73,12.76,15.93,21.3,22.14c11.75,10.44,24.47,19.71,36.73,29.52c7.05,5.36,17.67,7.45,21.19,16.32
	C555.48,727.81,541.5,740.74,530.02,734.61z"/>
<path class="st0" d="M783.65,415.36c-37.73-16.98-11.59-51.47-55.48-95.23c-40.89-39.92-49.13-59.64-39.42-116.78
	c2.73-14.66,5.06-29.38,9.51-43.65c3.11-10.02,2.41-24.24,13.88-28.7c7.5-2.93,16.62,1.24,19.29,8.85
	c1.44,3.73,1.21,8.29-0.53,11.89c-2.19,9.73-4.58,19.4-7.33,28.99c-3.28,17.39-7.27,34.76-8.01,52.51
	c-1.69,12.89,0.62,25.5,7.85,36.41c8.66,13.82,22.07,23.52,32.14,36.23c20.04,21.07,29.77,48.73,34.68,76.89
	c0.76,2.94,3.74,4.39,6.33,5.49C814.09,396.91,801.67,423.55,783.65,415.36z"/>
<path class="st0" d="M804.72,411.44c-16.86-3.5-11.62-22.16-9.98-34.18c1.26-17.64,0.39-35.39-0.81-53.02
	c-3.91-33.68-11.69-67.2-23.72-98.92c-5.29-10.92-11.76-21.22-17.5-31.91c-5.61-7.91-11.79-15.46-17.58-23.23
	c-4.6-6.16-11.63-9.6-18.1-13.44c-16.57-6.55-9.86-31.9,8.05-28.83c10.42,3.59,20.14,10.4,28.34,17.74
	c8.46,9.11,15.21,19.67,23.05,29.32c9.4,16.3,19.84,32.38,25.77,50.36c10.09,30.33,17.56,61.72,21.29,93.47
	c1.59,21.93,3.05,44.18,0.4,66.09C822.46,397.81,822.43,413.23,804.72,411.44z"/>
<path class="st0" d="M776.32,498.04c-6.84-4.25-8.96-14.06-4.46-20.75c3.7-6.38,11.72-5.83,16.51-10.94
	c6.72-5.55,12.32-13.36,14.45-21.83c1.25-7.61-1.63-10.98-6.32-16.52c-7.08-5.01-16.8-2.13-22.71-10.87
	c-7.96-10.29,2.39-26.19,14.97-23.38c7.25,2.54,15.04,3.29,21.7,7.43c8.06,4.64,13.18,12.59,18.06,20.25
	c6.72,12.1,5.6,27.74,0.23,40.15c-4.88,9.58-10.62,18.93-18.95,25.94C801.12,495.02,787.86,504.95,776.32,498.04z"/>
<path class="st0" d="M370.94,509.38c-23.02-3.46-43.4-21.78-48.71-44.51c-1.73-11.42-0.24-23.21,2.58-34.34
	c5.49-18.85,30.25-40.06,50.22-40.23c8.17,0.35,14.68,7.5,14.31,15.66c-0.34,7.68-6.64,13.86-14.16,14.3
	c-2.37,0.47-4.56,1.53-6.64,2.74c-5.89,4.57-13.17,9.51-15.24,17.01c-1.36,6.78-2.64,14.02-1.22,20.86
	c12.42,24.27,24.02,13.22,33.84,25.13C393.74,496.31,383.64,512.26,370.94,509.38z"/>
<path class="st0" d="M345.54,402.37c-11.86-40.57-8.55-83-6.73-124.61c-2.08-12.14,12.92-21.72,23.06-14.62
	c6.44,3.95,7.4,11.68,6.89,18.57c-0.19,7.89-0.53,15.78-1.14,23.66c-2.03,30.23-1.01,61.01,7.18,90.32
	C378.64,414.94,350.73,421.58,345.54,402.37z"/>
<path class="st0" d="M473.96,293.18c-7.87-1.65-13.23-10.14-11.29-17.96c2.1-9.88,13.31-12.42,20.95-16.93
	c13.82-7.58,28.92-12.16,44.23-15.69c25.94-7.37,53.66-6.47,80.14-3.52c19.29,1,40.04,0.22,57.14-9.68
	c8.33-6.1,13.61-15.08,19.26-23.44c5.9-6.59,17.2-6.32,22.66,0.65c10.36,12.68-6.19,28.2-13.98,37.88
	c-10.41,11.64-24.89,18.22-40.03,21.16c-11.06,2.95-22.45,4.16-33.89,3.67c-15.77,0.31-31.24-3.06-47-2.14
	c-20.94-0.96-41.43,5-61.15,11.43c-7.18,2.93-14.05,6.56-20.99,9.99C485.14,291.48,479.8,294.72,473.96,293.18z M692.11,230.75
	c0.06-0.01,0.12-0.01,0.18-0.02c-0.13-0.03-0.25-0.06-0.38-0.09C691.98,230.68,692.05,230.71,692.11,230.75z"/>
<path class="st0" d="M375.59,191.25c-11.73-12.91-0.1-22.38,9.39-31.5c15.12-15.67,32.89-28.46,51.77-39.23
	c22.47-14.74,47.9-23.63,73.6-30.9c15.74-4.34,32.13-5.8,48.3-7.77c9.78-0.41,19.59,0.45,29.39,0.07
	c41.02,1.39,83.47,9.54,118.43,32.02c5.97,3.52,11,8.27,16.24,12.76c3.35,2.39,6.36,5.04,7.51,9.22c2.43,7.67-2.33,16.51-10.1,18.66
	c-10.33,3.34-17.85-6.33-25.01-12.12c-6.81-4.82-12.21-8.14-19.24-11.56c-30.33-13.58-63.87-19.47-97-18.86
	c-31.14-1.67-62.04,5.5-91.1,16.28c-19.85,7.3-37.71,18.89-55.42,30.27c-6.92,5.14-13.67,10.47-20.02,16.3
	C401.79,183.69,390.84,204.01,375.59,191.25z"/>
<path class="st0" d="M563.87,742.74c-9.57-0.49-18.75-3.16-27.8-6.1c-18.3-7.18-8.51-34.4,10.23-28.2
	c15.37,5.82,32.18,5.81,48.01,1.78c17.7-5.07,34.02-13.73,48.78-24.64c20.45-12.2,39.12-27.09,53.92-45.89
	c20.9-29.39,36.84-62.08,47.5-96.45c3.76-18.58,7.26-37.24,10.27-55.97c1.05-10.1,1.96-20.2,3.55-30.24
	c1.06-12.48,0.7-25.03,2.08-37.5c-0.16-11.81,0.27-23.66-0.67-35.45c-2.47-8.31,0.98-17.83,9.76-20.36
	c24.19-5.09,20.49,26.27,20.75,41.58c0.45,10.8-0.16,21.52-1.12,32.27c-0.15,11.44-0.48,22.84-2.61,34.11
	c-1.65,21.1-5.6,41.92-9.83,62.63c-2.74,21.97-11.89,42.41-20.67,62.52c-18.06,39.97-42.73,78.66-80.03,103.13
	c-13.7,8.46-26.48,18.35-40.62,26.07C613.22,736.96,588.89,745.1,563.87,742.74z"/>
<path class="st0" d="M824.62,933.4c-11.05-2.09-21.28-6.94-32.1-9.9c-10.89-3.46-22.11-6.61-31.54-13.32
	c-27.55-18.22-49.12-45.18-59.81-76.5c-11.15-37.64-14.16-76.63-15.03-115.54c-0.39-9.22-0.51-18.45-0.68-27.67
	c-1.19-13.96-2.97-35.74,17.21-34.14c8.04,1.26,13.8,9.09,12.49,17.15c-0.39,2.45-0.31,4.95-0.29,7.42
	c0.37,5.87,0.66,11.72,0.72,17.6c0.37,20.91,0.9,40.7,2.65,61.37c3.08,25.03,5.06,51.03,15.51,74.28
	c9.66,22.56,27.64,41.32,48.53,53.93c9.01,4.14,18.76,6.47,28.17,9.53c5.77,1.84,11.31,4.36,17.2,5.8
	c5.75,0.82,11.82,2.98,14.46,8.59C848.4,923.38,837.07,937.21,824.62,933.4z"/>
<path class="st0" d="M356.05,934.5c-12.63-2.49-15.8-21.15-4.37-27.42c2.57-1.42,5.06-2.98,7.5-4.63
	c12.38-8.25,23.54-18.03,34.09-28.48c27.79-25.62,39.68-62.77,45.73-99.08c2.47-15.19,2.45-30.62,3.94-45.92
	c0.77-6.68,1.55-16.28,1.63-22.37c0.2-7.48,0.07-15-0.58-22.46c-0.5-4-1.39-8-1.58-12.02c-0.4-8.17,6.43-15.22,14.5-15.49
	c16.23-0.05,16.25,17.27,17.29,29.34c1.05,16.13,0.17,32.31-1.63,48.36c-2.36,54.43-12.81,113.05-51.52,154.06
	c-11.78,12.27-24.15,24.14-38.12,33.91C374.76,927.41,366.5,936.62,356.05,934.5z"/>
<path class="st0" d="M444.9,700.4c-1.66-10.46-3.6-21.17-5.46-31.55c-0.99-4.64-1.54-9.37-2.83-13.95
	c-2.21-7.87,2.63-16.3,10.48-18.45c7.91-2.18,16.24,2.61,18.45,10.48c1.27,4.49,1.85,9.1,2.74,13.67
	c2.52,11.84,4.26,23.83,6.35,35.74C476.58,715.99,448.38,719.95,444.9,700.4z"/>
<path class="st0" d="M697.89,713.17c-8.05-1.09-14-8.81-12.83-16.9c0.41-2.81,0.96-5.59,1.44-8.39c1.08-7.47,3.53-14.61,5.26-21.93
	c1.48-6.27,3.71-12.31,5.2-18.57c0.74-3.27,1.51-6.73,2.84-9.83c8.27-17.86,34.62-6.86,27.69,11.57c-1.56,6.14-3.07,12.3-5.09,18.32
	c-1.89,6.86-3.52,13.79-5.48,20.63c-0.77,4.08-1.53,8.17-2.13,12.27C713.65,708.47,705.89,714.31,697.89,713.17z"/>
</svg>
