<?xml version="1.0" encoding="utf-8"?>
<!-- Generator: Adobe Adobe Illustrator 24.2.0, SVG Export Plug-In . SVG Version: 6.00 Build 0)  -->
<svg version="1.1" id="Capa_de_vector_1_" xmlns="http://www.w3.org/2000/svg" xmlns:xlink="http://www.w3.org/1999/xlink" x="0px"
	 y="0px" viewBox="0 0 1000 1000" style="enable-background:new 0 0 1000 1000;" xml:space="preserve">
<style type="text/css">
	.st0{fill:#C7CCAC;}
</style>
<path class="st0" d="M127.42,965.24c-0.56-33.83,3.54-67.42,6.99-101.01c6.07-65.85,13.54-131.57,26.37-196.53
	c12.19-70.32,36.18-137.76,54.96-206.44c10.27-34.03,17.32-69.01,20.47-104.44c2.04-73.72-11.43-146.73-17.13-220.05
	c-1.65-30.66-6.44-61.12-5.8-91.89c-1.45-10.3,5.23-21.12,16.43-20.74c10.61-0.17,18.37,11.79,13.57,21.32
	c0.02,9.52,0.11,19.05,0.63,28.56c4.24,43.83,6.87,87.81,12.27,131.53c4.75,47.13,11.11,94.26,10.29,141.73
	c-2.36,72.97-28.39,142.27-48.04,211.86c-31.52,101.33-44.92,206.99-54.64,312.3c-3.17,31.19-6.97,62.39-6.36,93.8
	C157.1,984.49,127.9,985.26,127.42,965.24z"/>
<path class="st0" d="M725.39,978.54c-11.55-5.34-9.53-16.1-6.54-26.13c1.34-6.76,2.72-13.51,4.13-20.26
	c6.03-32.2,13.5-64.1,18.53-96.48c4.5-29.69,6.23-59.67,4.88-89.67c-1.02-28.65-1.42-57.51-7.14-85.71
	c-6.65-29.24-12.71-58.68-22.9-86.94c-7.73-22.1-18.03-43.21-27.37-64.66c-18.25-30.89-34.23-63.3-55.17-92.55
	c-8.13-11.43-15.14-23.59-21.38-36.13c-18.4-30.9-36.79-64.65-34.99-101.72c-0.73-27.05,5.25-53.61,10.32-80.03
	c6.23-34.92,16.53-68.91,24.67-103.39c2.52-14.7,6.64-29.08,8.48-43.9c1.68-11.99-0.07-28.6,16.5-29.15
	c21.11,1.39,13.97,25.2,12.4,39.22c-4.7,25.32-10.21,50.51-17,75.37c-7.55,28.78-14.16,57.76-19.35,87.07
	c-5.3,29.82-11.15,62.13-0.19,91.3c8.11,23.99,22.83,44.81,34.23,67.24c18.07,27.83,36.81,55.27,52.09,84.81
	c4.21,8.5,9.64,16.28,14.2,24.57c8.71,16.82,15.3,34.68,23.27,51.85c14.77,35.83,23.55,73.65,31.63,111.44
	c7.23,37.67,7.31,76.28,8.08,114.5c0.42,40.65-6.79,80.87-14.61,120.61c-4.52,19.4-7.87,39.04-11.97,58.53
	C747.57,962.35,745.55,985.16,725.39,978.54z"/>
<path class="st0" d="M460.89,766.28c-3.88-0.53-7.45-2.6-9.84-5.7c-2.34-3.03-3.73-7.37-2.99-11.2c0.03-0.16,0.06-0.32,0.1-0.49
	c0.08-0.52,0.18-1.03,0.31-1.53c0.04-0.17,0.07-0.35,0.11-0.52c0.07-0.35,0.16-0.69,0.27-1.04c3.26-13.49,9.27-26.15,16.22-38.14
	c10.31-17.79,22.91-34.32,36.37-49.84c13.76-15.89,28.46-30.91,44.01-45.06c15.41-14.03,31.54-27.27,48.41-39.52
	c16.83-12.23,34.44-23.61,52.96-33.12c14.11-7.25,28.77-13.78,44.18-17.73c7.91-2.03,16.25,2.5,18.45,10.48
	c2.14,7.77-2.56,16.43-10.48,18.45c-3.5,0.9-6.96,1.96-10.38,3.11c-8.51,3.03-16.77,6.68-24.86,10.69
	c-13.67,6.96-26.79,14.92-39.54,23.45c-16.3,11.11-31.97,23.15-46.93,36.02c-1.57,1.35-3.14,2.72-4.7,4.09
	c-15.22,13.5-29.74,27.76-43.35,42.9c-0.61,0.67-1.21,1.35-1.81,2.03c-10.05,11.47-19.55,23.41-28.16,36.01
	c-4.88,7.31-9.44,14.82-13.44,22.66c-2.18,4.45-4.17,8.99-5.85,13.66c-1,2.99-1.87,6.03-2.45,8.87c-0.28,1.33-0.8,2.61-1.5,3.8
	c-0.94,1.77-2.21,3.35-3.92,4.67c-2.63,2.03-5.89,3.12-9.19,3.12C462.22,766.42,461.55,766.37,460.89,766.28z"/>
<path class="st0" d="M438.91,967.41c-2.71-71.76,1.76-143.9,8.59-215.23c2.88-12.52,21.4-14.85,27.42-3.58
	c2.54,4.06,2.11,8.59,1.37,13.08c-0.66,10.8-1.17,21.62-2.09,32.4c-5.12,53.86-7.37,108.01-5.51,162.09
	C474.11,989.1,440.6,989.12,438.91,967.41z"/>
<path class="st0" d="M391.12,989.88c-22.76-8.41-3.06-32.38,1.31-47.09c5.38-15,11.96-29.52,17.92-44.28
	c4.8-14.5,8.17-29.42,12.72-43.98c6.48-22.04,10.63-44.64,16.14-66.92c2.45-9.36,1.41-19.35,4.14-28.56
	c4.74-12.11,23.01-12.35,27.83-0.2c2.45,5.14,0.08,10.55,0.1,15.88c-0.93,13.76-4.56,27.12-7.74,40.48
	c-6.31,30.47-15.08,60.32-23.87,90.14c-5.25,15.21-12.54,29.63-17.96,44.79c-3.53,10.01-8.22,19.54-12.16,29.38
	C407.39,987.22,398.86,992.18,391.12,989.88z"/>
<path class="st0" d="M452.36,774.62c-20.53-7.73-41.13-15.92-60.37-26.51c-18.45-10.71-36.11-22.7-53.23-35.42
	c-49.14-34.46-89.74-78.85-128.79-124.01c-10.82-9.79-20.93-25.97-3.43-35.09c7.72-3.05,16.34,0.93,19.56,8.43
	c6.92,7.26,13.69,14.66,20.1,22.38c20.9,24.49,43.12,47.88,66.98,69.51c30.96,27.03,64.42,51.5,100.17,71.82
	c11.62,5.11,23.05,10.66,34.91,15.19c7.19,3.64,16.82,4.35,21.13,11.93C476,763.8,464.65,778.53,452.36,774.62z"/>
<path class="st0" d="M364.38,571.02c-21.74-0.61-43.25-3.88-64.26-9.47c-21.63-5.35-43.31-11.48-62.96-22.2
	c-12.65-6.27-33.53-11.95-23.8-30.36c4.42-6.82,14.09-8.98,20.86-4.33c10.58,5.05,21.05,10.32,31.69,15.25
	c17.72,6.71,36.08,11.47,54.53,15.68c27.23,6.08,55.6,6.8,83.3,4.13c21.59-3.35,42.44-10.14,63.21-16.74
	c31.23-8.82,61.29-21.13,91.23-33.55c23.43-9.8,47.72-17.35,71.29-26.81c12.86-4.29,25.43-9.72,38.65-12.77
	c19.33-3.29,25.35,24.8,6,29.4c-20.73,5.72-40.58,14.35-60.84,21.53c-50.24,17.74-98.51,40.7-150.02,54.84
	C431.36,566.27,398.16,573.02,364.38,571.02z"/>
<path class="st0" d="M386.66,383.65c-15.31-1.37-15.51-15.46-13.33-27.43c0.42-8.13,2.71-17.7,11.29-20.68
	c7.52-2.89,16.62,1.36,19.22,8.98c2.39,5.72-0.84,11.6-1.02,17.43C402.59,373.46,400.16,383.15,386.66,383.65z"/>
<path class="st0" d="M121.51,506.28c-6.64-2.38-12.45-6.2-17.46-11.13c-4.64-4.57-7.91-10.14-10.39-16.13
	c-1.12-2.7-1.82-5.62-2.32-8.5c-0.62-3.54-0.93-7.21-0.63-10.8c0.32-3.84,0.98-7.48,2.06-11.19c1.02-3.5,2.67-6.79,4.49-9.93
	c3.42-5.88,8.38-10.98,14.04-14.74c2.24-1.49,4.62-2.79,7.09-3.88c0.37-0.18,0.75-0.36,1.14-0.53c5.22-2.24,10.89-3.37,16.58-3.46
	c1.29-0.03,2.57,0,3.85,0.09c0.18,0.01,0.36,0.03,0.55,0.05c8.38,0.65,16.61,3.52,23.38,8.4c9.63,6.94,16.87,17.52,18.87,29.33
	c1.04,6.14,1.14,12.37-0.24,18.48c-1.59,6.99-4.62,13.33-8.98,19.02c-7.66,9.97-19.72,16.26-32.17,17.44
	c-1.41,0.13-2.83,0.2-4.24,0.2C131.81,509,126.5,508.07,121.51,506.28z M137.43,479c0.79-0.05,1.57-0.12,2.36-0.22
	c0.68-0.14,1.35-0.29,2.02-0.46c0.66-0.22,1.31-0.46,1.96-0.72c0.58-0.28,1.16-0.58,1.72-0.89c0.62-0.4,1.23-0.82,1.83-1.26
	c0.52-0.45,1.03-0.9,1.53-1.38c0.49-0.54,0.96-1.09,1.42-1.65c0.42-0.61,0.83-1.23,1.21-1.86c0.33-0.65,0.64-1.3,0.94-1.97
	c0.25-0.72,0.48-1.44,0.69-2.17c0.15-0.71,0.27-1.43,0.37-2.15c0.05-0.71,0.08-1.42,0.09-2.13c-0.04-0.72-0.11-1.44-0.19-2.16
	c-0.14-0.72-0.3-1.43-0.48-2.14c-0.21-0.64-0.44-1.28-0.69-1.9c-0.31-0.64-0.63-1.27-0.97-1.9c-0.39-0.6-0.8-1.19-1.22-1.77
	c-0.46-0.53-0.93-1.06-1.41-1.56c-0.52-0.48-1.06-0.94-1.62-1.39c-0.61-0.43-1.23-0.83-1.87-1.22c-0.64-0.33-1.29-0.64-1.95-0.93
	c-0.7-0.25-1.41-0.47-2.13-0.68c-0.72-0.15-1.44-0.28-2.17-0.38c-0.72-0.05-1.44-0.08-2.17-0.09c-0.71,0.05-1.41,0.11-2.11,0.2
	c-0.73,0.15-1.45,0.31-2.17,0.5c-0.69,0.24-1.37,0.49-2.05,0.76c-0.52,0.26-1.03,0.52-1.54,0.79c-0.63,0.4-1.24,0.81-1.85,1.25
	c-0.52,0.44-1.03,0.89-1.53,1.35c-0.56,0.61-1.09,1.23-1.61,1.87c-0.39,0.58-0.77,1.17-1.14,1.76c-0.31,0.62-0.61,1.24-0.9,1.87
	c-0.27,0.78-0.52,1.57-0.75,2.37c-0.13,0.66-0.24,1.33-0.34,1.99c-0.05,0.74-0.08,1.48-0.09,2.22c0.05,0.7,0.11,1.39,0.19,2.08
	c0.14,0.72,0.3,1.43,0.48,2.14c0.22,0.65,0.46,1.3,0.71,1.94c0.33,0.68,0.68,1.34,1.04,2c0.38,0.57,0.77,1.13,1.18,1.69
	c0.49,0.56,0.99,1.1,1.5,1.64c0.51,0.45,1.03,0.89,1.56,1.32c0.62,0.42,1.25,0.82,1.89,1.21c0.66,0.33,1.32,0.64,1.99,0.93
	c0.68,0.23,1.35,0.45,2.04,0.65c0.68,0.14,1.35,0.26,2.03,0.36C135.97,478.95,136.7,478.98,137.43,479z"/>
<path class="st0" d="M717.2,250.98c-5.83-3.33-10.95-7.94-14.96-13.32c-1.81-2.44-3.45-5.03-4.78-7.76
	c-1.63-3.34-2.78-6.72-3.78-10.29c-1.76-6.27-1.72-12.96-0.94-19.37c0.8-6.59,3.38-12.8,6.61-18.54
	c3.25-5.77,8.03-10.55,13.22-14.57c5.31-4.11,11.79-6.99,18.3-8.54c4.24-1.01,8.54-1.43,12.9-1.37c2.02,0.03,4.04,0.26,6.04,0.51
	c1.99,0.25,4.14,0.63,6.1,1.29c0.16,0.04,0.32,0.08,0.48,0.13c0.39,0.09,0.78,0.19,1.16,0.31c17.57,5.53,31.61,21.04,34.54,39.37
	c0.95,5.97,1.04,11.96-0.08,17.93c-1.16,6.21-3.52,12.29-6.91,17.62c-3.54,5.55-8.04,10.18-13.31,14.1
	c-5.16,3.85-11.22,6.32-17.39,7.96c-3.77,1-7.65,1.48-11.53,1.48C733.91,257.92,724.93,255.39,717.2,250.98z M743.1,227.86
	c0.9-0.06,1.79-0.15,2.69-0.26c0.8-0.16,1.59-0.33,2.38-0.53c0.85-0.28,1.69-0.58,2.52-0.91c0.8-0.38,1.59-0.79,2.36-1.22
	c0.72-0.47,1.43-0.97,2.13-1.48c0.62-0.53,1.22-1.07,1.81-1.63c0.62-0.68,1.23-1.38,1.81-2.1c0.5-0.72,0.98-1.45,1.44-2.2
	c0.44-0.86,0.86-1.73,1.25-2.61c0.3-0.86,0.57-1.72,0.82-2.59c0.18-0.87,0.33-1.74,0.46-2.62c0.07-0.93,0.11-1.85,0.11-2.78
	c-0.05-0.88-0.13-1.76-0.24-2.63c-0.16-0.83-0.34-1.66-0.55-2.47c-0.27-0.82-0.57-1.63-0.89-2.43c-0.37-0.77-0.76-1.53-1.18-2.28
	c-0.48-0.75-0.99-1.49-1.52-2.21c-0.55-0.65-1.11-1.28-1.7-1.9c-0.68-0.63-1.38-1.23-2.1-1.8c-0.74-0.52-1.5-1.02-2.28-1.49
	c-0.76-0.39-1.53-0.77-2.31-1.11c-0.71-0.25-1.43-0.48-2.16-0.69c-1.07-0.19-2.14-0.44-3.21-0.61c-0.9-0.06-1.8-0.1-2.71-0.1
	c-0.9,0.06-1.79,0.14-2.69,0.25c-0.91,0.19-1.81,0.4-2.71,0.63c-0.67,0.23-1.32,0.47-1.98,0.72c-0.89,0.42-1.76,0.87-2.63,1.34
	c-0.74,0.49-1.46,0.99-2.17,1.51c-0.68,0.59-1.34,1.19-1.99,1.81c-0.51,0.57-1,1.14-1.49,1.73c-0.58,0.83-1.13,1.67-1.66,2.53
	c-0.39,0.77-0.76,1.55-1.11,2.35c-0.3,0.85-0.57,1.71-0.82,2.58c-0.18,0.88-0.34,1.76-0.47,2.65c-0.06,0.88-0.1,1.75-0.11,2.63
	c0.05,0.89,0.13,1.78,0.23,2.66c0.18,0.92,0.38,1.83,0.62,2.74c0.25,0.74,0.51,1.47,0.79,2.2c0.41,0.86,0.85,1.71,1.31,2.55
	c0.44,0.67,0.89,1.32,1.35,1.96c0.58,0.68,1.17,1.35,1.78,2c0.65,0.59,1.31,1.15,1.98,1.7c0.79,0.55,1.59,1.07,2.41,1.57
	c0.77,0.39,1.54,0.75,2.33,1.1c0.87,0.31,1.74,0.59,2.62,0.84c0.89,0.19,1.78,0.35,2.68,0.48
	C741.25,227.81,742.18,227.85,743.1,227.86z"/>
<path class="st0" d="M835.53,501.27c-5.99-1.57-11.71-4.79-16.18-9.06c-5.27-5.04-8.95-11.2-10.96-18.2
	c-3.61-12.61-0.08-27.22,9.06-36.68c3.7-3.83,7.93-6.84,12.65-8.97c0.7-0.4,1.44-0.75,2.21-1.03c2.31-0.86,4.69-1.49,7.11-1.89
	c1.96-0.34,3.94-0.5,5.93-0.52c1.63-0.02,3.27,0.06,4.9,0.24c0.52,0.05,1.04,0.11,1.55,0.18c0.24,0.03,0.48,0.07,0.72,0.11
	c0.38,0.06,0.75,0.14,1.12,0.23c9.65,1.94,18.01,7.61,23.88,15.48c5.18,6.95,7.79,16.2,7.21,24.82
	c-0.68,10.07-4.97,19.21-12.23,26.2c-4.69,4.51-10.67,7.62-16.93,9.28c-3.12,0.83-6.28,1.22-9.45,1.22
	C842.56,502.68,839.01,502.19,835.53,501.27z M846.08,472.71c0.37-0.03,0.73-0.06,1.1-0.1c0.38-0.08,0.76-0.16,1.14-0.25
	c0.38-0.13,0.77-0.27,1.15-0.41c0.36-0.18,0.72-0.36,1.07-0.55c0.29-0.19,0.58-0.39,0.87-0.6c0.29-0.25,0.58-0.51,0.86-0.78
	c0.28-0.31,0.55-0.63,0.82-0.95c0.19-0.28,0.38-0.57,0.56-0.86c0.18-0.37,0.36-0.74,0.53-1.11c0.13-0.37,0.24-0.74,0.35-1.11
	c0.08-0.4,0.15-0.81,0.21-1.22c0.03-0.4,0.04-0.8,0.05-1.21c-0.03-0.4-0.06-0.79-0.11-1.18c-0.08-0.38-0.16-0.76-0.26-1.13
	c-0.12-0.34-0.24-0.69-0.37-1.03c-0.16-0.33-0.33-0.66-0.51-0.98c-0.2-0.3-0.41-0.6-0.62-0.89c-0.27-0.32-0.55-0.62-0.84-0.93
	c-0.29-0.26-0.59-0.51-0.89-0.76c-0.33-0.22-0.66-0.44-1-0.65c-0.34-0.17-0.69-0.34-1.04-0.49c-0.36-0.12-0.72-0.24-1.09-0.35
	c-0.41-0.08-0.82-0.15-1.23-0.22c-0.4-0.03-0.81-0.04-1.21-0.05c-0.29,0.02-0.58,0.05-0.87,0.08c-0.44,0.09-0.88,0.19-1.32,0.3
	c-0.38,0.13-0.75,0.27-1.12,0.41c-0.33,0.16-0.65,0.33-0.98,0.5c-0.32,0.21-0.63,0.42-0.94,0.64c-0.28,0.24-0.55,0.48-0.82,0.73
	c-0.28,0.31-0.55,0.62-0.81,0.94c-0.23,0.34-0.45,0.68-0.66,1.02c-0.17,0.33-0.32,0.67-0.48,1.01c-0.13,0.37-0.25,0.74-0.36,1.11
	c-0.08,0.41-0.15,0.82-0.22,1.23c-0.02,0.39-0.04,0.79-0.04,1.18c0.03,0.37,0.06,0.75,0.1,1.12c0.08,0.4,0.17,0.79,0.27,1.18
	c0.12,0.34,0.24,0.67,0.37,1.01c0.18,0.36,0.37,0.72,0.56,1.08c0.19,0.29,0.39,0.57,0.59,0.84c0.25,0.29,0.51,0.58,0.77,0.87
	c0.29,0.26,0.58,0.51,0.88,0.76c0.33,0.22,0.66,0.44,1,0.65c0.37,0.18,0.74,0.36,1.12,0.53c0.37,0.12,0.73,0.24,1.1,0.35
	c0.41,0.08,0.81,0.15,1.22,0.22C845.35,472.69,845.71,472.7,846.08,472.71z"/>
<path class="st0" d="M117.27,177.42c-9.05-5.98-14.63-16.42-15.1-27.18c-0.54-12.47,6.29-25.21,17.31-31.25
	c1.06-0.62,2.16-1.18,3.3-1.67c3.62-1.56,7.34-2.39,11.25-2.8c6.38-0.66,12.97,0.96,18.64,3.84c13.84,7.04,21.32,23.82,17.44,38.82
	c-2.55,9.87-9.09,17.94-18.15,22.59c-4.72,2.42-9.88,3.58-15.04,3.58C130.01,183.34,123.12,181.28,117.27,177.42z M136.56,153.38
	c0.17,0,0.34-0.01,0.51-0.02c0.19-0.03,0.38-0.06,0.57-0.1c0.2-0.06,0.4-0.12,0.59-0.18c0.18-0.08,0.35-0.16,0.52-0.24
	c0.17-0.1,0.33-0.2,0.5-0.31c0.15-0.12,0.31-0.25,0.46-0.37c0.12-0.12,0.23-0.24,0.34-0.36c0.13-0.18,0.27-0.36,0.39-0.54
	c0.09-0.16,0.18-0.33,0.27-0.5c0.08-0.19,0.15-0.38,0.22-0.58c0.05-0.18,0.09-0.37,0.13-0.55c0.02-0.19,0.04-0.39,0.05-0.58
	c0-0.19-0.01-0.39-0.02-0.58c-0.03-0.22-0.07-0.43-0.11-0.65c-0.05-0.17-0.1-0.34-0.16-0.52c-0.07-0.17-0.15-0.33-0.23-0.5
	c-0.1-0.17-0.21-0.34-0.32-0.51c-0.11-0.13-0.21-0.27-0.32-0.4c-0.16-0.16-0.32-0.31-0.49-0.47c-0.16-0.12-0.33-0.24-0.49-0.36
	c-0.16-0.09-0.31-0.17-0.47-0.26c-0.18-0.07-0.37-0.14-0.55-0.21c-0.18-0.05-0.37-0.09-0.55-0.13c-0.21-0.02-0.43-0.04-0.64-0.06
	c-0.2,0-0.39,0.01-0.59,0.02c-0.18,0.03-0.36,0.06-0.54,0.09c-0.22,0.06-0.44,0.13-0.66,0.2c-0.14,0.06-0.27,0.12-0.4,0.18
	c-0.14,0.09-0.28,0.18-0.42,0.27c-0.18,0.14-0.35,0.28-0.52,0.42c-0.14,0.15-0.28,0.29-0.42,0.44c-0.11,0.15-0.22,0.3-0.33,0.45
	c-0.1,0.17-0.2,0.35-0.29,0.53c-0.09,0.21-0.17,0.43-0.25,0.65c-0.04,0.18-0.08,0.35-0.12,0.53c-0.02,0.19-0.04,0.38-0.05,0.57
	c0,0.22,0.01,0.44,0.02,0.65c0.03,0.16,0.05,0.32,0.08,0.49c0.06,0.19,0.12,0.39,0.18,0.58c0.08,0.18,0.16,0.35,0.24,0.53
	c0.1,0.16,0.19,0.32,0.29,0.47c0.12,0.15,0.24,0.3,0.36,0.44c0.14,0.14,0.29,0.28,0.44,0.42c0.15,0.11,0.29,0.21,0.44,0.32
	c0.19,0.11,0.38,0.21,0.57,0.31c0.17,0.07,0.35,0.14,0.52,0.2c0.22,0.05,0.44,0.11,0.65,0.15
	C136.15,153.34,136.36,153.36,136.56,153.38z"/>
</svg>
