<?xml version="1.0" encoding="utf-8"?>
<!-- Generator: Adobe Adobe Illustrator 24.2.0, SVG Export Plug-In . SVG Version: 6.00 Build 0)  -->
<svg version="1.1" id="Capa_de_vector_1_" xmlns="http://www.w3.org/2000/svg" xmlns:xlink="http://www.w3.org/1999/xlink" x="0px"
	 y="0px" viewBox="0 0 1000 1000" style="enable-background:new 0 0 1000 1000;" xml:space="preserve">
<style type="text/css">
	.st0{fill:#A46460;}
</style>
<path class="st0" d="M807.96,223.81c-6.22-3.05-11.8-7.44-15.73-13.21c-3.91-5.76-6.57-12.31-7.13-19.3
	c-0.84-10.52,2.21-21.3,9.15-29.37c5-5.81,11.34-10.12,18.5-12.48c0.56-0.23,1.15-0.43,1.75-0.59c1.16-0.31,2.32-0.56,3.48-0.75
	c0.51-0.1,1.02-0.18,1.53-0.26c0.54-0.08,1.08-0.13,1.62-0.15c4.23-0.37,8.49-0.06,12.73,0.81c7.26,1.49,13.92,5.41,19.23,10.52
	c7.89,7.6,12.4,18.93,11.89,29.86c-0.3,6.52-2.02,12.6-5.12,18.33c-3.23,5.96-8.19,10.71-13.81,14.39
	c-6.13,4.02-13.59,6.03-21.04,6.03C819.08,227.64,813.17,226.36,807.96,223.81z M825.64,197.6c0.44-0.05,0.87-0.11,1.31-0.17
	c0.43-0.11,0.86-0.22,1.28-0.35c0.41-0.16,0.82-0.33,1.23-0.52c0.38-0.21,0.75-0.43,1.12-0.65c0.36-0.26,0.71-0.54,1.06-0.82
	c0.3-0.29,0.59-0.58,0.87-0.88c0.28-0.34,0.55-0.7,0.81-1.05c0.23-0.37,0.45-0.74,0.66-1.12c0.17-0.38,0.33-0.76,0.48-1.14
	c0.13-0.43,0.25-0.87,0.36-1.31c0.07-0.46,0.13-0.91,0.19-1.37c0.01-0.44,0.01-0.87,0-1.31c-0.05-0.44-0.11-0.88-0.18-1.32
	c-0.11-0.46-0.24-0.91-0.38-1.37c-0.17-0.42-0.35-0.85-0.54-1.26c-0.19-0.34-0.39-0.68-0.59-1.02c-0.25-0.35-0.51-0.68-0.78-1.02
	c-0.3-0.31-0.6-0.62-0.91-0.91c-0.34-0.28-0.69-0.55-1.05-0.81c-0.37-0.23-0.74-0.45-1.12-0.66c-0.38-0.17-0.77-0.34-1.16-0.49
	c-0.44-0.13-0.88-0.25-1.32-0.36c-0.45-0.07-0.91-0.13-1.36-0.19c-0.46-0.01-0.92-0.01-1.38,0c-0.29,0.03-0.58,0.07-0.87,0.11
	c-0.54,0.13-1.08,0.28-1.62,0.44c-0.42,0.17-0.84,0.35-1.25,0.53c-0.37,0.21-0.73,0.42-1.09,0.64c-0.35,0.26-0.69,0.53-1.03,0.8
	c-0.29,0.28-0.58,0.56-0.86,0.85c-0.23,0.29-0.47,0.58-0.69,0.87c-0.31,0.49-0.6,0.99-0.88,1.49c-0.14,0.33-0.28,0.66-0.41,0.99
	c-0.14,0.49-0.28,0.98-0.4,1.47c-0.06,0.43-0.12,0.87-0.17,1.3c-0.01,0.44,0,0.87,0.01,1.31c0.05,0.4,0.1,0.8,0.16,1.21
	c0.11,0.43,0.22,0.85,0.35,1.28c0.17,0.42,0.34,0.84,0.53,1.25c0.2,0.36,0.4,0.71,0.61,1.06c0.29,0.4,0.59,0.79,0.9,1.17
	c0.28,0.29,0.57,0.57,0.86,0.85c0.33,0.27,0.67,0.53,1.01,0.78c0.36,0.22,0.72,0.43,1.09,0.64c0.41,0.18,0.83,0.36,1.24,0.53
	c0.42,0.12,0.83,0.24,1.25,0.35c0.42,0.07,0.85,0.12,1.27,0.17C824.69,197.61,825.16,197.61,825.64,197.6z"/>
<path class="st0" d="M148.27,363.45c-11.36-7.47-19.15-19.2-21.49-32.61c-1.08-6.23-0.84-12.62,0.52-18.78
	c1.42-6.42,4.22-12.29,7.95-17.67c7.43-10.72,19.41-17.49,32.11-19.63c4.39-0.74,9.02-0.74,13.43-0.19c0.5,0.06,0.99,0.15,1.47,0.26
	c7.79,1.29,15.12,4.37,21.52,9.11c9.05,6.71,15.75,16.98,18.12,28.01c1.54,7.18,1.56,14.39,0,21.57
	c-1.35,6.19-4.06,11.93-7.63,17.13c-6.54,9.54-16.98,16.61-28.24,19.23c-3.76,0.88-7.59,1.31-11.42,1.31
	C165.34,371.19,156.13,368.62,148.27,363.45z M175.9,341.22c0.78-0.08,1.55-0.19,2.33-0.32c0.81-0.19,1.62-0.41,2.41-0.65
	c0.78-0.3,1.54-0.62,2.3-0.97c0.71-0.39,1.4-0.79,2.09-1.22c0.61-0.44,1.2-0.9,1.78-1.37c0.56-0.53,1.1-1.07,1.64-1.63
	c0.52-0.63,1.03-1.27,1.51-1.94c0.43-0.69,0.85-1.39,1.23-2.11c0.33-0.71,0.63-1.43,0.91-2.16c0.25-0.81,0.48-1.62,0.68-2.44
	c0.14-0.81,0.25-1.63,0.33-2.45c0.02-0.8,0.03-1.6,0-2.4c-0.09-0.85-0.2-1.69-0.34-2.53c-0.2-0.81-0.42-1.62-0.67-2.41
	c-0.3-0.77-0.62-1.53-0.97-2.28c-0.37-0.68-0.77-1.36-1.18-2.02c-0.45-0.62-0.92-1.23-1.4-1.82c-0.56-0.59-1.13-1.17-1.72-1.73
	c-0.55-0.46-1.12-0.89-1.7-1.32c-0.73-0.46-1.48-0.9-2.25-1.32c-0.73-0.34-1.47-0.65-2.22-0.94c-0.77-0.24-1.55-0.45-2.33-0.64
	c-0.86-0.14-1.71-0.25-2.58-0.35c-0.75-0.02-1.5-0.01-2.25,0.02c-0.89,0.09-1.77,0.21-2.66,0.37c-0.73,0.18-1.46,0.38-2.18,0.6
	c-0.78,0.3-1.56,0.62-2.33,0.97c-0.74,0.4-1.47,0.83-2.18,1.28c-0.61,0.45-1.21,0.92-1.8,1.4c-0.56,0.53-1.09,1.07-1.62,1.62
	c-0.51,0.63-1,1.26-1.48,1.91c-0.44,0.71-0.85,1.42-1.25,2.15c-0.32,0.71-0.62,1.43-0.9,2.16c-0.24,0.78-0.45,1.57-0.65,2.36
	c-0.13,0.82-0.25,1.64-0.34,2.47c-0.02,0.82-0.02,1.63,0,2.45c0.08,0.77,0.18,1.54,0.31,2.31c0.21,0.9,0.45,1.78,0.73,2.66
	c0.29,0.72,0.59,1.44,0.92,2.15c0.4,0.72,0.81,1.42,1.25,2.12c0.44,0.6,0.9,1.18,1.37,1.76c0.56,0.59,1.14,1.17,1.74,1.73
	c0.59,0.47,1.18,0.93,1.79,1.37c0.72,0.45,1.46,0.88,2.21,1.28c0.74,0.33,1.48,0.64,2.23,0.93c0.74,0.22,1.48,0.42,2.23,0.61
	c0.8,0.14,1.61,0.25,2.42,0.34C174.16,341.24,175.03,341.25,175.9,341.22z"/>
<path class="st0" d="M173.62,182.79c-3.67-6.71-5.25-14.18-4.39-21.8c0.84-7.45,4.21-14.13,9.05-19.76
	c3.04-3.54,6.97-6.25,11.14-8.29c0.15-0.07,0.31-0.15,0.46-0.21c6.88-3.14,14.6-3.81,22.01-2.35c9.64,1.9,18.98,8.43,23.66,17.17
	c2.18,4.06,3.86,8.39,4.36,13.01c0.66,6.13,0.1,12.36-2.3,18.09c-2.32,5.54-5.93,10.58-10.65,14.33
	c-5.77,4.58-12.66,7.18-19.98,7.78c-0.87,0.07-1.75,0.11-2.63,0.11C191.91,200.86,179.61,193.74,173.62,182.79z M204.45,170.85
	c0.22,0,0.44-0.01,0.66-0.02c0.28-0.04,0.55-0.09,0.83-0.14c0.22-0.06,0.45-0.13,0.67-0.2c0.21-0.09,0.42-0.19,0.63-0.29
	c0.25-0.15,0.5-0.3,0.74-0.45c0.16-0.13,0.32-0.25,0.48-0.38c0.13-0.14,0.27-0.28,0.4-0.42c0.18-0.23,0.35-0.47,0.52-0.7
	c0.12-0.22,0.24-0.44,0.36-0.66c0.09-0.23,0.18-0.46,0.27-0.68c0.06-0.23,0.12-0.46,0.17-0.7c0.03-0.26,0.06-0.51,0.08-0.77
	c0-0.25-0.01-0.5-0.02-0.75c-0.04-0.26-0.08-0.52-0.13-0.78c-0.08-0.27-0.16-0.55-0.25-0.82c-0.09-0.21-0.19-0.42-0.29-0.63
	c-0.09-0.15-0.18-0.29-0.27-0.43c-0.12-0.15-0.23-0.29-0.35-0.44c-0.18-0.18-0.36-0.35-0.55-0.52c-0.23-0.18-0.47-0.35-0.71-0.52
	c-0.23-0.13-0.47-0.27-0.71-0.39c-0.25-0.1-0.51-0.2-0.76-0.3c-0.22-0.06-0.44-0.11-0.66-0.17c-0.26-0.03-0.53-0.06-0.79-0.09
	c-0.3,0-0.6,0.01-0.9,0.03c-0.2,0.03-0.4,0.06-0.61,0.1c-0.22,0.06-0.45,0.13-0.67,0.2c-0.19,0.08-0.38,0.17-0.57,0.26
	c-0.19,0.11-0.38,0.23-0.57,0.34c-0.16,0.13-0.32,0.26-0.48,0.39c-0.2,0.2-0.4,0.41-0.59,0.62c-0.16,0.21-0.31,0.42-0.47,0.64
	c-0.13,0.22-0.25,0.45-0.38,0.67c-0.11,0.26-0.21,0.52-0.31,0.79c-0.06,0.22-0.11,0.44-0.16,0.66c-0.03,0.23-0.05,0.47-0.07,0.7
	c0,0.26,0.01,0.52,0.02,0.78c0.03,0.22,0.07,0.44,0.11,0.66c0.08,0.28,0.16,0.56,0.25,0.83c0.09,0.22,0.19,0.43,0.29,0.64
	c0.13,0.22,0.27,0.44,0.4,0.65c0.14,0.18,0.28,0.35,0.43,0.53c0.13,0.13,0.27,0.26,0.41,0.39c0.2,0.15,0.39,0.3,0.6,0.44
	c0.24,0.13,0.47,0.27,0.71,0.39c0.23,0.09,0.45,0.18,0.68,0.27c0.27,0.07,0.54,0.14,0.82,0.2
	C203.94,170.8,204.2,170.83,204.45,170.85z"/>
<path class="st0" d="M741.38,560.81c-12.55-3.01-24.03-11.62-30.42-22.82c-6.42-11.24-8.57-24.62-5.28-37.23
	c2.18-8.34,6.5-16,12.43-22.15c0.27-0.32,0.55-0.62,0.85-0.9c0.33-0.31,0.67-0.62,1.01-0.93c2.44-2.28,5.12-4.32,8-6.07
	c0.49-0.3,0.99-0.56,1.5-0.8c3-1.69,6.17-3.07,9.53-4.1c10.88-3.34,23.34-2.89,33.79,1.79c5.54,2.48,10.73,5.71,15.06,10.01
	c4.46,4.42,8.06,9.54,10.67,15.26c5.14,11.3,5.53,24.36,1.62,36.07c-3.7,11.12-11.77,20.98-21.99,26.75
	c-5.52,3.11-11.48,5.24-17.76,6.12c-2.25,0.32-4.51,0.47-6.77,0.47C749.51,562.29,745.41,561.78,741.38,560.81z M752.86,532.32
	c0.8,0,1.6-0.03,2.39-0.08c0.93-0.12,1.85-0.28,2.77-0.46c0.79-0.22,1.58-0.46,2.35-0.73c0.79-0.33,1.56-0.69,2.33-1.07
	c0.71-0.42,1.41-0.85,2.09-1.31c0.63-0.49,1.24-0.99,1.83-1.5c0.6-0.6,1.18-1.22,1.75-1.85c0.51-0.67,1-1.35,1.48-2.05
	c0.41-0.7,0.79-1.41,1.16-2.13c0.33-0.77,0.63-1.55,0.91-2.33c0.23-0.82,0.43-1.65,0.61-2.48c0.12-0.85,0.21-1.7,0.28-2.56
	c0-0.87-0.02-1.74-0.07-2.61c-0.11-0.84-0.25-1.67-0.41-2.51c-0.23-0.86-0.49-1.71-0.78-2.55c-0.32-0.75-0.65-1.49-1.01-2.22
	c-0.42-0.73-0.87-1.45-1.34-2.16c-0.52-0.67-1.05-1.33-1.61-1.96c-0.59-0.59-1.2-1.16-1.82-1.71c-0.62-0.48-1.25-0.94-1.89-1.37
	c-0.73-0.43-1.47-0.84-2.23-1.22c-0.77-0.33-1.54-0.63-2.33-0.9c-0.88-0.24-1.76-0.46-2.66-0.64c-0.8-0.11-1.6-0.19-2.4-0.25
	c-0.92-0.01-1.83,0.02-2.75,0.08c-0.82,0.11-1.64,0.25-2.45,0.41c-0.82,0.22-1.63,0.47-2.43,0.75c-0.83,0.35-1.65,0.72-2.45,1.12
	c-0.6,0.35-1.19,0.71-1.77,1.09c-0.02,0.01-0.04,0.03-0.06,0.04c-0.7,0.53-1.38,1.09-2.04,1.67c-0.59,0.58-1.15,1.18-1.7,1.8
	c-0.5,0.64-0.98,1.3-1.44,1.97c-0.43,0.74-0.84,1.49-1.23,2.25c-0.33,0.78-0.63,1.57-0.91,2.37c-0.23,0.82-0.43,1.65-0.6,2.49
	c-0.12,0.92-0.22,1.85-0.28,2.77c0,0.76,0.03,1.51,0.07,2.27c0.12,0.92,0.27,1.82,0.45,2.73c0.23,0.82,0.48,1.62,0.75,2.42
	c0.34,0.79,0.69,1.56,1.07,2.33c0.44,0.74,0.89,1.46,1.37,2.17c0.47,0.6,0.96,1.19,1.45,1.76c0.58,0.58,1.17,1.14,1.78,1.68
	c0.67,0.52,1.36,1.02,2.05,1.5c0.76,0.44,1.54,0.86,2.33,1.26c0.53,0.23,1.06,0.45,1.61,0.64c0.15,0.05,0.29,0.11,0.44,0.16
	c0.12,0.04,0.25,0.07,0.37,0.1c0.73,0.2,1.46,0.37,2.2,0.53C751.01,532.15,751.93,532.25,752.86,532.32z"/>
<path class="st0" d="M452.67,216.13c-0.13-8.28,6.59-14.96,14.76-15.23c17.82-0.59,35.64-1.17,53.46-1.76
	c19.95-0.66,39.91-1.31,59.86-1.97c19.86-0.66,39.71-1.31,59.57-1.96c20.2-0.66,40.39-1.33,60.59-1.99
	c2.32-0.08,4.65-0.15,6.97-0.23c8.18-0.27,15.11,6.7,15.23,14.77c0.13,8.28-6.59,14.96-14.76,15.23
	c-19.15,0.63-38.31,1.26-57.46,1.89c-20.02,0.66-40.05,1.32-60.07,1.98c-19.98,0.66-39.96,1.31-59.95,1.97
	c-19.73,0.65-39.46,1.3-59.19,1.95c-1.26,0.04-2.52,0.08-3.78,0.12c-0.15,0.01-0.31,0.01-0.46,0.01
	C459.47,230.9,452.79,224.05,452.67,216.13z"/>
<path class="st0" d="M376.95,232.72c-3.76-0.99-7.04-3.47-9.04-6.8c-2.06-3.44-2.66-7.66-1.63-11.54c1.03-3.89,3.51-6.84,6.8-9.04
	c14.51-9.71,29.02-19.42,43.54-29.12c16.71-11.18,33.43-22.36,50.14-33.54c16.75-11.2,33.5-22.41,50.25-33.61
	c17.05-11.41,34.11-22.82,51.17-34.23c6.44-4.31,12.88-8.63,19.33-12.93c3.27-2.18,7.8-2.62,11.54-1.63
	c3.76,0.99,7.04,3.47,9.04,6.8c2.06,3.44,2.66,7.66,1.63,11.54c-1.03,3.89-3.51,6.84-6.8,9.04c-15.88,10.58-31.71,21.21-47.57,31.82
	c-16.94,11.33-33.88,22.66-50.82,33.99c-16.83,11.26-33.66,22.52-50.49,33.77c-16.11,10.77-32.21,21.55-48.32,32.33
	c-5.74,3.84-11.48,7.68-17.23,11.52c-2.18,1.46-4.91,2.13-7.6,2.13C379.54,233.22,378.2,233.05,376.95,232.72z"/>
<path class="st0" d="M412.25,376.49c0.73-3.81,1.84-7.57,2.87-11.31c0.05-0.17,0.1-0.35,0.15-0.52
	c-5.64-16.5-13.01-30.41-18.46-47.45c-6.43-19.21-9.92-39.25-12.13-59.35c0.02-8.12-0.38-16.45,0.96-24.47
	c4.55-4.71,10.24-7.37,10.01-15.43c0-8.18-6.82-15-15-15c-8.68,0.36-15.73,7.37-20.37,14.18c-9.15,16.59-5.55,44.24-2.98,62.57
	c4.1,32.71,16.78,63.21,29.21,93.41c3.89,12.92,18.14,13.35,25.3,6.27C411.9,378.42,412.07,377.44,412.25,376.49z"/>
<path class="st0" d="M458.99,201.91c-21.35,3.09-39.38,20.94-45.63,41.19c-10.35,26.09-14.99,53.82-20.92,81.13
	c-7.3,40.2-18.1,79.76-20.72,120.73c-8.14,78.66-19.59,157.93-47.39,232.34c-9.61,31.95-34.09,55.45-50.69,83.57
	c-8.01,13.37-10.57,28.81-15.68,43.25c-9.26,16.3-22.43,30.07-37.01,41.71c-11.43,9.91-38.74,19.54-23.39,38.22
	c7.58,7.63,17.75,4.08,24.57-2.47c10.11-6.24,19.44-13.53,28.26-21.48c15.07-14.01,29.49-30.15,37.26-49.43
	c4.14-14.61,7.51-29.77,16.6-42.29c10.52-15.8,22.72-30.43,32.76-46.56c22.4-41.38,33.1-87.9,43.63-133.43
	c15.95-65.41,17.46-133.18,28.88-199.33c0.8-3.21,1.56-6.43,2.31-9.66c0.08-0.97,0.25-1.94,0.43-2.89c0.54-2.82,1.29-5.61,2.06-8.39
	c4.04-18.86,7.49-37.84,11.53-56.7c4.2-18.41,11.58-61.97,25.47-73.47c3.65-3.05,7.6-6.42,12.63-6.26c8.18,0,15-6.83,15-15
	C479.05,206.18,468.64,199.96,458.99,201.91z"/>
<path class="st0" d="M199.58,909.74c-9.2-10.34-17.53-40.05-0.99-47.09c10.49-4.87,22.97,5.34,20.68,16.52
	c0.08,3.05,0.86,6.06,1.76,8.96c12.61-1.43,23.29-6.84,34.83-10.78c18.34-6.28,37.93-12.25,50.74-27.76
	c6.73-7.99,10.23-18.13,16.99-26.11c5.77-6.89,12.71-12.68,19.4-18.64c9.12-8.43,20.04-14.42,31.34-19.41
	c12.45-5.32,27.68-7.61,36.84-18.4c3-4.26,3.47-9.42,2.95-14.46c0.23-10.62-4.65-19.69-8.43-29.27c-4.5-17-3.98-35.7,1.13-52.51
	c6.31-23.04,18.67-43.55,29.68-64.52c8.78-17.03,18.17-33.71,27.13-50.64c6.88-14.53,15.32-28.24,22.79-42.46
	c4.19-9.15,8.19-18.4,12.75-27.39c10.5-19.6,16.72-40.85,21.36-62.5c4.99-14.64,3.58-30.14,2.55-45.3
	c-0.01-7.34-2.61-14.33-3.21-21.55c0-8.18,6.82-15,15-15c9.69,0.01,14.87,8.4,15.81,17.12c2.74,12.67,2.78,25.76,3.32,38.67
	c0.79,11.83-1.44,23.41-4.72,34.71c-3.93,16.71-7.89,33.47-14.82,49.25c-9.13,18.75-17.17,38.05-27.16,56.37
	c-10.38,17.59-18.85,36.19-28.96,53.93c-8.03,14.55-15.5,29.38-23.36,44.01c-13.18,23.85-27.31,51.17-20.6,79.12
	c7.63,15.31,11.43,32.67,9.37,49.79c-3.21,23.05-23.09,36.19-43.35,43.69c-22.03,5.69-41.47,19.35-55.55,37.07
	c-8.25,15.43-18.47,29.9-33.01,40.04c-12.35,8.64-26.76,13.94-41,18.61C248.95,910.28,219.46,929.15,199.58,909.74z"/>
<path class="st0" d="M628.32,387.29c-28.96-10.39-59.54-17.33-90.2-20.3c-12.43-0.56-27.55,1.24-28.59-15.51
	c0.9-17.66,18.85-15.41,31.65-14.29c29,2.18,57.33,9.7,85.26,17.41c4.51,1.7,9.01,3.45,13.56,5.05
	C657.93,367.59,646.67,394.63,628.32,387.29z"/>
<path class="st0" d="M580.17,639.94c0-0.03-0.01-0.07-0.01-0.11c-1.44-16.17-2.86-32.34-4.3-48.51
	c-1.67-18.76-3.33-37.52-4.99-56.28c-1.74-19.62-3.48-39.24-5.22-58.86c-1.7-19.14-3.4-38.29-5.09-57.43
	c-1.33-15.03-2.65-30.07-4-45.1c-0.01-0.12-0.03-0.24-0.04-0.36c-0.09-1.11-0.2-2.22-0.29-3.33c-0.35-4.06,0.46-7.93,2.99-11.2
	c2.39-3.09,5.96-5.17,9.84-5.7c7.81-1.06,16.16,4.68,16.9,12.82c1.57,17.45,3.09,34.9,4.64,52.35c1.73,19.54,3.46,39.07,5.2,58.61
	c1.72,19.39,3.44,38.79,5.16,58.18c1.66,18.73,3.32,37.47,4.98,56.2c1.32,14.83,2.62,29.66,3.94,44.48c0,0,0,0.01,0,0.01
	c0,0.04,0.01,0.09,0.01,0.13c0.36,4.05-0.46,7.93-2.98,11.2c-2.39,3.09-5.96,5.17-9.84,5.7c-0.63,0.09-1.26,0.13-1.89,0.13
	C587.96,652.9,580.85,647.44,580.17,639.94z"/>
<path class="st0" d="M524.34,930.99c-9.42-4.44-17.99-12.41-19.97-22.98c-1.93-9.69,2.73-19.18,5.99-28.13
	c1.77-5.5,2.39-11.28,3.74-16.89c3.66-11.45,4.3-23.38,3.87-35.33c-13.76-38.17-15.09-38.06-4.32-78.86
	c3.73-16.98,0.64-34.29-1.94-51.2c-3.55-20.22-6.35-40.62-11.49-60.53c-6.15-21.84-8.2-41.44-19.15-60.99
	c-1-2.88-2.4-5.29-4.34-7.67c-8.77-15.11,11.6-30.55,23.75-17.91c6.1,5.27,7.58,13.77,11.39,20.59
	c6.32,11.46,9.93,27.92,12.55,39.75c3.65,15.08,8.06,29.99,10.65,45.32c4.74,32.97,14.96,66.62,7.66,99.94
	c-1.99,10.34-6.31,20.43-6.23,31.07c0.6,8.51,4.69,16.07,7.99,23.75c6.92,20.03,3.29,42.33-1.97,62.35
	c-1.21,10.04-5.02,19.33-8.22,28.82c1.66,1.6,3.88,2.19,6.12,1.69c6.98-7.82,13.01-16.37,18.71-25.15
	c7.14-10.22,15.52-19.66,21.48-30.66c9.06-18.61,6.21-39.92,7.98-59.93c1.83-20.35,10.89-39.18,24.1-54.57
	c13.11-19.53,41.15-28.76,7.6-47.54c-8.64-5.26-16.22-11.93-24.23-18.04c-4.19-3.12-8-6.74-10.9-11.1
	c-5.81-9.08-10.48-23.19,1.1-29.89c11.01-6.21,21.35,2.36,23.91,13.3c2.7,3.53,6.95,5.58,10.24,8.54
	c11.18,10.76,26.98,15.59,36.14,28.55c14.63,18.55,12.66,37.91-2.44,55.36c-6.36,7.08-13.85,12.95-19.12,20.99
	c-9.44,10.82-15.5,24.21-16.68,38.57c-0.66,30.69-0.89,61.16-21.66,86.03c-10.98,14.16-20.2,29.61-31.9,43.21
	C555.92,934.01,537.93,937.01,524.34,930.99z"/>
<path class="st0" d="M253.06,571.4c-7.7-0.98-14.68-4.86-20.33-10.03c-5.05-4.61-8.5-11.03-10.22-17.59
	c-2.01-7.64-1.2-15.56,1.49-22.9c1.74-4.73,4.69-8.95,8.25-12.51c0.34-0.4,0.7-0.77,1.09-1.11c0.45-0.39,0.9-0.77,1.35-1.15
	c0.5-0.43,1.01-0.85,1.53-1.26c0.16-0.12,0.33-0.25,0.49-0.37c0.3-0.22,0.61-0.43,0.93-0.63c0.73-0.5,1.47-0.98,2.26-1.43
	c5.86-3.38,12.78-5.23,19.56-4.99c13.17,0.46,25.11,7.63,31.61,19.12c6.54,11.57,6.27,27.04-1.22,38.12
	c-2.16,3.2-4.58,6.02-7.52,8.52c-2.67,2.26-5.68,4.04-8.87,5.48c-4.71,2.12-9.8,3.07-14.92,3.07
	C256.71,571.75,254.88,571.63,253.06,571.4z M258.9,541.79c0.37-0.04,0.73-0.08,1.1-0.14c0.3-0.08,0.6-0.16,0.9-0.25
	c0.29-0.12,0.58-0.24,0.87-0.36c0.26-0.14,0.51-0.29,0.76-0.43c0.27-0.2,0.54-0.4,0.8-0.61c0.21-0.21,0.42-0.41,0.63-0.63
	c0.18-0.22,0.35-0.44,0.52-0.66c0.17-0.28,0.34-0.56,0.5-0.84c0.13-0.29,0.25-0.58,0.37-0.87c0.08-0.27,0.16-0.54,0.23-0.82
	c0.06-0.33,0.11-0.67,0.15-1c0.01-0.31,0.01-0.63,0.01-0.94c-0.04-0.33-0.08-0.66-0.12-0.99c-0.08-0.3-0.16-0.61-0.24-0.91
	c-0.12-0.31-0.25-0.62-0.38-0.92c-0.15-0.27-0.31-0.54-0.47-0.81c-0.2-0.27-0.4-0.53-0.61-0.79c-0.18-0.19-0.37-0.38-0.56-0.56
	c-0.24-0.19-0.48-0.38-0.73-0.57c-0.26-0.16-0.53-0.32-0.8-0.47c-0.28-0.13-0.56-0.25-0.85-0.37c-0.28-0.08-0.56-0.16-0.84-0.24
	c-0.35-0.06-0.69-0.11-1.04-0.15c-0.31-0.01-0.63-0.01-0.94-0.01c-0.31,0.03-0.62,0.07-0.94,0.12c-0.33,0.08-0.66,0.17-0.99,0.26
	c-0.31,0.12-0.61,0.25-0.91,0.38c-0.27,0.15-0.54,0.3-0.8,0.46c-0.19,0.14-0.37,0.29-0.55,0.44c-0.28,0.26-0.55,0.53-0.82,0.81
	c-0.18,0.22-0.35,0.44-0.52,0.67c-0.16,0.26-0.31,0.52-0.46,0.79c-0.12,0.27-0.23,0.53-0.34,0.8c-0.09,0.31-0.18,0.61-0.26,0.92
	c-0.05,0.31-0.1,0.62-0.14,0.93c-0.01,0.33-0.02,0.66-0.02,0.99c0.04,0.35,0.08,0.7,0.13,1.04c0.07,0.28,0.14,0.56,0.22,0.83
	c0.13,0.32,0.26,0.64,0.4,0.96c0.14,0.25,0.28,0.49,0.42,0.74c0.21,0.28,0.42,0.56,0.63,0.83c0.2,0.2,0.39,0.4,0.59,0.59
	c0.23,0.18,0.46,0.36,0.69,0.54c0.26,0.16,0.52,0.31,0.78,0.47c0.28,0.13,0.56,0.25,0.84,0.36c0.33,0.1,0.66,0.19,1,0.28
	c0.27,0.04,0.54,0.09,0.82,0.12C258.24,541.78,258.57,541.79,258.9,541.79z"/>
</svg>
