<?xml version="1.0" encoding="utf-8"?>
<!-- Generator: Adobe Adobe Illustrator 24.2.0, SVG Export Plug-In . SVG Version: 6.00 Build 0)  -->
<svg version="1.1" id="Capa_de_vector_1_" xmlns="http://www.w3.org/2000/svg" xmlns:xlink="http://www.w3.org/1999/xlink" x="0px"
	 y="0px" viewBox="0 0 1000 1000" style="enable-background:new 0 0 1000 1000;" xml:space="preserve">
<style type="text/css">
	.st0{fill:#A46460;}
</style>
<path class="st0" d="M441.74,966.91c-34.67-4.3-68.71-12.7-101.55-24.54c-30.01-10.81-58.88-24.93-85.99-41.7
	c-26.86-16.61-51.93-35.99-74.92-57.63c-23.56-22.2-44.85-46.97-63.2-73.63c-19.34-28.1-35.65-58.14-48.55-89.73
	c-12.75-31.2-21.88-63.8-27.67-97c-6.11-35.06-8.07-71.01-5.86-106.52c2.29-36.66,8.61-73.03,19.38-108.16
	c10.28-33.55,24.2-65.96,41.69-96.39c18.42-32.05,40.64-61.76,65.98-88.66c24.75-26.27,52.73-49.26,82.77-69.21
	c15.59-10.36,31.95-19.59,48.71-27.91c16.56-8.22,33.59-15.5,51.04-21.63c18.28-6.42,36.86-11.87,55.8-16
	c18.5-4.03,37.18-6.99,56.03-8.83c11.48-1.12,23.02-1.76,34.54-2.03c0.09,0,0.18-0.01,0.28-0.01c0.02,0,0.05,0,0.07,0
	c0.04,0,0.08,0,0.12,0c0.05,0,0.1,0,0.15,0c16.66-0.31,33.32,0.29,49.93,1.7c20.68,1.76,41.2,5.03,61.45,9.54
	c16.97,3.77,33.68,8.57,50.11,14.23c0.59,0.16,1.18,0.37,1.76,0.61c2.45,0.85,4.89,1.72,7.32,2.62
	c30.6,11.19,60.06,25.74,87.6,43.16c23.58,14.92,45.78,31.89,66.37,50.71c18.27,16.7,35.15,34.93,50.54,54.31
	c21.49,27.05,39.8,56.58,54.8,87.69c13.7,28.41,24.46,58.29,32.08,88.89c8.24,33.07,12.88,67.03,13.76,101.11
	c0.88,34.2-2.01,68.52-8.64,102.09c-6.76,34.16-17.25,67.55-31.39,99.38c-13.66,30.75-30.69,59.94-50.58,87.07
	c-19.41,26.47-41.74,50.84-66.3,72.6c-0.19,0.17-0.38,0.33-0.57,0.49c-0.08,0.08-0.17,0.15-0.25,0.23
	c-6.86,6.04-13.86,11.89-21.04,17.54c-13.02,10.24-26.66,19.75-40.71,28.51c-29.12,18.17-60.25,33.12-92.65,44.44
	c-34,11.88-69.32,19.93-105.15,23.69c-16.35,1.72-32.77,2.57-49.19,2.57C480.4,970.5,461.01,969.31,441.74,966.91z M529.22,939.57
	c19.38-1.4,38.62-3.99,57.68-7.78c19.08-3.97,37.86-9.12,56.3-15.44c18.08-6.37,35.73-13.84,52.89-22.38
	c16.6-8.43,32.66-17.84,48.13-28.2c10.58-7.21,20.86-14.84,30.82-22.88c2.91-2.35,5.77-4.75,8.62-7.17c1.34-1.14,2.67-2.29,4-3.45
	c0.08-0.07,0.15-0.13,0.23-0.2c0.41-0.41,0.83-0.78,1.27-1.13c13.57-12.09,26.41-24.96,38.47-38.56
	c12.26-14.02,23.63-28.77,34.11-44.17c10.39-15.51,19.82-31.63,28.27-48.29c8.47-17,15.87-34.5,22.18-52.41
	c6.34-18.46,11.53-37.29,15.5-56.4c3.82-19.07,6.41-38.34,7.8-57.73c1.24-19.49,1.27-39.02,0.04-58.51
	c-1.37-19.53-3.99-38.93-7.82-58.13c-3.93-18.95-9.05-37.63-15.33-55.94c-6.32-18.06-13.77-35.7-22.3-52.82
	c-8.46-16.71-17.92-32.88-28.34-48.43c-10.39-15.29-21.69-29.94-33.85-43.86c-12.44-14.08-25.74-27.38-39.82-39.82
	c-13.96-12.2-28.66-23.54-44-33.96c-15.54-10.41-31.69-19.86-48.38-28.3c-14.39-7.16-29.14-13.59-44.21-19.19
	c-2.79-1.04-5.58-2.05-8.39-3.03c-2.19-0.75-4.38-1.49-6.57-2.21c-16.19-5.32-32.69-9.69-49.38-13.14
	c-19.16-3.85-38.54-6.47-58.03-7.84c-12.9-0.83-25.83-1.09-38.76-0.85c-0.07,0-0.13,0-0.2,0.01c-6.44,0.15-12.87,0.43-19.31,0.83
	c-19.71,1.4-39.27,4.08-58.66,7.93c-18.8,3.97-37.29,9.04-55.48,15.24c-17.89,6.33-35.36,13.68-52.37,22.08
	c-17.04,8.65-33.51,18.3-49.4,28.93c-15.24,10.43-29.83,21.71-43.74,33.85c-13.82,12.28-26.89,25.33-39.15,39.16
	c-12.15,13.9-23.44,28.51-33.85,43.76c-10.59,15.79-20.2,32.2-28.78,49.16c-8.52,17.2-15.97,34.89-22.32,53
	c-6.13,17.96-11.15,36.26-15.03,54.83c-3.87,19.29-6.52,38.78-7.93,58.4c-1.24,19.61-1.24,39.26,0.01,58.87
	c1.4,19.5,4.03,38.87,7.87,58.04c3.93,18.83,9.02,37.39,15.26,55.58c6.33,18.02,13.75,35.63,22.26,52.73
	c8.42,16.65,17.85,32.76,28.23,48.27c10.43,15.34,21.76,30.03,33.95,44.02c12.34,13.95,25.49,27.13,39.42,39.49
	c14.01,12.25,28.73,23.64,44.11,34.12c15.76,10.57,32.15,20.16,49.09,28.72c16.91,8.38,34.29,15.72,52.09,21.99
	c18.37,6.31,37.1,11.45,56.11,15.41c19.1,3.81,38.39,6.43,57.81,7.82C489.94,940.83,509.6,940.82,529.22,939.57z"/>
<path class="st0" d="M481.67,489.18c0-0.37,0-0.75,0.01-1.12c0-0.45,0-0.89,0.01-1.34c0-0.01,0-0.03,0-0.04
	c0.1-15.52,0.18-31.04,0.26-46.56c0.11-20.55,0.23-41.09,0.35-61.64c0.12-21.05,0.24-42.09,0.36-63.13
	c0.12-21.03,0.24-42.06,0.36-63.1c0.04-6.3,0.11-12.61,0.11-18.91c0-8.18,6.82-15,15-15c8.17,0,15,6.82,15,15
	c0,20.08-0.23,40.16-0.34,60.23c-0.12,21.04-0.24,42.08-0.36,63.12c-0.11,20.58-0.23,41.16-0.35,61.74
	c-0.12,19.41-0.22,38.81-0.33,58.22c-0.02,3.33-0.04,6.65-0.05,9.98c0,0.03,0,0.06,0,0.08c0,0.12,0,0.24,0,0.36c0,0.2,0,0.41,0,0.61
	c0,0.5,0,0.99-0.01,1.49c-0.05,8.18-6.78,15-15,15C488.53,504.18,481.61,497.36,481.67,489.18z"/>
<path class="st0" d="M294.96,577.48c-3.18-7.52,0.46-16.49,7.98-19.66c18.85-7.83,37.69-15.7,56.53-23.54
	c18.95-7.89,37.9-15.79,56.86-23.68c19.27-8.02,38.54-16.05,57.8-24.07c6.12-2.55,12.24-5.1,18.36-7.65
	c7.54-3.14,16.46,0.43,19.66,7.98c3.17,7.5-0.45,16.52-7.98,19.66c-18.68,7.78-37.37,15.56-56.05,23.34
	c-19.02,7.92-38.04,15.84-57.06,23.76c-19.43,8.09-38.85,16.18-58.27,24.27c-6.03,2.51-12.06,5.03-18.09,7.53
	c-0.03,0.01-0.05,0.02-0.08,0.03c-1.86,0.77-3.8,1.14-5.72,1.14C303.03,586.6,297.37,583.17,294.96,577.48z"/>
<path class="st0" d="M483.29,948.77c0.3-17.72,0.61-35.44,0.92-53.16c0.23-13,0.46-25.99,0.68-38.99c0.14-8.17,6.72-15,15-15
	c8.07,0,15.14,6.82,15,15c0,0.02,0,0.03,0,0.05c0,0.01,0,0.02,0,0.03c-0.33,19.79-0.69,39.57-1.03,59.36
	c-0.19,10.91-0.38,21.81-0.57,32.72c-0.14,8.17-6.72,15-15,15C490.21,963.77,483.14,956.94,483.29,948.77z"/>
<path class="st0" d="M484.18,136.44c0-0.04,0-0.07,0-0.1c0-0.02,0-0.05,0-0.07c0.1-18.78,0.21-37.56,0.32-56.33
	c0.04-7.39,0.09-14.77,0.13-22.16c0.04-8.17,6.8-15,15-15c8.12,0,15.07,6.82,15,15c-0.18,19.41-0.22,38.82-0.34,58.23
	c-0.04,6.81-0.07,13.62-0.12,20.43c-0.05,8.17-6.79,15-15,15C491.02,151.44,484.15,144.62,484.18,136.44z"/>
<path class="st0" d="M751.43,261.72c-3.95-0.29-7.67-2.16-10.26-5.16c-2.59-2.99-3.89-6.95-3.61-10.9c0.3-4.07,2.23-7.5,5.16-10.26
	c14.2-13.39,28.3-26.88,42.45-40.32c7.87-7.47,15.74-14.95,23.61-22.42c5.93-5.63,16.01-4.41,21.16,1.55c2.59,3,3.89,6.95,3.61,10.9
	c-0.3,4.09-2.23,7.48-5.16,10.26c-14.15,13.45-28.31,26.89-42.46,40.33c-7.87,7.47-15.74,14.93-23.6,22.41
	c-2.55,2.42-6.31,3.64-9.82,3.64C752.15,261.75,751.79,261.74,751.43,261.72z"/>
<path class="st0" d="M169.74,829.29c-5.84-5.84-5.71-15.35-0.02-21.21c11.54-11.88,23.08-23.75,34.62-35.62
	c9.28-9.55,18.56-19.11,27.84-28.65c5.7-5.86,15.49-5.73,21.21-0.02c5.84,5.83,5.71,15.36,0.02,21.21
	c-12.97,13.34-25.94,26.69-38.91,40.04c-7.85,8.08-15.71,16.16-23.55,24.24c-2.84,2.91-6.69,4.35-10.55,4.35
	C176.51,833.62,172.61,832.16,169.74,829.29z"/>
<path class="st0" d="M808.45,825.16c-12.09-11.38-24.19-22.76-36.29-34.14c-9.18-8.64-18.47-17.16-27.54-25.91
	c-2.88-2.78-4.67-6.38-4.85-10.41c-0.17-3.95,1.26-7.87,3.93-10.79c5.47-5.96,15.25-6.52,21.2-0.92c0.01,0.01,0.02,0.02,0.03,0.03
	c0.02,0.02,0.04,0.04,0.06,0.06c0.07,0.07,0.15,0.14,0.22,0.21c6.42,6.19,13.01,12.23,19.51,18.35c7,6.59,14,13.18,21.01,19.77
	c7.66,7.21,15.33,14.42,23,21.64c5.95,5.6,6.5,15.11,0.92,21.19c-2.91,3.17-7.03,4.82-11.16,4.82
	C814.86,829.06,811.24,827.79,808.45,825.16z"/>
<path class="st0" d="M844.3,499.64c0-3.96,1.59-7.81,4.39-10.61c2.84-2.85,6.61-4.3,10.61-4.39c19.53-0.45,39.06-0.91,58.59-1.36
	c9.97-0.23,19.95-0.46,29.93-0.7c8.18-0.19,15,6.96,15,15c0,3.96-1.59,7.81-4.39,10.61c-2.84,2.84-6.61,4.3-10.61,4.39
	c-18.31,0.42-36.63,0.86-54.94,1.28c-11.06,0.25-22.12,0.53-33.18,0.77c-0.06,0-0.13,0-0.19,0c-0.06,0-0.13,0-0.2,0
	c-0.1,0-0.2,0-0.3,0C850.95,514.64,844.3,507.58,844.3,499.64z"/>
<path class="st0" d="M137.81,514.54c-15.17-0.04-30.34-0.07-45.51-0.11c-10.95-0.03-21.9-0.08-32.85-0.08
	c-8.18,0-14.72-7.62-14.43-15.55c0.15-3.96,1.89-7.74,4.79-10.43c2.98-2.77,6.75-3.99,10.77-3.99c18.52,0,37.05,0.09,55.58,0.13
	c7.59,0.02,15.19,0.04,22.79,0.05c8.18,0.02,14.72,7.61,14.43,15.55c-0.15,3.96-1.89,7.75-4.79,10.43
	c-2.96,2.75-6.72,3.99-10.71,3.99C137.85,514.54,137.83,514.54,137.81,514.54z"/>
<path class="st0" d="M235.23,252.72c-10.36-10.24-20.73-20.48-31.09-30.73c-6.96-6.88-13.94-13.75-20.89-20.64
	c-5.8-5.75-5.83-15.42-0.07-21.21c5.76-5.8,15.41-5.83,21.21-0.07c12.57,12.46,25.17,24.88,37.76,37.32
	c4.74,4.68,9.48,9.37,14.22,14.05c5.81,5.74,5.82,15.43,0.07,21.21c-2.9,2.91-6.76,4.37-10.63,4.37
	C241.97,257.01,238.12,255.58,235.23,252.72z"/>
</svg>
