<?xml version="1.0" encoding="utf-8"?>
<!-- Generator: Adobe Adobe Illustrator 24.2.0, SVG Export Plug-In . SVG Version: 6.00 Build 0)  -->
<svg version="1.1" id="Capa_de_vector_1_" xmlns="http://www.w3.org/2000/svg" xmlns:xlink="http://www.w3.org/1999/xlink" x="0px"
	 y="0px" viewBox="0 0 300 300" style="enable-background:new 0 0 300 300;" xml:space="preserve">
<style type="text/css">
	.st0{fill:#C7CCAC;}
</style>
<path class="st0" d="M45.3,34.82c0-2.48,2.05-4.47,4.5-4.5c13.98-0.18,27.96-0.35,41.94-0.53c16.6-0.21,33.2-0.41,49.8-0.62
	c15.4-0.19,30.8-0.39,46.2-0.58c14.76-0.18,29.52-0.37,44.28-0.55c6.34-0.08,12.69-0.16,19.03-0.24c2.45-0.03,4.5,2.07,4.5,4.5
	c0,2.47-2.05,4.47-4.5,4.5c-7.98,0.1-15.96,0.2-23.95,0.3c-16.44,0.2-32.88,0.41-49.31,0.62c-15.34,0.19-30.68,0.39-46.02,0.58
	c-16.3,0.2-32.6,0.41-48.9,0.61c-11.02,0.14-22.05,0.27-33.08,0.41c-0.02,0-0.04,0-0.05,0C47.32,39.32,45.3,37.23,45.3,34.82z"/>
<path class="st0" d="M271.7,290.41c-0.01,0-0.03,0-0.04,0c-12.64,0-25.29-0.01-37.93-0.01c-17.35-0.01-34.7-0.01-52.05-0.02
	c-18.23,0-36.46-0.01-54.7-0.02c-17.71,0-35.43-0.01-53.14-0.02c-16.08-0.01-32.16-0.02-48.25-0.02c-2.45,0-4.5-2.03-4.51-4.49
	c0-2.45,2.04-4.51,4.49-4.51c16.86,0,33.71,0.01,50.57,0.02c17.7,0.01,35.41,0.01,53.12,0.02c18.18,0.01,36.36,0.01,54.54,0.02
	c17.32,0,34.64,0.01,51.95,0.02c13.54,0,27.07,0.01,40.61,0.01c2.45,0,4.5,2.03,4.51,4.49c0,2.46-2.04,4.49-4.49,4.51
	c-0.52,0.01-1.04,0.01-1.56,0.01C273.78,290.42,272.74,290.41,271.7,290.41z"/>
<path class="st0" d="M20.45,285.65c-0.17-8.54-0.35-17.08-0.52-25.62c-0.3-15.07-0.61-30.14-0.91-45.21
	c-0.06-3.25-0.12-6.51-0.2-9.77c-0.05-2.45,2.09-4.5,4.5-4.5c2.49,0,4.45,2.05,4.5,4.5c0.31,14.53,0.59,29.05,0.88,43.58
	c0.24,12.01,0.49,24.02,0.73,36.04c0,0.33,0.01,0.66,0.02,0.98c0.05,2.45-2.09,4.5-4.5,4.5C22.46,290.15,20.5,288.1,20.45,285.65z"
	/>
<path class="st0" d="M271.43,284.36c-0.09-7.61-0.18-15.22-0.27-22.83c-0.18-15.16-0.35-30.32-0.53-45.47
	c-0.04-3.82-0.05-7.64-0.13-11.47c-0.05-2.45,2.09-4.5,4.5-4.5c2.49,0,4.45,2.05,4.5,4.5c0.1,4.7,0.11,9.39,0.16,14.09
	c0.09,7.2,0.17,14.41,0.25,21.61c0.15,12.94,0.3,25.89,0.45,38.83c0.02,1.75,0.04,3.49,0.06,5.24c0.03,2.45-2.07,4.5-4.5,4.5
	C273.45,288.86,271.46,286.81,271.43,284.36z"/>
<path class="st0" d="M55.53,54.51c-5.64-4.31-9.32-11.32-9.31-18.47c0-0.04,0-0.08,0-0.12c0-0.07,0-0.13,0-0.2
	c0.02-1.21,0.32-2.32,1.15-3.24c0.8-0.88,1.93-1.42,3.11-1.48c2.33-0.12,4.76,1.81,4.72,4.27c-0.01,0.72,0.03,1.43,0.1,2.14
	c0.09,0.64,0.21,1.27,0.36,1.89c0.17,0.62,0.38,1.23,0.6,1.83c0.26,0.61,0.55,1.21,0.86,1.8c0.33,0.57,0.69,1.12,1.08,1.66
	c0.37,0.48,0.76,0.93,1.18,1.38c0.41,0.4,0.83,0.79,1.27,1.15c0.42,0.32,0.84,0.62,1.29,0.9c0.43,0.25,0.88,0.48,1.34,0.69
	c0.4,0.16,0.81,0.31,1.23,0.45c0.4,0.11,0.8,0.19,1.2,0.27c0.37,0.05,0.73,0.08,1.1,0.09c0.35-0.01,0.69-0.02,1.04-0.05
	c0.32-0.05,0.63-0.11,0.94-0.18c0.3-0.09,0.6-0.18,0.9-0.29c0.21-0.09,0.42-0.19,0.63-0.3c2.18-1.12,4.96-0.07,6.01,2.09
	c1.09,2.25,0.09,4.89-2.09,6.01c-2.27,1.16-4.73,1.7-7.2,1.7C62.93,58.49,58.81,57.01,55.53,54.51z"/>
<path class="st0" d="M229.25,58.05c-2.45-0.09-4.45-2.14-4.38-4.62c0.06-2.43,2.17-4.47,4.62-4.38c0.78,0.03,1.56,0.03,2.33,0.01
	c1.03-0.06,2.06-0.17,3.09-0.33c0.81-0.16,1.62-0.35,2.41-0.59c0.72-0.24,1.42-0.51,2.1-0.82c0.53-0.27,1.06-0.55,1.57-0.87
	c0.42-0.28,0.83-0.58,1.23-0.89c0.38-0.33,0.75-0.68,1.1-1.04c0.32-0.36,0.62-0.72,0.9-1.1c0.26-0.39,0.51-0.78,0.74-1.19
	c0.24-0.46,0.45-0.94,0.65-1.43c0.18-0.51,0.33-1.03,0.47-1.55c0.14-0.64,0.24-1.28,0.31-1.93c0.05-0.72,0.07-1.44,0.05-2.17
	c-0.03-0.51-0.07-1.02-0.13-1.53c0-0.02-0.01-0.03-0.01-0.05c-0.3-2.43,1.57-4.7,3.98-4.96c2.46-0.27,4.66,1.55,4.96,3.98
	c0,0.02,0.01,0.04,0.01,0.06c0,0.02,0,0.04,0.01,0.06c0.42,3.56,0.15,7.25-1.02,10.65c-1.43,4.14-4.15,7.79-7.79,10.26
	c-4.64,3.16-10.25,4.46-15.81,4.46C230.19,58.08,229.72,58.07,229.25,58.05z"/>
<path class="st0" d="M129.29,226.64c-9.96-1.21-19.93-2.32-29.89-3.49c-11.96-1.39-23.93-2.76-35.89-4.19
	c-2.44-0.29-4.06-2.89-3.66-5.21c0.2-1.16,0.86-2.2,1.81-2.89c1.01-0.73,2.18-0.92,3.39-0.77c14.19,1.7,28.39,3.31,42.58,4.97
	c7.74,0.9,15.48,1.77,23.21,2.71c2.44,0.3,4.06,2.89,3.66,5.21c-0.2,1.16-0.86,2.21-1.82,2.89c-0.8,0.58-1.7,0.82-2.65,0.82
	C129.78,226.68,129.54,226.67,129.29,226.64z"/>
<path class="st0" d="M138.12,239.94c-1.45-3.55-1.87-7.63-4.68-10.46c-0.97-1.07-1.97-2.17-3.36-2.66
	c-2.37,0.26-4.65-1.47-4.95-3.86c-0.65-3.66,3.17-6.39,6.52-5.11c4.3,1.11,7.66,4.22,10.2,7.75c2.06,2.7,3.02,5.97,3.94,9.17
	c0.6,1.56,1.3,3.13,1.31,4.83C146.99,245.31,138.66,245.61,138.12,239.94z"/>
<path class="st0" d="M168.6,223.37c-0.34-2.42,1.4-4.75,3.84-5.08c0.14-0.02,0.27-0.04,0.41-0.05c0.05-0.01,0.11-0.02,0.16-0.02
	c0.03,0,0.06-0.01,0.09-0.01c13.77-1.86,27.55-3.72,41.32-5.57c6.96-0.94,13.93-1.88,20.89-2.82c0.02,0,0.04-0.01,0.06-0.01
	c0.09-0.01,0.18-0.02,0.28-0.04c0.32-0.04,0.65-0.09,0.97-0.13c2.43-0.33,4.74,1.4,5.08,3.84c0.34,2.42-1.4,4.75-3.84,5.08
	c-0.41,0.06-0.83,0.11-1.25,0.17c-0.05,0.01-0.11,0.01-0.16,0.02c-15.8,2.14-31.6,4.26-47.4,6.4c-4.98,0.67-9.96,1.34-14.94,2.02
	c-0.14,0.02-0.29,0.04-0.43,0.06c-0.19,0.03-0.39,0.04-0.58,0.04C170.89,227.25,168.9,225.62,168.6,223.37z"/>
<path class="st0" d="M157.81,243.35c-7.08-2.77-1.05-12.46,1.74-16.59c2.81-3.91,7.01-6.75,11.59-8.15c2-0.61,4.34-1.38,6.29-0.2
	c2.85,1.59,3.03,5.8,0.39,7.68c-1.85,1.42-4.32,0.68-6.27,2.01c-3.76,1.84-6.24,5.58-7.72,9.37
	C163.8,240.86,161.59,244.36,157.81,243.35z"/>
<path class="st0" d="M274,207.79c-6.5-0.21-12.99-0.79-19.41-1.82c-11.6-1.85-23.19-5.04-33.69-10.38
	c-10.56-5.37-21.12-13.35-25.34-24.86c-0.48-1.32-0.89-2.66-1.18-4.04c-0.51-2.4,0.85-4.84,3.29-5.45c2.32-0.57,4.95,0.89,5.45,3.29
	c0.15,0.72,0.33,1.42,0.54,2.12c0.3,0.9,0.65,1.77,1.03,2.64c0.45,0.94,0.95,1.85,1.5,2.74c0.69,1.07,1.44,2.1,2.23,3.09
	c1.07,1.27,2.22,2.47,3.42,3.61c1.46,1.34,3.01,2.58,4.61,3.75c2.32,1.64,4.74,3.12,7.24,4.46c3.34,1.74,6.79,3.24,10.32,4.56
	c4.61,1.67,9.33,3.02,13.88,4.05c0.09,0.02,0.17,0.04,0.26,0.06l0.08,0.02c5.95,1.3,11.99,2.19,18.06,2.72
	c2.61,0.21,5.23,0.36,7.85,0.45c2.45,0.08,4.47,2.1,4.42,4.58c-0.04,2.38-2.05,4.42-4.44,4.42
	C274.09,207.79,274.05,207.79,274,207.79z"/>
<path class="st0" d="M194.28,167.08c-2.09-16.03-1.46-32.22-0.88-48.32c-0.56-2.91,0.62-6.3,3.97-6.59c2.4-0.22,4.73,1.62,4.89,4.07
	c0.37,5-0.37,9.98-0.27,14.98c-0.19,11.28-0.33,22.66,1.07,33.85C204.21,170.85,195.72,172.82,194.28,167.08z"/>
<path class="st0" d="M153.98,144.03c-0.02,0-0.03,0-0.05-0.01c-0.03,0-0.05-0.01-0.08-0.01c-0.02,0-0.03,0-0.05-0.01
	c-2.43-0.38-4.21-2.54-3.91-5.03c0.3-2.4,2.6-4.25,5.03-3.91c0,0,0,0,0,0c0.44,0.07,0.88,0.12,1.33,0.15
	c0.72,0.03,1.43,0.02,2.14-0.03c0.84-0.08,1.67-0.21,2.49-0.38c1-0.24,1.99-0.53,2.97-0.86c1.32-0.49,2.61-1.07,3.87-1.7
	c1.73-0.91,3.39-1.93,5-3.03c2.22-1.56,4.33-3.26,6.36-5.07c2.91-2.65,5.62-5.49,8.19-8.46c3.5-4.1,6.71-8.44,9.65-12.86
	c0.02-0.03,0.04-0.07,0.07-0.1c0.01-0.02,0.02-0.03,0.03-0.04c3.89-5.94,7.38-12.13,10.32-18.13c3.46-7.11,6.46-14.44,8.95-21.8
	c2.2-6.65,4.02-13.41,5.37-20.28c0.61-3.23,1.11-6.47,1.48-9.73c0.28-2.44,2.62-4.21,5.03-3.91c2.45,0.31,4.18,2.59,3.9,5.03
	c-1.43,12.61-4.7,25-9.07,36.9c-4.27,11.63-9.7,22.88-16.25,33.4c-0.36,0.58-0.73,1.16-1.1,1.73c-0.42,0.66-0.83,1.41-1.33,2.03
	c-0.07,0.1-0.13,0.2-0.2,0.3c-0.68,1.03-1.38,2.05-2.09,3.06c-2.58,3.68-5.34,7.24-8.29,10.64c-5.07,5.88-10.76,11.28-17.25,15.57
	c-5.68,3.76-12.46,6.72-19.37,6.72C156.09,144.24,155.04,144.17,153.98,144.03z"/>
<path class="st0" d="M197.11,123.17c-2.38-0.2-4.39-2.43-4.1-4.87c0.24-1.52,0.32-3.08,0.6-4.58c-1.35-4.62,4.94-7.77,7.92-4.07
	c1.76,2.08,1.07,4.9,0.72,7.31C202.19,120.07,200.73,123.49,197.11,123.17z"/>
<path class="st0" d="M196.29,125.4c-5.79-1.37-3.16-7.24-2.45-11.29c0.5-2.07,0.93-4.15,1.32-6.23c0.74-2.56,3.83-3.92,6.21-2.75
	c4.16,1.95,2.07,6.82,1.39,10.21C201.77,119.18,201.97,126.17,196.29,125.4z"/>
<path class="st0" d="M140.57,144.52c-2.81-0.24-5.5-1.06-8.17-1.94c-1.96-0.64-3.95-1.28-5.84-2.13c-3.61-1.63-6.73-4.07-9.77-6.57
	c-1.66-1.36-3.32-2.7-4.86-4.2c-1.37-1.34-2.67-2.76-4-4.13c-2.35-2.43-4.55-4.98-6.79-7.51c-1.27-1.44-2.43-2.96-3.61-4.48
	c-1.17-1.51-2.36-3-3.46-4.55c-2.33-3.3-4.49-6.68-6.57-10.14c-1.96-3.27-3.62-6.69-5.1-9.86c-1.72-3.64-3.43-7.27-5.06-10.95
	c-1.74-3.92-3.17-7.96-4.42-12.07c-1.22-4.02-1.87-8.11-2.58-12.24c-0.32-1.86-0.68-3.71-0.88-5.59c-0.22-2.01-0.33-4.04-0.42-6.06
	c-0.13-2.11-0.58-4.25-0.35-6.37c0.26-2.44,2.78-4.14,5.12-3.78c2.41,0.37,3.93,2.52,3.82,4.58c-0.01,0.2-0.02,0.39-0.02,0.59
	c0.06,0.74,0.17,1.48,0.24,2.22c0.11,1.08,0.15,2.16,0.19,3.12c0.12,2.35,0.28,4.71,0.68,7.03c0.44,2.52,0.85,5.05,1.27,7.57
	c0.57,2.9,1.33,5.72,2.2,8.54c0.97,2.94,2.06,5.86,3.3,8.69c1.25,2.87,2.57,5.7,3.65,8.02c0.74,1.54,1.46,3.08,2.18,4.62
	c0.92,1.95,1.94,3.84,2.98,5.74c1.18,2.16,2.52,4.23,3.8,6.33c2.61,4.06,5.55,7.91,8.55,11.69c0.93,1.1,1.89,2.17,2.84,3.26
	c1.03,1.18,2.04,2.39,3.11,3.52c1.03,1.09,2.08,2.16,3.12,3.23c1.01,1.04,1.99,2.11,3.03,3.11c1.2,1.07,2.45,2.09,3.7,3.11
	c1.28,1.05,2.56,2.09,3.9,3.07c0.94,0.65,1.91,1.25,2.92,1.8c1.07,0.53,2.18,0.96,3.3,1.38c2.23,0.8,4.51,1.56,6.81,2.13
	c0.83,0.16,1.66,0.26,2.5,0.33c2.45,0.21,4.13,2.82,3.78,5.12c-0.18,1.18-0.84,2.27-1.81,2.97c-0.83,0.6-1.75,0.83-2.73,0.83
	C140.96,144.55,140.77,144.54,140.57,144.52z"/>
<path class="st0" d="M138.18,140.14c0.02-2.48,2.08-4.46,4.53-4.47c4.03-0.03,8.05-0.05,12.08-0.08c2.45-0.02,4.49,2.11,4.47,4.53
	c-0.02,2.48-2.08,4.45-4.53,4.47c-4.03,0.03-8.05,0.05-12.08,0.07c-0.01,0-0.02,0-0.03,0C140.19,144.66,138.17,142.55,138.18,140.14
	z"/>
<path class="st0" d="M19.81,203.99c-0.01-1.19,0.46-2.35,1.3-3.19c0.85-0.86,1.9-1.23,3.08-1.33c0.01,0,0.01,0,0.02,0
	c0.02,0,0.03,0,0.05,0c-0.16,0.01-0.32,0.02-0.25,0.02c0.09-0.01,0.19-0.01,0.28-0.02c0,0,0,0,0,0c0.01,0,0.01,0,0.02,0
	c0,0,0.01,0,0.01,0c0,0,0,0,0.01,0c0.01,0,0.02,0,0.03,0c0.01,0,0.01,0,0.02,0c0.02,0,0.05,0,0.07-0.01
	c6.16-0.49,12.3-1.35,18.35-2.6c5.59-1.19,11.1-2.71,16.49-4.62c4.04-1.46,7.99-3.15,11.82-5.08c2.97-1.54,5.86-3.23,8.62-5.11
	c2.07-1.44,4.07-2.99,5.97-4.65c1.46-1.32,2.85-2.71,4.16-4.18c1.1-1.29,2.13-2.63,3.08-4.03c0.72-1.11,1.38-2.26,1.97-3.44
	c0.46-0.98,0.88-1.97,1.24-2.99c0.33-1,0.61-2.03,0.83-3.06c0.14-0.74,0.25-1.49,0.32-2.24c0.24-2.44,2.67-4.19,5.04-3.89
	c2.49,0.32,4.12,2.61,3.88,5.04c-0.89,9.23-6.16,17.43-12.68,23.77c-7.8,7.57-17.59,13.01-27.64,16.98
	c-9.12,3.6-18.66,6.07-28.34,7.61c-4.15,0.66-8.33,1.13-12.52,1.45c-0.17,0.01-0.34,0.03-0.51,0.04c-0.03,0-0.06,0-0.09,0.01
	c0,0,0,0,0,0c-0.03,0-0.07,0.01-0.1,0.01c-0.09,0.01-0.18,0.01-0.27,0.01C21.75,208.47,19.83,206.24,19.81,203.99z"/>
<path class="st0" d="M97.42,157.97c-0.08-6.54-0.16-13.09-0.24-19.63c-0.11-9.01-0.22-18.02-0.34-27.03
	c-0.03-2.45,2.06-4.5,4.49-4.51c2.47,0,4.48,2.04,4.51,4.49c0.12,9.22,0.23,18.45,0.34,27.67c0.08,6.33,0.16,12.66,0.23,18.99
	c0.03,2.45-2.06,4.5-4.49,4.51C99.45,162.47,97.45,160.43,97.42,157.97z"/>
</svg>
