<?xml version="1.0" encoding="utf-8"?>
<!-- Generator: Adobe Adobe Illustrator 24.2.0, SVG Export Plug-In . SVG Version: 6.00 Build 0)  -->
<svg version="1.1" id="Capa_de_vector_1_" xmlns="http://www.w3.org/2000/svg" xmlns:xlink="http://www.w3.org/1999/xlink" x="0px"
	 y="0px" viewBox="0 0 1000 1000" style="enable-background:new 0 0 1000 1000;" xml:space="preserve">
<style type="text/css">
	.st0{fill:#A46460;}
</style>
<path class="st0" d="M246.91,352.18c-27.68,0.2-54.6-7.44-81.35-13.71c-25.57-7.4-48.65-21.51-73.61-30.69
	c-5.99-2.14-13.11-2.52-18.54,1.03c-8.64,3.88-19.98-2.28-20.75-11.87c-1.65-12.07,10.4-19.09,20.98-19.97
	c25.75-4.4,48.26,12.28,71.32,21.02c22.55,12.21,47.93,16.15,72.72,21.47c20.69,4.1,42.01,2.94,62.94,1.78
	c72.48-2.47,147.18-25.98,198.95-78.54c4.25-3.88,8.02-8.34,12.56-11.87c15.64-11.75,33.81,11.47,18.33,23.74
	c-29.4,30.99-65.05,55.55-104.72,71.59C355.46,346.48,300.79,352.4,246.91,352.18z M82.38,292.98c-0.09-0.76-0.23-1.57-0.49-2.29
	C82.1,291.43,82.27,292.2,82.38,292.98z"/>
<path class="st0" d="M523.37,338.33c-26.58-3.03-53.85-8.36-76.62-23.12c-13.86-7.55-20.36-26.19-2.37-33.03
	c7.55-2.43,13.62,2.53,18.31,7.65c7.27,4.79,15.42,7.98,23.57,10.94c31.08,9.25,64.3,11.03,96.08,4.43
	c12.41-4.23,24.18,10.93,17.13,21.97C593.95,340.4,537.06,339.83,523.37,338.33z"/>
<path class="st0" d="M501.91,397.6c-13.9-1.99-27.93-4.12-41.25-8.71c-8.81-3.35-17.02-8.09-25.73-11.68
	c-16.05-7.54-32.22-16.44-43.48-30.49c-28.95-29.94,9.03-48.06,18.33-24.87c-0.13-0.38-0.26-0.76-0.4-1.14
	c-0.24-0.47-0.47-0.94-0.71-1.42c9.14,16.25,26.21,25.17,42.7,32.39c11.01,5.02,20.32,10.42,32.12,12.43
	c7.45,1.47,14.96,2.76,22.48,3.76C525.43,371,521.44,399.82,501.91,397.6z"/>
<path class="st0" d="M301.66,425.61c-12.87-23.03-19.83-37.96-15.96-65.15c0.63-6.07,0.63-12.38,3.56-17.89
	c6.02-11.35,24.46-8.91,27.42,3.58c0.8,2.93,0.64,5.81-0.25,8.57c-1.18,8.71-1.71,16.61-1.57,25.11
	c0.86,12.72,9.79,22.68,14.45,34.1C336.54,432.15,309.88,443.61,301.66,425.61z"/>
<path class="st0" d="M244.46,425.1c-13.44-2.68-14.13-13.84-11.71-25.16c0.31-6.32,0.08-12.62-0.31-18.93
	c-0.66-14.56-10.1-41.06,12.28-42.62c8.64-0.02,15.52,7.55,15.02,16.11c0.97,9.5,2.31,18.97,2.84,28.51
	C262.85,397.71,266.45,426.6,244.46,425.1z"/>
<path class="st0" d="M186.08,405c-16.66-5.14-8.89-22.28-8.02-34.7c1.21-15.23-3.56-46.4,20.67-42.02
	c9.66,2.61,12.66,12.88,10.04,21.71c-0.24,6.88-0.27,13.77-0.72,20.64C206.92,384.51,206.29,409.44,186.08,405z"/>
<path class="st0" d="M122.73,369.73c-13.33-12.03-0.6-20.32,2.85-32.25c2.53-9.5-0.75-21.75,7.9-28.62
	c6.28-5.04,16.24-3.77,21.04,2.71c5.9,7.74,1.54,18.2,1.33,27.07C153.81,353.85,141.82,382.28,122.73,369.73z"/>
<path class="st0" d="M334.83,566c-4.14-28.88,2.98-58.21,19.78-82.04c10.04-17.07,24.37-31.27,37.9-45.49
	c15.89-11.59,33.66,11.36,18.33,23.75c-8.25,10.39-18.42,19.15-26,30.08c-13.64,19.7-23.13,39.02-20.84,63.66
	C370.24,580.01,340.37,588.37,334.83,566z"/>
<path class="st0" d="M428.6,586.83c-13.33-12.92-17.5-32.02-27.14-47.46c-15.25-24.37-16.45-65.07-3.93-90.74
	c10.31-16.73,35.39-2.14,25.9,15.14c-4.53,10.81-4.1,23.22-4.08,34.79c1.5,21.62,17,38.89,24.47,58.81
	c2.97,6.68,10.89,10.79,10.38,18.85C454.59,589.2,437.56,596.21,428.6,586.83z"/>
<path class="st0" d="M24.17,192.36c1.03-15.14,12.97-14.51,24.57-16.32c55.88-13.75,111.21-29.89,168.09-39.4
	c63.55-13.92,128.45-24.03,193.6-24.89c28,0.29,55.79,5.72,82.85,12.54c11.81,3.74,23.29,8.54,35.6,10.48
	c12.45,2.86,14.94,21.37,3.58,27.42c-11.44,5.68-29.85-3.72-41.41-7.16c-54.58-17.71-112.3-14.55-168.31-6.44
	c-35.75,3.89-70.97,11.01-106.07,18.63c-30.97,5.78-61.82,12.24-92.3,20.24c-20.65,5.25-41.02,11.61-61.82,16.25
	C48.96,207.08,25.4,213.03,24.17,192.36z"/>
<path class="st0" d="M18.14,189.76c-0.94-23.19,6.24-60.89,20.89-79.2c35.86-41.9,109.11-46.64,160.76-57
	c63.74-6.29,128.63-19.28,192.56-8.98c15.49,4.49,31.6,8.58,45.57,16.89c8.53,5.59,16.82,11.56,25.19,17.38
	c15.32,12.72,31.92,23.9,45.92,38.15c11.49,10.28,39.99,25.14,24.83,42.8c-8.61,8.34-19.49,3.5-26.01-4.7
	c-4.62-5.45-10.81-9.08-16.27-13.57c-11.96-12.18-26.01-21.69-38.9-32.79c-13.29-9.76-26.31-21.01-41.83-26.99
	c-8.93-2.83-17.73-6.16-26.85-8.29c-14.77-3.02-29.9-2.5-44.88-2.36c-21.88,0.02-43.77,1.21-65.46,4.15
	c-56.42,6.31-113.19,12.48-167.83,28.6c-44.68,14.84-52.73,31.02-57.89,76.43c3.94,25.09-24.7,30.77-29.81,9.45
	C18.14,189.7,18.14,189.76,18.14,189.76z"/>
<path class="st0" d="M570.11,513.78c-32.22-0.47-64.67-1.5-97-3.19c-19.79-0.89-39.59,0.2-59.37-0.27
	c-19.5-1.69-17.59-30.99,2.16-29.92c51.14-1.53,102.21,3.83,153.31,2.83C591.1,483.73,592.02,513.78,570.11,513.78z"/>
<path class="st0" d="M940.53,879.79c-0.17-0.16-0.33-0.32-0.49-0.48c0,0,0,0,0,0c-0.15-0.15-0.31-0.3-0.46-0.45
	c-13.12-12.87-26.22-25.76-39.34-38.64c-14.66-14.39-29.32-28.79-43.97-43.19c-15.12-14.85-30.24-29.71-45.37-44.56
	c-15.08-14.81-30.16-29.62-45.23-44.43c-15.42-15.14-30.84-30.29-46.26-45.44c-15.2-14.93-30.41-29.85-45.6-44.79
	c-15.03-14.77-30.08-29.54-45.11-44.31c-14.97-14.71-29.94-29.41-44.91-44.11c-6.48-6.37-12.88-12.82-19.45-19.1
	c-2.91-2.79-4.86-6.16-5.16-10.26c-0.29-3.95,1.02-7.9,3.6-10.9c2.58-3,6.31-4.87,10.25-5.16c3.79-0.28,8.1,0.92,10.9,3.6
	c6.61,6.33,13.07,12.83,19.59,19.25c7.55,7.41,15.09,14.82,22.64,22.24c15.01,14.74,30.02,29.48,45.02,44.23
	c15.19,14.91,30.38,29.83,45.56,44.75c15.23,14.96,30.45,29.91,45.68,44.87c15.37,15.09,30.73,30.19,46.1,45.28
	c14.94,14.68,29.88,29.35,44.82,44.02c14.98,14.71,29.96,29.43,44.94,44.14c14.46,14.2,28.91,28.4,43.37,42.6
	c5.94,5.83,11.89,11.66,17.82,17.51c0.05,0.05,0.1,0.09,0.15,0.14l0.01,0.02c0.33,0.33,0.66,0.65,0.99,0.97
	c0.15,0.15,0.29,0.3,0.44,0.45c0,0,0.01-0.01,0.01-0.01c0.01,0.01,0.01,0.01,0.02,0.02c0.36,0.36,0.7,0.75,1.01,1.16
	c0.64,0.79,1.21,1.63,1.69,2.59c0.86,1.73,1.37,3.62,1.51,5.55c0.29,3.95-1.02,7.91-3.6,10.9c-2.58,3-6.31,4.87-10.25,5.16
	c-0.36,0.03-0.72,0.04-1.09,0.04C946.85,883.43,943.02,882.24,940.53,879.79z"/>
<path class="st0" d="M542.1,556.78c-11.2-3.43-22.41-6.87-33.61-10.3c-18.65-5.72-37.3-11.44-55.95-17.15
	c-12.08-3.7-24.16-7.39-36.23-11.11c-7.82-2.4-12.16-11.18-9.69-18.88c1.23-3.82,4.02-7.06,7.62-8.85
	c3.53-1.75,7.51-1.95,11.26-0.84c19,5.64,37.91,11.62,56.86,17.43c17.97,5.51,35.95,11.03,53.92,16.53
	c5.01,1.53,10.01,3.07,15.02,4.6c7.82,2.39,12.16,11.19,9.68,18.88c-2.05,6.38-8.06,10.35-14.42,10.36
	C545.08,557.45,543.58,557.23,542.1,556.78z"/>
<path class="st0" d="M917.49,920.79c-12.51-12.01-25.02-24.02-37.53-36.03c-14.13-13.56-28.26-27.12-42.39-40.69
	c-14.36-13.79-28.71-27.57-43.07-41.35c-14.54-13.96-29.07-27.91-43.61-41.87c-15.3-14.69-30.6-29.38-45.9-44.07
	c-15.07-14.46-30.13-28.93-45.2-43.39c-15.12-14.52-30.24-29.04-45.37-43.55c-14.79-14.2-29.58-28.41-44.37-42.6
	c-10.75-10.32-21.47-20.67-32.25-30.96c-2.9-2.77-4.75-6.31-4.97-10.35c-0.22-3.95,1.16-7.88,3.8-10.83
	c5.32-5.94,15.26-6.81,21.18-1.16c13.03,12.44,25.99,24.95,38.98,37.43c15.02,14.43,30.05,28.84,45.07,43.27
	c14.92,14.32,29.84,28.64,44.75,42.96c15.33,14.72,30.66,29.43,45.99,44.15c15.12,14.52,30.24,29.04,45.36,43.55
	c14.54,13.95,29.07,27.91,43.61,41.88c14.17,13.6,28.33,27.21,42.5,40.8c14.1,13.53,28.2,27.07,42.29,40.6
	c10.32,9.9,20.64,19.81,30.95,29.72c0.04,0.04,0.09,0.08,0.13,0.12c0,0,0,0,0.01,0.01c0.01,0.01,0.02,0.02,0.03,0.03
	c2.89,2.79,4.75,6.29,4.97,10.35c0.22,3.95-1.16,7.89-3.8,10.84c-2.89,3.23-7.16,4.96-11.4,4.96
	C923.71,924.59,920.18,923.37,917.49,920.79z"/>
<path class="st0" d="M932.86,931.68c-7.19-3.16-13.62-8.21-18.81-14.07c-5.42-6.12-4.43-15.92,1.7-21.15
	c6.31-5.38,15.73-4.41,21.14,1.7c0.23,0.26,0.46,0.51,0.69,0.76c0.85,0.83,1.74,1.61,2.66,2.37c0.96,0.7,1.93,1.37,2.94,1.99
	c1.01,0.55,2.04,1.06,3.08,1.53c0.92,0.35,1.85,0.67,2.8,0.96c0.85,0.2,1.71,0.38,2.57,0.53c0.68,0.07,1.37,0.12,2.06,0.15
	c0.58-0.02,1.15-0.05,1.73-0.09c0.47-0.07,0.93-0.16,1.4-0.25c0.36-0.11,0.72-0.23,1.08-0.35c0.25-0.11,0.5-0.23,0.75-0.35
	c0.23-0.14,0.46-0.29,0.68-0.44c0.13-0.11,0.27-0.22,0.4-0.34c0.1-0.1,0.19-0.21,0.28-0.32c0.08-0.12,0.16-0.24,0.24-0.36
	c0.08-0.15,0.15-0.31,0.23-0.46c0.06-0.16,0.12-0.33,0.17-0.49c0.04-0.2,0.09-0.41,0.12-0.62c0.03-0.29,0.05-0.57,0.06-0.86
	c-0.01-0.37-0.03-0.74-0.06-1.1c-0.07-0.43-0.15-0.87-0.24-1.3c-0.17-0.59-0.36-1.17-0.57-1.75c-0.29-0.67-0.6-1.33-0.94-1.98
	c-0.47-0.79-0.97-1.56-1.5-2.31c-0.64-0.81-1.32-1.6-2.02-2.36c-0.8-0.78-1.63-1.52-2.49-2.23c-0.94-0.7-1.91-1.36-2.91-1.97
	c-0.24-0.14-0.49-0.29-0.72-0.44l-0.02-0.01c-3.19-2.01-5.67-4.67-6.86-8.38c-1.19-3.7-0.89-7.8,0.84-11.28
	c3.52-7.08,12.95-10.71,20.11-6.77c0.05,0.03,0.1,0.05,0.15,0.09c0.29,0.16,0.58,0.33,0.87,0.51c3.75,2.22,7.31,4.62,10.52,7.62
	c3.61,3.38,6.88,7.22,9.39,11.5c2.8,4.75,4.95,9.93,5.87,15.39c1.07,6.36,0.8,13.31-1.69,19.33c-2.15,5.19-5.16,9.75-9.42,13.46
	c-4.71,4.11-10.49,6.68-16.55,8.03c-2.83,0.63-5.7,0.92-8.56,0.92C946.76,936.48,939.51,934.6,932.86,931.68z"/>
</svg>
