<?xml version="1.0" encoding="utf-8"?>
<!-- Generator: Adobe Adobe Illustrator 24.2.0, SVG Export Plug-In . SVG Version: 6.00 Build 0)  -->
<svg version="1.1" id="Capa_de_vector_1_" xmlns="http://www.w3.org/2000/svg" xmlns:xlink="http://www.w3.org/1999/xlink" x="0px"
	 y="0px" viewBox="0 0 1000 1000" style="enable-background:new 0 0 1000 1000;" xml:space="preserve">
<style type="text/css">
	.st0{fill:#A46460;}
</style>
<path class="st0" d="M412.54,483.22c-16.51-0.66-32.75-5.85-47.79-12.47c-8.95-4.31-20.58-9.94-18.28-21.9
	c2.6-12.91,17.48-15.59,26.7-7.44c15.14,7.4,32.51,13.78,49.56,11.15C444.71,449.19,452.31,486.62,412.54,483.22z"/>
<path class="st0" d="M583.06,482.97c-7.35-0.55-15.47-0.38-21.97-4.27c-6.76-4.59-8.79-13.91-4.24-20.78
	c4.87-7.54,13.38-7.34,21-5.35c12.05,1.33,24.21-0.63,35.61-4.59c5.29-1.41,10.4-3.19,14.75-6.59c6.67-4.52,16.44-2.65,20.8,4.19
	c8.8,14.55-6.57,24.31-18.76,28.56C615.06,479.47,599.28,483.35,583.06,482.97z"/>
<path class="st0" d="M493.94,556.89c-9.08-1.63-17.96-5.69-25.02-11.67c-0.01-0.01-0.02-0.01-0.02-0.02
	c-0.04-0.04-0.09-0.07-0.13-0.11c-6.21-5.31-6.71-15.08-1.38-21.17c2.58-2.95,6.28-4.78,10.18-5.07c4.05-0.3,7.9,1.1,10.99,3.69
	c0.04,0.04,0.09,0.07,0.13,0.11c0.05,0.04,0.1,0.08,0.15,0.13c0.02,0.01,0.03,0.02,0.05,0.04c0.84,0.6,1.71,1.17,2.59,1.71
	c1.02,0.54,2.05,1.03,3.11,1.49c1.03,0.38,2.08,0.72,3.14,1.02c0.94,0.21,1.89,0.4,2.85,0.54c0.86,0.08,1.72,0.13,2.58,0.15
	c0.66-0.03,1.32-0.07,1.97-0.14c0.48-0.08,0.95-0.18,1.42-0.28c0.29-0.09,0.58-0.19,0.87-0.3c0.16-0.07,0.31-0.15,0.46-0.23
	c0.07-0.04,0.13-0.09,0.2-0.13c0.04-0.05,0.07-0.11,0.11-0.16c4.54-6.8,13.95-8.76,20.79-4.24c6.8,4.5,8.77,13.98,4.24,20.79
	c-3.23,4.84-7.73,8.77-13.07,11.13c-5.48,2.42-11.37,3.53-17.3,3.53C499.86,557.69,496.88,557.42,493.94,556.89z"/>
<path class="st0" d="M493.2,624.79c-3.14-0.85-6.23-2.7-8.58-4.93c-0.33-0.31-0.64-0.62-0.95-0.94c-8.58-0.07-17.14-0.76-25.72-0.84
	c-6.01-0.42-12.29,1.32-17.69-2.39c-9.59-6.06-8.45-21.36,1.76-26.08c5.2-2.58,11.14-1.29,16.71-1.48
	c4.89-0.04,9.73,0.26,14.62,0.57c9.37,0.23,19.56-0.53,27.54,5.31c7.11-4.83,15.89-4.45,24.03-3.23c8.98,0.66,18.02-0.16,27.03-0.03
	c19.79-0.91,21.8,28.01,2.19,29.92c-12.34,0.09-26.52,0.88-38.19-0.67C509.5,624.95,501.09,627.23,493.2,624.79z"/>
<path class="st0" d="M494.09,661.81c-8.69-2.24-19.56-4.29-22.89-13.93c-3.63-9.7,4.8-20.73,15.12-19.86
	c3.11,0.18,6.31,1.06,8.71,2.98c5.78,1.53,8.27,3.16,13.31,1.42c22.86-10.62,33.01,23.3,8.15,28.87
	C509.19,663.48,501.44,664.08,494.09,661.81z"/>
<path class="st0" d="M309.25,590.27c-14.01-2.38-27.4-8.14-39.25-15.91c-15.81-10.36-29.89-24.07-39.26-40.61
	c-6.1-10.76-10.62-23.31-10.05-35.84c0.2-4.03,1.5-7.71,4.39-10.61c2.8-2.8,6.65-4.39,10.61-4.39c7.89,0,15.38,6.83,15,15
	c0,0.07,0,0.13-0.01,0.2c0,0.03,0,0.05,0,0.08c-0.03,0.94-0.02,1.88,0.01,2.83c0.12,1.3,0.3,2.58,0.53,3.86
	c0.38,1.65,0.83,3.27,1.36,4.88c0.79,2.13,1.68,4.21,2.66,6.26c1.33,2.55,2.8,5.03,4.37,7.44c2.04,2.95,4.25,5.78,6.59,8.5
	c2.71,3.01,5.58,5.86,8.6,8.57c3.16,2.72,6.47,5.27,9.91,7.64c3.27,2.15,6.64,4.14,10.12,5.94c3.09,1.51,6.25,2.87,9.49,4.04
	c2.62,0.87,5.28,1.61,7.98,2.21c0.34,0.06,0.68,0.13,1.02,0.18c3.91,0.66,7.39,2.53,9.84,5.7c2.44,3.16,3.52,7.24,2.99,11.2
	c-0.97,7.17-7.46,13.02-14.67,13.02C310.74,590.46,309.99,590.4,309.25,590.27z"/>
<path class="st0" d="M684.41,585.5c-0.59-0.12-1.18-0.28-1.76-0.48c-0.02-0.01-0.05-0.02-0.07-0.02c-0.03-0.01-0.07-0.02-0.1-0.03
	c-7.81-2.41-12.11-11.25-9.6-18.92c1.2-3.7,3.87-6.83,7.3-8.63c3.64-1.91,7.71-2.1,11.62-0.96c0.06,0.02,0.11,0.03,0.16,0.05
	c0.07,0.02,0.15,0.04,0.22,0.06c0.74,0.16,1.48,0.29,2.23,0.41c0.9,0.07,1.79,0.11,2.69,0.12c1.17-0.06,2.33-0.17,3.5-0.32
	c1.52-0.27,3.02-0.61,4.51-1.02c1.9-0.6,3.77-1.3,5.6-2.07c2.28-1.06,4.5-2.23,6.66-3.51c2.49-1.57,4.89-3.27,7.21-5.08
	c2.55-2.1,4.98-4.33,7.3-6.68c2.32-2.47,4.51-5.05,6.57-7.74c1.92-2.65,3.7-5.38,5.34-8.21c1.39-2.55,2.64-5.16,3.76-7.84
	c0.84-2.21,1.58-4.45,2.21-6.73c0.44-1.88,0.8-3.77,1.06-5.68c0.13-1.39,0.2-2.79,0.21-4.19c-0.07-1.44-0.21-2.86-0.41-4.28
	c-1.03-7.32,4.68-14.4,11.64-15.97c3.91-0.88,8.11-0.14,11.47,2.05c3.12,2.03,5.84,5.53,6.46,9.28c0.11,0.65,0.21,1.31,0.31,1.97
	c0,0,0,0,0,0c0,0.03,0.01,0.06,0.01,0.09c0.01,0.05,0.02,0.1,0.02,0.16c0.02,0.14,0.04,0.28,0.05,0.42
	c1.8,14.11-2.15,28.63-8.42,41.2c-7.89,15.81-19.99,29.68-34.47,39.78c-11.9,8.3-26.38,14.34-40.97,14.34
	C692.61,587.03,688.49,586.55,684.41,585.5z M750.92,495.73c0-0.02,0-0.03,0-0.04c0.02,0,0.04-0.01,0.05-0.01
	c-0.11-0.5-0.21-1-0.29-1.52C750.76,494.69,750.84,495.21,750.92,495.73z"/>
<path class="st0" d="M887.84,334.64c-11.78-2.23-22.7-9.38-29.2-19.51c-6.52-10.15-9.19-22.81-6.35-34.66
	c1.29-5.36,3.32-10.52,6.41-15.12c3.26-4.84,7.36-8.96,12.14-12.3c8.3-5.79,19.06-8.74,29.18-7.79c0,0,0,0,0,0
	c0.1,0.01,0.19,0.02,0.29,0.03c5.84,0.64,11.49,2.09,16.72,4.83c1.53,0.8,3.04,1.66,4.47,2.62c0.89,0.6,1.73,1.26,2.59,1.9
	c0.06,0.04,0.12,0.09,0.17,0.13c0.01,0.01,0.02,0.01,0.03,0.02c0.48,0.36,0.95,0.74,1.4,1.13c2.86,2.42,5.37,5.25,7.56,8.29
	c1.33,1.85,2.5,3.84,3.51,5.88c0.28,0.56,0.53,1.13,0.78,1.7c1.11,2.26,1.86,4.73,2.52,7.13c1.29,4.62,1.73,9.66,1.34,14.43
	c-0.5,6.21-2.08,12.31-5.02,17.82c-3.25,6.11-7.67,11.09-13.09,15.35c-4.88,3.83-10.96,6.44-16.97,7.83
	c-3.22,0.74-6.53,1.11-9.84,1.11C893.59,335.45,890.68,335.18,887.84,334.64z M896.73,305.46c0.64-0.04,1.27-0.09,1.91-0.16
	c0.65-0.13,1.3-0.27,1.94-0.44c0.65-0.22,1.29-0.46,1.93-0.71c0.63-0.31,1.25-0.64,1.86-0.98c0.51-0.34,1-0.68,1.49-1.04
	c0.49-0.42,0.97-0.85,1.43-1.3c0.43-0.48,0.84-0.96,1.24-1.46c0.37-0.53,0.72-1.07,1.06-1.62c0.31-0.6,0.6-1.21,0.87-1.83
	c0.22-0.62,0.42-1.24,0.61-1.86c0.15-0.7,0.28-1.4,0.38-2.11c0.05-0.67,0.08-1.34,0.09-2.01c-0.04-0.66-0.09-1.31-0.17-1.96
	c-0.13-0.65-0.27-1.29-0.44-1.93c-0.22-0.66-0.46-1.31-0.72-1.95c-0.29-0.59-0.59-1.16-0.91-1.73c-0.36-0.54-0.73-1.08-1.12-1.6
	c-0.41-0.47-0.83-0.94-1.26-1.39c-0.45-0.41-0.91-0.8-1.38-1.18c-0.07-0.05-0.14-0.1-0.2-0.15c-0.49-0.34-0.99-0.66-1.5-0.97
	c-0.6-0.31-1.21-0.6-1.82-0.87c-0.65-0.24-1.31-0.45-1.98-0.64c-0.64-0.14-1.28-0.26-1.93-0.36c-0.6-0.04-1.19-0.07-1.79-0.08
	c-0.72,0.04-1.43,0.11-2.15,0.19c-0.73,0.15-1.46,0.31-2.18,0.5c-0.6,0.21-1.19,0.43-1.77,0.66c-0.59,0.3-1.18,0.6-1.75,0.92
	c-0.54,0.36-1.07,0.73-1.59,1.11c-0.52,0.45-1.02,0.91-1.51,1.38c-0.38,0.43-0.75,0.86-1.1,1.3c-0.39,0.56-0.76,1.13-1.12,1.71
	c-0.29,0.57-0.57,1.14-0.83,1.72c-0.23,0.65-0.45,1.3-0.65,1.96c-0.14,0.65-0.26,1.29-0.36,1.95c-0.05,0.68-0.09,1.37-0.1,2.06
	c0.04,0.71,0.1,1.43,0.19,2.14c0.13,0.67,0.28,1.34,0.45,2c0.2,0.58,0.41,1.15,0.63,1.72c0.28,0.58,0.57,1.14,0.89,1.7
	c0.37,0.56,0.75,1.1,1.14,1.64c0.44,0.51,0.9,1.01,1.37,1.5c0.47,0.43,0.96,0.84,1.46,1.24c0.51,0.35,1.04,0.69,1.57,1.02
	c0.58,0.29,1.16,0.57,1.75,0.83c0.66,0.24,1.33,0.45,2,0.65c0.68,0.14,1.36,0.27,2.04,0.38
	C895.37,305.42,896.05,305.45,896.73,305.46z"/>
<path class="st0" d="M895.08,581.36c-10.89-2.94-20-10.75-25.76-20.26c-5.55-9.15-7.34-20.79-5.17-31.23
	c2.39-11.5,9.19-21.71,18.99-28.23c9.92-6.6,22.83-9.25,34.48-6.39c0.37,0.09,0.73,0.19,1.09,0.3c0.34,0.07,0.68,0.15,1.01,0.24
	c7.24,1.87,13.65,5.89,19.06,10.96c3.76,3.75,7.01,7.96,9.22,12.83c3.88,8.53,5.3,17.95,3.57,27.23
	c-1.71,9.21-6.32,17.43-12.94,23.99c-4.1,4.07-9.2,7.15-14.52,9.33c-2.02,0.82-4.13,1.45-6.24,1.96c-0.65,0.15-1.31,0.29-1.97,0.4
	c-0.13,0.02-0.26,0.04-0.38,0.06c-1.18,0.18-2.36,0.39-3.56,0.5c-1.27,0.12-2.53,0.17-3.78,0.17
	C903.76,583.22,899.39,582.52,895.08,581.36z M908.17,553.24c0.56-0.03,1.11-0.08,1.67-0.14c0.11-0.02,0.21-0.03,0.32-0.05
	c0.57-0.11,1.14-0.25,1.71-0.39c0.58-0.19,1.15-0.4,1.72-0.63c0.6-0.29,1.19-0.6,1.77-0.93c0.53-0.35,1.05-0.71,1.56-1.09
	c0.48-0.41,0.94-0.83,1.39-1.27c0.39-0.43,0.77-0.87,1.13-1.33c0.36-0.51,0.69-1.04,1.02-1.57c0.29-0.56,0.56-1.13,0.82-1.71
	c0.23-0.63,0.43-1.26,0.62-1.89c0.13-0.63,0.25-1.25,0.35-1.88c0.05-0.64,0.08-1.28,0.09-1.92c-0.04-0.67-0.1-1.34-0.17-2
	c-0.13-0.65-0.28-1.3-0.44-1.95c-0.2-0.59-0.42-1.18-0.65-1.76c-0.27-0.56-0.56-1.11-0.86-1.65c-0.33-0.5-0.68-1-1.04-1.48
	c-0.41-0.47-0.83-0.93-1.26-1.38c-0.45-0.4-0.91-0.79-1.38-1.17c-0.53-0.37-1.06-0.72-1.61-1.05c-0.56-0.29-1.13-0.56-1.7-0.82
	c-0.61-0.22-1.23-0.42-1.86-0.6c-0.58-0.12-1.17-0.23-1.76-0.32c-0.65-0.05-1.31-0.08-1.96-0.09c-0.69,0.04-1.39,0.1-2.08,0.19
	c-0.62,0.12-1.23,0.26-1.84,0.42c-0.59,0.2-1.18,0.42-1.76,0.65c-0.57,0.28-1.13,0.57-1.69,0.88c-0.54,0.36-1.08,0.73-1.6,1.12
	c-0.46,0.4-0.92,0.82-1.36,1.24c-0.43,0.48-0.84,0.97-1.25,1.47c-0.32,0.46-0.63,0.93-0.92,1.41c-0.3,0.59-0.59,1.19-0.86,1.8
	c-0.2,0.57-0.39,1.15-0.56,1.73c-0.14,0.64-0.25,1.28-0.35,1.93c-0.05,0.67-0.08,1.34-0.09,2.01c0.04,0.66,0.1,1.31,0.17,1.97
	c0.13,0.64,0.27,1.28,0.43,1.91c0.21,0.62,0.43,1.24,0.68,1.84c0.26,0.52,0.53,1.04,0.82,1.55c0.33,0.51,0.68,1.01,1.05,1.49
	c0.4,0.46,0.8,0.9,1.22,1.34c0.28,0.25,0.56,0.5,0.84,0.74c0.2,0.16,0.39,0.32,0.59,0.48c0.12,0.08,0.24,0.16,0.35,0.24
	c0.4,0.28,0.82,0.54,1.24,0.8c0.56,0.29,1.12,0.56,1.69,0.81c0.59,0.21,1.19,0.41,1.8,0.59c0.69,0.15,1.38,0.28,2.08,0.38
	C906.87,553.19,907.52,553.22,908.17,553.24z"/>
<path class="st0" d="M769.68,777.37c-11.47-1.7-22.08-6.77-31.2-13.81c-9.07-7.01-15.8-16.7-20.2-27.2
	c-4.53-10.83-5.61-22.82-4.11-34.38c0.77-5.93,2.6-11.62,4.87-17.13c1.11-2.7,2.55-5.25,4.01-7.77c1.14-1.98,2.45-4.09,4.01-5.9
	c0.05-0.06,0.09-0.11,0.14-0.17c0.23-0.31,0.47-0.62,0.71-0.93c3.36-4.37,7.43-8.12,11.73-11.52c9.29-7.33,20.85-11.82,32.54-13.25
	c6.67-0.82,13.64-0.68,20.25,0.62c0.4,0.08,0.79,0.17,1.18,0.28c1.82,0.37,3.64,0.82,5.45,1.33c5.44,1.54,10.55,3.95,15.42,6.78
	c13.15,7.65,23.44,20.46,28.49,34.76c3.98,11.28,4.93,23.5,2.65,35.24c-2.12,10.94-7.09,21.14-14.11,29.76
	c-7.29,8.96-17.14,15.76-27.9,19.88c-7.46,2.85-15.39,4.2-23.33,4.2C776.74,778.16,773.19,777.9,769.68,777.37z M781.01,748.21
	c1.61-0.08,3.22-0.21,4.82-0.43c1.59-0.29,3.16-0.64,4.73-1.06c1.52-0.48,3.01-1.03,4.49-1.64c1.42-0.67,2.81-1.4,4.17-2.18
	c1.33-0.85,2.62-1.75,3.88-2.7c1.2-1.01,2.36-2.06,3.47-3.16c1.03-1.11,2.01-2.26,2.94-3.45c0.93-1.3,1.8-2.64,2.62-4.01
	c0.78-1.46,1.49-2.95,2.14-4.47c0.55-1.48,1.04-2.99,1.47-4.51c0.38-1.65,0.68-3.3,0.91-4.98c0.14-1.6,0.22-3.2,0.22-4.81
	c-0.07-1.64-0.22-3.28-0.43-4.91c-0.28-1.58-0.63-3.15-1.05-4.7c-0.5-1.56-1.06-3.09-1.69-4.61c-0.68-1.45-1.42-2.86-2.22-4.25
	c-0.82-1.28-1.69-2.52-2.61-3.73c-1.01-1.21-2.07-2.37-3.18-3.49c-1.13-1.05-2.31-2.05-3.53-3c-1.31-0.94-2.66-1.82-4.05-2.64
	c-1.38-0.74-2.79-1.42-4.23-2.03c-1.56-0.59-3.14-1.1-4.74-1.54c-1.34-0.31-2.69-0.57-4.05-0.78c-0.14-0.02-0.28-0.04-0.42-0.06
	c-1.78-0.16-3.55-0.24-5.33-0.25c-1.62,0.08-3.24,0.23-4.85,0.43c-1.62,0.3-3.22,0.66-4.82,1.09c-1.51,0.49-2.99,1.04-4.45,1.65
	c-1.39,0.66-2.74,1.37-4.08,2.13c-1.37,0.88-2.7,1.81-4,2.8c-1.18,1-2.32,2.03-3.42,3.12c-0.84,0.91-1.65,1.84-2.43,2.8
	c-0.12,0.15-0.25,0.3-0.37,0.45c-0.98,1.36-1.89,2.76-2.75,4.2c-0.75,1.42-1.45,2.86-2.08,4.34c-0.57,1.52-1.07,3.06-1.51,4.63
	c-0.37,1.63-0.68,3.28-0.91,4.93c-0.14,1.58-0.22,3.16-0.23,4.75c0.07,1.67,0.21,3.33,0.43,4.99c0.29,1.63,0.66,3.23,1.09,4.82
	c0.51,1.57,1.08,3.11,1.71,4.63c0.65,1.37,1.36,2.72,2.12,4.04c0.85,1.32,1.75,2.61,2.71,3.86c0.99,1.17,2.01,2.3,3.09,3.39
	c1.14,1.05,2.32,2.06,3.55,3.03c1.28,0.91,2.58,1.76,3.93,2.57c1.48,0.79,2.98,1.51,4.52,2.17c1.49,0.55,3,1.04,4.53,1.47
	c1.62,0.37,3.25,0.67,4.89,0.9C777.68,748.14,779.34,748.21,781.01,748.21z"/>
<path class="st0" d="M198.71,782.86c-1.69-0.39-3.36-0.84-4.98-1.44c-0.04-0.01-0.07-0.03-0.11-0.04c-0.07-0.03-0.14-0.05-0.21-0.08
	c-0.24-0.09-0.48-0.19-0.72-0.29c-0.03-0.01-0.06-0.02-0.09-0.04c-0.42-0.15-0.83-0.31-1.23-0.49c-0.94-0.38-1.87-0.79-2.76-1.27
	c-2.94-1.58-5.73-3.35-8.27-5.54c-9.98-8.61-15.74-21.75-14.86-34.96c0.63-9.57,4.33-18.68,10.69-25.87
	c1.72-1.94,3.62-3.72,5.67-5.32c0.37-0.32,0.75-0.63,1.15-0.92c4.57-3.36,9.89-5.75,15.46-7.05c0.04-0.01,0.08-0.02,0.12-0.03
	c0,0,0,0,0.01,0c0.24-0.06,0.49-0.11,0.74-0.16c0.07-0.01,0.14-0.03,0.21-0.04c5.87-1.22,11.99-1.22,17.79,0.15
	c8.45,1.99,15.89,6.15,21.91,12.45c7.91,8.27,12.1,19.8,11.59,31.21c-0.57,12.79-7.01,24.7-17.22,32.37
	c-7.31,5.49-16.42,8.43-25.53,8.43C204.91,783.92,201.77,783.57,198.71,782.86z M208.4,753.93c0.55-0.04,1.11-0.09,1.66-0.15
	c0.51-0.1,1.03-0.21,1.54-0.34c0.54-0.18,1.07-0.37,1.6-0.58c0.51-0.25,1.02-0.51,1.52-0.79c0.48-0.32,0.95-0.65,1.41-0.99
	c0.4-0.35,0.78-0.7,1.16-1.07c0.36-0.4,0.71-0.81,1.04-1.23c0.31-0.45,0.61-0.9,0.89-1.36c0.23-0.46,0.46-0.92,0.67-1.4
	c0.21-0.58,0.4-1.16,0.57-1.75c0.12-0.54,0.22-1.09,0.31-1.64c0.04-0.56,0.07-1.11,0.08-1.67c-0.03-0.59-0.08-1.18-0.15-1.77
	c-0.1-0.53-0.22-1.05-0.36-1.57c-0.18-0.54-0.38-1.07-0.59-1.6c-0.23-0.47-0.47-0.93-0.73-1.39c-0.31-0.47-0.63-0.93-0.97-1.39
	c-0.35-0.41-0.71-0.8-1.08-1.19c-0.45-0.41-0.92-0.81-1.39-1.19c-0.4-0.27-0.81-0.54-1.22-0.79c-0.49-0.25-0.98-0.49-1.48-0.71
	c-0.56-0.2-1.12-0.38-1.68-0.55c-0.56-0.12-1.12-0.22-1.68-0.31c-0.55-0.04-1.09-0.07-1.64-0.08c-0.58,0.03-1.15,0.08-1.73,0.15
	c-0.43,0.08-0.85,0.18-1.27,0.28c-0.01,0-0.01,0-0.02,0.01c-0.62,0.2-1.22,0.42-1.83,0.66c-0.49,0.24-0.98,0.49-1.46,0.75
	c-0.49,0.33-0.98,0.66-1.45,1.01c-0.41,0.37-0.82,0.74-1.22,1.12c-0.32,0.36-0.64,0.73-0.94,1.11c-0.31,0.45-0.62,0.91-0.91,1.38
	c-0.25,0.48-0.49,0.97-0.71,1.46c-0.2,0.57-0.39,1.15-0.56,1.73c-0.11,0.52-0.2,1.04-0.29,1.57c-0.05,0.62-0.07,1.25-0.09,1.87
	c0.04,0.55,0.09,1.1,0.15,1.65c0.12,0.57,0.24,1.13,0.39,1.69c0.18,0.52,0.38,1.04,0.58,1.55c0.23,0.47,0.47,0.93,0.73,1.39
	c0.29,0.44,0.59,0.88,0.91,1.31c0.35,0.41,0.71,0.81,1.08,1.2c0.42,0.38,0.85,0.74,1.29,1.09c0.43,0.29,0.87,0.58,1.32,0.85
	c0.45,0.23,0.91,0.45,1.36,0.67c0.08,0.03,0.16,0.06,0.25,0.09c0.52,0.18,1.04,0.35,1.57,0.5c0.55,0.11,1.1,0.22,1.65,0.3
	C207.24,753.89,207.82,753.92,208.4,753.93z"/>
<path class="st0" d="M96.56,569.28c-11-0.25-21.91-3.78-31.04-9.89c-10.1-6.76-18.02-16.74-22.27-28.12
	c-4.45-11.91-4.79-24.85-1.36-37.06c3.11-11.09,9.9-21.33,18.8-28.61c8.85-7.23,19.38-11.77,30.72-13.21c0.1-0.01,0.2-0.02,0.3-0.03
	c0.17-0.02,0.35-0.04,0.52-0.05c6.39-0.64,12.96-0.26,19.2,1.26c6.05,1.48,11.67,3.8,17.05,6.93c4.41,2.57,8.3,5.91,11.9,9.5
	c7.79,7.77,13.12,18.35,15.25,29.09c2.36,11.89,0.97,24.21-3.86,35.31c-4.39,10.11-11.87,18.89-21.01,25.02
	c-9.69,6.5-21.21,9.89-32.85,9.89C97.48,569.29,97.02,569.29,96.56,569.28z M98.72,539.32c1.28-0.06,2.55-0.17,3.82-0.33
	c1.28-0.24,2.54-0.52,3.8-0.86c1.18-0.39,2.33-0.81,3.48-1.28c1.11-0.53,2.2-1.1,3.26-1.71c1.03-0.67,2.02-1.37,3-2.11
	c0.91-0.77,1.79-1.57,2.64-2.4c0.85-0.93,1.66-1.88,2.44-2.86c0.71-1.01,1.38-2.04,2.01-3.09c0.57-1.09,1.1-2.19,1.59-3.32
	c0.43-1.15,0.81-2.31,1.15-3.49c0.29-1.25,0.52-2.51,0.71-3.79c0.12-1.32,0.18-2.63,0.2-3.95c-0.06-1.29-0.18-2.57-0.34-3.85
	c-0.24-1.28-0.52-2.54-0.86-3.8c-0.37-1.13-0.78-2.25-1.23-3.35c-0.54-1.14-1.12-2.26-1.75-3.35c-0.67-1.04-1.37-2.04-2.12-3.03
	c-0.8-0.94-1.63-1.85-2.49-2.73c-0.87-0.8-1.77-1.56-2.69-2.29c-1-0.71-2.02-1.37-3.07-2c-1.15-0.61-2.31-1.17-3.51-1.69
	c-1.19-0.44-2.38-0.83-3.6-1.17c-1.24-0.28-2.49-0.51-3.76-0.69c-1.27-0.11-2.54-0.18-3.82-0.18c-1.11,0.05-2.22,0.14-3.33,0.27
	c-0.04,0-0.08,0.01-0.11,0.01c-0.02,0-0.04,0.01-0.06,0.01c-0.02,0-0.04,0.01-0.07,0.01c-1.29,0.23-2.56,0.52-3.82,0.86
	c-1.2,0.39-2.38,0.82-3.55,1.3c-1.11,0.53-2.19,1.1-3.27,1.7c-1,0.65-1.98,1.33-2.94,2.04c-1,0.85-1.96,1.72-2.9,2.63
	c-0.84,0.93-1.64,1.88-2.42,2.86c-0.69,0.98-1.34,1.99-1.96,3.02c-0.57,1.08-1.09,2.18-1.57,3.3c-0.42,1.14-0.79,2.29-1.14,3.46
	c-0.3,1.3-0.54,2.62-0.74,3.94c-0.11,1.34-0.18,2.67-0.19,4.01c0.07,1.22,0.17,2.44,0.32,3.65c0.23,1.26,0.51,2.52,0.85,3.76
	c0.39,1.2,0.83,2.37,1.31,3.53c0.54,1.12,1.11,2.21,1.72,3.28c0.66,1.02,1.36,2.02,2.1,2.99c0.8,0.94,1.63,1.85,2.5,2.73
	c0.88,0.8,1.78,1.57,2.72,2.31c0.98,0.7,1.99,1.35,3.02,1.97c1.15,0.61,2.31,1.16,3.5,1.67c1.18,0.43,2.37,0.82,3.58,1.16
	c1.24,0.28,2.49,0.51,3.75,0.69C96.16,539.24,97.44,539.3,98.72,539.32z"/>
<path class="st0" d="M103.47,391.23c-3.57-0.1-7-0.8-10.45-1.68c-5.84-1.49-11.3-4.61-15.98-8.35c-4.98-3.97-9.11-9.22-11.88-14.95
	c-2.64-5.47-4.34-11.54-4.52-17.63c-0.2-6.77,0.94-13.21,3.48-19.48c4.59-11.33,14.55-20.73,26.12-24.7
	c3.74-1.29,7.66-2.25,11.62-2.52c0.14-0.01,0.28-0.02,0.43-0.03c7.15-0.39,13.99,0.86,20.63,3.55c7.73,3.12,14.61,8.93,19.27,15.8
	c6.59,9.7,9.16,21.65,7.13,33.21c-2.07,11.73-9.13,22.82-19.18,29.31c-5.14,3.32-10.86,5.78-16.91,6.79
	c-2.81,0.47-5.57,0.71-8.4,0.71C104.39,391.25,103.93,391.25,103.47,391.23z M105.66,361.28c0.65-0.04,1.3-0.1,1.95-0.18
	c0.65-0.13,1.3-0.28,1.95-0.44c0.61-0.21,1.2-0.43,1.8-0.67c0.59-0.29,1.17-0.59,1.74-0.91c0.48-0.32,0.96-0.65,1.42-0.99
	c0.45-0.39,0.89-0.79,1.32-1.21c0.45-0.5,0.88-1,1.3-1.52c0.33-0.48,0.65-0.97,0.96-1.47c0.32-0.62,0.62-1.25,0.9-1.89
	c0.22-0.62,0.42-1.24,0.61-1.87c0.13-0.63,0.25-1.27,0.35-1.91c0.05-0.67,0.08-1.35,0.09-2.02c-0.04-0.64-0.09-1.28-0.17-1.93
	c-0.12-0.64-0.26-1.27-0.42-1.89c-0.22-0.64-0.45-1.27-0.7-1.89c-0.27-0.55-0.55-1.09-0.85-1.62c-0.35-0.53-0.72-1.06-1.1-1.57
	c-0.41-0.48-0.84-0.95-1.28-1.4c-0.43-0.39-0.88-0.77-1.34-1.13c-0.53-0.37-1.06-0.71-1.61-1.05c-0.59-0.31-1.19-0.6-1.8-0.86
	c-0.63-0.23-1.27-0.43-1.91-0.62c-0.63-0.14-1.26-0.25-1.89-0.35c-0.67-0.05-1.34-0.09-2.01-0.1c-0.56,0.04-1.13,0.09-1.69,0.16
	c-0.67,0.13-1.34,0.28-2,0.45c-0.65,0.22-1.29,0.45-1.93,0.7c-0.6,0.3-1.19,0.61-1.78,0.94c-0.46,0.31-0.92,0.63-1.37,0.96
	c-0.53,0.45-1.04,0.92-1.54,1.4c-0.42,0.47-0.83,0.96-1.22,1.45c-0.31,0.46-0.62,0.92-0.91,1.39c-0.31,0.6-0.61,1.21-0.88,1.83
	c-0.21,0.59-0.41,1.19-0.59,1.8c-0.15,0.68-0.27,1.36-0.38,2.04c-0.05,0.65-0.08,1.3-0.09,1.96c0.04,0.64,0.09,1.27,0.17,1.9
	c0.13,0.65,0.27,1.29,0.43,1.93c0.21,0.63,0.44,1.26,0.69,1.88c0.28,0.57,0.57,1.13,0.87,1.68c0.34,0.51,0.69,1.01,1.06,1.51
	c0.41,0.48,0.84,0.94,1.28,1.4c0.46,0.41,0.93,0.81,1.41,1.2c0.54,0.37,1.08,0.73,1.64,1.07c0.56,0.29,1.12,0.56,1.7,0.81
	c0.62,0.22,1.24,0.42,1.86,0.61c0.63,0.13,1.27,0.25,1.91,0.35C104.28,361.24,104.97,361.27,105.66,361.28z"/>
<path class="st0" d="M265.86,290.11c-6.8-4.42-8.93-13.94-4.41-20.75c4.95-7.45,10.79-14.3,16.93-20.79
	c7.16-7.57,14.73-14.71,22.57-21.56c14.89-13,30.73-24.98,47.16-35.96c16.23-10.84,33.13-21.02,50.93-29.1
	c7.72-3.5,15.54-6.66,23.69-9.02c7.61-2.2,15.68-3.58,23.59-2.37c8.09,1.24,13.46,9.63,12.02,17.48c-0.71,3.85-2.95,7.32-6.16,9.56
	c-3.2,2.24-6.98,3-10.8,2.53c-0.43-0.03-0.86-0.05-1.29-0.06c-1,0.06-2,0.15-2.99,0.28c-2.43,0.43-4.83,1.02-7.21,1.69
	c-5.48,1.71-10.82,3.8-16.08,6.1c-11.56,5.23-22.69,11.35-33.55,17.9c-16.04,9.84-31.47,20.67-46.22,32.37
	c-11.13,8.94-21.88,18.37-31.87,28.58c-4.61,4.83-9.03,9.82-13.09,15.13c-0.86,1.17-1.69,2.36-2.5,3.57
	c-2.89,4.36-7.77,6.78-12.71,6.78C271.14,292.48,268.34,291.72,265.86,290.11z"/>
<path class="st0" d="M720,286.51c-3.66-0.63-7.55-2.79-9.59-5.99c-1.49-2.33-3.17-4.53-4.9-6.67c-4.67-5.52-9.76-10.66-15.01-15.62
	c-12.52-11.56-25.91-22.14-39.68-32.17c-16.43-11.77-33.42-22.73-51.07-32.58c-0.82-0.46-1.65-0.91-2.48-1.37
	c-9.61-5.16-19.38-9.96-29.52-13.99c-3.67-1.35-7.37-2.57-11.15-3.58c-1.25-0.26-2.5-0.49-3.77-0.69c-0.51-0.03-1.02-0.06-1.54-0.07
	c-6.84,2.53-14.88-0.35-18.43-6.9c-3.9-7.19-1.14-16.44,6.04-20.34c6.13-3.34,13.37-3.06,20.06-2.11c3.19,0.45,6.34,1.36,9.43,2.24
	c2.38,0.68,4.73,1.47,7.05,2.34c10.39,3.88,20.42,8.5,30.23,13.64c18.84,9.88,36.98,21.09,54.42,33.27
	c18.1,12.64,35.67,26.13,51.76,41.28c4.87,4.58,9.59,9.31,14.01,14.34c3.17,3.6,6.27,7.36,8.86,11.41
	c2.21,3.45,3.34,7.23,2.63,11.36c-0.66,3.83-2.84,7.31-5.99,9.59c-2.56,1.85-5.68,2.84-8.83,2.84
	C721.68,286.73,720.84,286.65,720,286.51z"/>
<path class="st0" d="M748.93,495.68c-18.05-8.48-34.48-20.38-50.12-32.63c-15.63-12.23-30.47-25.46-44.92-39.06
	c-14.57-13.71-28.67-27.9-42.43-42.43c-14.04-14.83-27.68-30.03-41.01-45.49c-13.47-15.62-26.59-31.56-39.39-47.74
	c-10.11-12.78-19.95-25.76-29.65-38.86c-0.02-0.03-0.05-0.06-0.07-0.09c0,0,0-0.01,0-0.01c-4.82-6.61-3.24-16.17,3.36-20.95
	c6.67-4.84,16.09-3.2,20.95,3.36c11.3,15.27,22.82,30.36,34.68,45.2c4.96,6.2,9.97,12.36,15.03,18.48
	c12.58,15.16,25.46,30.08,38.68,44.7c13.55,14.98,27.42,29.67,41.73,43.92c7,6.97,14.08,13.83,21.28,20.58
	c13.73,12.77,27.84,25.17,42.66,36.67c3.65,2.83,7.33,5.6,11.07,8.31c7.86,5.61,15.93,10.92,24.38,15.6
	c3.99,2.13,8.07,4.09,12.26,5.78c2.13,0.78,4.29,1.49,6.48,2.07c1.2,0.26,2.41,0.48,3.63,0.64c0.59,0.04,1.18,0.07,1.78,0.07
	c0.3-0.02,0.59-0.05,0.89-0.08c0,0,0-0.01,0.01-0.01c0.11-0.32,0.2-0.65,0.3-0.97c0.13-0.66,0.23-1.32,0.32-1.98
	c0.08-1.2,0.11-2.41,0.11-3.61c-0.13-2.4-0.39-4.78-0.74-7.16c-0.9-4.98-2.15-9.88-3.6-14.73c-3.47-10.95-7.84-21.57-12.6-32.02
	c-4.26-9.17-8.82-18.2-13.62-27.1c-3.88-7.2-1.16-16.44,6.03-20.34c7.17-3.89,16.47-1.16,20.34,6.03
	c7.29,13.52,14.06,27.34,20.01,41.49c3.97,9.45,7.52,19.14,10.18,29.04c2.97,11.03,4.92,22.48,3.41,33.89
	c-0.94,7.08-4.06,13.94-9.1,19.02c-5.16,5.21-12.53,8.16-19.82,8.43c-0.6,0.02-1.21,0.03-1.81,0.03
	C768.89,503.75,758.6,500.22,748.93,495.68z"/>
<path class="st0" d="M226.03,504.54c-11.52-3.24-18.44-17.57-21.01-28.39c-0.72-4.05-0.06-8.21,0.28-12.28
	c-0.26-9.59-0.55-19.18,2.68-28.39c2.33-7.95,2.36-16.39,5.45-24.13c5.28-13.97,12.67-26.96,20.07-39.89
	c11.76-26.93,43.63-7.63,27.51,12.4c-2.49,3.95-4.46,8.23-6.88,12.22c-5.19,8.54-9.35,17.64-13.02,26.91
	c-1.47,5.3-1.67,10.88-3.16,16.2c-2.14,6.96-3.48,13.89-2.61,21.19c0.6,4.47-1.9,9.52,0.51,13.5
	c21.62-10.42,37.72-30.54,56.35-45.41c18.81-17.01,36.74-34.98,54.81-52.77c24.33-27.88,49.65-54.84,74.9-81.89
	c17.85-16.73,31.46-37.41,50.11-53.31c14.38-11.95,24.96-29.66,22.14-48.88c-1.77-15.14-6.07-30.07-12.4-43.93
	c-11.49-23.08-14.57-49.73-10.99-75.09c3.59-13.83,9.88-27.55,19.26-38.41c14.65-18.6,40.31,3.15,22.85,19.6
	c-5.98,5.96-8.82,14.5-12.05,22.15c-3.95,21.06-0.24,43.43,9.66,62.41c10.5,26.19,19.32,56.4,10.06,84.18
	c-7.49,24.83-28.73,38.65-45.21,56.88c-20.12,24.75-43.39,46.68-64.65,70.45c-14.49,14.93-27.78,30.93-41.77,46.32
	c-22.26,21.99-44.38,44.21-68.18,64.58C279.93,478.21,255.76,508.15,226.03,504.54z"/>
<path class="st0" d="M203.61,429.32c-2.74-7.87-5.18-15.86-7.29-23.93c-4.44-16.94-7.35-34.3-8.82-51.74
	c-1.7-20.26-1.21-40.59,1.05-60.78c2.21-19.77,6.58-39.32,12.64-58.25c6.49-20.27,15.24-39.75,25.77-58.23
	c9.84-17.28,21.49-33.61,34.57-48.59c13.38-15.33,28.23-29.21,44.3-41.67c15.59-12.09,32.53-22.62,50.21-31.36
	c18.23-9,37.24-16.18,56.86-21.5c18.84-5.12,38.27-8.31,57.74-9.66c7.45-0.52,14.93-0.76,22.39-0.74
	c8.18,0.02,14.73,7.59,14.43,15.54c-0.14,3.95-1.88,7.75-4.78,10.44c-2.97,2.76-6.75,4-10.76,4c-2.68-0.01-5.36,0.03-8.03,0.1
	c-12.42,0.43-24.78,1.64-37.05,3.61c-11.98,2.05-23.8,4.83-35.44,8.32c-11.6,3.61-22.95,7.92-34.02,12.91
	c-10.76,4.99-21.21,10.6-31.3,16.83c-9.83,6.21-19.28,12.97-28.33,20.28c-9.1,7.51-17.74,15.53-25.9,24.06
	c-8.01,8.55-15.5,17.56-22.46,26.98c-6.92,9.59-13.25,19.56-18.99,29.88c-5.72,10.56-10.8,21.44-15.21,32.61
	c-4.37,11.4-8.03,23.05-10.98,34.9c-2.86,12.05-4.96,24.25-6.31,36.57c-1.21,12.3-1.66,24.64-1.34,36.99
	c0.44,12.28,1.64,24.51,3.6,36.64c2.07,12.09,4.87,24.04,8.43,35.78c0.97,3.13,2,6.26,3.08,9.36c1.33,3.83,1.3,7.96-0.43,11.67
	c-1.64,3.51-4.65,6.31-8.27,7.68c-1.67,0.64-3.43,0.94-5.18,0.94C211.7,438.96,205.69,435.31,203.61,429.32z"/>
<path class="st0" d="M779.63,415.93c-7.61-2.33-12.61-11.02-9.94-18.75c1.69-4.87,3.12-9.82,4.33-14.84
	c1.65-7.32,2.81-14.72,3.59-22.18c0.79-8.99,1-17.99,0.71-27.01c-0.49-10.76-1.68-21.46-3.46-32.08
	c-2.29-12.72-5.4-25.25-9.23-37.58c-4.35-13.54-9.56-26.78-15.51-39.69c-6.46-13.67-13.71-26.94-21.76-39.75
	c-8.19-12.84-17.16-25.15-26.83-36.91c-6.24-7.5-12.81-14.73-19.66-21.69c-3.12-3.16-6.3-6.26-9.54-9.31
	c-9.29-8.6-19.05-16.68-29.29-24.13c-9.14-6.51-18.62-12.51-28.48-17.88c-5.98-3.18-12.09-6.12-18.32-8.79
	c-0.02-0.01-0.04-0.02-0.06-0.02c-1.77-0.74-3.54-1.48-5.33-2.19c-0.54-0.22-1.09-0.43-1.63-0.64c-0.73-0.27-1.47-0.54-2.21-0.81
	c-3.99-1.45-8.03-2.76-12.1-3.95c-2.72-0.79-5.46-1.52-8.22-2.19c-6.56-1.5-13.2-2.63-19.9-3.33c-5.61-0.49-11.23-0.67-16.86-0.53
	c-5.06,0.24-10.09,0.75-15.09,1.57c-4.65,0.87-9.25,1.99-13.25,3.25c-3.73,1.1-7.5,1.15-11.13-0.51c-3.52-1.61-6.34-4.6-7.75-8.21
	c-1.46-3.75-1.34-8.02,0.34-11.68c1.54-3.37,4.61-6.58,8.21-7.75c17.4-5.63,35.73-7.66,53.96-6.34
	c18.12,1.31,35.96,5.47,52.96,11.84c0.27,0.1,0.55,0.21,0.82,0.31c0.63,0.2,1.25,0.43,1.84,0.7c2.44,0.94,4.86,1.92,7.27,2.92
	c0.15,0.06,0.3,0.12,0.44,0.18c13.78,5.88,27,13.09,39.58,21.21c16.79,10.84,32.34,23.45,46.87,37.15
	c7.08,6.68,13.86,13.68,20.35,20.94c1.65,1.85,3.27,3.71,4.89,5.59c0.82,0.96,1.64,1.93,2.46,2.9c0.33,0.39,0.66,0.79,0.98,1.18
	c0.02,0.02,0.03,0.04,0.05,0.05c0.15,0.16,0.3,0.33,0.44,0.5c0.49,0.53,0.95,1.1,1.37,1.69c0.43,0.52,0.85,1.03,1.28,1.55
	c3.12,3.82,6.18,7.71,9.15,11.65c5.49,7.27,10.68,14.75,15.62,22.41c11.27,17.45,21.16,35.73,29.48,54.76
	c8.11,18.52,14.7,37.77,19.4,57.44c4.79,20.04,7.62,40.55,7.93,61.16c0.31,19.96-1.92,40-7.33,59.23c-0.82,2.89-1.72,5.76-2.7,8.6
	c-1.29,3.72-3.65,6.85-7.15,8.76c-2.21,1.21-4.71,1.83-7.21,1.83C782.54,416.59,781.06,416.37,779.63,415.93z"/>
<path class="st0" d="M561.07,397.18c-13.22,0.44-20.58-15.82-11.32-25.35c2.38-2.5,5.9-4.38,9.42-4.62c4.7-1.6,9.53-2.87,14.45-3.62
	c17.49-2.9,35.5-4.5,52.9-0.27c15.66,3.74,14.81,26.74-1.12,29.37c-6.1,0.68-11.94-2.01-18.05-1.96
	c-11.31-0.25-22.64,1.15-33.72,3.41C569.56,395.32,565.36,397.27,561.07,397.18z"/>
<path class="st0" d="M429.31,399.52c-2.11-0.52-4.23-1.55-6-2.98c-0.08-0.03-0.17-0.06-0.25-0.09c-2.83-0.82-5.72-1.42-8.61-1.95
	c-7.75-1.25-15.55-2.01-23.39-2.36c-4.59-0.14-9.18-0.14-13.76,0.22c-0.78,0.09-1.55,0.2-2.32,0.33
	c-6.69,3.48-15.47,0.75-19.41-5.62c-2.1-3.4-2.75-7.57-1.8-11.45c0.95-3.89,3.4-6.99,6.7-9.19c3.55-2.37,8.16-3.29,12.33-3.72
	c4.96-0.51,9.89-0.69,14.87-0.62c10.22,0.14,20.45,1.01,30.54,2.68c5.77,0.96,11.74,2.01,17.18,4.26c3.99,1.65,8.12,4.15,10.28,8.05
	c1.96,3.56,2.79,7.43,1.8,11.45c-0.93,3.8-3.37,7.14-6.69,9.19c-2.38,1.47-5.13,2.23-7.9,2.23
	C431.66,399.95,430.47,399.81,429.31,399.52z"/>
<path class="st0" d="M449.78,739.68c-18.03-5.89-35.08-14.82-50.54-25.79c-16.77-11.89-31.68-26.23-44.73-42.08
	c-12.3-14.93-22.73-31.31-31.68-48.44c-8.54-16.35-15.49-33.57-21-51.16c-5.63-17.97-9.8-36.45-12.43-55.1
	c-2.43-17.17-3.68-34.52-3.63-51.86c0.01-4.07,0.08-8.14,0.25-12.21c0.16-3.86,2.53-7.72,5.45-10.1c3.07-2.5,7.07-3.69,11-3.29
	c3.93,0.41,7.6,2.39,10.1,5.46c2.61,3.21,3.45,6.95,3.36,8.96c-0.49,14.85,0.02,29.72,1.42,44.51c1.5,14.59,3.9,29.06,7.23,43.34
	c3.12,12.9,6.99,25.61,11.65,38.04c4.31,11.2,9.25,22.14,14.85,32.75c5.16,9.56,10.87,18.8,17.12,27.68
	c5.59,7.75,11.59,15.17,18.04,22.23c5.91,6.32,12.17,12.3,18.77,17.89c5.93,4.89,12.12,9.44,18.57,13.63
	c6.14,3.85,12.47,7.36,19.01,10.48c6.17,2.82,12.48,5.28,18.93,7.36c6.13,1.86,12.35,3.37,18.65,4.5
	c6.07,0.99,12.18,1.61,18.33,1.89c6.14,0.17,12.27-0.03,18.38-0.58c6.16-0.67,12.27-1.69,18.31-3.06c6.14-1.5,12.17-3.37,18.1-5.56
	c6.1-2.37,12.05-5.09,17.85-8.13c6.23-3.39,12.25-7.14,18.06-11.21c6.4-4.62,12.51-9.63,18.34-14.96
	c6.24-5.86,12.13-12.09,17.66-18.62c6.32-7.64,12.15-15.66,17.52-23.99c5.99-9.51,11.37-19.38,16.16-29.55
	c5.24-11.38,9.74-23.08,13.55-35.02c4.14-13.37,7.39-26.99,9.81-40.76c2.44-14.57,3.93-29.29,4.5-44.07
	c0.29-9.25,0.27-18.52-0.22-27.76c-0.4-8.16,6.42-15.23,14.49-15.5c8.29-0.27,15.07,6.32,15.5,14.49
	c0.89,16.79,0.4,33.71-1.13,50.45c-1.7,18.61-4.87,37.16-9.54,55.25c-4.73,18.34-10.97,36.31-18.87,53.54
	c-8.04,17.52-17.65,34.31-29.1,49.83c-11.92,16.16-25.75,30.92-41.36,43.57c-14.95,12.1-31.75,22.26-49.67,29.32
	c-18.52,7.3-38.05,11.63-57.98,12.3c-1.8,0.06-3.59,0.09-5.39,0.09C485.24,748.44,467.12,745.35,449.78,739.68z"/>
<path class="st0" d="M144.3,981.93c-6.84-5.03-7.9-14.69-3-21.44c5.53-15.1,14.93-28.21,24.2-41.21
	c10.37-12.86,20.92-26.04,34.41-35.78c19.8-14.21,41.07-26.55,62.83-37.49c28.56-12.31,58.73-20.27,87.36-32.3
	c10.01-4,20.72-9.37,29.07-15.73c8.75-5.62,16.8-12.14,22.01-21.32c11.22-13.82,14.95-28.74,12.58-46.32
	c-2.59-13.89,9.1-26.33,22.72-19.12c11.33,6.42,6.24,18.02,7.85,28.72c1.23,23.16-9.49,42.45-23.03,60.32
	c-9.3,13.2-23.74,21.34-36.86,30.23c-30.86,17.17-65.54,25.37-98.18,38.35c-16.26,5.84-30.95,14.98-45.61,23.94
	c-10.99,6.08-21.09,12.89-30.19,20.69c-12.47,12.48-23.53,26.29-32.9,41.25c-5.32,7.38-7.22,16.55-12.3,24.01
	C160.42,985.33,150.84,986.76,144.3,981.93z"/>
<path class="st0" d="M826.98,979.86c-5.68-15.52-14.03-30.17-24.14-43.23c-7.44-8.38-16.15-15.54-24.96-22.43
	c-34.74-26.47-75.87-41.48-115.18-59.63c-20.1-10.06-41.27-18.52-59.87-31.26c-28.34-23.18-47.43-58.3-46.38-95.19
	c-2.02-18.54,24.95-23.53,29.47-5.25c0.98,10.19,0.74,20.56,3.76,30.5c5.42,18.76,17.87,34.6,32.62,47.06
	c10.64,6.59,22,11.95,33.25,17.43c43.61,22.31,91.49,36.95,131.26,66.18c24.15,15.49,44.93,36.24,57.74,62.12
	c4.6,10.38,14.61,23.05,10.1,34.64C849.7,992.58,831.05,992.13,826.98,979.86z"/>
</svg>
