<?xml version="1.0" encoding="utf-8"?>
<!-- Generator: Adobe Adobe Illustrator 24.2.0, SVG Export Plug-In . SVG Version: 6.00 Build 0)  -->
<svg version="1.1" id="Capa_de_vector_1_" xmlns="http://www.w3.org/2000/svg" xmlns:xlink="http://www.w3.org/1999/xlink" x="0px"
	 y="0px" viewBox="0 0 300 300" style="enable-background:new 0 0 300 300;" xml:space="preserve">
<style type="text/css">
	.st0{fill:#C7CCAC;}
</style>
<path class="st0" d="M58.08,291.77c-5.66-42.95-6.61-86.75-2.87-129.89c1.36-23.94,5.93-48.41,7.21-72.2
	c1.25-15.63,0.5-31.34,0.32-46.99c-0.32-8.94,0.59-17.93-0.99-26.78c-0.6-5.09,7.08-6.37,7.93-1.09c0.48,3.24,0.98,6.49,0.99,9.78
	c-0.21,19.2,0.81,38.42,0.22,57.62c-1.09,25.93-5.66,51.75-7.55,77.57c-2.21,27.7-3.32,55.52-1.59,83.29
	c0.58,15.93,2.27,31.79,4.24,47.61C66.6,295.78,58.92,297.05,58.08,291.77z"/>
<path class="st0" d="M147.88,276.35c-1.78-3.12,0.98-5.53,3.59-6.81c2.51-1.38,5.75-3.25,7.83-4.73
	c9.88-6.86,18.16-14.6,26.53-23.01c5.61-6.37,9.9-13.79,12.76-21.77c6.58-14.06,8.6-29.67,7.42-45.06
	c-0.53-12.93-1.71-26.06-8.12-37.59c-5.62-10.27-13.92-18.79-21.75-27.39c-8.19-9.17-12-21.28-14.15-33.18
	c-2.08-16.26,0.44-32.66,1.5-48.92c0.19-3.32,0.15-6.66-0.05-9.98c-0.35-3.56-1.48-9.35,3.63-9.58c2.6,0,4.28,2.41,4.03,4.88
	c0.21,3,0.46,5.99,0.51,9c-0.08,12.86-2.27,25.63-2.32,38.5c-0.72,12.05,1.69,24.17,6.83,35.1c3.35,6.98,9.24,12.1,14.25,17.83
	c15.47,17.13,23.09,33.48,23.32,56.81c0.57,7.84,0.95,15.73,0.13,23.56c-1.52,15.51-7.28,30.52-15.09,43.91
	c-6.2,9.9-15.23,17.49-24,25.03c-5.73,5.22-12.19,9.62-18.97,13.35C153.35,278.11,149.85,279.62,147.88,276.35z"/>
<path class="st0" d="M226.79,155.57c-3.2-2.6-0.95-6.39,2.01-8c3.15-1.77,6.67-6.96,10.39-3.5c3.17,3.36-0.57,6.6-3.46,8.35
	C232.99,154.09,230.27,158.23,226.79,155.57z"/>
<path class="st0" d="M243.58,175.78c-3.98-0.61-11.13,0.96-13.23-3.27c-0.71-1.62-0.16-3.72,1.27-4.74
	c1.13-0.92,2.67-1.04,3.96-0.52c3.07,0.41,5.13,0.39,8,0.53C248.83,167.95,248.82,175.69,243.58,175.78z"/>
<path class="st0" d="M230.72,197.85c-1.77-2.66-4.92-4.85-5.18-8.23c0-2.18,1.82-4,4-4c1.7,0,3.18,1.11,3.75,2.63
	c1.17,1.63,2.52,3.14,3.76,4.71C240.2,197.11,233.98,201.94,230.72,197.85z"/>
<path class="st0" d="M180.84,248.47c-0.85-2.19-1.81-4.33-2.87-6.42c-1.46-2.85-3.11-5.6-4.86-8.2c-0.01-0.02-0.03-0.04-0.04-0.06
	l-0.05-0.07c-2.04-2.97-4.28-5.8-6.66-8.5c-2.62-2.92-5.42-5.67-8.37-8.27c-3.18-2.74-6.52-5.29-10-7.64
	c-3.69-2.44-7.52-4.65-11.47-6.63c-3.91-1.9-7.91-3.57-12.02-5.01c-4.15-1.39-8.36-2.53-12.65-3.39c-3.8-0.72-7.62-1.21-11.48-1.47
	c-3.42-0.18-6.84-0.17-10.25,0.03c-3.15,0.25-6.27,0.67-9.37,1.28c-2.64,0.58-5.24,1.28-7.8,2.15c-2.37,0.85-4.69,1.84-6.94,2.96
	c-1.09,0.57-2.16,1.16-3.21,1.79c0,0,0,0-0.01,0c-1.86,1.13-4.38,0.45-5.48-1.41c-1.12-1.89-0.46-4.36,1.41-5.48
	c0,0,0.01-0.01,0.01-0.01c12.84-7.77,28.28-10.29,43.09-9.24c16.05,1.13,31.72,6.41,45.55,14.57c11.87,7,22.54,16.32,30.66,27.48
	c3.71,5.11,6.92,10.6,9.38,16.42c0.27,0.64,0.54,1.29,0.79,1.94c0.79,2.03-0.05,4.37-2.1,5.25c-0.49,0.21-1.01,0.31-1.54,0.31
	C182.99,250.89,181.43,250,180.84,248.47z"/>
<path class="st0" d="M105.48,113.79c-7.11-0.14-14.23-0.57-21.29-1.36c-6.03-0.68-12.08-1.6-17.96-3.1c-0.01,0-0.01,0-0.02,0
	c-0.23-0.06-0.46-0.12-0.69-0.18c-2.11-0.55-3.37-2.84-2.8-4.92c0.59-2.12,2.81-3.34,4.92-2.79c0.23,0.06,0.46,0.12,0.7,0.18
	c0.04,0.01,0.08,0.02,0.12,0.03c1.2,0.3,2.42,0.57,3.63,0.83c7.41,1.49,14.92,2.35,21.91,2.83c11.28,0.75,22.61,0.73,33.54,0.01
	c7.67-0.53,15.33-1.41,22.88-2.91c3.42-0.71,6.81-1.55,10.12-2.67c1.4-0.5,2.78-1.05,4.13-1.7c0.67-0.35,1.33-0.72,1.96-1.13
	c0.29-0.21,0.58-0.42,0.85-0.64c0.17-0.16,0.34-0.33,0.5-0.5c1.48-1.6,4.16-1.5,5.66,0c1.59,1.59,1.48,4.06,0,5.66
	c-1.35,1.46-3.09,2.57-4.85,3.48c-2.54,1.32-5.23,2.29-7.96,3.14c-3.76,1.17-7.62,1.99-11.49,2.71c-6.9,1.28-13.9,2.02-20.9,2.5
	c-5.91,0.41-11.83,0.61-17.75,0.61C108.95,113.84,107.21,113.82,105.48,113.79z"/>
<path class="st0" d="M162.81,289.26c-0.8-6.85-1.62-13.73-1.7-20.63c0.06-5.22,7.94-5.22,8,0c0.1,6.54,0.9,13.05,1.63,19.55
	c0.26,2.16-1.24,4.21-3.42,4.51C165.2,292.97,163.06,291.43,162.81,289.26z"/>
</svg>
