<?xml version="1.0" encoding="utf-8"?>
<!-- Generator: Adobe Adobe Illustrator 24.2.0, SVG Export Plug-In . SVG Version: 6.00 Build 0)  -->
<svg version="1.1" id="Capa_de_vector_1_" xmlns="http://www.w3.org/2000/svg" xmlns:xlink="http://www.w3.org/1999/xlink" x="0px"
	 y="0px" viewBox="0 0 300 300" style="enable-background:new 0 0 300 300;" xml:space="preserve">
<style type="text/css">
	.st0{fill:#C7CCAC;}
</style>
<path class="st0" d="M150.65,252.46c-2.47-0.03-4.45-2.11-4.45-4.55c0-0.03,0-0.05,0-0.07c0,0,0-0.01,0-0.01
	c0.02-11.78,0.04-23.55,0.07-35.32c0.03-16.32,0.06-32.64,0.09-48.96c0.03-16.96,0.06-33.91,0.09-50.86c0-2.72,0.01-5.45,0.01-8.17
	c0.01-2.45,2.12-4.47,4.55-4.45c2.47,0.03,4.45,2.11,4.45,4.55c-0.04,15.94-0.06,31.87-0.09,47.81
	c-0.03,16.78-0.06,33.56-0.09,50.34c-0.02,13.62-0.05,27.25-0.07,40.87c0,1.46,0,2.93-0.01,4.39c0,2.43-2.09,4.45-4.51,4.45
	C150.68,252.46,150.66,252.46,150.65,252.46z"/>
<path class="st0" d="M149.26,250.49c-0.32-2.52,1.48-4.61,3.89-5.04c0.21-0.03,0.42-0.07,0.63-0.11c1.87-0.38,3.71-0.88,5.52-1.47
	c1.98-0.68,3.92-1.49,5.81-2.39c2.22-1.11,4.38-2.35,6.46-3.72c2.36-1.59,4.61-3.33,6.77-5.18c2.42-2.14,4.72-4.41,6.88-6.8
	c2.63-2.96,5.06-6.08,7.32-9.33c2.61-3.81,4.96-7.79,7.09-11.88c2.53-4.95,4.72-10.07,6.58-15.27c1.94-5.54,3.53-11.19,4.77-16.93
	c1.23-5.91,2.1-11.89,2.58-17.91c0.41-5.73,0.49-11.47,0.18-17.21c-0.2-3.25-0.52-6.49-0.96-9.71c-0.34-2.43,1.48-4.73,3.89-5.04
	c2.46-0.31,4.7,1.46,5.04,3.89c2.06,14.68,1.51,29.74-1.22,44.29c-2.02,10.72-5.19,21.23-9.61,31.21
	c-4.43,10-10.11,19.54-17.21,27.88c-7.65,8.99-17.02,16.78-28.01,21.31c-3.65,1.51-7.45,2.61-11.35,3.29
	c-0.22,0.04-0.44,0.06-0.66,0.06C151.47,254.44,149.53,252.63,149.26,250.49z"/>
<path class="st0" d="M152.12,254.52c-6.66-0.21-13.22-1.63-19.36-4.24c-8.09-3.43-15.3-8.78-21.32-15.15
	c-8.61-9.13-15.01-20.11-19.75-31.69c-6.02-14.71-9.41-30.44-10.98-46.22c-1-10.04-1.23-20.14-0.8-30.22
	c0.05-1.19,0.4-2.28,1.23-3.16c0.83-0.88,2-1.39,3.21-1.41c2.35-0.03,4.67,1.99,4.56,4.44c-0.36,8.6-0.24,17.21,0.42,25.79
	c0.65,7.81,1.74,15.58,3.35,23.25c1.4,6.44,3.16,12.8,5.37,19.01c1.81,4.99,3.91,9.87,6.34,14.6c2.02,3.83,4.25,7.55,6.74,11.09
	c1.92,2.67,3.97,5.23,6.19,7.66c1.96,2.09,4.04,4.08,6.25,5.92c1.82,1.48,3.71,2.86,5.68,4.13c1.83,1.14,3.72,2.17,5.67,3.09
	c1.79,0.81,3.63,1.53,5.5,2.13c1.79,0.55,3.6,0.99,5.44,1.34c1.75,0.3,3.52,0.51,5.07,0.6c0.09,0.01,0.19,0.01,0.28,0.01l0.02,0
	c0.25,0.01,0.5,0.02,0.75,0.03c2.45,0.08,4.53,1.9,4.56,4.44c0.03,2.33-1.92,4.56-4.31,4.56
	C152.2,254.52,152.16,254.52,152.12,254.52z"/>
<path class="st0" d="M94.9,290.72c-2.61-2.98-0.57-6.05,2.07-8.07c2.15-2.32,4.03-4.86,5.92-7.4c2.83-4.11,4.89-8.72,6.95-13.24
	c1.47-3.33,1.71-6.98,2.64-10.46c1.11-4.2,0.46-8.54,0.53-12.78c0.86-4.74,7.7-4.9,8.81-0.22c0.26,2.72,0.43,5.47,0.32,8.21
	c-0.72,9.86-3.54,19.46-8.5,28.04c-1.73,3.52-4.1,6.66-6.5,9.75C104.23,287.87,99.74,295.21,94.9,290.72z"/>
<path class="st0" d="M199.41,289.78c-0.22-0.1-0.44-0.22-0.65-0.35c-1.29-0.75-2.43-1.76-3.48-2.82c-1.88-1.91-3.42-4.16-4.77-6.46
	c-2.69-4.59-4.78-9.52-6.44-14.57c-1.61-4.89-2.86-9.92-3.61-15.01c-0.61-4.17-0.99-8.45-0.62-12.66c0.21-2.44,2.37-4.33,4.83-4.14
	c2.43,0.19,4.36,2.39,4.14,4.84c-0.07,0.75-0.1,1.51-0.11,2.26c0,2.28,0.17,4.56,0.44,6.82c0.47,3.52,1.18,7,1.93,9.85
	c0.97,3.6,2.13,7.14,3.53,10.59c1,2.39,2.11,4.74,3.39,6.99c0.73,1.24,1.51,2.44,2.36,3.6c0.47,0.6,0.96,1.18,1.49,1.73
	c0.29,0.28,0.59,0.55,0.9,0.81c0.18,0.13,0.37,0.26,0.56,0.38c0.07,0.04,0.14,0.07,0.2,0.11c2.2,1.08,3.07,3.89,1.98,6.05
	c-0.81,1.58-2.38,2.43-4.02,2.43C200.77,290.23,200.07,290.08,199.41,289.78z"/>
<path class="st0" d="M129.13,129.8c-2.68-0.05-4.88-2.26-4.56-5c1.35-7.31,20.27-8.79,26.23-7.43c5.85,0.76,4.89,9.42-1,8.95
	c-1.17-0.09-2.32-0.38-3.5-0.48c-3.89,0.06-7.86,0.48-11.58,1.67C132.7,127.97,131.26,129.79,129.13,129.8z"/>
<path class="st0" d="M126.29,145.3c-4.14-6.49,5.32-8.95,10.04-9.69c4.79-0.6,12.42-2.76,16.23,0.99c2.45,2.9-0.25,7.88-4.05,7.24
	c-1.66-0.39-3.35-0.34-5.04-0.2c-3.49,0.38-6.98,0.95-10.32,2.07C131.17,147.46,127.98,147.53,126.29,145.3z"/>
<path class="st0" d="M104.44,162.36c-6.46-1.82-3.89-11.72,2.56-10.2C114.24,153.58,111.15,163.96,104.44,162.36z"/>
<path class="st0" d="M117.65,212.57c-2.65-1.99-1.92-5.44,0.06-7.63c3.5-6.18,9.26-11.09,15.15-14.79c5.47-2.43,9.17,5.63,3.74,8.19
	c-2.67,2.17-5.56,4.1-7.92,6.63C125.66,208.18,123.27,216.28,117.65,212.57z"/>
<path class="st0" d="M79.72,130.06c-0.73-0.91-1.07-2.1-0.95-3.26c0.13-1.24,0.76-2.25,1.68-3.07
	c12.38-10.93,27.78-17.82,43.82-21.32c16.92-3.68,34.66-3.14,51.53,0.52c13.34,2.89,26.27,8.02,38.01,14.98
	c1.54,0.91,3.06,1.87,4.56,2.84c2.06,1.34,2.32,4.43,0.92,6.3c-0.7,0.94-1.75,1.57-2.9,1.76c-1.24,0.2-2.36-0.16-3.21-0.71
	c-0.09-0.06-0.17-0.11-0.26-0.17c-0.06-0.04-0.12-0.08-0.18-0.12c-4.34-2.77-8.86-5.26-13.51-7.47c-4.89-2.27-9.92-4.23-15.05-5.88
	c-5.25-1.63-10.58-2.92-15.99-3.87c-5.38-0.89-10.8-1.43-15.66-1.61c-4.83-0.14-9.65-0.01-14.46,0.41
	c-4.46,0.45-8.88,1.14-13.26,2.1c-4.02,0.94-7.98,2.09-11.87,3.48c-3.59,1.34-7.09,2.87-10.51,4.6c-3.12,1.64-6.14,3.45-9.05,5.44
	c-2.54,1.79-5,3.7-7.33,5.76c-0.76,0.67-1.72,0.98-2.69,0.98C81.98,131.76,80.58,131.14,79.72,130.06z"/>
<path class="st0" d="M73.51,129.24c-2.53-0.27-4.14-2.51-3.99-4.96c0.77-12.79,7.33-24.45,16.39-33.25
	c11.37-11.04,26.5-17.82,41.86-21.11c14.43-3.09,29.37-3.17,43.86-0.46c13.9,2.6,27.6,8.11,38.82,16.82
	c4.52,3.51,8.67,7.56,12.12,12.14c3.37,4.46,6.02,9.38,7.86,14.67c1.09,3.12,1.79,6.38,2.15,9.67c0.01,0.05,0.01,0.1,0.02,0.15
	c0,0,0,0,0,0c0.11,1.22-0.1,2.38-0.86,3.39c-0.7,0.93-1.76,1.56-2.91,1.74c-2.35,0.36-4.86-1.33-5.13-3.77
	c-0.16-1.48-0.39-2.93-0.7-4.38c-0.37-1.58-0.82-3.13-1.35-4.66c-0.59-1.58-1.27-3.13-2.02-4.64c-0.89-1.71-1.89-3.37-2.97-4.97
	c-1.2-1.71-2.49-3.35-3.86-4.92c-1.7-1.88-3.51-3.64-5.42-5.3c-2.17-1.83-4.44-3.53-6.8-5.1c-2.88-1.86-5.87-3.52-8.96-5.01
	c-3.4-1.59-6.9-2.96-10.47-4.13c-4.23-1.34-8.55-2.39-12.92-3.17c-4.35-0.74-8.75-1.2-13.16-1.41c-4.4-0.16-8.8-0.06-13.18,0.3
	c-4.26,0.39-8.48,1.03-12.66,1.92c-3.87,0.87-7.67,1.95-11.4,3.27c-3.3,1.2-6.53,2.59-9.51,4.09c-0.07,0.04-0.15,0.08-0.22,0.11
	l-0.06,0.03c-2.73,1.42-5.37,2.99-7.92,4.72c-2.2,1.54-4.31,3.18-6.32,4.95c-1.79,1.63-3.49,3.35-5.08,5.17
	c-1.34,1.59-2.59,3.24-3.74,4.97c-1.06,1.66-2.03,3.36-2.9,5.13c-0.74,1.6-1.38,3.23-1.94,4.89c-0.49,1.59-0.89,3.2-1.2,4.84
	c-0.24,1.42-0.41,2.85-0.49,4.29c-0.14,2.29-2.31,4.01-4.51,4.01C73.81,129.26,73.66,129.26,73.51,129.24z"/>
<path class="st0" d="M77.94,175.19c-9.94-2.13-14.04-10.57-14.99-19.94c-2.52-8.45-5.75-18.99,0.56-26.55
	c2.76-3.37,7.02-4.73,11.2-5.18c4.43-1.44,10.46-0.06,8.78,5.74c-0.85,2.18-3.13,3.08-5.29,2.76c-1.8,0.26-2.74,0.48-4.4,0.76
	c-8.22,1.83-4.23,12.66-2.71,18.26c1.65,5.39,1.09,12.93,7.61,15.02c2.27-0.84,4.66-1.94,6.73,0.21
	C89.81,171.6,82.83,175.45,77.94,175.19z"/>
<path class="st0" d="M216.76,169.84c-0.35-2.35,1.35-4.85,3.79-5.12c1.95-0.32,3.69-1.31,5.16-2.61c3.65-3.18,3.7-8.19,3.78-12.64
	c0.21-2.78,1.83-5.17,2.32-7.89c0.52-2.75-0.53-5.46-0.35-8.23c-2.51-1.75-5.95-1.24-8.75-0.52c-1.2,0.82-2.78,1.05-4.21,0.48
	c-2.27-0.91-3.42-3.57-2.5-5.85c1.52-3.47,5.94-3.77,9.24-4.2c7.87-0.73,16.36,3.01,15.28,12.13c1.27,5.03-0.19,9.97-2.02,14.63
	c0.01,5.77-0.78,11.82-4.58,16.45C230.73,170.77,219.1,178.23,216.76,169.84z"/>
<path class="st0" d="M74.79,103.68c-1.02-6.56-0.83-13.27,0.59-19.76c1.89-8.62,5.83-16.77,11.18-23.77
	c9.66-12.65,23.41-21.58,38.42-26.61c7.96-2.67,16.38-4.12,24.77-4.44c7.83-0.3,15.76,0.44,23.37,2.33
	c8.21,2.04,16.06,5.29,23.16,9.9c7.02,4.56,13.11,10.48,17.77,17.44c6.12,9.13,9.18,20.05,8.86,31.01
	c-0.04,1.36-0.14,2.72-0.29,4.07c-0.27,2.44-2.35,4.33-4.85,4.12c-2.39-0.2-4.4-2.41-4.12-4.85c0.17-1.49,0.26-2.99,0.3-4.48
	c0.01-1.87-0.08-3.73-0.28-5.59c-0.23-1.87-0.57-3.72-1.01-5.56c-0.48-1.82-1.05-3.61-1.72-5.37c-0.69-1.72-1.48-3.39-2.35-5.02
	c-0.98-1.76-2.06-3.47-3.23-5.11c-1.26-1.7-2.61-3.32-4.05-4.87c-1.59-1.65-3.26-3.21-5.02-4.68c-2.05-1.64-4.19-3.16-6.42-4.55
	c-2.41-1.44-4.89-2.74-7.45-3.89c-2.77-1.19-5.61-2.21-8.51-3.08c-3.04-0.85-6.11-1.52-9.23-2.02c-3.5-0.51-7.02-0.8-10.56-0.87
	c-3.49-0.02-6.97,0.16-10.44,0.54c-3.39,0.42-6.75,1.03-10.08,1.83c-3.3,0.85-6.54,1.88-9.72,3.09c-3.09,1.23-6.09,2.63-9.02,4.21
	c-2.63,1.47-5.17,3.08-7.63,4.82c-2.36,1.74-4.62,3.59-6.76,5.59c-1.9,1.82-3.7,3.74-5.38,5.76c-1.67,2.07-3.22,4.24-4.63,6.5
	c-1.19,1.99-2.27,4.04-3.23,6.16c-0.85,1.97-1.59,3.98-2.22,6.03c-0.58,2.06-1.05,4.15-1.39,6.28c-0.28,1.98-0.44,3.98-0.48,5.98
	c-0.01,1.91,0.09,3.82,0.3,5.72c0.06,0.51,0.14,1.02,0.22,1.53c0.38,2.42-1.17,4.79-3.62,5.23c-0.26,0.05-0.52,0.07-0.77,0.07
	C77.14,107.37,75.12,105.84,74.79,103.68z"/>
<path class="st0" d="M111.79,40.23c-0.36-5.48,0.98-10.91,3.55-15.74c3.55-6.69,9.69-11.81,16.5-14.93
	c13.81-6.33,31.18-4.65,43.3,4.61c4.37,3.34,7.95,7.62,10.31,12.59c1.59,3.36,2.48,6.98,2.76,10.67c0.18,2.45-2.06,4.54-4.41,4.59
	c-1.2,0.03-2.4-0.45-3.25-1.3c-0.86-0.85-1.25-1.93-1.34-3.11c0-0.04-0.01-0.08-0.01-0.12c-0.09-0.86-0.22-1.71-0.4-2.55
	c-0.2-0.85-0.44-1.69-0.73-2.51c-0.32-0.85-0.68-1.69-1.08-2.51c-0.47-0.89-0.99-1.75-1.54-2.6c-0.58-0.82-1.2-1.61-1.85-2.37
	c-0.8-0.89-1.66-1.72-2.55-2.52c-0.99-0.83-2.02-1.61-3.09-2.33c-1.17-0.74-2.38-1.42-3.62-2.03c-1.35-0.62-2.73-1.16-4.13-1.63
	c-1.47-0.45-2.95-0.82-4.46-1.1c-1.51-0.25-3.03-0.42-4.56-0.51c-1.55-0.05-3.11-0.02-4.66,0.09c-1.46,0.14-2.91,0.36-4.35,0.65
	c-1.38,0.32-2.74,0.7-4.08,1.16c-1.23,0.46-2.43,0.97-3.61,1.54c-1.11,0.58-2.19,1.22-3.25,1.9c-0.95,0.67-1.87,1.38-2.76,2.13
	c-0.85,0.77-1.65,1.57-2.41,2.43c-0.66,0.79-1.29,1.61-1.87,2.47c-0.54,0.86-1.04,1.74-1.49,2.64c-0.37,0.82-0.71,1.66-1,2.52
	c-0.27,0.89-0.49,1.78-0.67,2.69c-0.13,0.84-0.23,1.67-0.28,2.52c-0.02,0.83-0.01,1.65,0.04,2.48c0.16,2.45-2.04,4.54-4.41,4.59
	c-0.03,0-0.07,0-0.1,0C113.79,44.63,111.94,42.63,111.79,40.23z"/>
</svg>
