<?xml version="1.0" encoding="utf-8"?>
<!-- Generator: Adobe Adobe Illustrator 24.2.0, SVG Export Plug-In . SVG Version: 6.00 Build 0)  -->
<svg version="1.1" id="Capa_de_vector_1_" xmlns="http://www.w3.org/2000/svg" xmlns:xlink="http://www.w3.org/1999/xlink" x="0px"
	 y="0px" viewBox="0 0 300 300" style="enable-background:new 0 0 300 300;" xml:space="preserve">
<style type="text/css">
	.st0{fill:#C7CCAC;}
</style>
<path class="st0" d="M146.56,167.08c-1.95-0.29-3.91-0.89-5.64-1.86c-3.2-1.78-5.59-4.51-6.88-7.94c-1.45-3.86-1.31-8.23-0.37-12.19
	c0.9-3.79,2.48-7.33,4.42-10.69c2.52-4.36,5.75-8.31,9.33-11.84c1.75-1.72,4.77-1.43,6.36,0.34c0.79,0.88,1.21,2.06,1.15,3.25
	c-0.07,1.23-0.63,2.26-1.49,3.11c-0.14,0.14-0.29,0.29-0.43,0.43c-1.54,1.59-2.99,3.27-4.34,5.02c-1.08,1.45-2.08,2.95-2.99,4.51
	c-0.74,1.32-1.42,2.68-2.01,4.07c-0.43,1.09-0.82,2.21-1.13,3.35c-0.2,0.82-0.36,1.65-0.48,2.48c-0.07,0.65-0.1,1.3-0.11,1.95
	c0.02,0.48,0.05,0.96,0.11,1.43c0.07,0.4,0.15,0.8,0.26,1.2c0.09,0.27,0.18,0.53,0.28,0.79c0.12,0.26,0.25,0.52,0.4,0.77
	c0.13,0.2,0.27,0.4,0.41,0.59c0.14,0.16,0.28,0.32,0.43,0.47c0.17,0.16,0.34,0.31,0.52,0.45c0.21,0.15,0.43,0.29,0.65,0.43
	c0.28,0.15,0.57,0.29,0.86,0.42c0.35,0.13,0.7,0.25,1.06,0.35c0.43,0.1,0.86,0.19,1.3,0.25c2.43,0.36,4.02,2.93,3.57,5.27
	c-0.42,2.23-2.38,3.63-4.53,3.63C147.06,167.13,146.81,167.11,146.56,167.08z"/>
<path class="st0" d="M145.01,163.79c-0.37-2.37,1.32-4.84,3.75-5.14c0.6-0.07,1.2-0.17,1.79-0.3c0.58-0.14,1.15-0.31,1.71-0.5
	c0.48-0.19,0.95-0.39,1.41-0.62c0.36-0.2,0.71-0.41,1.05-0.64c0.28-0.21,0.56-0.43,0.83-0.66c0.25-0.24,0.48-0.48,0.71-0.74
	c0.2-0.24,0.38-0.49,0.56-0.75c0.17-0.28,0.33-0.57,0.49-0.86c0.15-0.33,0.28-0.67,0.4-1.01c0.12-0.4,0.22-0.81,0.31-1.22
	c0.08-0.47,0.13-0.95,0.17-1.43c0.02-0.64,0.01-1.27-0.04-1.91c-0.08-0.73-0.19-1.46-0.34-2.17c-0.23-0.98-0.52-1.94-0.86-2.89
	c-0.45-1.17-0.97-2.31-1.55-3.43c-0.73-1.34-1.53-2.64-2.4-3.9c-1.12-1.57-2.34-3.06-3.63-4.49c-0.35-0.37-0.7-0.74-1.05-1.1
	c-1.7-1.76-1.87-4.55-0.12-6.36c1.66-1.72,4.65-1.88,6.36-0.12c4.7,4.82,8.63,10.36,10.96,16.7c1.3,3.55,1.91,7.38,1.57,11.15
	c-0.41,4.5-2.54,8.61-5.93,11.57c-3,2.63-6.98,4.06-10.9,4.56c-0.03,0-0.06,0.01-0.1,0.01c0,0,0,0-0.01,0
	c-0.19,0.02-0.38,0.03-0.57,0.03C147.36,167.57,145.37,166.09,145.01,163.79z"/>
<path class="st0" d="M195.44,182.46c-0.55-0.02-1.09-0.03-1.64-0.09c-1.09-0.11-2.18-0.37-3.23-0.7c-1.07-0.35-2.12-0.7-3.11-1.24
	c-0.87-0.47-1.7-1.07-2.48-1.68c-1.2-0.93-2.13-2.1-2.69-3.52c-0.41-1.06-0.75-2.17-0.99-3.28c-0.44-2.05-0.62-4.16-0.48-6.25
	c0.22-3.45,1.18-6.83,2.36-10.07c0.63-1.73,1.33-3.43,2.17-5.07c0.82-1.6,1.9-3.06,2.91-4.55c0.3-0.44,0.6-0.89,0.9-1.33
	c1.12-1.68,2.16-3.41,3.28-5.09c0.41-0.61,0.83-1.28,1.45-1.7c1.36-0.92,2.96-1.24,4.52-0.58c1.73,0.73,2.77,2.45,2.77,4.3
	c0,1.3-0.57,2.48-1.48,3.31c-0.5,0.79-0.98,1.58-1.49,2.36c-0.78,1.16-1.55,2.34-2.01,3.02c-0.59,0.87-1.18,1.74-1.77,2.61
	c-0.45,0.67-0.87,1.36-1.25,2.07c-0.73,1.51-1.33,3.08-1.89,4.66c-0.46,1.36-0.84,2.75-1.15,4.16c-0.14,0.73-0.27,1.46-0.33,2.21
	c-0.03,0.66-0.03,1.33,0,1.99c0.05,0.57,0.12,1.14,0.22,1.71c0.15,0.65,0.32,1.28,0.53,1.91c0.01,0.02,0.02,0.05,0.03,0.07
	c0.26,0.2,0.53,0.38,0.8,0.57c0.18,0.12,0.36,0.24,0.55,0.35c0.14,0.06,0.28,0.12,0.43,0.17c0.64,0.22,1.29,0.42,1.94,0.57
	c0.26,0.04,0.53,0.08,0.79,0.1c0.21,0.01,0.41,0.01,0.62,0.02c0.96,0.01,1.79,0.22,2.65,0.66c2.18,1.12,2.8,4.13,1.61,6.16
	c-0.59,1-1.57,1.76-2.69,2.07c-0.38,0.11-0.76,0.15-1.14,0.15C195.91,182.52,195.67,182.5,195.44,182.46z"/>
<path class="st0" d="M193.55,179.18c-0.65-2.35,0.77-4.89,3.14-5.54c0.35-0.1,0.69-0.2,1.03-0.31c0.49-0.18,0.97-0.38,1.43-0.6
	c0.39-0.21,0.77-0.43,1.14-0.67c0.3-0.21,0.59-0.44,0.87-0.67c0.25-0.24,0.5-0.48,0.73-0.73c0.2-0.24,0.39-0.48,0.57-0.73
	c0.18-0.27,0.34-0.55,0.49-0.84c0.15-0.31,0.28-0.63,0.4-0.95c0.12-0.38,0.23-0.77,0.31-1.16c0.08-0.45,0.14-0.91,0.18-1.37
	c0.02-0.56,0.02-1.12-0.01-1.67c-0.06-0.67-0.15-1.33-0.27-1.99c-0.19-0.89-0.44-1.76-0.72-2.62c-0.39-1.09-0.85-2.16-1.36-3.21
	c-0.66-1.27-1.38-2.5-2.17-3.7c-1.08-1.57-2.25-3.07-3.5-4.5c-0.42-0.46-0.84-0.92-1.27-1.37c-1.71-1.76-1.76-4.61,0-6.36
	c1.71-1.71,4.66-1.77,6.36,0c5,5.16,9.32,11.44,11.15,18.47c1.13,4.37,1.19,9.05-0.5,13.28c-1.38,3.44-3.97,6.27-7.12,8.17
	c-1.64,0.99-3.46,1.72-5.32,2.22c-0.39,0.1-0.78,0.15-1.16,0.15C195.95,182.47,194.1,181.16,193.55,179.18z"/>
<path class="st0" d="M193.45,145.87c0.03,0.1,0.07,0.19,0.1,0.29c-2.08-5.84,6.78-8.84,8.63-2.89
	C203.62,149.01,195.32,151.66,193.45,145.87z"/>
<path class="st0" d="M194.61,147.98c-3.84-3.64,0.7-11.2,5.65-8.3C205.76,143.27,200.19,152.87,194.61,147.98z"/>
<path class="st0" d="M166.93,222.73c-0.04-2.5,1.97-4.47,4.42-4.58c0.16,0,0.32-0.01,0.49-0.03c0.49-0.05,0.98-0.12,1.47-0.22
	c0.42-0.1,0.84-0.22,1.25-0.36c0.33-0.13,0.66-0.28,0.98-0.43c0.27-0.15,0.53-0.31,0.79-0.48c0.25-0.18,0.49-0.38,0.72-0.58
	c0.19-0.18,0.37-0.38,0.55-0.57c0.19-0.23,0.37-0.47,0.54-0.72c0.18-0.3,0.35-0.6,0.51-0.91c0.15-0.34,0.29-0.7,0.42-1.05
	c0.13-0.44,0.25-0.89,0.34-1.34c0.09-0.56,0.16-1.13,0.2-1.69c0.03-0.74,0.01-1.48-0.04-2.21c-0.09-0.94-0.24-1.86-0.43-2.78
	c-0.26-1.1-0.58-2.18-0.95-3.25c-0.51-1.38-1.11-2.72-1.78-4.02c-0.8-1.51-1.7-2.96-2.67-4.37c-1.08-1.52-2.25-2.97-3.33-4.16
	c-0.81-0.89-1.34-1.91-1.36-3.14c-0.02-1.18,0.44-2.35,1.26-3.2c1.63-1.68,4.7-1.91,6.36-0.11c0.02,0.02,0.04,0.04,0.05,0.05
	c0.01,0.01,0.03,0.03,0.04,0.04c4.86,5.3,8.85,11.63,10.76,18.62c1.09,4.01,1.42,8.16,0.64,12.25c-0.75,4.01-3,7.84-6.32,10.26
	c-3.01,2.2-6.59,3.25-10.29,3.42c-0.02,0-0.04,0-0.06,0c0,0,0,0-0.01,0c-0.05,0-0.1,0-0.15,0
	C168.97,227.16,166.97,225.1,166.93,222.73z"/>
<path class="st0" d="M169.85,226.86c-1.89-0.09-3.81-0.46-5.51-1.33c-3.01-1.54-5.29-4.11-6.42-7.31
	c-2.01-5.66-1.03-12.01,0.9-17.55c2.21-6.36,5.71-12.26,10.03-17.42c0,0,0.01-0.01,0.01-0.02c1.57-1.88,4.36-2.29,6.32-0.73
	c1.88,1.5,2.3,4.45,0.73,6.32c-1.06,1.26-2.06,2.57-3,3.91c-1.19,1.76-2.29,3.57-3.27,5.45c-0.81,1.6-1.54,3.24-2.16,4.93
	c-0.47,1.34-0.87,2.7-1.18,4.08c-0.2,0.98-0.35,1.96-0.44,2.96c-0.04,0.7-0.06,1.39-0.04,2.09c0.04,0.53,0.1,1.06,0.19,1.59
	c0.08,0.37,0.17,0.73,0.28,1.09c0.09,0.25,0.19,0.5,0.3,0.75c0.1,0.18,0.2,0.36,0.3,0.54c0.1,0.13,0.19,0.27,0.3,0.4
	c0.1,0.11,0.2,0.21,0.31,0.32c0.1,0.09,0.21,0.17,0.32,0.25c0.12,0.08,0.25,0.15,0.37,0.22c0.14,0.07,0.29,0.13,0.43,0.19
	c0.19,0.06,0.39,0.12,0.59,0.17c0.24,0.04,0.47,0.08,0.71,0.1c0.01,0,0.02,0,0.03,0c2.45,0.12,4.47,2.04,4.44,4.56
	c-0.03,2.32-2,4.45-4.37,4.45C169.97,226.86,169.91,226.86,169.85,226.86z"/>
<path class="st0" d="M120.54,225.34c-2.14-0.68-4.1-1.82-5.67-3.42c-1.71-1.74-2.86-3.98-3.44-6.33c-0.98-3.96-0.46-8.17,0.62-12.05
	c1.07-3.81,2.77-7.44,4.73-10.87c1.87-3.26,4.05-6.36,6.42-9.27c1.55-1.9,4.38-2.27,6.32-0.73c1.9,1.5,2.29,4.42,0.74,6.32
	c-1.08,1.32-2.11,2.69-3.09,4.09c-1.31,1.9-2.52,3.87-3.6,5.91c-0.83,1.62-1.58,3.27-2.21,4.98c-0.41,1.17-0.76,2.36-1.04,3.57
	c-0.16,0.8-0.29,1.6-0.37,2.41c-0.04,0.62-0.05,1.25-0.03,1.88c0.03,0.41,0.08,0.82,0.15,1.22c0.07,0.3,0.15,0.6,0.23,0.9
	c0.08,0.22,0.17,0.44,0.27,0.66c0.09,0.17,0.18,0.34,0.28,0.5c0.1,0.13,0.19,0.26,0.3,0.39c0.11,0.11,0.21,0.23,0.32,0.33
	c0.12,0.1,0.25,0.2,0.37,0.3c0.17,0.11,0.34,0.21,0.52,0.31c0.19,0.09,0.37,0.17,0.57,0.25c0.29,0.09,0.58,0.18,0.87,0.25
	c0.4,0.08,0.8,0.13,1.21,0.17c0.48,0.03,0.96,0.03,1.43,0.02c2.45-0.07,4.48,2.18,4.45,4.55c-0.03,2.53-2.1,4.38-4.55,4.45
	c-0.19,0.01-0.37,0.01-0.56,0.01C124.02,226.1,122.22,225.87,120.54,225.34z"/>
<path class="st0" d="M126.11,225.2c-0.93-0.72-1.55-1.79-1.7-2.96c-0.31-2.32,1.41-4.88,3.86-5.06c0.31-0.02,0.61-0.06,0.92-0.11
	c0.24-0.06,0.47-0.12,0.7-0.19c0.18-0.07,0.36-0.14,0.53-0.22c0.18-0.1,0.36-0.2,0.54-0.31c0.16-0.11,0.31-0.23,0.46-0.36
	c0.17-0.16,0.33-0.32,0.48-0.48c0.16-0.19,0.31-0.39,0.45-0.59c0.16-0.25,0.31-0.51,0.45-0.77c0.16-0.34,0.3-0.68,0.44-1.03
	c0.15-0.46,0.28-0.93,0.39-1.4c0.11-0.6,0.19-1.2,0.24-1.81c0.04-0.79,0.04-1.58,0-2.36c-0.08-0.96-0.21-1.92-0.39-2.86
	c-0.24-1.11-0.54-2.21-0.9-3.3c-0.44-1.24-0.95-2.45-1.53-3.62c-0.59-1.15-1.25-2.27-1.97-3.34c-0.69-0.99-1.43-1.95-2.22-2.86
	c-0.54-0.59-1.1-1.16-1.67-1.72c-1.77-1.7-1.7-4.66,0.01-6.36c1.77-1.76,4.59-1.68,6.36,0.01c4.97,4.75,8.62,11,10.33,17.66
	c1.16,4.5,1.45,9.36,0.17,13.86c-1.25,4.43-4.26,8.41-8.61,10.13c-1.26,0.5-2.61,0.85-3.96,0.95c-0.01,0-0.01,0-0.02,0
	c-0.16,0.01-0.33,0.02-0.49,0.02C127.94,226.12,126.97,225.87,126.11,225.2z"/>
<path class="st0" d="M103.43,182.66C103.43,182.66,103.43,182.66,103.43,182.66c-0.05,0-0.08,0-0.12-0.01
	c-2.22-0.1-4.37-0.5-6.44-1.33c-3.92-1.59-6.98-4.8-8.58-8.69c-3.09-7.56-0.83-16.27,2.93-23.16c2.25-4.13,5.24-7.91,8.7-11.1
	c1.8-1.66,4.58-1.78,6.36,0c1.68,1.68,1.8,4.7,0,6.36c0,0,0,0,0,0c-0.99,0.92-1.93,1.89-2.83,2.89c-0.95,1.11-1.85,2.27-2.69,3.47
	c-0.8,1.2-1.53,2.44-2.19,3.72c-0.56,1.14-1.06,2.3-1.48,3.49c-0.33,0.98-0.61,1.98-0.83,2.99c-0.16,0.84-0.28,1.68-0.35,2.52
	c-0.04,0.69-0.04,1.38,0,2.07c0.05,0.52,0.11,1.05,0.21,1.57c0.1,0.44,0.22,0.87,0.35,1.3c0.13,0.34,0.27,0.67,0.42,1
	c0.15,0.28,0.31,0.55,0.47,0.82c0.16,0.23,0.33,0.45,0.51,0.67c0.19,0.21,0.39,0.41,0.6,0.6c0.2,0.16,0.4,0.32,0.6,0.46
	c0.26,0.16,0.52,0.32,0.79,0.46c0.29,0.13,0.58,0.26,0.87,0.37c0.37,0.12,0.74,0.22,1.11,0.31c0.46,0.08,0.92,0.14,1.38,0.18
	c0.08,0,0.15,0.01,0.22,0.01c2.45,0.1,4.5,1.98,4.5,4.5c0,2.34-1.97,4.5-4.36,4.5C103.53,182.66,103.48,182.66,103.43,182.66z"/>
<path class="st0" d="M101.55,178.58c-0.45-2.45,1.2-4.75,3.61-5.25c0.13-0.03,0.26-0.05,0.39-0.08c0.38-0.11,0.76-0.23,1.13-0.37
	c0.31-0.13,0.61-0.27,0.91-0.43c0.25-0.15,0.49-0.31,0.73-0.47c0.22-0.17,0.43-0.35,0.63-0.53c0.18-0.19,0.36-0.38,0.53-0.58
	c0.15-0.2,0.29-0.4,0.43-0.61c0.15-0.26,0.29-0.53,0.42-0.8c0.13-0.33,0.26-0.66,0.37-0.99c0.11-0.4,0.2-0.81,0.27-1.22
	c0.07-0.51,0.11-1.02,0.14-1.54c0-0.67-0.03-1.34-0.09-2.01c-0.12-0.92-0.29-1.82-0.51-2.72c-0.29-1.08-0.65-2.14-1.05-3.18
	c-0.54-1.31-1.16-2.58-1.84-3.82c-0.87-1.52-1.84-2.99-2.87-4.4c-1.17-1.54-2.43-3.01-3.77-4.41c-0.01-0.01-0.02-0.02-0.04-0.04
	c-0.85-0.87-1.41-1.88-1.46-3.12c-0.05-1.19,0.37-2.36,1.17-3.24c1.59-1.74,4.63-2.04,6.36-0.3c0.01,0.01,0.02,0.02,0.03,0.03
	c0,0,0,0,0,0c0.01,0.01,0.02,0.02,0.03,0.03c5.7,5.79,10.36,12.86,12.3,20.82c0.9,3.68,1.09,7.73,0.03,11.4
	c-0.55,1.88-1.35,3.67-2.52,5.26c-1.45,1.96-3.34,3.5-5.5,4.62c-1.36,0.71-2.85,1.19-4.34,1.51c-0.05,0.01-0.09,0.02-0.14,0.03
	c-0.03,0-0.06,0.01-0.09,0.02c-0.28,0.06-0.56,0.08-0.83,0.08C103.86,182.27,101.94,180.69,101.55,178.58z"/>
<path class="st0" d="M239.15,151.1c-2.36-0.57-3.91-3.07-3.3-5.44c1.94-7.6,5.84-14.61,11.01-20.49
	c4.95-5.62,11.48-10.39,18.81-12.26c3.93-1,8.14-1.21,12.05-0.04c2.72,0.82,5.18,2.18,7.29,4.08c0.2,0.18,0.39,0.37,0.58,0.55
	c1.76,1.71,1.89,4.56,0.19,6.36c-1.66,1.77-4.6,1.89-6.36,0.19c-0.28-0.27-0.56-0.54-0.85-0.79c-0.3-0.23-0.6-0.45-0.91-0.66
	c-0.34-0.21-0.7-0.4-1.06-0.58c-0.38-0.17-0.77-0.32-1.16-0.45c-0.47-0.14-0.94-0.25-1.43-0.34c-0.5-0.07-1-0.13-1.51-0.15
	c-0.64-0.01-1.28,0.01-1.92,0.06c-0.74,0.08-1.47,0.21-2.2,0.37c-0.9,0.22-1.78,0.5-2.65,0.82c-1.01,0.4-2,0.86-2.97,1.37
	c-1.1,0.62-2.17,1.29-3.21,2.02c-1.22,0.89-2.38,1.86-3.5,2.88c-1.23,1.18-2.39,2.42-3.49,3.72c-1.11,1.37-2.14,2.79-3.09,4.27
	c-0.93,1.49-1.77,3.03-2.53,4.62c-0.69,1.52-1.3,3.08-1.83,4.67c-0.2,0.64-0.38,1.28-0.55,1.93c-0.52,2.03-2.37,3.43-4.39,3.43
	C239.85,151.22,239.5,151.18,239.15,151.1z"/>
<path class="st0" d="M224.21,255.19c-0.57-7.95-0.45-15.92-0.28-23.88c-0.08-11.06,1.19-22.57,6.62-32.4
	c3.47-6.4,10.34-9.6,16.05-13.66c5.45-4.07,12.09-8.4,13.14-15.66c1.91-17.76,9.65-27.2,18.46-41.89c1.77-1.79,0.95-4.33,2.03-6.4
	c0.97-1.71,3.19-2.64,5.06-2.06c4.12,1.15,3.58,5.08,2.86,8.44c-1.58,4.82-5.11,8.81-7.43,13.3c-3.83,5.75-7.48,11.67-9.69,18.25
	c-2.02,5.98-1.73,12.59-4.38,18.38c-5.06,9.53-14.98,14.85-23.55,20.79c-7.69,5.36-8.84,15.89-9.96,24.51
	c-0.29,10.43-0.68,21.35,0.01,31.5C233.3,259.97,225.03,260.79,224.21,255.19z"/>
<path class="st0" d="M132.42,196.35c0.6-11.59,3.94-22.34,8.08-33.01c0.98-3.74,6.33-4.47,8.23-1.07c1.94,3.91-1.55,7.92-2.64,11.61
	c-0.95,3.37-2.02,6.71-2.84,10.12c-0.85,4.08-1.51,8.21-1.83,12.36C141.28,202.25,132.56,202.27,132.42,196.35z"/>
<path class="st0" d="M158.91,197.65c-0.01-7.86-1.88-16.66-4.36-23.82c-0.81-3.09-2.27-4.97-3.44-7.75
	c-0.81-2.82,1.42-5.82,4.38-5.79c4.13-0.17,5.88,6.36,7.16,9.47c3.16,8.94,5.21,18.38,5.27,27.88
	C167.77,203.54,159.05,203.56,158.91,197.65z"/>
<path class="st0" d="M131.84,256.46c-0.88-8.94-0.76-17.99,0-26.94c0.27-4.43,0.29-8.86,0.37-13.3c0.05-2.45,2.02-4.5,4.5-4.5
	c2.42,0,4.55,2.05,4.5,4.5c0.11,12.58-1.84,25.36-0.54,37.89C142.24,260.64,133.22,262.99,131.84,256.46z"/>
<path class="st0" d="M158.03,256.17c-0.21-6.64,0.48-13.27,0.29-19.91c-0.17-3.88-0.28-7.77-0.34-11.65
	c0.14-2.84-0.99-5.94,0.33-8.59c2.2-3.92,8.45-2.23,8.39,2.27c-0.1,1.57,0.15,3.15,0.21,4.71c0.57,11.07,0.24,22.11,0.12,33.18
	C166.89,262.06,158.17,262.08,158.03,256.17z"/>
<path class="st0" d="M203.36,154.48c-6.84-13.84,29.78-12.49,36.98-11.16c5.42,1.56,3.59,9.66-1.99,8.76
	c-9.1-0.75-18.76-1.43-27.5,1.83C209.46,156.65,205.15,157.06,203.36,154.48z"/>
<path class="st0" d="M57.11,149.71c0,0,0-0.01-0.01-0.01c0-0.01-0.01-0.02-0.01-0.02c0-0.01-0.01-0.02-0.01-0.03
	c-0.57-1.35-1.17-2.68-1.74-3.91c-0.02-0.05-0.05-0.1-0.07-0.14l-0.05-0.11c-1.6-3.33-3.37-6.58-5.35-9.71
	c-1.43-2.2-2.96-4.33-4.64-6.35c-1.16-1.36-2.38-2.66-3.68-3.87c-0.94-0.84-1.91-1.64-2.92-2.38c-0.76-0.53-1.55-1.02-2.36-1.46
	c-0.67-0.34-1.35-0.65-2.06-0.92c-0.52-0.18-1.04-0.34-1.57-0.47c-0.47-0.1-0.95-0.18-1.43-0.23c-0.42-0.03-0.85-0.04-1.27-0.03
	c-0.39,0.03-0.77,0.07-1.16,0.13c-0.38,0.08-0.75,0.17-1.13,0.28c-0.4,0.14-0.8,0.3-1.19,0.47c-0.38,0.19-0.75,0.4-1.12,0.62
	c-0.44,0.3-0.87,0.61-1.28,0.95c-0.49,0.43-0.97,0.88-1.42,1.36c-0.59,0.66-1.14,1.35-1.66,2.07c-0.25,0.37-0.49,0.73-0.73,1.11
	c-0.01,0.02-0.02,0.04-0.04,0.06c0,0.01-0.01,0.01-0.01,0.02c-0.02,0.03-0.03,0.05-0.05,0.08c-1.29,2.08-4.09,2.78-6.19,1.49
	c-2.09-1.28-2.77-4.1-1.48-6.19c0.02-0.04,0.04-0.07,0.06-0.1c0.01-0.02,0.03-0.05,0.04-0.07c1.86-2.97,4.18-5.71,7.04-7.76
	c3.36-2.4,7.46-3.73,11.61-3.51c7.18,0.38,13.39,4.69,18.27,9.67c5.79,5.91,10.16,13.18,13.71,20.6c0.77,1.61,1.51,3.24,2.21,4.89
	c0.02,0.03,0.03,0.07,0.05,0.1c0,0.01,0.01,0.03,0.02,0.04c0.96,2.26-0.28,4.95-2.52,5.84c-0.54,0.22-1.09,0.32-1.63,0.32
	C59.53,152.54,57.84,151.44,57.11,149.71z"/>
<path class="st0" d="M68.65,258.66c0.09-8.73,0.18-17.45-0.11-26.18c-0.05-8.71-0.22-18.09-4.88-25.75
	c-1.85-3.2-4.61-5.53-7.58-7.65c-4.67-3.46-9.01-7.32-13.68-10.78c-13.14-9.58-8.61-23.83-15.63-36.57
	c-3.49-7.16-17.09-19.64-13.9-27.68c2.16-3.96,8.72-2.48,8.64,2.16c0.05,2.11,1.48,4.06,2.54,5.84
	c8.76,12.04,14.12,18.5,16.42,33.79c0.73,5.78,2.14,11.38,7.07,15.02c4.63,3.53,9.05,7.3,13.69,10.81c2.84,2.2,5.82,4.28,7.91,7.26
	c10.36,13.01,8.02,30.67,8.61,46.24c0,4.49-0.08,8.98-0.1,13.48C77.5,264.51,68.8,264.61,68.65,258.66z"/>
<path class="st0" d="M90.15,153.36c-7.14-1.91-14.69,0.07-22.01-0.38c-2.45,0.27-5.08,1.13-7.49,0.23c-3.15-1.28-3.64-5.65-1-7.71
	c1.02-0.79,2.31-1.06,2.77-0.93c2.36,0.02,4.66-0.75,7.04-0.65c8.44,0.59,17.69-2.26,25.54,1.83
	C100.51,149.06,95.42,157.06,90.15,153.36z"/>
<path class="st0" d="M57.52,144.21c0-0.02,0-0.04,0-0.06c0-0.05,0-0.11,0-0.16c-0.01-1.93-0.03-3.86-0.04-5.79c0-0.09,0-0.18,0-0.26
	v0c-0.07-10.02-0.13-20.03-0.2-30.05c-0.09-13.17-0.17-26.34-0.26-39.52c-0.02-2.45,2.06-4.5,4.5-4.5c2.46,0,4.49,2.04,4.5,4.5
	c0.07,14.8,0.2,29.6,0.29,44.4c0.06,8.48,0.11,16.96,0.17,25.44c0,0.09,0,0.18,0,0.27c0,0.02,0,0.03,0,0.05
	c0.01,1.9,0.03,3.79,0.04,5.68c0.01,2.45-2.06,4.5-4.5,4.5C59.56,148.71,57.54,146.66,57.52,144.21z"/>
<path class="st0" d="M78.82,123.73c0-0.09,0-0.17,0-0.25c0-0.03,0-0.06,0-0.09c0.03-7.09,0.06-14.18,0.09-21.27
	c0.06-13.88,0.12-27.77,0.18-41.64c0.01-3,0.03-6.01,0.04-9.01c0.01-2.45,2.03-4.5,4.49-4.51c2.44,0,4.52,2.04,4.51,4.49
	c0,0.12,0,0.24,0,0.36c0,0.04,0,0.08,0,0.11c-0.05,12.62-0.11,25.23-0.16,37.85c-0.04,9.21-0.08,18.43-0.12,27.64
	c-0.01,2.1-0.02,4.2-0.03,6.3c-0.01,2.45-2.03,4.5-4.49,4.51C80.89,128.22,78.81,126.18,78.82,123.73z"/>
<path class="st0" d="M101.43,125.04L101.43,125.04c0-0.01,0-0.01,0-0.01c0.12-6.03,0.23-12.06,0.34-18.09
	c0.28-14.53,0.55-29.05,0.83-43.58c0.05-2.34,0.08-4.67,0.13-7c0-0.06,0-0.13,0-0.19c0.05-2.45,2-4.51,4.49-4.51
	c2.41-0.01,4.56,2.04,4.51,4.49c0,0.06,0,0.13,0,0.19c0,0.06,0,0.13,0,0.19c-0.29,14.1-0.53,28.19-0.8,42.29
	c-0.16,8.25-0.32,16.49-0.47,24.73c-0.01,0.49-0.02,0.98-0.03,1.47c-0.05,2.45-2,4.5-4.49,4.51c0,0-0.01,0-0.01,0
	C103.52,129.53,101.39,127.49,101.43,125.04z"/>
<path class="st0" d="M128.52,134.68c-2.43-0.01-4.52-2.06-4.49-4.51c0.05-4.32,0.1-8.64,0.16-12.96c0.17-13.94,0.34-27.88,0.5-41.82
	c0.03-2.43,0.09-4.87,0.09-7.3c0-2.45,2.06-4.5,4.51-4.49c2.46,0.01,4.49,2.06,4.49,4.51c0,5.15-0.12,10.3-0.19,15.46
	c-0.09,7.82-0.19,15.63-0.28,23.45c-0.09,7.29-0.18,14.57-0.27,21.85c0,0.44-0.01,0.88-0.02,1.32
	C133,132.63,131,134.68,128.52,134.68C128.52,134.68,128.52,134.68,128.52,134.68z"/>
<path class="st0" d="M145.93,122.69c0.1-8.56,0.2-17.12,0.29-25.68c0.06-5.59,0.11-11.19,0.19-16.78c0.04-2.45,1.94-4.52,4.45-4.56
	c2.4-0.03,4.59,1.99,4.55,4.45c-0.16,10.47-0.23,20.94-0.36,31.41c-0.04,3.68-0.08,7.36-0.12,11.05c-0.03,2.45-1.95,4.52-4.44,4.56
	c-0.02,0-0.03,0-0.05,0C148.06,127.14,145.91,125.13,145.93,122.69z"/>
<path class="st0" d="M167.59,127.51c0-0.1,0-0.2,0-0.3c0-0.04,0-0.08,0-0.12c0.04-10.84,0-21.67,0-32.51c0-9.45-0.01-18.9,0-28.35
	c0-2.45,1.99-4.52,4.46-4.54c2.44-0.02,4.54,2.01,4.54,4.46c0,0.21,0,0.43,0,0.64c0,0.01,0,0.02,0,0.02c-0.01,13.08,0,26.16,0,39.25
	c0,7.12,0.03,14.25,0,21.37c-0.01,2.45-1.98,4.52-4.46,4.54c-0.01,0-0.03,0-0.04,0C169.67,131.97,167.59,129.95,167.59,127.51z"/>
<path class="st0" d="M195.45,127.41c-2.47-0.02-4.46-2.08-4.47-4.53c-0.06-12.7-0.12-25.4-0.18-38.11
	c-0.05-11.3-0.12-22.59-0.16-33.89c-0.01-2.45,2.09-4.49,4.53-4.47c2.47,0.02,4.46,2.08,4.47,4.53c0.04,14.06,0.13,28.12,0.2,42.18
	c0.05,9.94,0.09,19.88,0.14,29.82c0.01,2.44-2.08,4.47-4.5,4.47C195.47,127.41,195.46,127.41,195.45,127.41z"/>
<path class="st0" d="M212.21,121.71c0.11-12.4,0.23-24.79,0.34-37.19c0.09-10.46,0.19-20.91,0.29-31.36c0.02-2.45,2.03-4.5,4.5-4.5
	c2.43,0,4.52,2.05,4.5,4.5c-0.14,15.13-0.28,30.26-0.42,45.39c-0.07,7.72-0.14,15.45-0.21,23.17c-0.02,2.45-2.03,4.5-4.5,4.5
	C214.28,126.21,212.19,124.16,212.21,121.71z"/>
<path class="st0" d="M233.45,141.63c0-0.07,0-0.14,0-0.21c0-0.01,0-0.02,0-0.02c0.02-9.41,0.02-18.82,0.03-28.23
	c0.02-15.88,0.03-31.75,0.06-47.62c0.01-2.45,2.03-4.5,4.49-4.51c2.45-0.01,4.51,2.04,4.51,4.49c0,0.02,0,0.03,0,0.05
	c0,0,0,0,0,0.01c-0.04,15.86-0.04,31.71-0.06,47.57c-0.01,9.49-0.02,18.98-0.04,28.46c-0.01,2.45-2.03,4.5-4.49,4.51
	c0,0-0.01,0-0.01,0C235.51,146.12,233.45,144.08,233.45,141.63z"/>
<path class="st0" d="M57.36,70.56c-0.19-1.7-0.13-3.38,0.28-5.05c0.6-2.47,1.85-4.66,3.46-6.61c3.09-3.73,8.08-6.18,12.94-6.17
	c3.99,0.01,8.15,1.58,10.57,4.88c0.71,0.98,1.13,2.05,1.02,3.29c-0.11,1.18-0.69,2.29-1.6,3.05c-1.8,1.5-4.89,1.4-6.34-0.58
	c-0.12-0.16-0.25-0.32-0.38-0.48c-0.1-0.1-0.2-0.19-0.31-0.29c-0.1-0.08-0.21-0.15-0.31-0.22c-0.15-0.09-0.3-0.17-0.45-0.24
	c-0.18-0.07-0.36-0.14-0.54-0.2c-0.21-0.05-0.42-0.1-0.63-0.14c-0.24-0.03-0.49-0.05-0.73-0.07c-0.31,0-0.61,0.02-0.92,0.04
	c-0.32,0.05-0.65,0.1-0.97,0.18c-0.35,0.1-0.69,0.2-1.02,0.33c-0.35,0.15-0.7,0.31-1.04,0.49c-0.33,0.19-0.65,0.39-0.96,0.61
	c-0.29,0.22-0.58,0.46-0.85,0.7c-0.27,0.26-0.52,0.53-0.76,0.81c-0.22,0.28-0.42,0.56-0.62,0.86c-0.16,0.27-0.31,0.54-0.44,0.82
	c-0.11,0.26-0.21,0.53-0.3,0.8c-0.06,0.25-0.12,0.49-0.17,0.74c-0.02,0.19-0.04,0.39-0.05,0.58l0,0.4c0.11,1.18-0.07,2.3-0.78,3.29
	c-0.68,0.95-1.72,1.61-2.87,1.81c-0.24,0.04-0.49,0.06-0.73,0.06C59.76,74.26,57.6,72.74,57.36,70.56z"/>
<path class="st0" d="M106.47,60.65c-2.3-0.41-4.22-2.83-3.64-5.21c0.1-0.41,0.17-0.83,0.23-1.25c0.03-0.34,0.04-0.68,0.04-1.02
	c-0.02-0.34-0.05-0.68-0.1-1.02c-0.07-0.35-0.15-0.69-0.24-1.03c-0.1-0.31-0.22-0.62-0.35-0.92c-0.15-0.3-0.31-0.6-0.47-0.89
	c-0.17-0.26-0.35-0.51-0.54-0.76c-0.21-0.25-0.44-0.49-0.67-0.73c-0.25-0.22-0.5-0.44-0.76-0.64c-0.27-0.19-0.55-0.36-0.83-0.53
	c-0.3-0.15-0.59-0.29-0.9-0.42c-0.33-0.12-0.65-0.22-0.99-0.31c-0.34-0.07-0.69-0.13-1.04-0.18c-0.32-0.02-0.63-0.04-0.95-0.04
	c-0.36,0.02-0.71,0.05-1.06,0.1c-0.33,0.07-0.66,0.14-0.98,0.23c-0.32,0.11-0.63,0.23-0.94,0.35c-0.31,0.15-0.61,0.31-0.9,0.48
	c-0.27,0.18-0.53,0.36-0.78,0.56c-0.23,0.2-0.46,0.41-0.68,0.63c-0.23,0.26-0.46,0.53-0.67,0.8c-0.18,0.26-0.35,0.53-0.51,0.81
	c-0.16,0.3-0.3,0.6-0.43,0.91c-0.12,0.33-0.22,0.66-0.31,0.99c-0.09,0.43-0.17,0.87-0.17,0.92c-0.14,1.14-0.56,2.15-1.42,2.96
	c-0.87,0.8-2.05,1.24-3.23,1.19c-2.34-0.09-4.57-2.23-4.32-4.67c0.42-4.17,2.24-7.99,5.32-10.86c3.05-2.86,7.12-4.33,11.27-4.4
	c4.71-0.07,9.44,2.12,12.52,5.66c2.19,2.52,3.54,5.57,4.01,8.87c0.27,1.89,0.18,3.91-0.27,5.77c-0.28,1.17-0.83,2.17-1.82,2.88
	c-0.76,0.54-1.69,0.83-2.62,0.83C106.99,60.72,106.72,60.69,106.47,60.65z"/>
<path class="st0" d="M128.73,71.19c-2.37-0.23-4.38-2.49-4.04-4.91c0.02-0.17,0.04-0.35,0.05-0.52c0-0.12-0.01-0.24-0.01-0.36
	c-0.02-0.13-0.04-0.27-0.07-0.4c-0.04-0.14-0.09-0.28-0.13-0.42c-0.06-0.15-0.13-0.29-0.2-0.43c-0.09-0.15-0.18-0.29-0.28-0.44
	c-0.12-0.15-0.25-0.31-0.38-0.45c-0.16-0.15-0.32-0.3-0.49-0.45c-0.2-0.15-0.41-0.3-0.62-0.44c-0.26-0.15-0.52-0.29-0.8-0.42
	c-0.31-0.13-0.62-0.24-0.93-0.35c-0.37-0.1-0.74-0.19-1.12-0.26c-0.38-0.05-0.77-0.09-1.15-0.11c-0.42,0-0.83,0.01-1.25,0.05
	c-0.39,0.05-0.78,0.12-1.16,0.2c-0.35,0.1-0.7,0.21-1.05,0.33c-0.32,0.14-0.64,0.29-0.96,0.45c-0.24,0.14-0.48,0.29-0.71,0.45
	c-0.2,0.16-0.4,0.32-0.59,0.5c-0.15,0.15-0.29,0.31-0.44,0.47l-0.33,0.44c-0.61,0.94-1.41,1.67-2.51,2.02
	c-1.15,0.36-2.42,0.25-3.48-0.32c-2.07-1.11-3.14-3.99-1.86-6.09c2.3-3.77,6.01-6.11,10.27-7.1c4-0.93,8.48-0.3,12.07,1.68
	c4.03,2.21,7.02,6.3,7.16,10.99c0.02,0.62,0,1.24-0.09,1.85c-0.31,2.29-2.16,4.07-4.47,4.07C129.03,71.21,128.88,71.2,128.73,71.19z
	"/>
<path class="st0" d="M129.31,82.38c-2.04-1.19-2.96-4.1-1.62-6.16c4.21-6.44,12.81-9.02,19.96-6.42c2.98,1.08,5.43,3.31,6.8,6.15
	c1.06,2.21-0.22,4.98-2.39,5.9c-1.11,0.47-2.39,0.47-3.5,0c-1.03-0.44-1.77-1.21-2.18-1.97c-0.08-0.16-0.17-0.32-0.27-0.48
	c-0.05-0.07-0.11-0.14-0.17-0.22c-0.09-0.09-0.18-0.18-0.27-0.27c-0.11-0.09-0.22-0.17-0.33-0.25c-0.15-0.09-0.31-0.18-0.46-0.27
	c-0.2-0.09-0.41-0.18-0.61-0.26c-0.26-0.08-0.53-0.16-0.8-0.22c-0.32-0.06-0.65-0.1-0.97-0.13c-0.36-0.02-0.73-0.01-1.09,0
	c-0.41,0.04-0.82,0.09-1.22,0.17c-0.37,0.09-0.74,0.19-1.11,0.3c-0.38,0.14-0.75,0.3-1.12,0.47c-0.29,0.16-0.58,0.32-0.86,0.5
	c-0.25,0.18-0.5,0.37-0.73,0.56c-0.19,0.18-0.38,0.37-0.56,0.56c-0.2,0.25-0.4,0.5-0.49,0.64c-0.63,0.88-1.46,1.55-2.54,1.84
	c-0.39,0.11-0.79,0.16-1.18,0.16C130.8,82.99,130,82.79,129.31,82.38z"/>
<path class="st0" d="M152.09,84.15c-2.37-0.44-4.11-2.84-3.61-5.24c0.79-3.83,4.13-6.51,7.54-8.03c4.3-1.92,9.33-2.7,13.91-1.38
	c1.68,0.48,3.27,1.39,4.45,2.7c1.21,1.34,1.82,3,1.86,4.78c0,0.08,0,0.17,0,0.26c0,0.03,0,0.07,0,0.1c0,0.06-0.01,0.11-0.01,0.17
	c-0.04,0.46-0.16,0.9-0.33,1.31c0,0.01-0.01,0.02-0.02,0.04c0,0.01-0.01,0.02-0.01,0.03c-0.72,1.67-2.39,2.84-4.33,2.75
	c-1.98-0.09-3.59-1.48-4.11-3.29c-0.02-0.07-0.04-0.14-0.06-0.21c-0.08-0.03-0.16-0.05-0.23-0.07c-0.28-0.06-0.56-0.11-0.84-0.15
	c-0.42-0.04-0.85-0.05-1.27-0.05c-0.55,0.02-1.11,0.07-1.66,0.15c-0.63,0.11-1.24,0.25-1.85,0.42c-0.54,0.17-1.08,0.36-1.6,0.58
	c-0.39,0.18-0.77,0.37-1.14,0.58c-0.27,0.17-0.54,0.35-0.8,0.55c-0.14,0.12-0.28,0.25-0.42,0.37c-0.07,0.08-0.14,0.16-0.21,0.24
	c-0.02,0.03-0.03,0.05-0.05,0.08c-0.54,1.99-2.33,3.41-4.37,3.41C152.63,84.23,152.36,84.2,152.09,84.15z"/>
<path class="st0" d="M167.51,69.97c-1.16-4.52,1.47-8.68,4.82-11.46c2.57-2.13,5.79-3.58,9.03-4.32c5.22-1.19,11.45-0.71,15.1,3.6
	c0.74,0.87,1.23,1.93,1.56,3.01c0.73,2.34-0.9,4.89-3.2,5.5c-2.33,0.62-4.56-0.72-5.35-2.73c-0.02-0.06-0.04-0.13-0.07-0.19
	c0,0-0.01-0.01-0.01-0.01c-0.03-0.02-0.06-0.05-0.09-0.07c-0.08-0.05-0.16-0.1-0.25-0.15c-0.14-0.06-0.27-0.12-0.41-0.18
	c-0.22-0.07-0.44-0.13-0.66-0.19c-0.33-0.06-0.66-0.11-1-0.14c-0.49-0.02-0.98-0.02-1.46,0c-0.57,0.05-1.13,0.13-1.69,0.22
	c-0.62,0.13-1.23,0.3-1.83,0.49c-0.61,0.22-1.21,0.47-1.79,0.74c-0.46,0.24-0.92,0.5-1.36,0.78c-0.37,0.25-0.72,0.52-1.07,0.8
	c-0.24,0.22-0.48,0.45-0.7,0.68c-0.15,0.18-0.3,0.36-0.44,0.55c-0.08,0.13-0.17,0.27-0.24,0.4c-0.04,0.09-0.08,0.17-0.11,0.26
	c-0.02,0.06-0.04,0.12-0.05,0.18c0,0.01,0,0.02-0.01,0.04c0,0,0,0,0,0c0.54,2.34-0.87,4.77-3.22,5.4c-0.37,0.1-0.75,0.15-1.12,0.15
	C169.91,73.31,168.02,71.97,167.51,69.97z"/>
<path class="st0" d="M216.06,59.18c-2.33-0.68-3.78-3.24-3.05-5.59c0.06-0.19,0.11-0.38,0.16-0.57c0.05-0.27,0.09-0.55,0.13-0.82
	c0.01-0.24,0.02-0.49,0.01-0.73c-0.02-0.23-0.05-0.47-0.08-0.7c-0.04-0.2-0.09-0.39-0.15-0.58c-0.07-0.2-0.16-0.4-0.24-0.6
	c-0.09-0.17-0.18-0.33-0.28-0.49c-0.11-0.16-0.23-0.32-0.35-0.47c-0.14-0.15-0.28-0.3-0.43-0.45c-0.17-0.14-0.33-0.28-0.51-0.41
	c-0.2-0.13-0.4-0.25-0.6-0.36c-0.23-0.11-0.47-0.22-0.71-0.31c-0.28-0.09-0.57-0.18-0.86-0.25c-0.31-0.06-0.63-0.11-0.94-0.14
	c-0.35-0.02-0.71-0.02-1.06-0.02c-0.37,0.03-0.73,0.07-1.1,0.13c-0.38,0.08-0.76,0.18-1.13,0.29c-0.38,0.13-0.75,0.28-1.11,0.45
	c-0.38,0.19-0.76,0.41-1.12,0.63c-0.31,0.22-0.62,0.45-0.91,0.69c-0.28,0.26-0.56,0.52-0.82,0.8c-0.23,0.27-0.46,0.55-0.67,0.84
	c-0.19,0.29-0.36,0.58-0.53,0.88c-0.13,0.27-0.25,0.54-0.36,0.82l-0.22,0.7c-0.24,1.17-0.78,2.2-1.75,2.92
	c-0.96,0.72-2.19,1.02-3.38,0.84c-2.33-0.36-4.27-2.73-3.77-5.13c0.8-3.86,2.91-7.21,5.92-9.72c3.16-2.64,7.16-4.04,11.26-4.14
	c6.62-0.17,13.11,4.27,14.57,10.86c0.55,2.51,0.46,5.12-0.3,7.59c-0.6,1.94-2.39,3.23-4.34,3.23
	C216.89,59.36,216.47,59.3,216.06,59.18z"/>
<path class="st0" d="M234.28,65.9c-0.81-0.8-1.18-1.79-1.28-2.6c-0.01-0.13-0.02-0.25-0.04-0.37c-0.01-0.03-0.01-0.05-0.02-0.08
	c-0.01-0.02-0.02-0.04-0.03-0.06c-0.02-0.03-0.04-0.06-0.06-0.1c-0.04-0.06-0.09-0.11-0.13-0.17c-0.05-0.05-0.09-0.09-0.14-0.14
	c-0.1-0.08-0.2-0.16-0.31-0.24c-0.14-0.08-0.27-0.16-0.41-0.24c-0.22-0.1-0.45-0.2-0.68-0.29c-0.3-0.09-0.61-0.17-0.91-0.24
	c-0.37-0.07-0.75-0.12-1.13-0.15c-0.48-0.02-0.97-0.02-1.45,0c-0.53,0.05-1.06,0.12-1.58,0.22c-0.53,0.12-1.05,0.26-1.56,0.43
	c-0.44,0.17-0.88,0.35-1.31,0.55c-0.39,0.21-0.77,0.43-1.14,0.67c-0.27,0.19-0.53,0.39-0.78,0.6c-0.15,0.14-0.29,0.28-0.43,0.42
	c-1.7,1.77-4.66,1.71-6.36,0c-1.76-1.76-1.7-4.6,0-6.37c2.42-2.51,5.75-4.18,9.12-4.97c3.88-0.91,8.22-0.85,11.87,0.9
	c3.25,1.56,5.9,4.44,6.37,8.1c0.04,0.31,0.05,0.63,0.07,0.94c0.15,2.45-2.16,4.5-4.5,4.5C236.27,67.22,235.12,66.74,234.28,65.9z"/>
</svg>
