<?xml version="1.0" encoding="utf-8"?>
<!-- Generator: Adobe Adobe Illustrator 24.2.0, SVG Export Plug-In . SVG Version: 6.00 Build 0)  -->
<svg version="1.1" id="Capa_de_vector_1_" xmlns="http://www.w3.org/2000/svg" xmlns:xlink="http://www.w3.org/1999/xlink" x="0px"
	 y="0px" viewBox="0 0 1000 1000" style="enable-background:new 0 0 1000 1000;" xml:space="preserve">
<style type="text/css">
	.st0{fill:#A46460;}
	.st1{fill:#C7CCAC;}
</style>
<path class="st0" d="M818.11,528.54c0.02-0.2,0.03-0.39,0.05-0.59c-0.03,0.38-0.05,0.76-0.09,1.14
	C818.09,528.91,818.1,528.72,818.11,528.54z"/>
<path class="st1" d="M188.73,548.61c0.71,0.34,1.41,0.68,2.13,1.01c-3.23-12.52-5.76-25.23-7.56-38.02
	c-2.01-14.21-3.21-28.55-3.54-42.91c-10.77,9.94-22.41,20.32-35.18,26.08c0,0.25,0.01,0.5,0.02,0.74c0.12,1.3,0.3,2.58,0.53,3.86
	c0.38,1.65,0.83,3.27,1.36,4.88c0.79,2.13,1.68,4.21,2.66,6.26c1.33,2.55,2.8,5.03,4.38,7.44c2.05,2.95,4.25,5.78,6.59,8.5
	c2.71,3.01,5.58,5.86,8.6,8.57c3.16,2.72,6.47,5.27,9.91,7.64C181.89,544.82,185.26,546.81,188.73,548.61z M365.94,235.02
	c14.38-11.96,24.96-29.66,22.14-48.88c-1.77-15.14-6.07-30.07-12.4-43.93c-11.49-23.08-14.57-49.73-10.98-75.09
	c1.71-6.59,4.04-13.15,7.02-19.39c-10.37,0.57-20.7,1.69-30.96,3.33c-11.97,2.05-23.8,4.83-35.44,8.32
	c-11.6,3.61-22.95,7.92-34.02,12.91c-10.76,4.98-21.21,10.6-31.3,16.83c-9.83,6.21-19.28,12.97-28.33,20.28
	c-9.1,7.51-17.74,15.53-25.9,24.06c-8.01,8.55-15.5,17.55-22.46,26.98c-6.92,9.59-13.25,19.56-19,29.89
	c-5.72,10.56-10.79,21.44-15.21,32.61c-4.37,11.4-8.04,23.05-10.98,34.9c-2.86,12.05-4.96,24.25-6.32,36.57
	c-1.21,12.3-1.66,24.64-1.34,37c0.44,12.28,1.64,24.51,3.6,36.64c0.93,5.41,2,10.79,3.22,16.14c3.23-6.15,6.68-12.19,10.13-18.22
	c11.76-26.93,43.63-7.63,27.51,12.41c-2.5,3.95-4.46,8.23-6.89,12.22c-5.19,8.54-9.35,17.64-13.02,26.91
	c-1.46,5.3-1.67,10.88-3.15,16.2c-2.14,6.96-3.48,13.89-2.61,21.19c0.6,4.46-1.9,9.52,0.51,13.5
	c21.62-10.42,37.73-30.55,56.36-45.41c18.81-17,36.75-34.98,54.8-52.77c24.33-27.88,49.65-54.84,74.9-81.89
	C333.68,271.6,347.29,250.91,365.94,235.02z M580.64,477.36c0.29-9.25,0.27-18.52-0.22-27.76c-0.03-0.66-0.02-1.32,0.04-1.96
	c-11.21-9.35-22.04-19.14-32.67-29.14c-10.8-10.16-21.34-20.59-31.67-31.21c-4.98-0.25-9.84-2.09-14.88-2.04
	c-11.31-0.25-22.64,1.15-33.71,3.41c-4.07,1.17-8.27,3.12-12.55,3.03c-13.21,0.44-20.58-15.82-11.32-25.35
	c2.38-2.5,5.9-4.38,9.42-4.61c4.7-1.6,9.53-2.87,14.45-3.62c6.29-1.04,12.64-1.91,19.01-2.41c-7.5-8.28-14.88-16.66-22.16-25.11
	c-13.47-15.62-26.59-31.56-39.39-47.74c-9.55-12.08-18.87-24.34-28.05-36.7c-8.7,9.57-18.86,18.05-27.66,27.8
	c-20.12,24.75-43.39,46.68-64.65,70.45c-4.03,4.15-7.96,8.38-11.84,12.66c6.47,0.43,12.93,1.17,19.32,2.23
	c5.77,0.96,11.74,2.01,17.18,4.26c3.99,1.65,8.12,4.15,10.28,8.05c1.96,3.56,2.79,7.43,1.8,11.45c-0.93,3.8-3.37,7.14-6.69,9.19
	c-2.38,1.47-5.13,2.23-7.9,2.23c-1.19,0-2.38-0.14-3.55-0.43c-2.11-0.52-4.23-1.55-6-2.97c-0.08-0.03-0.17-0.06-0.25-0.09
	c-2.84-0.82-5.71-1.43-8.61-1.95c-7.75-1.25-15.55-2.01-23.39-2.36c-4.59-0.14-9.18-0.14-13.76,0.22c-0.78,0.09-1.55,0.2-2.32,0.33
	c-1.3,0.67-2.67,1.11-4.07,1.34c-0.65,0.72-1.3,1.44-1.96,2.16c-17.87,17.65-35.65,35.45-54.28,52.32c0.98,2.17,1.32,4.24,1.27,5.56
	c-0.49,14.85,0.01,29.72,1.42,44.51c1.5,14.59,3.9,29.06,7.23,43.34c3.12,12.9,6.99,25.61,11.65,38.04
	c4.3,11.2,9.25,22.14,14.85,32.75c5.17,9.56,10.87,18.8,17.12,27.68c5.59,7.74,11.59,15.17,18.04,22.23
	c5.91,6.32,12.16,12.3,18.77,17.89c5.93,4.89,12.12,9.45,18.57,13.63c6.14,3.85,12.47,7.36,19.01,10.48
	c6.17,2.82,12.48,5.28,18.93,7.36c6.13,1.86,12.35,3.37,18.65,4.5c6.07,0.99,12.18,1.62,18.33,1.89c6.14,0.17,12.27-0.02,18.39-0.58
	c6.16-0.67,12.27-1.69,18.31-3.06c6.14-1.5,12.17-3.37,18.1-5.56c6.1-2.38,12.05-5.09,17.85-8.13c6.23-3.39,12.25-7.14,18.06-11.21
	c6.4-4.62,12.51-9.63,18.34-14.96c6.24-5.86,12.12-12.09,17.66-18.62c6.32-7.64,12.15-15.66,17.52-23.99
	c5.99-9.52,11.37-19.39,16.16-29.55c0.34-0.74,0.68-1.48,1.01-2.22c-8.8,8.69-17.61,17.37-26.41,26.06
	c-4.29,4.23-8.58,8.46-12.86,12.69c-2.91,2.88-6.77,4.33-10.63,4.33c-3.85,0-7.69-1.44-10.58-4.34c-5.77-5.77-5.79-15.45,0.01-21.21
	l0,0c11.09-10.96,22.2-21.9,33.3-32.86c6.07-5.99,12.14-11.98,18.21-17.97c1.15-1.71,2.64-3.19,4.38-4.32
	c0.55-0.55,1.11-1.1,1.67-1.64c1.92-1.96,3.77-4,5.7-5.94c3.09-3.09,6.22-6.14,9.21-9.33c2.7-2.88,5.44-5.7,8.32-8.39
	c0.74-3.53,1.41-7.07,2.04-10.62c0.33-1.98,0.65-3.97,0.94-5.96c-0.44-0.42-0.88-0.84-1.32-1.26c-0.09-0.09-0.19-0.18-0.29-0.27
	c0,0,0-0.01-0.01-0.01c0,0,0,0,0-0.01c-4.42-4.18-5.36-10.79-3.2-16.2c0,0,0,0,0-0.01c0.57-2.63,1.85-5.11,3.87-7.09
	c0.2-0.19,0.38-0.38,0.57-0.56c1.15-1.13,2.3-2.26,3.45-3.38C580.36,483.58,580.52,480.47,580.64,477.36z M609.14,545.88
	c-0.97-0.92-1.94-1.84-2.91-2.76c-0.3,0.38-0.63,0.75-0.98,1.1c-1.32,1.34-2.66,2.68-4,4.02c-0.11,0.46-0.22,0.92-0.34,1.38
	c1.25-0.44,2.48-0.92,3.7-1.44C606.16,547.45,607.66,546.69,609.14,545.88z M644.71,502.2c-3.01-2.54-5.86-5.21-8.64-8
	c-2.42-2.41-4.84-4.83-7.26-7.24c-0.15-0.15-0.3-0.3-0.45-0.45c-0.54,0.06-1.07,0.09-1.62,0.09c-0.04,0-0.08,0-0.12,0
	c-1.04-0.01-2.07-0.14-3.08-0.37c-5.53,5.41-11.06,10.8-16.59,16.21c3.72,3.54,7.44,7.08,11.16,10.61c3.1,2.94,6.2,5.89,9.3,8.83
	C633.21,515.35,638.95,508.76,644.71,502.2z M671.52,354.66c0.79-8.99,1-18,0.71-27.01c-0.49-10.76-1.68-21.46-3.46-32.08
	c-2.29-12.72-5.4-25.25-9.23-37.58c-4.36-13.54-9.56-26.78-15.51-39.7c-6.46-13.67-13.71-26.94-21.75-39.74
	c-8.2-12.84-17.16-25.16-26.84-36.91c-6.24-7.5-12.81-14.73-19.66-21.69c-3.12-3.16-6.3-6.26-9.54-9.31
	c-9.3-8.6-19.05-16.68-29.29-24.12c-9.14-6.52-18.62-12.52-28.48-17.88c-5.98-3.18-12.09-6.12-18.32-8.79
	c-0.02-0.01-0.04-0.02-0.06-0.03c-1.77-0.74-3.54-1.48-5.33-2.19c-0.54-0.21-1.09-0.43-1.63-0.64c-0.73-0.27-1.47-0.54-2.21-0.81
	c-3.99-1.45-8.03-2.76-12.1-3.95c-2.72-0.79-5.46-1.52-8.21-2.18c-6.57-1.5-13.2-2.62-19.9-3.33c-5.61-0.48-11.23-0.67-16.86-0.53
	c-5.06,0.24-10.09,0.75-15.09,1.57c-0.58,0.11-1.16,0.22-1.74,0.34c-0.07,0.07-0.14,0.13-0.21,0.2c-5.98,5.96-8.82,14.5-12.05,22.15
	c-3.96,21.06-0.24,43.43,9.66,62.41c10.5,26.19,19.32,56.39,10.05,84.18c-0.43,1.44-0.91,2.84-1.44,4.21
	c2.53,1.02,4.82,2.72,6.53,5.04c11.3,15.27,22.82,30.36,34.68,45.2c4.96,6.2,9.97,12.36,15.04,18.48
	c12.58,15.16,25.46,30.08,38.68,44.7c13.55,14.98,27.42,29.67,41.73,43.92c7,6.96,14.09,13.84,21.29,20.59
	c13.61,12.66,27.61,24.96,42.29,36.37c0.04-0.98,0.08-1.96,0.12-2.93c-2.52-5.53-1.64-12.45,2.9-16.88
	c10.23-9.96,20.58-19.81,30.9-29.68c-0.95-1.81-1.91-3.61-2.88-5.41c-3.88-7.2-1.16-16.44,6.03-20.34
	c6.55-3.56,14.88-1.58,19.22,4.27c0.27-0.25,0.53-0.51,0.8-0.77C670.81,360.77,671.2,357.72,671.52,354.66z M775.05,409.61
	c10.98-11.43,21.96-22.86,32.93-34.29c-5.1-4.98-10.21-9.97-15.31-14.96c-12.23-11.95-24.45-23.89-36.68-35.83
	c-0.24-0.23-0.48-0.46-0.71-0.7c-4.13,3.97-8.27,7.94-12.4,11.91c5.5,5.54,11,11.09,16.49,16.63c5.75,5.81,5.8,15.41,0,21.21
	c-2.89,2.89-6.76,4.34-10.63,4.34c-3.86,0-7.71-1.44-10.58-4.34c-5.64-5.69-11.28-11.38-16.92-17.06
	c-4.88,4.68-9.76,9.37-14.64,14.05c2.58,1.9,4.88,4.18,6.75,6.75c0.52,0.64,0.99,1.35,1.39,2.11c1.91,3.6,2.61,7.57,1.51,11.56
	c-1.03,3.75-3.55,7-6.9,8.96c-2.33,1.36-4.89,2.01-7.43,2.01c-5.03,0-9.96-2.53-12.83-6.97c-0.05-0.04-0.11-0.09-0.16-0.12
	c-0.22-0.14-0.45-0.27-0.68-0.39c-0.46-0.21-0.93-0.4-1.4-0.57c-0.03-0.01-0.05-0.02-0.08-0.03c-1.01-0.36-1.96-0.88-2.86-1.52
	c-5.5,5.28-11,10.56-16.5,15.84c5.41,4.97,10.74,10.04,16.09,15.07c2.82,2.66,4.22,6.92,4.13,10.71c-0.1,3.95-1.79,7.77-4.66,10.49
	c-2.78,2.64-6.52,4.13-10.35,4.13c-0.12,0-0.24,0-0.36,0c-4.13-0.1-7.54-1.89-10.5-4.65c-0.04-0.04-0.09-0.09-0.13-0.12
	c-0.11-0.1-0.21-0.2-0.32-0.3c-0.04-0.04-0.07-0.07-0.1-0.1c-5.41-5.09-10.86-10.12-15.48-14.46c-0.77,0.74-1.54,1.48-2.3,2.21
	c-0.32,8.96-0.72,17.91-1.11,26.87c2.39,2.39,4.78,4.8,7.18,7.19c2.08,2.08,4.17,4.16,6.25,6.24c1.89,1.89,3.73,3.85,5.7,5.66
	c3.75,3.23,7.61,6.34,11.41,9.51c0.91,0.76,1.73,1.59,2.46,2.48c0.24-0.03,0.48-0.05,0.72-0.06c7.7-0.46,15.4-0.91,23.1-1.37
	c0.3-0.02,0.6-0.03,0.9-0.02c11.64-12.14,23.3-24.26,34.95-36.39C748.36,437.39,761.71,423.51,775.05,409.61z M844.18,303.59
	c-2.76-2.68-5.52-5.36-8.27-8.04c-2.06-2-4.12-4-6.18-6c-9.34,9.23-18.66,18.48-28,27.72c-1.7,1.68-3.4,3.38-5.1,5.06
	c0.79,0.77,1.57,1.54,2.36,2.3c4.23,4.13,8.45,8.25,12.68,12.38c6.86-7.1,13.79-14.12,20.65-21.2
	C836.27,311.74,840.22,307.66,844.18,303.59z M883.97,289.52c3.77-3.93,7.53-7.87,11.3-11.8c-4.28-4.34-8.56-8.68-12.84-13.03
	c-10.51-10.66-21.02-21.33-31.53-31.99c-5.28,5.36-10.56,10.71-15.84,16.07c-0.68,0.7-1.37,1.39-2.05,2.08
	c8.64,8.36,17.22,16.79,25.84,25.17c6.56,6.38,13.12,12.75,19.69,19.12C880.36,293.27,882.17,291.4,883.97,289.52z M928.73,275.04
	c0.43,1.42,0.66,2.91,0.66,4.42c-0.01,4.03-1.66,7.71-4.42,10.6c-9.69,10.13-19.39,20.26-29.08,30.38c-2.17,2.27-4.39,4.49-6.51,6.8
	c-2.7,2.95-6.5,4.34-10.33,4.34c-4,0-8.03-1.52-10.88-4.38c-0.57-0.57-1.09-1.18-1.55-1.83c-0.25-0.22-0.5-0.45-0.75-0.68
	c-0.07-0.07-0.15-0.15-0.23-0.22c-7.03,7.23-14.04,14.48-21.06,21.72c-3.82,3.93-7.67,7.84-11.48,11.78
	c1.83,1.79,3.66,3.58,5.5,5.37c5.85,5.71,5.24,15.73-0.52,21.21c-0.18,0.17-0.36,0.34-0.55,0.5c-0.68,2.61-2.07,4.98-4,6.98
	c-10.5,10.93-21,21.87-31.5,32.8c-13.09,13.62-26.17,27.25-39.26,40.87c-13.36,13.91-26.71,27.82-40.07,41.72
	c-1.38,1.44-2.77,2.88-4.14,4.32c-2.77,2.88-6.56,4.27-10.37,4.27c-0.49,0-0.98-0.02-1.48-0.07c-1.89,1-4.02,1.62-6.28,1.76
	c-7.7,0.46-15.4,0.96-23.1,1.37c-0.25,0.02-0.5,0.02-0.75,0.02c-2.03,0-3.98-0.44-5.77-1.22c-0.35,0.39-0.7,0.79-1.05,1.19
	c-1.1,2.86-2.34,5.66-3.69,8.37c-7.89,15.81-19.99,29.68-34.47,39.78c-11.67,8.13-25.81,14.1-40.11,14.33
	c-3.13,8.93-6.66,17.71-10.61,26.32c-8.04,17.52-17.65,34.31-29.1,49.83c-11.92,16.16-25.75,30.92-41.36,43.57
	c-9.41,7.62-19.55,14.46-30.25,20.25c0.63,8.85,0.8,17.78,3.41,26.39c5.42,18.76,17.87,34.6,32.62,47.06
	c10.64,6.59,22,11.95,33.25,17.43c43.61,22.32,91.49,36.95,131.25,66.18c24.15,15.49,44.93,36.24,57.74,62.12
	c4.6,10.38,14.61,23.05,10.1,34.64c-4.94,11.77-23.59,11.33-27.66-0.95c-5.68-15.52-14.04-30.17-24.14-43.22
	c-7.45-8.38-16.15-15.55-24.96-22.43c-34.74-26.47-75.87-41.48-115.18-59.63c-20.1-10.06-41.27-18.52-59.87-31.27
	c-25.36-20.74-43.31-51.04-46.05-83.62c-15.48,5.1-31.56,8.11-47.91,8.66c-1.8,0.06-3.6,0.09-5.39,0.09
	c-18.23,0-36.36-3.1-53.69-8.77c-1.91-0.62-3.8-1.28-5.68-1.97c0.05,0.75,0.13,1.49,0.24,2.23c1.23,23.16-9.49,42.45-23.03,60.32
	c-9.3,13.2-23.74,21.34-36.86,30.23c-30.86,17.17-65.54,25.37-98.19,38.35c-16.25,5.84-30.95,14.98-45.61,23.94
	c-10.99,6.07-21.09,12.89-30.2,20.69c-12.47,12.48-23.53,26.29-32.89,41.25c-5.32,7.38-7.22,16.55-12.3,24.01
	c-4.86,6.61-14.44,8.03-20.97,3.21c-6.84-5.04-7.9-14.69-3-21.45c5.53-15.1,14.93-28.21,24.2-41.2
	c10.37-12.86,20.92-26.04,34.41-35.78c19.8-14.21,41.07-26.55,62.83-37.49c28.56-12.3,58.73-20.27,87.36-32.3
	c10.01-4,20.72-9.38,29.07-15.73c8.75-5.62,16.8-12.14,22.01-21.32c11.22-13.82,14.95-28.74,12.59-46.32
	c-0.46-2.45-0.47-4.85-0.11-7.1c-4.94-2.91-9.75-6.04-14.42-9.35c-16.77-11.89-31.68-26.23-44.73-42.08
	c-12.3-14.93-22.73-31.31-31.68-48.44c-5.63-10.78-10.57-21.94-14.86-33.33c-13.54-2.5-26.48-8.15-37.97-15.68
	c-15.81-10.36-29.89-24.07-39.26-40.61c-5.42-9.57-9.59-20.55-10.05-31.68c-8.35-5.43-13.52-16.9-15.67-25.93
	c-0.72-4.05-0.06-8.21,0.28-12.28c-0.25-9.59-0.55-19.17,2.68-28.38c-1.95-1.59-3.5-3.68-4.37-6.17
	c-2.74-7.87-5.18-15.86-7.29-23.93c-4.44-16.94-7.35-34.3-8.82-51.74c-1.7-20.26-1.21-40.59,1.05-60.78
	c2.21-19.77,6.58-39.32,12.64-58.25c6.49-20.27,15.24-39.75,25.77-58.23c9.84-17.28,21.49-33.61,34.57-48.59
	c13.38-15.33,28.23-29.21,44.3-41.67c15.59-12.09,32.53-22.62,50.21-31.36c18.23-9,37.24-16.18,56.86-21.5
	c18.84-5.12,38.27-8.31,57.74-9.66c7.45-0.52,14.93-0.76,22.39-0.74c3.01,0.01,5.8,1.04,8.11,2.73c14.39-3.48,29.27-4.62,44.09-3.55
	c18.12,1.31,35.96,5.47,52.96,11.84c0.27,0.11,0.55,0.21,0.82,0.31c0.64,0.2,1.25,0.43,1.84,0.7c2.43,0.95,4.86,1.92,7.27,2.92
	c0.15,0.06,0.3,0.12,0.44,0.18c13.78,5.88,27,13.09,39.58,21.21c16.79,10.84,32.34,23.45,46.87,37.15
	c7.08,6.68,13.86,13.68,20.35,20.94c1.65,1.85,3.27,3.71,4.89,5.59c0.82,0.96,1.64,1.93,2.46,2.9c0.33,0.39,0.66,0.79,0.98,1.18
	c0.02,0.02,0.03,0.04,0.05,0.05c0.15,0.16,0.3,0.33,0.44,0.5c0.49,0.53,0.95,1.1,1.37,1.69c0.43,0.52,0.85,1.03,1.28,1.55
	c3.12,3.82,6.18,7.71,9.15,11.65c5.49,7.27,10.68,14.75,15.62,22.41c11.27,17.45,21.16,35.73,29.48,54.76
	c8.11,18.52,14.7,37.77,19.4,57.44c4.79,20.04,7.62,40.55,7.93,61.16c0,0.15,0,0.31,0,0.46c8.8-8.45,17.61-16.91,26.41-25.36
	c4.8-4.61,9.59-9.21,14.39-13.82c2.88-2.77,6.55-4.43,10.58-4.45c1.36-0.01,2.71,0.18,4,0.53c0.04,0,0.08,0,0.12,0
	c4.07,0.1,7.62,1.85,10.5,4.65c0.02,0.01,0.03,0.02,0.04,0.04c0.03,0.03,0.06,0.05,0.09,0.09c0.02,0.02,0.04,0.04,0.06,0.06
	c2.23,2.17,4.46,4.35,6.69,6.53c9.48-9.34,18.89-18.75,28.35-28.12c1.55-1.54,3.11-3.08,4.67-4.62c-1.29-1.25-2.57-2.5-3.86-3.75
	c-2.45-2.39-3.82-5.51-4.15-8.75c-2.71-5.4-2.27-12.4,2.15-16.89c9.98-10.12,19.96-20.25,29.93-30.38c1.52-1.55,3.05-3.09,4.57-4.64
	c2.82-2.87,6.29-4.72,10.36-4.93c0.51-0.03,1.02-0.03,1.53,0c1.64-0.5,3.37-0.73,5.11-0.65c4.07,0.2,7.57,2.03,10.39,4.89
	c0.13,0.13,0.27,0.27,0.39,0.4c0.07,0.07,0.13,0.13,0.2,0.2c10.92,11.14,21.91,22.23,32.86,33.35c7.92,8.04,15.84,16.07,23.76,24.11
	c1.13,1.14,2.26,2.29,3.38,3.43C927.54,267.76,928.77,271.39,928.73,275.04z"/>
<path class="st1" d="M542.93,440.06c8.8,14.55-6.57,24.31-18.76,28.56c-15.2,5.34-30.98,9.23-47.2,8.84
	c-7.35-0.55-15.47-0.38-21.97-4.27c-6.76-4.59-8.79-13.91-4.24-20.79c4.87-7.54,13.38-7.34,21-5.35
	c12.05,1.33,24.21-0.62,35.61-4.59c5.29-1.41,10.4-3.19,14.75-6.59C528.79,431.35,538.57,433.23,542.93,440.06z"/>
<path class="st1" d="M422.88,516.73c6.8,4.5,8.77,13.98,4.24,20.79c-3.23,4.84-7.73,8.77-13.07,11.13
	c-5.48,2.42-11.38,3.53-17.3,3.53c-2.97,0-5.95-0.28-8.89-0.81c-9.09-1.63-17.96-5.69-25.02-11.67c-0.01,0-0.02-0.01-0.02-0.02
	c-0.04-0.04-0.09-0.07-0.13-0.11c-6.21-5.31-6.71-15.08-1.38-21.17c2.58-2.95,6.28-4.78,10.18-5.07c4.05-0.3,7.9,1.1,10.99,3.69
	c0.04,0.04,0.09,0.07,0.13,0.11c0.05,0.04,0.1,0.09,0.15,0.13c0.02,0.01,0.03,0.02,0.05,0.04c0.84,0.61,1.71,1.17,2.59,1.71
	c1.02,0.54,2.05,1.03,3.11,1.49c1.04,0.38,2.08,0.71,3.14,1.02c0.95,0.21,1.89,0.39,2.85,0.54c0.86,0.08,1.72,0.12,2.58,0.15
	c0.66-0.03,1.32-0.07,1.97-0.14c0.48-0.08,0.95-0.18,1.43-0.29c0.29-0.09,0.58-0.19,0.87-0.3c0.16-0.07,0.31-0.15,0.46-0.23
	c0.07-0.04,0.13-0.09,0.2-0.13c0.04-0.05,0.07-0.11,0.11-0.16C406.63,514.17,416.04,512.21,422.88,516.73z"/>
<path class="st1" d="M445.84,585.24c19.79-0.91,21.8,28.01,2.19,29.92c-12.34,0.09-26.52,0.88-38.19-0.67
	c-6.44,4.95-14.85,7.23-22.74,4.79c-3.14-0.85-6.23-2.7-8.58-4.93c-0.32-0.31-0.64-0.62-0.95-0.95c-8.58-0.07-17.14-0.76-25.73-0.84
	c-6.01-0.42-12.29,1.32-17.69-2.39c-9.59-6.06-8.45-21.36,1.75-26.08c5.2-2.58,11.14-1.29,16.71-1.48
	c4.89-0.04,9.73,0.26,14.62,0.57c9.37,0.23,19.56-0.53,27.54,5.32c7.11-4.83,15.89-4.45,24.04-3.23
	C427.79,585.93,436.84,585.11,445.84,585.24z"/>
<path class="st1" d="M402.24,626.93c22.86-10.62,33.01,23.3,8.15,28.87c-7.29,2.18-15.04,2.78-22.39,0.51
	c-8.69-2.24-19.56-4.29-22.89-13.93c-3.63-9.7,4.8-20.73,15.12-19.86c3.11,0.18,6.31,1.06,8.71,2.98
	C394.72,627.04,397.2,628.67,402.24,626.93z"/>
<path class="st1" d="M316.64,447.06c21.98-3.38,29.58,34.06-10.19,30.65c-16.51-0.66-32.75-5.85-47.79-12.46
	c-8.95-4.31-20.58-9.94-18.28-21.9c2.6-12.91,17.48-15.59,26.7-7.45C282.21,443.3,299.59,449.68,316.64,447.06z"/>
<path class="st1" d="M628.62,257.43c2.21,3.45,3.34,7.23,2.63,11.36c-0.66,3.83-2.84,7.31-5.99,9.59c-2.56,1.86-5.69,2.84-8.83,2.84
	c-0.84,0-1.69-0.07-2.53-0.21c-3.66-0.63-7.55-2.79-9.59-5.99c-1.49-2.32-3.17-4.53-4.9-6.67c-4.67-5.52-9.76-10.66-15.01-15.62
	c-12.52-11.56-25.91-22.14-39.68-32.17c-16.43-11.77-33.41-22.73-51.06-32.58c-0.83-0.46-1.66-0.91-2.48-1.37
	c-9.61-5.16-19.38-9.96-29.52-13.99c-3.68-1.36-7.37-2.57-11.15-3.58c-1.25-0.26-2.5-0.49-3.77-0.68c-0.52-0.04-1.03-0.06-1.54-0.07
	c-6.84,2.53-14.88-0.35-18.43-6.9c-3.9-7.19-1.14-16.44,6.04-20.34c6.13-3.34,13.37-3.06,20.06-2.11c3.19,0.45,6.34,1.36,9.43,2.24
	c2.38,0.68,4.73,1.47,7.05,2.34c10.39,3.88,20.42,8.5,30.23,13.64c18.84,9.88,36.98,21.09,54.42,33.27
	c18.1,12.64,35.67,26.13,51.76,41.28c4.87,4.58,9.59,9.31,14.01,14.34C622.93,249.62,626.03,253.38,628.62,257.43z"/>
<path class="st1" d="M340.24,145.05c8.09,1.24,13.46,9.63,12.02,17.48c-0.71,3.85-2.95,7.32-6.16,9.56c-3.2,2.24-6.98,3-10.8,2.53
	c-0.43-0.03-0.86-0.05-1.29-0.06c-1,0.06-2,0.15-2.99,0.28c-2.43,0.43-4.82,1.02-7.2,1.68c-5.48,1.71-10.82,3.8-16.08,6.1
	c-11.56,5.23-22.69,11.35-33.55,17.91c-16.04,9.84-31.47,20.67-46.22,32.36c-11.13,8.94-21.88,18.38-31.87,28.58
	c-4.61,4.83-9.04,9.82-13.09,15.14c-0.86,1.17-1.7,2.36-2.5,3.57c-2.89,4.36-7.77,6.79-12.71,6.79c-2.77,0-5.57-0.76-8.05-2.38
	c-6.8-4.42-8.93-13.94-4.41-20.75c4.95-7.45,10.79-14.3,16.93-20.79c7.16-7.57,14.73-14.71,22.57-21.56
	c14.89-13,30.73-24.98,47.16-35.96c16.23-10.84,33.13-21.02,50.93-29.1c7.72-3.5,15.54-6.66,23.69-9.02
	C324.26,145.22,332.33,143.84,340.24,145.05z"/>
</svg>
