<?xml version="1.0" encoding="utf-8"?>
<!-- Generator: Adobe Adobe Illustrator 24.2.0, SVG Export Plug-In . SVG Version: 6.00 Build 0)  -->
<svg version="1.1" id="Capa_de_vector_1_" xmlns="http://www.w3.org/2000/svg" xmlns:xlink="http://www.w3.org/1999/xlink" x="0px"
	 y="0px" viewBox="0 0 1000 1000" style="enable-background:new 0 0 1000 1000;" xml:space="preserve">
<style type="text/css">
	.st0{fill:#AF9786;}
</style>
<path class="st0" d="M268.13,509.15c-27.07-1.88-53.26-9-79.41-15.77c-26.01-5.91-52.31-11.79-76.44-23.5
	c-21.06-10.63-5.18-40.05,19.31-24.22c23.42,10.52,49.03,14.47,73.72,20.98c17.82,4.41,35.49,9.54,53.8,11.45
	c37.1,4.66,74.63-0.54,111.76-2.92c32.82-2.82,64.39-12.61,96.37-19.89c22.73-7.06,46.57-10.7,70.22-6.43
	c28.42,3.54,54.88,15.4,82.74,21.42c40.46,8.08,82.63,8.96,123.49,3.48c31.77-5.94,63.82-10.14,95.52-16.42
	c8.9-2.02,17.82-4.09,26.51-6.88c7.78-2.22,14.63-9.15,23.14-6.74c12.44,2.91,15.12,21.49,3.56,27.48c-4.78,2.55-9.72,5-14.82,6.84
	c-29.41,9.72-60.29,13.86-90.79,18.65c-22.17,3.52-44.14,8.58-66.61,9.75c-29.79,1.39-59.83,0.57-89.38-3.62
	c-41.26-5.6-79.55-27.36-121.84-25.7c-39.36,5.64-77.06,20.36-116.59,25.59c-25.93,3.57-52.17,5.1-78.3,6.44
	C298.75,509.31,283.45,511.08,268.13,509.15z"/>
<path class="st0" d="M464.12,544.69c-19.53-4.07-38.74-10.93-56.09-20.83c-9.04-5.16-17.62-11.21-25.29-18.26
	c-6.02-5.53-5.7-15.58-0.11-21.22c2.73-2.76,6.52-4.38,10.4-4.45c4.12-0.07,7.82,1.59,10.82,4.34c0.3,0.27,0.6,0.54,0.9,0.81
	c3.52,3,7.21,5.78,11.03,8.36c4.85,3.15,9.89,5.99,15.07,8.57c6.56,3.13,13.3,5.84,20.18,8.16c7.98,2.57,16.11,4.63,24.35,6.2
	c8.42,1.5,16.92,2.49,25.45,2.97c8.09,0.35,16.2,0.23,24.28-0.39c6.84-0.62,13.65-1.61,20.37-3.02c5.36-1.21,10.66-2.69,15.86-4.49
	c4.11-1.51,8.14-3.21,12.07-5.15c3.08-1.6,6.07-3.35,8.96-5.26c2.22-1.56,4.36-3.21,6.42-4.98c1.68-1.54,3.29-3.15,4.81-4.84
	c1.23-1.46,2.38-2.97,3.47-4.54c0-0.01,0.01-0.01,0.02-0.02c4.66-6.71,14.75-7.63,21.03-2.84c3.08,2.35,5.17,5.89,5.75,9.72
	c0.62,4.14-0.61,7.91-2.9,11.31c0,0-0.01,0.01-0.01,0.01c-0.01,0.01-0.01,0.02-0.02,0.02c-9.8,14.11-24.55,24.13-40.06,31.05
	c-18.19,8.11-38.11,11.94-57.9,13.23c-4.3,0.28-8.61,0.42-12.92,0.42C494.65,549.58,479.21,547.83,464.12,544.69z"/>
<path class="st0" d="M101.33,465.47c-7.89-2.13-12.71-10.51-10.57-18.4c1.97-7.2,8.78-10.96,14.36-15.16
	c16.33-10.81,32.46-21.96,49.27-32.01c32.27-22.27,65.05-43.95,99.95-61.92c71.47-37.5,174.34-98.1,243.67-26.46
	c12.69,9.76,11,28.41-6.5,29.92c-11.81-0.24-16.46-13.52-26.16-18.4c-11.82-10.35-27.14-13.82-42.5-14.58
	c-34.88-2.03-67.2,13.86-98.46,27.18c-36.48,17.54-71.03,36.22-105.49,57.15c-26.28,17.72-52.93,34.85-79.38,52.29
	c-7.66,5.2-15.69,9.87-22.94,15.66C112.91,465,106.82,467,101.33,465.47z"/>
<path class="st0" d="M882.77,460.44c-19.25-11.13-37.14-24.37-56.44-35.4c-43.64-24.47-87.94-47.8-130.29-74.57
	c-46.84-28.9-94.17-63.8-149.69-33.4c-6.8,3.59-13.57,7.28-20.11,11.34c-11.01,6-19.67,21.36-33.74,17.65
	c-13.86-3.34-14.67-24.37-1.06-28.58c10.31-8.82,21.37-16.72,33.45-22.93c71.36-41.52,125.17-8.89,187.13,30.52
	c38.69,23.97,78.32,46.35,118.51,67.62c23.19,12.88,44.69,28.41,67.49,41.9C914.61,444.96,900.02,470.11,882.77,460.44z"/>
<path class="st0" d="M877.74,454.67c-0.04-8.14,6.76-15.08,14.93-15.08s15.04,6.73,15.08,14.93c0.04,8.14-6.76,15.08-14.93,15.08
	S877.78,462.87,877.74,454.67z"/>
<path class="st0" d="M422.21,715.7c-24.11-2.41-48.63-3.81-72.1-10.14c-18.79-6.36-38.1-11.59-54.7-22.86
	c-13.68-6.95-25.23-16.89-37.04-26.53c-24.85-18.91-45.92-42.42-65.6-66.52c-13.44-17.37-29.29-32.64-41.6-50.93
	c-11.21-14.56-24.98-27.01-34.89-42.58c-3.51-5.16-7.07-10.27-11-15.12c-3.86-4.77-8.69-9.12-10.25-15.27
	c-2.02-7.92,2.87-16.22,10.8-18.26c7.03-1.81,14.4,1.87,17.36,8.28c11.1,12.14,19.13,26.58,29.68,39.14
	c14.25,14.63,26.15,31.17,38.6,47.26c24.38,26.31,45.08,56.01,72.19,79.8c11.35,9.14,22.67,18.37,34.13,27.37
	c8.87,5.42,17.97,10.52,27.04,15.62c8.59,3.97,17.91,6.03,26.71,9.49c15.78,5.94,32.7,6.88,49.26,9.02
	c20.96,2.42,38.32,3.92,58.2,4.55c39-1.32,78.01-0.24,117.01-0.94c72.06-3.44,104.83-15.33,158.41-63.76
	c37.63-31.23,73.55-65.25,103.76-103.79c16.22-19.72,29.18-41.78,38.71-65.45c5.79-18.61,33.79-11.06,28.85,8.23
	c-19.41,52.45-57.54,94.97-96.43,134.06c-33.06,31.28-66.92,62.12-104.43,88.03c-50,31.21-111.31,33.58-168.64,32.94
	C498.22,716.02,460.11,720.2,422.21,715.7z"/>
</svg>
