<?xml version="1.0" encoding="utf-8"?>
<!-- Generator: Adobe Adobe Illustrator 24.2.0, SVG Export Plug-In . SVG Version: 6.00 Build 0)  -->
<svg version="1.1" id="Capa_de_vector_1_" xmlns="http://www.w3.org/2000/svg" xmlns:xlink="http://www.w3.org/1999/xlink" x="0px"
	 y="0px" viewBox="0 0 300 300" style="enable-background:new 0 0 300 300;" xml:space="preserve">
<style type="text/css">
	.st0{fill:#C7CCAC;}
</style>
<path class="st0" d="M161.19,186.57c-3.94-0.97-3.82-6.9-0.02-7.84c1.05-1.05,2.2-2.11,3.78-2.07c3.4-0.15,5.4,4.52,2.83,6.83
	C166.04,185.17,163.82,187.29,161.19,186.57z"/>
<path class="st0" d="M171.21,172.32c-0.45-3.05,2.48-4.88,4.18-6.96c2.31-2.58,6.97-0.57,6.83,2.83c0,2.29-2.08,3.66-3.42,5.24
	C177.34,176.99,171.62,176.21,171.21,172.32z"/>
<path class="st0" d="M181.73,156.45c0-1.39,0.78-2.61,1.41-3.79c1.23-2.67,3.09-6.31,6.64-4.8c4.65,2.29,1.38,6.71-0.27,9.88
	C188.13,161.93,181.72,160.9,181.73,156.45z"/>
<path class="st0" d="M190.49,143.54c-3.88-2.32-0.74-6.76-0.02-9.98c0.65-2.08,2.77-3.39,4.92-2.8c4.24,1.41,2.81,5.44,1.63,8.58
	C196.33,142.53,193.97,145.35,190.49,143.54z"/>
<path class="st0" d="M194.94,125.16c-3.28-1.88-1.84-6.06-1.6-9.09c0.25-2.16,2.38-3.71,4.51-3.42c4.18,0.66,3.5,5,2.98,8.11
	C201.8,124.01,197.81,126.99,194.94,125.16z"/>
<path class="st0" d="M214.97,191.73c-1.32-1.67-1.1-4.32,0.65-5.62c3.07-2.27,6.01-4.7,8.48-6.89c4.14-3.74,8.03-7.73,11.69-11.94
	c3.38-3.99,6.53-8.15,9.43-12.5c2.74-4.19,5.23-8.53,7.23-12.55c1.98-4.07,3.73-8.24,5.2-12.52c1.23-3.71,2.24-7.49,2.99-11.33
	c0.55-3.04,0.94-6.09,1.12-9.17c0.11-2.45,0.1-4.91-0.06-7.15c-0.01-0.08-0.01-0.16-0.02-0.24l-0.01-0.08
	c-0.06-0.71-0.14-1.43-0.23-2.14c0,0,0,0,0-0.01c-0.26-2.16,1.17-4.22,3.37-4.55c2.12-0.32,4.27,1.2,4.55,3.37c0,0,0,0,0,0.01
	c0,0.01,0,0.01,0,0.02c0,0.03,0.01,0.07,0.01,0.1c1.28,10.29-0.18,20.82-3.18,30.7c-4.35,14.34-11.82,27.75-21.17,39.43
	c-7.12,8.89-15.28,16.96-24.44,23.74c-0.75,0.56-1.64,0.84-2.51,0.84C216.9,193.22,215.76,192.73,214.97,191.73z"/>
<path class="st0" d="M254.69,111.62c-4.19-3.61,1.4-8.08,3.31-11.38c2.32-3.39,6.01-8.58,9.81-3.62c1,1.71,0.55,3.78-0.78,4.99
	c-2.44,2.94-4.54,6.15-6.72,9.29C259.06,112.68,256.35,112.9,254.69,111.62z"/>
<path class="st0" d="M271.18,108.78c-2.28-2.44-4.47-4.96-6.76-7.39c-0.91-0.63-1.57-1.62-1.69-2.78c-0.46-3.21,3.19-5.71,6-4.01
	c3.23,2.74,5.84,6.23,8.78,9.29C280.66,108.05,274.44,112.88,271.18,108.78z"/>
<path class="st0" d="M262.12,97.85c0-2.18,1.82-4,4-4s4,1.82,4,4s-1.82,4-4,4S262.12,100.03,262.12,97.85z"/>
<path class="st0" d="M209.47,150.68c-0.37-3.76,3.07-4.93,6.2-4.6c2.29-0.27,4.26-1.55,6.17-2.74c4.63-1.92,6.65-6.49,8.72-10.72
	c2.34-4.64,4.04-10.46,1.44-15.33c-1.31-2.49-3.16-5.29-5.9-6.29c-5.83,2.62-8.44-6.48-2.33-7.78c8.09-1.54,14.15,6.62,16.57,13.39
	c1.57,4.05,1,8.46,0.09,12.59c-0.89,3.97-3.01,7.57-4.87,11.14c-1.81,3.68-4.42,6.93-8.03,8.97
	C223.69,152.07,211.13,158.13,209.47,150.68z M227.69,105.46c0.24,0.47,0.41,0.95,0.49,1.45
	C228.12,106.39,227.93,105.91,227.69,105.46C227.69,105.46,227.69,105.46,227.69,105.46z"/>
<path class="st0" d="M60.76,126.22c-0.11-6.6,1.72-13.5,7.04-17.8c3.64-3.12,9.67-6.8,14.54-5.07c3.03,1.68,2.34,6.57-1.02,7.34
	c-2.93,0.31-5.73,1.49-7.94,3.47c-3.76,2.86-4.68,7.6-4.62,12.07C68.66,131.46,60.9,131.48,60.76,126.22z"/>
<path class="st0" d="M216.11,124.17c-2.1-0.58-3.38-2.82-2.79-4.92c0.42-1.51,0.78-3.03,1.1-4.55c0.26-1.33,0.49-2.67,0.68-4.01
	c0-0.01,0-0.03,0.01-0.04c0.19-1.43,0.34-2.87,0.45-4.31c0-0.08,0.01-0.16,0.02-0.24c0.17-2.82,0.17-5.65,0-8.47
	c-0.21-3-0.62-5.98-1.21-8.93c-0.59-2.77-1.34-5.5-2.17-7.92c-0.03-0.09-0.07-0.18-0.1-0.28l0-0.01c-0.93-2.6-1.99-5.14-3.21-7.61
	c-1.29-2.54-2.72-4.99-4.29-7.35c-1.56-2.27-3.24-4.45-5.05-6.53c-1.81-2.04-3.73-3.96-5.76-5.77c-2.15-1.88-4.41-3.63-6.78-5.23
	c-2.24-1.48-4.56-2.84-6.95-4.07c-2.52-1.25-5.1-2.35-7.74-3.29c-2.79-0.96-5.63-1.74-8.52-2.35c-2.84-0.55-5.7-0.94-8.59-1.16
	c-2.91-0.17-5.82-0.17-8.73,0c-2.96,0.22-5.9,0.62-8.81,1.21c-2.75,0.59-5.46,1.34-8.12,2.24c-2.63,0.94-5.2,2.02-7.7,3.25
	c-2.55,1.29-5.02,2.74-7.4,4.33c-2.28,1.56-4.46,3.25-6.54,5.07c-1.96,1.76-3.82,3.62-5.58,5.58c-1.89,2.16-3.65,4.43-5.27,6.8
	c-1.54,2.31-2.94,4.71-4.2,7.19c-1.22,2.49-2.3,5.04-3.24,7.65c-0.91,2.68-1.67,5.4-2.27,8.17c-0.6,2.95-1.01,5.94-1.22,8.95
	c-0.17,2.85-0.17,5.71,0,8.56c0.22,3.01,0.62,5.99,1.22,8.95c0.29,1.38,0.63,2.75,1,4.1c0.58,2.1-0.7,4.34-2.8,4.92
	c-2.1,0.58-4.34-0.7-4.92-2.8c-2.09-7.57-2.96-15.48-2.54-23.32c0.68-12.41,4.53-24.54,11.16-35.05
	c7.32-11.6,17.88-20.86,30.2-26.82c11.97-5.79,25.47-7.98,38.67-6.74c13.76,1.3,27.13,6.8,37.95,15.38
	c8.63,6.84,15.61,15.61,20.41,25.52c4.11,8.47,6.48,17.73,7.07,27.12c0.11,1.82,0.16,3.65,0.14,5.47c-0.01,0.77-0.04,1.53-0.07,2.29
	c-0.02,0.35-0.04,0.7-0.06,1.05c-0.01,0.14-0.02,0.28-0.03,0.42c-0.01,0.44-0.06,0.89-0.09,1.33c-0.1,1.22-0.23,2.45-0.4,3.66
	c0,0.03-0.01,0.05-0.01,0.08c0,0.03-0.01,0.07-0.01,0.1c-0.45,3.24-1.11,6.46-1.99,9.62c-0.49,1.75-2.13,2.93-3.89,2.93
	C216.8,124.31,216.46,124.26,216.11,124.17z"/>
<path class="st0" d="M135.11,206.73c-3.35-1.15-6.56-2.77-9.57-4.64c-4.22-2.62-8.12-5.73-11.66-9.21
	c-3.48-3.42-6.61-7.2-9.35-11.24c-0.04-0.04-0.07-0.09-0.1-0.14c-0.02-0.04-0.04-0.07-0.07-0.11c-0.01-0.02-0.02-0.04-0.04-0.05
	c-1.21-1.81-0.42-4.41,1.38-5.48c1.95-1.17,4.27-0.43,5.49,1.38c0.01,0.02,0.02,0.03,0.03,0.05c0.12,0.17,0.24,0.35,0.36,0.52
	c1.61,2.3,3.36,4.5,5.23,6.59c1.85,2.02,3.82,3.93,5.89,5.73c1.44,1.21,2.92,2.36,4.45,3.45c0.38,0.26,0.75,0.52,1.13,0.77
	c0.01,0.01,0.03,0.02,0.04,0.03c0.63,0.42,1.28,0.82,1.93,1.21c1.1,0.66,2.21,1.27,3.36,1.84c1.5,0.72,3.04,1.37,4.36,1.84
	c0.09,0.03,0.17,0.06,0.26,0.09h0c1.22,0.4,2.45,0.73,3.71,0.99c0.58,0.11,1.17,0.2,1.76,0.26c0.37,0.11,0.74,0.22,1.11,0.33
	c1.28,0.36,2.61,0.7,3.93,0.84c0.68,0.07,1.36,0.13,2.05,0.14c0.14,0,0.27,0,0.41,0c0.57,0,1.14-0.02,1.71-0.05
	c0.03,0,0.06,0,0.09-0.01c0.32,0.41,0.57,0.87,0.71,1.36c0.57,2-0.61,4.48-2.74,4.95c-0.25,0.05-0.51,0.11-0.77,0.16
	c-0.11,0.02-0.22,0.04-0.34,0.05c-1.32,0.22-2.64,0.32-3.96,0.32C142.25,208.71,138.6,207.93,135.11,206.73z"/>
<path class="st0" d="M158.3,201.05C158.3,201.05,158.29,201.05,158.3,201.05c-0.01,0-0.01,0-0.01,0
	C158.29,201.05,158.3,201.05,158.3,201.05z"/>
<path class="st0" d="M156.78,201.34C156.78,201.34,156.77,201.34,156.78,201.34C156.77,201.34,156.77,201.34,156.78,201.34
	c-0.01,0-0.01,0-0.01,0C156.77,201.34,156.77,201.34,156.78,201.34z"/>
<path class="st0" d="M149.39,207.96c-0.05-0.01-0.11-0.02-0.16-0.04c-0.01,0-0.02-0.01-0.04-0.01c-2.11-0.54-3.36-2.86-2.79-4.92
	c0.15-0.55,0.42-1.05,0.76-1.46c0.52,0.11,1.04,0.19,1.56,0.25c0.68,0.07,1.36,0.13,2.05,0.14c0.14,0,0.28,0,0.41,0
	c0.57,0,1.14-0.02,1.71-0.05c1.28-0.07,2.56-0.29,3.82-0.53c0,0,0,0,0,0c0,0,0,0,0,0c0.02,0,0.03-0.01,0.05-0.01c0,0,0,0,0,0
	c0.01,0,0.01,0,0.02,0c0,0,0,0,0,0c0.5-0.09,1-0.18,1.5-0.28c0,0,0,0,0,0c0,0-0.01,0-0.01,0c0.01,0,0.01,0,0.01,0c0,0,0,0,0.01,0
	c0.01,0,0.02,0,0.03,0c0.02,0,0.05-0.01,0.07-0.01c-0.02,0-0.04,0.01-0.06,0.01c0,0-0.01,0-0.01,0c-0.01,0-0.01,0-0.02,0
	c0.01,0,0.02,0,0.03-0.01c0.04-0.01,0.07-0.01,0.1-0.02c0,0,0,0,0,0c-0.01,0-0.02,0-0.04,0.01c0.01,0,0.02,0,0.04-0.01
	c1.3-0.25,2.59-0.55,3.88-0.83c0.13-0.03,0.25-0.08,0.36-0.14c0.8-0.2,1.59-0.43,2.37-0.69c1.5-0.53,2.95-1.15,4.38-1.84
	c1.7-0.87,3.34-1.84,4.93-2.9c1.95-1.34,3.82-2.8,5.6-4.37c2.15-1.92,4.17-3.96,5.91-5.92c0.1-0.11,0.19-0.21,0.29-0.32l0.01-0.02
	c2.44-2.8,4.7-5.75,6.8-8.82c2.75-4.07,5.2-8.32,7.18-12.24c2.57-5.1,4.78-10.38,6.67-15.76c2-5.78,3.62-11.68,4.86-17.67
	c0.79-3.91,1.41-7.84,1.85-11.8c0.24-2.17,2.39-3.71,4.51-3.41c2.2,0.3,3.66,2.35,3.41,4.51c-0.62,5.59-1.61,11.14-2.9,16.62
	c-2.07,8.83-4.99,17.48-8.71,25.75c-2.45,5.45-5.26,10.74-8.47,15.77c-3.63,5.68-7.75,11.06-12.5,15.86
	c-6.39,6.46-14.06,12.02-22.85,14.62c-3.06,0.91-6.24,1.39-9.42,1.39C154.17,208.83,151.76,208.55,149.39,207.96z"/>
<path class="st0" d="M142.49,248.68c-5.95-0.6-11.82-2.26-17.05-5.19c-5.6-3.13-10.55-8.39-11.79-14.86
	c-0.05-0.29-0.11-0.57-0.16-0.86c-0.34-2.15,1.4-4.2,3.5-4.45c2.23-0.27,4.11,1.34,4.45,3.49c0,0.01,0,0.03,0.01,0.04
	c0.1,0.45,0.22,0.89,0.35,1.34c0.17,0.47,0.36,0.93,0.56,1.39c0.23,0.44,0.47,0.87,0.73,1.29c0.34,0.5,0.7,0.99,1.08,1.45
	c0.47,0.53,0.97,1.04,1.48,1.53c0.61,0.53,1.24,1.03,1.89,1.5c0.88,0.6,1.78,1.14,2.71,1.65c1.19,0.6,2.41,1.14,3.65,1.61
	c1.55,0.55,3.13,1,4.73,1.36c1.86,0.39,3.73,0.67,5.63,0.84c2.16,0.16,4.31,0.2,6.48,0.11c2.26-0.13,4.5-0.39,6.73-0.79
	c2-0.39,3.97-0.88,5.91-1.49c1.84-0.61,3.63-1.31,5.38-2.13c1.41-0.69,2.79-1.46,4.12-2.31c1.01-0.68,1.99-1.4,2.92-2.17
	c0.77-0.67,1.51-1.38,2.21-2.12c0.56-0.63,1.09-1.28,1.59-1.97c0.11-0.16,0.21-0.31,0.31-0.47c1.18-1.83,3.59-2.5,5.5-1.34
	c1.82,1.11,2.53,3.66,1.34,5.5c-3.91,6.07-10.15,10.32-16.71,13.08c-6.82,2.87-14.25,4.27-21.65,4.27
	C146.41,248.98,144.45,248.88,142.49,248.68z"/>
<path class="st0" d="M210.05,288.6c0.23-5.97-1.42-11.8-4.02-17.14c-1.58-2.81-4.72-5.75-1.26-8.64c4.26-3,7.26,2.57,8.8,5.87
	c2.21,4.31,8.92,23.7,0.49,23.91C211.84,292.6,210.11,290.78,210.05,288.6z"/>
<path class="st0" d="M84.56,293c-5.5-1.73-2.25-10.79-1.39-14.84c1.46-5.16,4.12-10.17,8.25-13.64c3.82-3.59,9.3,1.87,5.66,5.66
	c-1.66,1.46-3.21,3.1-4.19,5.11c-1.86,3.86-3.1,7.99-3.36,12.27C90.2,290.73,87.94,293.82,84.56,293z"/>
<path class="st0" d="M238.71,288.51c1.51-24.55-0.82-38.95-26.7-46.76c-16.22-3.66-36.21-10.07-40.27-28.45
	c-0.6-2.85-1.78-5.59-2.24-8.45c0-2.18,1.82-4,4-4c6.61-0.14,3.83,15.29,12.62,21.64c7.23,6.04,16.29,8.93,25.37,10.75
	c7.38,2.27,14.87,4.92,21.11,9.59c11.82,8.33,15.1,23.66,14.37,37.34c0,2.79-0.21,5.56-0.25,8.34
	C246.57,293.73,238.84,293.78,238.71,288.51z"/>
<path class="st0" d="M57.39,287.95c-2.14-0.09-3.97-1.98-3.84-4.16c0.2-11.76,1.12-23.89,6.5-34.56
	c11.67-18.72,26.08-12.89,43.49-20.72c9.34-3.45,14.26-10.28,17.61-19.36c1.44-2.84,1.49-7.03,4.66-8.52
	c1.99-0.87,4.44,0.38,5.16,2.35c0.76,1.47-0.35,3.47-0.74,4.66c-1.39,3.73-2.71,7.46-4.59,10.98
	c-6.79,15.25-24.17,20.21-39.28,22.96c-17.54,2.07-21.95,13.54-24.18,29.25c-0.43,4.41-0.36,8.86-0.62,13.29
	C61.42,286.29,59.58,288.05,57.39,287.95z"/>
<path class="st0" d="M217.9,100.94c-1.1-0.01-2.02-0.48-2.82-1.2c-0.18-0.17-0.37-0.34-0.55-0.5c-0.03-0.03-0.07-0.06-0.1-0.09
	c-0.07-0.06-0.14-0.12-0.2-0.18c-0.82-0.73-1.66-1.46-2.5-2.17c-2.81-2.37-5.73-4.61-8.75-6.72c-3.82-2.63-7.8-5.04-11.91-7.18
	c-3.91-2.01-7.94-3.77-12.08-5.26c-3.78-1.34-7.63-2.45-11.55-3.31c-3.87-0.83-7.78-1.41-11.73-1.74
	c-3.82-0.29-7.66-0.33-11.49-0.13c-3.73,0.23-7.43,0.7-11.1,1.39c-3.65,0.73-7.25,1.68-10.69,2.82c-3.52,1.2-6.97,2.62-10.32,4.24
	c-3.37,1.68-6.64,3.55-9.55,5.44c-0.11,0.08-0.23,0.15-0.34,0.23l-0.01,0.01c-3.36,2.25-6.58,4.7-9.65,7.34
	c-2.12,1.85-4.17,3.78-6.13,5.8c-1.52,1.57-4.16,1.47-5.66-0.06c-1.55-1.59-1.46-4.09,0.06-5.66c7.92-8.15,17.2-15.07,27.39-20.09
	c11.4-5.61,23.78-8.86,36.48-9.48c6.56-0.32,13.17,0.09,19.66,1.16c5.83,0.96,11.58,2.46,17.15,4.46
	c6.49,2.33,12.74,5.26,18.69,8.76c5.63,3.32,10.98,7.12,16,11.3c1.57,1.3,3.09,2.66,4.6,4.03c1.61,1.47,1.43,4.2-0.06,5.66
	c-0.74,0.72-1.76,1.14-2.8,1.14C217.93,100.94,217.92,100.94,217.9,100.94z"/>
<path class="st0" d="M69.75,106.15c-2.5-5.84-4.09-12.05-4.57-18.39c-0.57-7.58,0.41-15.23,2.84-22.43
	c4.7-13.9,14.29-25.6,26.05-34.2c10.85-7.94,23.56-13.31,36.68-16.13c13.56-2.91,27.63-3.26,41.3-0.89
	c11.45,1.98,22.65,5.88,32.65,11.84c9.8,5.84,18.45,13.66,24.66,23.27c5.78,8.94,9.16,19.36,9.45,30.02
	c0.25,8.92-1.72,17.89-5.5,25.96c-0.09,0.18-0.17,0.36-0.25,0.53c-0.46,0.95-1.13,1.72-2.11,2.14c-0.98,0.43-2.12,0.43-3.12,0.02
	c-1.93-0.8-3.11-3.27-2.16-5.23c0.95-1.98,1.78-4.01,2.5-6.09c0.72-2.17,1.31-4.37,1.76-6.6c0.4-2.14,0.67-4.29,0.82-6.47
	c0.11-2.09,0.09-4.19-0.04-6.28c-0.18-2.15-0.48-4.29-0.9-6.41c-0.48-2.18-1.08-4.33-1.82-6.44c-0.77-2.11-1.66-4.17-2.67-6.18
	c-1.06-2.03-2.22-3.99-3.5-5.89c-1.47-2.13-3.07-4.17-4.78-6.11c-1.84-2.03-3.79-3.95-5.85-5.76c-2.35-2.02-4.81-3.88-7.38-5.61
	c-2.73-1.79-5.56-3.41-8.47-4.88c-3.43-1.68-6.96-3.14-10.57-4.39c-3.99-1.34-8.06-2.41-11.67-3.13c-4.29-0.84-8.61-1.4-12.97-1.7
	c-4.57-0.27-9.15-0.25-13.72,0.06c-4.49,0.35-8.96,0.97-13.38,1.88c-4.19,0.91-8.33,2.06-12.38,3.48
	c-3.63,1.31-7.19,2.83-10.64,4.56c-3.22,1.66-6.35,3.5-9.35,5.53c-2.66,1.85-5.21,3.84-7.64,5.98c-2.17,1.96-4.22,4.04-6.16,6.24
	c-1.69,1.98-3.28,4.05-4.74,6.21c-1.36,2.08-2.61,4.22-3.73,6.43c-1.03,2.12-1.93,4.28-2.71,6.5c-0.72,2.18-1.31,4.38-1.77,6.63
	c-0.39,2.08-0.66,4.17-0.81,6.28c-0.12,2.14-0.11,4.28,0.03,6.41c0.18,2.2,0.49,4.38,0.93,6.54c0.47,2.12,1.06,4.21,1.77,6.26
	c0.4,1.09,0.83,2.18,1.28,3.25c0.86,2-0.09,4.39-2.09,5.26c-0.5,0.22-1.03,0.32-1.55,0.32C71.9,108.57,70.39,107.65,69.75,106.15z"
	/>
<path class="st0" d="M35.4,245.67c-5.58-1.2-9.87-5.29-12.77-10.02c-2.75-4.48-4.19-9.73-4.69-14.93c-0.32-3.32-0.19-6.69,0.34-9.98
	c0.34-2.15,2.54-3.6,4.65-3.22c2.18,0.39,3.57,2.5,3.22,4.65c-0.07,0.45-0.13,0.9-0.19,1.35c-0.15,1.4-0.21,2.8-0.19,4.21
	c0.05,1.42,0.17,2.84,0.38,4.25c0.23,1.33,0.52,2.64,0.89,3.94c0.34,1.1,0.74,2.18,1.2,3.24c0.41,0.89,0.86,1.75,1.36,2.59
	c0.41,0.65,0.85,1.27,1.32,1.88c0.44,0.53,0.91,1.04,1.4,1.53c0.37,0.34,0.76,0.67,1.16,0.98c0.38,0.27,0.77,0.53,1.17,0.77
	c0.38,0.2,0.77,0.39,1.17,0.56c0.33,0.12,0.67,0.23,1.01,0.32c0.34,0.07,0.67,0.14,1.01,0.18c0.32,0.03,0.63,0.04,0.95,0.04
	c0.28-0.02,0.56-0.04,0.83-0.07c0.35-0.07,0.7-0.14,1.04-0.23c0.35-0.12,0.69-0.24,1.02-0.38c0.34-0.16,0.67-0.34,0.99-0.53
	c0.37-0.24,0.74-0.5,1.09-0.77c0.4-0.34,0.79-0.7,1.16-1.07c0.42-0.46,0.82-0.94,1.2-1.43c0.45-0.64,0.87-1.29,1.26-1.97
	c0.44-0.82,0.84-1.66,1.19-2.53c0.4-1.05,0.75-2.12,1.03-3.21c0.3-1.26,0.53-2.54,0.69-3.83c0.15-1.47,0.21-2.96,0.19-4.44
	c-0.05-1.36-0.18-2.72-0.38-4.07c-0.19-1.14-0.44-2.27-0.74-3.39c-0.57-2.11,0.95-4.32,3.01-4.79c2.2-0.5,4.21,0.91,4.79,3
	c0.01,0.02,0.01,0.05,0.02,0.07c0.01,0.02,0.01,0.04,0.02,0.06c0,0.01,0.01,0.02,0.01,0.03c0,0.02,0.01,0.04,0.01,0.06
	c1.72,6.56,1.69,13.59-0.1,20.12c-1.13,4.14-3.1,8.18-6,11.38c-1.95,2.14-4.26,3.81-6.93,4.92c-1.75,0.72-3.66,1.07-5.56,1.07
	C37.56,246.02,36.47,245.9,35.4,245.67z"/>
<path class="st0" d="M38.15,207.84c-0.02-2.16,1.78-4.04,3.96-4.04c6.66,0,13.32-0.11,19.98-0.16c0.75-0.01,1.5-0.01,2.25-0.02
	c2.18-0.02,4.02,1.77,4.05,3.95c0.02,2.18-1.78,4.02-3.96,4.05c-0.23,0-0.45,0-0.68,0.01c-0.04,0-0.08,0-0.13,0
	c-6.12,0.05-12.25,0.1-18.37,0.15c-1.01,0.01-2.03,0.02-3.04,0.02C40.01,211.79,38.17,210.04,38.15,207.84z"/>
<path class="st0" d="M64.53,210.54c-2.23-0.09-3.85-1.98-3.83-4.16c0.05-7.27,0.09-14.54,0.15-21.8c0.02-2.18,2.04-3.92,4.16-3.83
	c2.23,0.09,3.84,1.98,3.83,4.16c0,0.19,0,0.38,0,0.58c0,0.02,0,0.04,0,0.07c-0.06,7.05-0.09,14.1-0.14,21.16
	c-0.02,2.13-1.95,3.83-4.01,3.84C64.63,210.55,64.58,210.55,64.53,210.54z"/>
<path class="st0" d="M37.33,207.4c0.12-6.51,0.25-13.02,0.37-19.54c0.02-0.91,0.03-1.81,0.05-2.72c0-0.01,0-0.01,0-0.02
	c0-0.02,0-0.05,0-0.07c0-0.03,0-0.05,0-0.08c0-0.09,0-0.17,0-0.25c0.04-2.18,1.71-4.02,3.95-4.05c2.12-0.03,4.09,1.77,4.05,3.95
	c0,0.08,0,0.15,0,0.23c0,0.04,0,0.09,0,0.13c-0.12,6.47-0.25,12.94-0.37,19.4c-0.02,0.97-0.04,1.95-0.05,2.92
	c-0.04,2.18-1.71,4.02-3.95,4.05c-0.02,0-0.03,0-0.05,0C39.23,211.34,37.29,209.56,37.33,207.4z"/>
<path class="st0" d="M82.51,170.47c0-8.87-0.01-17.73-0.02-26.6c-0.01-6.77-0.01-13.54-0.02-20.31c0,0,0-0.01,0-0.01
	c0-0.08,0-0.17,0-0.25c0-2.18,1.74-4.03,3.94-4.06c2.16-0.03,4.05,1.76,4.06,3.94c0.01,12.26,0.02,24.51,0.02,36.77
	c0,3.44,0.01,6.87,0.01,10.31c0,0,0,0,0,0c0,0.03,0,0.06,0,0.09c0,2.18-1.74,4.03-3.94,4.06c-0.02,0-0.04,0-0.06,0
	C84.38,174.41,82.51,172.63,82.51,170.47z"/>
<path class="st0" d="M90.64,179.96c-2.07-1.91-4.15-3.81-6.22-5.72c-1.6-1.48-1.49-4.16,0-5.66c1.59-1.59,4.05-1.48,5.66,0
	c0.06,0.05,0.11,0.1,0.17,0.15c0.02,0.02,0.05,0.05,0.07,0.07c1.99,1.83,3.99,3.67,5.98,5.5c1.61,1.48,1.49,4.16,0,5.66
	c-0.78,0.78-1.77,1.15-2.77,1.15C92.5,181.11,91.46,180.71,90.64,179.96z"/>
<path class="st0" d="M91.33,177.93c0.02-1.06,0.46-2.08,1.22-2.81c0.79-0.77,1.77-1.07,2.85-1.13c3.86-0.17,7.72-0.33,11.58-0.52
	c2.18-0.1,3.96,1.99,3.93,4.07c-0.02,1.05-0.46,2.07-1.22,2.81c-0.79,0.77-1.77,1.07-2.85,1.12c0,0-0.01,0-0.01,0c0,0-0.01,0-0.01,0
	c-0.04,0-0.08,0-0.11,0c-3.81,0.19-7.61,0.35-11.42,0.52c-0.01,0-0.01,0-0.02,0c0,0,0,0,0,0c-0.05,0-0.1,0-0.15,0
	C93,181.99,91.3,179.96,91.33,177.93z"/>
<path class="st0" d="M104.07,180.04c-1.54-1.62-1.37-4.1,0.16-5.65c2.16-2.19,4.32-4.37,6.48-6.56c0.03-0.03,0.06-0.07,0.09-0.1
	c0.07-0.07,0.15-0.15,0.22-0.22c1.54-1.55,4.2-1.39,5.66,0.16c1.54,1.63,1.37,4.11-0.16,5.66c-0.07,0.07-0.13,0.13-0.2,0.2
	c-0.01,0.01-0.02,0.02-0.03,0.03c-0.01,0.01-0.02,0.01-0.02,0.02c-2.18,2.21-4.37,4.42-6.55,6.63c-0.72,0.73-1.7,1.08-2.69,1.08
	C105.95,181.28,104.84,180.85,104.07,180.04z"/>
<path class="st0" d="M114.21,174.09c-2.23-0.07-3.88-1.94-3.88-4.12c0-12.62-0.04-25.25-0.05-37.88c0-1.19,0-2.38,0-3.58
	c0,0,0-0.01,0-0.01c0-0.07,0-0.13,0-0.2c0-2.18,1.99-3.95,4.12-3.88c2.23,0.07,3.87,1.94,3.88,4.12c0.02,11.57,0.03,23.13,0.05,34.7
	c0,2.32,0.01,4.64,0.01,6.96c0,2.14-1.92,3.88-4,3.88C114.29,174.09,114.25,174.09,114.21,174.09z"/>
<path class="st0" d="M107.62,125.14c-4.58-0.13-9.16-0.24-13.74-0.36c-2.18-0.06-4.02-1.73-4.04-3.97
	c-0.02-2.12,1.79-4.09,3.97-4.04c4.58,0.12,9.16,0.23,13.74,0.36c2.18,0.06,4.02,1.73,4.04,3.97c0.02,2.08-1.73,4.03-3.87,4.03
	C107.69,125.14,107.66,125.14,107.62,125.14z"/>
<path class="st0" d="M84.67,127.83c-2.53-3.75,1.02-5.72,3.44-8.02c2.22-2.88,6.18-4.06,8.11-0.24c0.69,1.58,0.2,3.59-1.15,4.64
	C92.41,126.75,88.25,131.98,84.67,127.83z"/>
<path class="st0" d="M111.02,129.5c-1.39-1.48-2.75-2.98-4.06-4.53c-6.42-3.38,0.41-12.02,5.3-6.07c1.48,1.64,2.89,3.35,4.42,4.95
	c0.7,0.79,1.16,1.7,1.17,2.78C118.03,130.05,113.34,132.09,111.02,129.5z"/>
<path class="st0" d="M45.05,131.59c-0.09-2.19,1.65-4.06,3.83-4.16c0.01,0,0.01,0,0.02,0c0.01,0,0.03,0,0.04,0c0.03,0,0.06,0,0.09,0
	c11.59-0.55,23.18-1.11,34.77-1.66c2.18-0.11,4.07,1.66,4.16,3.83c0.09,2.19-1.65,4.06-3.83,4.16c-0.23,0.01-0.46,0.02-0.69,0.04
	c-0.04,0-0.07,0-0.11,0c-11.36,0.54-22.71,1.09-34.07,1.63c-0.02,0-0.03,0-0.05,0c-0.06,0-0.12,0-0.19,0
	C46.93,135.43,45.14,133.7,45.05,131.59z"/>
<path class="st0" d="M83.89,171.21c-5.35-0.01-10.7-0.01-16.05-0.02c-2.18,0-4-1.8-4.01-3.99c-0.01-2.17,1.81-4.02,3.99-4.01
	c0.04,0,0.08,0,0.12,0c0,0,0.01,0,0.01,0c5.31,0.01,10.61,0,15.92,0.02c2.18,0,4,1.8,4.01,3.99
	C87.89,169.37,86.07,171.21,83.89,171.21C83.9,171.21,83.89,171.21,83.89,171.21z"/>
<path class="st0" d="M35.66,184.26c-0.06-7.22-0.13-14.45-0.19-21.67c-0.05-6.35-0.11-12.7-0.17-19.04
	c-0.02-2.18,1.8-4.01,3.97-4.03c2.18-0.02,4.01,1.8,4.03,3.97c0.09,9.98,0.18,19.96,0.27,29.95c0.03,3.59,0.06,7.17,0.09,10.76
	c0.02,2.18-1.8,4.01-3.97,4.03c-0.01,0-0.02,0-0.03,0C37.49,188.24,35.68,186.43,35.66,184.26z"/>
<path class="st0" d="M67.89,188.74c-5.62-0.18-11.23-0.34-16.86-0.52c-3.63-0.11-7.25-0.23-10.88-0.33
	c-2.18-0.06-3.94-1.95-3.88-4.12c0.06-2.18,1.95-3.94,4.12-3.88c6.8,0.2,13.61,0.42,20.41,0.62c2.44,0.07,4.88,0.15,7.32,0.22
	c2.18,0.07,3.94,1.95,3.88,4.12c-0.06,2.14-1.88,3.88-4,3.88C67.97,188.74,67.93,188.74,67.89,188.74z"/>
<path class="st0" d="M64,184.4c0-2.5,0.03-5.01,0.04-7.52c0.02-2.88,0.04-5.76,0.05-8.64c0-0.14,0-0.29,0-0.44c0.01-2.18,1.8-4,4-4
	c2.17,0,4.01,1.82,4,4c0,0,0,0.01,0,0.01c0,0,0,0,0,0c-0.01,2.18-0.02,4.36-0.04,6.55c-0.02,3.11-0.04,6.23-0.05,9.34
	c0,0.23,0,0.46,0,0.68c0,2.18-1.81,4-4,4C65.82,188.4,64,186.58,64,184.4z"/>
<path class="st0" d="M38.64,147.28c-4.81-1-3.32-6.68-2.13-9.99c1.4-3.88,4.51-7.24,8.32-8.84c6.96-3.38,9.93,6.35,2.62,7.57
	c-2.32,1.23-3.73,3.86-4.08,6.37C43.5,145.19,41.66,147.72,38.64,147.28z"/>
<path class="st0" d="M142.13,208.87c-4.75-1.07-9.4-2.64-13.81-4.72c-0.01-0.01-0.03-0.01-0.04-0.02c-0.08-0.04-0.16-0.07-0.24-0.11
	c-1.95-0.97-2.79-3.39-1.83-5.36c0.97-1.97,3.39-2.76,5.36-1.82c0.08,0.04,0.16,0.07,0.24,0.11c0.04,0.02,0.09,0.04,0.13,0.06
	c0.76,0.36,1.54,0.69,2.32,1.02c2.38,0.96,4.81,1.78,7.28,2.46c2.27,0.59,4.56,1.06,6.88,1.4c2.16,0.29,4.32,0.46,6.5,0.48
	c1.74,0,3.48-0.09,5.21-0.29c1.3-0.17,2.58-0.4,3.85-0.7c1.13-0.29,2.23-0.64,3.32-1.06c0.78-0.33,1.55-0.69,2.29-1.09
	c0.08-0.05,0.15-0.09,0.23-0.14c0.03-0.02,0.06-0.04,0.09-0.06c0.06-0.04,0.12-0.07,0.18-0.11c1.86-1.15,4.32-0.7,5.54,1.16
	c1.18,1.8,0.68,4.38-1.16,5.54c-0.05,0.03-0.1,0.06-0.14,0.09c-0.01,0.01-0.03,0.02-0.04,0.03c-0.02,0.01-0.05,0.03-0.07,0.04
	c-3.91,2.35-8.38,3.65-12.89,4.2c-2.06,0.25-4.13,0.37-6.2,0.37C150.75,210.36,146.39,209.83,142.13,208.87z"/>
</svg>
