<?xml version="1.0" encoding="utf-8"?>
<!-- Generator: Adobe Adobe Illustrator 24.2.0, SVG Export Plug-In . SVG Version: 6.00 Build 0)  -->
<svg version="1.1" id="Capa_de_vector_1_" xmlns="http://www.w3.org/2000/svg" xmlns:xlink="http://www.w3.org/1999/xlink" x="0px"
	 y="0px" viewBox="0 0 300 300" style="enable-background:new 0 0 300 300;" xml:space="preserve">
<style type="text/css">
	.st0{fill:#C7CCAC;}
</style>
<path class="st0" d="M259.99,98.21c-2.93-1.04-5.39-3.04-7.12-5.61c-1.49-2.21-2.32-4.99-2.31-7.64c0.02-3.54,1.25-6.92,3.6-9.58
	c2.96-3.34,7.57-5.17,12.03-4.68c0.02,0,0.04,0.01,0.06,0.01c2.95,0.31,5.75,1.59,7.97,3.55c3.86,3.39,5.46,8.8,4.37,13.77
	c-1.2,5.41-5.66,9.61-11.04,10.73c-0.91,0.19-1.84,0.28-2.77,0.28C263.16,99.04,261.53,98.75,259.99,98.21z M264.62,91.04
	c0.28,0,0.57-0.02,0.85-0.04c0.26-0.04,0.52-0.09,0.78-0.14c0.29-0.08,0.57-0.17,0.85-0.28c0.25-0.11,0.49-0.23,0.73-0.36
	c0.23-0.14,0.45-0.28,0.67-0.44c0.2-0.16,0.39-0.33,0.58-0.5c0.18-0.19,0.36-0.39,0.53-0.59c0.15-0.2,0.29-0.4,0.43-0.61
	c0.13-0.23,0.26-0.47,0.38-0.71c0.11-0.27,0.21-0.55,0.3-0.83c0.06-0.25,0.12-0.5,0.17-0.75c0.03-0.29,0.06-0.57,0.07-0.86
	c-0.01-0.26-0.02-0.53-0.04-0.79c-0.04-0.29-0.1-0.58-0.16-0.86c-0.08-0.27-0.16-0.53-0.26-0.78c-0.11-0.24-0.22-0.47-0.34-0.7
	c-0.14-0.24-0.3-0.47-0.46-0.7c-0.16-0.2-0.32-0.39-0.49-0.58c-0.19-0.18-0.38-0.36-0.58-0.52c-0.2-0.15-0.41-0.3-0.63-0.44
	c-0.24-0.14-0.48-0.26-0.72-0.38c-0.26-0.11-0.52-0.2-0.79-0.29c-0.27-0.07-0.53-0.13-0.8-0.18c-0.16-0.02-0.32-0.04-0.48-0.05
	c-0.09-0.01-0.18-0.01-0.27-0.02c-0.28,0-0.57,0.02-0.85,0.04c-0.27,0.04-0.54,0.09-0.8,0.14c-0.27,0.08-0.53,0.16-0.8,0.25
	c-0.27,0.12-0.54,0.25-0.81,0.39c-0.21,0.13-0.41,0.26-0.61,0.39c-0.23,0.18-0.45,0.37-0.66,0.57c-0.19,0.2-0.36,0.4-0.54,0.61
	c-0.13,0.18-0.26,0.36-0.38,0.54c-0.14,0.24-0.27,0.49-0.39,0.74c-0.1,0.26-0.2,0.53-0.29,0.79c-0.06,0.25-0.12,0.5-0.17,0.76
	c-0.03,0.28-0.06,0.56-0.08,0.84c0,0.27,0.02,0.53,0.03,0.8c0.04,0.3,0.1,0.59,0.16,0.89c0.08,0.26,0.16,0.52,0.26,0.78
	c0.11,0.24,0.22,0.48,0.34,0.71c0.14,0.23,0.29,0.45,0.44,0.67c0.17,0.22,0.36,0.43,0.54,0.63c0.16,0.16,0.32,0.3,0.49,0.45
	c0.23,0.18,0.47,0.35,0.72,0.51c0.23,0.13,0.46,0.25,0.7,0.36c0.24,0.1,0.49,0.19,0.74,0.27c0.27,0.07,0.54,0.13,0.82,0.19
	C264.07,91,264.35,91.02,264.62,91.04z"/>
<path class="st0" d="M244.87,106.79c0-2.18,1.82-4,4-4s4,1.82,4,4s-1.82,4-4,4S244.87,108.97,244.87,106.79z"/>
<path class="st0" d="M214.49,175.69c-3.24-0.1-6.41-1.43-8.66-3.79c-3.43-3.61-4.49-8.91-2.58-13.52c1.69-4.09,5.59-7.02,9.96-7.61
	c0.08-0.01,0.16-0.02,0.23-0.02c3.83-0.37,7.69,0.98,10.37,3.79c3,3.14,4.16,7.7,3.05,11.89c-1.42,5.36-6.48,9.27-12.02,9.27
	C214.73,175.69,214.61,175.69,214.49,175.69z M215.09,167.68c0.19-0.02,0.39-0.05,0.58-0.08c0.19-0.05,0.38-0.1,0.57-0.16
	c0.21-0.08,0.41-0.17,0.62-0.26c0.14-0.08,0.29-0.17,0.43-0.25c0.17-0.12,0.34-0.25,0.5-0.39c0.13-0.13,0.26-0.26,0.39-0.39
	c0.12-0.15,0.24-0.31,0.36-0.47c0.09-0.14,0.17-0.29,0.26-0.43c0.09-0.19,0.17-0.38,0.25-0.58c0.06-0.19,0.11-0.39,0.16-0.58
	c0.03-0.18,0.06-0.36,0.08-0.55c0.01-0.22,0.01-0.44,0.01-0.66c-0.02-0.21-0.05-0.41-0.08-0.62c-0.04-0.18-0.09-0.36-0.15-0.54
	c-0.07-0.19-0.15-0.38-0.24-0.56c-0.1-0.18-0.2-0.36-0.31-0.53c-0.1-0.14-0.21-0.28-0.33-0.42c-0.14-0.15-0.28-0.29-0.43-0.42
	c-0.14-0.12-0.29-0.23-0.43-0.33c-0.16-0.1-0.31-0.19-0.48-0.28c-0.19-0.09-0.39-0.17-0.58-0.25c-0.19-0.06-0.38-0.11-0.58-0.16
	c-0.19-0.03-0.38-0.06-0.58-0.08c-0.22-0.01-0.43-0.01-0.65,0c-0.02,0-0.03,0-0.05,0.01c-0.03,0-0.05,0-0.08,0.01
	c-0.01,0-0.02,0-0.03,0c-0.1,0.01-0.21,0.03-0.31,0.05c-0.22,0.05-0.43,0.11-0.64,0.17c-0.2,0.08-0.39,0.16-0.58,0.25
	c-0.14,0.08-0.27,0.16-0.41,0.24c-0.19,0.14-0.38,0.28-0.56,0.43c-0.12,0.11-0.23,0.23-0.35,0.35c-0.14,0.18-0.28,0.36-0.42,0.54
	c-0.08,0.14-0.17,0.28-0.25,0.43c-0.07,0.15-0.13,0.3-0.2,0.45c-0.08,0.25-0.15,0.49-0.21,0.74c-0.03,0.17-0.05,0.33-0.07,0.5
	c-0.01,0.26,0,0.51,0,0.77c0.02,0.16,0.04,0.32,0.07,0.49c0.04,0.16,0.08,0.32,0.13,0.47c0.09,0.23,0.18,0.47,0.29,0.69
	c0.09,0.16,0.19,0.33,0.29,0.49c0.12,0.16,0.24,0.31,0.37,0.46c0.13,0.13,0.26,0.26,0.39,0.39c0.16,0.13,0.32,0.25,0.48,0.37
	c0.16,0.1,0.32,0.19,0.48,0.27c0.16,0.07,0.32,0.14,0.48,0.21c0.21,0.06,0.41,0.12,0.62,0.17c0.19,0.03,0.37,0.06,0.56,0.08
	C214.67,167.69,214.88,167.69,215.09,167.68z"/>
<path class="st0" d="M226.28,178.84c0-2.18,1.82-4,4-4s4,1.82,4,4s-1.82,4-4,4S226.28,181.02,226.28,178.84z"/>
<path class="st0" d="M231.51,148.78c0-2.18,1.82-4,4-4s4,1.82,4,4s-1.82,4-4,4S231.51,150.96,231.51,148.78z"/>
<path class="st0" d="M26.38,178.25c-4.11-1.72-6.95-5.97-6.86-10.45c0.07-3.9,2.15-7.64,5.55-9.61c0,0,0,0,0,0l0,0
	c0.02-0.01,0.03-0.02,0.05-0.03c0.03-0.02,0.05-0.03,0.08-0.04c2.58-1.44,5.67-1.86,8.54-1.07c4.12,1.13,7.21,4.56,8.06,8.72
	c0.82,4.02-0.8,8.27-3.95,10.86c-2.01,1.65-4.55,2.5-7.1,2.5C29.26,179.12,27.77,178.84,26.38,178.25z M31.01,171.13
	c0.14-0.02,0.28-0.04,0.43-0.06c0.14-0.04,0.28-0.08,0.42-0.12c0.14-0.06,0.27-0.11,0.4-0.18c0.12-0.07,0.25-0.14,0.37-0.22
	c0.1-0.08,0.2-0.16,0.3-0.24c0.1-0.09,0.19-0.19,0.28-0.29c0.1-0.12,0.19-0.25,0.28-0.37c0.07-0.11,0.13-0.22,0.19-0.34
	c0.06-0.14,0.12-0.28,0.17-0.42c0.04-0.13,0.07-0.26,0.1-0.39c0.02-0.15,0.04-0.3,0.05-0.45c0-0.14,0-0.28-0.01-0.42
	c-0.02-0.14-0.04-0.28-0.06-0.42c-0.04-0.15-0.08-0.29-0.12-0.43c-0.05-0.13-0.11-0.26-0.17-0.38c-0.07-0.12-0.14-0.24-0.22-0.36
	c-0.08-0.11-0.17-0.22-0.26-0.33c-0.1-0.1-0.2-0.2-0.31-0.3c-0.1-0.08-0.21-0.16-0.31-0.24c-0.11-0.07-0.23-0.13-0.34-0.19
	c-0.14-0.06-0.28-0.12-0.43-0.17c-0.14-0.04-0.28-0.08-0.42-0.11c-0.14-0.02-0.28-0.04-0.42-0.05c-0.14,0-0.27,0-0.41,0
	c-0.15,0.02-0.3,0.04-0.45,0.07c-0.14,0.04-0.27,0.07-0.41,0.12c-0.13,0.05-0.27,0.11-0.4,0.17c-0.02,0.01-0.04,0.02-0.06,0.04
	c-0.03,0.01-0.05,0.03-0.08,0.04c-0.06,0.04-0.12,0.07-0.18,0.11c-0.12,0.09-0.23,0.18-0.35,0.28c-0.11,0.11-0.21,0.22-0.32,0.33
	c-0.08,0.1-0.15,0.2-0.23,0.31c-0.07,0.12-0.14,0.25-0.21,0.38c-0.05,0.12-0.1,0.25-0.15,0.37c-0.04,0.14-0.08,0.28-0.11,0.43
	c-0.02,0.14-0.04,0.29-0.05,0.43c0,0.14,0,0.28,0,0.42c0.02,0.15,0.04,0.29,0.07,0.44c0.04,0.14,0.08,0.28,0.12,0.42
	c0.05,0.13,0.11,0.26,0.17,0.39c0.07,0.12,0.14,0.24,0.21,0.35c0.09,0.12,0.18,0.24,0.28,0.35c0.09,0.09,0.18,0.18,0.27,0.27
	c0.11,0.09,0.23,0.18,0.35,0.26c0.11,0.07,0.23,0.13,0.34,0.2c0.13,0.06,0.27,0.11,0.41,0.16c0.15,0.04,0.3,0.08,0.45,0.12
	c0.12,0.02,0.24,0.03,0.37,0.04C30.7,171.14,30.85,171.14,31.01,171.13z"/>
<path class="st0" d="M24.75,143.43c-2.53-1.17-4.38-3.6-4.96-6.31c-0.01-0.05-0.02-0.11-0.03-0.16c-0.07-0.37-0.12-0.76-0.14-1.13
	c-0.01-0.12-0.01-0.24-0.01-0.35c-0.02-0.77,0.04-1.53,0.24-2.28c0.67-2.58,2.29-4.74,4.67-5.98c2.16-1.13,4.87-1.33,7.16-0.47
	c2.54,0.95,4.62,2.93,5.5,5.52c1.46,4.26-0.43,8.97-4.41,11.05c-1.27,0.66-2.67,0.99-4.08,0.99C27.35,144.3,25.99,144,24.75,143.43z
	 M28.67,136.31c0.05,0,0.1-0.01,0.15-0.01c0.03-0.01,0.07-0.01,0.1-0.02c0.06-0.02,0.11-0.04,0.16-0.06
	c0.04-0.02,0.08-0.04,0.12-0.06c0.04-0.02,0.07-0.05,0.11-0.07c0.03-0.03,0.07-0.06,0.1-0.09c0.03-0.03,0.05-0.06,0.08-0.09
	c0.03-0.05,0.06-0.1,0.09-0.15c0.01-0.03,0.03-0.06,0.04-0.08c0.02-0.05,0.03-0.09,0.05-0.14c0.01-0.04,0.02-0.09,0.03-0.13
	c0-0.05,0.01-0.11,0.01-0.16c0-0.04-0.01-0.09-0.01-0.13c-0.01-0.05-0.02-0.09-0.03-0.14c-0.02-0.04-0.03-0.09-0.05-0.13
	c-0.02-0.04-0.04-0.08-0.06-0.12c-0.03-0.04-0.06-0.09-0.09-0.13c-0.03-0.03-0.05-0.06-0.08-0.08c-0.03-0.03-0.07-0.06-0.1-0.09
	c-0.04-0.03-0.08-0.05-0.11-0.07c-0.04-0.02-0.08-0.04-0.12-0.06c-0.05-0.02-0.09-0.03-0.14-0.05c-0.04-0.01-0.08-0.02-0.13-0.02
	c-0.05,0-0.09-0.01-0.14-0.01c-0.04,0-0.08,0.01-0.13,0.01c-0.05,0.01-0.1,0.02-0.16,0.03c-0.04,0.01-0.09,0.03-0.13,0.05
	c-0.04,0.02-0.09,0.04-0.13,0.07c-0.04,0.03-0.08,0.05-0.12,0.08c-0.03,0.03-0.06,0.05-0.08,0.08c-0.04,0.04-0.07,0.09-0.11,0.13
	c-0.01,0.02-0.03,0.04-0.04,0.06c-0.03,0.05-0.05,0.1-0.08,0.15c-0.02,0.04-0.03,0.09-0.05,0.13c-0.01,0.05-0.02,0.09-0.03,0.14
	c0,0.05-0.01,0.09-0.01,0.14c0,0.04,0.01,0.08,0.01,0.12c0,0,0,0,0,0c0.01,0.05,0.02,0.09,0.03,0.14c0.02,0.05,0.04,0.1,0.05,0.15
	c0.02,0.04,0.04,0.07,0.06,0.11c0.03,0.04,0.06,0.08,0.09,0.12c0.03,0.03,0.06,0.07,0.09,0.1c0.03,0.03,0.07,0.06,0.1,0.09
	c0.04,0.02,0.07,0.05,0.11,0.07c0.04,0.02,0.08,0.04,0.13,0.06c0.04,0.01,0.07,0.02,0.11,0.03c0.05,0.01,0.1,0.02,0.15,0.03
	C28.57,136.3,28.62,136.31,28.67,136.31z"/>
<path class="st0" d="M39.43,147.18c0-2.18,1.82-4,4-4s4,1.82,4,4s-1.82,4-4,4S39.43,149.36,39.43,147.18z"/>
<path class="st0" d="M53.94,51.13c-3.42-0.62-6.46-3.06-7.95-6.16c-1.06-2.2-1.35-4.61-0.94-6.92c0.01-0.21,0.05-0.43,0.1-0.65
	c0.18-0.72,0.43-1.41,0.74-2.08c0.23-0.52,0.5-1.02,0.8-1.5c0.11-0.18,0.24-0.34,0.37-0.5c1.09-1.5,2.54-2.74,4.26-3.54
	c3.93-1.85,8.55-1.26,11.95,1.41c1.7,1.33,2.92,3.17,3.64,5.18c0.99,2.78,0.68,5.8-0.48,8.47c-1,2.3-2.99,4.23-5.21,5.33
	c-1.59,0.79-3.31,1.16-5.04,1.16C55.43,51.33,54.69,51.27,53.94,51.13z M56.19,43.35c0.13-0.01,0.26-0.01,0.39-0.02
	c0.15-0.03,0.31-0.05,0.46-0.09c0.14-0.04,0.27-0.09,0.41-0.14c0.13-0.06,0.26-0.13,0.4-0.19c0.13-0.08,0.25-0.16,0.37-0.25
	c0.11-0.1,0.23-0.19,0.33-0.3c0.09-0.1,0.18-0.2,0.26-0.3c0.08-0.12,0.17-0.24,0.24-0.36c0.06-0.12,0.12-0.24,0.18-0.36
	c0.05-0.13,0.09-0.26,0.14-0.39c0.04-0.16,0.07-0.31,0.1-0.47c0.01-0.14,0.02-0.27,0.03-0.41c-0.01-0.17-0.01-0.33-0.03-0.5
	c-0.02-0.14-0.05-0.27-0.08-0.41c-0.05-0.14-0.09-0.28-0.14-0.42c-0.06-0.13-0.13-0.26-0.2-0.4c-0.08-0.12-0.16-0.24-0.24-0.36
	c-0.09-0.11-0.18-0.22-0.28-0.32c-0.1-0.1-0.21-0.19-0.32-0.28c-0.12-0.09-0.24-0.17-0.37-0.25c-0.12-0.06-0.24-0.12-0.36-0.18
	c-0.13-0.05-0.27-0.1-0.4-0.14c-0.15-0.03-0.29-0.07-0.44-0.09c-0.15-0.01-0.3-0.03-0.45-0.03c-0.15,0.01-0.29,0.01-0.44,0.03
	c-0.15,0.03-0.3,0.06-0.45,0.09c-0.14,0.04-0.28,0.09-0.43,0.14c-0.12,0.06-0.24,0.12-0.36,0.18c-0.13,0.08-0.26,0.17-0.39,0.27
	c-0.11,0.09-0.22,0.19-0.32,0.29c-0.1,0.11-0.2,0.23-0.3,0.35c-0.07,0.1-0.13,0.19-0.2,0.29c-0.07,0.13-0.14,0.27-0.2,0.41
	c-0.05,0.13-0.09,0.26-0.14,0.39c-0.03,0.15-0.06,0.29-0.09,0.44c-0.02,0.15-0.03,0.31-0.04,0.46c0.01,0.15,0.02,0.29,0.03,0.44
	c0.03,0.14,0.05,0.29,0.09,0.43c0.04,0.14,0.09,0.27,0.14,0.41c0.06,0.13,0.12,0.25,0.18,0.37c0.09,0.14,0.18,0.28,0.28,0.42
	c0.09,0.11,0.19,0.21,0.28,0.32c0.1,0.09,0.2,0.18,0.3,0.26c0.12,0.09,0.24,0.17,0.37,0.25c0.12,0.06,0.23,0.12,0.35,0.17
	c0.15,0.05,0.29,0.11,0.44,0.15c0.13,0.03,0.27,0.06,0.4,0.08C55.87,43.34,56.03,43.35,56.19,43.35z"/>
<path class="st0" d="M89.22,226.91c-4.17-1.24-2.67-5.75-1.9-8.84c0.49-2.66,0.77-5.34,1.06-8.03c1.12-8,1.55-16.16-0.07-24.12
	c-1.12-9.14-5.78-16.98-9.86-25.01c-7.6-16.93-5.48-36.08-2.38-53.83c0.97-4.13,1.85-8.26,2.22-12.48c0.6-4.48,2.27-8.82,2.11-13.39
	c0.11-5.2,7.87-5.29,8,0c0,2.12-0.14,4.19-0.54,6.27c-1.12,4.85-1.8,9.27-2.4,14.09c-2.57,12.03-4.67,23.65-4.14,35.91
	c0.36,13.39,4.48,20.57,10.45,31.95c4.32,10.17,6.04,21.43,5.48,32.45c-0.48,5.61-1.06,11.23-1.93,16.8
	C94.54,222.19,94.36,228.04,89.22,226.91z"/>
<path class="st0" d="M83.75,228.52c0-1.98,1.42-3.38,2.77-4.64c1.73-1.62,3.59-3.03,5.54-4.36c1.4-0.97,2.76-1.99,4.06-3.09
	c1.3-1.16,2.56-2.35,3.83-3.54c1.29-1.2,2.57-2.39,3.76-3.7c1.38-1.57,2.79-3.08,4.24-4.59c1.58-1.64,3.09-3.36,4.65-5.03
	c0.61-0.71,1.19-1.45,1.79-2.17c0.89-1.07,1.77-2.11,2.52-3.2c0.9-1.35,1.78-2.72,2.55-4.15c0.53-1.1,0.96-2.24,1.41-3.38
	c0.41-1.03,0.84-2.06,1.22-3.1c0.45-1.4,0.77-2.82,1.13-4.24c0.29-1.14,0.59-2.28,0.84-3.43c0.08-0.4,0.15-0.8,0.2-1.2
	c0.29-2.16,2.35-3.71,4.5-3.42c2.16,0.29,3.71,2.35,3.42,4.51c-0.19,1.38-0.52,2.73-0.87,4.08c-0.35,1.38-0.64,2.78-1.01,4.15
	c-0.48,1.76-1.12,3.45-1.8,5.13c-0.76,1.88-1.46,3.74-2.44,5.52c-0.99,1.81-2.18,3.55-3.38,5.23c-0.57,0.8-1.23,1.53-1.86,2.28
	c-0.51,0.61-1.01,1.24-1.52,1.86c-2.52,3.04-5.4,5.77-8.05,8.69c-0.17,0.19-0.35,0.39-0.52,0.58c-1.02,1.17-2.04,2.33-3.16,3.41
	c-1.25,1.21-2.54,2.38-3.8,3.57c-1.21,1.13-2.43,2.25-3.71,3.29c-1.32,1.05-2.69,2.01-4.08,2.95c-1.24,0.86-2.4,1.79-3.53,2.78
	c-0.41,0.38-0.82,0.76-1.21,1.17c-0.69,1.22-2.01,2.06-3.49,2.06C85.57,232.52,83.75,230.7,83.75,228.52z"/>
<path class="st0" d="M124.46,173.13c0.51-3.46-2.32-7.79,0.89-10.45c2.53-2.08,6.67,0.05,6.42,3.3c0.41,2.37,0.74,4.74,0.68,7.15
	C132.34,178.37,124.59,178.38,124.46,173.13z"/>
<path class="st0" d="M85.95,230.49c-2.81-1.62-1.98-4.76-0.75-7.1c0.24-2.35,2.21-4.29,4.64-3.95c4.89,0.85,3.51,6.57,1.57,9.61
	C90.41,230.99,87.76,231.56,85.95,230.49z"/>
<path class="st0" d="M98.55,126.24c-1.07-6.27-0.33-12.63,1.5-18.69c1.5-4.95,3.8-9.65,6.49-14.05c3.59-5.86,8.07-11.16,13.01-15.91
	c8.69-8.38,19.23-15.09,30.58-19.21c2.05-0.75,4.38,0.32,5.14,2.37c0.75,2.04-0.32,4.4-2.37,5.14c-1.57,0.56-3.11,1.2-4.64,1.87
	c-3.11,1.41-6.13,3-9.06,4.76c-2.99,1.85-5.86,3.86-8.62,6.04c-2.73,2.21-5.32,4.56-7.77,7.07c-2.21,2.31-4.29,4.74-6.21,7.3
	c-1.63,2.21-3.13,4.51-4.5,6.89c-1.16,2.09-2.2,4.23-3.11,6.44c-0.74,1.87-1.37,3.78-1.88,5.73c-0.38,1.57-0.68,3.16-0.88,4.76
	c-0.15,1.38-0.22,2.77-0.2,4.17c0.03,1.14,0.13,2.28,0.3,3.41c0.01,0.06,0.02,0.12,0.03,0.17c0.18,1.07,0.06,2.13-0.55,3.06
	c-0.56,0.87-1.46,1.5-2.47,1.73c-0.27,0.06-0.55,0.09-0.83,0.09C100.7,129.35,98.87,128.1,98.55,126.24z"/>
<path class="st0" d="M203.4,103.57c-0.19-0.02-0.43-0.07-0.63-0.12c-0.01,0-0.02,0-0.03-0.01c-8.69-1.76-16.83-5.95-23.98-11.1
	c-11.46-8.26-20.63-19.64-26.85-32.29c-3-6.1-5.18-12.61-6.48-19.27c-1.09-5.64-1.43-11.49-0.8-17.21c0.24-2.16,2.29-3.76,4.44-3.51
	c2.18,0.25,3.75,2.27,3.51,4.44c-0.1,0.9-0.17,1.81-0.22,2.71c-0.08,2.16-0.02,4.32,0.14,6.48c0.25,2.56,0.65,5.08,1.19,7.58
	c0.68,2.9,1.52,5.75,2.54,8.55c1.21,3.2,2.62,6.32,4.21,9.36c1.66,3.06,3.49,6.02,5.5,8.86c2.04,2.83,4.24,5.53,6.6,8.1
	c2.25,2.39,4.62,4.64,7.12,6.76c2.24,1.85,4.58,3.57,7.01,5.15c2.25,1.43,4.57,2.72,6.98,3.88c2.01,0.93,4.07,1.76,6.18,2.46
	c1.65,0.52,3.32,0.98,5.02,1.31c1.94,0.39,3.21,2.45,3,4.34c-0.24,2.05-2.02,3.53-4.03,3.53
	C203.68,103.59,203.54,103.59,203.4,103.57z"/>
<path class="st0" d="M83.36,85.7c-3.6-0.53-3.7-4.34-3.08-7.18c0.28-2.98,0.2-5.96,0.21-8.94c0.16-11.81,7.09-22.24,14.59-30.87
	c11.3-12.47,27.66-19.5,44.42-19.93c4.55-0.29,14.79-1.1,11.8,6.39c-1.07,1.77-3.36,2.42-5.19,1.53c-1.5-0.17-3.02,0-4.52,0.03
	c-10.38,0.07-20.88,2.8-29.78,8.21c-10.03,6.91-18.9,16.87-22.45,28.69c-1.39,4.95-0.65,10.09-1.1,15.15
	C88.13,82.07,87.69,86.08,83.36,85.7z"/>
<path class="st0" d="M203.54,102.12c-5.46-1.92-1.46-8.22-0.99-12.12c0.48-2.46,0.76-4.98,0.94-7.47
	c0.47-28.44-4.26-50.67-36.56-54.51c-3.05-0.45-6.1-1.12-9.2-0.89c-3.75-0.13-10.43,0.66-10.73-4.52c0-2.25,1.82-3.91,4-4
	c2.66,0.37,5.3,0.71,8,0.49c28.37,1.79,47.04,11.93,51.32,41.91c1.11,9.34,1.95,18.85,0.46,28.2c-0.49,3.45-1.53,6.75-2.33,10.12
	C207.96,101.45,205.58,102.68,203.54,102.12z"/>
<path class="st0" d="M148.15,173.2c-0.3-2.24,1.29-4.11,3.43-4.5c0.08-0.01,0.16-0.03,0.24-0.05c1.49-0.31,2.94-0.71,4.38-1.2
	c1.6-0.57,3.17-1.24,4.7-1.99c1.83-0.94,3.61-1.98,5.32-3.12c2.11-1.44,4.12-3.01,6.06-4.68c2.22-1.98,4.32-4.08,5.96-5.92
	c2.32-2.63,4.48-5.4,6.4-8.19c0.04-0.06,0.08-0.13,0.13-0.19l0.06-0.08c1.98-2.96,3.78-6.02,5.41-9.18
	c1.64-3.29,3.09-6.66,4.33-10.12c1.12-3.24,2.04-6.54,2.74-9.89c0.53-2.7,0.92-5.43,1.12-7.95c0.01-0.08,0.01-0.16,0.02-0.24l0-0.05
	c0.11-1.71,0.16-3.43,0.12-5.15c-0.05-2.18,1.88-4,4.01-3.99c2.22,0.01,3.94,1.83,3.99,4.01c0.23,10.4-2.25,20.78-6.16,30.36
	c-5.07,12.4-12.94,23.91-23.05,32.74c-7.04,6.14-15.43,11.1-24.71,12.79c-0.2,0.04-0.41,0.06-0.61,0.06
	C150.12,176.69,148.4,175.08,148.15,173.2z"/>
<path class="st0" d="M148.99,176.79c-7.41-1.34-14.4-4.69-20.64-8.82c-8.84-5.86-16.51-13.57-22.23-22.51
	c-4.15-6.49-7.38-14.11-7.48-21.93c-0.03-2.18,1.93-3.97,4.06-3.94c2.23,0.04,3.91,1.88,3.94,4.06c0,0.19,0.01,0.37,0.02,0.56
	c0.06,1.03,0.19,2.05,0.37,3.07c0.27,1.34,0.62,2.66,1.03,3.96c0.57,1.68,1.25,3.32,2.01,4.92c0.98,1.99,2.09,3.91,3.29,5.77
	c1.51,2.27,3.15,4.45,4.91,6.53c1.93,2.23,3.99,4.34,6.16,6.34c2.27,2.03,4.64,3.93,7.13,5.68c2.14,1.47,4.36,2.83,6.66,4.04
	c1.97,1.01,3.99,1.92,6.06,2.69c1.65,0.59,3.34,1.09,5.05,1.48c0.09,0.02,0.19,0.04,0.28,0.06c0.01,0,0.01,0,0.02,0
	c0.03,0.01,0.06,0.01,0.09,0.02c0.03,0.01,0.05,0.01,0.08,0.02c0.07,0.01,0.13,0.03,0.2,0.04c0.07,0.01,0.13,0.03,0.2,0.04
	c2.14,0.4,3.69,2.35,3.35,4.55c-0.29,1.9-2.02,3.41-3.92,3.41C149.42,176.85,149.21,176.83,148.99,176.79z"/>
<path class="st0" d="M87.14,106.89c-3.12-7.72-6.53-15.88-7.31-24.14c-1.82-5.36,5.89-8.05,7.6-2.69c0.84,3.97,1.11,8.06,2.48,11.91
	c1.53,3.94,3.04,7.88,4.6,11.81C96.44,108.63,89.34,111.69,87.14,106.89z"/>
<path class="st0" d="M97.87,124.96c-3.18-5.57-7.45-10.53-9.98-16.46c-1.91-4.89,5.21-7.9,7.37-3.12c2.28,5.29,6.25,9.62,8.94,14.69
	C107.32,124.26,101.23,129.03,97.87,124.96z"/>
<path class="st0" d="M277.15,266.22c-3.78-14.12-10.19-28.02-19.98-38.98c-5.44-5.48-12.21-9.28-19.27-12.28
	c-12.13-3.76-25.11-4.48-36.95-9.37c-13.62-5.78-23.51-17.84-28.44-31.6c-1-2.78-1.9-5.6-3.02-8.33c-0.6-0.85-0.84-1.99-0.62-3.02
	c0.48-2.23,2.92-3.93,5.18-3.04c3.86,1.48,4.88,10.11,6.79,13.76c4.93,12.37,14.91,23.01,28.01,26.49
	c10.38,3.63,21.58,4.07,31.94,7.67c5.54,2.44,11.09,5.11,15.94,8.77c14.82,11.47,23.47,30.64,28.27,48.36
	C285.89,269.76,278.35,271.38,277.15,266.22z"/>
<path class="st0" d="M17.46,270.35c-8.24-0.8,0.5-21.02,2.08-25.64c12.06-27.98,29.48-34.75,57.37-41.02
	c3.71-1.2,7.61-1.73,11.34-2.89c2.12-1.2,4.97-0.46,5.92,1.86c1.85,5.2-4.81,6.29-8.45,7.05c-7.86,2.02-15.78,3.85-23.6,6.05
	c-16.37,4.97-26.52,13.74-33.95,29.18c-2.34,5.37-4.54,10.92-5.66,16.69C22.03,265.04,22.38,270.77,17.46,270.35z"/>
<path class="st0" d="M131.62,290.44c-24.36-1.15-49.03-0.14-73.08-4.8c-14.72-2.68-28.52-8.59-41.99-14.85
	c-4.21-1.51-2.9-8.12,1.56-7.73c0.42,0.02,0.83,0.11,1.21,0.25c-0.01-0.01-0.01-0.02-0.02-0.03c-0.15-0.04-0.3-0.09-0.44-0.13
	c29.3,14.14,50.56,18.06,82.55,18.38c24.54,0.86,49.08,1.39,73.62-0.18c15.95-0.35,31.89-1.16,47.82-2
	c17.2-1.67,36.08-1.63,50.8-11.82c3.25-2.38,6.42-8.41,10.6-4.26c1.56,1.83,1.12,4.73-0.92,6.04c-2.1,2.25-4.32,4.46-6.99,6.05
	c-17.75,11.11-41.13,10.91-61.47,12.4C187.13,289.06,159.39,290.4,131.62,290.44z"/>
<path class="st0" d="M134.55,256.65c-15.31-0.86-30.52-3.55-45.17-8.09c-14.75-4.57-28.99-11.29-41.43-20.5
	c-1.42-1.05-2.82-2.15-4.18-3.27c-1.69-1.38-1.7-4.09-0.29-5.65c0.71-0.79,1.71-1.26,2.76-1.32c1.09-0.05,2.05,0.34,2.89,1.03
	c0.41,0.34,0.82,0.67,0.94,0.77c3.7,2.92,7.59,5.58,11.62,8.02c4.73,2.81,9.63,5.31,14.66,7.54c6.16,2.67,12.48,4.92,18.92,6.81
	c7.16,2.04,14.44,3.63,21.8,4.79c8.73,1.32,17.53,2.05,25.82,2.2c8.65,0.12,17.29-0.3,25.88-1.28c8.12-0.98,16.17-2.45,23.85-4.39
	c0.14-0.04,0.28-0.07,0.42-0.11l0.02,0c6.82-1.78,13.52-3.96,20.07-6.58c5.54-2.26,10.95-4.84,16.11-7.73
	c0.03-0.02,0.07-0.04,0.1-0.06l0.18-0.1c4.21-2.41,8.28-5.06,12.08-7.89c0.04-0.03,0.08-0.06,0.12-0.09l0.06-0.05
	c1.94-1.48,3.84-3.02,5.67-4.62c1.64-1.44,4.23-1.21,5.64,0.43c1.43,1.67,1.2,4.2-0.43,5.64c-9.23,8.08-19.85,14.48-31.01,19.52
	c-13.14,5.94-27.12,9.95-41.32,12.43c-11.21,1.96-22.59,2.89-33.97,2.89C142.42,256.98,138.48,256.87,134.55,256.65z"/>
</svg>
