<?xml version="1.0" encoding="utf-8"?>
<!-- Generator: Adobe Adobe Illustrator 24.2.0, SVG Export Plug-In . SVG Version: 6.00 Build 0)  -->
<svg version="1.1" id="Layer_1" xmlns="http://www.w3.org/2000/svg" xmlns:xlink="http://www.w3.org/1999/xlink" x="0px" y="0px"
	 viewBox="0 0 612 792" style="enable-background:new 0 0 612 792;" xml:space="preserve">
<style type="text/css">
	.st0{fill:#C7CBAC;}
</style>
<g>
	<path class="st0" d="M273.64,621.5c-5.55-0.06-9.99-4.62-9.98-10.01c0.03-16.85,0.05-33.69,0.07-50.54
		c0.03-20.99,0.05-41.97,0.08-62.95c0.03-21.05,0.05-42.1,0.08-63.15c0.03-21.52,0.05-43.04,0.08-64.56
		c0.03-21.47,0.06-42.94,0.08-64.42c0.03-21.85,0.05-43.7,0.08-65.55c0.03-21.52,0.06-43.04,0.08-64.56
		c0.03-21.51,0.05-43.03,0.08-64.54c0.01-3.97,0.01-7.94,0.01-11.91c0-5.4,4.76-9.85,10.21-9.79c5.55,0.06,9.98,4.62,9.98,10.01
		c0,19.37-0.05,38.74-0.07,58.11c-0.03,21.82-0.05,43.65-0.08,65.47c-0.03,21.85-0.05,43.7-0.08,65.55
		c-0.03,21.35-0.05,42.71-0.08,64.06c-0.03,21.67-0.06,43.35-0.08,65.03c-0.03,21.24-0.05,42.47-0.08,63.71
		c-0.03,20.9-0.05,41.79-0.08,62.69c-0.03,20.2-0.05,40.4-0.08,60.6c0,2.32-0.01,4.64-0.01,6.96c-0.01,5.36-4.68,9.79-10.09,9.79
		C273.72,621.5,273.68,621.5,273.64,621.5z"/>
	<path class="st0" d="M438.61,607.39c-8.51-2.07-16-8.09-20.15-15.6c-2.13-3.85-3.42-8.08-3.83-12.44
		c-0.23-2.44-0.17-4.93,0.19-7.36c0.37-2.47,1.06-4.77,1.9-7.12c1.44-3.99,4.06-7.75,7.07-10.75c3.06-3.06,6.76-5.53,10.79-7.18
		c1-0.41,2.03-0.79,3.08-1.1c5.96-1.86,12.58-1.73,18.56-0.07c7.93,2.19,14.71,7.54,18.95,14.42c2.11,3.42,3.45,7.26,4.13,11.18
		c0.74,4.23,0.43,8.49-0.49,12.66c-1.82,8.25-7.54,15.35-14.73,19.8c-3.63,2.25-7.85,3.65-12.08,4.3c-1.55,0.24-3.12,0.35-4.67,0.35
		C444.4,608.49,441.47,608.09,438.61,607.39z M447.94,588.67c0.56-0.06,1.12-0.13,1.67-0.22c0.57-0.14,1.13-0.29,1.69-0.46
		c0.46-0.18,0.92-0.36,1.37-0.57c0.47-0.25,0.94-0.51,1.39-0.79c0.44-0.31,0.86-0.63,1.27-0.96c0.37-0.34,0.73-0.69,1.08-1.05
		c0.34-0.4,0.67-0.81,0.98-1.23c0.3-0.46,0.58-0.93,0.85-1.41c0.22-0.48,0.44-0.97,0.63-1.47c0.16-0.51,0.31-1.03,0.44-1.55
		c0.09-0.54,0.17-1.08,0.23-1.63c0.02-0.5,0.02-1,0.01-1.49c-0.06-0.58-0.13-1.16-0.23-1.74c-0.13-0.53-0.28-1.04-0.44-1.56
		c-0.19-0.48-0.39-0.96-0.61-1.43c-0.26-0.46-0.52-0.92-0.81-1.37c-0.31-0.42-0.63-0.83-0.96-1.23c-0.38-0.39-0.76-0.77-1.15-1.14
		c-0.41-0.33-0.83-0.65-1.25-0.96c-0.42-0.26-0.85-0.51-1.29-0.75c-0.53-0.24-1.07-0.47-1.62-0.67c-0.52-0.16-1.05-0.3-1.58-0.43
		c-0.53-0.09-1.07-0.16-1.61-0.22c-0.55-0.02-1.1-0.02-1.66-0.01c-0.61,0.06-1.2,0.13-1.8,0.23c-0.37,0.09-0.74,0.18-1.11,0.28
		c-0.05,0.01-0.11,0.03-0.16,0.05c-0.56,0.2-1.1,0.44-1.65,0.68c-0.5,0.26-0.98,0.54-1.46,0.84c-0.43,0.31-0.85,0.63-1.27,0.96
		c-0.36,0.34-0.72,0.68-1.06,1.04c-0.34,0.41-0.67,0.82-0.99,1.25c-0.28,0.45-0.56,0.9-0.81,1.37c-0.24,0.52-0.46,1.06-0.67,1.59
		c-0.14,0.47-0.27,0.94-0.39,1.41c-0.09,0.53-0.16,1.05-0.23,1.58c-0.02,0.57-0.02,1.14-0.01,1.72c0.05,0.52,0.13,1.04,0.21,1.55
		c0.13,0.56,0.29,1.12,0.46,1.68c0.17,0.45,0.36,0.89,0.57,1.33c0.27,0.5,0.56,0.98,0.85,1.45c0.32,0.43,0.65,0.85,0.98,1.25
		c0.33,0.34,0.67,0.67,1.01,1c0.44,0.36,0.89,0.7,1.35,1.03c0.44,0.27,0.9,0.53,1.35,0.78c0.48,0.21,0.96,0.42,1.45,0.61
		c0.5,0.15,1,0.29,1.5,0.42c0.65,0.11,1.29,0.2,1.94,0.26C446.91,588.68,447.42,588.68,447.94,588.67z"/>
	<path class="st0" d="M426.82,173.75c-4.11-0.31-8.12-1.8-11.7-3.73c-3.71-2-7.11-5.04-9.52-8.44c-1.36-1.93-2.62-3.97-3.47-6.17
		c-0.87-2.24-1.46-4.43-1.88-6.79c-0.73-4.15-0.26-8.61,0.91-12.63c1.99-6.78,6.63-12.72,12.65-16.53c3.72-2.35,7.83-3.78,12.13-4.4
		c0.4-0.09,0.8-0.15,1.21-0.19c0.01,0,0.01,0,0.01,0l0.24-0.01c0.15-0.01,0.31-0.02,0.46-0.03c0.05,0,0.11-0.01,0.15-0.01
		c0.04-0.01,0.09-0.01,0.13-0.01c0.12-0.01,0.25-0.01,0.37-0.02c0-0.01,0-0.01,0-0.01c0,0,0,0-0.01,0c0,0,0,0,0.01,0l0,0h0.01
		c0.2-0.01,0.38-0.03,0.58-0.03c0.32-0.02,0.63-0.01,0.95,0.01c1.76-0.01,3.51,0.11,5.26,0.44c2.17,0.4,4.25,0.96,6.3,1.79
		c2.2,0.88,4.19,2.07,6.14,3.37c3.46,2.31,6.4,5.64,8.47,9.18c2.19,3.75,3.63,8.03,3.92,12.35c0.17,2.4,0.13,4.79-0.27,7.18
		c-0.36,2.19-1,4.24-1.79,6.32c-1.42,3.7-3.84,7.08-6.66,9.89c-2.96,2.96-6.75,5.39-10.74,6.78c-2.22,0.77-4.51,1.42-6.86,1.67
		c-1.23,0.13-2.43,0.18-3.63,0.18C429.09,173.89,427.96,173.84,426.82,173.75z M430.67,154.11c0.46-0.05,0.92-0.11,1.39-0.18
		c0.42-0.11,0.85-0.21,1.27-0.34c0.42-0.17,0.84-0.34,1.26-0.51c0.37-0.2,0.74-0.41,1.1-0.63c0.34-0.25,0.69-0.5,1.02-0.77
		c0.3-0.27,0.58-0.55,0.86-0.84c0.27-0.32,0.53-0.65,0.78-0.98c0.22-0.34,0.43-0.69,0.63-1.04c0.2-0.41,0.37-0.82,0.55-1.23
		c0.13-0.43,0.26-0.86,0.37-1.31c0.07-0.44,0.13-0.87,0.18-1.31c0.01-0.42,0.01-0.83,0-1.25c-0.05-0.44-0.1-0.87-0.17-1.3
		c-0.11-0.43-0.22-0.86-0.36-1.29c-0.15-0.4-0.32-0.79-0.5-1.18c-0.21-0.38-0.42-0.74-0.65-1.1c-0.24-0.33-0.49-0.65-0.75-0.96
		c-0.3-0.31-0.6-0.61-0.91-0.9c-0.33-0.26-0.67-0.52-1.02-0.77c-0.37-0.22-0.74-0.44-1.12-0.65c-0.39-0.18-0.79-0.34-1.18-0.5
		c-0.42-0.13-0.85-0.25-1.29-0.35c-0.46-0.08-0.93-0.14-1.39-0.19c-0.42-0.01-0.83-0.02-1.25-0.01c-0.41,0.04-0.82,0.09-1.22,0.16
		c-0.42,0.1-0.83,0.2-1.23,0.33c-0.45,0.17-0.9,0.36-1.34,0.55c-0.37,0.2-0.74,0.42-1.1,0.63c-0.39,0.28-0.77,0.58-1.15,0.88
		c-0.26,0.24-0.5,0.5-0.75,0.75c-0.3,0.36-0.59,0.73-0.87,1.1c-0.2,0.32-0.4,0.65-0.59,0.98c-0.19,0.4-0.36,0.81-0.52,1.21
		c-0.11,0.37-0.22,0.73-0.32,1.11c-0.08,0.48-0.15,0.96-0.21,1.44c-0.01,0.46-0.01,0.92,0,1.39c0.05,0.38,0.09,0.75,0.15,1.13
		c0.11,0.46,0.24,0.92,0.38,1.38c0.16,0.39,0.33,0.78,0.5,1.16c0.2,0.36,0.41,0.71,0.63,1.06c0.24,0.32,0.48,0.63,0.74,0.94
		c0.32,0.34,0.66,0.67,1,0.99c0.32,0.25,0.65,0.5,0.98,0.74c0.32,0.2,0.65,0.38,0.98,0.57c0.42,0.19,0.85,0.38,1.29,0.54
		c0.42,0.13,0.85,0.24,1.28,0.35c0.46,0.07,0.92,0.13,1.37,0.18C429.86,154.12,430.26,154.12,430.67,154.11z"/>
	<path class="st0" d="M532.89,404.45c-4.72-1.12-9.04-3.37-12.63-6.57c-3.43-3.05-5.92-6.93-7.53-11.15
		c-1.48-3.86-2.04-8.36-1.47-12.44c0.32-2.24,0.78-4.39,1.56-6.53c0.79-2.17,1.94-4.17,3.22-6.09c2.59-3.9,6.47-7.02,10.66-9.16
		c2.2-1.13,4.61-1.92,7.04-2.42c0.03-0.01,0.05-0.01,0.08-0.02c0.04-0.01,0.07-0.01,0.11-0.02c0.2-0.04,0.4-0.07,0.61-0.1
		c6.35-1.01,12.9-0.04,18.57,3.04c4.16,2.25,7.73,5.5,10.3,9.43c2.41,3.68,3.81,7.86,4.3,12.19c0.47,4.13-0.11,8.44-1.57,12.34
		c-1.62,4.3-4.28,8.01-7.68,11.13c-5.09,4.67-12.09,7.14-19.03,7.14C537.21,405.2,535.01,404.95,532.89,404.45z M539.34,385.41
		c0.39-0.01,0.77-0.03,1.16-0.07c0.33-0.06,0.67-0.12,1-0.18c0.38-0.12,0.77-0.24,1.14-0.37c0.3-0.14,0.6-0.28,0.9-0.44
		c0.28-0.17,0.56-0.36,0.83-0.54c0.27-0.22,0.53-0.44,0.79-0.66c0.26-0.26,0.5-0.53,0.75-0.81c0.21-0.28,0.41-0.57,0.61-0.86
		c0.16-0.3,0.32-0.59,0.47-0.9c0.13-0.34,0.26-0.68,0.37-1.02c0.09-0.36,0.17-0.72,0.24-1.08c0.03-0.34,0.06-0.68,0.08-1.02
		c-0.01-0.36-0.03-0.71-0.07-1.07c-0.06-0.36-0.13-0.72-0.22-1.08c-0.11-0.34-0.22-0.69-0.35-1.02c-0.14-0.3-0.29-0.6-0.45-0.9
		c-0.17-0.28-0.36-0.55-0.55-0.81c-0.22-0.27-0.45-0.53-0.69-0.79c-0.26-0.24-0.51-0.47-0.78-0.69c-0.29-0.2-0.58-0.4-0.87-0.59
		c-0.34-0.18-0.69-0.36-1.04-0.52c-0.33-0.13-0.67-0.24-1-0.35c-0.37-0.09-0.75-0.17-1.12-0.23c-0.34-0.03-0.68-0.06-1.02-0.07
		c-0.39,0.01-0.79,0.03-1.18,0.07c-0.14,0.02-0.28,0.05-0.42,0.07c-0.01,0-0.02,0.01-0.03,0.01c-0.03,0.01-0.05,0.01-0.07,0.01
		c-0.13,0.03-0.28,0.05-0.41,0.09c-0.33,0.1-0.66,0.2-0.98,0.32c-0.3,0.13-0.59,0.28-0.89,0.43c-0.34,0.2-0.67,0.42-0.99,0.64
		c-0.29,0.23-0.57,0.48-0.85,0.72c-0.2,0.21-0.4,0.42-0.59,0.63c-0.23,0.3-0.45,0.61-0.67,0.92c-0.2,0.35-0.38,0.71-0.56,1.07
		c-0.12,0.31-0.23,0.62-0.34,0.93c-0.07,0.32-0.15,0.64-0.21,0.96c-0.04,0.38-0.07,0.75-0.09,1.13c0.01,0.33,0.03,0.66,0.06,0.99
		c0.07,0.38,0.14,0.77,0.23,1.15c0.1,0.32,0.21,0.63,0.32,0.94c0.16,0.34,0.33,0.68,0.5,1.01c0.19,0.28,0.38,0.57,0.57,0.85
		c0.22,0.25,0.43,0.5,0.65,0.74c0.25,0.22,0.5,0.45,0.75,0.67c0.3,0.21,0.6,0.41,0.9,0.61c0.32,0.17,0.63,0.32,0.95,0.48
		c0.35,0.13,0.7,0.25,1.06,0.36c0.33,0.07,0.66,0.15,0.99,0.21C538.6,385.35,538.97,385.39,539.34,385.41z"/>
	<path class="st0" d="M133.9,414.18c1.18-18.71,12.61-34.93,23.71-49.5c9.56-11.1,19.38-22,31.19-30.87
		c19.77-14.71,43.46-26.87,65-38.11c7.94-4.01,18.44-13.63,25.49-3.01c5.9,11.65-7.95,15.59-15.65,20.29
		c-12.05,6.19-23.92,12.69-35.8,19.18c-28.76,15.8-53.89,38.44-69.19,67.26c-2.15,4.66-3.96,9.66-4.56,14.75
		C153.8,427.13,134.21,427.21,133.9,414.18z"/>
	<path class="st0" d="M269.37,303.56c-11.35-9.63,4.37-19.76,10.53-26.47c7.63-8.23,14.66-16.99,19.97-26.86
		c10.32-16.36,16.33-35.91,14.5-55.22c-1.46-12.98,17.96-15.53,20.01-2.69c1.67,14.09-0.77,28.41-4.75,41.95
		c-6.88,19.93-18.6,38.3-32.87,53.93c-2.35,2.64-4.72,5.16-7.34,7.55C283.4,301.55,278.34,309.66,269.37,303.56z"/>
	<path class="st0" d="M197.64,197.36c0-0.02-0.01-0.03-0.01-0.05c-0.01-0.09-0.02-0.17-0.03-0.26c-0.56-5.93-0.53-11.82,0.26-17.73
		c0.96-7.2,3.09-14.36,6.23-20.93c3.27-6.86,7.53-13.07,12.66-18.72c4.52-4.98,9.86-9.2,15.57-12.79
		c11.86-7.48,26.21-11.38,40.28-11.3c13.2,0.08,26.25,3.59,37.65,10.11c10.89,6.23,20.08,15.24,26.54,25.85
		c2.67,4.38,4.78,9.01,6.49,13.81c1.82,5.33,3.13,10.79,3.68,16.4c0.18,1.83,0.3,3.66,0.36,5.51c0.17,5.4-4.76,9.89-10.12,9.88
		c-2.67-0.01-5.25-1.07-7.13-2.92c-1.92-1.9-2.85-4.36-2.93-7.01c-0.01-0.46-0.03-0.9-0.06-1.36c-0.19-2.43-0.51-4.85-0.98-7.24
		c-0.5-2.32-1.14-4.61-1.9-6.87c-0.81-2.24-1.75-4.43-2.81-6.56c-0.65-1.25-1.34-2.48-2.08-3.68c-0.44-0.73-0.91-1.45-1.38-2.17
		c-0.2-0.29-0.41-0.58-0.61-0.87c-1.14-1.6-2.38-3.14-3.67-4.62c-1.57-1.72-3.23-3.36-4.98-4.92c-1.77-1.5-3.61-2.9-5.52-4.21
		c-1.99-1.29-4.05-2.48-6.17-3.56c-2.11-1.01-4.26-1.91-6.47-2.7c-2.31-0.77-4.66-1.41-7.03-1.93c-2.43-0.46-4.88-0.8-7.34-1
		c-2.46-0.14-4.93-0.15-7.38-0.03c-2.48,0.19-4.94,0.51-7.38,0.96c-2.37,0.5-4.7,1.13-7,1.87c-2.23,0.79-4.41,1.68-6.54,2.69
		c-2.12,1.07-4.19,2.24-6.18,3.52c-1.91,1.29-3.76,2.68-5.53,4.16c-1.74,1.54-3.41,3.15-4.98,4.85c-1.53,1.75-2.97,3.56-4.32,5.45
		c-1.28,1.9-2.46,3.86-3.53,5.88c-1.05,2.1-1.99,4.24-2.81,6.44c-0.79,2.32-1.46,4.68-2.01,7.07c-0.46,2.34-0.79,4.7-1,7.08
		c-0.14,2.46-0.14,4.9-0.01,7.36c0.05,0.63,0.11,1.25,0.17,1.87c0,0.01,0,0.02,0,0.03c0,0,0,0,0,0.01c0.26,2.67-0.34,5.25-2.03,7.39
		c-1.62,2.04-4.02,3.4-6.64,3.74c-0.42,0.05-0.85,0.08-1.27,0.08C202.81,205.94,198.2,202.3,197.64,197.36z"/>
	<path class="st0" d="M117.85,417.63c-4.99-10.74-8.94-21.96-11.58-33.49c-3.08-13.47-4.61-27.22-4.38-41.02
		c0.23-13.8,2.15-27.61,5.75-40.96c3.7-13.72,9.12-26.99,16.12-39.41c1.65-2.92,3.4-5.8,5.22-8.62c0.61-0.94,1.18-1.92,1.86-2.82
		c0.08-0.12,0.16-0.24,0.24-0.37c0.47-0.7,0.95-1.39,1.43-2.09c0.92-1.32,1.85-2.63,2.81-3.92c1.94-2.61,3.94-5.18,6.04-7.66
		c9.15-10.87,19.5-20.7,31.04-29.11c11.25-8.2,23.48-15.07,36.39-20.44c13.16-5.47,27.03-9.3,41.15-11.48
		c14.21-2.19,28.65-2.55,42.97-1.33c14.16,1.21,28.14,4.29,41.56,8.83c12.67,4.28,24.84,10.07,36.15,17.12
		c11.87,7.41,22.83,16.16,32.58,26.12c0.61,0.63,1.21,1.26,1.82,1.89c0.24,0.25,0.48,0.5,0.71,0.76c0.01,0.01,0.01,0.01,0.01,0.02
		c0.11,0.11,0.22,0.22,0.33,0.34c0.35,0.34,0.68,0.7,0.98,1.08c0.32,0.34,0.64,0.69,0.96,1.04c1.11,1.22,2.2,2.47,3.28,3.72
		c2.14,2.5,4.19,5.07,6.17,7.68c8.17,10.78,15.08,22.52,20.44,34.88c5.44,12.54,9.41,25.69,11.7,39.13
		c2.34,13.81,2.9,27.8,1.87,41.75c-0.98,13.26-3.67,26.49-7.85,39.12c-0.83,2.5-1.7,4.98-2.62,7.44c-0.03,0.1-0.07,0.19-0.11,0.29
		c-0.03,0.09-0.07,0.19-0.11,0.28c-0.02,0.05-0.04,0.11-0.06,0.17c-1.94,5.04-8.12,7.47-13.14,5.48c-2.42-0.96-4.41-2.84-5.46-5.18
		c-1.12-2.48-1.08-5.2-0.13-7.71c0.72-1.91,1.42-3.82,2.07-5.76c2.1-6.36,3.8-12.85,5.09-19.42c1.24-6.68,2.05-13.41,2.46-20.19
		c0.32-6.87,0.21-13.74-0.34-20.6c-0.63-6.73-1.66-13.41-3.1-20.02c-1.53-6.59-3.47-13.08-5.79-19.45
		c-2.39-6.26-5.13-12.37-8.26-18.32c-3.14-5.79-6.62-11.38-10.42-16.77c-3.79-5.23-7.87-10.24-12.25-15.01
		c-4.43-4.75-9.16-9.24-14.15-13.42c-5.05-4.17-10.34-8.03-15.84-11.6c-5.59-3.53-11.39-6.73-17.36-9.59
		c-6.15-2.87-12.47-5.36-18.93-7.48c-6.47-2.03-13.04-3.68-19.7-4.96c-6.81-1.21-13.68-2.01-20.59-2.41
		c-6.98-0.3-13.95-0.2-20.91,0.32c-6.93,0.61-13.79,1.64-20.59,3.07c-6.61,1.49-13.12,3.35-19.5,5.58
		c-6.41,2.34-12.67,5.04-18.76,8.11c-5.92,3.08-11.64,6.5-17.15,10.24c-5.37,3.74-10.51,7.78-15.4,12.1
		c-4.78,4.34-9.31,8.93-13.57,13.76c-4.15,4.85-8.01,9.9-11.59,15.16c-0.09,0.13-0.17,0.26-0.27,0.4c-0.01,0.02-0.03,0.04-0.04,0.06
		c-0.09,0.14-0.18,0.28-0.28,0.41c-0.05,0.09-0.11,0.18-0.17,0.26c-0.69,1.06-1.37,2.13-2.03,3.21c-2.64,4.3-5.07,8.69-7.32,13.2
		c-2.9,6.03-5.43,12.21-7.6,18.53c-2.09,6.4-3.79,12.92-5.09,19.52c-1.21,6.62-2.02,13.3-2.42,20.01
		c-0.31,6.89-0.2,13.77,0.35,20.64c0.63,6.79,1.68,13.52,3.15,20.18c1.52,6.52,3.44,12.92,5.74,19.21
		c1.47,3.88,3.09,7.69,4.84,11.45c2.28,4.91-0.17,10.9-5.16,13.06c-1.3,0.56-2.66,0.83-4,0.83
		C123.28,423.52,119.55,421.28,117.85,417.63z"/>
	<path class="st0" d="M154.17,493.13c-15.97-0.44-33.57-4.95-42.49-19.08c-11.45-18.66-16.73-50.19,5.15-63.52
		c6.22-4.4,14.01-6.28,21.52-4.51c7.21,0.92,13.78,1.97,14.27,10.62c0,5.39-4.59,9.9-10.09,9.9c-3.78,0.17-7.46-1.51-11.19-1.25
		c-2.6,1.26-5.65,2.59-7.24,5.06c-3.02,6.96-2.5,15.08-0.21,22.17c5.01,16.72,13.5,19.79,30.27,20.79
		C167.49,473.65,167.43,492.84,154.17,493.13z"/>
	<path class="st0" d="M396.9,487.9c-8.63-0.77-11.84-12.73-4.8-17.65c5.05-3.98,11.69-0.61,17.46-1.86
		c7.15-1.1,12.07-6.27,16.75-11.26c5.06-6.02,9.28-13.86,9.48-21.78c-0.07-7.65-6.39-16.17-14.9-12.95
		c-10.07,10.03-24.33-4.82-14.19-14.48c7.68-6.39,19.36-7.41,28.66-4.23c6.29,2.59,11.44,7.53,15.26,12.98
		c11.45,18.03,2.76,41.44-11.18,55.66C428.64,484.98,413.51,490.48,396.9,487.9z"/>
	<path class="st0" d="M405.48,410.52c-4.11-16.34-13.24-25.13-26.15-35.38c-12.94-11.1-26.23-21.83-39.86-32.1
		c-16.39-11.75-31.95-24.92-44.26-40.85c-4.12-5.58-9.77-11.27-10.06-18.52c0-5.4,4.59-9.9,10.09-9.9
		c7.31,0.27,8.44,4.92,11.23,10.11c3.55,4.9,7.41,9.61,11.35,14.22c11.46,12.7,25.3,22.93,39.07,33.07
		c18.95,15.53,39.37,29.83,55.67,48.15c4.64,5.42,7.52,11.94,9.83,18.58c1.78,4.73,4.56,10.17,1.55,14.98
		C419.83,420.3,407.49,418.82,405.48,410.52z"/>
	<path class="st0" d="M271.11,587.4c-32.61-9.82-64.29-23.79-90.85-45.07c-12.02-8.56-22.01-20.6-26.87-34.46
		c-2.09-8.01-2.71-16.37-3.59-24.58c0.32-12.87,19.66-13.06,20.19-0.17c1,6.54,1.17,13.24,2.93,19.64
		c5.41,13.84,17.69,23.01,29.6,31.31c13.37,8.94,27.32,17.23,42.46,22.95c10.35,4.13,20.76,8.19,31.5,11.28
		C289.15,572.22,284,590.52,271.11,587.4z"/>
	<path class="st0" d="M266.71,576.94c0.03-7.16,6.44-10.07,12.75-10.45c4.02-0.74,7.67-2.49,11.31-4.27
		c8.75-3.95,17.22-8.45,26.02-12.29c12.47-6.54,24.08-14.92,34.06-24.74c6.82-6.48,13.18-13.49,18.97-20.87
		c2.97-4.89,5.19-10.19,8-15.18c1.79-3.47,3.37-7.07,4.18-10.9c0.49-2.57,1.68-4.85,3.83-6.47c4.23-3.33,10.93-2.49,14.16,1.79
		c6.31,8.36-4.17,23.57-7.95,31.69c-3.47,8.03-8.67,15.04-14.87,21.25c-12.9,15.26-28.62,28.21-45.99,38.33
		c-8.45,4.57-17.42,8.05-25.89,12.61C294.8,582.11,269.31,596.25,266.71,576.94z"/>
	<path class="st0" d="M272.98,533.88c-7.78-0.52-15.87-0.56-23.08-3.84c-7.01-3.26-13.95-8.52-16.8-15.8
		c-3.33-11.86,13.86-18.02,19.05-6.77c3.51,4.36,9.08,5.99,14.56,6.12c7.08,0.76,14.49,1.25,21.02-2.09
		c6.54-2.26,7.85-10.25,14.35-12.09c8.33-2.55,16.11,7.27,11.4,14.54C305.37,527.68,288.86,535.04,272.98,533.88z"/>
	<path class="st0" d="M336.06,424.09c-8.72,0.09-17.62-0.88-25.52-4.74c-5.44-2.81-12.02-6.85-12.19-13.6
		c0.55-10.6,13.05-13.04,19.33-5.1c5.73,3.32,12.56,3.79,19.07,3.63c9.59-1.07,10-7.74,17.48-7.83c8.75-0.25,13.45,10.98,7.14,16.91
		C355,420.06,345.32,423.82,336.06,424.09z"/>
	<path class="st0" d="M216.28,424.54c-12.06,0.42-24.03-3.7-32.47-12.31c-8.23-5.1-4.25-18.25,5.57-18.12
		c6.07-0.22,9.17,5.65,14.02,8.13c3.47,1.8,7.28,2.55,11.19,2.42c7.24,1.04,14.96-0.39,20.32-5.58c9.58-8.95,23.43,4.6,14.28,14
		C240.67,421.17,228.16,426,216.28,424.54z"/>
	<path class="st0" d="M205.93,357.74c0-5.4,4.59-9.9,10.09-9.9c5.51,0,10.09,4.5,10.09,9.9c0,5.4-4.59,9.9-10.09,9.9
		C210.52,367.64,205.93,363.13,205.93,357.74z"/>
	<path class="st0" d="M228.53,364.79c0-5.4,4.59-9.9,10.09-9.9s10.09,4.5,10.09,9.9s-4.59,9.9-10.09,9.9
		S228.53,370.18,228.53,364.79z"/>
	<path class="st0" d="M231.85,453.13c0-5.4,4.59-9.9,10.09-9.9c5.51,0,10.09,4.5,10.09,9.9c0,5.4-4.59,9.9-10.09,9.9
		C236.44,463.03,231.85,458.53,231.85,453.13z"/>
	<path class="st0" d="M179.88,451.57c0-5.4,4.59-9.9,10.09-9.9s10.09,4.5,10.09,9.9c0,5.4-4.59,9.9-10.09,9.9
		S179.88,456.97,179.88,451.57z"/>
	<path class="st0" d="M195.31,483.83c0-5.4,4.59-9.9,10.09-9.9c5.51,0,10.09,4.5,10.09,9.9c0,5.4-4.59,9.9-10.09,9.9
		C199.9,493.74,195.31,489.23,195.31,483.83z"/>
	<path class="st0" d="M232.16,486.59c0-5.4,4.59-9.9,10.09-9.9c5.51,0,10.09,4.5,10.09,9.9c0,5.4-4.59,9.9-10.09,9.9
		C236.75,496.5,232.16,491.99,232.16,486.59z"/>
	<path class="st0" d="M147.06,444.48c0-5.4,4.59-9.9,10.09-9.9c5.51,0,10.09,4.5,10.09,9.9s-4.59,9.9-10.09,9.9
		C151.65,454.39,147.06,449.88,147.06,444.48z"/>
	<path class="st0" d="M160.55,188.89c-13.08-0.08-26.15-0.17-39.22-0.25c-14.33-0.09-28.68-0.18-43.01-0.28
		c-4.04-0.03-8.09-0.05-12.13-0.08c-0.01,0-0.01,0-0.02,0c-0.13,0-0.27,0-0.4,0c-5.51-0.03-9.99-4.77-9.89-10.1
		c0.11-5.45,4.81-9.73,10.3-9.7c13.89,0.09,27.79,0.18,41.68,0.27c14.03,0.09,28.07,0.18,42.1,0.27c3.67,0.03,7.34,0.05,11.02,0.07
		c5.51,0.03,9.99,4.77,9.89,10.1c-0.11,5.43-4.77,9.7-10.24,9.7C160.59,188.89,160.57,188.89,160.55,188.89z"/>
	<path class="st0" d="M158.79,183.24c-5.46-4.88-12.56-8.88-15.75-15.65c-3.67-9.28,8.11-17.59,15.9-11.17
		c3.7,4.42,8.2,7.93,12.71,11.55C181.65,176.5,169.18,191.28,158.79,183.24z M162.55,164.56c0.01-0.05,0.03-0.11,0.03-0.15
		c-0.01-0.09-0.01-0.17-0.03-0.26C162.56,164.29,162.55,164.42,162.55,164.56z"/>
	<path class="st0" d="M147.19,196.36c-9.38-8.96,0.8-16.96,8.48-22.26c5.04-4.24,12.54-8.58,18.55-3.46
		c6.05,4.66,4.12,14.93-3.28,17.01C163.11,191.99,156.98,203.61,147.19,196.36z"/>
	<path class="st0" d="M63.68,574.36c-1.81-1.87-2.81-4.42-2.75-7c0.05-2.63,1.21-5.18,3.16-7c1.99-1.84,4.46-2.61,7.14-2.7h0.01
		h0.01c0.05,0,0.11,0,0.16,0c13.16-0.38,26.32-0.86,39.48-1.29c13.23-0.43,26.47-0.86,39.7-1.29c1.13-0.04,2.26-0.07,3.39-0.11
		c2.63-0.09,5.36,1.26,7.13,3.1c1.81,1.87,2.81,4.42,2.75,7c-0.05,2.64-1.21,5.19-3.16,7c-1.99,1.84-4.46,2.61-7.14,2.7
		c-10.47,0.34-20.94,0.69-31.4,1.03c-13.66,0.45-27.32,0.88-40.99,1.34c-3.42,0.11-6.83,0.24-10.25,0.34c-0.03,0-0.07,0-0.1,0.01
		c-0.01,0-0.01,0-0.02,0c-0.07,0-0.15,0-0.22,0C68.02,577.46,65.41,576.16,63.68,574.36z"/>
	<path class="st0" d="M158.38,571.96c-7.64-2.67-14.62-6.66-20.89-11.69c-5.2-0.99-8.71-6.19-7.87-11.28
		c0.59-5.07,5.51-8.86,10.6-8.7c5.69,0.33,9.75,4.68,14.19,7.69c3.74,2.61,7.96,4.29,12.22,5.9
		C178.62,559.34,170.66,577.02,158.38,571.96z"/>
	<path class="st0" d="M138.49,587.72c-9.77-8.68,2.17-18.27,9.06-24.06c7.38-6.43,20.2-16.08,26.44-3.09
		c3.1,9.62-5.61,11.9-11.61,16.73c-4.27,3.54-6.69,5.58-9.68,9.09C149.25,590.6,142.68,591.11,138.49,587.72z"/>
</g>
</svg>
