<?xml version="1.0" encoding="utf-8"?>
<!-- Generator: Adobe Adobe Illustrator 24.2.0, SVG Export Plug-In . SVG Version: 6.00 Build 0)  -->
<svg version="1.1" id="Capa_de_vector_1_" xmlns="http://www.w3.org/2000/svg" xmlns:xlink="http://www.w3.org/1999/xlink" x="0px"
	 y="0px" viewBox="0 0 1000 1000" style="enable-background:new 0 0 1000 1000;" xml:space="preserve">
<style type="text/css">
	.st0{fill:#C7CCAC;}
</style>
<path class="st0" d="M160.35,664.51c0.06-0.05,0.12-0.09,0.19-0.14c-4.99-0.08-9.98-0.16-14.98-0.24c0.05,0.04,0.09,0.07,0.14,0.1
	c0.42,0.26,0.84,0.51,1.27,0.75c0.52,0.24,1.05,0.46,1.6,0.67c0.64,0.19,1.28,0.38,1.93,0.54c0.63,0.1,1.27,0.19,1.91,0.26
	c0.67,0.02,1.33,0.02,2,0c0.59-0.06,1.18-0.14,1.76-0.24c0.56-0.14,1.12-0.3,1.67-0.47c0.47-0.19,0.95-0.39,1.41-0.6
	C159.62,664.95,159.99,664.73,160.35,664.51z M259.08,666.36c0.11-0.14,0.22-0.28,0.32-0.42c-4.48-0.07-8.98-0.15-13.46-0.21
	c0.16,0.21,0.33,0.43,0.5,0.64c0.24,0.26,0.49,0.51,0.75,0.76c0.26,0.2,0.51,0.41,0.77,0.6c0.34,0.21,0.68,0.41,1.03,0.61
	c0.34,0.15,0.68,0.29,1.01,0.43c0.38,0.11,0.76,0.22,1.14,0.32c0.34,0.05,0.68,0.09,1.02,0.14c0.35,0.01,0.7,0.01,1.04,0
	c0.43-0.05,0.85-0.1,1.27-0.17c0.35-0.09,0.71-0.19,1.05-0.29c0.32-0.13,0.64-0.27,0.96-0.41c0.34-0.19,0.68-0.39,1.01-0.6
	c0.27-0.2,0.53-0.41,0.79-0.62C258.57,666.89,258.83,666.62,259.08,666.36z M366.41,287c2.57-1.74,4.67-4.11,6.14-6.83
	C371.05,282.87,368.95,285.22,366.41,287z M616.25,287.36c-5.24-0.23-10.47-0.46-15.71-0.69c-27.42-1.2-54.83-2.42-82.25-3.62
	c-27.45-1.21-54.9-2.42-82.35-3.62c-18.24-0.81-36.49-1.61-54.73-2.41c0.71,0.9,1.39,1.8,2.01,2.73c4.9,6.48,9.89,12.95,15.7,18.63
	c7.04,5.21,15.29,8.57,22.88,12.89c27.56,12.53,59.46,7.57,88.19,2.07C546.17,307.91,581.16,297.45,616.25,287.36z M693.95,457.81
	c1.43-9.39-0.45-18.73-1.36-28.04c-0.16-4.74-5.09-9.07-7.48-11.73c-23.5-4.16-47.31-4.02-71.09-3.87
	c-6.85,0.04-13.69,0.08-20.53,0.03c-29.54,0.24-59.08,0.73-88.63,0.96c-9.88,0.18-19.36,2.8-27.36,8.46
	c-2.99,4.64-2.99,9.93-3.46,16.2c-0.77,8.46-1.42,16.7-1.75,24.76c4.53-0.04,9.06-0.07,13.58-0.09c26.54-0.15,53.07-0.29,79.6-0.44
	c23.78-0.14,47.55-0.27,71.32-0.4c18.87-0.1,37.74-0.21,56.61-0.32C693.38,461.59,693.55,459.75,693.95,457.81z M847.43,392.46
	c0.5-9.96,0.32-19.96-0.28-29.92c-0.33-4.62-0.69-9.23-0.87-11.87c-0.25-3.41-0.59-6.81-1.14-10.19c-0.16-0.66-0.33-1.31-0.51-1.96
	c-0.17-0.41-0.34-0.82-0.52-1.22l-1.74-2.99c-1.68-2.48-3.32-4.99-4.96-7.5c-0.49-0.68-0.99-1.35-1.51-2
	c-0.34-0.36-0.69-0.71-1.04-1.05c-0.38-0.3-0.77-0.6-1.15-0.89c-1.95-1.23-3.97-2.35-6.01-3.43c-6.65-3.27-13.34-6.54-20.28-9.11
	c-4.4-1.49-8.82-2.89-13.17-4.48c-3.77-1.38-7.47-2.95-11.24-4.34c-3.53-1.12-7.13-1.86-10.74-2.69c-3.88-0.89-7.62-2.31-11.37-3.66
	c-2.27-0.75-4.55-1.41-6.87-1.97h-0.01c-0.7,0.09-1.41,0.13-2.14,0.13c-0.25,0-0.5-0.01-0.75-0.02c-5.09-0.21-10.19-0.43-15.28-0.66
	c-1.83,2.07-4.18,3.75-7.06,4.83c-39.71,12.22-80.14,22.05-120.01,33.8c-33.96,10.17-68.37,18.33-103.42,23.59
	c-13.73,2.85-27.67,4.49-41.7,4.08c-33.55,0.68-55.28-7.37-83.56-24.77c-12.44-8.07-21.19-20.55-30.17-32.13
	c-4.45-5.94-9.17-11.84-12.25-18.66c-0.78-1.48-1.39-3.03-1.83-4.63c-9.97,1.87-19.68,4.94-29.54,7.34
	c-15.86,3.85-31.96,6.67-47.55,11.57c-22.52,6.38-44.48,14.74-65.85,24.27c-13.34,7.38-25.37,16.92-36.92,26.86
	c-21.75,19.58-33.55,47.78-39.7,75.99c-1.46,6.98-2.6,14.01-3.5,21.07c1.08-2.27,2.57-4.35,4.42-6.09
	c4.01-3.77,8.93-5.26,14.31-5.38c0.02-0.01,0.04-0.01,0.06-0.01c0.05,0,0.09,0.01,0.14,0.01c15.99-0.36,31.98-0.52,47.96-0.78
	c1.23-0.02,2.45-0.04,3.68-0.05c5.16-0.08,10.44,2.64,13.9,6.37c3.59,3.88,5.53,9.1,5.35,14.4c-0.19,5.29-2.49,10.36-6.34,13.98
	c-4,3.74-8.94,5.29-14.31,5.38c-15.12,0.25-30.25,0.49-45.36,0.73c-2.13,0.04-4.25,0.06-6.38,0.1c-0.01,0-0.02,0-0.04,0
	s-0.04,0-0.06,0c-0.07,0.01-0.15,0.01-0.22,0.01c-5.09,0-10.27-2.7-13.68-6.37c-2.4-2.59-4.06-5.79-4.85-9.2
	c-1.69,19-1.96,38.16-2.15,57.21c-0.79,35.75-0.76,71.52,0.29,107.25c0.2-0.01,0.39-0.01,0.6-0.01c0.26,0.01,0.52,0.01,0.78,0.01
	c24.73,0.34,49.45,0.78,74.17,1.17c25.51,0.41,51.01,0.81,76.52,1.21c7.03,0.11,14.05,0.24,21.08,0.34
	c12.6-16.21,25.3-32.33,37.93-48.51c14.9-19.08,29.79-38.15,44.7-57.22c5.41-6.93,10.82-13.85,16.23-20.78
	c-0.03-0.58-0.04-1.17-0.01-1.77c0.3-11.26-0.25-22.55,0.16-33.82c1.03-13.52,2.16-27.04,1.91-40.62c0.85-26.41,39.05-26.46,39.91,0
	c0.19,13.39-0.72,26.76-1.88,40.08c-0.05,0.32-0.08,0.65-0.12,0.99c3.66-0.19,7.32-0.39,10.99-0.58c0.37-8.06,1.02-16.12,1.58-24.19
	c0.94-12.26,1.6-27.41,9.64-37.13c8.37-13.7,17.61-19.51,25.7-20.38c17.03-7.62,36.21-7.52,54.97-7.44
	c5.32,0.03,10.6,0.05,15.79-0.1c42.86-0.18,85.82-2.1,128.64,0.69c11.15,1.54,23.04,1.72,33.5,6.21c15.99,9.12,28.93,26.51,30,45.33
	c1.78,12.05,3.03,24.54,1.11,36.65c2.33-0.03,4.66-0.09,6.99-0.18c5.5-0.2,11.03-0.21,16.53-0.49c9.53-0.76,19.07-2.18,28.45-4.02
	c5.22-1.15,10.38-2.52,15.45-4.2c2.92-1.09,5.76-2.27,8.56-3.62c1.97-1.06,3.91-2.17,5.79-3.38c2.05-1.51,3.99-3.13,5.93-4.78
	c1.98-1.68,4-3.32,5.97-5.01c1.47-1.38,2.86-2.81,4.22-4.3c2.3-2.7,4.55-5.46,6.61-8.35c0.87-1.44,1.69-2.9,2.47-4.39
	c1.53-3.18,3-6.39,4.25-9.7c0.44-1.43,0.83-2.87,1.17-4.33C846.6,402.05,847.06,397.26,847.43,392.46z M946.23,224.64
	c1.6,32.35,5.29,66.45-7.22,97.15c-8.39,20.07-25.84,36.02-46.22,43.13c-1.82,0.65-3.7,1.35-5.6,2.02c0.37,7.85,0.54,15.7,0.24,23.6
	c-0.27,7.19-0.78,14.57-2.07,21.66c-0.9,4.97-2.18,9.61-3.87,14.36c-1.14,3.23-2.65,6.34-4.11,9.43c-1.65,3.47-3.38,6.88-5.41,10.14
	c-2.03,3.27-4.44,6.29-6.85,9.28c-2.27,2.8-4.6,5.57-7.09,8.18c-2.82,2.96-5.96,5.58-9.08,8.19c-2.46,2.06-4.87,4.19-7.38,6.19
	c-2.96,2.35-6.15,4.41-9.41,6.31c-6.61,3.85-13.58,6.63-20.78,9.14c-13.15,4.58-27.15,6.63-40.91,8.4
	c-7.59,0.98-15.2,1.35-22.85,1.49c-5.72,0.1-11.42,0.43-17.13,0.43c-0.76,0-1.51-0.01-2.27-0.02c-2.84-0.05-5.67-0.09-8.23-0.37
	c-0.07,0-0.14,0-0.21,0c-0.06,0-0.11,0-0.17,0c-0.09,0-0.18,0-0.28,0c-0.11,0-0.22,0-0.34,0.01c-0.13,0-0.25,0-0.38-0.01
	c-18.09,0.07-36.17,0.2-54.26,0.31c-22.08,0.13-44.15,0.25-66.23,0.37c-25.02,0.14-50.04,0.28-75.06,0.42
	c-26.28,0.15-52.57,0.29-78.85,0.44c-5.49,0.03-10.99,0.08-16.48,0.11c-0.45,0.85-0.99,1.67-1.6,2.45
	c-14.07,18.01-28.14,36.02-42.2,54.02c-14.95,19.13-29.89,38.27-44.84,57.4c-10.48,13.42-20.77,27.02-31.5,40.25
	c-1.69,2.09-4.04,3.7-6.61,4.77c-0.09,1.44-0.25,2.88-0.49,4.31c-1.33,7.86-4.3,15.04-8.92,21.51
	c-8.94,12.54-23.98,19.65-39.14,19.65c-2.13,0-4.26-0.14-6.37-0.42c-10.72-1.44-21.43-6.86-28.65-15.02
	c-4.04-4.58-7.41-9.56-9.61-15.31c-1.65-4.31-2.8-8.91-3.21-13.55c-0.71-0.02-1.42-0.03-2.14-0.04c-0.08,0.86-0.2,1.72-0.34,2.58
	c-1.58,9.26-5.86,17.79-12.5,24.43c-9.69,9.7-23,14.53-36.34,14.53c-11.95,0-23.92-3.87-33.35-11.61
	c-9.86-8.09-16.59-20.21-17.34-32.98c-1.27-0.53-2.47-1.19-3.6-1.95c-11.6,5.16-27.94-0.76-28.51-18.02
	c-1.7-37.49-2.18-75.03-1.41-112.57c0.57-33.04,0.23-66.41,5.59-99.11C85.62,364.41,112.57,323.4,169.63,289
	c39.8-20.16,83.05-32.55,126.53-41.75c13.78-3.58,27.4-7.64,41.56-9.43c8.23-1.46,18.59-3.03,27.33-1.63c0.49-0.02,0.98-0.02,1.47,0
	c0.13,0.01,0.25,0.01,0.38,0.02c0.01,0,0.02,0,0.03,0c0.13,0.01,0.27,0.02,0.39,0.02c0.24,0.01,0.48,0.02,0.72,0.04
	c25.56,1.12,51.13,2.25,76.69,3.37c27.43,1.2,54.86,2.41,82.29,3.62c27.48,1.21,54.95,2.42,82.43,3.63
	c26.37,1.16,52.75,2.32,79.13,3.48c17.93,0.79,35.87,1.61,53.81,2.37c2.6-0.7,5.35-0.87,8.17-0.65c3.9,0.31,7.76,1.01,11.58,1.8
	c5.81,1.21,11.3,3.21,14.44,4.3c5.43,1.89,11.1,2.7,16.57,4.41c5.92,1.87,11.61,4.4,17.44,6.53c5.26,1.77,10.58,3.36,15.72,5.46
	c5.23,2.14,10.29,4.69,15.4,7.1c6.25,2.95,12.61,6.19,17.97,10.61c3.22,2.65,6.25,5.68,8.7,9.07c2.04,2.82,3.86,5.78,5.77,8.68
	c1.7,2.53,3.39,5.06,4.84,7.74c1.41,2.64,2.61,5.37,3.55,8.2c1.73-0.74,3.37-1.61,4.89-2.71c13.82-8.26,18.76-24.39,20.11-39.67
	c1.17-29.16-1.08-57.93-2.71-86.81c-0.02-42.75-33.54-38.24-65.53-38.83c-32.07-0.13-63.93,4.2-95.95,5.4
	c-42.02,3.1-84.4,3.45-126.45,0.62c-66.47-2.14-119.11-2.36-127.62-83.47c-9.03-34.14,35.27-43.35,38.91-10.85
	c0.86,8.76,1.63,17.62,4.61,25.97c6.24,23.32,26.69,24.41,46.99,26.47c41.37,2.2,80.57,4.38,121.65,3.2
	c35.41-0.78,70.76-3.96,106.07-6.51c27.18-0.97,55-3.14,81.75,2.79c23.63,4.16,44.27,22.57,51.18,45.7
	C945.63,185.91,944.92,205.51,946.23,224.64z"/>
<path class="st0" d="M201.2,498.26c0.16,5.3-1.81,10.52-5.42,14.37c-3.4,3.62-8.56,6.3-13.6,6.3c-0.11,0-0.22,0-0.33,0
	c-0.2-0.01-0.41-0.01-0.61-0.02c-0.17-0.01-0.34-0.01-0.5-0.02c-15.19-0.45-30.37-0.77-45.55-1.17c-0.03,0-0.06,0-0.09,0
	c-0.45-0.01-0.9-0.03-1.35-0.04c-0.14-0.01-0.28-0.01-0.42-0.01c-0.07-0.01-0.14-0.01-0.21-0.01c-5.37-0.14-10.29-1.68-14.28-5.46
	c-3.83-3.63-6.11-8.72-6.26-14.01c-0.16-5.3,1.81-10.52,5.42-14.37c3.47-3.7,8.78-6.43,13.93-6.3c0.66,0.02,1.32,0.04,1.98,0.05
	c0.25,0.01,0.5,0.02,0.76,0.03c15.33,0.43,30.67,0.71,45.99,1.18c5.38,0.17,10.28,1.67,14.28,5.46
	C198.77,487.88,201.04,492.97,201.2,498.26z"/>
<path class="st0" d="M200.91,543.04c0.33,10.58-8.38,20.7-19.2,20.7c-0.04,0-0.08,0-0.11,0c-15.43-0.1-30.85-0.26-46.27-0.36
	c-5.34-0.03-10.35-1.7-14.29-5.43c-3.84-3.62-6.12-8.71-6.28-14c-0.33-10.63,8.44-20.77,19.32-20.7
	c15.43,0.09,30.85,0.26,46.28,0.36c5.34,0.04,10.34,1.7,14.29,5.43C198.46,532.66,200.75,537.75,200.91,543.04z"/>
<path class="st0" d="M154.06,719.47c2.14,5.08,1.93,10.54,0,15.63c-8.6,22.65-17.28,45.27-25.93,67.9
	c-8.96,23.46-17.92,46.92-26.88,70.38c-3.65,9.54-7.3,19.09-10.94,28.64c-2.94,7.68-10.74,12.21-18.58,12.21
	c-2.58,0-5.16-0.49-7.58-1.52c-4.75-2.02-8.61-5.91-10.62-10.69c-2.13-5.07-1.94-10.55,0-15.63c7.41-19.39,14.81-38.77,22.21-58.16
	c9.15-23.95,18.3-47.9,27.44-71.84c4.7-12.31,9.42-24.61,14.1-36.92c3.88-10.22,16.4-14.84,26.16-10.69
	C148.19,710.8,152.06,714.69,154.06,719.47z"/>
<path class="st0" d="M323.92,890.14c1.66,4.98,0.58,11.03-2.01,15.47c-2.61,4.49-6.94,7.85-11.93,9.23
	c-1.72,0.48-3.5,0.71-5.27,0.71c-3.53,0-7.04-0.93-10.11-2.74c-4.64-2.73-7.49-6.97-9.17-12c-7.04-21.11-14.07-42.21-21.1-63.32
	c-8.59-25.76-17.17-51.51-25.75-77.27c-2.37-7.1-4.73-14.21-7.1-21.31c-1.66-4.98-0.57-11.03,2.02-15.47
	c2.61-4.49,6.94-7.85,11.92-9.23c5.15-1.42,10.77-0.69,15.38,2.03c4.64,2.73,7.49,6.97,9.17,12c8.48,25.44,16.96,50.88,25.43,76.33
	c8.16,24.48,16.32,48.97,24.48,73.46C321.23,882.06,322.58,886.1,323.92,890.14z"/>
<path class="st0" d="M192.21,571.99c12.55,11.77,3.09,34.95-14.11,34.28c-12.66-0.15-25.38,0.01-37.99-0.97
	c-23.12,3.55-32.31-29.29-10.84-38.55c10.25-3.58,21.15-0.12,31.73-0.75C171.52,566.6,184.04,563.53,192.21,571.99z"/>
<path class="st0" d="M333.82,108.6c10.88,0,19.96,9.14,19.96,20.08s-9.08,20.08-19.96,20.08c-10.88,0-19.96-9.14-19.96-20.08
	S322.95,108.6,333.82,108.6z"/>
<path class="st0" d="M512.39,416.41c10.88,0,19.96,9.14,19.96,20.08s-9.08,20.08-19.96,20.08c-10.88,0-19.96-9.14-19.96-20.08
	S501.52,416.41,512.39,416.41z"/>
<path class="st0" d="M576.39,417.12c10.88,0,19.96,9.14,19.96,20.08s-9.08,20.08-19.96,20.08s-19.96-9.14-19.96-20.08
	S565.51,417.12,576.39,417.12z"/>
<path class="st0" d="M647.62,417.33c10.88,0,19.96,9.14,19.96,20.08c0,10.94-9.08,20.08-19.96,20.08s-19.96-9.14-19.96-20.08
	C627.66,426.47,636.74,417.33,647.62,417.33z"/>
<path class="st0" d="M668.33,556.75c10.88,0,19.96,9.14,19.96,20.08s-9.08,20.08-19.96,20.08s-19.96-9.14-19.96-20.08
	S657.45,556.75,668.33,556.75z"/>
<path class="st0" d="M462.39,646.81c0.01-0.52,0.01-1.04,0-1.55c-0.06-0.5-0.12-1-0.2-1.5c-0.13-0.51-0.27-1.01-0.42-1.51
	c-0.19-0.47-0.38-0.93-0.59-1.39c-0.24-0.44-0.5-0.88-0.76-1.31c-0.29-0.39-0.59-0.78-0.89-1.16c-0.33-0.35-0.67-0.69-1.02-1.02
	c-0.37-0.3-0.75-0.6-1.14-0.88c-0.42-0.26-0.84-0.51-1.26-0.74c-0.48-0.22-0.97-0.43-1.46-0.62c-0.47-0.14-0.95-0.27-1.42-0.39
	c-0.53-0.08-1.06-0.16-1.59-0.21c-0.49-0.02-0.98-0.02-1.47,0c-0.5,0.05-1,0.12-1.5,0.2c-0.5,0.13-1,0.26-1.49,0.41
	c-0.46,0.18-0.91,0.38-1.36,0.58c-0.45,0.25-0.88,0.5-1.31,0.77c-0.36,0.27-0.73,0.55-1.08,0.84c-0.35,0.34-0.69,0.69-1.02,1.04
	c-0.31,0.39-0.62,0.79-0.91,1.19c-0.27,0.44-0.53,0.89-0.78,1.34c-0.21,0.48-0.41,0.96-0.6,1.45c-0.14,0.48-0.27,0.95-0.39,1.43
	c-0.08,0.51-0.15,1.03-0.21,1.55c-0.01,0.51-0.01,1.02,0,1.54c0.06,0.51,0.13,1.02,0.21,1.53c0.12,0.48,0.25,0.96,0.39,1.44
	c0.18,0.46,0.37,0.91,0.57,1.36c0.24,0.44,0.5,0.88,0.76,1.32c0.29,0.39,0.58,0.77,0.88,1.15c0.33,0.35,0.67,0.69,1.01,1.03
	c0.39,0.31,0.79,0.62,1.2,0.93c0.42,0.26,0.84,0.5,1.26,0.74c0.47,0.21,0.95,0.42,1.43,0.61c0.47,0.14,0.94,0.27,1.41,0.39
	c0.52,0.08,1.04,0.16,1.57,0.22c0.49,0.01,0.98,0.01,1.47,0c0.52-0.06,1.03-0.13,1.55-0.21c0.49-0.13,0.99-0.26,1.48-0.41
	c0.47-0.18,0.93-0.38,1.39-0.59c0.43-0.24,0.86-0.5,1.29-0.76c0.42-0.3,0.82-0.62,1.23-0.94c0.32-0.31,0.62-0.62,0.93-0.94
	c0.31-0.39,0.61-0.78,0.9-1.18c0.26-0.42,0.5-0.84,0.74-1.27c0.2-0.47,0.4-0.94,0.59-1.42c0.15-0.5,0.29-1,0.42-1.51
	C462.27,647.82,462.34,647.31,462.39,646.81z M500.61,632.82c4.74,17.99-0.78,38.7-14.79,51.15c-4.89,4.35-10.34,8.11-16.53,10.33
	c-5.84,2.11-11.88,3.43-18.07,3.43c-0.69,0-1.37-0.02-2.05-0.05c-15.47-0.72-30.62-8.25-39.67-21.11
	c-3.34-4.74-5.78-9.74-7.63-15.24c-1.45-4.32-1.95-8.84-2.25-13.37c-0.74-11.65,3.37-23.39,10.09-32.73
	c1.88-2.61,4.06-5.1,6.47-7.24c0.31-0.27,0.62-0.53,0.93-0.79c0.35-0.34,0.72-0.67,1.09-0.99c12.56-10.82,30.14-14.17,45.98-10.13
	C481.81,600.58,495.98,615.24,500.61,632.82z"/>
<path class="st0" d="M490.73,772.56c10.88,0,19.96,9.14,19.96,20.08c0,10.95-9.08,20.08-19.96,20.08
	c-10.88,0-19.96-9.14-19.96-20.08C470.78,781.7,479.86,772.56,490.73,772.56z"/>
<path class="st0" d="M718.83,723.34c0.02-0.55,0.02-1.11,0.01-1.67c-0.07-0.58-0.15-1.16-0.24-1.73c-0.14-0.55-0.29-1.09-0.45-1.64
	c-0.21-0.53-0.44-1.07-0.67-1.59c-0.27-0.49-0.55-0.97-0.85-1.45c-0.31-0.41-0.62-0.83-0.95-1.23c-0.37-0.4-0.76-0.78-1.15-1.16
	c-0.42-0.34-0.84-0.67-1.28-0.99c-0.48-0.3-0.98-0.6-1.48-0.87c-0.51-0.23-1.02-0.45-1.53-0.66c-0.57-0.17-1.14-0.32-1.71-0.47
	c-0.54-0.08-1.07-0.16-1.61-0.22c-0.52-0.01-1.03-0.01-1.55,0.01c-0.61,0.07-1.21,0.15-1.81,0.25c-0.57,0.14-1.13,0.3-1.69,0.47
	c-0.55,0.22-1.1,0.46-1.64,0.71c-0.43,0.25-0.86,0.5-1.28,0.76c-0.43,0.32-0.85,0.65-1.27,0.98c-0.43,0.41-0.84,0.83-1.25,1.26
	c-0.34,0.43-0.67,0.86-0.99,1.3c-0.27,0.45-0.53,0.9-0.78,1.35c-0.22,0.5-0.43,1-0.63,1.51c-0.18,0.59-0.34,1.19-0.49,1.79
	c-0.08,0.57-0.16,1.13-0.23,1.7c-0.01,0.53-0.01,1.05-0.01,1.58c0.07,0.6,0.15,1.19,0.24,1.77c0.15,0.57,0.3,1.13,0.46,1.69
	c0.19,0.49,0.39,0.97,0.61,1.46c0.28,0.5,0.57,1,0.87,1.5c0.32,0.43,0.65,0.86,0.99,1.29c0.37,0.39,0.75,0.77,1.14,1.14
	c0.41,0.33,0.82,0.66,1.24,0.97c0.46,0.29,0.93,0.56,1.4,0.83c0.55,0.25,1.1,0.49,1.65,0.72c0.52,0.16,1.04,0.3,1.57,0.43
	c0.55,0.09,1.1,0.17,1.66,0.23c0.63,0.02,1.25,0.02,1.88,0.01c0.54-0.06,1.08-0.14,1.61-0.22c0.52-0.14,1.05-0.28,1.57-0.43
	c0.55-0.21,1.08-0.45,1.62-0.69c0.5-0.28,1-0.57,1.49-0.87c0.42-0.31,0.83-0.63,1.23-0.95c0.38-0.37,0.76-0.75,1.13-1.13
	c0.34-0.43,0.68-0.86,1-1.3c0.31-0.49,0.6-1,0.88-1.51c0.21-0.48,0.41-0.95,0.6-1.44c0.17-0.58,0.33-1.15,0.47-1.73
	C718.69,724.5,718.76,723.92,718.83,723.34z M751.34,695.39c6.33,10.55,8.79,23.58,6.71,35.73c-1.05,6.16-3.08,11.98-6.09,17.45
	c-3.16,5.76-7.51,10.62-12.44,14.9c-9.24,8.05-21.37,11.98-33.46,11.98c-4.08,0-8.15-0.44-12.11-1.33
	c-16.48-3.68-31.16-16.41-37-32.39c-3.28-8.96-4.54-18.64-2.82-28.1c1.67-9.18,5.44-17.81,11.43-24.99
	c10.3-12.32,26.15-19.85,42.25-19.11c0.46,0.02,0.91,0.05,1.36,0.09c0.84,0.04,1.7,0.1,2.57,0.18c3.95,0.36,7.77,1.39,11.52,2.65
	c5.59,2.06,10.77,4.76,15.49,8.5C743.8,684.94,748.03,689.87,751.34,695.39z"/>
</svg>
