<?xml version="1.0" encoding="utf-8"?>
<!-- Generator: Adobe Adobe Illustrator 24.2.0, SVG Export Plug-In . SVG Version: 6.00 Build 0)  -->
<svg version="1.1" id="Capa_de_vector_1_" xmlns="http://www.w3.org/2000/svg" xmlns:xlink="http://www.w3.org/1999/xlink" x="0px"
	 y="0px" viewBox="0 0 300 300" style="enable-background:new 0 0 300 300;" xml:space="preserve">
<style type="text/css">
	.st0{fill:#C7CCAC;}
</style>
<path class="st0" d="M147.54,187.74c-5.3-1.17-10.07-3.68-14.03-7.38c-2.83-2.64-5.04-5.93-6.59-9.46
	c-2.39-5.45-2.98-11.68-1.74-17.48c0.88-4.1,2.63-7.94,5.11-11.31c0.03-0.05,0.07-0.1,0.1-0.15c4.07-5.42,10.12-9.3,16.73-10.78
	c8.71-1.95,18.14,0.27,24.97,6.07c3.64,3.09,6.53,7.03,8.29,11.48c1.33,3.36,1.99,6.93,2.04,10.54c0.12,8.12-3.5,16.19-9.52,21.61
	c-5.32,4.78-12.37,7.49-19.48,7.49C151.46,188.37,149.48,188.17,147.54,187.74z M154.44,179.35c0.88-0.06,1.76-0.16,2.63-0.3
	c0.87-0.17,1.72-0.39,2.56-0.65c0.85-0.29,1.68-0.62,2.49-1c0.77-0.38,1.52-0.81,2.25-1.27c0.7-0.47,1.38-0.98,2.03-1.51
	c0.65-0.57,1.27-1.17,1.86-1.8c0.56-0.64,1.09-1.31,1.59-2c0.46-0.68,0.88-1.37,1.27-2.09c0.41-0.81,0.78-1.65,1.1-2.5
	c0.27-0.8,0.51-1.6,0.71-2.42c0.18-0.86,0.32-1.73,0.41-2.61c0.07-0.9,0.09-1.79,0.06-2.69c-0.05-0.9-0.16-1.79-0.3-2.67
	c-0.18-0.9-0.41-1.79-0.68-2.66c-0.29-0.82-0.61-1.62-0.97-2.41c-0.38-0.76-0.8-1.51-1.25-2.23c-0.49-0.72-1.01-1.42-1.57-2.1
	c-0.57-0.64-1.17-1.26-1.79-1.84c-0.62-0.54-1.27-1.05-1.94-1.54c-0.72-0.48-1.45-0.93-2.21-1.34c-0.77-0.38-1.54-0.72-2.34-1.03
	c-0.86-0.3-1.73-0.55-2.62-0.76c-0.85-0.17-1.7-0.3-2.56-0.39c-0.9-0.06-1.81-0.08-2.71-0.05c-0.86,0.06-1.71,0.16-2.56,0.3
	c-0.89,0.18-1.76,0.4-2.63,0.67c-0.81,0.28-1.61,0.6-2.39,0.96c-0.81,0.4-1.6,0.85-2.37,1.33c-0.7,0.47-1.37,0.98-2.02,1.52
	c-0.65,0.57-1.26,1.17-1.85,1.8c-0.3,0.35-0.6,0.7-0.88,1.06c0,0,0,0.01-0.01,0.01c-0.23,0.29-0.44,0.58-0.66,0.88
	c-0.47,0.71-0.91,1.43-1.32,2.18c-0.37,0.74-0.71,1.5-1.01,2.27c-0.3,0.84-0.55,1.7-0.76,2.57c-0.18,0.86-0.31,1.72-0.4,2.6
	c-0.06,0.93-0.08,1.87-0.05,2.8c0.06,0.87,0.16,1.73,0.3,2.58c0.18,0.88,0.4,1.74,0.66,2.6c0.29,0.84,0.62,1.65,0.99,2.45
	c0.4,0.8,0.85,1.58,1.33,2.34c0.45,0.66,0.94,1.31,1.45,1.93c0.56,0.64,1.15,1.25,1.77,1.83c0.64,0.57,1.31,1.1,2.01,1.6
	c0.72,0.48,1.46,0.93,2.23,1.34c0.77,0.38,1.56,0.73,2.37,1.04c0.8,0.27,1.61,0.51,2.43,0.71c0.87,0.18,1.75,0.32,2.64,0.41
	C152.64,179.35,153.54,179.37,154.44,179.35z"/>
<path class="st0" d="M135.54,212.61c-10.8-3.65-20.3-10.52-27.11-19.66c-5.29-7.1-8.76-15.45-10.22-24.16
	c-1.68-10.02-0.47-20.45,3.3-29.86c4.04-10.08,11.14-18.96,20.12-25.09c9.05-6.17,19.7-9.55,30.65-9.8c1.88-0.04,3.76,0.05,5.64,0.2
	c0.01,0,0.03,0,0.04,0h0c0.01,0,0.02,0,0.04,0c5.28,0.45,10.46,1.68,15.4,3.58c7.43,2.86,14.2,7.39,19.75,13.08
	c5.2,5.34,9.31,11.75,12,18.7c2.96,7.64,4.25,15.99,3.61,24.16c0,0.21-0.02,0.43-0.05,0.63c-0.48,5.43-1.71,10.7-3.68,15.79
	c-1.72,4.44-4.09,8.62-6.88,12.48c-6.29,8.7-15.26,15.41-25.28,19.21c-6.28,2.38-13.01,3.59-19.72,3.59
	C147.18,215.48,141.21,214.53,135.54,212.61z M155.59,206.43c2.16-0.13,4.3-0.39,6.43-0.78c2.06-0.42,4.1-0.95,6.1-1.61
	c1.93-0.67,3.81-1.44,5.66-2.33c1.75-0.88,3.44-1.84,5.09-2.9c1.7-1.13,3.33-2.36,4.88-3.68c1.48-1.3,2.89-2.67,4.21-4.13
	c1.31-1.48,2.53-3.02,3.66-4.63c1.14-1.67,2.18-3.41,3.12-5.2c0.92-1.84,1.74-3.72,2.45-5.65c0.69-1.97,1.26-3.97,1.71-6.01
	c0.38-1.88,0.67-3.78,0.85-5.69c0.01-0.14,0.03-0.27,0.04-0.41c0-0.11,0.01-0.21,0.01-0.32c0.05-0.69,0.08-1.38,0.1-2.06
	c0.03-1.25,0.01-2.5-0.04-3.75c-0.13-2.15-0.39-4.28-0.78-6.39c-0.41-2.04-0.94-4.05-1.59-6.02c-0.65-1.9-1.41-3.76-2.28-5.57
	c-0.87-1.76-1.84-3.47-2.91-5.13c-1.16-1.76-2.43-3.43-3.8-5.03c-1.27-1.45-2.63-2.83-4.06-4.14c-1.47-1.3-3-2.51-4.6-3.64
	c-1.69-1.15-3.44-2.2-5.24-3.15c-1.8-0.91-3.65-1.72-5.54-2.42c-2-0.71-4.05-1.3-6.13-1.75c-1.99-0.41-4-0.7-6.03-0.88
	c-2.12-0.15-4.25-0.17-6.38-0.07c-2.09,0.14-4.17,0.4-6.23,0.78c-2.03,0.41-4.02,0.94-5.99,1.58c-1.95,0.67-3.86,1.45-5.71,2.35
	c-1.84,0.92-3.61,1.94-5.33,3.07c-1.55,1.05-3.04,2.18-4.48,3.39c-1.5,1.31-2.92,2.69-4.27,4.16c-1.34,1.51-2.59,3.09-3.76,4.74
	c-1.15,1.69-2.2,3.45-3.15,5.27c-0.9,1.79-1.69,3.62-2.39,5.49c-0.7,2-1.28,4.02-1.74,6.09c-0.4,1.97-0.69,3.96-0.88,5.96
	c-0.16,2.15-0.18,4.31-0.08,6.48c0.14,2.08,0.4,4.15,0.77,6.2c0.41,2.03,0.94,4.03,1.58,5.99c0.65,1.88,1.4,3.71,2.25,5.51
	c0.93,1.88,1.97,3.69,3.11,5.45c1.08,1.59,2.23,3.12,3.47,4.59c1.33,1.52,2.73,2.96,4.22,4.32c1.5,1.32,3.06,2.56,4.69,3.7
	c1.58,1.08,3.22,2.06,4.91,2.97c1.88,0.96,3.8,1.81,5.78,2.54c1.99,0.7,4.02,1.28,6.09,1.74c1.97,0.4,3.97,0.7,5.97,0.88
	C151.45,206.48,153.52,206.52,155.59,206.43z"/>
<path class="st0" d="M286.08,175.66c-1.21-0.17-2.16-0.81-2.95-1.71c-0.18-0.2-0.35-0.41-0.43-0.5c-0.05-0.06-0.1-0.12-0.15-0.17
	l-0.07-0.08c-4.51-5.13-9.31-10-14.36-14.6c-0.4-0.37-0.81-0.73-1.22-1.1c-5.71-5.05-11.73-9.73-18.01-14.03
	c-6.38-4.31-13.03-8.23-19.38-11.45c-7.09-3.58-14.4-6.69-21.81-9.29c-7.31-2.53-14.78-4.59-22.35-6.18
	c-7.67-1.56-15.41-2.64-23-3.21c-0.11-0.01-0.21-0.01-0.32-0.02l-0.06,0c-7.86-0.53-15.75-0.56-23.46-0.1
	c-0.1,0.01-0.19,0.01-0.29,0.02l-0.09,0.01c-7.81,0.52-15.58,1.55-23.26,3.07c-7.68,1.56-15.23,3.61-22.65,6.12
	c-7.54,2.62-14.9,5.71-21.52,9.01c-6.74,3.38-13.25,7.17-19.53,11.34c-6.28,4.24-12.3,8.86-18.02,13.83
	c-5.1,4.49-9.95,9.24-14.52,14.27c-0.03,0.03-0.06,0.06-0.08,0.09c-0.02,0.02-0.04,0.05-0.07,0.07c-1.65,1.81-4.7,1.66-6.36-0.02
	c-0.84-0.84-1.31-2-1.31-3.19c0-1.23,0.52-2.28,1.33-3.18c0.02-0.02,0.04-0.05,0.06-0.07c0.02-0.02,0.04-0.04,0.06-0.06
	c8.79-9.66,18.61-18.37,29.22-25.97c12.18-8.73,25.46-16,39.39-21.52c14.29-5.66,29.24-9.58,44.48-11.58
	c10.27-1.35,20.66-1.84,31.02-1.45c12.28,0.45,24.47,2.14,36.42,4.98c12.73,3.02,25.16,7.45,36.95,13.11
	c12,5.76,23.38,12.78,33.88,20.96c6.55,5.1,12.76,10.65,18.57,16.57c2.79,2.85,5.48,5.8,8.09,8.82c1.61,1.86,1.03,4.88-0.83,6.31
	c-0.78,0.6-1.76,0.93-2.74,0.93C286.5,175.71,286.29,175.69,286.08,175.66z"/>
<path class="st0" d="M131.77,236.77c-15.87-2.44-31.42-6.78-46.3-12.81c-13.94-5.64-27.22-12.85-39.61-21.38
	c-10.57-7.27-20.44-15.62-29.34-24.87c-1.46-1.53-2.9-3.08-4.32-4.66c-0.81-0.9-1.32-1.95-1.32-3.18c0-1.19,0.48-2.34,1.32-3.18
	c1.66-1.67,4.72-1.83,6.36,0c4.87,5.41,10.04,10.53,15.5,15.34c5.93,5.16,12.16,9.95,18.66,14.37c6.93,4.65,14.13,8.86,21.4,12.55
	c0.06,0.03,0.11,0.06,0.17,0.09l0.09,0.05c7.75,3.87,15.74,7.25,23.79,10.08c8.31,2.88,16.8,5.22,25.3,7
	c0.04,0.01,0.08,0.02,0.12,0.02l0.05,0.01c8.42,1.7,16.93,2.87,25.35,3.46c8.21,0.54,16.45,0.55,24.66,0
	c7.42-0.54,14.8-1.53,22.09-3.01c6.72-1.4,13.34-3.22,19.83-5.47c5.71-2.03,11.29-4.38,16.71-7.09c5.03-2.55,9.89-5.4,14.56-8.54
	c4.11-2.81,8.04-5.85,11.8-9.11c3.7-3.27,7.2-6.75,10.48-10.44c3.05-3.49,5.89-7.15,8.41-10.85c1.3-1.93,2.54-3.9,3.72-5.9
	c1.24-2.11,4.04-2.86,6.16-1.62c2.11,1.23,2.86,4.04,1.62,6.16c-3,5.11-6.39,9.99-10.13,14.58c-8.46,10.38-18.61,19.23-29.85,26.5
	c-12.53,8.11-26.43,14.03-40.78,18.02c-12.88,3.58-26.19,5.5-39.54,6.05c-2.49,0.1-4.98,0.15-7.47,0.15
	C151.41,239.06,141.52,238.27,131.77,236.77z"/>
<path class="st0" d="M124.79,264.68c-17.16-3.44-33.88-9.02-49.7-16.52c-14.55-6.9-28.35-15.36-41.11-25.18
	c-6.29-4.84-12.31-10.02-18.05-15.49c-1.78-1.69-1.7-4.66,0-6.36c1.77-1.77,4.59-1.69,6.37,0c2.09,1.99,4.22,3.94,6.3,5.78
	c6.99,6.12,14.35,11.79,22.04,17c7.67,5.14,15.63,9.8,23.88,13.96c7.91,3.94,16.04,7.41,24.14,10.29c0.09,0.03,0.18,0.06,0.27,0.09
	l0.1,0.03c8.26,2.88,16.69,5.26,25.25,7.1c8.05,1.68,16.18,2.87,24.37,3.54c8.06,0.61,16.14,0.72,24.21,0.28
	c7.27-0.44,14.51-1.33,21.07-2.56c6.94-1.33,13.79-3.1,20.5-5.33c6.23-2.12,12.32-4.63,17.68-7.27c5.43-2.69,10.68-5.71,15.72-9.07
	c4.67-3.16,9.15-6.6,13.4-10.3c4.07-3.6,7.92-7.44,11.53-11.51c2.98-3.42,5.81-6.98,8.43-10.7c1.41-2,4.43-2.26,6.31-0.81
	c2.01,1.55,2.23,4.31,0.82,6.31c-6.45,9.14-14.09,17.39-22.56,24.68c-11.75,10.11-25.29,18.09-39.62,23.92
	c-16.1,6.54-33.3,10.27-50.62,11.47c-4.22,0.29-8.46,0.44-12.69,0.44C150.04,268.5,137.29,267.18,124.79,264.68z"/>
<path class="st0" d="M46.81,119.12c-1.79-1.69-1.86-4.56-0.2-6.36c10.6-11.48,23.88-20.34,37.91-27.08
	c15.32-7.36,31.71-12.31,48.4-15.38c16-2.95,32.33-4.01,48.58-3.45c17.5,0.61,35,3.3,51.78,8.3c10.97,3.28,21.66,7.56,31.7,13.1
	c8.37,4.62,16.27,10.16,23.25,16.71c1.79,1.68,1.88,4.57,0.2,6.36s-4.57,1.88-6.36,0.2c-1.5-1.41-3.05-2.77-4.19-3.72
	c-3.61-2.97-7.42-5.7-11.36-8.2c-4.98-3.1-10.17-5.86-15.51-8.3c-6.5-2.93-13.19-5.39-20.01-7.45c-7.9-2.35-15.96-4.16-23.95-5.47
	c-0.06-0.01-0.12-0.02-0.18-0.03l-0.17-0.03c-9.54-1.5-19.17-2.35-28.38-2.57c-9.81-0.2-19.61,0.22-29.3,1.28
	c-8.85,1.01-17.64,2.55-26.19,4.61c-0.04,0.01-0.08,0.02-0.12,0.03l-0.03,0.01c-7.65,1.9-15.19,4.24-22.56,7.05
	c-6.11,2.39-12.08,5.1-17.87,8.2c-4.86,2.65-9.56,5.56-14.06,8.79c-3.56,2.6-6.98,5.38-10.22,8.37c-1.65,1.56-3.26,3.17-4.8,4.84
	c-0.86,0.93-2.07,1.4-3.27,1.4C48.78,120.32,47.66,119.92,46.81,119.12z"/>
<path class="st0" d="M278.12,108.81c-0.98-1.66-2.01-3.28-3.1-4.87c-2.16-3.1-4.51-6.05-7.04-8.86c-2.8-3.06-5.8-5.94-8.51-8.26
	c-3.67-3.12-7.53-5.99-11.55-8.63c-4.71-3.04-9.61-5.75-14.67-8.18c-6.06-2.86-12.29-5.28-18.66-7.35
	c-7.54-2.38-15.21-4.24-22.98-5.65c-9.14-1.58-18.38-2.54-27.65-2.93c-9.99-0.36-19.98-0.07-29.94,0.82
	c-10.53,1.01-20.97,2.68-31.29,5c-9.99,2.3-19.82,5.2-29.45,8.7c-9.2,3.4-18.18,7.35-26.9,11.86c-6.84,3.6-13.5,7.53-19.91,11.85
	c-2.04,1.37-4.96,0.5-6.18-1.52c-0.61-1.02-0.8-2.25-0.52-3.4c0.29-1.2,1.04-2.1,2.04-2.77c13.24-8.92,27.52-16.25,42.34-22.15
	c16.27-6.47,33.22-11.13,50.47-14.08c17.4-2.98,35.16-4.06,52.8-3.13c17.86,0.94,35.61,4.04,52.58,9.74
	c14.39,4.84,28.25,11.72,40.33,20.97c7.48,5.73,14.31,12.38,19.96,19.94c1.98,2.65,3.84,5.41,5.52,8.26
	c1.24,2.11,0.59,4.9-1.53,6.18c-0.71,0.43-1.51,0.63-2.3,0.63C280.46,110.97,278.94,110.2,278.12,108.81z"/>
<path class="st0" d="M39.43,124.01c-9.06-0.12-17.91-5.11-22.5-12.97c-2.2-3.77-3.38-8.12-3.03-12.49
	c0.37-4.58,2.51-8.75,5.89-11.83c0.95-0.87,2.02-1.63,3.14-2.26c1.06-0.59,2.19-0.85,3.39-0.58c1.16,0.27,2.18,0.99,2.81,1.99
	c1.25,1.99,0.73,5.02-1.41,6.21c-0.4,0.22-0.79,0.46-1.17,0.72c-0.33,0.25-0.65,0.51-0.95,0.78c-0.28,0.28-0.55,0.56-0.81,0.86
	c-0.22,0.28-0.43,0.57-0.62,0.87c-0.2,0.33-0.38,0.67-0.55,1.02c-0.15,0.36-0.28,0.72-0.41,1.09c-0.11,0.39-0.2,0.78-0.27,1.18
	c-0.06,0.45-0.1,0.9-0.12,1.35c0,0.44,0.02,0.88,0.06,1.32c0.07,0.51,0.16,1.01,0.27,1.52c0.15,0.57,0.33,1.12,0.53,1.68
	c0.23,0.55,0.48,1.08,0.75,1.61c0.33,0.59,0.7,1.16,1.09,1.71c0.41,0.54,0.84,1.07,1.3,1.57c0.53,0.55,1.09,1.08,1.68,1.58
	c0.62,0.5,1.27,0.96,1.94,1.4c0.72,0.43,1.46,0.83,2.21,1.18c0.73,0.31,1.47,0.59,2.23,0.83c0.71,0.2,1.42,0.36,2.14,0.49
	c0.7,0.1,1.4,0.17,2.1,0.2c0.66,0.01,1.33-0.02,1.99-0.08c0.54-0.07,1.08-0.16,1.61-0.28c0.49-0.13,0.98-0.28,1.46-0.45
	c0.42-0.17,0.84-0.37,1.25-0.58c0.37-0.21,0.73-0.43,1.08-0.67c0.15-0.11,0.3-0.23,0.45-0.35c1.89-1.55,4.77-1.29,6.33,0.61
	c1.55,1.89,1.29,4.78-0.61,6.34c-3.61,2.96-8.31,4.47-12.96,4.47C39.63,124.01,39.53,124.01,39.43,124.01z"/>
</svg>
