<?xml version="1.0" encoding="utf-8"?>
<!-- Generator: Adobe Adobe Illustrator 24.2.0, SVG Export Plug-In . SVG Version: 6.00 Build 0)  -->
<svg version="1.1" id="Capa_de_vector_1_" xmlns="http://www.w3.org/2000/svg" xmlns:xlink="http://www.w3.org/1999/xlink" x="0px"
	 y="0px" viewBox="0 0 1000 1000" style="enable-background:new 0 0 1000 1000;" xml:space="preserve">
<style type="text/css">
	.st0{fill:#AF9786;}
</style>
<path class="st0" d="M875.26,970.8c-3.57-0.98-7.26-3.52-8.96-6.89c-3.97-7.03-8.81-13.61-13.01-20.53
	c-21.4-31.24-30.91-68.12-40.68-104.19c-21.34-81.98-33.1-168.08-21.78-252.54c6.23-44.57,22.11-86.59,40.76-127.28
	c6.99-15.69,16.64-29.94,24.57-45.13c6.27-13.29,13.68-25.97,20.46-39c9.74-19.97,17.95-40.68,25.78-61.46
	c11.53-35.13,21.22-70.95,29.75-106.92c4.85-26.69,7.11-53.77,9.96-80.72c3.35-22.78,2.7-45.7,2.69-68.64
	c0.69-11.68-4.15-26.99,10.67-31.36c15.75-3.27,20.75,11.17,19.4,24.32c-0.17,13.27-0.09,26.53,0.01,39.8
	c-3.52,54.38-7.79,109.68-23.29,162.17c-7.55,26.2-13.78,52.81-23.48,78.34c-12.37,34.68-29.52,67.11-46.56,99.62
	c-59.08,98.14-75.67,188.86-59.61,301.99c6.92,52.57,19.41,104.2,36.03,154.53c6.61,18.24,16.86,34.82,27.38,51.03
	c4.1,6.89,10.83,13.76,8.36,22.41C891.72,968.09,882.98,973.11,875.26,970.8z"/>
<path class="st0" d="M414.85,957.98c-8.71-2.25-12.91-11.94-10.11-20.18c3.06-15.66,5.63-31.4,9.47-46.89
	c4.12-32.98,7.5-66.44,6.1-99.71c-1.73-29.36-5.82-58.53-12.67-87.07c0.17-17.29,24.91-20.53,29.47-3.91
	c4.64,15.23,6.53,31.16,9.21,46.82c4.4,35.06,6.1,70.4,1.8,105.57c-1.08,20.57-3,41.06-8.41,60.99c-2.16,11.29-3.87,22.68-6.43,33.9
	C431.48,955.47,422.45,960.07,414.85,957.98z"/>
<path class="st0" d="M292.8,909.22c0-0.02,0-0.04,0-0.05c0-0.04,0-0.08,0-0.12c0.26-16.46,0.54-32.93,0.81-49.39
	c0.09-5.4,0.18-10.79,0.27-16.18c0-0.04,0-0.08,0-0.12c0.01-0.92,0.03-1.84,0.05-2.76c0.13-8.17,6.72-15,15-15
	c8.07,0,15.13,6.82,15,15c-0.32,19.47-0.64,38.94-0.96,58.41c-0.05,3.41-0.11,6.81-0.17,10.22c-0.14,8.17-6.72,15-15,15
	C299.72,924.22,292.67,917.4,292.8,909.22z"/>
<path class="st0" d="M266.59,877.72c-13.16-15.07,5.11-24.57,14.31-34.57c9.11-8.78,11.47-28.93,28.06-24.49
	c21.17,7.52,6.29,29.99-3.03,41.33C296.18,869.89,281.38,891.18,266.59,877.72z"/>
<path class="st0" d="M327.68,875.15c-11.75-8.85-21.84-19.8-30.06-31.98c-13.69-21.56,23.31-37.46,28.22-12.11
	c5.76,7.68,12.44,14.63,20.17,20.34C361.3,863.85,343.48,886.82,327.68,875.15z"/>
<path class="st0" d="M209.14,725.66c0.75-18.04,19.29-15.2,32.13-15.35c12.14-1.17,25.83-10.49,33.06,4.98
	c6.81,18.65-15.92,23.5-29.63,24.81c-6.86,0.78-13.72-0.24-20.56,0.56C215.97,740.66,209.14,733.83,209.14,725.66z"/>
<path class="st0" d="M292.27,716.04c-14.34-3.52-14.41-25.5,0-28.93c10.38-1.41,20.2-5.46,29.72-9.71
	c3.47-1.69,7.24-2.33,11.08-1.27c7.8,2,12.76,10.73,10.48,18.45c-3.19,11.05-16.75,12.87-25.97,16.9
	C309.5,713.89,300.85,718.14,292.27,716.04z"/>
<path class="st0" d="M374.95,682.74c-20.48-2.19-19.48-26.27-0.24-31.44c13.04-5.25,32.3-21.06,41.54-2.27
	c3.3,7.43-0.54,16.54-7.98,19.66c-8.02,3.68-16.01,7.44-23.98,11.22C381.67,681.83,378.35,682.88,374.95,682.74z"/>
<path class="st0" d="M429.93,633.82c-0.22-11.68,12.36-15.74,20.8-20.53c4.98-2.66,10.02-5.32,14.76-8.39
	c3.55-3.4,8.47-5.67,13.46-4.81c8,0.94,14.07,8.94,12.83,16.9c-3.1,13.82-19.81,17.77-30.41,24.61c-5.59,2.36-9.96,7.31-16.45,7.23
	C436.76,648.82,429.93,641.99,429.93,633.82z"/>
<path class="st0" d="M636.49,476.32c-9.7-2.45-18.89-7.39-26.55-13.78c-9.7-8.1-17.48-18.31-23.25-29.54
	c-0.69-1.34-1.36-2.68-2.01-4.04c-0.05-0.09-0.09-0.19-0.14-0.28c0-0.01-0.01-0.02-0.01-0.03c-1.7-3.56-1.51-8.11,0-11.68
	c1.51-3.57,4.41-6.47,7.98-7.98c3.7-1.57,7.98-1.57,11.68,0c3.69,1.56,6.28,4.43,7.98,7.98c0,0.01,0.01,0.02,0.01,0.03
	c0,0,0,0,0,0.01c0.01,0.02,0.02,0.03,0.02,0.05c0.13,0.28,0.27,0.55,0.4,0.83c1.58,3.08,3.32,6.08,5.22,8.98
	c1.62,2.34,3.35,4.6,5.2,6.76c1.47,1.62,3.01,3.17,4.63,4.64c1.55,1.32,3.15,2.56,4.82,3.73c1.46,0.94,2.96,1.82,4.5,2.64
	c1.43,0.68,2.89,1.29,4.38,1.84c1.54,0.5,3.09,0.93,4.66,1.29c1.52,0.27,3.04,0.47,4.57,0.61c1.67,0.07,3.34,0.07,5-0.01
	c1.78-0.16,3.55-0.41,5.31-0.73c2.04-0.46,4.04-1.03,6.02-1.67c2.23-0.83,4.42-1.77,6.57-2.8c2.46-1.29,4.84-2.7,7.15-4.22
	c2.85-1.98,5.58-4.11,8.22-6.38c3.16-2.86,6.15-5.88,9-9.05c3.46-4.01,6.67-8.21,9.68-12.57c3.64-5.49,6.95-11.18,9.95-17.04
	c3.49-7.09,6.54-14.37,9.17-21.81c2.63-7.78,4.81-15.69,6.55-23.71c0.06-0.37,0.13-0.73,0.21-1.1c0.07-0.38,0.15-0.75,0.24-1.13
	c1.58-8.22,2.69-16.51,3.32-24.86c0.49-8.1,0.53-16.2,0.05-24.3c-0.51-6.85-1.39-13.67-2.71-20.42c-1.16-5.46-2.61-10.84-4.39-16.13
	c-1.48-4.11-3.16-8.14-5.07-12.07c-1.58-3.05-3.29-6.01-5.17-8.88c-1.56-2.25-3.22-4.41-4.99-6.5c-1.55-1.71-3.17-3.34-4.87-4.9
	c-1.48-1.25-3-2.43-4.57-3.56c-1.49-0.96-3.01-1.87-4.57-2.7c-1.52-0.72-3.07-1.38-4.65-1.97c-1.42-0.45-2.86-0.84-4.32-1.18
	c-1.63-0.29-3.27-0.51-4.92-0.66c-1.63-0.06-3.26-0.05-4.9,0.02c-1.77,0.17-3.52,0.41-5.27,0.72c-1.97,0.45-3.92,0.98-5.85,1.61
	c-2.22,0.82-4.39,1.75-6.53,2.77c-2.48,1.29-4.88,2.71-7.23,4.23c-2.94,2.05-5.76,4.24-8.47,6.58c-3.15,2.86-6.13,5.88-8.98,9.05
	c-3.42,3.99-6.62,8.16-9.61,12.49c-1.18,1.77-2.34,3.57-3.45,5.39c-0.04,0.06-0.07,0.12-0.11,0.18c0,0,0,0,0,0c0,0,0,0.01-0.01,0.01
	c-4.26,6.96-13.36,9.57-20.52,5.38c-6.97-4.09-9.61-13.52-5.38-20.52c10.81-17.68,24.65-33.77,42.23-45
	c9.38-6,19.96-10.33,30.98-12.09c11.68-1.86,23.46-0.56,34.51,3.58c10.23,3.83,19.43,10.56,26.88,18.48
	c7.37,7.83,13.06,16.88,17.75,26.51c4.29,8.81,7.39,18.27,9.64,27.8c2.45,10.38,3.84,20.89,4.52,31.52
	c0.67,10.37,0.39,20.77-0.5,31.11c-0.41,4.84-1,9.66-1.74,14.45c-0.33,2.18-0.7,4.35-1.11,6.51c-0.22,1.16-0.45,2.32-0.68,3.48
	c0,0.02,0,0.04-0.01,0.05c-0.09,0.67-0.23,1.32-0.4,1.95c0,0,0,0,0,0c0,0,0,0.01,0,0.01c-0.03,0.18-0.07,0.36-0.11,0.54
	c-0.24,1.16-0.49,2.32-0.75,3.47c-2.15,9.59-5,19.01-8.4,28.24c-7.14,19.37-17.18,37.93-30.43,53.82
	c-13.72,16.46-31.65,30.66-52.77,35.91c-5.6,1.39-11.3,2.1-17.01,2.1C647.53,478.38,641.96,477.71,636.49,476.32z"/>
<path class="st0" d="M751.88,330.19c-12.25-18.21,13.29-26.3,23.32-36.94c16.43-13.33,31.57-28.03,46.9-42.58
	c27.29-28.53,53.6-58.2,73.9-92.21c7.72-11.48,14.5-23.49,19.85-36.26c8.09-17.07,16.84-34.06,21.12-52.58
	c1.6-7.8,1.85-15.75,1.89-23.68c0.46-19.56,29.61-19.76,30,0c1.71,33.85-13.93,64.37-28.1,94.05
	c-26.06,53.11-64.29,99.72-106.74,140.57c-11.75,11.6-23.81,22.83-36.74,33.13C785.48,322.49,765.86,346.8,751.88,330.19z"/>
<path class="st0" d="M816.32,497.04c-14.7-16.8-31.03-32.6-42.86-51.65c-9.68-19.79-21.11-39.26-26.42-60.79
	c-2.33-14.8-11.48-51.52,1.24-61.7c10.51-8.65,27.32,2.02,23.84,15.27c-0.51,16.15,1.86,32.55,6.5,48.01
	c6.77,16.36,14.41,32.49,23.07,47.93c5.67,7.72,12.08,14.88,18.25,22.2c6.54,9.12,21.46,18.78,21.99,30.12
	C842.4,499.31,825.07,506.59,816.32,497.04z"/>
<path class="st0" d="M597.91,250.69c-3.95-30.51-22.3-56.93-44.6-77.27c-13.55-13.7-28.13-26.42-44.22-37.07
	c-21.46-15.16-45.14-26.59-68.02-39.36c-18.18-11.51-36.22-23.28-53.69-35.86c-4.48-3.11-9.5-5.27-14-8.34
	c-14.8-11.52,1.24-34.46,17.07-24.6c27.49,15.66,51.81,36.67,80.28,50.79c48.52,24.53,93.73,56.79,127.92,99.44
	c14.86,20.03,25.82,43.29,28.98,68.17C629.84,266.06,601.18,270.23,597.91,250.69z"/>
<path class="st0" d="M564.4,153.32c-10.86-0.98-22.1-1.87-32.33-5.87c-15.23-5.98-11.58-29.21,5.14-29.3
	c43.92,11.89,90.26,2.86,134.98-0.34c52.5-4.52,104.34-16.81,152.35-38.76c17.23-9.39,33.35-21.1,47.29-34.93
	c14.08-13.58,34.83,6.86,21.22,21.21c-3.71,3.96-7.92,7.42-11.98,11.01c-24.77,21.95-54.55,36.77-86.08,46.3
	c-51.81,19.33-107.17,24.59-161.93,28.67C610.25,153.22,587.28,155.27,564.4,153.32z"/>
<path class="st0" d="M257.04,780.22c-36.58-7.75-84.19-13.79-100.83-52.45c-5.35-18.62-2.05-38.86-0.38-57.88
	c2.6-13.5,0.41-27.78-9.21-38.11c-7.64-8.78-18.44-12.83-28.12-18.61c-12.24-9.77-11.65-28.67-2.82-40.54
	c-28.96-2.85-40.76-29.48-28.23-54.55c3.85-9.57,12.34-16.19,17.11-25.01c-7.91-7.72-19.85-10.66-29.16-16.68
	c-12.19-8.12-27.2-12.37-36.86-23.85c-19.66-20.41-4.57-49.3,4.76-71.11c10.28-20.82,20.97-41.51,32.9-61.43
	c12.29-21.34,25.64-43.51,29.19-68.25c0.3-23.68-7.08-46.26-8.71-69.76c-7.39-42.51-5.66-85.63-1.74-128.4
	c0.91-8.72-0.89-19.56,6.96-25.5c13.46-9.41,27.91,3.82,23.41,18.79c-1.22,20.72-3.42,41.38-3.72,62.14
	c-1.11,39.76,5.59,79.36,12.3,118.43c7.6,38.13-12.09,73.91-30.68,105.8c-10.29,16.71-19.02,34.28-28.26,51.59
	c-4.24,8.55-8.32,17.15-11.55,26.14c-2.31,8.46-8.96,19.3,1.12,25.04c11.33,6.1,22.54,12.4,33.77,18.69
	c10.28,4.99,21.16,9.79,28.94,18.43c15.53,18.99,4.02,37.4-9.81,52.85c-13.19,20.68,2.61,15.65,17.35,18.23
	c22.78,7.22,16.91,31.79,5,46.47c20.88,9.28,38.42,27.07,44.81,49.3c5.9,20.58-1.96,41.69-0.94,62.58
	c-1.46,13.64,2.02,20.96,13.42,28.79c32.04,15.84,84.21,27.34,119.09,17.43c60.48-16.36,110.2-75.12,148.03-122.42
	c16.01-20.59,32.97-41.5,49.47-61.35c13.9-13.64,35,6.93,21.22,21.21c-22.86,27.27-43.66,55.43-66.59,82.38
	c-12.12,15.79-26,29.96-40.35,43.72C382.98,757.67,322.97,793.24,257.04,780.22z"/>
<path class="st0" d="M309.99,190.65c-0.81-1.52-1.7-3-2.64-4.44c-1.3-1.86-2.7-3.65-4.17-5.38c-1.88-2.06-3.86-4.02-5.93-5.89
	c-2.49-2.12-5.07-4.1-7.75-5.96c-3.3-2.17-6.71-4.15-10.21-5.98c-4.33-2.11-8.76-3.98-13.3-5.61c-5-1.66-10.07-3.04-15.23-4.16
	c-5.35-1.02-10.72-1.73-16.15-2.16c-5.04-0.26-10.06-0.27-15.09,0.01c-4.36,0.35-8.68,0.92-12.98,1.72
	c-3.85,0.83-7.63,1.85-11.37,3.07c-2.92,1.07-5.78,2.27-8.6,3.61c-2.19,1.15-4.33,2.39-6.41,3.73c-1.71,1.2-3.38,2.47-4.98,3.82
	c-0.59,0.55-1.18,1.1-1.75,1.67c-5.82,5.74-15.41,5.81-21.21,0c-5.75-5.75-5.82-15.47,0-21.21c14.75-14.54,35.05-22.41,55.31-25.27
	c21.5-3.04,43.66-0.94,64.36,5.54s40.21,17.7,54.54,34.15c3.62,4.15,6.86,8.72,9.46,13.58c1.92,3.59,2.61,7.58,1.51,11.56
	c-1.03,3.74-3.54,7-6.89,8.96c-2.29,1.34-4.91,1.99-7.53,1.99C317.77,198.02,312.56,195.44,309.99,190.65z"/>
<path class="st0" d="M201.4,313.72c-6.8-3.54-9.14-11.58-10.99-18.5c-4.4-15.05-5.36-30.95-1.59-46.23
	c4.51-19.15,32.92-13.14,29.35,6.24c-1.38,6.37-2.25,12.88-1.48,19.4c0.91,5.97,2.19,11.87,4.16,17.59
	c2.73,4.46,3.33,10.17,0.75,15.1C217.84,314.62,208.54,317.47,201.4,313.72z"/>
<path class="st0" d="M189.8,314.95c-10.8-7.14-6.71-25.11,6.01-27.07c2.82-0.56,5.76-0.72,8.46,0.16c5.98-1.02,11.57-3.52,17.4-5.16
	c20.61-5.43,40.32-14.2,61.38-17.94c40.63-9.84,38.69,29.46,15.75,28.87c-10.72-0.59-21.14,3.08-31.28,6.11
	c-14.85,4.74-29.64,9.56-44.55,14.08C212.54,317.33,199.84,321.29,189.8,314.95z"/>
<path class="st0" d="M303.97,286.84c-29.47-3.08-59.17-8.93-85.68-22.72c-9.78-4.92-19.44-10.05-28.71-15.87
	c-11.73-7.97-22.42-17.42-34.08-25.55c-15.87-11.64,1.03-35.6,17.3-24.51c12.28,8.63,23.61,18.55,36.12,26.83
	c10.72,6.24,21.77,11.93,33.02,17.16c21.79,8.74,45.39,13.61,68.8,14.79C334.94,258.43,330.29,291.65,303.97,286.84z"/>
</svg>
