<?xml version="1.0" encoding="utf-8"?>
<!-- Generator: Adobe Adobe Illustrator 24.2.0, SVG Export Plug-In . SVG Version: 6.00 Build 0)  -->
<svg version="1.1" id="Capa_de_vector_1_" xmlns="http://www.w3.org/2000/svg" xmlns:xlink="http://www.w3.org/1999/xlink" x="0px"
	 y="0px" viewBox="0 0 300 300" style="enable-background:new 0 0 300 300;" xml:space="preserve">
<style type="text/css">
	.st0{fill:#C7CCAC;}
</style>
<path class="st0" d="M145.56,183.34c-0.02-8.14-0.06-16.29-0.06-24.43c0-2.18,1.82-4,4-4c2.18,0,4,1.82,4,4
	c0,8.14,0.04,16.29,0.06,24.43c0,2.18-1.82,4-4,4C147.37,187.34,145.56,185.52,145.56,183.34z"/>
<path class="st0" d="M90.81,285.7c-11.79-25.93-15.31-63.42-8.52-91.11c4.4-16.38,12.45-31.84,13.6-48.95
	c0.22-6.06-0.15-12.17-1.12-18.16c-0.84-2.25,0.23-4.92,2.63-5.56c6.39-1.11,5.44,7.47,6.12,11.59c0.66,7.15,0.55,14.33-0.79,21.38
	c-1.4,9-4.61,17.6-7.81,26.07c-3.92,11.53-7.6,23.42-7.79,35.66c-0.99,19.39,1.41,38.91,7.41,57.29c1.04,2.95,2.29,5.84,3.62,8.67
	C100.14,287.35,93.05,290.54,90.81,285.7z"/>
<path class="st0" d="M138.46,282.39c-4.9-12.99-11.42-25.47-16.36-38.33c-0.15-4.36,6.39-5.52,7.74-1.37
	c3.43,6.16,5.62,12.9,8.67,19.25c2.57,5.72,5.14,11.46,7.33,17.34C147.71,284.16,140.59,287.19,138.46,282.39z"/>
<path class="st0" d="M196.6,290.77c-6.82-17.06-13.65-34.14-20.57-51.18c-6.19-14.73-11.81-30.17-21.76-42.86
	c-8.64-10.51-19.57-12.55-32.54-12.15c-7.24,0.11-14.47-0.38-21.7-0.03c-2.17-0.1-4.33,0.1-6.49,0.01c-2.17-0.2-3.71-2.41-3.43-4.5
	c0.5-3.57,4.14-3.57,6.93-3.55c9.53-0.1,19.07,0.02,28.61,0.09c15.01-0.13,27.11,4.76,36.3,16.91
	c14.63,20.78,21.8,45.54,31.87,68.62c3.46,8.9,7.16,17.71,10.54,26.62C205.57,293.76,198.15,295.88,196.6,290.77z"/>
<path class="st0" d="M224.59,251.26c-1.11-0.01-2.22-0.01-3.33-0.02c-0.05,0-0.1,0-0.14,0c-0.15,0-0.31,0-0.46,0
	c-0.09,0-0.18,0-0.27,0c-2.18-0.02-4.01-1.8-4.01-3.99c0-2.18,1.81-4.01,3.99-4.01c6.84,0,13.67,0.07,20.5,0.11
	c3.21,0.02,6.43,0.05,9.64,0.05c2.18,0,4.01,1.81,4.01,3.99c0,2.18-1.81,4.01-3.99,4.01C241.89,251.39,233.24,251.31,224.59,251.26z
	"/>
<path class="st0" d="M254.21,289.34c-1.99-0.53-3.18-2.49-2.91-4.46c0.11-5.37,0.67-10.72,0.55-16.09
	c-0.03-9.13-1.19-18.22-2.04-27.3c-0.15-4.95-1.41-10.67-2.35-15.25c-0.74-3.22-1.06-6.69-2.5-9.68c-2.54-4.8,4.46-8.55,7.14-3.79
	c1.97,4.16,2.5,8.88,3.46,13.35c1.9,7.56,2.18,15.32,3.07,23.03c0.7,8.74,1.66,17.54,1.05,26.31c-0.18,2.83-0.27,5.66-0.36,8.49
	C259.71,287.02,257.57,290.2,254.21,289.34z"/>
<path class="st0" d="M205.93,237.73c-3.89-7.94,1.53-15.71,7.91-20.32c7.46-5.69,15.33-13.51,25.55-11.57
	c4.73,0.64,16.97,5.4,10.99,11.39c-3.25,2.41-5.73-1.22-8.5-2.52c-5.06-2.12-10.8-1.05-14.79,2.7c-4.51,3.85-13.61,8.26-14.44,14.52
	c-0.07,0.99,0.36,1.9,0.7,2.81c0.78,2.03-0.18,4.39-2.22,5.21C209.16,240.75,206.72,239.77,205.93,237.73z"/>
<path class="st0" d="M218.37,250.72c-4.61-2.7-8.86-6.23-11.25-11.12c-4.07-4.68,2.22-10.25,5.99-5.5c1.3,2.15,2.48,4.4,4.31,6.17
	c1.55,1.41,3.41,2.52,5.15,3.66C226.74,246.79,222.81,253.14,218.37,250.72z"/>
<path class="st0" d="M188.71,242c-2.94-0.11-6.34,0.32-8.84-1.51c-1.76-1.28-2.03-3.92-0.72-5.61c1.49-2.02,3.76-1.55,5.77-0.98
	c6.73,0.15,13.67,1.08,20.09-1.51c4.25-2.78,8.66,3.25,4.69,6.48C203.41,242.46,195.76,242.44,188.71,242z"/>
<path class="st0" d="M159.22,197.67c-6-1.37-2.89-8.92-1.94-12.99c1.37-4.62,4.39-8.55,7.05-12.5
	c14.69-20.11,49.46-21.91,64.21-0.96c3.89,4.75,6.07,10.62,6.78,16.67c0.9,2.18,0.35,4.84-1.99,5.8c-1.98,0.84-4.43-0.11-5.24-2.13
	c-1.18-3.79-1.23-7.91-3.22-11.45c-5.7-10.62-16.62-16.62-28.64-15.74c-14.52,0.36-25.5,8.93-31.11,22.07
	c-0.62,2.07-1.15,4.19-1.46,6.33C164.36,195.37,161.87,198.17,159.22,197.67z"/>
<path class="st0" d="M230.4,211.65c-1.76-1.36-2-3.84-0.72-5.61c0.77-1.12,1.9-2.02,2.39-3.32c0.75-2.27-0.64-4.76-2.55-5.99
	c-1.38-0.26-2.96,0.11-4.23,0.7c-0.73,1.01-1.92,1.69-3.25,1.69c-2.18,0-4-1.82-4-4c0.56-5.67,8.94-7.19,13.52-6.16
	c5.78,1.96,9.63,8.61,8.52,14.61c-0.43,2.9-2.26,5.2-4.07,7.37C234.73,212.69,232.08,212.95,230.4,211.65z"/>
<path class="st0" d="M192.94,206.33c-2.86-0.36-4.88-3.54-3.3-6.16c1.22-2.15,3.71-2.24,5.79-1.53c2.39,0.17,4.68-1.28,5.9-3.29
	c1.26-1.78,3.94-2.01,5.61-0.72c4.23,3.73-1.31,8.75-4.83,10.48C199.33,206.59,195.99,207.04,192.94,206.33z"/>
<path class="st0" d="M169.16,214.64c-0.82-1.95,0.09-4.47,2.13-5.24c0.87-0.33,1.7-0.75,2.41-1.37c0.82-0.63,1.13-1.53,1.57-2.41
	c1.18-1.83,3.53-2.57,5.47-1.44C187.98,208.75,172.87,222.42,169.16,214.64z"/>
<path class="st0" d="M182.8,223.14c0.36-5.21,5.48-3.43,8.91-4.86c1.08-0.4,2.19-0.92,2.97-1.8c1.21-1.61,3.45-2.17,5.25-1.12
	c5.33,3.81-1.16,9.15-5.27,10.36C190.89,226.98,183.25,229.14,182.8,223.14z"/>
<path class="st0" d="M61.98,130.76c-2.95-1.33-5.74-3.02-8.22-5.11c-0.13-0.11-0.26-0.22-0.39-0.33c-4.14-3.48-7.41-8-9.55-12.96
	c-2.22-5.12-3.09-10.69-2.8-16.25c0.3-5.48,2.02-10.96,4.81-15.68c1.55-2.62,3.43-5.06,5.6-7.21c2.75-2.71,5.89-4.9,9.33-6.64
	c3.46-1.75,7.32-2.88,11.18-3.35c2.16-0.26,4.23,1.11,4.58,3.32c0.33,2.09-1.15,4.32-3.32,4.58c-0.95,0.12-1.89,0.28-2.83,0.48
	c-1.2,0.29-2.39,0.64-3.55,1.06c-1.15,0.45-2.26,0.95-3.36,1.51c-1.05,0.58-2.06,1.2-3.04,1.88c-0.92,0.67-1.79,1.39-2.64,2.14
	c-0.86,0.81-1.67,1.66-2.43,2.55c-0.73,0.9-1.42,1.84-2.07,2.81c-0.62,0.99-1.19,2.01-1.7,3.07c-0.49,1.07-0.93,2.17-1.31,3.29
	c-0.37,1.2-0.68,2.4-0.91,3.63c-0.19,1.15-0.32,2.31-0.4,3.48c-0.05,1.25-0.02,2.5,0.07,3.75c0.13,1.25,0.32,2.49,0.58,3.71
	c0.29,1.19,0.64,2.35,1.05,3.5c0.43,1.1,0.91,2.18,1.45,3.23c0.57,1.04,1.19,2.04,1.86,3.02c0.69,0.95,1.42,1.86,2.21,2.73
	c0.8,0.85,1.64,1.66,2.53,2.42c0.89,0.74,1.82,1.42,2.79,2.05c1.03,0.65,2.1,1.24,3.2,1.77c1.06,0.48,2.14,0.91,3.24,1.27
	c1.17,0.36,2.36,0.66,3.57,0.9c1.2,0.2,2.41,0.34,3.63,0.41c1.25,0.04,2.49,0.01,3.73-0.09c1.2-0.12,2.38-0.31,3.56-0.57
	c1.19-0.28,2.37-0.63,3.52-1.05c1.11-0.43,2.19-0.91,3.25-1.46c1.05-0.57,2.07-1.2,3.05-1.88c0.94-0.68,1.83-1.41,2.69-2.18
	c1.48-1.32,3.89-1.11,5.28,0.22c1.5,1.43,1.73,4.18,0.12,5.65c-0.13,0.12-0.26,0.24-0.39,0.36c-0.03,0.02-0.05,0.05-0.08,0.07
	c-4.75,4.2-10.51,7.02-16.72,8.28c-2.22,0.45-4.5,0.67-6.78,0.67C71.44,133.82,66.47,132.78,61.98,130.76z"/>
<path class="st0" d="M113.63,115.68c-3.86-4.07-5.84-9.61-5.36-15.21c0.45-5.23,3.12-10.23,7.25-13.48c1.7-1.34,3.57-2.35,5.59-3.11
	c2.51-0.95,5.23-1.22,7.89-1.09c2.86,0.14,5.77,1.06,8.25,2.48c1.89,1.08,2.67,3.47,1.62,5.42c-1.02,1.88-3.53,2.7-5.42,1.62
	c-0.31-0.18-0.63-0.35-0.96-0.5c-0.49-0.21-0.98-0.4-1.49-0.57c-0.47-0.13-0.95-0.25-1.43-0.34c-0.49-0.07-0.99-0.12-1.49-0.15
	c-0.52-0.01-1.03,0.01-1.54,0.05c-0.5,0.06-1,0.15-1.5,0.25c-0.51,0.13-1.01,0.29-1.5,0.46c-0.47,0.19-0.93,0.41-1.38,0.64
	c-0.43,0.25-0.84,0.51-1.25,0.79c-0.39,0.3-0.77,0.61-1.13,0.94c-0.33,0.33-0.65,0.67-0.95,1.02c-0.3,0.39-0.59,0.79-0.86,1.2
	c-0.26,0.43-0.49,0.87-0.71,1.31c-0.2,0.47-0.38,0.94-0.54,1.42c-0.13,0.47-0.25,0.94-0.34,1.42c-0.08,0.51-0.13,1.03-0.16,1.55
	c-0.01,0.53,0.01,1.05,0.05,1.57c0.07,0.53,0.16,1.05,0.27,1.56c0.13,0.47,0.27,0.93,0.44,1.39c0.19,0.46,0.4,0.91,0.63,1.36
	c0.25,0.44,0.52,0.86,0.8,1.27c0.29,0.38,0.6,0.75,0.92,1.11c0.35,0.36,0.72,0.7,1.1,1.02c0.36,0.28,0.73,0.55,1.12,0.8
	c0.45,0.27,0.91,0.52,1.38,0.75c0.44,0.19,0.9,0.37,1.36,0.52c0.48,0.14,0.96,0.25,1.44,0.35c0.51,0.08,1.03,0.13,1.55,0.16
	c0.51,0.01,1.03-0.01,1.54-0.05c0.52-0.06,1.03-0.15,1.53-0.26c0.53-0.14,1.05-0.3,1.56-0.49c2.04-0.76,4.39,0.63,5.01,2.63
	c0.32,1.02,0.21,2.15-0.3,3.09c-0.51,0.95-1.34,1.55-2.33,1.92c-2.1,0.78-4.31,1.16-6.52,1.16
	C122.51,121.64,117.29,119.53,113.63,115.68z"/>
<path class="st0" d="M94.18,122.64c0-2.11,1.67-3.8,3.71-4.01c3.02-1.33,6-2.83,8.73-4.67c2.51-1.81,4.81-4.3,7.82-1.6
	c1.58,1.58,1.49,4.07,0,5.66c-3.52,3.19-7.88,5.33-12.12,7.42C99.22,127.33,94.38,127.14,94.18,122.64z"/>
<path class="st0" d="M135.23,93.62c-2.17-0.26-3.7-2.37-3.42-4.5c0.16-1.99,2.26-3.17,3.51-4.38c2.08-1.77,3.88-3.81,5.43-6.06
	c3.56-4.78,6.85-9.88,8.93-15.49c1.12-3.07,1.11-8.07,5.64-7.54C167.57,57.16,142.07,95.04,135.23,93.62z"/>
<path class="st0" d="M149.82,59.48c0.54-8.14,11.47,1.07,31.29-15.82c2.71-2.38,5.12-5.14,7.33-7.96c3.27-4.08,9.43,0.63,6.33,4.89
	c-1.76,2.23-3.63,4.39-5.6,6.43c-6.58,6.46-14.64,11.62-23.45,14.44c-3.54,1.06-7.22,1.73-10.91,1.89
	C152.37,64.04,149.79,62.02,149.82,59.48z"/>
<path class="st0" d="M196.75,86.65c-6.33-7.03-11.75-7.39-20.59-5.36c-2.12,0-4.08-1.82-4-4c0.04-3.6,3.94-4.44,6.84-4.7
	c8.64-1.48,16.86,0.98,22.63,7.72C205.73,83.61,200.99,89.74,196.75,86.65z"/>
<path class="st0" d="M172.97,104.79c-3.81-1.63-10.46-4.95-8.73-9.46c0.83-1.96,3.26-3.03,5.24-2.13c2.62,1.91,5.09,4.17,8.43,4.75
	c3.46,0.82,8.59-0.66,8.89,4.44C186.18,108.96,177.07,105.95,172.97,104.79z"/>
<path class="st0" d="M184.39,127.88c0.01,0.01,0.02,0.02,0.03,0.03c-0.02,0.04-0.05,0.08-0.07,0.12
	C184.36,127.98,184.37,127.93,184.39,127.88z"/>
<path class="st0" d="M190.71,139.67c0.02-0.07,0.04-0.14,0.07-0.21c0.35-1.09,0.61-2.19,0.85-3.3c0.14-0.37,0.28-0.74,0.41-1.11
	c0.36-1,0.69-2.02,0.98-3.04c0.02-0.07,0.04-0.13,0.06-0.2c0.65,0.01,1.29-0.03,1.91-0.12c5.24-0.3,5.9,7.33,0.65,7.98
	c-0.78,0.1-1.58,0.14-2.38,0.14C192.4,139.8,191.55,139.76,190.71,139.67z"/>
<path class="st0" d="M196.56,121c-0.66-2.9,1.94-4.99,4.63-5.03c1.82-0.39,4.01-1.76,4.71-3.49c-1.68-4.27-5.78-6.93-7.89-10.97
	c-4.11-6.37-3.52-12.87-1.66-19.87c1.04-4.38,1.15-8.9,1.18-13.39c-0.47-8.03-1.71-16.18-4.68-23.68c-0.46-1.01-1.01-1.98-1.78-2.79
	c-1.44-1.63-1.31-4.19,0.32-5.65c9.67-6.37,13.14,21.81,13.89,27.55c1,8.81-0.66,17.52-2.32,26.13
	c-1.18,9.02,9.64,13.37,10.89,21.72c0.69,5.64-4.44,9.82-9.13,11.79C201.65,124.3,197.61,125.02,196.56,121z"/>
<path class="st0" d="M183.28,162.51c-2.98-2.81-0.52-5.68,1.55-8.06c0.85-1.05,1.79-3.08,2.15-4.01c2.23-5.69,4.17-11.53,5.74-17.45
	c0.1-0.33,0.2-0.66,0.29-0.98c0.15-0.53,0.3-1.07,0.43-1.61c0.09-0.39,0.16-0.8,0.26-1.19c0.12-0.21,0.19-0.45,0.18-0.69
	c0-0.05-0.01-0.09-0.01-0.14c0.65-2.81,1.21-5.64,1.68-8.48c1.04-5.13,8.68-3.79,7.88,1.41c-0.9,5.95-8.54,42.13-17.64,42.13
	C184.96,163.44,184.12,163.15,183.28,162.51z"/>
<path class="st0" d="M169.53,167.25c-8.47-0.15-16.82-2.33-24.44-6c-3.31-1.49-9.37-3.58-6.9-8.25c1.08-1.83,3.64-2.57,5.48-1.41
	c1.96,1.24,4.13,2.1,6.23,3.04c7.65,3.6,16.2,5.09,24.62,4.63c2.78-0.34,5.72-0.75,8.19-2.14c1.58-1.23,3.38-2.75,5.53-2.12
	c3.3,0.77,4,5.77,0.93,7.32c-0.84,0.58-1.64,1.21-2.5,1.76C181.5,166.88,175.36,167.53,169.53,167.25z"/>
<path class="st0" d="M93.03,123.23c-7.21-15.17-20.85-28.35-21.62-46c0.41-24.43,14.95-49.2,37.75-58.99
	c15.4-7.92,33.26-10.93,50.17-6.58c12.41,2.41,24.48,7.94,33.25,17.21c1.39,1.62,3.15,3.14,3.94,5.17c0.86,2.42,0.85,5.76-1.25,7.53
	c-3.16,2.42-7.51-0.9-6.23-4.6c-11.81-14.47-31.86-19.68-49.9-19.19c-13.98,1.07-28.24,7.1-39.35,15.52
	C87.3,44.5,79.21,61.46,79.48,78.34c0.76,7.12,4.22,13.65,7.81,19.73c2.42,5.51,15.22,20.67,13.12,25.2
	C99.2,126.42,94.17,126.47,93.03,123.23z"/>
<path class="st0" d="M193.35,144c-7.12-0.07-13.79-2.98-19.88-6.44c-2.29-1.29-4.81-2.45-6.31-4.7c-2.89-4.65,3.73-8.8,6.83-4.27
	c6.26,3.77,12.37,7.25,19.73,7.41C198.95,136.36,198.6,144.1,193.35,144z"/>
</svg>
