<?xml version="1.0" encoding="utf-8"?>
<!-- Generator: Adobe Adobe Illustrator 24.2.0, SVG Export Plug-In . SVG Version: 6.00 Build 0)  -->
<svg version="1.1" id="Capa_de_vector_1_" xmlns="http://www.w3.org/2000/svg" xmlns:xlink="http://www.w3.org/1999/xlink" x="0px"
	 y="0px" viewBox="0 0 1000 1000" style="enable-background:new 0 0 1000 1000;" xml:space="preserve">
<style type="text/css">
	.st0{fill:#A46460;}
</style>
<path class="st0" d="M919.27,886.53c-13.13-8.56-3.69-18.65-6.36-30.37c-8.64-29.3-32.93-49.34-54.17-69.7
	c-8.17-9.03-17.64-16.83-25.36-26.27c-7.99-10.48-15.84-21.08-22.98-32.16c-8.52-14.42-16.02-29.45-23.6-44.38
	c-10.64-23.21-15.82-48.47-21.67-73.2c-9.82-43.26-12.05-87.74-20.85-131.18c-9.24-44.5-29.59-85.48-41.15-129.25
	c-13.98-50.58-18.48-102.95-21.73-155.14c-2.98-33.88-5.91-67.77-9.29-101.62c-2-16.72-1.91-33.56-2.51-50.36
	c-1.84-11.89-1.89-26.95,14.14-27.78c9.3-0.02,15.96,8.48,15.04,17.48c1.49,14.9,1.06,29.89,1.95,44.83
	c2.44,25.79,5.26,51.55,7.14,77.4c5.57,51.62,5.78,103.95,16.59,154.9c3.5,15.89,7.2,31.77,11.7,47.42
	c9.32,29.31,22.08,57.41,29.9,87.23c18.37,60.26,17.1,124.46,34.39,185.05c4.21,15.4,8.03,31.03,15.35,45.32
	c12.16,24.54,25.57,48.45,43.32,69.44c13.52,14.23,28.19,27.33,41.87,41.41c13.77,12.89,25.71,27.47,33.7,44.68
	c6.36,11.37,9.84,24.37,8.54,37.44C943.56,880.77,932.86,893.88,919.27,886.53z"/>
<path class="st0" d="M886.06,920.07c-49.04-0.61-97.27-22.61-131.43-57.56c-36.41-36.04-58.38-83.35-89.73-123.48
	c-18.85-25.26-38.69-50.35-62.52-71.12c-13.22-10.22-28.19-17.79-42.17-26.87c-31.23-17.19-64.58-30.01-96.41-46
	c-29.79-12.71-52.85-38.24-62.54-69.13c-7.65-20.8-7.82-43.71-3.37-65.24c8.7-25.79,20.6-50.58,32.59-75
	c7.02-16.33,13.22-32.95,19.46-49.59c11.85-28.5,20.83-58.05,25.31-88.62c1.66-15.35,2.88-30.76,4.16-46.15
	c-0.77-37.03-6.12-73.87-16.66-109.42c-4.07-15.13-9.13-30.06-16.37-43.97c-7.52-10.64,2.85-26.44,15.73-23.07
	c13.07,0.28,25.69,45.97,29.18,57.7c10.46,35.46,16.4,71.97,17.87,108.88c0.94,18.11-2.33,36.14-3.42,54.19
	c-4.38,35.89-15.09,70.52-28.86,103.88c-6.56,17.97-13.39,35.83-21.29,53.25c-8.53,16.07-15.46,32.91-22.6,49.64
	c-8.4,16.51-9.86,35.92-6.27,53.94c8.12,34.27,27.6,53.27,59.65,66.2c33.65,16.95,69.64,29.53,101.29,50.3
	c15.34,8.99,30.93,17.98,43.67,30.57c12.37,12.2,23.8,25.33,35.08,38.53c22.29,27.4,42.47,56.53,61.82,86.07
	c25.16,41.77,56.72,82.29,103.34,100.86c7.67,3.25,15.78,5.25,23.87,7.11c16.7,4.29,36.57,8.11,50.81-4.22
	c3.83-20.18,31.81-20.8,31.69,1.01c-0.16,3.25-1.84,5.65-3.27,8.26c-1.07,5.16-4.34,9.43-8.2,12.89
	C915.32,913.41,900.81,919.75,886.06,920.07z"/>
<path class="st0" d="M432.48,494.09c-2.97-2.7-4.77-6.56-4.91-10.57c-0.28-7.95,6.28-15.53,14.46-15.53c3.94,0,7.67,1.2,10.62,3.88
	c2.97,2.7,4.77,6.56,4.91,10.57c0.28,7.95-6.28,15.53-14.46,15.53C439.17,497.98,435.43,496.77,432.48,494.09z"/>
<path class="st0" d="M449.43,526.76c-2.97-2.7-4.77-6.56-4.91-10.57c-0.28-7.95,6.28-15.53,14.46-15.53c3.94,0,7.67,1.2,10.62,3.88
	c2.97,2.7,4.77,6.56,4.91,10.57c0.28,7.95-6.28,15.53-14.46,15.53C456.11,530.64,452.38,529.44,449.43,526.76z"/>
<path class="st0" d="M486.38,554.28c-2.97-2.7-4.77-6.56-4.91-10.57c-0.28-7.95,6.28-15.53,14.46-15.53c3.94,0,7.67,1.2,10.62,3.88
	c2.97,2.7,4.77,6.56,4.91,10.57c0.28,7.95-6.28,15.53-14.46,15.53C493.07,558.16,489.33,556.96,486.38,554.28z"/>
<path class="st0" d="M526.94,571.53c-2.97-2.7-4.77-6.56-4.91-10.57c-0.28-7.95,6.28-15.53,14.46-15.53c3.94,0,7.67,1.2,10.62,3.88
	c2.97,2.7,4.77,6.56,4.91,10.57c0.28,7.95-6.28,15.53-14.46,15.53C533.62,575.41,529.89,574.21,526.94,571.53z"/>
<path class="st0" d="M567,586.59c-2.97-2.7-4.77-6.56-4.91-10.57c-0.28-7.95,6.28-15.53,14.46-15.53c3.94,0,7.67,1.2,10.62,3.88
	c2.97,2.7,4.77,6.56,4.91,10.57c0.28,7.95-6.28,15.53-14.46,15.53C573.69,590.48,569.95,589.27,567,586.59z"/>
<path class="st0" d="M275.18,549.13c-12.23-12.14-24.69-24.07-37.03-36.1c-14.37-14.01-28.74-28.02-43.11-42.02
	c-14.47-14.1-28.94-28.21-43.41-42.31c-13.02-12.7-26.04-25.39-39.07-38.09c-0.06-0.06-0.13-0.12-0.19-0.19
	c-2.92-2.83-4.77-6.47-4.91-10.57c-0.13-3.88,1.27-7.75,3.89-10.62c5.38-5.91,15.3-6.69,21.2-1.02
	c12.87,12.39,25.58,24.94,38.37,37.4c14.35,13.99,28.7,27.98,43.05,41.97c14.38,14.02,28.75,28.03,43.13,42.04
	c12.66,12.34,25.33,24.69,37.99,37.04c0.09,0.09,0.18,0.18,0.27,0.26c2.89,2.87,4.77,6.43,4.91,10.57
	c0.13,3.88-1.27,7.74-3.89,10.62c-2.88,3.17-7.16,4.89-11.4,4.89C281.39,553,277.84,551.77,275.18,549.13z"/>
<path class="st0" d="M528.47,912.03c-4.07-0.29-7.38-2.19-10.2-5.02c-11-11.04-21.99-22.11-32.98-33.15
	c-14.69-14.75-29.37-29.51-44.05-44.27c-14.97-15.05-29.95-30.09-44.91-45.14c-14.98-15.05-29.95-30.1-44.92-45.14
	c-14.88-14.95-29.75-29.9-44.62-44.85c-0.72-0.72-1.44-1.45-2.16-2.16c-2.75-2.77-4-7.17-3.73-10.98c0.27-3.9,2.09-7.61,5.02-10.2
	c2.99-2.65,6.99-4.01,10.97-3.73c4.07,0.29,7.38,2.19,10.2,5.02c14.7,14.77,29.4,29.55,44.11,44.33
	c15.01,15.09,30.02,30.18,45.04,45.27c14.95,15.02,29.89,30.03,44.82,45.05c14.61,14.68,29.21,29.36,43.82,44.04
	c11.65,11.71,23.3,23.42,34.95,35.12c0.3,0.3,0.61,0.61,0.91,0.91c2.75,2.77,4,7.17,3.73,10.98c-0.27,3.9-2.09,7.61-5.02,10.2
	c-2.74,2.42-6.32,3.77-9.96,3.77C529.15,912.07,528.81,912.05,528.47,912.03z"/>
<path class="st0" d="M475.95,958.22c-0.72-0.72-1.43-1.45-2.15-2.17c0,0,0,0,0,0c-13.45-13.49-26.83-27.05-40.24-40.57
	c-14.93-15.04-29.85-30.09-44.77-45.14c-14.69-14.8-29.37-29.61-44.05-44.41c-14.99-15.11-29.98-30.22-44.97-45.34
	c-14.71-14.83-29.42-29.66-44.13-44.48c-8.02-8.09-16.05-16.18-24.08-24.27c-2.88-2.9-4.76-6.41-4.91-10.57
	c-0.14-3.88,1.27-7.75,3.88-10.62c2.7-2.97,6.56-4.77,10.57-4.91c3.73-0.13,7.94,1.18,10.62,3.88
	c14.17,14.28,28.33,28.56,42.5,42.84c14.8,14.91,29.6,29.84,44.39,44.75c15.11,15.23,30.21,30.46,45.32,45.69
	c14.68,14.8,29.35,29.59,44.03,44.39c14.66,14.77,29.3,29.55,43.96,44.32c7.35,7.41,14.68,14.84,22.05,22.23
	c0.08,0.08,0.16,0.17,0.24,0.25c0.63,0.64,1.26,1.27,1.9,1.91c2.88,2.9,4.76,6.41,4.91,10.57c0.14,3.88-1.27,7.75-3.88,10.62
	c-2.7,2.97-6.56,4.77-10.57,4.91c-0.17,0.01-0.33,0.01-0.5,0.01C482.47,962.11,478.51,960.8,475.95,958.22z"/>
<path class="st0" d="M226.54,684.92c-7.86-0.73-14.68-8.21-13.56-16.31c2.59-18.8,5.05-37.62,7.58-56.43
	c0.83-6.16,1.65-12.31,2.48-18.47c0.53-3.93,2.17-7.48,5.25-10.08c3.05-2.57,7.08-3.85,11.06-3.48c7.88,0.73,14.65,8.21,13.56,16.31
	c-2.52,18.73-5.03,37.45-7.55,56.17c-0.84,6.24-1.66,12.48-2.52,18.73c-0.54,3.94-2.16,7.48-5.25,10.08
	c-2.71,2.28-6.18,3.54-9.71,3.54C227.44,684.98,226.99,684.96,226.54,684.92z"/>
<path class="st0" d="M207.87,574.31C207.86,574.31,207.86,574.31,207.87,574.31c-0.07-0.07-0.14-0.13-0.2-0.2
	c-10.89-10.74-21.75-21.5-32.62-32.26c-14.32-14.16-28.65-28.32-42.97-42.48c-14.49-14.33-28.98-28.65-43.47-42.98
	c-5.5-5.44-11.04-10.85-16.51-16.32c-2.9-2.9-4.84-6.32-5.05-10.51c-0.18-3.88,1.17-7.76,3.75-10.67c2.66-3,6.5-4.85,10.51-5.04
	c3.7-0.18,7.99,1.07,10.67,3.75c13.95,13.95,28.05,27.73,42.07,41.59c14.47,14.3,28.93,28.61,43.4,42.91
	c13.64,13.49,27.29,26.98,40.93,40.47c3.12,3.09,6.24,6.18,9.36,9.26c0,0,0.01,0.01,0.01,0.01c0,0,0.01,0,0.01,0.01
	c2.91,2.89,4.84,6.33,5.05,10.51c0.18,3.88-1.17,7.76-3.75,10.67c-2.66,3-6.5,4.86-10.51,5.05c-0.23,0.01-0.46,0.02-0.69,0.02
	C214.3,578.08,210.41,576.82,207.87,574.31z"/>
<path class="st0" d="M291.02,673.8c-3.91-0.63-7.45-2.82-9.77-6.03c-2.38-3.29-3.14-7.19-2.65-11.17
	c2.14-17.07,4.37-34.14,6.54-51.21c1.5-11.77,3-23.55,4.51-35.32c1.04-8.11,9.33-13.69,17.2-12.41c3.91,0.63,7.45,2.82,9.77,6.03
	c2.37,3.29,3.16,7.2,2.64,11.17c-0.01,0.07-0.01,0.13-0.03,0.2c-2.21,17.17-4.39,34.34-6.58,51.51c-1.48,11.61-3,23.21-4.45,34.82
	c-0.91,7.34-7.82,12.59-14.94,12.59C292.53,673.98,291.77,673.92,291.02,673.8z"/>
<path class="st0" d="M569.09,806.07c-0.02-0.02-0.03-0.03-0.05-0.05c-0.09-0.09-0.17-0.18-0.26-0.26
	c-12.53-12.6-25.04-25.22-37.56-37.83c-14.35-14.45-28.7-28.91-43.05-43.36c-14.63-14.74-29.27-29.48-43.9-44.23
	c-13.73-13.83-27.47-27.67-41.2-41.5c-0.14-0.14-0.29-0.29-0.43-0.44c-2.89-2.91-4.82-6.34-5.01-10.53
	c-0.17-3.88,1.2-7.75,3.78-10.66c2.67-3,6.52-4.83,10.53-5.01c3.71-0.16,7.98,1.1,10.66,3.78c13.51,13.58,26.99,27.19,40.48,40.79
	c14.55,14.66,29.11,29.32,43.66,43.98c14.36,14.46,28.71,28.92,43.07,43.38c12.95,13.05,25.9,26.1,38.86,39.15
	c0.07,0.07,0.13,0.13,0.2,0.2c0.05,0.04,0.09,0.09,0.14,0.14c0.01,0.01,0.02,0.03,0.03,0.04c0,0,0.01,0.01,0.01,0.01
	c2.89,2.91,4.82,6.34,5.01,10.52c0.17,3.88-1.2,7.76-3.78,10.66c-2.67,2.99-6.52,4.83-10.53,5.01c-0.21,0.01-0.43,0.01-0.64,0.01
	C575.54,809.87,571.62,808.6,569.09,806.07z"/>
<path class="st0" d="M310.47,688.43c-2.65-2.99-4.02-6.98-3.76-10.97c0.27-3.98,2.11-7.51,5-10.21
	c12.14-11.36,24.19-22.82,36.28-34.23c5.72-5.39,11.44-10.79,17.16-16.18c5.94-5.61,15.88-4.73,21.18,1.24
	c2.65,2.99,4.02,6.98,3.76,10.97c-0.27,3.99-2.12,7.49-5,10.21c-12.3,11.61-24.61,23.22-36.92,34.83
	c-5.51,5.19-10.99,10.41-16.52,15.58c-2.72,2.54-6.25,3.76-9.79,3.76C317.62,693.43,313.37,691.7,310.47,688.43z"/>
<path class="st0" d="M526.01,905.8c-3.05-2.61-4.97-6.41-5.23-10.42c-0.24-3.68,0.91-8.02,3.55-10.73
	c13.76-14.14,27.52-28.27,41.29-42.41c4.92-5.06,9.84-10.12,14.77-15.17c1.46-1.49,2.88-2.77,4.77-3.71
	c1.76-0.88,3.69-1.39,5.65-1.52c3.88-0.26,7.78,1.03,10.73,3.55c3.05,2.61,4.97,6.41,5.23,10.42c0.24,3.68-0.91,8.03-3.55,10.73
	c-12.69,13.02-25.37,26.05-38.05,39.08c-6,6.17-12,12.33-18,18.5c-2.87,2.95-6.23,4.95-10.42,5.23c-0.33,0.02-0.65,0.03-0.98,0.03
	C532.22,909.38,528.72,908.11,526.01,905.8z"/>
<path class="st0" d="M585.56,849.71c-8.83-4.42-10.09-15.5-4.91-23.24c2.2-7.98-5.38-14.37-10.14-19.78
	c-8.59-6.79-9.84-19.81-0.07-26.14c6.66-4.22,15.61-2.4,20.19,3.9c8.63,8.63,16.79,18.45,19.65,30.58
	C613.73,830.24,605.98,858.63,585.56,849.71z"/>
<path class="st0" d="M363.34,640.77c-2.89-2.78-4.59-6.69-4.62-10.7c-0.04-4.02,1.57-7.53,4.16-10.52c6.27-7.22,15-11.7,24.31-13.48
	c9.49-1.82,20.07,0.18,28.34,5.16c2.59,1.56,4.91,3.27,7.17,5.28c0.01,0.01,0.02,0.01,0.02,0.02c6.09,5.45,5.97,15.46,0.46,21.21
	c-2.78,2.9-6.69,4.59-10.7,4.63c-3.93,0.03-7.47-1.5-10.39-4.05c-0.44-0.34-0.88-0.67-1.34-0.99c-0.44-0.26-0.89-0.5-1.34-0.74
	c-0.48-0.2-0.97-0.4-1.46-0.57c-0.49-0.14-0.98-0.26-1.48-0.37c-0.5-0.07-0.99-0.13-1.49-0.18c-0.53-0.01-1.05,0-1.58,0.01
	c-0.53,0.06-1.05,0.13-1.57,0.22c-0.52,0.13-1.04,0.27-1.56,0.43c-0.5,0.2-1,0.41-1.49,0.64c-0.46,0.26-0.92,0.53-1.36,0.81
	c-0.44,0.33-0.86,0.67-1.28,1.02c-0.55,0.54-1.08,1.11-1.58,1.7c-2.54,2.98-6.86,4.59-10.7,4.62c-0.04,0-0.09,0-0.13,0
	C369.88,644.93,366.11,643.42,363.34,640.77z"/>
<path class="st0" d="M500,971.19c-3.92-1.01-7.58-2.75-11.09-4.71c-4.28-2.39-7.84-5.6-11.28-9.04c-2.73-2.73-3.98-7.07-3.76-10.85
	c0.23-3.95,2.05-7.7,5.01-10.33s6.9-4,10.85-3.77c4.12,0.24,7.47,2.15,10.33,5.01c0.09,0.09,0.18,0.18,0.26,0.27
	c0.62,0.57,1.26,1.12,1.92,1.65c0.66,0.46,1.34,0.9,2.02,1.31c0.7,0.36,1.4,0.7,2.12,1.01c0.73,0.27,1.47,0.51,2.22,0.73
	c0.76,0.17,1.52,0.31,2.29,0.43c0.77,0.07,1.54,0.11,2.31,0.13c0.76-0.03,1.51-0.08,2.27-0.16c0.75-0.12,1.5-0.27,2.24-0.45
	c0.77-0.23,1.53-0.49,2.28-0.77c0.74-0.34,1.46-0.69,2.18-1.07c0.69-0.43,1.36-0.88,2.01-1.35c0.61-0.51,1.21-1.04,1.79-1.59
	c0.53-0.58,1.04-1.18,1.54-1.79c0.46-0.66,0.9-1.33,1.32-2.02c0.38-0.74,0.74-1.49,1.08-2.25c0.26-0.74,0.51-1.49,0.73-2.24
	c0.16-0.74,0.3-1.48,0.42-2.22c0.07-0.76,0.12-1.52,0.14-2.29c-0.03-0.78-0.08-1.55-0.16-2.33c-0.13-0.77-0.28-1.53-0.46-2.29
	c-0.23-0.75-0.48-1.49-0.75-2.22c-0.34-0.75-0.7-1.49-1.09-2.21c-0.43-0.69-0.88-1.36-1.35-2.01c-0.5-0.61-1.02-1.19-1.57-1.76
	c-0.6-0.55-1.21-1.07-1.85-1.58c-0.69-0.48-1.39-0.94-2.12-1.37c-0.05-0.02-0.1-0.05-0.14-0.07c-3.61-1.86-6.44-4.84-7.76-8.73
	c-1.24-3.67-1-7.77,0.66-11.27c3.43-7.2,12.73-10.83,20-7.09c9.66,4.97,17.75,13,22.2,22.99c3.3,7.41,4.84,15.45,4.25,23.57
	c-0.93,12.59-7.01,24.98-16.77,33.07c-8.19,6.78-18.43,11.12-29.13,11.45c-0.52,0.02-1.03,0.02-1.55,0.02
	C508.97,972.99,504.5,972.35,500,971.19z"/>
<path class="st0" d="M309.52,696.03c-7.5-6.16-15.05-12.21-22.03-18.98c-9.07-8.26-14.86-21.77-2.62-30.17
	c6.91-4.31,16.38-2.16,20.66,4.8c1.72,3.29,4.69,5.63,7.39,8.06c6.82,6.92,15.91,11.54,21.52,19.63
	C344.02,695.99,321.27,711.26,309.52,696.03z"/>
<path class="st0" d="M289.37,578.26c-0.48-4.42-0.56-8.94-1.28-13.35c-2.96-9.34-12.74-14.35-17.92-22.33
	c-9.42-16.13,12.27-31.47,24.34-17.41c10,10.53,21.83,21.23,23.48,36.55c0.3,4.15,0.83,8.24,1.1,12.38
	C320.76,593.39,293.27,597.45,289.37,578.26z"/>
<path class="st0" d="M222.57,594.72c-0.24-2.92-2.39-5.29-3.98-7.62c-5.37-7.05-11.57-13.4-18.15-19.32
	c0.51,0.4,1.02,0.81,1.54,1.21c0.29,0.18,0.59,0.35,0.88,0.52c-16.44-10.15-2.99-34.56,14.3-26.32c5.47,3.42,9.73,8.43,14.26,12.96
	c9.29,10.05,20.77,22.28,20.91,36.74c0,0,0.2-0.02,0.2-0.02C252.97,612.65,224.72,614.51,222.57,594.72z"/>
<path class="st0" d="M233.2,711.53c-10.17-6.67-17.12-18.12-19.23-30.03c-1.38-6.73-2.42-14.5,2.89-19.87
	c5.42-5.95,15.46-6.25,21.21-0.61c7.94,7.25,1.98,17.46,10.73,24.77c0,0,0.02,0.01,0.02,0.01
	C263.67,697.27,250.2,719.73,233.2,711.53z"/>
<path class="st0" d="M74.46,440.78c-8.38-6.25-14.71-15.52-17.18-25.7c-2.45-10.1-1.74-20.95,2.63-30.45
	c5.02-10.91,14.11-19.93,25.42-24.2c9.15-3.45,18.96-4.11,28.46-1.73c5.62,1.41,10.81,3.99,15.55,7.3c0.34,0.23,0.67,0.48,0.99,0.73
	c6.5,4.95,7.77,14.55,2.81,21.03c-4.97,6.5-14.52,7.76-21.03,2.81c-0.24-0.19-0.49-0.37-0.74-0.55c-0.6-0.38-1.22-0.74-1.85-1.07
	c-0.65-0.3-1.31-0.57-1.98-0.83c-0.7-0.21-1.4-0.41-2.11-0.57c-0.74-0.12-1.47-0.22-2.22-0.29c-0.72-0.02-1.43-0.02-2.15,0.01
	c-0.75,0.08-1.49,0.18-2.23,0.31c-0.7,0.17-1.39,0.37-2.07,0.58c-0.67,0.26-1.32,0.54-1.97,0.84c-0.62,0.34-1.23,0.7-1.83,1.08
	c-0.57,0.42-1.13,0.85-1.67,1.31c-0.5,0.48-0.99,0.97-1.46,1.48c-0.44,0.53-0.85,1.08-1.26,1.64c-0.37,0.6-0.72,1.21-1.06,1.83
	c-0.29,0.64-0.57,1.3-0.82,1.96c-0.22,0.7-0.41,1.41-0.58,2.13c-0.12,0.73-0.22,1.45-0.29,2.18c-0.02,0.73-0.02,1.46,0.01,2.19
	c0.08,0.73,0.18,1.46,0.31,2.18c0.17,0.7,0.37,1.4,0.59,2.09c0.26,0.68,0.55,1.34,0.86,2c0.33,0.61,0.69,1.21,1.06,1.79
	c0.41,0.56,0.83,1.1,1.27,1.63c0.49,0.52,1,1.02,1.52,1.5c0.4,0.33,0.8,0.64,1.22,0.95c6.55,4.88,7.73,14.59,2.81,21.03
	c-2.94,3.84-7.4,5.82-11.92,5.82C80.38,443.79,77.17,442.81,74.46,440.78z"/>
</svg>
