<?xml version="1.0" encoding="utf-8"?>
<!-- Generator: Adobe Adobe Illustrator 24.2.0, SVG Export Plug-In . SVG Version: 6.00 Build 0)  -->
<svg version="1.1" id="Capa_de_vector_1_" xmlns="http://www.w3.org/2000/svg" xmlns:xlink="http://www.w3.org/1999/xlink" x="0px"
	 y="0px" viewBox="0 0 300 300" style="enable-background:new 0 0 300 300;" xml:space="preserve">
<style type="text/css">
	.st0{fill:#C7CCAC;}
</style>
<path class="st0" d="M203.06,227.9c-1.71-1.86-1.48-4.63,0.26-6.36c7.23-7.2,14.47-14.39,21.71-21.59c1.74-1.73,4.74-1.49,6.36,0.26
	c1.71,1.86,1.48,4.63-0.26,6.36c-7.23,7.2-14.47,14.39-21.71,21.59c-0.81,0.8-1.89,1.18-2.98,1.18
	C205.19,229.34,203.93,228.83,203.06,227.9z"/>
<path class="st0" d="M214.04,241.7c-1.74-1.78-1.64-4.61,0.07-6.36c7.8-7.92,15.6-15.85,23.4-23.78c0.31-0.32,0.63-0.64,0.94-0.96
	c0,0,0,0,0,0l0,0c1.72-1.75,4.68-1.66,6.36,0.07c1.74,1.78,1.64,4.61-0.07,6.36c-7.75,7.9-15.53,15.78-23.29,23.67
	c-0.33,0.34-0.66,0.67-0.99,1c-0.01,0.01-0.02,0.03-0.04,0.04c-0.01,0.01-0.02,0.02-0.03,0.03c-0.84,0.85-1.97,1.27-3.11,1.27
	C216.1,243.05,214.9,242.59,214.04,241.7z"/>
<path class="st0" d="M212.64,243.77c-4.39-0.24-8.15-3.67-10.52-7.17c-2.43-4.1-2.55-9.87,0.55-13.53c1.62-1.84,4.64-1.81,6.36-0.17
	c2.4,2.35,1.16,4.54,0.26,6.91c0.06,2.49,2.41,4.93,4.85,5.09c2.45-1.28,5.69-0.8,6.88,1.96
	C223.05,241.86,216.74,244.56,212.64,243.77z"/>
<path class="st0" d="M239.05,216.01c-0.87-0.83-1.38-2.01-1.39-3.21c-0.01-1.09,0.38-2.03,0.9-2.74c0.06-0.07,0.11-0.14,0.16-0.21
	c0.01-0.03,0.01-0.05,0.02-0.08c0-0.03,0.01-0.06,0.01-0.1c0-0.07,0-0.15,0-0.22c-0.01-0.1-0.03-0.19-0.04-0.29
	c-0.04-0.14-0.07-0.28-0.12-0.41c-0.07-0.17-0.14-0.35-0.22-0.52c-0.11-0.2-0.23-0.39-0.35-0.58c-0.16-0.22-0.34-0.43-0.52-0.64
	c-0.19-0.2-0.39-0.38-0.6-0.57c-0.23-0.18-0.46-0.35-0.7-0.51c-0.22-0.13-0.45-0.26-0.69-0.37c-0.19-0.08-0.38-0.16-0.58-0.23
	c-0.19-0.05-0.38-0.1-0.57-0.15c-0.14-0.02-0.28-0.04-0.42-0.05c-0.1,0-0.21,0-0.31,0c-0.08,0.01-0.15,0.02-0.23,0.03
	c-0.05,0.01-0.1,0.03-0.16,0.04c-0.01,0-0.02,0.01-0.03,0.02c-0.01,0.01-0.02,0.01-0.03,0.02c-0.01,0.01-0.01,0.01-0.02,0.02
	c-0.02,0.02-0.03,0.04-0.05,0.07c-0.03,0.04-0.06,0.09-0.09,0.13c0,0,0,0,0,0c-1.32,1.86-3.82,2.56-5.89,1.43
	c-2.11-1.16-3.01-4-1.77-6.11c0.01-0.02,0.02-0.04,0.04-0.06c1.19-2,2.99-3.32,5.17-4.09c1.93-0.69,4.13-0.59,6.1-0.14
	c3.9,0.89,7.52,3.69,9.44,7.19c1.22,2.23,1.96,4.87,1.52,7.42c-0.31,1.81-1.04,3.37-2.22,4.77c-0.8,0.94-1.97,1.39-3.16,1.39
	C241.07,217.24,239.89,216.81,239.05,216.01z"/>
<path class="st0" d="M228.11,205.89c-1.03-0.55-1.82-1.49-2.18-2.6c-0.13-0.41-0.2-0.83-0.21-1.24c0,0.02,0,0.03,0,0.05c0,0,0,0,0,0
	c-0.09-5.92,8.52-6.3,8.99-0.39C234.97,205.11,231.06,207.51,228.11,205.89z"/>
<path class="st0" d="M227.63,206.64c-5.16-2.2-2.91-8.92,2.26-9.2c2.45-0.16,4.59,1.89,4.69,4.3
	C234.72,205.19,230.74,207.74,227.63,206.64z"/>
<path class="st0" d="M243.89,254.23c-6.05-0.32-10.9-4.39-15.36-8.08c-2.81-2.33-5.93-4.47-8.21-7.34
	c-2.93-4.91,3.99-9.59,7.44-5.05c2.77,2.56,5.9,5.09,8.83,7.36c2.11,1.67,4.37,3.48,7.06,4.02c4.37,1.09,8.8-2.09,9.87-6.33
	c0.29-2.43-0.75-4.95-1.78-7.12c-2.59-4.29-7.39-6.59-10.71-10.25c-5.26-4.56,2.18-11.46,6.59-6.12
	c6.28,5.73,12.95,9.57,14.45,18.77C265.09,244.66,254.5,255.63,243.89,254.23z"/>
<path class="st0" d="M156.04,175.21c-0.47-4.16-0.96-8.33-1.42-12.5c-0.13-1.19,0.06-2.33,0.76-3.32c0.69-0.98,1.76-1.65,2.95-1.85
	c2.32-0.39,4.9,1.27,5.18,3.71c0.46,4.17,0.95,8.33,1.43,12.5c0.13,1.19-0.06,2.33-0.76,3.32c-0.69,0.98-1.76,1.65-2.95,1.85
	c-0.23,0.04-0.46,0.06-0.69,0.06C158.41,178.97,156.29,177.41,156.04,175.21z"/>
<path class="st0" d="M171.03,190.95c-4.28-4.04-8.56-8.08-12.84-12.11c-1.79-1.68-1.67-4.68,0.02-6.36
	c1.79-1.77,4.58-1.66,6.37,0.02c4.29,4.03,8.56,8.07,12.84,12.11c1.79,1.68,1.68,4.68-0.02,6.36c-0.87,0.87-1.99,1.29-3.12,1.29
	C173.11,192.26,171.94,191.81,171.03,190.95z"/>
<path class="st0" d="M171.99,194.79c-0.6-1.98-1.24-3.66-1.83-5.6c-1.35-5.75,7.08-7.94,8.71-2.27c0.49,1.68,1.09,3.19,1.52,4.67
	C182.17,197.06,174.25,200.08,171.99,194.79z"/>
<path class="st0" d="M204.33,221.72c-0.04-0.03-0.07-0.05-0.11-0.09c-0.02-0.02-0.04-0.03-0.06-0.05
	c-6.61-5.26-13.23-10.52-19.85-15.78c-3.25-2.59-6.49-5.2-9.76-7.76c-1.93-1.52-2.38-4.32-0.89-6.3c1.45-1.93,4.38-2.4,6.3-0.88
	c7.66,6.01,15.25,12.12,22.87,18.18c2.31,1.83,4.61,3.66,6.92,5.5c1.92,1.53,2.39,4.31,0.89,6.3c-0.87,1.15-2.26,1.78-3.65,1.78
	C206.04,222.63,205.11,222.34,204.33,221.72z"/>
<path class="st0" d="M171.82,166.2c-0.05,0-0.1,0-0.15,0c-0.04,0-0.07,0-0.11-0.01c-3.26-0.12-6.51-0.26-9.77-0.38
	c-2.45-0.09-4.43-2.2-4.35-4.65c0.08-2.44,2.2-4.43,4.65-4.34c3.25,0.12,6.5,0.25,9.75,0.38c0.04,0,0.09,0,0.13,0
	c0.05,0,0.11,0,0.16,0.01c2.45,0.12,4.43,2.17,4.35,4.65c-0.08,2.39-2.11,4.35-4.49,4.35C171.92,166.2,171.87,166.2,171.82,166.2z"
	/>
<path class="st0" d="M178.89,172.85c0,0-0.01-0.01-0.01-0.01c-2.86-2.42-5.72-4.83-8.6-7.23c-1.88-1.57-2.34-4.32-0.79-6.31
	c1.46-1.88,4.43-2.37,6.32-0.79c2.84,2.38,5.67,4.76,8.5,7.15c0.03,0.02,0.06,0.05,0.09,0.07c0,0,0,0.01,0.01,0.01
	c0,0,0.01,0.01,0.01,0.01c1.87,1.59,2.34,4.32,0.8,6.32c-0.86,1.11-2.26,1.74-3.65,1.74C180.6,173.79,179.65,173.5,178.89,172.85z"
	/>
<path class="st0" d="M179.59,172.12c-0.96-4.19,3.01-6.13,6.61-5.84c3.42-0.57,7.4,1.16,6.87,5.17c-0.84,4.11-4.11,3.86-7.46,3.85
	C183.11,175.95,180.28,174.8,179.59,172.12z"/>
<path class="st0" d="M220.72,202.92c-5.15-4.39-10.3-8.78-15.45-13.17c-5.93-5.06-11.87-10.11-17.79-15.17
	c-1.87-1.59-2.23-4.39-0.65-6.33c1.52-1.87,4.46-2.24,6.33-0.65c6.65,5.68,13.31,11.36,19.97,17.03c4.42,3.77,8.84,7.54,13.27,11.31
	c1.86,1.59,2.22,4.4,0.65,6.33c-0.87,1.07-2.21,1.65-3.55,1.65C222.51,203.92,221.51,203.6,220.72,202.92z"/>
<path class="st0" d="M136.29,231.73c-10.9-2.54-21.3-7.05-30.61-13.27c-12.74-8.5-23.18-20.2-30.36-33.7
	c-6.23-11.73-9.8-24.8-10.58-38.05c-0.14-2.45,1.93-4.57,4.34-4.65c2.5-0.09,4.51,1.89,4.65,4.34c0.07,1.22,0.17,2.44,0.29,3.66
	c0.4,3.73,1.04,7.43,1.9,11.08c0.88,3.55,1.97,7.04,3.27,10.47c1.35,3.44,2.91,6.79,4.66,10.05c1.72,3.1,3.62,6.1,5.69,8.98
	c2.12,2.89,4.41,5.64,6.85,8.26c2.47,2.59,5.08,5.02,7.83,7.3c2.83,2.29,5.78,4.4,8.86,6.34c3.01,1.85,6.12,3.52,9.33,5
	c3.31,1.49,6.7,2.79,10.16,3.87c1.92,0.58,3.86,1.11,5.82,1.56c2.39,0.55,3.9,3.05,3.33,5.43c-0.49,2.06-2.38,3.45-4.41,3.45
	C136.97,231.85,136.63,231.81,136.29,231.73z"/>
<path class="st0" d="M137.65,232.22c-2.45-0.24-4.17-2.71-3.85-5.07c0.34-2.49,2.62-4.08,5.05-3.85c0.49,0.02,0.98,0.01,1.48-0.01
	c0.93-0.08,1.86-0.22,2.78-0.39c1.9-0.41,3.77-0.95,5.61-1.58c2.88-1.03,5.69-2.26,8.43-3.62c2.97-1.51,5.85-3.18,8.64-5.02
	c2.22-1.5,4.37-3.11,6.4-4.86c1.05-0.94,2.07-1.93,3.02-2.98c0.51-0.59,0.99-1.2,1.44-1.84c0.21-0.32,0.4-0.65,0.58-0.99
	c0.02-0.05,0.05-0.09,0.07-0.14l0.02-0.03c1.12-2.05,3.53-3.1,5.77-2.15c2.18,0.93,3.45,3.68,2.39,5.9c-1.23,2.6-3.08,4.83-5.1,6.86
	c-3.04,3.06-6.52,5.66-10.11,8.04c-4.07,2.7-8.39,5.04-12.85,7.04c-5.38,2.41-11.2,4.48-17.13,4.77c-0.27,0.01-0.53,0.02-0.8,0.02
	C138.88,232.32,138.26,232.28,137.65,232.22z"/>
<path class="st0" d="M194.76,174.66c-6.04-2.09-1.75-9.43-2.03-13.96c0.22-4.39,0.15-8.8,0.02-13.19c0.02-2.99-0.6-6.14,0.31-9.04
	c2.28-5.31,10.28-2.35,8.54,3.15c0.1,8.56,0.8,17.17-0.59,25.66C200.61,171.16,199.79,175.66,194.76,174.66z"/>
<path class="st0" d="M195.09,142.54c-1.05-0.44-1.77-1.22-2.29-2.19c-0.04-0.08-0.08-0.15-0.1-0.2c-0.01-0.01-0.01-0.02-0.02-0.03
	c-0.83-1.61-1.77-3.17-2.78-4.67c-1.71-2.48-3.6-4.84-5.58-7.11c-3.46-3.88-7.19-7.5-11.08-10.95
	c-6.22-5.44-12.82-10.42-19.66-15.06c-8.14-5.45-16.59-10.4-25.33-14.82c-7.02-3.49-14.21-6.64-21.6-9.26
	c-4.87-1.68-9.8-3.13-14.84-4.2c-2.82-0.55-5.65-0.99-8.51-1.2c-1.73-0.1-3.47-0.12-5.2,0c0.06,0,0.11-0.01,0.16-0.01
	c0.02,0,0.04,0,0.06,0c0.04,0,0.07,0,0.11-0.01c-1.17,0.06-2.26-0.17-3.21-0.9c-0.93-0.72-1.55-1.79-1.71-2.95
	c-0.32-2.35,1.4-4.85,3.85-5.07c5.54-0.5,11.2,0.3,16.61,1.42c8.66,1.79,17.08,4.73,25.24,8.13c16.62,6.93,32.41,16.07,46.92,26.71
	c6.5,4.77,12.74,9.93,18.54,15.54c4.95,4.78,9.56,9.96,13.34,15.71c1.11,1.68,2.09,3.43,2.98,5.23c1.09,2.2-0.23,4.98-2.39,5.9
	c-0.55,0.23-1.15,0.35-1.75,0.35S195.65,142.78,195.09,142.54z"/>
<path class="st0" d="M67.49,155.61c-2.27-0.62-3.93-3.21-3.14-5.53c1.96-5.82,4.65-11.33,7.66-16.67
	c3.86-6.84,8.34-13.34,13.16-19.55c5.13-6.61,10.75-12.89,16.87-18.6c3-2.8,6.15-5.45,9.49-7.84c3.02-2.15,6.24-4.15,9.73-5.46
	c1.54-0.58,3.16-1.04,4.8-1.21c2.44-0.25,4.73,1.36,5.07,3.85c0.32,2.37-1.41,4.82-3.85,5.07c-0.31,0.03-0.62,0.08-0.92,0.13
	c-0.51,0.12-1.01,0.26-1.51,0.43c-0.89,0.33-1.75,0.71-2.6,1.13c-1.48,0.77-2.91,1.64-4.3,2.57c-2.57,1.77-5,3.7-7.35,5.74
	c-4.25,3.76-8.21,7.81-11.92,12c-4.7,5.39-9.07,11.04-13.09,16.96c-3.17,4.74-6.11,9.63-8.67,14.72c-1.38,2.8-2.64,5.65-3.69,8.59
	c-0.06,0.18-0.12,0.36-0.18,0.54c-0.38,1.12-1.02,2.07-2.07,2.69c-0.69,0.41-1.48,0.61-2.28,0.61
	C68.28,155.77,67.88,155.72,67.49,155.61z"/>
<path class="st0" d="M198.54,157.06c-2.12-1.07-3.2-3.89-2-6.04c1.29-2.33,2.45-4.74,3.5-7.19c1.17-2.83,2.16-5.73,2.98-8.68
	c0.8-3.01,1.42-6.07,1.86-9.16c0.27-2.1,0.46-4.21,0.56-6.32c0.05-1.06,0.07-2.12,0.08-3.18c0-0.03,0-0.06,0-0.09
	c-0.01-0.33-0.01-0.66-0.02-0.99c-0.01-0.57-0.03-1.13-0.05-1.7c-0.1-2.3-0.3-4.59-0.6-6.87c-0.44-3.07-1.06-6.11-1.88-9.1
	c-0.83-2.95-1.83-5.84-3.01-8.68c-1.23-2.89-2.65-5.7-4.22-8.41c-1.52-2.55-3.19-5.02-4.99-7.38c-1.8-2.3-3.73-4.51-5.78-6.59
	c-2.19-2.18-4.5-4.22-6.94-6.12c-2.37-1.81-4.84-3.48-7.4-5.01c-2.72-1.57-5.52-2.98-8.41-4.22c-2.89-1.2-5.85-2.21-8.87-3.06
	c-3.02-0.8-6.08-1.42-9.18-1.86c-3.14-0.4-6.3-0.61-9.47-0.63c-3.1,0.03-6.19,0.23-9.27,0.62c-3.22,0.45-6.4,1.1-9.54,1.94
	c-2.93,0.83-5.8,1.83-8.61,2.99c-2.75,1.18-5.42,2.51-8.02,3.99c-2.69,1.59-5.28,3.32-7.76,5.21c-2.39,1.87-4.66,3.88-6.82,6
	c-2.1,2.13-4.08,4.38-5.93,6.73c-1.78,2.34-3.43,4.77-4.95,7.3c-1.61,2.76-3.03,5.6-4.29,8.54c-1.19,2.88-2.21,5.83-3.05,8.83
	c-0.8,3-1.42,6.04-1.86,9.11c-0.41,3.19-0.62,6.38-0.64,9.59c0.03,3.22,0.25,6.42,0.67,9.61c0.44,3.07,1.07,6.1,1.87,9.09
	c0.85,3.01,1.87,5.96,3.08,8.85c0.31,0.73,0.64,1.46,0.97,2.18c1.03,2.23,0.22,4.92-2.02,6.04c-2.14,1.07-5,0.21-6.04-2.01
	c-5.79-12.42-8.3-26.18-7.3-39.84c1.26-17.2,8.32-33.7,19.64-46.67c10.82-12.38,25.54-21.11,41.5-24.93
	c8.47-2.03,17.27-2.6,25.94-1.79c8.85,0.82,17.48,3.2,25.57,6.84c9.55,4.3,18.19,10.62,25.33,18.28c5.15,5.53,9.5,11.82,12.89,18.58
	c3.52,7.04,6.01,14.62,7.31,22.38c0.71,4.23,1.08,8.51,1.1,12.78c0.02,0.22,0.02,0.45,0,0.67c-0.01,5.27-0.53,10.54-1.57,15.72
	c-1.57,7.81-4.36,15.39-8.17,22.39c-0.05,0.09-0.1,0.19-0.16,0.28c-0.85,1.53-2.42,2.48-4.07,2.48
	C199.85,157.54,199.18,157.39,198.54,157.06z"/>
<path class="st0" d="M103.67,47.09c-1.2-4.97-1.19-10.16,0.02-15.13c1.95-7.98,7.15-14.96,14.12-19.26
	c8.96-5.53,20.5-6.13,29.99-1.57c8.46,4.06,14.88,11.84,17.06,20.99c0.84,3.55,1.04,7.13,0.72,10.75c0,0.09-0.01,0.18-0.02,0.27
	c0,0.03-0.01,0.05-0.01,0.08c0,0.02,0,0.03,0,0.05c-0.3,2.43-2.66,4.18-5.06,3.86c-2.5-0.34-4.1-2.62-3.86-5.06
	c0.03-0.33,0.07-0.67,0.1-1c0.05-0.98,0.05-1.97,0-2.95c-0.08-1.05-0.23-2.08-0.42-3.12c-0.22-0.98-0.49-1.95-0.81-2.9
	c-0.33-0.9-0.71-1.78-1.12-2.64c-0.44-0.84-0.91-1.65-1.43-2.44c-0.54-0.78-1.11-1.53-1.72-2.25c-0.68-0.75-1.39-1.46-2.14-2.14
	c-0.72-0.61-1.46-1.18-2.23-1.72c-0.82-0.54-1.67-1.03-2.54-1.48c-0.88-0.42-1.77-0.8-2.69-1.13c-0.93-0.31-1.88-0.56-2.83-0.78
	c-0.98-0.19-1.97-0.32-2.96-0.4c-1.06-0.06-2.11-0.05-3.17,0c-1,0.09-1.98,0.23-2.97,0.41c-0.93,0.21-1.85,0.46-2.76,0.76
	c-0.94,0.34-1.86,0.73-2.76,1.17c-0.85,0.44-1.67,0.93-2.48,1.45c-0.78,0.55-1.53,1.13-2.26,1.74c-0.73,0.66-1.42,1.36-2.09,2.09
	c-0.62,0.73-1.2,1.48-1.74,2.27c-0.52,0.81-1,1.63-1.45,2.48c-0.43,0.9-0.81,1.82-1.16,2.75c-0.31,0.96-0.57,1.92-0.79,2.91
	c-0.17,0.97-0.31,1.93-0.39,2.91c-0.05,1.03-0.05,2.05,0.01,3.08c0.09,1.03,0.23,2.06,0.43,3.07c0.03,0.15,0.07,0.31,0.11,0.46
	c0.57,2.38-0.71,4.87-3.14,5.54c-0.38,0.1-0.76,0.15-1.15,0.15C106.09,50.38,104.15,49.09,103.67,47.09z"/>
<path class="st0" d="M224.22,292.16c-5.42-17.48-21.74-26.38-37.68-32.81c-9.3-3.33-20.07-4.94-26.44-13.32
	c-3.09-3.91-4.96-8.61-6.66-13.25c-0.81-2.42-2.43-4.68-2.54-7.29c0-2.45,2.05-4.5,4.5-4.5c2.19,0,4.05,1.63,4.43,3.72
	c0.77,2.03,1.71,3.98,2.43,6.03c3.3,10.58,9.36,15.45,20.07,17.69c6.6,1.93,12.84,4.78,19.01,7.8c11.44,5.46,22.25,13.69,28.06,25.2
	c1.04,2.14,1.82,4.38,2.65,6.33c0.5,1.06,0.7,2.16,0.38,3.33C231.59,294.79,225.98,295.6,224.22,292.16z"/>
<path class="st0" d="M44.1,293.12c-8.74-3.45,2.41-17.52,5.68-22.02c5.19-6.9,12.59-11.76,19.59-16.67
	c5.09-3.09,10.58-5.51,16.04-7.89c9.02-3.9,21.84-7.49,23.55-18.73c0.08-2.16-0.39-4.34-0.07-6.49c0.48-4.1,6.36-5.33,8.34-1.66
	c0.52,0.92,0.71,1.97,0.58,3.01c0.08,3.58,0.43,7.24-0.93,10.66c-5.84,16.42-25.49,19.1-39.07,26.63
	c-10.89,6.15-21.13,14.35-26.89,25.68c-0.75,1.34-0.87,2.88-1.29,4.33C48.95,292.35,46.44,293.78,44.1,293.12z"/>
</svg>
