<?xml version="1.0" encoding="utf-8"?>
<!-- Generator: Adobe Adobe Illustrator 24.2.0, SVG Export Plug-In . SVG Version: 6.00 Build 0)  -->
<svg version="1.1" id="Capa_de_vector_1_" xmlns="http://www.w3.org/2000/svg" xmlns:xlink="http://www.w3.org/1999/xlink" x="0px"
	 y="0px" viewBox="0 0 1000 1000" style="enable-background:new 0 0 1000 1000;" xml:space="preserve">
<style type="text/css">
	.st0{fill:#C7CCAC;}
</style>
<path class="st0" d="M225.21,579.69c0.25,0.27,0.5,0.55,0.75,0.82c0.09,0.1,0.18,0.2,0.28,0.3
	C225.89,580.44,225.55,580.06,225.21,579.69z"/>
<path class="st0" d="M468.64,965.22c-0.2-0.03-0.39-0.07-0.58-0.1c-0.08-0.01-0.16-0.03-0.24-0.04
	c-18.06-3.12-35.57-8.65-52.19-16.35c-0.82-0.38-1.63-0.77-2.45-1.16c-0.54-0.21-1.05-0.46-1.56-0.75c-0.01,0-0.02,0-0.02-0.01
	c-0.11-0.05-0.21-0.11-0.32-0.16c-0.13-0.06-0.27-0.12-0.4-0.19c-1.12-0.55-2.24-1.1-3.36-1.67c-2.17-1.1-4.32-2.24-6.45-3.4
	c-8.98-4.91-17.64-10.46-25.97-16.41c-15.95-11.39-30.63-24.56-44.06-38.82c-14.46-15.36-27.4-32.04-39.07-49.6
	c-11.21-16.87-21.02-34.67-29.71-52.96c-8.81-18.56-16.23-37.79-22.5-57.34c-6.26-19.54-11.13-39.52-14.85-59.69
	c-3.69-20.02-6-40.31-7.02-60.64c-0.6-11.87-0.73-23.77-0.37-35.65c0.4,0.56,0.81,1.12,1.23,1.68c1.7,2.25,3.5,4.39,5.36,6.49
	c1.66,2.09,3.34,4.16,5.01,6.24c3.94,4.86,7.64,9.88,11.8,14.54c-0.31-0.35-0.62-0.69-0.93-1.04c0.97,1.09,1.92,2.2,2.85,3.32
	c0.76,0.92,1.59,1.75,2.49,2.49c0.23,4.96,0.55,9.93,0.94,14.89c1.68,19.43,4.54,38.75,8.66,57.82c0.07,0.35,0.15,0.7,0.23,1.05
	c4.36,19.56,9.94,38.82,16.75,57.68c6.49,17.61,14.04,34.81,22.67,51.48c7.72,14.63,16.25,28.81,25.68,42.41
	c8.33,11.83,17.31,23.16,26.99,33.91c8.46,9.23,17.42,17.98,26.92,26.16c8.19,6.9,16.74,13.34,25.68,19.24
	c7.65,4.93,15.55,9.43,23.7,13.45c0.36,0.16,0.73,0.34,1.08,0.53c1.57,0.75,3.15,1.47,4.74,2.18c5.85,2.59,11.81,4.91,17.87,6.96
	c7.21,2.32,14.54,4.24,21.97,5.69c0.91,0.16,1.83,0.32,2.75,0.48c3.6,0.61,6.79,2.18,9.1,5.08c2.28,2.86,3.33,6.59,2.89,10.23
	c-0.8,6.66-6.77,12.14-13.46,12.14C469.87,965.36,469.26,965.31,468.64,965.22z"/>
<path class="st0" d="M484.99,966.89c-3.66-0.19-7.07-1.55-9.64-4.23c-2.51-2.62-3.9-6.18-3.82-9.8c0.15-7.32,6.55-13.85,14.03-13.46
	c3.05,0.16,6.09,0.16,9.14,0.05c4.91-0.28,9.79-0.88,14.64-1.72c6.24-1.19,12.38-2.79,18.44-4.7c8.15-2.69,16.1-5.94,23.87-9.59
	c9.98-4.83,19.64-10.31,28.98-16.27c12.35-8.03,24.13-16.87,35.41-26.32c13.71-11.66,26.65-24.18,38.85-37.4
	c12.8-14.05,24.78-28.83,35.85-44.28c0.32-0.44,0.63-0.88,0.95-1.32l0.22-0.31c11.07-15.75,21.21-32.14,30.27-49.13
	c7.7-14.69,14.59-29.8,20.42-45.33c4.43-12.12,8.21-24.47,11.14-37.04c2.09-9.43,3.67-18.96,4.59-28.57
	c0.59-7.2,0.8-14.41,0.53-21.63c-0.3-5.32-0.88-10.62-1.78-15.88c-0.8-4.09-1.79-8.13-3.03-12.11c-0.06-0.18-0.12-0.35-0.18-0.53
	c-1.19-3.57-1.34-7.2,0.22-10.7c1.45-3.24,4.17-5.85,7.47-7.16c3.42-1.36,7.34-1.28,10.7,0.22c3.11,1.39,6.07,4.18,7.16,7.47
	c2.82,8.45,4.83,17.06,5.91,25.91c1.25,10.16,1.44,20.49,0.8,30.71c-1.29,20.8-5.57,41.35-11.77,61.23
	c-6.08,19.52-13.92,38.47-23.04,56.75c-9.05,18.14-19.33,35.63-30.65,52.44c-1.36,2.02-2.73,4.02-4.13,6.01
	c-0.38,0.55-0.76,1.09-1.15,1.63c-0.05,0.08-0.1,0.15-0.15,0.23c-0.19,0.27-0.38,0.54-0.57,0.8c-0.25,0.39-0.51,0.76-0.79,1.12
	c-0.19,0.27-0.39,0.55-0.58,0.82c-0.73,1.02-1.46,2.04-2.19,3.06c-5.63,7.81-11.51,15.45-17.6,22.91
	c-12.7,15.53-26.33,30.35-40.88,44.15c-14.91,14.14-30.78,27.38-47.71,39.04c-16.16,11.12-33.18,20.99-51.25,28.69
	c-17.57,7.48-36.48,13.02-55.61,14.11c-2.72,0.16-5.44,0.26-8.16,0.26C488.27,967.01,486.63,966.97,484.99,966.89z"/>
<path class="st0" d="M480.19,967.24c-6.81-0.52-12.47,0.3-16.94-6.43c-7.05-12.24,3.79-23.51,16.74-21.28
	c1.87,0.18,3.7,0.53,5.58,0.28c7.47-0.54,14.05,5.74,14.39,13.08C500.3,964.03,490.04,968.82,480.19,967.24z"/>
<path class="st0" d="M759.81,587.21c-3.35-1.41-5.81-4.05-7.32-7.32c-1.32-2.87-2.67-5.73-4.04-8.59c-0.97-2.01-1.95-4.02-2.93-6.02
	c-0.32-0.65-0.64-1.3-0.96-1.95c-0.1-0.19-0.19-0.39-0.28-0.58c-0.12-0.21-0.23-0.43-0.35-0.66c-0.79-1.57-1.59-3.14-2.4-4.7
	c-1.68-3.24-3.38-6.46-5.12-9.68c-4.34-8.02-8.89-15.93-13.64-23.71c-3.63-5.94-7.39-11.8-11.27-17.57
	c-9.63-14.16-20.03-27.79-31.31-40.68c-9.13-10.29-18.82-20.07-29.11-29.21c-8.91-7.79-18.25-15.07-28.02-21.75
	c-8.66-5.79-17.63-11.09-26.91-15.81c-8.67-4.3-17.57-8.09-26.7-11.31c-8.73-2.98-17.63-5.42-26.67-7.31
	c-8.82-1.74-17.75-2.94-26.72-3.59c-9.19-0.56-18.39-0.55-27.58,0.02c-9.79,0.71-19.52,2.05-29.14,3.96
	c-10.64,2.23-21.1,5.15-31.38,8.67c-11.41,4.04-22.52,8.8-33.36,14.18c-12.77,6.49-25.09,13.8-36.98,21.78
	c-14.21,9.7-27.76,20.31-40.7,31.65c-15.33,13.59-29.77,28.12-43.42,43.38c-0.8,0.89-1.59,1.79-2.39,2.69
	c-3.43,3.92-6.82,7.88-10.16,11.88c-0.33-2.73-0.8-5.45-1.55-8.09c-1.35-4.75-3.11-9.5-6.11-13.49c-1.52-2.02-3.32-3.94-5.38-5.5
	c4.11-4.73,8.29-9.39,12.54-13.99c14.46-15.67,29.85-30.48,46.14-44.24c15.83-13.38,32.61-25.66,50.28-36.49
	c17.45-10.7,35.87-19.95,55.03-27.16c20.2-7.6,41.21-12.99,62.66-15.53c19.98-2.36,40.29-2.18,60.22,0.63
	c19.88,2.8,39.33,8.3,57.86,16.01c18.47,7.69,35.86,17.75,52.16,29.33c15.93,11.32,30.68,24.38,44.26,38.42
	c13.12,13.56,25.18,28.15,36.26,43.41c11.39,15.69,21.77,32.11,31.25,49.02c6.37,11.36,12.3,22.95,17.91,34.7
	c1.13,2.38,2.25,4.77,3.36,7.17c3.14,6.8-0.59,15.18-7.32,18.02c-1.7,0.72-3.52,1.08-5.35,1.08S761.51,587.93,759.81,587.21z"/>
<path class="st0" d="M350.93,420.67c-25.58-0.75-55.07-26.13-68.45-46.91c-5.37-10.03-15.27-25.08-3.79-34.37
	c8.29-6.79,21.75-0.8,22.27,9.86c8.39,20.43,27.38,36.76,48.04,43.87c6.19,0.42,13.36-1.17,17.99,4.09c5.32,5.12,5.32,14.33,0,19.45
	C362.78,421.02,356.56,420.91,350.93,420.67z"/>
<path class="st0" d="M466.2,375.1c-14.16-0.75-23.1-14.06-29.72-25.14c-18.97-32-17.49-87.99-9.94-123.66
	c2.77-17.83,29.47-14.16,27.25,3.73c-3.17,15.12-5.33,30.35-4.7,45.84c0.08,24.84,1.38,53.19,19.83,71.91
	C486.08,350.29,483.47,375.77,466.2,375.1z M466.95,375.07C466.95,375.07,466.95,375.06,466.95,375.07
	c-1.35-0.09-2.65-0.29-3.89-0.64C464.26,374.96,465.65,374.96,466.95,375.07z"/>
<path class="st0" d="M608.42,396.58c-17.24-0.34-18.4-25.47-1.32-27.43c14.17-5.11,23.93-18.53,32.27-30.5
	c3.28-4.93,6.19-10.09,8.08-15.72c3.04-10.96,5.45-24.61,20.36-21.48c15.84,5.36,8.6,20.98,4.91,32.41
	c-3.64,10.72-10.39,19.95-16.84,29.13C643.92,377.93,628.57,394.72,608.42,396.58z"/>
<path class="st0" d="M671.44,438.09c1.12-14.36,11.61-11.81,21.03-16.99c15.83-8.2,28.6-21.29,39.13-35.48
	c3.2-5.38,2.57-13.12,9.12-16.2c6.3-3.84,15.21-1.51,18.81,4.93C776.31,399.37,678.17,484.48,671.44,438.09z"/>
<path class="st0" d="M187.32,828.49c-8.5-4.46-17.43-8.23-25.35-13.69c-13.69-10.56-22.73-26.18-28.58-42.22
	c-5.91-15.09-11.55-30.37-14.23-46.41c-1.23-8.31-1.32-16.73-1.97-25.09c-0.28-7.27-2.24-14.49-1.34-21.78
	c1.05-7.42,8.04-12.77,15.49-11.76c7.4,1.01,12.8,8.08,11.76,15.49c0.17,4.86,1.1,9.68,1.36,14.55c0.53,17.49,2.75,34.77,9.26,51.14
	c5.14,13.46,9.44,27.69,19.17,38.68c6.96,8.37,17.88,11.54,27.11,16.75c14.88,8.8,2.81,31.74-12.95,24.21
	C187.05,828.35,187.32,828.49,187.32,828.49z"/>
<path class="st0" d="M89.83,735.52c-6.34-3.71-8.88-12.44-4.93-18.81c4.62-7.18,9.71-14.05,14.67-20.99
	c4.56-6.21,9.32-12.27,13.77-18.56c2.61-5.28,7.06-9.87,13.55-9.76c7.49,0,13.75,6.26,13.75,13.75
	c-0.96,10.43-10.05,17.85-15.48,26.25c-5.29,7.02-10.4,14.19-15.39,21.43C106.27,736.15,97.05,739.95,89.83,735.52z"/>
<path class="st0" d="M155.23,721.95c-9.21-10.47-18.25-21.11-28.23-30.88c-16.74-15.83,8.76-37.11,20.86-17.96
	c9.05,8.94,17.42,18.53,25.69,28.18c2.97,2.96,5.2,6.61,5.14,10.94C179.14,723.99,163.25,730.7,155.23,721.95z"/>
<path class="st0" d="M115.99,678.42c0-7.49,6.26-13.75,13.75-13.75s13.75,6.26,13.75,13.75s-6.26,13.75-13.75,13.75
	S115.99,685.91,115.99,678.42z"/>
<path class="st0" d="M794,829.78c-3.27-1.4-5.91-4.08-7.28-7.36c-1.41-3.4-1.39-7.32,0.06-10.7c1.34-3.13,4.09-6.12,7.36-7.28
	c0.03-0.01,0.06-0.02,0.09-0.03c2.66-0.93,5.25-2.02,7.79-3.23c2.7-1.39,5.31-2.91,7.86-4.55c2.69-1.87,5.28-3.86,7.78-5.97
	c2.78-2.49,5.41-5.1,7.93-7.86c2.79-3.21,5.38-6.55,7.82-10.03c2.74-4.09,5.24-8.33,7.51-12.69c2.46-4.96,4.64-10.06,6.52-15.27
	c1.95-5.67,3.56-11.45,4.83-17.31c1.24-6.16,2.12-12.38,2.63-18.64c0.42-6.29,0.45-12.6,0.11-18.9c-0.01-0.11-0.01-0.22-0.02-0.33
	c0-0.03-0.01-0.06-0.01-0.09c-0.05-0.72-0.11-1.43-0.17-2.15c-0.32-3.71,0.47-7.27,2.8-10.25c2.21-2.82,5.5-4.71,9.05-5.17
	c7.2-0.93,14.76,4.38,15.42,11.85c1.36,15.38,0.64,31.01-2.3,46.18c-3.74,19.29-10.62,38.16-21.33,54.71
	c-12.02,18.57-28.39,34.42-48.89,43.25c-1.46,0.63-2.94,1.21-4.44,1.74c-0.03,0.01-0.07,0.03-0.1,0.04
	c-0.08,0.03-0.16,0.06-0.24,0.08c-0.03,0.01-0.06,0.02-0.09,0.03c-1.83,0.63-3.67,1-5.51,1C797.44,830.84,795.71,830.52,794,829.78z
	"/>
<path class="st0" d="M890.74,735.06c-4.71-1.97-6.17-5.25-8.37-8.79c-3.76-6.28-7.6-12.52-11.66-18.61
	c-3.7-5.86-8.41-11.07-12.59-16.47c-7.2-12.02,6.59-26.09,18.74-19.01c4.81,2.84,7.72,8.21,11.19,12.45
	c7.49,10.39,14.49,21.22,20.71,32.4C913.88,727.83,901.55,740.11,890.74,735.06z M881.86,677.31c0.27,0.53,0.51,1.07,0.73,1.61
	c0-0.06-0.01-0.12-0.01-0.18C882.34,678.27,882.1,677.78,881.86,677.31C881.86,677.31,881.86,677.31,881.86,677.31z"/>
<path class="st0" d="M824.17,732.17c-14.96-12.94,5.71-29,13.87-39.47c9.39-10.25,21.77-33.5,37.56-19.5
	c7.09,6.52,4.43,19.26-4.4,22.58c-2.56,3.07-5.04,6.22-7.59,9.3c-3.36,4.06-6.91,7.94-10.41,11.87
	C845.05,726.34,839.04,741.69,824.17,732.17z"/>
<path class="st0" d="M209.28,603.8c-18.66-10.22-39.35-65.73-46.76-86.62c-25.24-80.23-28.64-173.48,13.37-248.69
	c4.11-7.3,8.83-14.23,13.52-21.16c1.96-2.89,5.63-4.76,9.02-5.22c7.29-1.12,14.63,4.41,15.49,11.76c0.85,9.64-8.1,16.45-12,24.57
	c-7.62,12.22-13.12,25.53-17.86,39.09c-21.81,68.74-14.08,145.26,12.22,211.69c6.54,16.75,14.34,33.04,24.31,48.04
	c3.62,4.24,8.74,7.3,8.38,13.93C229.15,601.05,218.15,607.86,209.28,603.8z"/>
<path class="st0" d="M200.52,265.11c-25.23-10.28,9.8-88.48,19.79-105.3c25.1-42.88,62.82-79.42,108.45-99.66
	c17.68-8.38,36.99-11.79,56.1-15.19c15.77-3.95,32.24-3.67,48.35-2.5c13.75,1.39,26.71,6.31,38.07,14.06
	c6.49,3.46,8.75,12.59,4.93,18.81c-8.47,12.6-19.34,4.83-29-1.13c-6.12-2.76-12.92-3.93-19.57-4.66
	c-20.7-1.95-40.76,2.78-60.91,6.81c-9.75,2.22-19.28,5.37-28.33,9.64c-35.3,16.05-65.37,43.4-86.75,75.61
	c-16.78,25.85-29.55,55.48-32.66,86.34C222.81,258.67,211.07,269.97,200.52,265.11z"/>
<path class="st0" d="M689.4,146c-6.88-16.02-11.75-33.72-25-45.85c-18.25-23-38.77-36.93-67.98-41.86
	c-20.07-4.02-40.59-3.22-60.8-0.82c-13.41,1.81-27.12,3.74-39.29,10.01c-10.55,4.4-9.86,17.72-23.59,16.24
	c-7.37-0.87-12.82-8.18-11.76-15.49c1.09-6.68,6.06-12.03,10.62-16.72c9.07-8.44,21.05-13.1,32.83-16.38
	c42.85-9.5,89.77-11.61,130.7,6.42c19.42,8.17,35.31,23.03,48.65,39.04c8.17,8.25,15.5,17.28,19.76,28.21
	c4.15,8.66,7.65,17.6,11.22,26.49C721.35,151.97,696.99,162.52,689.4,146z"/>
<path class="st0" d="M835.35,354.83c-3.27-1.38-5.94-4.04-7.33-7.3c-1.48-3.47-1.35-7.22-0.02-10.71c0.67-1.75,1.33-3.5,1.96-5.27
	c1.96-5.82,3.57-11.73,4.84-17.73c1.2-6.22,2.02-12.48,2.49-18.79c0.33-6.14,0.3-12.28-0.07-18.41c-0.49-6.09-1.32-12.12-2.49-18.11
	c-1.31-6.05-2.96-12-4.94-17.87c-1.99-5.49-4.25-10.85-6.81-16.11c-2.83-5.52-5.95-10.85-9.39-16.01
	c-3.28-4.69-6.76-9.19-10.49-13.53c-4.04-4.49-8.3-8.73-12.8-12.76c-4.27-3.63-8.68-7.04-13.27-10.26
	c-5.14-3.39-10.42-6.5-15.89-9.32c-5.58-2.7-11.25-5.08-17.09-7.16c-5.59-1.83-11.24-3.38-16.99-4.63
	c-6.34-1.22-12.71-2.1-19.15-2.57c-0.09,0-0.17-0.01-0.26-0.01c-3.7-0.21-7.05-1.34-9.73-4.01c-2.57-2.56-4.04-6.09-4.05-9.71
	s1.45-7.16,4.01-9.73c2.45-2.46,6.18-4.25,9.71-4.05c21.8,1.23,43.07,6.52,62.82,15.84c20.01,9.44,38,23.05,52.7,39.56
	c7.28,8.18,13.82,17.08,19.31,26.57c5.66,9.79,10.22,20.03,13.93,30.7c6.89,19.86,9.6,41.32,8.38,62.28
	c-0.58,9.95-2.05,19.77-4.34,29.48c-1.66,7.04-3.92,13.9-6.45,20.67c-0.08,0.24-0.17,0.49-0.26,0.73c-0.11,0.29-0.23,0.59-0.34,0.88
	c-2.11,5.24-7.4,8.39-12.8,8.39C838.8,355.87,837.03,355.53,835.35,354.83z"/>
<path class="st0" d="M775.21,607.81c-7.33-0.87-12.9-8.19-11.76-15.49c0.55-6.78,7.06-9.93,11.02-14.61
	c6.92-7.96,12.88-16.67,18.58-25.52c16.7-29.63,30.47-61.17,40.38-93.72c6.22-20.04,9.02-40.94,7.07-61.88
	c-1.17-12.63-2.79-25.54-8.34-37.08c-2.14-4.3-6.17-7.47-5.85-12.86c0-7.5,6.25-13.75,13.75-13.75c10.64,0,15.55,11.36,19.14,19.71
	c22.09,59.32,1.85,123.45-24.39,177.98c-7.09,14.68-13.52,29.79-23.06,43.11C804.18,583.92,789.19,609.63,775.21,607.81z"/>
<path class="st0" d="M460.69,747.31c-7.23-1.07-12.93-8.25-11.59-15.62c0.04-0.23,0.08-0.45,0.12-0.68
	c0.01-0.07,0.03-0.14,0.04-0.21c3.06-16.87,6.15-33.74,9.22-50.61c3.14-17.24,6.4-34.47,9.43-51.73c0.62-3.57,2.4-6.76,5.32-8.96
	c2.92-2.21,6.68-3.16,10.3-2.62c7.26,1.07,12.89,8.24,11.59,15.62c-3.1,17.64-6.42,35.23-9.63,52.85
	c-3.06,16.79-6.14,33.58-9.18,50.37c-0.66,3.58-2.39,6.75-5.32,8.96c-2.39,1.81-5.34,2.77-8.31,2.77
	C462.02,747.46,461.35,747.41,460.69,747.31z"/>
<path class="st0" d="M477.03,761.22c-13.84-2.47-32.05-21.89-22.2-35.79c6.71-9.34,22.56-5.57,24.49,5.63
	c0.38,0.68,0.87,1.28,1.36,1.88c5.19,5.49,23.95-3.57,34.59-1.03c11.89,0.03,22.14,12.96,14,23.54c-2.19,2.84-5.46,4.74-9.02,5.22
	c-4.14,0.96-7.91-2.06-12.03-1.51C497.85,760.43,487.42,764.39,477.03,761.22z"/>
<path class="st0" d="M477.71,840.65c-20.88-4.24-41.65-14.25-55.61-30.72c-1.27-1.49-2.49-3.03-3.64-4.61
	c-4.41-6.06-2.31-15.02,3.73-19.09c3.05-2.05,6.89-2.8,10.49-2.05c3.58,0.74,6.48,2.87,8.6,5.79c0.03,0.04,0.05,0.07,0.08,0.11
	c1.3,1.62,2.67,3.17,4.11,4.67c1.8,1.74,3.67,3.38,5.62,4.94c2.15,1.6,4.37,3.09,6.66,4.48c2.86,1.62,5.8,3.1,8.81,4.43
	c3.43,1.4,6.93,2.61,10.49,3.65c3.78,0.99,7.61,1.78,11.47,2.37c4.03,0.51,8.06,0.8,12.12,0.87c3.8-0.03,7.59-0.27,11.37-0.7
	c3.55-0.51,7.05-1.2,10.52-2.08c2.88-0.83,5.72-1.8,8.51-2.92c2.32-1.01,4.58-2.13,6.79-3.38c1.81-1.1,3.55-2.27,5.25-3.53
	c1.4-1.12,2.75-2.29,4.04-3.53c1.05-1.09,2.06-2.23,3.01-3.4c0.73-0.98,1.42-1.99,2.07-3.02c4.01-6.32,13.02-7.8,19.09-3.7
	c2.97,2.01,5.08,5.16,5.79,8.67c0.74,3.7-0.13,7.25-2.09,10.42c-0.15,0.24-0.3,0.47-0.45,0.71c-0.05,0.08-0.11,0.16-0.16,0.24
	c-8.44,12.75-21.61,21.58-35.71,27.06c-9.41,3.66-19.59,5.68-29.66,6.36c-2.67,0.18-5.35,0.27-8.04,0.27
	C493.15,842.97,485.34,842.2,477.71,840.65z"/>
<path class="st0" d="M621.98,769.03c-11.99,0.78-25.34-3.46-22.27-18.11c4.72-12.95,13.69-9.49,24.43-9.36
	c9.67-0.63,19.89,0.15,21.77,11.77C646.72,768.42,633.92,769.96,621.98,769.03z"/>
<path class="st0" d="M654.13,752.87c-10.05-6.14-8.22-19.2,1.11-25c8.91-7.47,17.58-19.39,29.49-8.93
	c10.32,11.72-0.92,21.21-10.13,28.45C669.48,752.94,661.46,757.59,654.13,752.87z"/>
<path class="st0" d="M696.24,717.67c-13.6-0.37-17.89-16.04-8.82-25.18c6.56-10.19,10.89-24.51,26.12-17.32
	c11.41,7.33,5.92,18.63-0.06,27.55C709.37,709.17,705.11,717.98,696.24,717.67z"/>
<path class="st0" d="M706.66,665.81c-6.59-8.99,0.26-19.68,1.88-29.21c0.27-8.18,7.55-14.82,15.77-13.66
	c18.05,3.55,10.44,22.92,6.97,34.94C731.34,670.28,713.85,676.02,706.66,665.81z M730.91,654.32c-0.35-1.64-1.05-3.21-2-4.59
	C729.84,651.17,730.52,652.71,730.91,654.32z"/>
<path class="st0" d="M287.37,668.71c-14.31-2.36-13.21-19.62-15.02-30.73c-0.78-6.23-1.37-13.24,3.56-18.02
	c4.66-4.8,12.88-5.44,18.11-1.18c3.82,2.97,6.03,7.94,5.31,12.93c0.56,5.78,1.22,11.61,2.3,17.31
	C306.48,658.4,297.86,670.61,287.37,668.71z"/>
<path class="st0" d="M309.12,715.05c-5.65-0.66-9.35-5.12-12.2-9.62c-3.46-5.37-8.74-9.97-9.83-16.52
	c-1.85-10.28,9.77-18.91,19.14-14.59c3.36,1.32,5.84,3.98,7.2,7.14c2.94,3.76,5.5,7.83,8.45,11.57
	C329.56,702.13,320.83,717.11,309.12,715.05z"/>
<path class="st0" d="M337.57,745.1c-8.27-6.06-21.6-10.56-21.87-22.52c0-7.5,6.26-13.75,13.75-13.75c4.56-0.12,8.21,2.42,11.1,5.39
	c3.59,2.44,7.15,4.94,10.9,7.13C366.8,731.03,353.45,753.71,337.57,745.1z"/>
<path class="st0" d="M383.03,769.01c-7.86-2.78-17.73-3.48-23.46-10.08c-6.94-8.59-0.19-22.54,10.91-22.16
	c2.83-0.1,5.27,1.12,7.78,2.08c3.99,1.37,8.04,2.5,12.09,3.64C407.67,747.93,400.57,773.28,383.03,769.01z"/>
<path class="st0" d="M354.84,616.2c-5.57-3.39-10.61-7.59-15.01-12.38c-5.07-5.52-4.09-14.62,1.45-19.39
	c2.77-2.39,6.45-3.58,10.11-3.29c3.66,0.3,6.83,2.06,9.29,4.73c0.19,0.21,0.38,0.41,0.57,0.62c1.21,1.19,2.49,2.32,3.8,3.4
	c1.56,1.18,3.17,2.28,4.83,3.32c2.06,1.19,4.17,2.28,6.34,3.27c2.54,1.07,5.13,2,7.77,2.8c2.82,0.77,5.67,1.38,8.56,1.85
	c2.86,0.38,5.73,0.61,8.61,0.69c2.5-0.01,5-0.14,7.49-0.39c2.21-0.3,4.4-0.71,6.56-1.23c1.76-0.49,3.49-1.06,5.19-1.72
	c1.32-0.57,2.62-1.21,3.89-1.89c0.92-0.56,1.83-1.15,2.71-1.78c0.67-0.53,1.31-1.09,1.94-1.67c0.44-0.46,0.88-0.93,1.29-1.41
	c4.88-5.7,13.95-5.96,19.42-1.04c2.7,2.43,4.35,5.87,4.54,9.49c0.2,3.69-1.12,7.14-3.5,9.93c-9.03,10.55-22.93,16.37-36.42,18.28
	c-4.16,0.59-8.36,0.88-12.54,0.88C385.28,629.26,368.92,624.77,354.84,616.2z"/>
<path class="st0" d="M593.2,628.61c-10.91-1.16-21.94-4.57-31.38-10.21c-6.57-3.93-12.56-8.9-17.23-15c0,0,0,0,0,0
	c-4.55-5.95-3.45-14.7,2.49-19.29c5.94-4.59,14.7-3.43,19.29,2.49h0c0.05,0.07,0.11,0.14,0.16,0.21c0.29,0.38,0.6,0.74,0.9,1.11
	c0.91,0.98,1.85,1.93,2.83,2.83c1.1,0.92,2.23,1.79,3.4,2.62c1.5,0.97,3.04,1.87,4.63,2.71c1.95,0.93,3.94,1.77,5.97,2.52
	c2.33,0.76,4.69,1.39,7.09,1.92c2.56,0.47,5.14,0.82,7.73,1.04c2.79,0.14,5.58,0.15,8.38,0c2.62-0.23,5.22-0.58,7.8-1.05
	c2.37-0.53,4.71-1.17,7.01-1.93c1.88-0.69,3.72-1.46,5.53-2.32c1.58-0.83,3.13-1.72,4.63-2.69c1.13-0.79,2.22-1.62,3.27-2.51
	c0.93-0.85,1.82-1.75,2.67-2.68c0.31-0.37,0.62-0.74,0.92-1.12c0,0,0,0,0,0c4.61-5.9,13.34-7.07,19.29-2.47
	c5.97,4.62,7,13.31,2.48,19.29c0,0-0.01,0.01-0.01,0.01c0,0,0,0,0,0c-0.11,0.14-0.22,0.28-0.33,0.42
	c-8.66,10.85-21.18,17.86-34.42,21.6c-7.42,2.1-15.12,3.05-22.83,3.05C600.03,629.16,596.6,628.97,593.2,628.61z"/>
<path class="st0" d="M651.18,548.44c-0.45-1.07-0.94-2.12-1.47-3.15c-0.65-1.16-1.35-2.3-2.1-3.4c-0.88-1.18-1.8-2.32-2.78-3.43
	c-0.93-0.96-1.9-1.88-2.91-2.76c-1.16-0.93-2.35-1.81-3.59-2.64c-1.34-0.81-2.72-1.57-4.12-2.27c-1.66-0.74-3.34-1.39-5.05-1.97
	c-1.9-0.55-3.82-1.01-5.76-1.39c-2.16-0.33-4.33-0.54-6.52-0.66c-2.49-0.04-4.98,0.03-7.47,0.23c-2.71,0.31-5.39,0.77-8.06,1.34
	c-1.75,0.44-3.48,0.92-5.2,1.44c-0.95,0.29-1.9,0.61-2.84,0.95c-0.14,0.05-0.27,0.1-0.41,0.14c-0.19,0.07-0.37,0.14-0.56,0.21
	c-2.86,1.11-5.64,2.41-8.36,3.8c-2.99,1.65-5.88,3.43-8.7,5.37c-2.71,1.99-5.32,4.1-7.83,6.34c-1.09,1.02-2.16,2.06-3.19,3.14
	c-5.21,5.38-13.99,5.68-19.44,0.47c-5.39-5.14-5.69-14.05-0.47-19.44c6.58-6.8,14.12-12.89,22.31-17.66
	c4.71-2.74,9.56-5.18,14.62-7.19c0.29-0.12,0.59-0.23,0.88-0.34c1.47-0.66,3.05-1.14,4.57-1.66c1.18-0.41,2.38-0.76,3.58-1.11
	c2.96-0.86,5.99-1.56,9.02-2.13c5.23-0.98,10.61-1.5,15.93-1.43c11.29,0.14,22.29,2.48,32.43,7.52
	c12.66,6.29,23.04,17.27,28.55,30.31c1.45,3.42,1.65,7.19,0.29,10.68c-1.3,3.32-3.89,6.05-7.14,7.52c-1.77,0.8-3.67,1.18-5.56,1.18
	C658.55,556.47,653.32,553.51,651.18,548.44z"/>
<path class="st0" d="M331.19,558.99c-3.55-0.48-6.83-2.39-9.02-5.22c-2.29-2.97-3.12-6.58-2.74-10.27c0.5-4.84,4.03-8.32,7.23-11.62
	c1.75-1.8,3.61-3.5,5.46-5.19c4.14-3.79,8.51-7.45,13.13-10.64c4.73-3.27,9.56-6.29,14.61-9.02c5.32-2.88,10.82-5.59,16.69-7.09
	c5.52-1.41,11.27-1.95,16.93-2.47c3.59-0.33,7.09-0.4,10.67,0c2.51,0.28,4.98,0.88,7.46,1.32c5.79,1.05,11.43,2.16,16.83,4.6
	c3.72,1.68,7,3.97,10.03,6.68c1.71,1.52,3.32,3.16,4.98,4.73c0.75,0.71,1.5,1.4,2.26,2.09c1.66,1.45,3.29,2.9,4.63,4.67
	c1.54,2.03,2.71,4.26,3.75,6.57c3.07,6.84-0.54,15.15-7.32,18.02c-7.02,2.97-14.95-0.49-18.02-7.32c-0.05-0.11-0.1-0.21-0.15-0.32
	c-0.03-0.06-0.06-0.11-0.1-0.17l-0.04-0.07c-2.92-2.59-5.69-5.35-8.58-7.98c-0.49-0.4-0.98-0.79-1.49-1.16
	c-0.23-0.14-0.47-0.28-0.7-0.42c-0.87-0.39-1.75-0.75-2.64-1.08c-1.31-0.4-2.63-0.75-3.97-1.05c-3.63-0.69-7.29-1.45-10.96-1.91
	c-1.03-0.02-2.06,0-3.1,0.04c-4.26,0.4-8.52,0.85-12.72,1.61c-0.88,0.23-1.75,0.47-2.62,0.74c-2,0.79-3.95,1.67-5.88,2.62
	c-4.42,2.31-8.71,4.79-12.89,7.52c-4.05,2.84-7.89,5.93-11.63,9.16c-2.3,2.11-4.55,4.24-6.69,6.51c-2.55,3.79-7.04,6.22-11.67,6.22
	C332.36,559.11,331.77,559.07,331.19,558.99z"/>
<path class="st0" d="M218.11,603.4c0-0.22,0-0.44,0-0.66c0-0.06,0-0.12,0-0.18c0.01-2.1,0.04-4.19,0.1-6.29
	c0.02-0.52,0.04-1.04,0.05-1.56c0.03-0.8,0.06-1.61,0.09-2.42c0-0.09,0.01-0.18,0.01-0.26c0.01-0.2,0.01-0.39,0.02-0.59
	c0.03-0.76,0.07-1.52,0.1-2.28c0.6-12,2.06-23.93,4.18-35.75c2.17-12.14,5.2-24.15,9.3-35.78c3.27-9.27,7.36-18.36,12.89-26.51
	c2.5-3.68,5.43-7.02,8.76-9.97c2.6-2.31,6.56-3.25,9.95-2.9c3.66,0.38,7.08,2.26,9.37,5.14c2.21,2.79,3.26,6.41,2.9,9.95
	c-0.37,3.62-2.14,6.56-3.96,8.3c-0.88,0.8-1.7,1.65-2.49,2.54c-1.04,1.3-2,2.65-2.91,4.05c-1.69,2.76-3.2,5.63-4.57,8.57
	c-2.45,5.46-4.5,11.1-6.29,16.81c-2.75,9.12-4.85,18.42-6.48,27.81c-1.74,10.55-2.87,21.2-3.35,31.88
	c-0.02,0.39-0.03,0.77-0.05,1.16c-0.09,2.75-0.13,5.5-0.13,8.26c0,3.7-1.26,7.21-3.85,9.91c-2.49,2.58-5.96,4.1-9.54,4.2
	c-0.11,0-0.23,0-0.34,0C224.66,616.8,218.11,610.77,218.11,603.4z"/>
</svg>
