<?xml version="1.0" encoding="utf-8"?>
<!-- Generator: Adobe Adobe Illustrator 24.2.0, SVG Export Plug-In . SVG Version: 6.00 Build 0)  -->
<svg version="1.1" id="Capa_de_vector_1_" xmlns="http://www.w3.org/2000/svg" xmlns:xlink="http://www.w3.org/1999/xlink" x="0px"
	 y="0px" viewBox="0 0 1000 1000" style="enable-background:new 0 0 1000 1000;" xml:space="preserve">
<style type="text/css">
	.st0{fill:#A46460;}
</style>
<path class="st0" d="M195.72,168.13c-10.4-6.69-18.98-16.66-23.08-28.44c-1.18-3.39-2.04-6.66-2.75-10.18c-0.6-2.95-0.73-6-0.83-9
	c-0.2-6.05,0.8-12.5,2.77-18.21c2.19-6.34,5.14-12.23,9.27-17.54c4.16-5.35,9.22-9.65,14.86-13.37c4.99-3.29,10.97-5.77,16.81-7.05
	c5.76-1.26,11.46-1.79,17.29-1.47c0.37,0.01,0.74,0.03,1.11,0.06c18.71,1.39,36.74,13.23,45.32,29.93
	c3.02,5.88,5.05,11.94,6.14,18.45c0.95,5.62,0.82,11.56-0.02,17.18c-1.8,12.1-7.78,23.98-16.73,32.37
	c-4.85,4.55-10.28,8.37-16.38,11.07c-5.59,2.48-11.5,4.06-17.58,4.71c-1.93,0.21-3.88,0.31-5.82,0.31
	C215.45,176.95,204.66,173.88,195.72,168.13z M227.8,146.9c1.28-0.13,2.55-0.3,3.82-0.51c1.06-0.25,2.1-0.54,3.15-0.85
	c1.29-0.49,2.55-1.02,3.8-1.6c0.9-0.5,1.78-1.01,2.65-1.55c0.94-0.68,1.87-1.38,2.77-2.11c0.92-0.86,1.8-1.74,2.65-2.66
	c0.69-0.84,1.34-1.7,1.98-2.58c0.66-1.04,1.28-2.1,1.86-3.19c0.47-1.03,0.91-2.08,1.32-3.14c0.36-1.14,0.68-2.3,0.95-3.46
	c0.2-1.16,0.36-2.33,0.48-3.5c0.05-1.28,0.05-2.56,0-3.84c-0.12-1.18-0.28-2.36-0.49-3.53c-0.27-1.15-0.58-2.29-0.94-3.42
	c-0.42-1.11-0.88-2.2-1.38-3.28c-0.57-1.05-1.17-2.08-1.81-3.08c-0.67-0.93-1.37-1.83-2.1-2.71c-0.78-0.84-1.59-1.64-2.42-2.42
	c-0.89-0.74-1.81-1.45-2.75-2.13c-0.99-0.63-2-1.22-3.04-1.77c-1.11-0.51-2.22-0.98-3.36-1.41c-1.19-0.37-2.39-0.7-3.6-0.98
	c-0.82-0.14-1.64-0.26-2.46-0.36c-0.16-0.02-0.33-0.03-0.49-0.05c-1.33-0.05-2.66-0.05-3.99,0c-1.12,0.12-2.23,0.27-3.35,0.45
	c-1.31,0.32-2.6,0.67-3.89,1.07c-0.98,0.39-1.95,0.8-2.92,1.22c-1.19,0.64-2.34,1.32-3.48,2.04c-0.85,0.64-1.68,1.28-2.5,1.95
	c-0.84,0.79-1.66,1.6-2.45,2.44c-0.72,0.88-1.41,1.77-2.08,2.68c-0.63,0.99-1.22,2.01-1.79,3.04c-0.46,1-0.89,2-1.29,3.02
	c-0.4,1.26-0.75,2.53-1.06,3.82c-0.2,1.23-0.37,2.46-0.49,3.69c-0.03,1.24-0.02,2.48,0.03,3.72c0.13,1.19,0.3,2.36,0.51,3.54
	c0.25,1.01,0.52,2.02,0.83,3.02c0.45,1.19,0.94,2.37,1.47,3.53c0.57,1.04,1.16,2.06,1.8,3.07c0.67,0.93,1.37,1.83,2.1,2.71
	c0.85,0.9,1.74,1.77,2.65,2.61c0.8,0.64,1.61,1.26,2.44,1.86c0.98,0.61,1.97,1.2,2.99,1.76c1.04,0.48,2.08,0.93,3.15,1.35
	c1.15,0.36,2.31,0.7,3.49,0.99c1.35,0.23,2.7,0.41,4.06,0.55C225.66,146.92,226.73,146.92,227.8,146.9z"/>
<path class="st0" d="M723.33,791.99c-9.58-9.7-14.26-23.3-13.33-36.82c0.91-13.3,7.77-25.66,18.19-33.89
	c10.3-8.14,24.16-11.52,37.07-9.31c0.81,0.14,1.61,0.3,2.4,0.47c0.4,0.07,0.79,0.15,1.19,0.25c8.61,2.08,16.89,6.88,22.9,13.37
	c8.33,9,13.22,20.75,13.09,33.08c-0.13,12.45-5.16,24.44-13.93,33.27c-8.51,8.58-20.19,13.44-32.21,13.88
	c-0.54,0.02-1.08,0.03-1.61,0.03C744.47,806.32,732.18,800.95,723.33,791.99z M758.52,776.29c0.77-0.08,1.54-0.19,2.3-0.31
	c0.72-0.18,1.43-0.37,2.14-0.58c0.76-0.29,1.51-0.61,2.26-0.95c0.68-0.37,1.34-0.76,1.99-1.17c0.57-0.41,1.12-0.84,1.66-1.28
	c0.54-0.51,1.06-1.03,1.57-1.57c0.48-0.58,0.94-1.18,1.38-1.78c0.4-0.64,0.79-1.29,1.15-1.96c0.31-0.68,0.61-1.38,0.88-2.08
	c0.24-0.76,0.45-1.53,0.64-2.3c0.13-0.78,0.24-1.57,0.32-2.36c0.02-0.79,0.02-1.59-0.01-2.38c-0.08-0.76-0.18-1.51-0.31-2.26
	c-0.18-0.75-0.39-1.5-0.62-2.24c-0.28-0.72-0.57-1.42-0.89-2.12c-0.36-0.66-0.74-1.31-1.14-1.95c-0.44-0.61-0.9-1.21-1.38-1.79
	c-0.5-0.53-1.02-1.05-1.55-1.55c-0.58-0.48-1.17-0.93-1.78-1.37c-0.64-0.4-1.29-0.79-1.96-1.15c-0.69-0.32-1.38-0.61-2.09-0.88
	c-0.76-0.23-1.52-0.43-2.28-0.61c-0.74-0.12-1.48-0.21-2.22-0.3c-0.75-0.02-1.49-0.03-2.25-0.02c-0.89,0.09-1.77,0.21-2.65,0.36
	c-0.75,0.19-1.5,0.4-2.24,0.63c-0.65,0.26-1.29,0.53-1.93,0.82c-0.7,0.38-1.39,0.79-2.07,1.21c-0.54,0.4-1.07,0.8-1.59,1.22
	c-0.54,0.5-1.06,1.02-1.57,1.55c-0.53,0.65-1.04,1.32-1.54,2c-0.37,0.62-0.73,1.24-1.08,1.87c-0.32,0.71-0.61,1.42-0.9,2.14
	c-0.21,0.7-0.4,1.4-0.58,2.1c-0.14,0.86-0.26,1.72-0.35,2.59c-0.01,0.71-0.01,1.42,0.01,2.13c0.09,0.81,0.19,1.61,0.33,2.41
	c0.18,0.72,0.37,1.42,0.58,2.13c0.27,0.71,0.57,1.41,0.88,2.1c0.39,0.71,0.79,1.4,1.22,2.09c0.45,0.6,0.91,1.19,1.38,1.77
	c0.44,0.46,0.9,0.92,1.36,1.36c0.65,0.54,1.31,1.05,1.99,1.55c0.58,0.36,1.17,0.7,1.77,1.03c0.74,0.34,1.48,0.66,2.24,0.96
	c0.78,0.23,1.56,0.45,2.35,0.64c0.71,0.12,1.43,0.21,2.15,0.29C756.91,776.31,757.72,776.31,758.52,776.29z"/>
<path class="st0" d="M105.21,456.78c-6.03-2.32-11.61-5.83-15.94-10.68c-4.58-5.12-7.78-11.1-9.5-17.75
	c-3.22-12.42,0.19-25.98,8.29-35.8c6.42-7.79,15.95-12.91,25.95-14.25c0.03,0,0.07-0.01,0.1-0.01c7.4-1.04,15.11,0.27,21.91,3.29
	c9.43,4.18,16.59,11.98,20.73,21.33c3.78,8.54,4,18.33,1.52,27.24c-2.88,10.35-10.33,19.05-19.62,24.25
	c-5.83,3.26-12.63,4.92-19.4,4.93C114.43,459.32,109.63,458.48,105.21,456.78z M119.5,429.31c0.52-0.04,1.04-0.09,1.56-0.15
	c0.46-0.1,0.92-0.21,1.37-0.33c0.43-0.15,0.85-0.31,1.28-0.48c0.39-0.2,0.77-0.41,1.15-0.62c0.41-0.28,0.82-0.57,1.22-0.88
	c0.33-0.3,0.66-0.6,0.98-0.91c0.3-0.35,0.59-0.7,0.88-1.06c0.23-0.35,0.45-0.7,0.67-1.05c0.22-0.44,0.43-0.89,0.62-1.34
	c0.15-0.44,0.29-0.89,0.42-1.35c0.09-0.47,0.17-0.93,0.24-1.4c0.03-0.47,0.05-0.94,0.05-1.41c-0.03-0.45-0.08-0.89-0.13-1.33
	c-0.1-0.5-0.22-0.99-0.35-1.48c-0.16-0.45-0.33-0.89-0.51-1.33c-0.21-0.42-0.44-0.83-0.67-1.24c-0.25-0.37-0.51-0.73-0.78-1.08
	c-0.32-0.36-0.65-0.71-0.98-1.05c-0.33-0.28-0.66-0.55-1-0.82c-0.38-0.25-0.76-0.49-1.16-0.73c-0.39-0.19-0.78-0.37-1.18-0.55
	c-0.46-0.16-0.93-0.31-1.4-0.44c-0.51-0.1-1.03-0.19-1.54-0.27c-0.28-0.02-0.57-0.03-0.85-0.04c-0.09,0-0.18,0-0.27,0
	c-0.5,0.04-1,0.08-1.5,0.14c-0.46,0.1-0.93,0.2-1.39,0.32c-0.44,0.16-0.88,0.32-1.32,0.49c-0.43,0.22-0.86,0.45-1.28,0.68
	c-0.44,0.3-0.87,0.61-1.29,0.93c-0.31,0.29-0.62,0.58-0.92,0.87c-0.28,0.33-0.55,0.66-0.82,0.99c-0.24,0.37-0.48,0.75-0.71,1.13
	c-0.2,0.42-0.4,0.84-0.59,1.26c-0.15,0.43-0.28,0.87-0.41,1.31c-0.1,0.49-0.18,0.99-0.26,1.48c-0.03,0.45-0.05,0.9-0.06,1.35
	c0.03,0.47,0.07,0.93,0.13,1.4c0.1,0.47,0.21,0.94,0.33,1.41c0.16,0.46,0.33,0.91,0.52,1.36c0.21,0.41,0.43,0.82,0.66,1.23
	c0.26,0.37,0.52,0.74,0.79,1.11c0.3,0.33,0.6,0.66,0.91,0.98c0.37,0.32,0.75,0.63,1.14,0.94c0.34,0.23,0.69,0.44,1.04,0.66
	c0.42,0.21,0.85,0.41,1.27,0.6c0.45,0.15,0.89,0.29,1.35,0.43c0.5,0.1,0.99,0.18,1.49,0.26C118.64,429.29,119.07,429.3,119.5,429.31
	z"/>
<path class="st0" d="M266.94,527.22c-0.27-18.57-0.54-37.13-0.8-55.7c-0.3-20.34-0.59-40.69-0.89-61.03
	c-0.3-20.6-0.59-41.19-0.89-61.79c-0.3-20.97-0.61-41.95-0.91-62.92c-0.25-17.06-0.5-34.13-0.74-51.19c-0.12-8.18,6.91-15,15-15
	c8.27,0,14.88,6.83,15,15c0,0.04,0,0.08,0,0.12c0,0.06,0,0.12,0,0.18c0.28,19.6,0.57,39.2,0.85,58.8
	c0.3,20.87,0.61,41.74,0.91,62.61c0.3,20.54,0.59,41.09,0.89,61.64c0.3,20.5,0.59,41.01,0.89,61.51
	c0.23,15.84,0.46,31.68,0.69,47.52c0,0.05,0,0.11,0,0.16c0,0.02,0,0.05,0,0.07c0.12,8.18-6.91,15-15,15
	C273.64,542.22,267.11,535.39,266.94,527.22z"/>
<path class="st0" d="M295.82,582.21c-12.04,0.33-19.59-14.82-11.89-24.17c3.09-4.34,8.31-5.76,13.35-6.24
	c10.41-2.31,20.58-5.54,31.13-7.2c32.12-5.49,64.57-9.34,97.21-8.61c43.21-0.08,87.02,4.59,128.54,16.73
	c17.89,8.02,6.74,34.81-11.68,27.64c-8.18-2.53-16.75-3.64-25-6.02c-41.63-7.65-83.97-9.97-126.22-7.61
	c-21.28,1.47-42.36,4.96-63.38,8.43C317.14,577.23,306.77,581.45,295.82,582.21z M296.33,582.17c0.51-0.03,1.01-0.07,1.52-0.1
	c0,0-0.01,0-0.02,0c0-0.01,0-0.02,0-0.03C297.33,582.09,296.83,582.14,296.33,582.17z"/>
<path class="st0" d="M181.25,980.86c-7.31-4.14-8.1-12.81-7.79-20.38c0.02-9.02-0.39-18.03-0.97-27.04
	c-2.74-47.96-5.71-95.91-8.04-143.89c0.16-87.63-1.47-175.92,16.67-262.13c7.83-30.51,12.96-62.57,27.6-90.73
	c6.3-10.33,12.65-20.64,19.18-30.83c7.43-11.35,18.2-19.78,27.67-29.26c8.35-10.33,26.69-3.76,26.28,9.8
	c-0.7,13.19-17.59,20.69-24.9,30.78c-10.64,14.91-21.21,30.56-28.19,47.57c-10.82,35.23-20.3,71.11-24.79,107.76
	c-7.04,45.67-9.61,91.67-8.94,137.85c0.12,34.17-1.96,68.39,0.54,102.51c2.13,31.47,3.33,62.99,5.4,94.46
	c0.82,14.98,1.97,29.95,2.4,44.95c-0.75,7.69,2.35,16.18-1.6,23.21C197.84,982.49,188.13,985.07,181.25,980.86z M253.78,379.12
	c0.41-0.73,0.88-1.41,1.4-2.06C254.65,377.69,254.16,378.39,253.78,379.12z"/>
<path class="st0" d="M659.81,526.61c-0.01-0.01-0.02-0.02-0.03-0.03c-0.35-0.36-0.7-0.71-1.06-1.06c-3.62-3.68-7.29-7.3-10.94-10.95
	c-1.15-1.15-2.3-2.3-3.45-3.45c-0.15-0.18-0.3-0.36-0.45-0.54c-1.38-1.65-2.79-3.27-4.2-4.88c2.73-4.07,7.43-6.79,12.54-6.79
	c8.27,0,14.86,6.83,14.99,15c0.1,6.66,0.22,13.34,0.34,20C664.97,531.48,662.39,529.04,659.81,526.61z"/>
<path class="st0" d="M660.51,979.27c-8.29,0-14.84-6.83-14.99-15c-0.34-18.57-0.69-37.14-1.03-55.71
	c-0.39-21.23-0.79-42.45-1.18-63.68c-0.39-21.5-0.79-43-1.19-64.5c-0.4-21.56-0.79-43.12-1.19-64.68
	c-0.39-21.18-0.78-42.36-1.17-63.53c-0.39-21.09-0.78-42.18-1.17-63.27c-0.02-0.89-0.03-1.79-0.05-2.68
	c0.77,1.1,1.56,2.19,2.37,3.27c2.02,2.71,4.11,5.38,6.27,7.98c1.14,1.37,2.26,2.76,3.47,4.07c2.01,2.17,4.03,4.34,6.04,6.52
	c0.93,1,1.84,2.02,2.77,3c1,1.21,2,2.43,3,3.63c2.26,2.71,4.49,5.43,6.75,8.14c0.08,4.27,0.16,8.54,0.24,12.81
	c0.39,21.04,0.78,42.09,1.16,63.13c0.39,21.5,0.79,43.01,1.19,64.51c0.4,21.7,0.8,43.39,1.2,65.09c0.39,21.1,0.78,42.2,1.17,63.29
	c0.38,20.76,0.76,41.52,1.15,62.29c0.06,3.44,0.13,6.89,0.19,10.33C675.66,972.45,668.57,979.27,660.51,979.27
	C660.51,979.27,660.51,979.27,660.51,979.27z"/>
<path class="st0" d="M550.25,520.91c0.05-16.82,0.1-33.64,0.15-50.46c0.05-15.58,0.1-31.16,0.14-46.73c0-0.81,0-1.62,0.01-2.43
	c0.03-8.18,6.77-15.01,14.98-15.03c8.14-0.01,15.05,6.8,15.02,14.98c0,0.79,0,1.58-0.01,2.36c0,0.16,0,0.33,0,0.49
	c0,0.07,0,0.14,0,0.22c-0.06,18.8-0.11,37.6-0.17,56.39c-0.04,13.39-0.08,26.77-0.12,40.16c-0.03,8.18-6.77,15.01-14.98,15.03
	C557.13,535.9,550.22,529.09,550.25,520.91z"/>
<path class="st0" d="M377.18,661.75c-19.63-5.95-38.02-16.11-53.8-29.17c-15.18-12.56-27.65-27.98-37.23-45.16
	c-5.94-10.65-10.58-22.15-13.73-33.94c-2.43-9.08-4.14-18.27-5-27.64c-0.11-1.19-0.19-2.38-0.27-3.57c-0.01-0.13-0.02-0.27-0.03-0.4
	c0,0,0,0,0,0c-0.42-8.16,5.67-15.42,13.93-16c8.12-0.57,15.48,5.78,16,13.93c0.19,3.03,0.48,6.05,0.86,9.06
	c0.75,5.29,1.79,10.53,3.12,15.7c1.45,5.29,3.2,10.49,5.24,15.58c2.09,4.98,4.45,9.83,7.08,14.55c2.79,4.8,5.83,9.42,9.14,13.88
	c3.44,4.46,7.12,8.7,11.05,12.74c4.05,4.01,8.32,7.77,12.8,11.28c4.49,3.39,9.17,6.5,14.03,9.35c4.99,2.8,10.13,5.31,15.41,7.52
	c5.19,2.06,10.49,3.81,15.88,5.26c5.43,1.36,10.93,2.4,16.48,3.13c5.36,0.6,10.74,0.91,16.14,0.94c5.42-0.08,10.82-0.46,16.19-1.14
	c5.34-0.78,10.63-1.83,15.86-3.18c5.14-1.43,10.2-3.13,15.16-5.11c4.97-2.09,9.81-4.43,14.52-7.05c4.84-2.8,9.5-5.87,13.99-9.2
	c4.49-3.47,8.78-7.19,12.84-11.15c3.98-4.03,7.72-8.28,11.22-12.74c3.38-4.48,6.48-9.15,9.33-13.98c2.8-4.99,5.31-10.12,7.51-15.39
	c2.06-5.2,3.82-10.52,5.28-15.93c1.35-5.39,2.39-10.85,3.12-16.36c0.32-2.74,0.56-5.48,0.72-8.23c0.48-8.16,7.71-14.57,15.86-14.09
	s14.57,7.71,14.09,15.86c-0.47,7.95-1.53,15.89-3.2,23.68c-0.51,2.4-0.97,5-1.79,7.39c-0.1,0.38-0.2,0.76-0.3,1.15
	c-0.56,2.1-1.18,4.18-1.83,6.25c-6.13,19.53-16.34,37.62-29.39,53.34c-12.85,15.48-28.93,28.16-46.63,37.64
	c-18.17,9.73-38.31,15.51-58.79,17.54c-4.79,0.47-9.59,0.7-14.39,0.7C407.92,668.79,392.21,666.31,377.18,661.75z"/>
<path class="st0" d="M792.27,658.9c-0.01-0.01-0.02-0.02-0.04-0.04c0,0,0,0-0.01-0.01s0-0.01-0.01-0.01
	c-13.06-13.17-26.14-26.33-39.21-39.5c-13.55-13.65-27.11-27.3-40.66-40.96c-14.27-14.39-28.55-28.77-42.83-43.15
	c-11.74-11.83-23.49-23.66-35.23-35.49c-0.45-0.49-0.9-0.97-1.36-1.46c-0.19-0.2-0.38-0.4-0.57-0.6c-0.28-0.73-0.76-1.38-1.43-1.86
	c-0.47-0.34-0.95-0.67-1.41-1.01c-0.16-0.14-0.33-0.27-0.5-0.38c0,0-0.01,0-0.01-0.01c-0.82-0.83-1.65-1.66-2.47-2.49
	c-14.5-14.61-29-29.21-43.49-43.82c-14.66-14.78-29.33-29.55-44-44.33c-15.1-15.21-30.2-30.42-45.29-45.63
	c-14.74-14.86-29.49-29.71-44.23-44.56c-14.84-14.95-29.68-29.9-44.51-44.85c-12.23-12.32-24.51-24.59-36.69-36.96
	c-5.73-5.82-5.55-15.54,0.28-21.21c5.88-5.72,15.48-5.55,21.21,0.28c13.54,13.75,27.19,27.39,40.78,41.09
	c14.88,14.99,29.75,29.98,44.64,44.97c14.91,15.02,29.81,30.03,44.71,45.05c14.92,15.04,29.84,30.07,44.77,45.1
	c14.62,14.73,29.23,29.46,43.85,44.18c14.44,14.55,28.88,29.1,43.32,43.65c14.39,14.5,28.78,28.99,43.16,43.49
	c14.14,14.25,28.29,28.5,42.43,42.75c13.55,13.65,27.1,27.3,40.65,40.96c11.86,11.95,23.73,23.89,35.58,35.85c0,0,0,0,0,0
	c0.01,0.01,0.02,0.02,0.04,0.04c5.75,5.8,5.54,15.56-0.28,21.22c-2.88,2.81-6.65,4.19-10.41,4.19
	C799.15,663.37,795.22,661.87,792.27,658.9z"/>
<path class="st0" d="M907.24,532.15c-13.14-13.23-26.28-26.45-39.42-39.68c-14.42-14.52-28.84-29.04-43.27-43.55
	c-14.79-14.88-29.57-29.77-44.36-44.65c-15-15.11-30.02-30.21-45.02-45.32c-14.93-15.04-29.87-30.07-44.8-45.1
	c-15.01-15.1-30.01-30.21-45.02-45.31c-15.24-15.34-30.48-30.68-45.73-46.03c-15.12-15.22-30.25-30.45-45.38-45.67
	c-14.62-14.72-29.24-29.43-43.86-44.15c-3.62-3.64-7.22-7.3-10.85-10.93c-5.78-5.78-5.58-15.55,0.21-21.22
	c5.91-5.79,15.4-5.52,21.22,0.21c12.39,12.22,24.54,24.71,36.81,37.06c15.07,15.17,30.14,30.34,45.21,45.51
	c15.25,15.36,30.51,30.71,45.77,46.07c14.91,15.01,29.82,30.02,44.73,45.03c15,15.1,30,30.2,45,45.3
	c15.09,15.2,30.19,30.39,45.29,45.58c14.84,14.94,29.68,29.88,44.53,44.82c14.54,14.63,29.07,29.27,43.61,43.89
	c13.94,14.03,27.88,28.06,41.81,42.09c4.98,5.01,9.96,10.02,14.93,15.04c5.76,5.8,5.6,15.53-0.21,21.22
	c-2.89,2.83-6.67,4.22-10.46,4.22C914.08,536.59,910.17,535.1,907.24,532.15z"/>
<path class="st0" d="M384.15,235.66c-4.25-6.91-2.1-16.43,4.91-20.64c0.24-0.14,0.48-0.29,0.72-0.43
	c13.1-7.87,26.2-15.7,39.31-23.55c17.53-10.5,35.05-21,52.58-31.51c14.54-8.71,29.11-17.38,43.62-26.14c7-4.23,16.32-2.1,20.64,4.91
	c4.26,6.91,2.09,16.41-4.9,20.64c-16.77,10.13-33.61,20.14-50.42,30.21c-17.35,10.4-34.71,20.8-52.06,31.2
	c-10.97,6.57-21.95,13.14-32.91,19.72c-0.01,0.01-0.03,0.02-0.04,0.02c-0.17,0.1-0.34,0.2-0.51,0.3c-0.1,0.06-0.2,0.12-0.29,0.18
	c-2.43,1.46-5.14,2.16-7.82,2.16C391.92,242.73,386.97,240.24,384.15,235.66z"/>
<path class="st0" d="M439.72,286.92c-4.32-6.85-2.28-16.42,4.7-20.69c14.36-8.79,28.71-17.56,43.07-26.34
	c17.1-10.46,34.2-20.92,51.3-31.38c12.12-7.41,24.27-14.8,36.38-22.25c6.96-4.29,16.3-2.27,20.69,4.7c4.32,6.86,2.27,16.4-4.7,20.69
	c-16.55,10.19-33.16,20.29-49.75,30.43c-17.24,10.55-34.48,21.09-51.73,31.64c-9.75,5.97-19.51,11.93-29.27,17.9
	c-2.47,1.51-5.23,2.24-7.96,2.24C447.45,293.85,442.56,291.43,439.72,286.92z"/>
<path class="st0" d="M494.64,341.49c-4.28-6.95-2.07-16.38,4.91-20.64c12.5-7.64,25.01-15.3,37.51-22.95
	c17.26-10.56,34.52-21.12,51.78-31.68c15.03-9.2,30.05-18.41,45.09-27.59c6.98-4.26,16.34-2.08,20.64,4.91
	c4.27,6.93,2.08,16.39-4.91,20.64c-16.63,10.12-33.22,20.32-49.83,30.48c-17.26,10.55-34.51,21.11-51.77,31.67
	c-10.93,6.68-21.86,13.37-32.79,20.06c-2.41,1.47-5.11,2.18-7.78,2.18C502.43,348.57,497.45,346.06,494.64,341.49z"/>
<path class="st0" d="M539.55,394.32c-4.26-6.92-2.09-16.41,4.91-20.64c14.82-8.97,29.63-17.94,44.45-26.91
	c17.55-10.63,35.11-21.26,52.67-31.89c6.95-4.21,13.9-8.42,20.86-12.63c3.48-2.11,6.97-4.22,10.45-6.33
	c2.54-1.54,5.15-2.99,7.64-4.62c6.84-4.49,16.44-1.91,20.64,4.9c2.08,3.37,2.74,7.48,1.82,11.34c-0.93,3.93-3.38,7.11-6.73,9.3
	c-3.38,2.22-6.95,4.2-10.41,6.3c-4.4,2.66-8.79,5.32-13.19,7.98c-8.88,5.38-17.76,10.75-26.64,16.13
	c-17.48,10.58-34.96,21.16-52.44,31.75c-11.13,6.74-22.26,13.48-33.39,20.22c-2.42,1.47-5.13,2.17-7.8,2.17
	C547.33,401.39,542.37,398.89,539.55,394.32z"/>
<path class="st0" d="M606.75,454.11c-3.88-0.79-7.34-3.11-9.53-6.41c-2.19-3.3-2.98-7.39-2.2-11.27c0.75-3.73,3.07-7.55,6.41-9.52
	c14.01-8.28,28.02-16.56,42.04-24.84c17.18-10.15,34.35-20.31,51.53-30.46c7.51-4.44,15.02-8.88,22.52-13.31
	c3.81-2.25,7.62-4.5,11.43-6.75c2.71-1.6,5.52-3.1,8.16-4.82c6.84-4.47,16.25-2.64,20.79,4.21c4.5,6.78,2.63,16.32-4.21,20.79
	c-3.21,2.1-6.64,3.92-9.93,5.87c-4.48,2.65-8.96,5.3-13.45,7.95c-8.67,5.12-17.34,10.25-26.01,15.37
	c-17.29,10.22-34.59,20.45-51.89,30.67c-11.47,6.77-22.93,13.55-34.4,20.33c-2.64,1.56-5.45,2.49-8.41,2.49
	C608.67,454.4,607.72,454.3,606.75,454.11z"/>
<path class="st0" d="M659.79,508.45c-3.88-0.8-7.32-3.14-9.5-6.44c-4.36-6.63-2.72-16.55,4.28-20.78c0.03-0.02,0.07-0.04,0.1-0.06
	c0.05-0.03,0.11-0.07,0.16-0.1c0.05-0.03,0.1-0.06,0.15-0.09c11.64-7.03,23.25-14.11,34.87-21.17
	c17.39-10.55,34.77-21.11,52.15-31.66c16.45-9.98,33-19.82,49.36-29.96c3.4-2.11,7.32-2.98,11.27-2.16c3.88,0.8,7.33,3.14,9.5,6.44
	c4.4,6.69,2.67,16.47-4.28,20.78c-16.62,10.3-33.44,20.3-50.16,30.45c-17.45,10.59-34.9,21.19-52.36,31.78
	c-11.39,6.92-22.77,13.86-34.18,20.75c-0.03,0.02-0.07,0.04-0.1,0.06c-2.65,1.53-5.43,2.46-8.38,2.46
	C661.74,508.75,660.78,508.66,659.79,508.45z"/>
<path class="st0" d="M723.26,579.4c-2.88-2.8-4.54-6.72-4.54-10.74c0-3.97,1.59-7.58,4.25-10.48c0.01-0.02,0.03-0.03,0.04-0.04
	c9.19-10.04,18.41-20.05,27.61-30.07c13.3-14.49,26.6-28.98,39.9-43.46c11.86-12.91,23.64-25.9,35.57-38.75
	c5.56-5.98,15.46-5.89,21.21-0.29c5.96,5.8,5.85,15.23,0.29,21.22c-13.16,14.16-26.16,28.49-39.24,42.74
	c-13.25,14.43-26.5,28.85-39.74,43.28c-8.05,8.77-16.11,17.52-24.14,26.3c-2.78,3.03-6.68,4.49-10.61,4.49
	C730,583.6,726.11,582.17,723.26,579.4z"/>
<path class="st0" d="M379.69,239.13c-4.17-0.48-7.43-2.65-10.15-5.73c-5.84-6.77-10.56-14.39-14.41-22.44
	c-6.16-12.89-9.34-27.41-9.4-41.68c-0.04-9.98,1.35-20.02,4.3-29.57c3.18-10.29,7.89-19.89,14.03-28.73
	c6.02-8.67,13.68-16.47,22.21-22.7c8.78-6.39,18.34-11.23,28.62-14.7c17.9-6.03,37.81-6.38,56.04-1.64
	c17.48,4.55,33.7,13.97,46.3,26.92c0.51,0.52,1.01,1.05,1.5,1.59c2.71,2.91,4.39,6.43,4.45,10.46c0.05,4-1.53,7.91-4.34,10.75
	c-5.56,5.63-15.66,6.1-21.21,0.11c-1.99-2.15-4.08-4.19-6.27-6.13c-2.39-2.01-4.88-3.88-7.47-5.62c-2.67-1.69-5.43-3.22-8.27-4.62
	c-2.84-1.29-5.74-2.44-8.7-3.43c-2.93-0.89-5.9-1.63-8.91-2.21c-2.95-0.49-5.92-0.83-8.91-1.01c-2.93-0.11-5.87-0.06-8.8,0.12
	c-2.98,0.27-5.94,0.69-8.88,1.26c-2.91,0.65-5.79,1.44-8.62,2.38c-2.81,1.02-5.56,2.17-8.26,3.47c-2.68,1.38-5.28,2.89-7.81,4.53
	c-2.59,1.79-5.08,3.71-7.46,5.76c-2.34,2.13-4.56,4.38-6.65,6.75c-1.97,2.35-3.81,4.8-5.52,7.35c-1.72,2.73-3.29,5.54-4.71,8.43
	c-1.26,2.77-2.38,5.59-3.34,8.47c-0.9,2.96-1.65,5.96-2.24,8.99c-0.49,2.93-0.82,5.88-1.01,8.84c-0.11,3-0.07,5.99,0.12,8.99
	c0.27,2.95,0.69,5.89,1.25,8.8c0.64,2.89,1.42,5.73,2.35,8.54c1.03,2.85,2.19,5.64,3.51,8.37c1.4,2.72,2.93,5.36,4.61,7.92
	c1.73,2.5,3.59,4.91,5.58,7.22c0.02,0.03,0.05,0.06,0.07,0.08c0,0.01,0.01,0.01,0.02,0.02c2.48,2.88,3.46,7.19,3.03,10.89
	c-0.46,3.99-2.56,7.7-5.73,10.15c-2.63,2.03-5.9,3.12-9.21,3.12C380.82,239.22,380.25,239.19,379.69,239.13z"/>
<path class="st0" d="M268.15,249.72c-3.04-2.41-5.38-6.29-5.61-10.22c-0.48-8.25,0.31-16.54,2.79-24.46
	c1.16-3.71,2.64-7.29,4.43-10.71c0.03-0.05,0.05-0.1,0.08-0.15c3.15-6.01,7.23-11.53,12.05-16.38
	c10.28-10.34,23.97-17.09,38.13-20.18c10.95-2.39,22.26-2.68,33.36-1.26c8.1,1.04,13.72,9.29,12.46,17.17
	c-0.61,3.84-2.73,7.36-5.85,9.68c-3.29,2.45-7.29,3.3-11.32,2.79c-0.57-0.07-1.13-0.14-1.7-0.2c-3.13-0.26-6.27-0.36-9.42-0.29
	c-2.81,0.15-5.6,0.43-8.37,0.86c-2.57,0.48-5.11,1.09-7.61,1.83c-2.16,0.72-4.28,1.54-6.35,2.47c-1.89,0.93-3.73,1.94-5.52,3.05
	c-1.52,1.03-2.99,2.12-4.41,3.27c-1.28,1.14-2.52,2.33-3.69,3.58c-1.04,1.2-2.02,2.45-2.96,3.73c-0.76,1.15-1.47,2.32-2.13,3.52
	c-0.05,0.09-0.1,0.18-0.15,0.27c-0.23,0.48-0.47,0.96-0.69,1.46c-0.39,0.87-0.77,1.75-1.11,2.64c-0.49,1.43-0.92,2.88-1.28,4.36
	c-0.31,1.54-0.56,3.09-0.74,4.64c-0.13,1.7-0.17,3.41-0.14,5.12c0,0.04,0,0.07,0.01,0.11c0.23,3.95-0.68,7.71-3.17,10.86
	c-2.49,3.14-6.23,5.19-10.22,5.61c-0.5,0.05-1,0.08-1.51,0.08C274.13,252.97,270.8,251.82,268.15,249.72z"/>
<path class="st0" d="M855.22,683.07c-16.54-0.45-32.66-4.75-47.16-12.75c-11.43-6.3-21.78-15.01-29.87-25.26
	c-5.06-6.41-3.93-16.02,2.5-21.07c6.42-5.05,16-3.93,21.07,2.49c0.77,0.98,1.58,1.93,2.4,2.86c2.13,2.31,4.37,4.51,6.73,6.59
	c2.46,2.05,5.02,3.97,7.68,5.74c2.7,1.69,5.48,3.24,8.34,4.64c2.88,1.31,5.83,2.47,8.83,3.47c3.06,0.93,6.17,1.68,9.32,2.28
	c3.14,0.5,6.3,0.84,9.47,1.01c3.09,0.08,6.19,0,9.28-0.24c3.08-0.32,6.13-0.8,9.16-1.44c2.97-0.71,5.9-1.57,8.79-2.57
	c2.79-1.06,5.53-2.25,8.21-3.58c2.67-1.42,5.26-2.96,7.78-4.64c2.49-1.76,4.88-3.64,7.18-5.64c2.33-2.14,4.55-4.41,6.64-6.78
	c2.01-2.42,3.9-4.94,5.65-7.55c1.69-2.69,3.24-5.46,4.64-8.31c1.32-2.89,2.49-5.85,3.5-8.87c0.93-3.07,1.69-6.19,2.29-9.34
	c0.51-3.16,0.85-6.33,1.02-9.52c0.08-3.12,0-6.23-0.24-9.33c-0.32-3.06-0.8-6.09-1.43-9.1c-0.7-2.95-1.55-5.87-2.55-8.74
	c-1.06-2.82-2.27-5.58-3.61-8.28c-1.42-2.68-2.98-5.29-4.67-7.81c-1.76-2.5-3.66-4.9-5.67-7.2c-2.14-2.33-4.41-4.54-6.79-6.63
	c-1.37-1.15-2.78-2.26-4.23-3.31c-0.01-0.01-0.03-0.02-0.04-0.03c0,0,0,0,0,0c0,0,0,0,0,0c0,0-0.01-0.01-0.01-0.01
	c-6.61-4.82-7.86-14.53-3.01-21.01c4.96-6.62,14.39-7.8,21.01-3c6,4.38,11.39,9.5,16.31,15.05c6.42,7.22,11.61,15.5,15.7,24.24
	c6.29,13.45,9.52,28.61,9.26,43.46c-0.31,17.72-5.03,35.32-14.15,50.56c-8.37,13.99-19.93,25.82-33.77,34.45
	c-15.73,9.81-34.39,15.21-52.95,15.21C856.93,683.11,856.07,683.1,855.22,683.07z"/>
<path class="st0" d="M639.85,630.56c-1.45-8.5,0.4-20.52-0.15-28.36c-1.6-19.09-1.6-38.23-1.99-57.37
	c-1.38-19.65-6.74-38.91-16.81-55.91c-2.57-4.73-3.11-6.13-5.47-9.77c-9.45-17.27,15.28-31.88,25.91-15.14
	c6.33,11.02,12.53,22.25,17.07,34.15c5.91,16.12,8.66,33.29,9.45,50.4c0.07,16.48,0.29,33.64,1.59,49.98
	c1.1,9.31-0.87,18.66,0.13,27.94C671.6,646.08,643.17,650.11,639.85,630.56z"/>
</svg>
