<?xml version="1.0" encoding="utf-8"?>
<!-- Generator: Adobe Adobe Illustrator 24.2.0, SVG Export Plug-In . SVG Version: 6.00 Build 0)  -->
<svg version="1.1" id="Capa_de_vector_1_" xmlns="http://www.w3.org/2000/svg" xmlns:xlink="http://www.w3.org/1999/xlink" x="0px"
	 y="0px" viewBox="0 0 300 300" style="enable-background:new 0 0 300 300;" xml:space="preserve">
<style type="text/css">
	.st0{fill:#C7CCAC;}
</style>
<path class="st0" d="M209.16,40.65c-3.24-7.12-6.47-14.25-9.71-21.38c-0.45-1-0.91-2-1.36-3c-1.02-2.23,0-4.95,2.23-5.96
	c2.23-1.02,4.94,0,5.96,2.23c3.52,7.76,7.04,15.51,10.56,23.27c0.17,0.37,0.34,0.74,0.51,1.12c1.02,2.23,0,4.95-2.23,5.96
	c-0.59,0.27-1.21,0.39-1.82,0.39C211.58,43.28,209.91,42.29,209.16,40.65z"/>
<path class="st0" d="M128,196.28c-1.76-1.78-1.66-4.59,0.03-6.36c0,0,0,0,0,0c0.02-0.02,0.03-0.03,0.05-0.05
	c0.01-0.01,0.02-0.02,0.02-0.03c1.9-2.01,3.76-4.04,5.37-5.85c5.9-6.67,11.49-13.6,16.87-20.69c4.61-6.08,9.06-12.3,13.25-18.43
	c0.06-0.09,0.12-0.18,0.18-0.26c0.05-0.07,0.1-0.14,0.1-0.15c6.82-10.05,13.28-20.34,19.34-30.86c3.54-6.15,6.92-12.38,9.87-18.18
	c3.52-6.94,6.82-13.99,9.75-21.2c1.01-2.49,1.97-5,2.81-7.34c0.04-0.1,0.07-0.21,0.11-0.31l0.01-0.04
	c1.41-4.04,2.66-8.14,3.48-11.93c0.03-0.13,0.05-0.27,0.08-0.4l0,0c0.37-1.87,0.67-3.75,0.83-5.66c0.05-0.89,0.07-1.78,0.03-2.68
	c-0.04-0.5-0.1-0.99-0.18-1.48c-0.06-0.26-0.13-0.52-0.2-0.78c-0.06-0.15-0.12-0.3-0.19-0.45c-0.04-0.07-0.08-0.15-0.13-0.22
	l-0.08-0.11c-1.53-1.81-1.6-4.49,0.15-6.22c1.68-1.67,4.71-1.79,6.36,0.02c2.9,3.19,3.46,7.66,3.24,11.82
	c-0.2,3.62-0.87,7.18-1.75,10.7c-1.86,7.51-4.64,14.8-7.66,21.91c-3.12,7.36-6.62,14.57-10.31,21.66
	c-5.14,9.89-10.7,19.56-16.58,29.03c-6.04,9.74-12.42,19.28-19.12,28.58c-5.54,7.7-11.32,15.23-17.4,22.51
	c-3.84,4.6-7.8,9.09-11.91,13.44c-0.06,0.06-0.13,0.13-0.19,0.19c-0.81,0.78-1.89,1.16-2.98,1.16
	C130.06,197.6,128.86,197.15,128,196.28z"/>
<path class="st0" d="M130.05,213.16c-4.09-5.19-6.84-12.29-4.27-18.74c0.75-3.79,6.37-4.57,8.21-1.22
	c2.04,4.21-2.16,5.53,1.15,11.39c0.55,1.04,1.22,2,1.92,2.93C140.63,212.23,133.84,217.69,130.05,213.16z"/>
<path class="st0" d="M202.95,250.89c-14.74-7.19-29.73-13.81-44.43-21.08c-8.96-4.76-19.15-8.05-26.68-15
	c-1.41-1.47-3.11-3.06-3.34-5.18c-0.27-2.44,1.69-4.67,4.09-4.88c2.96-0.36,4.27,2.41,6.06,4.15c6.07,4.99,13.62,7.56,20.49,11.19
	c12.28,6.19,24.87,11.71,37.23,17.74c3.57,1.43,6.96,3.26,10.43,4.91C212.07,245.37,208.36,253.26,202.95,250.89z"/>
<path class="st0" d="M204.17,288.24c-4.1-1.35-2.88-6.13-3.2-9.46c-0.33-10.4,0.54-20.59,0.58-30.95c-0.44-4.74,6.44-6.69,8.5-2.36
	c0.88,1.81,0.42,3.89,0.43,5.82c-0.01,3.83-0.12,7.67-0.39,11.49c-0.18,6.79-0.33,12.69-0.02,19.34
	C210.85,285.67,207.96,289.59,204.17,288.24z"/>
<path class="st0" d="M225.07,234.72c-5.39-3.84-11.74-6.25-18.2-7.57c-2.79-0.05-5.76-0.53-6.35-3.82
	c-0.56-6.57,6.75-5.66,11.03-4.36c6.66,1.72,13.15,4.44,18.77,8.44C235.04,231,229.93,238.07,225.07,234.72z"/>
<path class="st0" d="M219.81,75.78c0-2.45,2.05-4.5,4.5-4.5s4.5,2.05,4.5,4.5s-2.05,4.5-4.5,4.5S219.81,78.24,219.81,75.78z"/>
<path class="st0" d="M215.27,88.68c0-2.45,2.05-4.5,4.5-4.5s4.5,2.05,4.5,4.5s-2.05,4.5-4.5,4.5S215.27,91.14,215.27,88.68z"/>
<path class="st0" d="M87.76,154.02c0-2.45,2.05-4.5,4.5-4.5s4.5,2.05,4.5,4.5s-2.05,4.5-4.5,4.5S87.76,156.48,87.76,154.02z"/>
<path class="st0" d="M109.76,138.26c-2.4-2.18-3.68-5.57-3.61-8.79c0.13-5.79,4.72-10.87,10.52-11.45c0.22-0.02,0.44-0.03,0.66-0.02
	c2.62-0.12,5.18,0.58,7.43,2.13c2.23,1.54,3.84,3.91,4.57,6.5c0.68,2.43,0.49,4.98-0.36,7.34c-0.73,2.02-2.13,3.83-3.82,5.14
	c-2,1.54-4.38,2.31-6.88,2.44c-0.18,0.01-0.35,0.01-0.53,0.01C114.76,141.56,111.93,140.23,109.76,138.26z M118.14,132.55
	c0.13-0.02,0.26-0.03,0.39-0.06c0.12-0.03,0.24-0.07,0.36-0.1c0.11-0.05,0.23-0.1,0.34-0.15c0.09-0.05,0.18-0.1,0.26-0.15
	c0.11-0.08,0.21-0.16,0.32-0.25c0.09-0.08,0.17-0.17,0.26-0.26c0.07-0.09,0.13-0.17,0.2-0.26c0.06-0.1,0.12-0.21,0.18-0.31
	c0.05-0.11,0.1-0.22,0.14-0.34c0.04-0.12,0.07-0.25,0.1-0.37c0.02-0.12,0.03-0.23,0.05-0.35c0-0.14,0-0.27,0-0.41
	c-0.02-0.13-0.03-0.26-0.06-0.39c-0.03-0.12-0.06-0.23-0.1-0.35c-0.04-0.11-0.09-0.21-0.13-0.31c-0.06-0.11-0.13-0.22-0.2-0.33
	c-0.06-0.09-0.13-0.17-0.2-0.26c-0.08-0.08-0.16-0.17-0.25-0.25c-0.1-0.08-0.2-0.16-0.31-0.23c-0.1-0.06-0.2-0.12-0.31-0.18
	c-0.12-0.05-0.24-0.1-0.36-0.15c-0.12-0.03-0.23-0.07-0.35-0.1c-0.11-0.02-0.22-0.03-0.34-0.04c-0.14,0-0.27,0-0.41,0
	c-0.09,0.01-0.18,0.03-0.27,0.04c-0.15,0.04-0.31,0.08-0.46,0.13c-0.11,0.04-0.21,0.09-0.31,0.14c-0.11,0.06-0.21,0.12-0.31,0.18
	c-0.09,0.07-0.18,0.14-0.27,0.21c-0.09,0.09-0.18,0.18-0.27,0.28c-0.07,0.09-0.15,0.19-0.22,0.28c-0.06,0.09-0.11,0.19-0.17,0.29
	c-0.05,0.12-0.11,0.25-0.16,0.38c-0.03,0.11-0.06,0.23-0.09,0.34c-0.02,0.11-0.03,0.22-0.05,0.33c0,0.14,0,0.28,0,0.42
	c0.01,0.12,0.03,0.23,0.05,0.34c0.03,0.12,0.06,0.24,0.1,0.36c0.04,0.11,0.09,0.21,0.13,0.32c0.07,0.13,0.14,0.25,0.22,0.37
	c0.06,0.08,0.13,0.17,0.2,0.25c0.08,0.09,0.17,0.17,0.25,0.25c0.09,0.07,0.18,0.14,0.28,0.21c0.11,0.07,0.23,0.13,0.34,0.2
	c0.1,0.04,0.2,0.09,0.3,0.13c0.12,0.04,0.25,0.07,0.38,0.1c0.13,0.02,0.27,0.04,0.4,0.05C117.91,132.55,118.02,132.55,118.14,132.55
	z"/>
<path class="st0" d="M73.56,142.45c-6.34-2.45-10.14-9.79-8.18-16.37c0.95-3.2,2.84-5.91,5.62-7.78c1.63-1.1,3.55-1.85,5.52-2.15
	c2.75-0.43,5.57,0.09,8.09,1.25c3.76,1.73,6.43,5.38,7.35,9.35c0.98,4.25-0.27,8.77-3.11,12.04c-2.61,3-6.43,4.59-10.3,4.59
	C76.85,143.37,75.16,143.07,73.56,142.45z M78.49,134.4c0.21,0,0.42-0.01,0.63-0.03c0.21-0.03,0.41-0.07,0.61-0.11
	c0.2-0.06,0.4-0.12,0.6-0.19c0.19-0.08,0.37-0.17,0.56-0.26c0.16-0.1,0.32-0.2,0.48-0.31c0.16-0.13,0.31-0.25,0.46-0.39
	c0.14-0.15,0.28-0.3,0.42-0.45c0.12-0.16,0.24-0.33,0.35-0.5c0.1-0.17,0.19-0.35,0.28-0.52c0.08-0.19,0.15-0.37,0.21-0.56
	c0.06-0.22,0.11-0.43,0.15-0.65c0.02-0.2,0.04-0.41,0.05-0.61c0-0.21-0.01-0.41-0.02-0.62c-0.03-0.21-0.07-0.42-0.11-0.62
	c-0.06-0.2-0.12-0.4-0.19-0.59c-0.09-0.2-0.18-0.39-0.28-0.58c-0.1-0.17-0.21-0.33-0.31-0.49c-0.12-0.16-0.25-0.31-0.38-0.45
	c-0.15-0.14-0.3-0.29-0.46-0.42c-0.15-0.11-0.3-0.22-0.46-0.33c-0.18-0.11-0.37-0.2-0.56-0.3c-0.19-0.08-0.38-0.15-0.57-0.21
	c-0.2-0.05-0.4-0.1-0.61-0.14c-0.21-0.03-0.43-0.05-0.65-0.06c-0.14,0-0.28,0.01-0.43,0.01c-0.04,0-0.09,0.01-0.13,0.01
	c-0.23,0.03-0.45,0.07-0.68,0.12c-0.2,0.06-0.4,0.13-0.6,0.2c-0.18,0.08-0.36,0.17-0.54,0.26c-0.18,0.11-0.36,0.22-0.53,0.34
	c-0.15,0.12-0.3,0.25-0.45,0.38c-0.13,0.14-0.26,0.28-0.39,0.43c-0.12,0.16-0.24,0.33-0.35,0.5c-0.1,0.18-0.2,0.37-0.29,0.56
	c-0.07,0.18-0.13,0.36-0.2,0.54c-0.05,0.19-0.1,0.39-0.14,0.58c-0.03,0.22-0.05,0.43-0.06,0.65c0,0.22,0.01,0.44,0.03,0.67
	c0.03,0.2,0.07,0.4,0.11,0.6c0.06,0.2,0.13,0.4,0.2,0.6c0.08,0.19,0.17,0.37,0.27,0.56c0.11,0.18,0.22,0.35,0.34,0.53
	c0.11,0.14,0.23,0.27,0.34,0.41c0.16,0.15,0.32,0.3,0.48,0.44c0.16,0.12,0.32,0.23,0.49,0.34c0.17,0.1,0.35,0.19,0.52,0.28
	c0.19,0.07,0.37,0.14,0.56,0.21c0.19,0.05,0.38,0.09,0.58,0.13C78.03,134.37,78.26,134.39,78.49,134.4z"/>
<path class="st0" d="M178.54,127.65c-1.25-0.08-2.26-0.67-3.11-1.55c-0.24-0.25-0.48-0.49-0.72-0.74c-0.01-0.01-0.01-0.01-0.02-0.02
	c-3.89-3.99-7.78-7.98-11.66-11.98c-1.71-1.76-1.3-4.82,0.47-6.35c0.89-0.77,2.06-1.16,3.23-1.08c1.25,0.08,2.26,0.68,3.11,1.55
	c0.1,0.1,0.2,0.21,0.3,0.31c0.07,0.08,0.15,0.15,0.22,0.23c0.01,0.01,0.03,0.03,0.04,0.04c0,0,0,0,0,0
	c3.71,3.82,7.43,7.64,11.15,11.45c0.01,0.01,0.02,0.02,0.03,0.03c0.22,0.22,0.44,0.45,0.65,0.67c1.71,1.76,1.3,4.82-0.47,6.35
	c-0.82,0.7-1.87,1.09-2.94,1.09C178.73,127.66,178.63,127.66,178.54,127.65z"/>
<path class="st0" d="M155.46,117.65c-0.03-0.03-0.06-0.06-0.09-0.09c0,0,0,0,0,0c0,0,0,0,0,0c-3.37-3.23-6.72-6.46-10.09-9.68
	c-1.77-1.7-1.97-4.52-0.29-6.36c1.62-1.78,4.59-1.98,6.36-0.29c3.4,3.25,6.79,6.52,10.19,9.78c1.77,1.7,1.97,4.52,0.29,6.36
	c-0.87,0.95-2.12,1.45-3.36,1.45C157.38,118.82,156.29,118.44,155.46,117.65z"/>
<path class="st0" d="M165.51,104.56c-3.35-3.39-6.69-6.79-10.04-10.19c-0.85-0.86-1.4-1.89-1.45-3.12
	c-0.05-1.18,0.38-2.36,1.18-3.23c1.6-1.74,4.64-2.02,6.36-0.27c0.05,0.05,0.09,0.09,0.14,0.14c0.03,0.03,0.06,0.06,0.08,0.09
	c3.27,3.32,6.54,6.64,9.81,9.96c1.72,1.75,2,4.48,0.27,6.36c-0.86,0.94-2.14,1.45-3.41,1.45
	C167.37,105.74,166.3,105.36,165.51,104.56z"/>
<path class="st0" d="M157.86,90.29c-4.23-4.23-8.45-8.46-12.68-12.69c-8.74-8.74-17.47-17.48-26.21-26.23
	c-1.19-1.19-2.38-2.38-3.13-3.14c-0.86-0.86-1.44-1.86-1.52-3.09c-0.07-1.18,0.33-2.37,1.12-3.26c1.54-1.75,4.61-2.14,6.35-0.4h0
	c8.56,8.59,17.14,17.16,25.71,25.73c4.88,4.88,9.75,9.76,14.63,14.64c0.56,0.55,1.12,1.11,1.67,1.67c0.86,0.86,1.44,1.86,1.52,3.09
	c0.07,1.18-0.33,2.37-1.12,3.26c-0.86,0.97-2.19,1.53-3.5,1.53C159.67,91.41,158.63,91.06,157.86,90.29z"/>
<path class="st0" d="M142.56,110.64c-1.25-0.09-2.25-0.68-3.11-1.56c-0.02-0.02-0.04-0.04-0.06-0.06
	c-7.51-7.68-14.99-15.37-22.49-23.06c-7.07-7.25-14.13-14.5-21.2-21.74c-1.71-1.76-1.28-4.83,0.48-6.35
	c0.89-0.77,2.07-1.15,3.24-1.07c1.25,0.09,2.25,0.68,3.11,1.56c10.16,10.41,20.31,20.82,30.46,31.23
	c4.37,4.48,8.74,8.97,13.11,13.45c0.01,0.01,0.02,0.02,0.03,0.03c0,0,0.01,0.01,0.01,0.01c0.05,0.05,0.1,0.1,0.14,0.15
	c1.71,1.76,1.29,4.83-0.48,6.35c-0.82,0.7-1.87,1.08-2.94,1.08C142.76,110.65,142.66,110.65,142.56,110.64z"/>
<path class="st0" d="M141.2,109.43c-1.77-1.53-2.18-4.59-0.46-6.35l0,0c0.12-0.12,0.25-0.25,0.37-0.38
	c5.4-5.51,10.82-11.01,16.23-16.52c0.01-0.01,0.02-0.02,0.03-0.03c0.02-0.02,0.04-0.04,0.06-0.06h0c0.84-0.86,1.82-1.45,3.04-1.54
	c1.2-0.1,2.4,0.29,3.31,1.08c1.77,1.53,2.18,4.59,0.46,6.35c-5.69,5.8-11.36,11.63-17.09,17.4c0.13-0.14,0.27-0.27,0.4-0.4
	c-0.01-0.01-0.01-0.01-0.02-0.02c-0.12,0.14-0.25,0.28-0.38,0.42c0,0,0,0,0,0c0,0,0,0,0,0c-0.77,0.78-1.84,1.14-2.91,1.14
	C143.13,110.52,142.02,110.13,141.2,109.43z"/>
<path class="st0" d="M86.69,71.93c-1.71-1.71-1.76-4.66,0.01-6.36c8.37-8.05,16.7-16.14,25.04-24.21c2.95-2.85,5.9-5.7,8.84-8.55
	c1.76-1.7,4.61-1.74,6.36,0.01c1.71,1.72,1.75,4.66-0.01,6.36c-7,6.77-14,13.54-21.01,20.31c-4.29,4.15-8.57,8.32-12.88,12.46
	c-0.89,0.85-2.05,1.29-3.21,1.29C88.71,73.23,87.57,72.8,86.69,71.93z"/>
<path class="st0" d="M109.96,77.35c-1.7-1.7-1.78-4.68,0.01-6.36c5.02-4.73,10.02-9.48,15.04-14.23c1.78-1.68,4.6-1.76,6.37,0.01
	c1.7,1.7,1.77,4.68-0.01,6.36c-5.02,4.74-10.02,9.5-15.04,14.23c-0.9,0.85-2.07,1.29-3.22,1.29
	C111.96,78.65,110.83,78.23,109.96,77.35z"/>
<path class="st0" d="M68.65,44.77c-1.71-1.71-1.76-4.66,0.01-6.36c7.42-7.14,14.81-14.31,22.21-21.47c0.51-0.49,1.02-0.98,1.53-1.48
	c1.76-1.7,4.61-1.75,6.36,0.01c1.71,1.71,1.75,4.66-0.01,6.36c-4.59,4.44-9.18,8.88-13.78,13.32c-3.32,3.21-6.64,6.43-9.96,9.63
	c-0.89,0.86-2.05,1.3-3.21,1.3C70.66,46.07,69.52,45.65,68.65,44.77z"/>
<path class="st0" d="M80.36,56.31c-1.71-1.77-1.65-4.64,0.1-6.36c6.93-6.82,13.88-13.62,20.82-20.43c0.96-0.95,1.92-1.89,2.88-2.83
	c1.75-1.72,4.66-1.66,6.36,0.09c1.71,1.77,1.65,4.65-0.1,6.36C103.72,39.74,97,46.33,90.28,52.92c-1.18,1.16-2.37,2.32-3.55,3.49
	c-0.85,0.84-1.99,1.25-3.12,1.25C82.42,57.66,81.23,57.21,80.36,56.31z"/>
<path class="st0" d="M80.3,56.91c-2.05-2.01-4.11-4.02-6.17-6.03c-1.91-1.88-3.82-3.75-5.74-5.62c-1.75-1.71-1.94-4.52-0.24-6.36
	c1.63-1.76,4.61-1.95,6.36-0.24c3.68,3.59,7.34,7.19,11.02,10.79c0.29,0.29,0.59,0.58,0.89,0.87c1.75,1.71,1.94,4.52,0.24,6.36
	c-0.87,0.94-2.11,1.43-3.35,1.43C82.21,58.1,81.12,57.72,80.3,56.91z"/>
<path class="st0" d="M106.87,33.74c-1.24-0.11-2.26-0.74-3.08-1.65c-2.85-3.16-5.7-6.32-8.54-9.49c-0.62-0.69-1.25-1.38-1.87-2.07
	c-1.63-1.83-1.17-4.84,0.67-6.33c0.91-0.73,2.09-1.09,3.25-0.98c1.24,0.11,2.27,0.73,3.09,1.65c3.39,3.79,6.8,7.56,10.2,11.34
	c0.07,0.07,0.14,0.15,0.2,0.23c1.64,1.82,1.16,4.85-0.67,6.33c-0.8,0.65-1.82,1-2.84,1C107.14,33.75,107.01,33.75,106.87,33.74z"/>
<path class="st0" d="M97.49,59.89c-1.91-2.13-3.91-4.18-5.98-6.16c-1.72-1.53-3.79-3.24-3.48-5.8c0.2-4.08,6.07-5.57,8.17-2.13
	c2.51,2.34,4.98,4.74,7.25,7.33c1.27,1.08,2.19,2.6,2.02,4.32C105.27,61.32,99.79,63.05,97.49,59.89z"/>
<path class="st0" d="M109.18,48.92c-2.93-2.99-5.85-5.98-8.78-8.96c-1.71-1.75-1.9-4.53-0.16-6.36c1.64-1.73,4.64-1.91,6.36-0.16
	c0.05,0.05,0.09,0.09,0.14,0.14c0.03,0.03,0.06,0.07,0.09,0.1c2.85,2.91,5.69,5.81,8.54,8.72c1.72,1.75,1.9,4.54,0.16,6.36
	c-0.86,0.91-2.1,1.39-3.33,1.39C111.11,50.15,110,49.75,109.18,48.92z"/>
<path class="st0" d="M156.31,118.19c-1.75-1.8-1.61-4.6,0.09-6.36c2.41-2.48,4.81-4.96,7.22-7.45c1.4-1.45,2.8-2.89,4.2-4.33
	c1.7-1.76,4.7-1.62,6.36,0.09c1.75,1.8,1.61,4.6-0.1,6.36c-3.48,3.59-6.96,7.18-10.43,10.77c-0.33,0.34-0.65,0.67-0.98,1.01
	c-0.83,0.85-1.95,1.26-3.08,1.26C158.39,119.55,157.17,119.08,156.31,118.19z"/>
</svg>
