<?xml version="1.0" encoding="utf-8"?>
<!-- Generator: Adobe Adobe Illustrator 24.2.0, SVG Export Plug-In . SVG Version: 6.00 Build 0)  -->
<svg version="1.1" id="Capa_de_vector_1_" xmlns="http://www.w3.org/2000/svg" xmlns:xlink="http://www.w3.org/1999/xlink" x="0px"
	 y="0px" viewBox="0 0 300 300" style="enable-background:new 0 0 300 300;" xml:space="preserve">
<style type="text/css">
	.st0{fill:#A46460;}
	.st1{fill:#FFFFFF;}
</style>
<circle class="st0" cx="150" cy="150.01" r="148"/>
<path class="st1" d="M228.77,202.91c0.27,1.55-0.06,3.11-0.72,4.52c-1.02,2.19-2.66,4.04-4.49,5.63c-0.81,0.9-1.7,1.68-2.64,2.4
	c-1.05,1-2.14,1.95-3.28,2.84c-3.85,3-8.2,5.31-12.81,6.88c-4.96,1.69-10.2,2.46-15.44,2.46c-0.85,0-1.7-0.02-2.54-0.06
	c-6.04-0.28-11.99-1.59-17.7-3.57c-5.9-2.05-11.52-4.91-16.77-8.28c-1.05-0.68-2.09-1.37-3.11-2.09c-0.13-0.09-0.25-0.2-0.34-0.33
	c-1.3-0.75-2.58-1.52-3.85-2.31c-4.1-2.54-8.06-5.3-11.9-8.21c-5.11-3.87-10-8.03-14.68-12.41c-4.88-4.58-9.51-9.43-13.88-14.49
	c-4.12-4.77-7.98-9.75-11.58-14.93c-3.85-5.54-7.36-11.31-10.43-17.3c-2.79-5.44-5.2-11.07-7.04-16.9
	c-1.54-4.87-2.66-9.89-3.1-14.99c-0.43-5.07-0.16-10.31,1.41-15.17c0.05-0.54,0.3-1.09,0.57-1.6c0.08-0.21,0.17-0.43,0.26-0.64
	c0-0.01,0-0.02,0.01-0.02c0.09-0.2,0.2-0.39,0.35-0.54c0.8-1.53,1.68-3.02,2.64-4.46c3.95-5.66,8.93-10.67,14.5-14.73
	c1.18-0.71,2.36-1.45,3.62-2.02c0.3-0.12,0.58-0.16,0.84-0.13c1.15-0.15,2.43,0,3.29,0.81l0,0c0.09,0.05,0.18,0.12,0.25,0.2
	c0.02,0.02,0.03,0.03,0.04,0.04c0.09,0.07,0.16,0.14,0.23,0.22c3.29,3.21,6.56,6.43,9.85,9.64c4.64,4.55,9.29,9.09,13.94,13.64
	c1.66,1.63,3.33,3.26,5,4.89c0.05,0.05,0.1,0.11,0.14,0.17c0.15,0.11,0.29,0.24,0.41,0.4c0.32,0.42,0.56,0.91,0.75,1.41
	c0.34,0.94,0.46,1.94,0.37,2.93c-0.06,0.47-0.16,0.93-0.35,1.36c-0.05,0.39-0.24,0.77-0.54,1.07c-4.27,4.34-8.52,8.68-12.78,13.02
	c-2.25,2.29-4.5,4.58-6.74,6.88c-0.23,0.46-0.43,0.92-0.62,1.39c-0.26,0.69-0.48,1.4-0.64,2.02c-0.01,0.05-0.02,0.09-0.03,0.14
	l0,0.01c-0.16,0.72-0.29,1.45-0.36,2.19c-0.07,0.8-0.1,1.59-0.08,2.16c0.04,0.89,0.12,1.77,0.23,2.43c0.02,0.12,0.04,0.23,0.07,0.35
	c0.73,0.91,0.96,2.3,1.54,3.22c0.52,0.94,1.09,1.84,1.66,2.75c4.8,7.38,10.8,13.91,16.77,20.35c4.87,5.09,10.36,9.52,15.66,14.12
	c3.78,3.23,7.29,6.43,11.52,8.95c1.13,0.62,2.25,1.27,3.36,1.88c0.41,0.13,0.82,0.24,1.24,0.33c0.56,0.11,1.13,0.18,1.7,0.21
	c0.71,0.04,1.41,0.04,2.12-0.01c0.86-0.06,1.71-0.18,2.56-0.36c0.8-0.17,1.59-0.39,2.37-0.66c0.73-0.26,1.45-0.55,1.99-0.82
	c1.86-1.77,3.72-3.55,5.58-5.32c2.97-2.84,5.94-5.67,8.91-8.5c1.38-1.32,2.76-2.64,4.14-3.96c0.2-0.2,0.45-0.32,0.7-0.39
	c1.04-0.58,2.28-0.86,3.43-0.87c1.4-0.02,2.78,0.27,4.01,0.93c0.18,0.11,0.35,0.23,0.49,0.38c0.11,0.07,0.22,0.16,0.32,0.25
	c4.04,3.97,8.05,7.97,12.08,11.95c4.5,4.46,9,8.91,13.51,13.37c0.8,0.79,1.6,1.59,2.4,2.38c0.06,0.06,0.11,0.12,0.17,0.17
	c0.07,0.07,0.15,0.14,0.22,0.22c0.11,0.11,0.2,0.23,0.27,0.36C228.3,201.42,228.63,202.13,228.77,202.91z"/>
</svg>
