<?xml version="1.0" encoding="utf-8"?>
<!-- Generator: Adobe Adobe Illustrator 24.2.0, SVG Export Plug-In . SVG Version: 6.00 Build 0)  -->
<svg version="1.1" id="Capa_de_vector_1_" xmlns="http://www.w3.org/2000/svg" xmlns:xlink="http://www.w3.org/1999/xlink" x="0px"
	 y="0px" viewBox="0 0 1000 1000" style="enable-background:new 0 0 1000 1000;" xml:space="preserve">
<style type="text/css">
	.st0{fill:#A46460;}
</style>
<path class="st0" d="M354.78,461.31c-3.35-1.96-5.86-5.22-6.89-8.96c-1.02-3.69-0.67-8.3,1.51-11.56
	c11.56-17.22,27.68-31.1,44.59-42.89c17.35-12.1,35.86-22.39,55.01-31.36c18.47-8.64,37.53-15.95,56.94-22.16
	c19.38-6.21,39.22-11.12,59.28-14.54c18.43-3.13,37.18-5.02,55.88-4.62c0.26,0.01,0.53,0.04,0.79,0.02
	c3.86-0.22,7.93,1.71,10.61,4.39c2.8,2.8,4.39,6.65,4.39,10.61s-1.59,7.81-4.39,10.61c-0.75,0.75-1.55,1.39-2.39,1.93
	c-1.77,0.06-3.53,0.18-5.29,0.33c-3.05,0.11-6.07,0.41-9.11,0.83c-0.36,0.05-0.72,0.1-1.08,0.15c-2.26,0.2-4.52,0.41-6.78,0.65
	c-2.02,0.22-4.02,0.51-6.02,0.84c-0.1,0.02-0.2,0.03-0.3,0.05c-0.19,0.01-0.37,0.02-0.56,0.03c-14.42,1.04-28.73,3.15-42.89,6
	c-18.51,3.86-36.73,8.96-54.62,15.11c-17.71,6.21-35.04,13.45-51.86,21.79c-12.65,6.41-24.96,13.45-36.75,21.32
	c-7.5,5.14-14.74,10.6-21.6,16.55c-4.11,3.7-8.04,7.56-11.75,11.66c-2.56,2.97-5,6.04-6.22,7.83c-2.21,3.3-5.05,5.82-8.96,6.89
	c-1.29,0.36-2.63,0.53-3.96,0.53C359.73,463.36,357.08,462.66,354.78,461.31z"/>
<path class="st0" d="M555.72,572.04c-10.25-2.4-20.27-5.75-30.15-9.36c-19.18-7-37.87-15.34-56.15-24.43
	c-2.19-1.09-4.38-2.19-6.55-3.3c-0.79-0.4-1.58-0.78-2.35-1.2c-1.03-0.5-2.04-1.05-3.06-1.58c-1.08-0.56-2.16-1.12-3.24-1.68
	c-9.05-4.74-17.99-9.66-26.84-14.77c-17.71-10.24-35.02-21.27-51.51-33.39c-6.78-4.99-13.35-10.24-19.67-15.8
	c-2.93-2.66-4.98-5.8-5.47-9.83c-0.48-3.93,0.64-7.95,3.07-11.06s6.07-5.17,9.99-5.65c3.74-0.46,8.18,0.51,11.06,3.07
	c0.09,0.08,0.19,0.17,0.28,0.25c9.53,8.46,19.81,16.05,30.3,23.28c15.94,10.84,32.44,20.84,49.31,30.15
	c6.36,3.52,12.78,6.94,19.25,10.27c0.39,0.2,0.79,0.39,1.18,0.59c1.75,0.78,3.45,1.76,5.13,2.6c2.23,1.11,4.45,2.21,6.69,3.29
	c9.2,4.45,18.5,8.71,27.91,12.71c7.82,3.33,15.73,6.45,23.73,9.34c8.87,3.12,17.84,5.93,27,8.02c3.36,0.68,6.73,1.25,10.13,1.58
	c1.2,0.06,2.39,0.09,3.58,0.07c0.51-0.05,1.02-0.1,1.53-0.18c0.03-0.01,0.07-0.02,0.1-0.03c7.93-1.98,16.23,2.7,18.33,10.68
	c2.06,7.83-2.75,16.35-10.68,18.33c-3.51,0.88-7.09,1.24-10.69,1.24C570.47,575.27,562.9,573.72,555.72,572.04z"/>
<path class="st0" d="M546.94,466.02c-0.02,0-0.05,0-0.07,0c-0.04,0-0.09,0-0.13,0c-18.57-0.23-37.14-0.49-55.7-0.73
	c-20.57-0.27-41.13-0.54-61.7-0.81c-10.38-0.14-20.77-0.27-31.16-0.41c-9.3-0.12-18.61-0.37-27.91-0.37c0,0,0,0,0,0
	c-8.18,0-14.79-7.44-14.55-15.43c0.12-3.96,1.82-7.76,4.7-10.47c2.94-2.77,6.73-4.08,10.73-4.08c9.27,0,18.54,0.24,27.8,0.36
	c10.27,0.13,20.54,0.27,30.8,0.4c20.57,0.27,41.15,0.54,61.72,0.81c18.77,0.25,37.55,0.49,56.32,0.73c0,0,0.01,0,0.02,0
	c8.18,0.11,14.79,7.37,14.55,15.44c-0.24,8.21-7.15,14.55-15.24,14.55C547.07,466.03,547.01,466.03,546.94,466.02z"/>
<path class="st0" d="M544.78,465.41c-3.88-0.53-7.45-2.6-9.84-5.7c-2.34-3.04-3.73-7.36-2.99-11.2c0.88-4.59,2.41-8.85,4.99-12.79
	c3.52-5.38,7.98-9.89,13.01-13.88c8.55-6.78,18.59-11.79,28.67-15.82c19.25-7.7,39.97-12.27,60.62-13.87
	c14-1.09,28.3-1.1,42.14,1.51c3.92,0.74,7.36,2.49,9.84,5.7c2.44,3.16,3.52,7.24,2.99,11.2c-0.53,3.88-2.61,7.45-5.7,9.84
	c-3.04,2.35-7.35,3.71-11.2,2.99c-4.19-0.79-8.43-1.3-12.68-1.63c-6.84-0.4-13.68-0.35-20.52,0.07c-8.5,0.63-16.93,1.81-25.29,3.46
	c-7.68,1.63-15.24,3.67-22.67,6.18c-5.37,1.92-10.63,4.1-15.76,6.6c-3.11,1.62-6.15,3.38-9.09,5.3c-1.63,1.15-3.21,2.36-4.74,3.64
	c-0.89,0.82-1.75,1.67-2.58,2.55c-0.54,0.65-1.06,1.32-1.56,2c-0.2,0.33-0.4,0.67-0.59,1c-0.07,0.16-0.14,0.31-0.2,0.47
	c-0.04,0.14-0.08,0.28-0.11,0.42c-0.04,0.19-0.08,0.37-0.13,0.56l-0.01,0.02c-0.84,3.32-2.62,6.26-5.4,8.4
	c-2.63,2.03-5.89,3.12-9.19,3.12C546.11,465.55,545.44,465.5,544.78,465.41z"/>
<path class="st0" d="M655.82,507.44c-10.85-0.49-21.55-2.73-32.02-5.54c-4.42-1.19-8.81-2.53-13.15-3.98
	c-0.41-0.14-0.82-0.27-1.23-0.41c-0.61-0.16-1.22-0.37-1.81-0.61c-0.03-0.01-0.06-0.02-0.09-0.03c-0.15-0.05-0.29-0.1-0.44-0.15
	c-0.52-0.18-1.04-0.36-1.55-0.54c-1.12-0.39-2.23-0.79-3.35-1.19c-2.27-0.82-4.52-1.66-6.77-2.54c-4.7-1.84-9.35-3.79-13.94-5.86
	c-12.26-5.55-24.14-11.86-35.3-19.39c-3.16-2.16-5.23-6.07-5.77-9.8c-0.57-3.95,0.48-8.04,2.9-11.22c2.37-3.11,5.93-5.21,9.8-5.77
	c3.92-0.56,7.47,0.51,10.45,2.39c0.12,0.08,0.23,0.15,0.35,0.23c0.14,0.09,0.28,0.18,0.41,0.27c0.01,0.01,0.02,0.01,0.03,0.02
	c0.01,0.01,0.02,0.01,0.03,0.02c0.02,0.01,0.04,0.03,0.06,0.04c6.81,4.45,13.93,8.41,21.21,12.04c10.44,5.08,21.18,9.51,32.15,13.3
	c0.16,0.05,0.32,0.11,0.47,0.16c1.58,0.53,3.16,1.04,4.74,1.53c6.75,2.12,13.6,3.92,20.53,5.35c4.11,0.76,8.24,1.39,12.41,1.7
	c1.76,0.07,3.51,0.08,5.26,0c0.6-0.06,1.19-0.14,1.78-0.24c0.04-0.01,0.07-0.02,0.11-0.03c0.21-0.15,0.44-0.29,0.68-0.44
	c6.39-3.83,14.89-2.21,19.47,3.63c4.46,5.68,4.32,14.71-1.11,19.79c-0.51,0.47-1.02,0.96-1.57,1.39c-0.64,0.5-1.3,0.94-1.99,1.32
	c-5.86,3.55-12.71,4.63-19.54,4.63C657.94,507.51,656.88,507.49,655.82,507.44z"/>
<path class="st0" d="M677.75,498.19c-3.95-0.25-7.69-2.09-10.3-5.06c-1.28-1.45-2.27-3.14-2.91-4.96c-0.69-1.97-0.8-3.84-0.8-5.9
	c-0.01-1.82-0.01-3.64-0.01-4.33c-0.07-18.89-0.12-37.78-0.18-56.67c-0.01-3.99-0.02-7.98-0.04-11.97c0,0.26,0,0.53,0,0.79
	c0.01,0,0.02,0,0.03,0c-0.02-0.41-0.03-0.83-0.04-1.25c0-0.26,0-0.53,0-0.79c-0.01-3.2,1.62-6.59,3.7-8.95
	c2.58-2.94,6.28-4.78,10.18-5.06c3.99-0.29,7.99,1.05,10.99,3.69c2.83,2.49,4.97,6.35,5.06,10.18c0.02,0.71,0.01,1.44,0.01,2.16
	c0.05,19,0.12,38.01,0.18,57.01c0.01,3.2,0.02,6.4,0.02,8.6c0.01,2.75,0.02,5.49,0.03,8.24c0,0.06,0,0.13,0,0.19
	c0,0.02,0,0.04,0,0.06c0.02,3.85-2.23,7.82-5.06,10.3c-2.73,2.41-6.3,3.74-9.93,3.74C678.37,498.21,678.06,498.2,677.75,498.19z"/>
<path class="st0" d="M674.29,410.2c-5.9-5.29-6.87-15.32-1.17-21.18c12.58-12.95,25.2-25.86,37.8-38.79
	c3.38-3.47,6.77-6.95,10.15-10.42c2.81-2.88,6.27-4.75,10.35-4.97c3.95-0.22,7.88,1.16,10.83,3.8c5.89,5.28,6.88,15.32,1.17,21.18
	c-13.52,13.87-27.03,27.74-40.55,41.61c-2.47,2.53-4.94,5.06-7.4,7.6c-2.8,2.88-6.28,4.75-10.35,4.97
	c-0.27,0.02-0.54,0.02-0.82,0.02C680.64,414.02,677.04,412.65,674.29,410.2z"/>
<path class="st0" d="M722.91,499.46c-0.04-8.21,6.75-14.98,14.92-15.08c0.18,0,0.36,0,0.53-0.01c20.45-0.23,40.9-0.46,61.35-0.69
	c21.22-0.24,42.44-0.48,63.66-0.71c13.9-0.16,27.81-0.32,41.72-0.47c0.03,0,0.06,0,0.09,0c8.18-0.09,15.04,6.78,15.07,14.92
	c0.04,8.22-6.75,14.97-14.92,15.08c-0.08,0-0.16,0-0.24,0c-0.01,0-0.03,0-0.04,0c-0.06,0-0.12,0-0.18,0
	c-20.1,0.21-40.2,0.45-60.31,0.68c-21.03,0.23-42.05,0.48-63.08,0.71c-14.5,0.16-28.99,0.33-43.49,0.49c-0.05,0-0.11,0-0.16,0
	C729.72,514.39,722.95,507.55,722.91,499.46z"/>
<path class="st0" d="M580.63,574.92c-8.18,0.01-14.95-6.98-14.9-15.1c0.06-8.23,6.93-14.88,15.1-14.9
	c19.93-0.03,39.86-0.09,59.79-0.13c21.12-0.05,42.24-0.1,63.36-0.14c20.78-0.05,41.56-0.09,62.34-0.14
	c20.47-0.05,40.93-0.1,61.4-0.14c19.92-0.04,39.84-0.09,59.76-0.13c19.52-0.05,39.04-0.09,58.56-0.13c2.8,0,5.6-0.01,8.4-0.02
	c8.18-0.02,14.95,6.99,14.9,15.11c-0.06,8.23-6.93,14.88-15.1,14.89c-15.28,0.04-30.56,0.07-45.84,0.1
	c-20.05,0.05-40.09,0.09-60.14,0.14c-20.36,0.04-40.71,0.09-61.07,0.14c-20.74,0.05-41.48,0.09-62.22,0.14
	c-20.85,0.05-41.7,0.1-62.55,0.14c-20.74,0.04-41.49,0.09-62.23,0.14C593.67,574.89,587.15,574.91,580.63,574.92z"/>
<path class="st0" d="M603.29,325.42c-0.02,0-0.04,0.01-0.06,0.01C603.25,325.42,603.27,325.42,603.29,325.42z"/>
<path class="st0" d="M960.26,353.67c-13.46-0.02-26.91-0.07-40.37-0.1c-20.21-0.05-40.43-0.1-60.64-0.14
	c-20.73-0.05-41.45-0.1-62.18-0.15c-20.77-0.05-41.54-0.1-62.3-0.15c-20.88-0.05-41.76-0.1-62.64-0.15
	c-9.12-0.02-18.24-0.04-27.36-0.07c-0.44-0.13-0.91-0.2-1.39-0.19c-2.18,0.05-4.35,0.04-6.52,0.02c-1.79-0.02-3.57-0.03-5.36,0
	c-1.15,0.02-2.3,0.06-3.44,0.13c-5.36-0.01-10.73-0.02-16.09-0.04c-0.15,0-0.3,0-0.45,0c-8.17,0-15.05-6.68-15.1-14.89
	c-0.04-5.07,2.59-9.69,6.55-12.45c0.24-0.01,0.48-0.04,0.73-0.07c0.04,0,0.09-0.01,0.14-0.02c0.22-0.02,0.44-0.05,0.66-0.1
	c0.03,0,0.06-0.01,0.09-0.02c0.14-0.01,0.27-0.02,0.41-0.02c-0.12,0-0.23,0.01-0.35,0.01c0,0,0.01,0,0.02,0
	c0.29-0.01,0.57-0.04,0.86-0.07c0.05,0,0.11,0,0.17,0c0.39-0.01,0.78-0.08,1.14-0.21c0.5-0.09,1.01-0.2,1.52-0.29
	c0.55-0.06,1.11-0.07,1.66-0.2c0.61-0.15,1.23-0.26,1.86-0.36c0.54-0.08,1.08-0.15,1.62-0.22c7.46-0.29,14.91-0.58,22.37-0.87
	c1.2-0.05,2.4-0.09,3.61-0.14c10.07,0.03,20.14,0.07,30.22,0.09c20.91,0.05,41.81,0.1,62.71,0.15c20.82,0.05,41.65,0.1,62.48,0.15
	c20.62,0.05,41.24,0.1,61.86,0.15c20.26,0.05,40.51,0.1,60.77,0.14c14,0.03,27.99,0.07,41.98,0.1c0.2,0,0.4,0,0.6,0
	c8.17,0.02,15.05,6.67,15.1,14.89c0.06,8.11-6.71,15.11-14.87,15.11C960.27,353.67,960.26,353.67,960.26,353.67z"/>
<path class="st0" d="M948.34,555.77c0.06-14.8,0.11-29.61,0.18-44.41c0.07-19.18,0.15-38.35,0.23-57.52
	c0.07-18.96,0.15-37.92,0.22-56.88c0.08-18.68-0.01-37.36,0.22-56.04c0.1-8.17,6.67-15.02,14.95-15.05
	c8.07-0.03,15.16,6.77,15.05,14.94c-0.24,19.06-0.15,38.14-0.23,57.2c-0.07,18.96-0.15,37.92-0.22,56.88
	c-0.08,19.18-0.16,38.35-0.23,57.52c-0.05,14.42-0.11,28.84-0.17,43.25c-0.03,8.17-6.72,15.02-14.94,15.05c-0.02,0-0.04,0-0.06,0
	C955.24,570.71,948.31,563.92,948.34,555.77z"/>
<path class="st0" d="M417,408.43c-8.22-0.07-14.88-6.96-14.86-15.14c0.02-15.75,0.05-31.51,0.08-47.26
	c0.04-21.21,0.07-42.42,0.11-63.63c0.04-21.13,0.07-42.26,0.11-63.38c0.04-21.23,0.07-42.46,0.11-63.68
	c0.04-21.23,0.07-42.47,0.11-63.7c0.04-20.21,0.07-40.43,0.11-60.65c0-0.05,0-0.11,0-0.16c0-8.18,7.02-14.94,15.14-14.86
	c8.23,0.07,14.86,6.96,14.86,15.14c0,20.03-0.07,40.06-0.1,60.09c-0.04,21.02-0.07,42.03-0.11,63.05
	c-0.04,21.28-0.07,42.55-0.11,63.83c-0.04,21.14-0.07,42.27-0.11,63.41c-0.04,21.2-0.07,42.39-0.11,63.58
	c-0.03,16.07-0.05,32.14-0.08,48.2c0,0.11,0,0.21,0,0.31c-0.01,8.13-6.93,14.86-15,14.86C417.08,408.43,417.04,408.43,417,408.43z"
	/>
<path class="st0" d="M37.99,683.83c-8.14,0-15.05-6.83-15-15c0.1-17.01,0.2-34.02,0.3-51.03c0.16-26.4,0.31-52.8,0.46-79.2
	c0.16-26.88,0.32-53.75,0.48-80.62c0.16-27.04,0.32-54.08,0.47-81.12c0.16-27.35,0.32-54.7,0.48-82.05
	c0.16-27.39,0.32-54.79,0.48-82.18c0.16-27.02,0.32-54.03,0.48-81.05c0.16-26.8,0.32-53.6,0.47-80.4
	c0.04-7.02,0.08-14.05,0.12-21.07c0.05-8.18,6.79-15,15.01-15c8.14,0,15.05,6.83,14.99,15c-0.15,24.55-0.29,49.09-0.43,73.64
	c-0.16,26.72-0.31,53.44-0.47,80.15c-0.16,27.25-0.32,54.5-0.48,81.75c-0.16,27.43-0.32,54.86-0.48,82.29
	c-0.16,27.15-0.32,54.3-0.48,81.45c-0.16,27.07-0.32,54.14-0.48,81.21c-0.15,26.55-0.31,53.11-0.46,79.67
	c-0.14,22.88-0.27,45.75-0.4,68.63c-0.02,3.31-0.04,6.62-0.06,9.94C52.95,677.01,46.21,683.83,37.99,683.83
	C38,683.83,38,683.83,37.99,683.83z"/>
<path class="st0" d="M104.1,919.79c-8.26-0.09-14.81-7-14.83-15.17c-0.05-19.36-0.09-38.71-0.14-58.06
	c-0.05-21-0.11-42.01-0.16-63.02c-0.05-21.01-0.11-42.03-0.16-63.04c-0.05-21.06-0.11-42.12-0.16-63.18
	c-0.05-20.79-0.11-41.58-0.16-62.37c-0.02-6.11-0.03-12.21-0.05-18.32c-0.02-8.18,7.08-14.92,15.17-14.83
	c8.26,0.09,14.81,7,14.83,15.17c0.05,20.12,0.1,40.23,0.15,60.35c0.05,21,0.11,41.99,0.16,62.99c0.05,20.97,0.11,41.94,0.16,62.91
	c0.05,21.21,0.11,42.41,0.16,63.62c0.05,20.81,0.1,41.62,0.16,62.43c0.01,5.23,0.03,10.45,0.04,15.68
	c0.02,8.12-6.99,14.83-15.01,14.83C104.2,919.79,104.15,919.79,104.1,919.79z"/>
<path class="st0" d="M168.28,802.52c-8.29-0.16-14.71-7.11-14.71-15.29c0-17.66,0-35.33,0-53c0-15.7,0-31.41,0-47.12
	c0-8.18,7.23-14.86,15.28-14.71c8.29,0.16,14.71,7.11,14.71,15.29c0,19.68,0,39.37,0,59.05c0,13.69,0,27.38,0,41.06
	c0,8.08-7.07,14.71-15.01,14.71C168.46,802.53,168.37,802.53,168.28,802.52z"/>
<path class="st0" d="M151.26,622.05c0-8.18,6.82-15,15-15s15,6.82,15,15s-6.82,15-15,15S151.26,630.22,151.26,622.05z"/>
<path class="st0" d="M359.89,926.04c-8.25-0.03-14.88-6.87-14.95-15.05c-0.14-15.26-0.21-30.52-0.32-45.79
	c-0.14-20.09-0.29-40.18-0.43-60.28c-0.14-20.03-0.28-40.05-0.43-60.08c-0.14-20.55-0.29-41.11-0.43-61.66
	c-0.14-20.27-0.29-40.53-0.43-60.8c-0.12-17.14-0.23-34.27-0.36-51.41c-0.06-8.18,6.94-14.98,15.05-14.96
	c8.24,0.03,14.89,6.87,14.95,15.05c0.14,18.86,0.27,37.73,0.4,56.6c0.14,20.08,0.28,40.16,0.43,60.23
	c0.15,20.81,0.3,41.62,0.44,62.43c0.14,19.83,0.28,39.66,0.42,59.49c0.14,20.17,0.29,40.34,0.43,60.51
	c0.1,13.58,0.16,27.16,0.29,40.75c0.07,8.16-6.92,14.96-15.01,14.96C359.92,926.04,359.91,926.04,359.89,926.04z"/>
<path class="st0" d="M405.26,680.73c-0.1-16.65-0.18-33.3-0.27-49.96c-0.11-20.63-0.21-41.27-0.32-61.9
	c-0.11-20.73-0.22-41.45-0.33-62.18c0-0.16,0-0.32,0-0.48c0-8.17,6.79-15.01,14.97-15.02c8.17-0.02,15.03,6.8,15.03,14.97
	c0,20.24,0.21,40.48,0.32,60.72c0.11,20.59,0.22,41.18,0.32,61.78c0.09,17.14,0.19,34.29,0.27,51.43c0,0.2,0,0.39,0,0.59
	c0.05,8.17-6.83,15.01-14.98,15.02c-0.01,0-0.02,0-0.03,0C412.07,695.7,405.3,688.89,405.26,680.73z"/>
<path class="st0" d="M209.84,552.23c-10.81-1.01-21.65-2.51-32.23-4.97c-11.64-2.71-23.13-6.31-33.25-12.8
	c-1.9-1.22-3.79-2.65-5.37-4.26c-2.82-2.88-4.66-6.31-4.83-10.41c-0.17-3.96,1.27-7.87,3.95-10.78c2.68-2.91,6.46-4.67,10.41-4.83
	c3.8-0.16,8.07,1.18,10.78,3.95c0.22,0.22,0.44,0.43,0.67,0.63c0.61,0.46,1.24,0.89,1.88,1.31c1.36,0.78,2.74,1.5,4.15,2.18
	c3.16,1.34,6.37,2.48,9.65,3.52c6.77,1.92,13.62,3.38,20.55,4.56c11.9,1.82,23.89,2.81,35.92,3.21c12.46,0.25,24.91-0.15,37.31-1.42
	c7.62-0.88,15.18-2.09,22.64-3.87c3.4-0.9,6.74-1.91,10.03-3.14c1.53-0.64,3.03-1.32,4.5-2.09c0.6-0.35,1.19-0.71,1.76-1.09
	c0.33-0.26,0.65-0.53,0.95-0.81c6.04-5.52,16.03-4.23,21.13,1.83c2.57,3.06,3.83,7.09,3.45,11.07c-0.38,4.01-2.35,7.39-5.28,10.07
	c-2.65,2.42-5.8,4.27-8.95,5.94c-4.68,2.48-9.73,4.28-14.8,5.8c-9.79,2.93-19.98,4.7-30.12,5.82c-11.73,1.3-23.54,1.95-35.35,1.95
	C229.53,553.6,219.66,553.14,209.84,552.23z"/>
<path class="st0" d="M192.08,876.33c-21.58-2.89-43.07-8.16-62.89-17.31c-11.25-5.19-22.01-11.71-31.18-20.11
	c-6.03-5.52-6.28-15.25-0.75-21.2c5.6-6.02,15.18-6.27,21.2-0.75c0.97,0.89,1.96,1.74,2.97,2.58c2.89,2.26,5.9,4.34,9.01,6.3
	c4.39,2.58,8.9,4.89,13.54,6.99c6.58,2.8,13.3,5.17,20.15,7.21c9.21,2.57,18.54,4.55,27.99,6.03c11.31,1.61,22.69,2.54,34.11,2.82
	c11.67,0.15,23.32-0.36,34.94-1.54c10.43-1.19,20.77-2.93,30.99-5.31c8.07-1.99,16.02-4.38,23.82-7.26
	c5.93-2.3,11.73-4.89,17.37-7.85c3.91-2.16,7.72-4.49,11.38-7.06c0.38-0.28,0.77-0.57,1.14-0.85c3.14-2.38,6.82-3.69,10.8-3.36
	c4,0.34,7.77,2.32,10.32,5.42c5.04,6.13,4.44,16.17-2.07,21.12c-0.1,0.08-0.21,0.16-0.31,0.23c-14.62,11.01-31.52,18.59-48.89,24.15
	c-19.79,6.34-40.47,9.84-61.16,11.45c-7.68,0.6-15.4,0.9-23.11,0.9C218.29,878.94,205.12,878.07,192.08,876.33z"/>
<path class="st0" d="M94.97,601.45c-2.99-2.78-4.45-6.43-4.77-10.44c-1.59-19.73,1.04-39.72,7.59-58.4
	c6.91-19.68,18.31-37.99,33.1-52.72c7.57-7.53,15.88-14.32,24.93-19.99c8.84-5.53,18.2-10.04,27.99-13.59
	c19.2-6.96,40.18-9.53,60.5-7.62c20.48,1.92,40.61,8.25,58.35,18.69c15.86,9.32,30.03,21.62,41.15,36.31
	c8.42,11.12,15.09,23.25,20.08,36.27c4.56,11.88,7.21,24.38,8.45,37.03c0.71,7.23,0.73,14.51,0.3,21.76c0,0.1-0.01,0.2-0.02,0.29
	c0,0.03,0,0.06-0.01,0.09c-0.54,8.16-8.51,14.21-16.43,13.42c-3.89-0.39-7.54-2.34-10.04-5.34c-2.62-3.16-3.64-7.04-3.39-11.09
	c0.06-0.96,0.11-1.92,0.15-2.89c0.11-5.01-0.07-10.01-0.54-14.99c-0.56-4.99-1.42-9.95-2.55-14.84c-1.2-4.78-2.68-9.48-4.42-14.09
	c-1.8-4.52-3.85-8.93-6.15-13.22c-2.34-4.19-4.91-8.24-7.71-12.14c-2.83-3.8-5.85-7.45-9.08-10.93c-3.3-3.42-6.77-6.65-10.42-9.69
	c-3.69-2.96-7.52-5.72-11.51-8.26c-4.07-2.49-8.27-4.75-12.58-6.79c-4.47-2-9.04-3.74-13.71-5.24c-4.82-1.43-9.71-2.58-14.66-3.46
	c-4.88-0.76-9.79-1.24-14.73-1.45c-4.95-0.1-9.88,0.07-14.81,0.52c-5.03,0.57-10.01,1.42-14.94,2.56
	c-4.87,1.24-9.67,2.74-14.37,4.52c-4.51,1.81-8.89,3.87-13.18,6.17c-4.14,2.34-8.15,4.89-12.02,7.64
	c-3.79,2.83-7.42,5.84-10.89,9.05c-3.42,3.3-6.65,6.77-9.7,10.41c-2.97,3.73-5.75,7.59-8.32,11.61c-2.49,4.09-4.76,8.31-6.8,12.64
	c-1.95,4.38-3.67,8.86-5.13,13.43c-1.43,4.8-2.58,9.66-3.47,14.59c-0.78,4.97-1.26,9.97-1.48,14.99c-0.08,4.57,0.05,9.13,0.41,13.7
	c0.66,8.15-6.56,15.24-14.46,15.52c-0.17,0.01-0.35,0.01-0.52,0.01C101.42,605.47,97.73,604.03,94.97,601.45z"/>
<path class="st0" d="M183.15,974.96c-9.91-1.7-19.7-4-29.32-6.96c-10.02-3.08-19.87-6.96-29-12.14c-7.55-4.28-14.8-9.52-20.43-16.19
	c-5.27-6.25-4.44-15.87,1.8-21.14c6.25-5.28,15.87-4.44,21.14,1.8c0.27,0.32,0.56,0.64,0.84,0.96c1.08,1.08,2.22,2.1,3.38,3.1
	c1.88,1.46,3.83,2.82,5.84,4.1c3.18,1.87,6.44,3.56,9.79,5.12c5.6,2.44,11.35,4.5,17.19,6.3c9.03,2.62,18.21,4.62,27.49,6.14
	c12.26,1.89,24.62,2.96,37.01,3.32c12.85,0.26,25.7-0.24,38.48-1.58c9.88-1.14,19.7-2.79,29.37-5.14c6.28-1.61,12.48-3.5,18.52-5.83
	c3.7-1.5,7.32-3.17,10.84-5.06c2.13-1.22,4.2-2.53,6.2-3.95c1.02-0.78,2.02-1.59,2.98-2.45c6.11-5.43,15.97-4.32,21.14,1.8
	c2.57,3.05,3.83,7.08,3.46,11.06c-0.37,3.97-2.32,7.45-5.27,10.07c-6.2,5.51-13.55,9.79-21.05,13.27
	c-12.8,5.95-26.54,9.8-40.34,12.56c-17.61,3.52-35.67,5.12-53.62,5.28c-1,0.01-2,0.01-2.99,0.01
	C218.68,979.42,200.81,977.99,183.15,974.96z"/>
<path class="st0" d="M111.56,945.84c-11.66-6.27-19.91-18.62-21.68-31.7c-0.4-6.61-1.53-14.16,3.08-19.66
	c5.03-6.29,15.02-7.23,21.12-1.97c9.1,7.38,2.44,15.46,7.87,23.48c0.92,1.02,1.9,2.01,2.88,2.98c6.78,3.69,9.77,12.23,6.56,19.36
	C128.04,945.82,118.88,949.19,111.56,945.84z"/>
<path class="st0" d="M340.05,951.36c-7.87-2.38-12.32-10.86-10.02-18.7c1.22-4.15,4.08-7.05,7.7-9.18c2.35-0.99,2.84-3.7,4.01-5.71
	c0.7-2.4,1.67-4.69,2.33-7.11c0.28-4.57,1.45-9.15,5.01-12.31c10.66-10.07,28.32,0.4,24.84,14.5c-1.76,11.67-6.33,24.34-15.21,32.47
	C353.53,949.55,346.95,953.61,340.05,951.36z"/>
<path class="st0" d="M362,799.47c-7.69-2.39-12.2-11.36-9.51-18.96c1.6-6.05,7.55-7.99,11.63-11.93
	c8.42-8.49,14.73-18.79,20.95-28.94c8.36-14.02,14.83-29.27,18.35-45.23c0.76-6.14,1.68-11.91,1.79-18.06
	c1.82-19.6,30.57-17.97,29.94,1.93c-0.69,13.97-2.74,27.35-7.33,40.36c-4.23,10.52-7.82,21.3-14.02,30.89
	C405.58,764.03,381.59,806.07,362,799.47z"/>
<path class="st0" d="M88.53,802.89C41.79,774.21,27.93,725,22.46,673.53c-1.6-19.64,26.91-22.95,29.82-3.36
	c2.26,16.82,4.28,33.78,9.54,49.99c7.8,25.71,22.21,44.88,45.09,59.01C122.19,791.47,104.57,814.63,88.53,802.89z"/>
<path class="st0" d="M296.96,177.67c-0.13,0-0.26,0-0.39,0c-0.03,0-0.05,0-0.08,0c-0.04,0-0.07,0-0.1,0
	c-18.96-0.18-37.92-0.4-56.87-0.6c-21-0.22-42-0.44-63-0.66c-4.43-0.05-8.86-0.09-13.29-0.14c-0.46,0-0.92-0.01-1.38-0.01
	c-8.17-0.09-14.96-6.91-14.91-15.1c0.06-8.14,6.93-14.99,15.1-14.91c19.88,0.22,39.76,0.42,59.64,0.62
	c20.12,0.21,40.24,0.42,60.36,0.63c4.88,0.05,9.75,0.11,14.63,0.15c0.03,0,0.05,0,0.08,0c0.13,0,0.26,0,0.39,0
	c8.17,0.09,14.96,6.91,14.91,15.1c-0.06,8.1-6.85,14.91-14.95,14.91C297.06,177.67,297.01,177.67,296.96,177.67z"/>
<path class="st0" d="M335.38,262.86c-18.88-0.02-37.77-0.05-56.65-0.08c-20.67-0.03-41.33-0.06-62-0.09
	c-20.84-0.03-41.68-0.05-62.51-0.09c-8.22-0.01-16.44-0.03-24.65-0.03c-4.09,0-7.91-1.15-10.96-3.98
	c-2.85-2.64-4.59-6.36-4.79-10.25c-0.2-4.01,1.25-8.01,3.98-10.95c2.54-2.74,6.44-4.79,10.25-4.79c19.57,0,39.14,0.05,58.71,0.08
	c20.69,0.03,41.38,0.06,62.06,0.09c20.43,0.03,40.85,0.05,61.27,0.08c7.92,0.01,15.84,0.02,23.77,0.03
	c4.09,0.01,7.91,1.15,10.96,3.98c2.85,2.64,4.59,6.36,4.79,10.25c0.2,4.01-1.25,8.01-3.98,10.95c-2.54,2.74-6.43,4.79-10.24,4.79
	C335.38,262.86,335.38,262.86,335.38,262.86z"/>
<path class="st0" d="M150.45,335.65c-2.81-2.68-4.51-6.42-4.65-10.3c-0.29-7.93,6.26-15.55,14.43-15.55
	c18.92,0,37.84-0.04,56.76-0.05c19.84-0.02,39.69-0.04,59.54-0.05c8.29-0.01,16.59-0.02,24.88-0.02c0,0,0,0,0,0
	c0.02,0,0.03,0,0.04,0c4.07,0,7.92,1.28,10.9,4.12c2.81,2.68,4.51,6.42,4.65,10.3c0.01,0.19,0.01,0.37,0.01,0.56
	c-0.02,7.73-6.46,15-14.44,15c-0.02,0-0.04,0-0.05,0c-0.01,0-0.02,0-0.02,0c-13.17,0-26.33,0.03-39.5,0.04
	c-19.74,0.02-39.48,0.04-59.21,0.05c-14.14,0.01-28.28,0.04-42.43,0.04C157.29,339.78,153.44,338.5,150.45,335.65z"/>
</svg>
