<?xml version="1.0" encoding="utf-8"?>
<!-- Generator: Adobe Adobe Illustrator 24.2.0, SVG Export Plug-In . SVG Version: 6.00 Build 0)  -->
<svg version="1.1" id="Capa_de_vector_1_" xmlns="http://www.w3.org/2000/svg" xmlns:xlink="http://www.w3.org/1999/xlink" x="0px"
	 y="0px" viewBox="0 0 300 300" style="enable-background:new 0 0 300 300;" xml:space="preserve">
<style type="text/css">
	.st0{fill:#A46460;}
	.st1{fill:#FFFFFF;}
</style>
<ellipse class="st0" cx="149.76" cy="150.25" rx="147.5" ry="147"/>
<path class="st1" d="M85.69,116.94c0,0.03,0,0.06,0,0.09c0,0,0,0.01,0,0.01C85.69,117.01,85.69,116.98,85.69,116.94z"/>
<path class="st1" d="M85.67,117.22C85.67,117.22,85.67,117.22,85.67,117.22c0,0.01,0,0.03,0,0.04
	C85.67,117.25,85.67,117.24,85.67,117.22z"/>
<path class="st1" d="M85.66,117.29c0,0.01,0,0.01,0,0.02C85.66,117.3,85.66,117.29,85.66,117.29z"/>
<path class="st1" d="M149.66,237.92c-0.1,0.02-0.21,0.03-0.31,0.03c-0.37,0-0.73-0.11-1.02-0.36c-4.43-3.7-8.67-7.63-12.71-11.76
	c-4.32-4.41-8.43-9.05-12.31-13.86c-4.16-5.14-8.06-10.49-11.71-16c-3.71-5.61-7.15-11.39-10.28-17.35
	c-3.14-5.98-5.98-12.12-8.38-18.44c-2.41-6.33-4.41-12.82-5.76-19.46c-1.24-6.07-1.93-12.31-1.57-18.51
	c0.03-0.46,0.06-0.91,0.1-1.37v0c-0.04-0.03-0.07-0.06-0.11-0.1c0-0.07,0-0.14,0-0.22c0,0.05,0,0.09,0,0.14
	c0-0.61,0.04-1.23,0.07-1.84c0.03-0.57,0.04-1.14,0.03-1.71c0.04-0.24,0-0.49-0.13-0.7c0.04-0.38,0.08-0.75,0.13-1.13
	c-0.01,0.05-0.01,0.09-0.02,0.14c0.06-0.45,0.14-0.91,0.21-1.36c0.54-2.86,1.27-5.68,2.2-8.45c1.46-4.39,3.41-8.6,5.75-12.59
	c3.29-5.61,7.48-10.69,12.29-15.07c4.67-4.25,9.98-7.82,15.69-10.54c5.33-2.54,11-4.37,16.81-5.39c5.3-0.93,10.71-1.22,16.08-0.82
	c6.22,0.46,12.38,1.8,18.22,4.01c5.92,2.23,11.47,5.32,16.51,9.13c5.35,4.04,10.05,8.96,13.91,14.45c3.73,5.32,6.66,11.2,8.66,17.38
	c1.69,5.24,2.72,10.7,3.05,16.2c0.04,0.78,0.07,1.56,0.09,2.33c0,0.44-0.01,0.87-0.01,1.31c0-0.05,0-0.09,0-0.13
	c0,0.15,0,0.31,0,0.46c-0.02,0.11-0.06,0.21-0.1,0.31c0.25,2.43,0.2,4.89,0,7.32c-0.36,4.42-1.3,8.79-2.5,13.05
	c-1.39,4.92-3.16,9.73-5.17,14.43c-1.98,4.64-4.18,9.18-6.56,13.62c-2.21,4.15-4.59,8.21-7.07,12.21
	c-3.23,5.2-6.67,10.25-10.28,15.19c-2.36,3.23-4.81,6.4-7.33,9.52c-0.02,0.02-0.03,0.04-0.05,0.06c-1.2,1.48-2.42,2.96-3.65,4.41
	c-3.16,3.74-6.44,7.38-9.83,10.91c-3.46,3.61-7.04,7.1-10.76,10.45c-0.31,0.28-0.7,0.41-1.1,0.41
	C150.34,238.26,149.97,238.14,149.66,237.92z M148.97,99.94c-0.9,0.06-1.8,0.14-2.69,0.27c-0.04,0-0.07,0.01-0.11,0.01
	c-0.21,0.03-0.43,0.07-0.64,0.1c-1.18,0.23-2.33,0.52-3.48,0.87c-1.12,0.38-2.23,0.82-3.31,1.31c-1.04,0.52-2.05,1.09-3.05,1.7
	c-0.93,0.62-1.83,1.29-2.7,2c-0.86,0.75-1.68,1.53-2.45,2.35c-0.75,0.85-1.46,1.73-2.14,2.65c-0.64,0.93-1.23,1.9-1.77,2.89
	c-0.54,1.06-1.03,2.15-1.46,3.26c-0.39,1.11-0.73,2.24-1,3.39c-0.24,1.15-0.43,2.31-0.55,3.47c-0.09,1.21-0.11,2.41-0.08,3.62
	c0.08,1.19,0.21,2.37,0.4,3.55c0.24,1.2,0.54,2.37,0.89,3.54c0.38,1.09,0.8,2.16,1.28,3.2c0.51,1.03,1.07,2.04,1.68,3.01
	c0.63,0.94,1.3,1.84,2.02,2.72c0.75,0.86,1.54,1.68,2.37,2.47c0.84,0.74,1.7,1.44,2.6,2.1c0.98,0.67,1.98,1.29,3.02,1.86
	c1.02,0.51,2.06,0.98,3.12,1.39c1.11,0.39,2.23,0.73,3.36,1c1.19,0.25,2.39,0.44,3.6,0.57c1.18,0.08,2.36,0.11,3.54,0.07
	c1.2-0.08,2.4-0.21,3.59-0.41c1.15-0.23,2.29-0.52,3.41-0.86c1.11-0.38,2.2-0.8,3.26-1.29c1.03-0.51,2.04-1.07,3.01-1.68
	c0.93-0.62,1.83-1.29,2.7-1.99c0.89-0.77,1.73-1.58,2.54-2.44c0.75-0.84,1.45-1.71,2.11-2.62c0.65-0.96,1.25-1.95,1.81-2.96
	c0.52-1.04,0.99-2.09,1.41-3.17c0.39-1.12,0.73-2.26,1.01-3.41c0.24-1.15,0.42-2.31,0.55-3.48c0.08-1.23,0.11-2.45,0.07-3.67
	c-0.08-1.18-0.21-2.36-0.41-3.52c-0.23-1.18-0.53-2.35-0.89-3.49c-0.37-1.07-0.79-2.13-1.27-3.17c-0.5-1.02-1.06-2.02-1.66-2.99
	c-0.63-0.96-1.31-1.88-2.04-2.77c-0.75-0.86-1.54-1.69-2.38-2.48c-0.84-0.75-1.72-1.45-2.62-2.11c-0.93-0.64-1.89-1.23-2.88-1.77
	c-1.07-0.55-2.18-1.05-3.31-1.48c-1.09-0.38-2.18-0.71-3.3-0.98c-1.18-0.25-2.37-0.44-3.56-0.56c-0.86-0.06-1.72-0.09-2.59-0.09
	C149.66,99.92,149.32,99.93,148.97,99.94z"/>
<path class="st1" d="M212.99,129.37c-0.68-0.13-1.2-0.65-1.36-1.29c-1.19-0.74-0.88-2.73,0.45-3.15c0.89-0.23,1.88-0.34,2.57,0.39
	C215.7,126.67,215.12,129.75,212.99,129.37z"/>
</svg>
