<?xml version="1.0" encoding="utf-8"?>
<!-- Generator: Adobe Adobe Illustrator 24.2.0, SVG Export Plug-In . SVG Version: 6.00 Build 0)  -->
<svg version="1.1" id="Capa_de_vector_1_" xmlns="http://www.w3.org/2000/svg" xmlns:xlink="http://www.w3.org/1999/xlink" x="0px"
	 y="0px" viewBox="0 0 1000 1000" style="enable-background:new 0 0 1000 1000;" xml:space="preserve">
<style type="text/css">
	.st0{fill:#AF9786;}
</style>
<path class="st0" d="M246.12,640.46c-5.35-0.35-10.61-1.16-15.76-2.67c-5.25-1.55-10.25-3.72-15.07-6.33
	c-17.7-9.59-31.24-26.21-39.14-44.54c-8.12-18.85-10.87-40.24-7.25-60.48c3.63-20.35,13.45-39.41,29.57-52.63
	c13.98-11.46,32.45-16.86,50.39-14.83c8.13,0.92,13.91,8.94,12.83,16.9c-0.53,3.88-2.6,7.45-5.7,9.84c-3.21,2.48-7.2,3.44-11.2,2.99
	c-0.36-0.04-0.72-0.08-1.08-0.11c-1.57-0.07-3.14-0.07-4.71,0c-1.74,0.16-3.47,0.38-5.2,0.68c-1.64,0.37-3.26,0.81-4.86,1.33
	c-1.49,0.55-2.96,1.17-4.4,1.85c-1.52,0.81-3,1.68-4.44,2.61c-1.45,1.03-2.84,2.11-4.2,3.25c-1.46,1.34-2.85,2.73-4.19,4.19
	c-1.37,1.61-2.66,3.28-3.87,5.01c-1.31,2.01-2.51,4.07-3.62,6.2c-1.15,2.4-2.18,4.84-3.09,7.34c-0.94,2.85-1.73,5.74-2.37,8.67
	c-0.58,3.12-1,6.25-1.27,9.41c-0.18,3.46-0.18,6.92,0,10.37c0.29,3.5,0.77,6.98,1.42,10.43c0.75,3.4,1.68,6.74,2.78,10.05
	c1.12,3.05,2.38,6.04,3.79,8.96c1.38,2.65,2.9,5.23,4.53,7.73c1.57,2.25,3.24,4.42,5.02,6.52c1.72,1.89,3.51,3.7,5.39,5.42
	c1.71,1.46,3.48,2.85,5.33,4.15c1.85,1.2,3.75,2.31,5.7,3.34c1.76,0.84,3.54,1.6,5.37,2.28c1.71,0.56,3.45,1.04,5.21,1.44
	c1.69,0.31,3.39,0.53,5.1,0.69c1.74,0.08,3.48,0.08,5.21,0.01c1.6-0.15,3.2-0.36,4.78-0.64c1.24-0.28,2.47-0.61,3.69-0.97
	c7.84-2.32,16.31,2.71,18.45,10.48c1.07,3.87,0.52,8.1-1.51,11.56c-2.01,3.43-5.21,5.73-8.96,6.89c-0.21,0.07-0.43,0.13-0.64,0.19
	c-0.19,0.05-0.38,0.11-0.56,0.15c-5.68,1.57-11.61,2.41-17.51,2.41C248.76,640.59,247.44,640.54,246.12,640.46z"/>
<path class="st0" d="M743.52,637.14c-5.96-0.13-11.97-0.96-17.77-2.34c0.09-0.6,0.17-1.21,0.25-1.81c0.75-5.62,1.5-11.25,1.96-16.91
	c0.3-3.68,0.62-7.36,0.87-11.04c0.99,0.01,1.98,0.13,2.97,0.37c2.1,0.5,4.22,0.91,6.35,1.24c2.82,0.34,5.65,0.52,8.49,0.58
	c2.67-0.05,5.32-0.23,7.97-0.52c2.79-0.43,5.54-1,8.27-1.67c2.5-0.75,4.94-1.59,7.38-2.53c2.57-1.15,5.07-2.39,7.54-3.74
	c2.23-1.39,4.4-2.85,6.51-4.4c2.08-1.7,4.06-3.46,6-5.31c1.64-1.74,3.21-3.52,4.73-5.36c1.78-2.4,3.43-4.86,4.98-7.4
	c1.06-1.96,2.05-3.93,3-5.94c1.03-2.54,1.95-5.09,2.77-7.7c0.71-2.78,1.29-5.57,1.76-8.4c0.29-2.55,0.48-5.09,0.59-7.66
	c-0.05-3.01-0.23-5.99-0.54-8.99c-0.4-2.54-0.89-5.04-1.5-7.54c-0.74-2.52-1.56-5.01-2.5-7.47c-1.2-2.74-2.53-5.41-3.98-8.02
	c-1.41-2.25-2.89-4.41-4.46-6.54c-1.44-1.75-2.92-3.45-4.46-5.12c-2-1.94-4.07-3.78-6.23-5.56c-2.18-1.61-4.41-3.11-6.7-4.54
	c-2.37-1.3-4.77-2.51-7.23-3.62c-2.61-1.03-5.23-1.93-7.92-2.72c-2.62-0.64-5.25-1.19-7.91-1.61c-1.34-0.16-2.67-0.3-4.01-0.39
	c-8.16-0.52-14.5-7.87-13.93-16c0.56-8.19,7.84-14.45,16-13.93c22.98,1.46,45.05,12.09,60.75,28.86c8.33,8.9,14.59,19.34,18.97,30.7
	c4.38,11.37,6.01,23.76,5.55,35.89c-0.93,24.13-12.09,47.12-29.78,63.39c-8.62,7.93-19,14.24-30.02,18.21
	c-10.49,3.77-21.35,5.58-32.45,5.58C745.01,637.17,744.27,637.16,743.52,637.14z"/>
<path class="st0" d="M381.37,536.11c-16.93-0.22-33.76-4.27-47.94-13.77c-8.31,1.41-17.62,6.7-25.24,0.28
	c-7.67-5.7-7.78-18.16-0.01-23.79c6.98-4.65,15.93-4.67,23.85-6.82c13.1-2.14,22.15,10.88,34.68,12.49
	c14.82,2.53,29.92,1.99,44.88,1.19c6.42,0.16,12.87-3.38,19.07-0.55c11.96,4.53,12.05,23.18,0,27.64
	C414.74,537.14,397.75,536.33,381.37,536.11z"/>
<path class="st0" d="M592.71,535.41c-8.41-0.64-17.46-1.09-24.64-6.01c-9.74-6.99-6.42-23.6,5.19-26.38
	c6.99-2.04,13.28,2.82,20.32,2.44c21.02,1.39,42.55-0.2,61.55-10.01c8.71-7.4,18.99-4.43,28.16,0.26
	c19.59,9.48,4.34,37.22-14.63,26.48C645.25,534.25,618.71,537.33,592.71,535.41z"/>
<path class="st0" d="M286.94,447.38c-10.67-20.57,23.27-30.43,37.95-33.72c39.93-1.91,80.07,2.85,119.91,4.66
	c12.5,2.86,14.9,21.37,3.58,27.41c-6.94,3.83-14.71,0.85-22.15,1.58c-31.34-1.49-62.66-4.72-94.08-4.26
	C316.62,442.72,299.35,466.08,286.94,447.38z"/>
<path class="st0" d="M693.27,454.63c-17.53-11.11-28.39-13.41-48.98-11.36c-20.66,1.81-41.41,2.7-62.14,3.16
	c-7.91-0.85-16.16,2.06-23.75-0.47c-7.58-2.95-11.2-12.38-7.98-19.82c6.74-14.3,25.36-8.35,37.99-9.8
	c29.46,0.3,59.2-6.24,88.48-2.05c11.41,2.48,21.28,9.12,31.51,14.42C725.23,438.55,710.32,464.45,693.27,454.63z"/>
<path class="st0" d="M496.77,627.31c-11.83-2.03-28.5-3.48-33.08-16.62c-2.16-7.88,2.59-16.28,10.48-18.45
	c7.49-2.31,13.29,3.45,20.35,4.43c17.43,5.86,26.66-10.98,39.46,0.63c5.73,5.73,5.84,15.49,0,21.21
	C524.03,627.19,509.43,628.5,496.77,627.31z"/>
<path class="st0" d="M497.89,705.11c-39.9-11.73-6-12.6-60.76-11.57c-19.54-0.21-19.61-29.79,0-30c15.69,0.98,32.31-2.55,47.39,2.71
	c5.98,2.54,10.7,7.67,17.17,9.07c6.1,1.95,10.03-4.23,15.4-5.95c16.13-4.92,33.46,0.21,50.06-1.69
	c12.91-0.55,20.09,16.82,10.61,25.61c-8.24,7.4-20.71,3.86-30.84,4.53c-6.25-0.1-12.53-0.98-18.77-0.47
	C519.51,703.81,508.68,707.4,497.89,705.11z"/>
<path class="st0" d="M512.76,738.46c-5.72-0.08-11.51-0.12-17.19-0.75c-13.93,0.28-27.51-12.96-17.84-26.25
	c9.14-11.94,23.06-1.12,35.03-3C532.34,708.72,532.33,738.29,512.76,738.46z"/>
<path class="st0" d="M322.08,616.09c0-8.18,6.82-15,15-15s15,6.82,15,15s-6.82,15-15,15S322.08,624.27,322.08,616.09z"/>
<path class="st0" d="M361.29,619.17c0-8.18,6.82-15,15-15s15,6.82,15,15s-6.82,15-15,15S361.29,627.35,361.29,619.17z"/>
<path class="st0" d="M350.43,659.9c0-8.18,6.82-15,15-15s15,6.82,15,15s-6.82,15-15,15S350.43,668.08,350.43,659.9z"/>
<path class="st0" d="M316.69,653.85c0-8.18,6.82-15,15-15s15,6.82,15,15s-6.82,15-15,15S316.69,662.03,316.69,653.85z"/>
<path class="st0" d="M345.5,702.11c0-8.18,6.82-15,15-15s15,6.82,15,15s-6.82,15-15,15S345.5,710.28,345.5,702.11z"/>
<path class="st0" d="M389.59,650.28c0-8.18,6.82-15,15-15s15,6.82,15,15s-6.82,15-15,15S389.59,658.45,389.59,650.28z"/>
<path class="st0" d="M311.15,575.34c0-8.18,6.82-15,15-15s15,6.82,15,15s-6.82,15-15,15S311.15,583.51,311.15,575.34z"/>
<path class="st0" d="M465.6,309.83c0-8.18,6.82-15,15-15s15,6.82,15,15s-6.82,15-15,15S465.6,318,465.6,309.83z"/>
<path class="st0" d="M525.97,316.48c0-8.18,6.82-15,15-15s15,6.82,15,15s-6.82,15-15,15S525.97,324.66,525.97,316.48z"/>
<path class="st0" d="M495.42,359.07c0-8.18,6.82-15,15-15s15,6.82,15,15s-6.82,15-15,15S495.42,367.24,495.42,359.07z"/>
<path class="st0" d="M424.96,359.71c0-8.18,6.82-15,15-15s15,6.82,15,15s-6.82,15-15,15S424.96,367.88,424.96,359.71z"/>
<path class="st0" d="M471.41,269.71c0-8.18,6.82-15,15-15s15,6.82,15,15s-6.82,15-15,15S471.41,277.89,471.41,269.71z"/>
<path class="st0" d="M413.13,310.93c0-8.18,6.82-15,15-15s15,6.82,15,15s-6.82,15-15,15S413.13,319.11,413.13,310.93z"/>
<path class="st0" d="M491.46,409.56c0-8.18,6.82-15,15-15s15,6.82,15,15s-6.82,15-15,15S491.46,417.74,491.46,409.56z"/>
<path class="st0" d="M557.5,360.93c0-8.18,6.82-15,15-15s15,6.82,15,15s-6.82,15-15,15S557.5,369.1,557.5,360.93z"/>
<path class="st0" d="M593.99,587.32c0-8.18,6.82-15,15-15s15,6.82,15,15s-6.82,15-15,15S593.99,595.49,593.99,587.32z"/>
<path class="st0" d="M647.81,580.16c0-8.18,6.82-15,15-15s15,6.82,15,15s-6.82,15-15,15S647.81,588.34,647.81,580.16z"/>
<path class="st0" d="M598.91,629.9c0-8.18,6.82-15,15-15s15,6.82,15,15s-6.82,15-15,15S598.91,638.08,598.91,629.9z"/>
<path class="st0" d="M648.78,624.61c0-8.18,6.82-15,15-15s15,6.82,15,15s-6.82,15-15,15S648.78,632.79,648.78,624.61z"/>
<path class="st0" d="M628.07,667.55c0-8.18,6.82-15,15-15s15,6.82,15,15s-6.82,15-15,15S628.07,675.72,628.07,667.55z"/>
<path class="st0" d="M684.38,606.7c0-8.18,6.82-15,15-15s15,6.82,15,15s-6.82,15-15,15S684.38,614.88,684.38,606.7z"/>
<path class="st0" d="M601.74,720.51c0-8.18,6.82-15,15-15s15,6.82,15,15s-6.82,15-15,15S601.74,728.68,601.74,720.51z"/>
<path class="st0" d="M508.13,848.76c-6.98-19.39,18.14-22.86,30.63-29.09c18.06-7.13,36.22-15.19,51.21-27.79
	c28.17-24.82,55.7-51.12,76.95-82.29c29.14-37.89,50.95-81.9,55.66-129.95c7.57-57.12,2.83-116.13,4.55-173.79
	c-0.01-13.01,0.05-26.08-2.17-38.94c-3.31-10.82-3.27-26.48,10.96-28.38c17.34-1.66,17.61,17.03,19.52,29.5
	c2.99,27.08,1.39,54.44,1.58,81.63c-0.25,129.55,3.89,195.74-83.97,301.41c-30.65,34.15-62.31,70-105.06,88.96
	c-13.29,5.83-26.91,10.89-40.21,16.71C520.42,859.96,511.3,856.29,508.13,848.76z"/>
<path class="st0" d="M495.31,860.42c-24.34-5.55-46.39-18.33-69.03-28.44c-28.14-14.47-55.45-30.72-79.3-51.66
	c-17.31-13.61-30.78-31.23-42.48-49.72c-12.52-17.3-23.34-35.55-30.43-55.78c-14.64-31.51-22.63-65.57-26.13-100.05
	c-7.35-48.07-5.48-97.27-1.04-145.54c1.25-21.14,1.94-42.3,2.88-63.45c0.57-10.3,1.3-23.21,12.29-27.9
	c14.11-6.59,27.71,10.7,18.15,22.9c-1.99,25.78-1.71,51.72-4.01,77.49c-3.13,24.2-2.41,48.66-3.17,73.01
	c0.33,34.93,4.89,69.73,11.79,103.95c6.78,25.5,16.82,50.03,28.2,73.79c8.89,14.35,18.65,28.16,28.14,42.13
	c34.72,44.22,87.2,69.34,137.32,92.05c10.23,4.28,20.86,8.96,32.18,8.52C533.47,832.2,534.48,870.02,495.31,860.42z"/>
<path class="st0" d="M667.25,972.76c-19.43-12.34-39.04-25.35-51.86-44.98c-22.13-28.86-38.49-62.89-40.93-99.56
	c0.95-18.41,28.27-18.99,29.98-0.54c1.37,13.62,4.99,27.2,9.77,40.02c11.66,24.18,26.01,48.76,47.59,65.33
	c8.64,7.71,25.1,12.3,28.28,23.93C693.32,969.46,677.81,980.33,667.25,972.76z"/>
<path class="st0" d="M313.73,961.36c-3.86-7.39-0.73-16.78,6.74-20.43c7.77-5.12,15.21-10.7,22.68-16.25
	c10.81-8.63,18.45-20.41,25.37-32.23c11.33-19.85,20.55-40.92,26.16-63.11c4.15-10.17-0.48-24.5,10.9-30.52
	c7.36-3.84,16.32-0.79,20.24,6.37c3.75,7.6,1.05,16.49-0.36,24.37c-7.18,32.33-21.04,62.98-38.88,90.8
	c-10.2,16.26-24.67,28.77-40.5,39.34C336.24,967.67,322.26,975.77,313.73,961.36z"/>
<path class="st0" d="M607.1,894.67c-10.73-9.18-3.34-24.19,6.52-30.77c10.17-8.09,22.98-11.52,35.69-13.05
	c30.67-5.82,46.35,8.75,73.75,14.42c9.97,0.45,20.03,0.42,29.96-0.63c18.79-4.37,36.85-15.27,56.77-10.01
	c10.31,1.09,21.12,6.75,31.18,1.96c18.48-6.44,28.75,21.06,10.28,28.19c-18.75,9.26-38.25-1.7-57.43-1.18
	c-10.8,2.03-20.56,7.57-31.34,9.76c-14.28,2.75-29.12,2.47-43.58,1.59c-13.18-1.8-25.59-6.98-37.84-11.94
	c-13.83-5.51-30.04-3.43-43.78,1.42c-2.03,1.01-4.03,2.08-5.75,3.57C628.59,897.95,614.88,901.74,607.1,894.67z"/>
<path class="st0" d="M372.32,899.85c-21.92-0.96-41.77-15.89-64.13-11.3c-19.11,3.41-31.62,14.95-52.59,9.8
	c-8.19-1.36-15.68-5.08-23.25-8.32c-9.66-3.58-19.84-5.47-29.99-7.04c-6.54-1.61-11.32,3.53-16.97,5.75
	c-26.69,10.88-37.24-29.87-8.32-29.45c17.69-11.97,39.69-4.46,58.63,0.16c11.95,3.24,23.17,12.17,36.08,9.52
	c20.36-9.1,43.16-14.7,65.3-9.01c15,2.92,29.77,12.44,45.34,9.41C408.18,862.98,413.69,904.92,372.32,899.85z"/>
<path class="st0" d="M147.98,870.39c-1.29-31.63-3.56-63.25-3.59-94.92c0.4-31.62,1.86-63.21,0.74-94.84
	c0.06-90.64-3.11-182.04,12.52-271.71c6.67-49.69,23.75-97.43,46.7-141.87c25.72-54.34,66.42-101.1,114.36-137.08
	c41.07-31.01,91.99-46.45,141.66-57.48c58.21-10.61,91.47-5.92,147.16,11.74c45.35,15,88,39.2,121.5,73.53
	c13.12,11.46,25.54,23.63,35.16,38.27c15.53,20,28.88,41.57,39.31,64.66c12.29,22.32,19.97,46.54,26.1,71.18
	c8.7,31.65,13.89,63.99,15.86,96.75c10.95,80.57,13.23,161.89,19.19,242.91c3.44,61.91,0.81,123.88,1.32,185.76
	c1.37,15.58-17.46,25.52-27.67,11.85c-3.51-4.66-2.43-10.13-2.27-15.44c-0.12-5.32-0.47-10.64-0.57-15.96
	c0-26.98,2.1-53.92,1.05-80.92c0.71-61.01-4.46-121.59-8.3-182.39c-2.05-49-6.82-97.72-12.93-146.36
	c-1.61-25.41-4.92-50.61-11.39-75.27c-10.91-51.69-33.64-100.67-66.27-142.25c-6.89-10.09-15.27-18.88-24.6-26.74
	c-12.54-12.62-26.1-24.1-40.34-34.77c-26.58-17.87-56.21-31.54-87.14-39.91c-21.54-6.52-43.58-12.12-66.21-12.61
	c-39.21,0.94-77.74,9.2-114.55,22.56c-24,8.97-48.13,18.93-68.32,35.04c-46.26,34.55-84.52,80.15-108.54,132.78
	c-23.44,45.12-37.16,94.22-43.58,144.52c-12.85,92.54-9.37,186.3-8.78,279.47c-0.49,39.82-2.47,79.62,0.71,119.38
	c0.4,12.57,0.59,25.14,1.6,37.68C179.18,887.18,150.19,890.39,147.98,870.39z"/>
<path class="st0" d="M734.99,362.38c-5.09-2.05-6.18-6.92-9.56-10.39c-7.53-6.84-17.97-8.27-26.16-14.11
	c-5.02-3.21-9.69-7.32-13.63-11.79c-24.83-26.14-13.94-48.58-34.96-59.23c-12.84-6.05-27.5-6.55-40.67-11.8
	c-20.81-7.7-36.13-24.91-55.28-35.7c-20.36-12.89-44.03-13.86-67.19-10c-14.52,2.56-27.36,10.41-40,17.61
	c-17.04,11.03-34.3,22.58-46.79,38.86c-7.03,7.94-13.75,16.14-20.24,24.53c-10.38,12.55-23.75,22.17-35.93,32.87
	c-15.2,13.45-31.92,24.8-50.71,32.64c-8.35,4.1-17.36,6.55-26.66,6.82c-19.46,1.12-22.16-27.79-2.42-29.9
	c4.88-0.2,9.62-0.93,14.07-3.02c20.73-8.07,38.03-21.67,54.46-36.27c24.7-18.05,39.77-45.36,62.13-65.81
	c37.34-30.12,73.74-53.4,123.59-50.27c36.73,1.07,65.4,25.97,93.89,46.11c28.1,13.03,59.45,8.17,76.53,41.19
	c4.87,10.3,5.55,22.18,11.58,32c10.33,19.19,25.79,18.72,41.11,30.13c5.71,4.52,10.68,10.07,13.44,16.87
	C760.53,355.76,746.48,368.44,734.99,362.38z"/>
</svg>
