<?xml version="1.0" encoding="utf-8"?>
<!-- Generator: Adobe Adobe Illustrator 24.2.0, SVG Export Plug-In . SVG Version: 6.00 Build 0)  -->
<svg version="1.1" id="Capa_de_vector_1_" xmlns="http://www.w3.org/2000/svg" xmlns:xlink="http://www.w3.org/1999/xlink" x="0px"
	 y="0px" viewBox="0 0 1000 1000" style="enable-background:new 0 0 1000 1000;" xml:space="preserve">
<style type="text/css">
	.st0{fill:#AF9786;}
</style>
<path class="st0" d="M495.84,941.53c-8.19-0.06-14.93-6.93-14.89-15.11c0-0.07,0-0.14,0-0.21c0-0.05,0-0.09,0-0.14
	c0.11-23.07,0.23-46.13,0.35-69.19c0.18-34.18,0.34-68.36,0.52-102.54c0.18-35.27,0.36-70.54,0.54-105.81
	c0.18-35.34,0.36-70.68,0.53-106.02c0.18-35.92,0.36-71.84,0.54-107.76c0.18-36.02,0.36-72.04,0.54-108.05
	c0.18-35.44,0.36-70.87,0.54-106.32c0.18-35.1,0.36-70.2,0.53-105.31c0.06-11.1,0.11-22.19,0.17-33.29
	c0.04-8.18,6.95-14.95,15.11-14.89c8.19,0.06,14.93,6.93,14.89,15.11c0,1.12-0.01,2.25-0.02,3.37c0,0.08,0,0.16,0,0.24
	c-0.17,32.42-0.32,64.83-0.49,97.25c-0.18,35.64-0.36,71.28-0.54,106.92c-0.18,35.73-0.36,71.46-0.54,107.19
	c-0.18,35.85-0.36,71.7-0.54,107.55c-0.18,35.66-0.36,71.33-0.54,106.99c-0.18,35.42-0.35,70.83-0.53,106.25
	c-0.18,34.82-0.35,69.64-0.53,104.46c-0.15,30.35-0.3,60.7-0.46,91.05c-0.02,4.45-0.05,8.91-0.07,13.36
	c-0.05,8.14-6.89,14.89-15,14.89C495.91,941.53,495.87,941.53,495.84,941.53z"/>
<path class="st0" d="M807.25,944.02c-20.2-0.02-40.41-0.05-60.61-0.07c-25.14-0.03-50.28-0.06-75.41-0.09
	c-26.27-0.03-52.54-0.06-78.82-0.09c-26.09-0.03-52.18-0.06-78.27-0.09c-26.72-0.03-53.44-0.06-80.15-0.09
	c-26.22-0.04-52.45-0.06-78.66-0.09c-25.93-0.03-51.86-0.06-77.79-0.09c-26.08-0.03-52.16-0.06-78.24-0.09
	c-3.73,0-7.45-0.02-11.18-0.02c-8.17,0-15.01-6.8-15.02-14.98c-0.01-8.17,6.81-15.02,14.98-15.02c24.3,0,48.61,0.05,72.91,0.09
	c26.02,0.03,52.05,0.06,78.07,0.09c26.56,0.03,53.13,0.06,79.69,0.09c26.2,0.03,52.39,0.06,78.59,0.09
	c26.35,0.03,52.7,0.06,79.05,0.09c26.16,0.03,52.32,0.06,78.49,0.09c25.7,0.03,51.41,0.06,77.12,0.09
	c23.05,0.03,46.1,0.06,69.15,0.08c2.02,0,4.03,0,6.05,0.01c8.17,0.01,15.01,6.79,15.02,14.98c0.01,8.16-6.8,15.02-14.97,15.02
	C807.26,944.02,807.25,944.02,807.25,944.02z"/>
<path class="st0" d="M728.52,735.58c-29.84-10.85-45.65-210.37-44.56-246.74c-2.02-46,2.31-92.52-1.19-138.07
	c-7.84-43.68-19.5-89.53-49.66-123.46c-15.19-14.1-30.96-27.87-48.62-38.81c-14.24-7.66-29.4-13.44-44.09-20.17
	c-6.97-2.74-14.03-5.41-21.5-6.41c-6.41-0.65-13.1,1.94-18.55-3.38c-13.61-12.94,1.22-30.85,17.85-26.83
	c19.55,1.25,37.12,10.64,54.75,18.3c23.52,8.68,44.13,23.12,62.91,39.52c28.8,21.57,46.48,53.45,59.32,86.41
	c8.21,27.48,16.59,55.52,18.51,84.28c1.82,30.53-1.51,61.02,0.06,91.53c-0.7,43.15,1.03,86.18,6.33,129.02
	c3.05,34.42,8.89,68.48,16.16,102.22c2.74,10.86,5.75,21.69,10.57,31.83C752.61,726.22,740.66,740.1,728.52,735.58z"/>
<path class="st0" d="M534.32,814.87c-7.44,0.05-14.87-0.1-22.27-0.84c-10.02,0.33-20.44-2.5-21.82-13.78
	c-1.64-10.03,8.79-19.14,18.52-16.36c24.34,1.92,48.78,0.98,73.1-0.88c23-1.97,46.51-4.25,67.73-14
	c15.62-5.91,29.68-14.98,42.83-25.18c12.01-8.52,22.93-18.38,32.71-29.39c14.28-13.51,34.77,6.68,21.24,21.19
	c-20.75,22.43-45.63,41.7-72.84,55.65c-9.64,4.36-19.35,8.67-29.45,11.86c-15.24,4.76-31.04,6.94-46.86,8.57
	C575.16,813.7,555.99,815.08,534.32,814.87z M519.85,795.79c-0.2-1.11-0.49-2.26-1.01-3.26
	C519.27,793.56,519.61,794.65,519.85,795.79z"/>
<path class="st0" d="M374.62,245.7c3.19-17.79,40.2-43.18,57.78-45.5c22.17-4.04,28.39,27.86-0.16,31.1
	c-10.5,4.78-19.72,12.24-27.7,20.49c-2.06,6.31-7.57,11.38-14.68,11.33C380.83,263.12,373.16,254.85,374.62,245.7z"/>
<path class="st0" d="M387.26,555.36c0.54-18.23,1.5-37.43-6.71-54.28c-7.29-12.51-18.44-22.3-26.92-33.98
	c-13.89-19.83-13.57-45.9-9.4-68.82c2.65-16.77,9.05-32.44,13.93-48.6c1.91-5.6,2.96-11.97,6.62-16.75
	c4.92-6.38,14.69-7.81,21.04-2.71c6.48,4.83,7.35,13.94,3.36,20.66c-3.03,9.89-5.97,19.81-9.66,29.47
	c-6,21.8-13.38,47.56-1.93,68.71c23.27,28.06,38.02,40.92,39.82,80.21c0.45,8.71,0.02,17.38-0.16,26.09
	C416.72,574.99,387.67,575.09,387.26,555.36z"/>
<path class="st0" d="M317.02,726.51c1.5-41.26-41.59-41.59-46.55-85.8c-1.76-22.32,3.57-44.54,11.98-65.1
	c4.61-13.54,16.6-29.99,31.38-17.33c5.93,5.71,5.71,15.76-0.18,21.41c-2.8,4.94-4.65,10.36-6.62,15.67
	c-5.48,18.16-12.66,40.71-0.21,57.46c4.51,6.7,11.57,11,16.98,16.9c15.35,14.71,23.97,35.52,23.22,56.79
	C346.59,746.14,317.55,746.24,317.02,726.51z"/>
<path class="st0" d="M410.79,815.84c-17.04-1.92-64.27-15.39-62.48-36.98c0.79-10.43,13.32-16.91,22.34-11.65
	c3.65,2.07,5.73,5.63,9.45,7.58c5.6,3.43,11.86,5.52,18.05,7.6c16.76,6.1,21.77,2.18,37.85,1.59c19.8,0.12,20.29,29.18,0.62,30
	C427.96,814.11,419.47,816.69,410.79,815.84z M363.7,795.36c1.95-0.1,3.85-0.46,5.63-1.26c-3.13,1.32-6.68,1.6-10.04,0.66
	C360.73,795.22,362.22,795.32,363.7,795.36z"/>
<path class="st0" d="M808.54,206.64c-12.22-2.68-23.3-10.09-30.61-20.22c-3.7-5.13-6.42-10.88-8.09-16.98
	c-1.71-6.29-1.99-12.67-1.45-19.13c0.55-6.71,2.95-13.22,6.03-19.16c2.99-5.76,7.33-10.64,12.18-14.89
	c6.66-5.84,15.27-9.74,23.96-11.33c5.35-0.98,10.98-1.25,16.41-0.49c8.58,1.08,16.84,4.62,23.81,9.64
	c4.23,3.04,8.09,6.89,11.14,11.12c3.39,4.7,5.84,9.74,7.7,15.22c3.83,11.29,2.91,24.01-1.38,35c-4.33,11.09-12.98,20.59-23.43,26.23
	c-7.69,4.14-16.2,6.23-24.8,6.23C816.17,207.88,812.33,207.47,808.54,206.64z M821.48,177.91c0.93-0.09,1.86-0.21,2.79-0.37
	c1.05-0.25,2.09-0.53,3.12-0.86c0.86-0.33,1.7-0.69,2.54-1.08c0.81-0.44,1.6-0.91,2.38-1.4c0.75-0.54,1.48-1.1,2.2-1.69
	c0.7-0.65,1.38-1.32,2.03-2.02c0.58-0.7,1.14-1.42,1.68-2.17c0.54-0.86,1.05-1.73,1.53-2.62c0.39-0.84,0.75-1.69,1.08-2.56
	c0.29-0.91,0.54-1.82,0.76-2.75c0.16-0.93,0.29-1.87,0.38-2.81c0.04-1.07,0.04-2.13,0-3.2c-0.1-0.95-0.22-1.89-0.38-2.82
	c-0.23-0.95-0.48-1.89-0.78-2.82c-0.35-0.91-0.72-1.81-1.14-2.69c-0.43-0.8-0.89-1.59-1.38-2.36c-0.53-0.75-1.09-1.48-1.68-2.19
	c-0.65-0.7-1.33-1.37-2.02-2.02c-0.73-0.6-1.48-1.18-2.25-1.74c-0.76-0.48-1.54-0.93-2.33-1.36c-0.92-0.43-1.85-0.83-2.8-1.19
	c-0.95-0.3-1.91-0.57-2.88-0.8c-0.4-0.07-0.79-0.13-1.19-0.19c-0.39-0.05-0.78-0.1-1.17-0.13c-1.12-0.04-2.24-0.04-3.37-0.01
	c-0.99,0.11-1.97,0.25-2.95,0.41c-0.94,0.23-1.87,0.49-2.8,0.77c-0.99,0.39-1.97,0.82-2.94,1.27c-0.64,0.36-1.28,0.73-1.91,1.12
	c-0.93,0.67-1.83,1.36-2.71,2.09c-0.59,0.57-1.16,1.14-1.72,1.73c-0.55,0.68-1.09,1.36-1.61,2.07c-0.54,0.86-1.05,1.72-1.54,2.61
	c-0.39,0.87-0.76,1.74-1.11,2.63c-0.3,0.96-0.56,1.93-0.8,2.91c-0.16,0.96-0.29,1.91-0.39,2.88c-0.03,0.98-0.03,1.95-0.01,2.92
	c0.1,0.95,0.23,1.9,0.39,2.84c0.23,0.95,0.48,1.88,0.77,2.82c0.36,0.93,0.75,1.85,1.17,2.75c0.43,0.79,0.89,1.56,1.36,2.33
	c0.54,0.76,1.11,1.49,1.69,2.22c0.65,0.7,1.32,1.37,2.01,2.03c0.68,0.56,1.37,1.1,2.08,1.61c0.83,0.53,1.67,1.02,2.53,1.5
	c0.91,0.42,1.83,0.81,2.77,1.17c0.91,0.28,1.82,0.53,2.75,0.76c0.93,0.16,1.86,0.29,2.8,0.39
	C819.44,177.93,820.46,177.94,821.48,177.91z"/>
<path class="st0" d="M831.55,470.11c-12.89-5.07-22.68-15.96-26.45-29.29c-1.66-5.9-2.07-12.41-1.03-18.45
	c0.59-3.46,1.46-6.9,2.86-10.14c1.43-3.32,3.23-6.3,5.29-9.26c4.36-6.26,10.88-10.89,17.71-14.06c5.22-2.42,11.21-3.61,16.95-3.7
	c0.04,0,0.07,0,0.11,0c0.1,0,0.2,0,0.3,0c11.61,0.01,23.04,4.7,31.25,12.92c9.79,9.8,14.42,23.98,12.35,37.67
	c-1.95,12.92-9.92,24.79-21.28,31.32c-6.81,3.91-14.55,5.95-22.3,5.95C841.97,473.08,836.62,472.11,831.55,470.11z M848.45,443.08
	c0.64-0.07,1.28-0.16,1.92-0.27c0.55-0.14,1.09-0.28,1.63-0.45c0.56-0.22,1.11-0.45,1.65-0.69c0.53-0.29,1.06-0.6,1.57-0.92
	c0.5-0.37,0.99-0.75,1.47-1.14c0.43-0.41,0.84-0.83,1.25-1.25c0.38-0.46,0.74-0.93,1.09-1.41c0.3-0.49,0.59-0.98,0.86-1.48
	c0.26-0.58,0.51-1.17,0.74-1.76c0.18-0.6,0.34-1.2,0.49-1.81c0.1-0.61,0.18-1.21,0.25-1.82c0.02-0.6,0.02-1.19,0-1.79
	c-0.07-0.63-0.16-1.26-0.26-1.89c-0.16-0.63-0.33-1.25-0.51-1.86c-0.21-0.54-0.44-1.08-0.68-1.61c-0.29-0.52-0.59-1.04-0.91-1.55
	c-0.34-0.47-0.7-0.93-1.06-1.38c-0.41-0.43-0.82-0.85-1.25-1.26c-0.47-0.38-0.94-0.75-1.43-1.1c-0.47-0.29-0.95-0.57-1.44-0.85
	c-0.62-0.28-1.25-0.55-1.88-0.8c-0.61-0.18-1.22-0.35-1.84-0.5c-0.66-0.11-1.32-0.2-1.98-0.27c-0.28-0.01-0.56-0.01-0.85-0.01
	c-0.06,0-0.12,0-0.18,0c-0.07,0-0.15,0-0.22,0.01c-0.05,0-0.11,0-0.16,0c-0.55,0.06-1.1,0.14-1.64,0.22
	c-0.69,0.17-1.38,0.35-2.06,0.55c-0.58,0.23-1.16,0.47-1.73,0.73c-0.56,0.31-1.11,0.63-1.65,0.96c-0.42,0.31-0.83,0.63-1.24,0.96
	c-0.46,0.43-0.91,0.88-1.36,1.33c-0.39,0.48-0.77,0.97-1.14,1.47c-0.32,0.52-0.62,1.04-0.92,1.57c-0.22,0.49-0.43,0.99-0.64,1.49
	c-0.2,0.65-0.38,1.29-0.54,1.95c-0.09,0.61-0.18,1.21-0.24,1.82c-0.02,0.65-0.01,1.31,0,1.96c0.07,0.58,0.15,1.15,0.24,1.72
	c0.14,0.56,0.29,1.11,0.45,1.66c0.23,0.59,0.47,1.17,0.72,1.75c0.3,0.55,0.62,1.1,0.95,1.64c0.34,0.46,0.69,0.92,1.05,1.37
	c0.38,0.4,0.77,0.79,1.17,1.18c0.5,0.41,1.01,0.8,1.53,1.18c0.55,0.33,1.1,0.65,1.66,0.95c0.45,0.2,0.9,0.39,1.35,0.57
	c0.69,0.21,1.38,0.4,2.08,0.58c0.61,0.09,1.22,0.17,1.84,0.24C847.23,443.1,847.84,443.1,848.45,443.08z"/>
<path class="st0" d="M90.18,569.47c0-8.18,6.82-15,15-15s15,6.82,15,15s-6.82,15-15,15S90.18,577.65,90.18,569.47z"/>
<path class="st0" d="M215.97,184.33c0-8.18,6.82-15,15-15s15,6.82,15,15c0,8.18-6.82,15-15,15S215.97,192.51,215.97,184.33z"/>
<path class="st0" d="M186.25,372.19c-31.31-13.25-42.05-50.53-43.36-81.86c-0.85-10.03,5.58-15.96,12.73-17.17
	c0,0.4,0.01,0.81,0.03,1.21c0.11,2.27,0.42,4.55,0.58,6.82c0.38,5.2,1.27,10.25,2.14,15.37c0.47,2.77,0.99,5.48,1.64,8.22
	c0.68,2.85,1.73,5.57,2.77,8.31c0.8,2.09,1.61,4.19,2.64,6.18c0.88,1.69,1.82,3.33,2.74,5c1.84,3.61,3.5,7.21,6.12,10.39
	c2.98,3.62,6.5,6.23,10.75,8.16c1.5,0.68,3.09,1.04,4.67,1.43c1.79,0.74,3.65,1.08,5.5,1.08c1.04,0,2.07-0.11,3.09-0.31
	c0.99,0.47,2.02,0.9,3.1,1.27c14.14,8.8,5.83,28.05-7.43,28.05C191.53,374.33,188.92,373.68,186.25,372.19z"/>
<path class="st0" d="M144.24,455.82c-0.46-30.83,11.55-76.45,34.06-98.32c6.75-4.08,11.06-12.25,19.83-12.18
	c11.72-0.18,18.88,13.57,12.71,23.32c-3.14,5.38-9.04,8.29-13.69,12.18c-15.44,21.26-22.93,48.81-22.91,74.99
	C173.77,475.46,144.69,475.52,144.24,455.82z"/>
<path class="st0" d="M146.58,463.38c-7.11-7.68-3.6-19.36-6.34-28.77c-4.86-20.32-12.48-41.12-27.85-55.88
	c-8.55-8.41-21.6-4.93-22.38-20.59c-0.29-9.42,9.07-17.17,18.27-15.21c26.78,7.28,43.27,33.58,52.91,57.99
	c4.99,13.66,17.71,51.14,6.6,62.46C162.2,469.18,152.17,469.19,146.58,463.38z"/>
<path class="st0" d="M107.01,372c-12.77-1.27-17.68-19.32-7.13-26.74c8.8-5.7,16.24-13.07,22.16-21.73
	c5.8-9.91,12.09-19.69,15.96-30.56c3.34-8.3,2.99-15.95,9.55-21.57c2.46-1.97,5.48-2.98,8.54-3.08c-0.39,2-0.53,4.05-0.44,6.05
	c0.11,2.27,0.42,4.55,0.58,6.82c0.38,5.2,1.27,10.25,2.14,15.37c0.47,2.77,0.99,5.48,1.64,8.22c0.62,2.6,1.55,5.09,2.5,7.58
	c-1.03,2.3-2.15,4.57-3.37,6.79c-9.11,17.08-19.36,34.41-35.41,45.85c-4.35,3.31-9.11,7.19-14.7,7.19
	C108.37,372.17,107.69,372.11,107.01,372z"/>
<path class="st0" d="M94.62,115.34c0-8.18,6.82-15,15-15s15,6.82,15,15s-6.82,15-15,15S94.62,123.51,94.62,115.34z"/>
<path class="st0" d="M176.52,931.49c-2.98-2.3-5.37-6.02-5.7-9.84c-1-15.28-0.52-30.61-1.21-45.92c0.04-31.38-1.14-62.98,4.51-94
	c1.95-20.98,33.97-109.54,61.38-71.69c3.09,7.32-0.28,16.11-7.47,19.43c-3.83,3.72-6.51,8.39-8.97,13.09
	c-12.38,23.19-17.56,48.96-18.91,75.02c-1.02,26.57-0.73,53.2,0.04,79.78c-1.23,10.06,3.28,22.88-2.63,31.43
	C192.76,935.24,182.81,936.54,176.52,931.49z"/>
<path class="st0" d="M794.7,922.79c-2.02-39.84,0.52-79.94-5.06-119.54c-4.5-37.28-11.25-67.78-41.42-92.78
	c-9.18-9.51-29.47-8.71-29.87-24.98c-0.14-11.89,13.62-18.73,23.52-12.78c18.74,6.69,32.78,20.68,45.81,35.16
	c21.46,25.77,27.75,60.32,31.83,92.72c5.59,40.55,3.17,81.49,5.18,122.21C824.25,942.39,795.2,942.54,794.7,922.79z"/>
<path class="st0" d="M367.42,898.76c-26.48-4.48-55.4-8.1-76.07-26.93c-40.48-32.89-41.97-89.73-64.57-133.55
	c-13.11-24.51-30.66-46.42-42.56-71.64c-11.09-20.29-19.14-43.34-13.6-66.57c6.44-36.62,34.81-64.04,45.29-99.33
	c9.5-31.35,13.53-64.06,20.65-95.99c7.74-35.34,19.5-69.6,30.34-104.07c21.61-72.78,70.97-130.73,142.85-157.38
	c10.99-5.05,23.01-6.91,34.51-10.42c15.63-3.46,47.91-13.98,50.15,10.13c-1.72,19.99-20.2,12.85-33.62,16.7
	c-11.2,2.77-22.34,5.84-33.49,8.79c-11.38,4.66-22.59,9.84-33.8,14.91c-54.44,29.66-84.96,79-101.69,137.26
	c-6.05,21.01-13.12,41.67-19.18,62.65c-9.99,36.84-15.31,74.71-23.85,111.88c-5.44,21.4-14.62,41.68-25.43,60.88
	c-8.89,15.11-19.44,29.85-22.87,47.37c-5.47,19.47,4.13,37.75,12.91,54.61c12.98,25.38,31.45,47.55,43.35,73.49
	c22.85,44.87,22.54,116.22,80.72,130.92c18.53,3.26,36.12,10.54,54.54,2.29c27.59-8.19,50.47-27.96,78.98-33.06
	c10.85-1.37,25.6-5.43,33.62,4.25c5.03,6.26,3.77,16.26-2.71,21.04c-5.07,4.21-11.55,2.67-17.58,2.99
	c-5.97,0.64-11.93,1.75-17.66,3.59C434.52,877.03,403.75,900.07,367.42,898.76z"/>
<path class="st0" d="M644.66,616.56c-9.14-1.12-14.39-10.35-12.67-19c0.73-10.86,1.47-21.72,2.24-32.58
	c1.45-20.93,1.24-41.92,1.94-62.88c0.57-33.41-0.17-66.85-1.86-100.22c-2.21-33.51-6.82-67.1-21.45-97.71
	c-6.49-15.94-12.98-32.73-26.58-44.06c-29.71-18.41-4.87-43.92,11.58-29.3c18.8,13.73,31.92,33.35,39.88,55.06
	c31.34,64.83,27.71,138.56,28.57,208.79c-0.73,29.47-0.81,58.97-3.34,88.37C661.83,596.47,664.44,618.27,644.66,616.56z"/>
<path class="st0" d="M190.31,369.57c-31.3-14.45-47.92-59.5-48.96-92.09c0.48-19.66,29.52-19.7,30,0c0,6.91,1.03,13.87,3.17,20.45
	c6.18,17.28,11.07,34.67,27.47,43.99C220.05,349.94,208.44,376.98,190.31,369.57z"/>
</svg>
