<?xml version="1.0" encoding="utf-8"?>
<!-- Generator: Adobe Adobe Illustrator 24.2.0, SVG Export Plug-In . SVG Version: 6.00 Build 0)  -->
<svg version="1.1" id="Capa_de_vector_1_" xmlns="http://www.w3.org/2000/svg" xmlns:xlink="http://www.w3.org/1999/xlink" x="0px"
	 y="0px" viewBox="0 0 1000 1000" style="enable-background:new 0 0 1000 1000;" xml:space="preserve">
<style type="text/css">
	.st0{fill:#A46460;}
</style>
<path class="st0" d="M233.6,836.47c-12.22-5.22-14.3-30.74-17.73-42.61c-12.88-56.09-7.31-114.78,7.9-169.85
	c5.4-24.46,15.3-47.13,27.47-68.92c21.13-44.83,50.52-85.7,66.13-133.09c22.08-64.07,14.82-132.61-7.26-195.62
	c-5.73-16.53-13.96-32.02-20.81-48.08c-3.31-6.95-9.44-13.75-7.1-21.93c1.99-7.78,10.73-12.77,18.45-10.48
	c10.55,2.96,13.96,17.67,18.87,26.37c11.73,25.28,22.73,50.9,29.12,78.14c11.16,43.05,16.19,88.13,9,132.28
	c-5.93,36.04-17.91,71.06-35.23,103.21c-21.16,39.13-43.77,77.65-61.78,118.37C240.26,667.51,230,735.99,248.29,801
	c1.42,5.34,2.58,10.79,4.97,15.81C258.8,828.55,245.38,842.01,233.6,836.47z"/>
<path class="st0" d="M755.4,848.07c-6.22-3.64-9.1-11.73-6.47-18.37c1.96-11.87,3.96-23.73,5.99-35.58
	c3.51-22.46,5.55-45.11,4.72-67.86c-0.51-33.72-3.67-67.87-13.56-100.24c-5.06-15-12.74-28.81-19.86-42.89
	c-6.14-12.75-15.1-23.79-22.95-35.47c-7.56-12.04-14.83-24.24-22.29-36.34c-10.24-19.14-19.49-38.91-27.51-59.08
	C646,431.36,643.77,409,640.5,387.2c-3.24-23.07-0.99-46.3,1.56-69.32c3.16-28.89,5.18-58.25,16.39-85.41
	c9.44-26.28,17.15-53.3,25.72-79.83c4.62-17.9,31.69-13.29,29.42,5.54c-3.64,13.69-8.64,27.08-12.45,40.77
	c-6.92,24.38-17.38,47.7-23.19,72.38c-4.04,28.69-7.51,57.58-9.11,86.53c0.97,36.69,6.29,74.53,22.94,107.62
	c13.78,31.42,32.6,60.19,52.14,88.26c11.58,19.64,22.42,40.07,30.14,61.56c9.02,27.75,12.93,57.01,14.69,86.07
	c2.97,41.3-0.53,82.56-8.61,123.11c-1.31,6.07-1.13,12.7-4.23,18.21C771.91,849.66,762.33,852.3,755.4,848.07z"/>
<path class="st0" d="M413.75,595.19c-20.84-1.45-41.6-3.95-62.15-7.69c-21.7-3.95-43.25-9.38-63.77-17.58
	c-5.99-2.39-11.92-5.09-17.61-8.13c-7.2-3.85-9.55-13.53-5.58-20.47c1.93-3.37,5.16-5.91,8.9-6.98c3.94-1.12,7.99-0.51,11.57,1.4
	c0.86,0.46,1.72,0.89,2.59,1.32c7.46,3.59,15.14,6.63,22.96,9.33c13.57,4.47,27.42,7.9,41.42,10.71
	c20.05,3.82,40.31,6.37,60.66,7.96c4.01,0.31,8.02,0.58,12.03,0.83c20.22,1.11,40.46,1.41,60.71,0.97
	c14.38-0.31,28.75-1.07,43.09-2.14c20.21-1.61,40.36-3.92,60.39-7.01c12.92-2,25.77-4.37,38.55-7.07
	c19.1-4.14,38.02-9.09,56.59-15.21c2.95-0.97,5.88-1.98,8.81-3.02c4.44-1.6,8.85-3.28,13.23-5.04c3.77-1.52,7.89-1.67,11.68-0.11
	c3.58,1.47,6.52,4.35,8.06,7.9c3.19,7.35-0.21,16.69-7.79,19.74c-17.86,7.19-36.24,13.06-54.84,18.01
	c-20.15,5.36-40.62,9.65-61.19,13.07c-20.34,3.39-40.81,5.95-61.35,7.78c-21.01,1.88-42.09,2.97-63.19,3.25
	c-3.26,0.04-6.52,0.06-9.78,0.06C449.73,597.07,431.73,596.43,413.75,595.19z"/>
<path class="st0" d="M495.61,831.74c-3.75-1.03-7-3.54-8.96-6.89c-2.08-3.55-2.45-7.6-1.51-11.56c1.19-5.03,2.95-9.95,4.86-14.75
	c3.57-8.98,7.95-17.64,12.56-26.13c7.94-14.61,16.89-28.65,26.19-42.43c11.23-16.57,23.07-32.7,35.41-48.46
	c12.52-15.99,25.57-31.54,39.03-46.75c13.42-15.17,27.34-29.92,41.88-44.02c6.43-6.23,12.99-12.31,19.71-18.23
	c0.43-0.42,0.87-0.82,1.34-1.18c0.92-0.8,1.83-1.6,2.76-2.4c7.56-6.55,15.37-12.88,23.61-18.57c4.59-3.16,9.24-6.28,14.16-8.92
	c3.58-1.93,7.58-2.61,11.55-1.51c3.75,1.03,7,3.54,8.96,6.89c4.06,6.93,1.77,16.57-5.38,20.52c-0.3,0.17-0.61,0.33-0.91,0.5
	c-3.15,1.74-6.2,3.68-9.2,5.68c-8.26,5.72-16.11,11.98-23.73,18.52c-0.98,0.84-1.94,1.68-2.91,2.52c-0.01,0.01-0.01,0.01-0.02,0.02
	c-0.66,0.58-1.32,1.17-1.98,1.76c-1.93,1.73-3.85,3.46-5.75,5.22c-14.93,13.76-29.12,28.32-42.84,43.29
	c-3.97,4.33-7.88,8.7-10.5,11.66c-13.04,14.82-25.66,30.01-37.77,45.59c-11.38,14.64-22.36,29.6-32.79,44.94
	c-0.25,0.38-0.51,0.75-0.76,1.13c-10.2,15.17-19.91,30.76-28.18,47.08c-0.06,0.12-0.12,0.24-0.18,0.36
	c-3.05,6.16-5.9,12.44-8.21,18.92c-0.74,2.22-1.41,4.46-1.95,6.74c-1.58,6.66-8.07,10.99-14.63,10.99
	C498.15,832.25,496.86,832.09,495.61,831.74z"/>
<path class="st0" d="M483.84,832.71c-6.88-1.55-9.82-8.09-12.39-13.94c-3-5.44-5.78-11.01-8.49-16.6
	c-10.87-21.22-22.48-42.11-35-62.4c-14.14-22.48-26.19-46.29-43.74-66.45c-22.2-26.53-43.99-54.35-72.69-74.22
	c-13.33-7.84-25.13-18.02-39.17-24.65c-20.12-9.17-4.84-37.95,14.35-26.3c10.2,4.82,19.52,11.11,28.54,17.82
	c9.26,5.69,18.36,11.62,26.79,18.51c33.45,28.95,62.03,63.65,87.53,99.69c19.84,33.69,41.03,66.67,58.65,101.61
	c3.93,10.62,16.82,25.82,14.06,36.46C500.29,830.03,491.56,835,483.84,832.71z"/>
<path class="st0" d="M495.13,507.75c-18-8.13-6.63-35,11.73-27.79C524.82,488.04,513.41,515.09,495.13,507.75z"/>
<path class="st0" d="M947.32,339.02c-20-0.1-40-0.21-60-0.31c-18.46-0.09-36.92-0.19-55.39-0.28c-0.05,0-0.1,0-0.15,0
	c-0.12,0-0.23,0-0.35,0c-0.3,0-0.6,0-0.91,0c-4-0.02-7.79-1.38-10.7-4.17c-2.86-2.74-4.53-6.56-4.61-10.52
	c-0.16-8.01,6.51-15.35,14.69-15.3c0.42,0,0.83,0,1.25,0c0.1,0,0.19,0,0.29,0c20.52,0.11,41.04,0.21,61.56,0.31
	c17.9,0.09,35.79,0.18,53.69,0.27c4,0.02,7.79,1.38,10.7,4.18c2.86,2.74,4.53,6.55,4.61,10.51c0.17,7.99-6.47,15.31-14.62,15.31
	C947.36,339.02,947.34,339.02,947.32,339.02z"/>
<path class="st0" d="M818.66,332.34c-5.64-5.63-5.98-15.62-0.02-21.21c13.32-12.51,26.64-25.01,39.97-37.52
	c1.8-1.68,3.6-3.36,5.38-5.05c0.03-0.03,0.07-0.07,0.1-0.1c0.05-0.05,0.11-0.1,0.16-0.14c2.96-2.73,6.52-4.4,10.6-4.41
	c3.96,0,7.81,1.59,10.61,4.38c5.66,5.64,5.96,15.6,0.02,21.21c-0.04,0.04-0.08,0.07-0.11,0.11c0,0,0,0-0.01,0.01
	c-0.01,0.01-0.02,0.02-0.04,0.04c-0.08,0.07-0.15,0.15-0.23,0.22c-13.81,13.05-27.72,26.01-41.57,39.02
	c-1.21,1.14-2.43,2.29-3.65,3.43c-2.92,2.74-6.55,4.4-10.6,4.41C825.32,336.73,821.46,335.14,818.66,332.34z"/>
<path class="st0" d="M857.57,378.26c-11.95-12.16-23.77-24.45-35.65-36.68c-1.52-1.56-3.04-3.12-4.55-4.68
	c-0.06-0.06-0.11-0.12-0.17-0.17c-0.04-0.04-0.07-0.07-0.11-0.11c-5.69-5.87-5.29-15.64,0.6-21.2c6-5.67,15.51-5.27,21.2,0.6
	c0.01,0.01,0.03,0.03,0.04,0.04c12.5,12.92,25.06,25.78,37.59,38.66c0.95,0.98,1.9,1.96,2.86,2.94c5.73,5.83,5.25,15.67-0.6,21.2
	c-2.87,2.72-6.53,4.03-10.19,4.03C864.57,382.89,860.56,381.31,857.57,378.26z"/>
<path class="st0" d="M166.18,340.13c-19.45-0.11-38.89-0.22-58.33-0.33c-18.7-0.11-37.4-0.14-56.1-0.32
	c-4-0.04-7.78-1.38-10.69-4.18c-2.85-2.74-4.52-6.56-4.6-10.52c-0.16-7.99,6.52-15.37,14.7-15.29c19.4,0.18,38.8,0.22,58.2,0.33
	c18.74,0.11,37.48,0.21,56.23,0.32c4,0.02,7.79,1.39,10.69,4.19c2.86,2.74,4.52,6.56,4.6,10.52c0.16,7.99-6.48,15.29-14.62,15.29
	C166.23,340.13,166.21,340.13,166.18,340.13z"/>
<path class="st0" d="M119.78,384.79c-3.88-0.53-7.45-2.61-9.83-5.71c-2.44-3.16-3.52-7.25-2.98-11.2c0.55-4.05,2.7-7.2,5.71-9.84
	c0.07-0.07,0.15-0.13,0.23-0.2c0.03-0.02,0.05-0.05,0.08-0.07c10.14-8.87,20.28-17.74,30.42-26.6c5.72-5,11.43-10.02,17.16-15.01
	c2.95-2.56,7.42-3.5,11.2-2.98c3.88,0.53,7.45,2.61,9.83,5.7c2.44,3.16,3.52,7.25,2.98,11.21c-0.55,4.04-2.69,7.21-5.71,9.83
	c-13.16,11.45-26.26,22.97-39.39,34.45c-2.69,2.35-5.38,4.7-8.06,7.05c-0.07,0.06-0.14,0.12-0.21,0.18
	c-0.08,0.07-0.15,0.13-0.23,0.2c-2.42,2.11-5.89,3.12-9.15,3.12C121.14,384.92,120.45,384.88,119.78,384.79z"/>
<path class="st0" d="M152.01,334.8c-11.48-13.12-22.96-26.25-34.44-39.38c-0.94-1.07-1.88-2.15-2.82-3.23
	c-5.38-6.15-4.65-15.83,1.51-21.16c6.2-5.37,15.78-4.64,21.16,1.51c0.36,0.41,0.71,0.81,1.07,1.22c0,0.01,0.01,0.01,0.01,0.02
	c11.45,13.09,22.9,26.19,34.35,39.28c0.61,0.7,1.22,1.39,1.83,2.09c5.38,6.14,4.65,15.83-1.51,21.16c-2.8,2.42-6.29,3.61-9.77,3.61
	C159.17,339.92,154.96,338.18,152.01,334.8z"/>
<path class="st0" d="M215.77,179.56c-8.56-6.06-6.39-24.31-7.47-34.21c0.47-19.67,29.52-19.69,30,0c-1.02,10.4,5.03,22.25-1.49,31.5
	C232.01,183.32,222.06,184.61,215.77,179.56z"/>
<path class="st0" d="M223.94,260.52c-6.19-4.55-6.06-12.66-6.94-19.57c-0.79-6.87-2.02-13.68-2.94-20.53
	c-2.85-12.02,5.92-25.31,19.19-21.56c7.81,1.79,12.39,10.48,10.59,18c0.57,4.76,1.46,9.48,2.12,14.22c0.72,5.16,1.08,10.4,2,15.53
	C250.31,259.41,233.85,268.79,223.94,260.52z"/>
<path class="st0" d="M225.12,342.94c-18.96-3.26-10.8-24.53-12.22-37.85c-1.49-13.4,3.11-28.71,19.62-25.13
	c15.66,4.9,9.28,20.17,10.43,32.34C242.87,325.77,243.74,344.13,225.12,342.94z"/>
<path class="st0" d="M195.08,424.83c-18.83-9.22-2.31-29.67,1.52-43.32c2.07-8.67,6.93-18.45,17.26-18.1c8.18,0,15,6.83,15,15
	c-1.05,7.97-5.26,15.06-7.62,22.74C216.22,413.21,212.19,430.86,195.08,424.83z"/>
<path class="st0" d="M161.28,492.93c-16.73-8.63-6.33-23.56,0.12-35.4c4.07-7.38,7.58-17.33,17.18-18.48
	c12.72-2.21,22.29,14.07,13.91,24.03c-1.7,2.69-3.07,5.63-4.57,8.43C181.97,482.22,177.1,499.05,161.28,492.93z"/>
<path class="st0" d="M128.45,582.16c-18.33-5.83-8.11-26.4-4.31-39.09c4.25-13.75,8.63-36.13,28.14-26.93
	c15.02,9.16,2.19,26.02-0.36,38.53C147.52,567.24,146.84,585.89,128.45,582.16z M155.19,539.75c0.53-0.5,1.04-1.07,1.45-1.68
	C156.2,538.67,155.72,539.23,155.19,539.75z"/>
<path class="st0" d="M115.93,653.36c-9.96-6.6-5.25-32.55-6.39-44.16c0-8.18,6.82-15,15-15c8.26-0.01,15.14,6.98,15,15.25
	c0,10.48-0.12,20.98,0.42,30.01C142.1,652.3,126,661.65,115.93,653.36z"/>
<path class="st0" d="M120.3,727.37c-2.27-11.19-7.15-21.65-9.25-32.86c-3.65-22.11,28.54-26.55,30.04-4.07
	c1.39,12.88,12.81,27.75,6.63,40.51C141.71,742.18,123.17,739.92,120.3,727.37z"/>
<path class="st0" d="M155.19,814.27c-9.79-4.68-11.43-18.4-17.55-26.81c-8.36-11.22-5.27-27.92,10.54-28.51
	c12.75-0.16,14.48,13.2,19.92,21.72c2.41,4.57,4.56,9.25,6.75,13.93C180.45,806.4,166.93,819.74,155.19,814.27z"/>
<path class="st0" d="M189.26,883.1c-10.17-2.63-11.59-14.81-17.77-21.88c-9.73-9.66-4.63-27.4,9.93-27.42
	c10.49-0.18,14.31,10.24,19.41,17.4c3.5,6.61,9.08,13.51,6.87,21.42C205.72,880.43,196.98,885.38,189.26,883.1z"/>
<path class="st0" d="M768.11,186.93c-7.99-1.09-14.08-8.82-12.83-16.9c1.82-9.83,2.83-19.95,4.89-29.68
	c4.8-16.42,29.23-13.11,29.41,4.11c-1.21,9.94-3.04,19.74-4.57,29.64C783.79,182.22,776.15,188.08,768.11,186.93z"/>
<path class="st0" d="M752.28,246.9c0.2-6.02,0.47-12.04,0.53-18.06c0.75-9.54-2.59-21.91,6.16-28.59
	c10.08-8.29,26.14,1.06,24.03,13.91c-1.39,11.37,2.82,35.72-5.11,43.34C769.13,266.92,751.74,259.85,752.28,246.9z"/>
<path class="st0" d="M756.83,329.92c-0.59-11.25-3.34-23.88-0.98-34.8c5.15-18.2,32.7-11.81,29.15,6.88
	c-1.21,11.57,5.22,25.57-1.44,35.05C776.1,347.46,758.11,342.79,756.83,329.92z"/>
<path class="st0" d="M784.13,419.58c-9.47-6.08-9.61-22.43-14.81-32.28c-5.66-10.61,0.23-25.54,13.34-25.28
	c16.05,0.71,14,15.99,19.26,27.11c2.08,8.06,7.7,17.05,2.73,25.07C800.71,421.22,791.01,423.78,784.13,419.58z"/>
<path class="st0" d="M815.85,485.75c-3.88-6.94-7.91-13.78-12.35-20.38c-2.5-3.89-4.7-7.88-4.7-12.68c0-8.18,6.82-15,15-15
	c6.62,0,12.35,4.47,14.3,10.51c4.87,7.28,9.41,14.75,13.67,22.4C851.24,487.82,826.23,502.53,815.85,485.75z"/>
<path class="st0" d="M851.87,562.56c-1.75-4.48-3.59-8.88-5.68-13.2c-3.29-6.57-8.98-12.88-7.73-20.7
	c2.2-16.03,25.08-17.53,29.34-1.94c5.04,9.92,15.9,24.57,11.72,35.84C874.96,574.49,856.45,574.61,851.87,562.56z"/>
<path class="st0" d="M859.94,642.89c1.31-13.03-5.88-28.87,1.61-40.36c5.03-6.44,14.54-7.73,21.04-2.71
	c4.98,3.75,6.35,9.85,5.57,15.57c0.96,9.14,1.83,18.29,1.78,27.49C889.51,662.56,860.46,662.59,859.94,642.89z"/>
<path class="st0" d="M859.1,745.44c-6.97-2.52-10.93-11.96-8.44-18.33c2.29-7.35,3.4-14.99,4-22.65
	c-0.62-12.14,2.31-26.77,17.64-25.32c18.29,3.26,11.91,23.66,11.35,36.83C882.05,729.7,878.13,752.29,859.1,745.44z"/>
<path class="st0" d="M835.29,813.2c-12.03-5.25-9.76-17.65-5.12-27.4c3.89-10.54,4.06-27.03,18.97-27.02
	c17.98,1.84,16.29,17.38,11.42,30.49C856.65,801.92,852.5,819.11,835.29,813.2z"/>
<path class="st0" d="M801.29,880.63c-15.34-7.88-7.6-21.1-2.08-32.73c3.03-7.91,8-16.64,17.66-16.37
	c12.2-0.33,19.66,15.21,11.64,24.38C822.91,867.44,818.41,887.2,801.29,880.63z"/>
</svg>
