<?xml version="1.0" encoding="utf-8"?>
<!-- Generator: Adobe Adobe Illustrator 24.2.0, SVG Export Plug-In . SVG Version: 6.00 Build 0)  -->
<svg version="1.1" xmlns="http://www.w3.org/2000/svg" xmlns:xlink="http://www.w3.org/1999/xlink" x="0px" y="0px"
	 viewBox="0 0 1000 1000" style="enable-background:new 0 0 1000 1000;" xml:space="preserve">
<style type="text/css">
	.st0{fill:#C7CCAC;}
	.st1{fill:#FFFFFF;}
</style>
<g id="Grupo_de_capas_1_">
	<g id="Capa_de_vector_3_">
		<path class="st0" d="M968.41,392.97c8.18,35.65,12.16,72.25,12.08,108.82c-0.09,37.45-4.79,74.77-13.48,111.18
			c-4.41,18.47-10.07,36.6-16.64,54.42c-6.24,16.93-13.46,33.53-21.67,49.59c-8.87,17.36-18.64,34.19-29.47,50.39
			c-10.55,15.79-22.06,30.92-34.41,45.34c-24.65,28.79-52.79,54.72-83.54,76.88c-30.19,21.74-62.85,40.05-97.23,54.29
			c-35.15,14.55-71.99,24.92-109.57,30.83c-24.59,3.87-49.45,5.78-74.3,5.78c-13.6,0-27.2-0.57-40.75-1.71
			c-38.62-3.23-77.06-11.09-113.73-23.71c-18.12-6.23-35.86-13.39-53.16-21.63c-16.57-7.9-32.66-16.83-48.22-26.57
			c-32.71-20.48-62.88-45.08-89.72-72.79c-26.51-27.37-49.79-57.99-69.04-90.88c-18.88-32.25-33.98-66.63-44.96-102.36
			c-10.84-35.28-17.61-71.87-20.02-108.7c-2.46-37.72-0.6-75.67,5.75-112.94c6.2-36.34,16.58-72.02,30.94-105.96
			c7.25-17.15,15.53-33.84,24.64-50.06c9.2-16.37,19.54-32.06,30.57-47.25c22.34-30.77,48.71-58.57,77.69-83.15
			c28.5-24.17,59.95-44.8,93.27-61.68c34.41-17.44,71.1-30.79,108.73-39.32c37.27-8.46,75.36-12.63,113.58-12.22
			c37.57,0.41,74.96,5.45,111.42,14.48c35.39,8.77,69.88,21.84,102.29,38.55c2.72,1.4,5.43,2.82,8.12,4.27
			c0.15,0.08,0.3,0.16,0.45,0.23c0.04,0.02,0.08,0.04,0.12,0.07c1.78,0.96,3.56,1.93,5.32,2.91c0.07,0.04,0.13,0.07,0.2,0.11
			c0.11,0.06,0.21,0.12,0.32,0.18c0.9,0.5,1.79,1,2.69,1.5c0.1,0.06,0.2,0.12,0.3,0.18c18.04,10.21,35.4,21.62,51.96,34.08
			c30.42,22.9,57.86,49.41,82.15,78.71c23.94,28.87,44.33,60.82,60.73,94.54C947.89,322.38,960.19,357.15,968.41,392.97z"/>
	</g>
</g>
<g id="Capa_de_vector_2_">
	<path class="st1" d="M461.79,618.8c-11.63-0.54-23.02-6.16-29.82-15.77c-2.51-3.54-4.35-7.27-5.73-11.38
		c-1.09-3.23-1.47-6.61-1.69-9.98c-0.56-8.7,2.53-17.47,7.58-24.45c1.41-1.95,3.05-3.81,4.86-5.41c0.23-0.2,0.46-0.4,0.7-0.59
		c0.27-0.25,0.54-0.5,0.82-0.74c9.44-8.08,22.66-10.59,34.56-7.57c13.25,3.36,23.9,14.31,27.38,27.44
		c3.57,13.44-0.59,28.91-11.11,38.21c-3.68,3.25-7.77,6.05-12.43,7.72c-4.39,1.57-8.93,2.56-13.59,2.56
		C462.82,618.84,462.31,618.82,461.79,618.8z M463.67,588.83c0.39-0.04,0.78-0.1,1.17-0.16c0.37-0.09,0.74-0.2,1.11-0.31
		c0.35-0.14,0.7-0.29,1.05-0.44c0.33-0.18,0.65-0.37,0.97-0.57c0.31-0.23,0.62-0.46,0.92-0.71c0.24-0.23,0.47-0.46,0.7-0.7
		c0.23-0.29,0.46-0.58,0.68-0.88c0.19-0.31,0.38-0.63,0.56-0.95c0.16-0.35,0.3-0.7,0.44-1.06c0.11-0.37,0.22-0.75,0.31-1.13
		c0.06-0.38,0.11-0.76,0.15-1.14c0.01-0.39,0.01-0.77,0-1.16c-0.04-0.37-0.09-0.75-0.15-1.12c-0.1-0.38-0.2-0.75-0.31-1.13
		c-0.14-0.35-0.29-0.7-0.44-1.04c-0.18-0.33-0.37-0.66-0.57-0.98c-0.22-0.29-0.44-0.58-0.67-0.87c-0.25-0.26-0.5-0.51-0.76-0.76
		c-0.28-0.23-0.57-0.45-0.86-0.66c-0.31-0.19-0.63-0.38-0.95-0.55c-0.36-0.16-0.73-0.32-1.1-0.46c-0.35-0.11-0.71-0.2-1.07-0.29
		c-0.4-0.06-0.8-0.12-1.2-0.16c-0.37-0.01-0.74-0.01-1.1,0c-0.38,0.04-0.75,0.09-1.13,0.15c-0.38,0.09-0.75,0.2-1.12,0.31
		c-0.34,0.14-0.68,0.28-1.02,0.43c-0.33,0.18-0.66,0.38-0.99,0.58c-0.28,0.2-0.55,0.41-0.81,0.62c-0.26,0.25-0.52,0.51-0.77,0.78
		c-0.24,0.29-0.47,0.59-0.69,0.89c-0.2,0.33-0.4,0.66-0.59,1c-0.16,0.36-0.31,0.72-0.46,1.08c-0.11,0.35-0.2,0.71-0.29,1.07
		c-0.06,0.38-0.11,0.77-0.16,1.15c-0.01,0.38-0.01,0.77,0,1.15c0.04,0.38,0.1,0.76,0.16,1.14c0.09,0.36,0.19,0.72,0.3,1.08
		c0.14,0.34,0.28,0.68,0.43,1.02c0.18,0.33,0.38,0.66,0.57,0.98c0.22,0.29,0.44,0.58,0.66,0.86c0.25,0.26,0.5,0.52,0.76,0.77
		c0.29,0.24,0.59,0.47,0.9,0.69c0.31,0.19,0.63,0.38,0.95,0.55c0.36,0.16,0.72,0.31,1.08,0.45c0.35,0.11,0.71,0.2,1.06,0.29
		c0.39,0.06,0.78,0.12,1.18,0.16C462.94,588.84,463.31,588.84,463.67,588.83z"/>
	<path class="st1" d="M478.03,689.74c0-8.18,6.82-15,15-15s15,6.82,15,15s-6.82,15-15,15S478.03,697.91,478.03,689.74z"/>
	<path class="st1" d="M645.78,675.9c-12.39-2.75-23.42-12.26-27.81-24.2c-2.46-6.7-3.41-13.92-2.12-20.99
		c1.26-6.86,4.09-13.3,8.59-18.66c7.74-9.2,19.65-14.83,31.76-14.28c0.34,0.02,0.69,0.04,1.02,0.07c0.63,0.03,1.28,0.08,1.93,0.14
		c2.97,0.27,5.85,1.04,8.66,1.98c4.2,1.54,8.1,3.55,11.64,6.35c3.78,2.98,6.96,6.67,9.45,10.79c4.76,7.88,6.61,17.61,5.05,26.69
		c-0.79,4.6-2.32,8.95-4.57,13.04c-2.38,4.3-5.65,7.93-9.35,11.13c-6.95,6.02-16.06,8.95-25.15,8.95
		C651.82,676.89,648.76,676.56,645.78,675.9z M655.6,646.94c0.4-0.05,0.81-0.1,1.21-0.16c0.4-0.1,0.79-0.21,1.18-0.32
		c0.41-0.16,0.81-0.33,1.22-0.52c0.38-0.21,0.75-0.43,1.12-0.65c0.31-0.23,0.62-0.47,0.92-0.71c0.29-0.28,0.57-0.56,0.85-0.85
		c0.26-0.32,0.51-0.64,0.75-0.97c0.23-0.37,0.45-0.75,0.66-1.13c0.16-0.35,0.31-0.71,0.45-1.07c0.13-0.43,0.25-0.86,0.35-1.29
		c0.07-0.43,0.13-0.86,0.17-1.3c0.01-0.41,0.01-0.83,0-1.24c-0.05-0.43-0.11-0.86-0.18-1.29c-0.1-0.41-0.21-0.82-0.34-1.22
		c-0.16-0.4-0.33-0.8-0.5-1.19c-0.2-0.36-0.42-0.72-0.64-1.08c-0.23-0.31-0.47-0.62-0.71-0.92c-0.28-0.3-0.57-0.58-0.87-0.87
		c-0.31-0.25-0.63-0.5-0.96-0.74c-0.37-0.23-0.74-0.44-1.11-0.65c-0.38-0.17-0.76-0.33-1.15-0.49c-0.43-0.13-0.86-0.25-1.29-0.35
		c-0.4-0.06-0.8-0.12-1.21-0.17c-0.39-0.01-0.78,0-1.17,0.01c-0.46,0.05-0.91,0.11-1.36,0.18c-0.43,0.11-0.85,0.22-1.27,0.35
		c-0.41,0.17-0.82,0.34-1.23,0.53c-0.32,0.18-0.65,0.37-0.96,0.57c-0.32,0.24-0.64,0.48-0.96,0.73c-0.32,0.31-0.63,0.62-0.94,0.94
		c-0.25,0.32-0.5,0.64-0.74,0.97c-0.2,0.33-0.4,0.67-0.59,1.01c-0.17,0.37-0.32,0.74-0.48,1.12c-0.13,0.44-0.26,0.89-0.37,1.34
		c-0.07,0.42-0.12,0.85-0.17,1.27c-0.01,0.39-0.01,0.79,0,1.18c0.05,0.44,0.11,0.88,0.18,1.32c0.11,0.42,0.22,0.84,0.35,1.26
		c0.15,0.37,0.3,0.73,0.46,1.09c0.21,0.38,0.43,0.75,0.65,1.12c0.24,0.33,0.49,0.65,0.74,0.96c0.28,0.29,0.56,0.57,0.85,0.85
		c0.31,0.25,0.62,0.49,0.93,0.73c0.35,0.21,0.7,0.42,1.05,0.62c0.41,0.19,0.82,0.37,1.24,0.54c0.39,0.12,0.79,0.23,1.18,0.33
		c0.41,0.07,0.83,0.12,1.25,0.17C654.65,646.95,655.13,646.95,655.6,646.94z"/>
	<path class="st1" d="M611.52,528.53c0-8.18,6.82-15,15-15s15,6.82,15,15s-6.82,15-15,15S611.52,536.71,611.52,528.53z"/>
	<path class="st1" d="M360.09,193.77c0-8.18,6.82-15,15-15s15,6.82,15,15s-6.82,15-15,15S360.09,201.95,360.09,193.77z"/>
	<path class="st1" d="M345.62,779.5c-3.49-2.04-5.63-5.2-6.89-8.96c-5.29-15.77-10.57-31.53-15.86-47.3
		c-6.45-19.24-12.91-38.48-19.36-57.72c-1.78-5.3-3.56-10.61-5.34-15.92c-1.25-3.72-0.43-8.24,1.52-11.56
		c1.96-3.35,5.22-5.86,8.96-6.89c3.87-1.06,8.1-0.52,11.56,1.52c3.49,2.04,5.63,5.2,6.89,8.96c6.38,19,12.75,38.01,19.12,57.02
		c6.13,18.29,12.27,36.58,18.4,54.87c1.01,3.02,2.02,6.04,3.04,9.05c1.25,3.72,0.43,8.24-1.51,11.56c-1.96,3.35-5.22,5.86-8.96,6.89
		c-1.29,0.36-2.63,0.53-3.96,0.53C350.56,781.55,347.92,780.86,345.62,779.5z"/>
	<path class="st1" d="M172.39,779.43c-3.57-1.51-6.47-4.41-7.98-7.98c-1.6-3.79-1.46-7.88,0-11.68
		c5.57-14.48,11.13-28.96,16.7-43.44c6.88-17.89,13.75-35.78,20.63-53.66c3.53-9.2,7.08-18.38,10.6-27.58
		c2.91-7.63,12.33-11.08,19.66-7.98c3.57,1.51,6.47,4.41,7.98,7.98c1.61,3.79,1.45,7.88,0,11.68
		c-6.46,16.92-12.99,33.82-19.49,50.72c-6.74,17.52-13.47,35.05-20.21,52.57c-2.74,7.13-5.48,14.26-8.22,21.39
		c-2.2,5.74-8.07,9.12-13.96,9.12C176.15,780.56,174.21,780.2,172.39,779.43z"/>
	<path class="st1" d="M214.33,616.76c-9.18-7.48-14.75-19.59-12.64-31.5c0.7-3.91,2.51-7.38,5.7-9.84c3.16-2.44,7.24-3.53,11.2-2.99
		c7.86,1.07,14.25,8.85,12.83,16.9c-0.05,0.27-0.09,0.53-0.12,0.8c0,0.08,0,0.17,0,0.25c0.02,0.14,0.04,0.28,0.06,0.41
		c0.04,0.13,0.07,0.26,0.11,0.4c0.05,0.12,0.1,0.25,0.16,0.37c0.1,0.18,0.2,0.35,0.31,0.52c0.14,0.18,0.27,0.36,0.42,0.54
		c0.2,0.21,0.4,0.41,0.61,0.61c0.25,0.2,0.5,0.39,0.75,0.58c0.32,0.19,0.63,0.38,0.96,0.56c0.4,0.18,0.79,0.35,1.2,0.5
		c0.48,0.15,0.97,0.28,1.46,0.4c0.48,0.08,0.95,0.14,1.43,0.19c0.5,0.01,1,0.01,1.5,0c0.44-0.05,0.89-0.11,1.33-0.18
		c0.42-0.11,0.84-0.22,1.25-0.35c0.36-0.14,0.71-0.29,1.06-0.45c0.28-0.16,0.55-0.32,0.82-0.48c0.19-0.14,0.38-0.29,0.57-0.44
		c0.15-0.15,0.31-0.3,0.46-0.45c0.1-0.13,0.2-0.26,0.3-0.39c0.06-0.1,0.12-0.21,0.18-0.31c0.06-0.13,0.11-0.25,0.16-0.38
		c0.03-0.09,0.05-0.19,0.08-0.28c0.01-0.07,0.02-0.14,0.03-0.21c0-0.08,0-0.17,0-0.25c-0.01-0.12-0.03-0.23-0.05-0.35l-0.05-0.31
		c-1.18-3.65-1.31-7.39,0.23-11.01c1.51-3.57,4.41-6.47,7.98-7.98c3.7-1.56,7.98-1.56,11.68,0c3.42,1.45,6.7,4.42,7.98,7.98
		c1.92,5.34,2.82,11.05,1.85,16.7c-1.19,6.91-4.41,13.29-9.39,18.25c-7.29,7.24-17.29,10.85-27.32,10.85
		C230.41,625.44,221.41,622.54,214.33,616.76z"/>
	<path class="st1" d="M309.13,627.21c-8.06-1.07-16.11-5.12-21.53-11.22c-3.04-3.42-5.57-7.14-7.22-11.43
		c-1.75-4.53-2.73-9.46-2.52-14.32c0.13-2.93,0.47-5.8,1.26-8.63c2.2-7.87,10.55-12.65,18.45-10.48
		c7.85,2.16,12.68,10.59,10.48,18.45c-0.03,0.11-0.06,0.22-0.09,0.32c-0.04,0.28-0.08,0.56-0.11,0.83c-0.01,0.3-0.01,0.59,0,0.89
		c0.03,0.28,0.07,0.56,0.11,0.83c0.07,0.29,0.15,0.58,0.24,0.87c0.11,0.26,0.22,0.52,0.33,0.78c0.13,0.23,0.27,0.46,0.4,0.69
		c0.16,0.21,0.31,0.41,0.48,0.61c0.19,0.19,0.37,0.38,0.57,0.57c0.19,0.15,0.39,0.3,0.58,0.45c0.25,0.16,0.51,0.31,0.77,0.45
		c0.25,0.11,0.51,0.22,0.76,0.32c0.28,0.08,0.57,0.16,0.86,0.24c0.25,0.04,0.51,0.07,0.76,0.1c0.26,0,0.52,0,0.78,0
		c0.32-0.04,0.64-0.08,0.96-0.13c0.27-0.07,0.53-0.14,0.79-0.22c0.24-0.1,0.48-0.2,0.72-0.3c0.26-0.14,0.51-0.29,0.76-0.45
		c0.2-0.15,0.4-0.3,0.6-0.46c0.2-0.19,0.39-0.38,0.58-0.58c0.16-0.2,0.31-0.4,0.46-0.6c0.14-0.23,0.28-0.47,0.41-0.7
		c0.12-0.27,0.23-0.53,0.34-0.8c0.08-0.27,0.15-0.54,0.22-0.81c0.05-0.29,0.09-0.58,0.12-0.88c0-0.26,0-0.52,0-0.78
		c-0.03-0.29-0.07-0.58-0.12-0.87c-0.97-3.91-0.53-8.01,1.52-11.52c1.96-3.35,5.22-5.86,8.96-6.89c7.74-2.13,16.47,2.55,18.45,10.48
		c1.2,4.79,1.58,9.86,0.75,14.75c-1,5.88-3.23,11.23-6.71,16.07c-6.72,9.37-18.03,14.68-29.42,14.68
		C312.32,627.53,310.72,627.43,309.13,627.21z"/>
	<path class="st1" d="M341.01,595.43c-0.09,0-0.18,0-0.27,0c-0.02,0-0.05,0-0.07,0c-0.03,0-0.07,0-0.1,0
		c-17.78-0.25-35.57-0.56-53.35-0.84c-19.14-0.3-38.29-0.61-57.43-0.9c-7.2-0.11-14.4-0.24-21.6-0.34c-0.17,0-0.34,0-0.51-0.01
		c-0.05,0-0.09,0-0.14,0c-0.2,0-0.4-0.01-0.59-0.01c-8.17-0.16-15-6.71-15-15c0-8.09,6.82-15.11,15-15c0.2,0,0.39,0,0.59,0.01
		c18.59,0.25,37.17,0.58,55.75,0.87c19.17,0.3,38.34,0.61,57.52,0.91c6.65,0.1,13.29,0.22,19.94,0.31c0.09,0,0.18,0,0.27,0
		c8.17,0.13,15,6.72,15,15c0,8.03-6.72,15-14.8,15C341.14,595.43,341.07,595.43,341.01,595.43z"/>
	<path class="st1" d="M258.04,550.52c-9.52-0.11-19.08,0.01-28.56-0.72c-17.38,2.65-24.29-21.88-8.14-28.8
		c7.71-2.67,15.89-0.09,23.85-0.56c7.9,0.45,17.32-1.85,23.46,4.48C278.08,533.7,270.97,551.02,258.04,550.52z"/>
	<path class="st1" d="M260.67,518.75c-11.6-0.07-23.19-0.2-34.78-0.27c-4.02-0.02-7.78-1.27-10.74-4.06
		c-2.88-2.71-4.6-6.51-4.72-10.46c-0.25-7.94,6.34-15.52,14.52-15.46c11.6,0.07,23.19,0.19,34.79,0.27
		c4.01,0.03,7.77,1.27,10.74,4.06c2.88,2.71,4.6,6.51,4.72,10.46c0.25,7.91-6.3,15.46-14.43,15.46
		C260.73,518.75,260.7,518.75,260.67,518.75z"/>
	<path class="st1" d="M260.86,485.28c-0.15,0-0.31-0.01-0.46-0.01c-0.13,0-0.25-0.01-0.38-0.01c-11.41-0.34-22.83-0.58-34.24-0.87
		c-0.02,0-0.04,0-0.07,0c-0.34-0.01-0.68-0.02-1.01-0.03c-0.11,0-0.21-0.01-0.31-0.01c-0.05,0-0.11,0-0.16,0v0
		c-4.04-0.11-7.74-1.25-10.73-4.08c-2.88-2.71-4.59-6.52-4.71-10.47c-0.12-3.96,1.36-7.86,4.07-10.73c2.61-2.76,6.6-4.8,10.47-4.71
		c0.5,0.01,0.99,0.03,1.49,0.04c0.19,0,0.38,0.01,0.57,0.02c11.52,0.32,23.05,0.53,34.57,0.88c4.05,0.12,7.73,1.25,10.73,4.08
		c2.88,2.71,4.59,6.52,4.71,10.47c0.12,3.96-1.36,7.86-4.07,10.73c-2.55,2.71-6.43,4.71-10.22,4.71
		C261.02,485.28,260.94,485.28,260.86,485.28z"/>
	<path class="st1" d="M211.54,447.34c-2.7-2.89-4.16-6.8-4.02-10.75c0.14-3.95,1.87-7.75,4.76-10.45c3.02-2.81,6.71-3.93,10.75-4.02
		c0.02,0,0.03,0,0.05,0c0.03,0,0.07,0,0.1,0c12.02-0.26,24.03-0.38,36.05-0.58c0.92-0.02,1.84-0.03,2.77-0.04
		c3.88-0.06,7.85,1.97,10.45,4.76c2.7,2.89,4.16,6.8,4.02,10.75c-0.14,3.95-1.87,7.75-4.76,10.45c-3,2.8-6.72,3.95-10.75,4.02
		c-11.37,0.19-22.73,0.37-34.1,0.55c-1.6,0.03-3.2,0.04-4.79,0.08c-0.01,0-0.02,0-0.03,0c-0.01,0-0.03,0-0.04,0
		c-0.05,0-0.11,0-0.16,0C217.99,452.1,214.1,450.09,211.54,447.34z"/>
	<path class="st1" d="M334.19,590.79c-2.9-2.69-4.64-6.48-4.79-10.43c-0.15-4.02,1.34-7.43,2.78-9.28
		c10.93-14.03,21.98-27.97,32.98-41.95c11.2-14.25,22.39-28.5,33.6-42.74c7.11-9.04,14.21-18.08,21.31-27.12
		c2.46-3.13,5.63-5.37,9.62-6.06c3.94-0.69,8.05,0.24,11.3,2.57c6.42,4.59,8.55,14.49,3.5,20.92
		c-10.57,13.45-21.15,26.91-31.72,40.36c-11.23,14.29-22.47,28.59-33.7,42.88c-7.88,10.02-15.61,20.18-23.68,30.07
		c-2.44,2.99-6.67,4.64-10.43,4.79c-0.18,0.01-0.37,0.01-0.55,0.01C340.64,594.8,336.96,593.36,334.19,590.79z"/>
	<path class="st1" d="M432.05,479.69c-3.96-0.07-7.78-1.73-10.53-4.57c-2.85-2.95-4.07-6.65-4.21-10.68
		c-0.48-13.59-0.96-27.19-1.44-40.79c-0.07-2.15-0.16-4.3-0.23-6.45c-0.25-8.18,7.37-14.88,15.25-14.74
		c0.96,0.02,1.92,0.13,2.85,0.33c0,0.12,0,0.25,0,0.37c-0.04,4.32,0.3,8.6,0.54,12.89c0.04,1.44,0.06,2.88,0.01,4.31
		c-0.32,3-0.73,5.96-0.8,8.99c-0.05,2.13-0.02,4.27-0.07,6.4c-0.04,0.71-0.09,1.43-0.18,2.12c-1.1,8.49,5.6,16.35,13.73,17.74
		c0.09,2.52,0.18,5.03,0.27,7.55c0.02,0.6,0.04,1.2,0.06,1.79c0.14,3.87-1.84,7.89-4.57,10.53c-2.79,2.69-6.57,4.21-10.43,4.21
		C432.21,479.69,432.13,479.69,432.05,479.69z"/>
	<path class="st1" d="M423.28,459.86c0.01-6.8,4.73-12.63,11.01-14.41c2.33,5.56,7.82,9.77,13.92,10.31
		c0.47,0.04,0.95,0.06,1.42,0.06c3.93,0,7.8-1.41,10.79-3.98c2.27-1.95,3.82-4.37,4.76-7.08c8.07-0.06,16.14-0.12,24.21-0.17
		c19.95-0.11,39.89-0.22,59.83-0.33c17.87-0.1,35.74-0.2,53.61-0.3c15.66-0.09,31.31-0.18,46.97-0.26
		c4.94-0.03,9.88-0.06,14.82-0.08c0.02,0,0.03,0,0.05,0c0.31,0,0.62,0,0.93-0.01c0.21,0,0.43,0,0.65,0
		c8.18-0.04,14.98,6.9,14.97,15.03c-0.01,3.96-1.61,7.81-4.41,10.6c-2.86,2.85-6.62,4.27-10.62,4.38c-0.33,0-0.66,0-0.98,0
		c-0.04,0-0.09,0-0.13,0c-0.07,0-0.14,0-0.21,0c-0.09,0-0.17,0-0.25,0c-0.1,0-0.19,0-0.29,0c-13.59,0.05-27.19,0.15-40.78,0.23
		c-16.59,0.09-33.19,0.18-49.78,0.28c-18.8,0.11-37.61,0.21-56.42,0.31c-19.75,0.11-39.51,0.22-59.27,0.33
		c-6.61,0.04-13.21,0.11-19.82,0.11C430.07,474.9,423.27,468.03,423.28,459.86z"/>
	<path class="st1" d="M688.77,316.73c-17.65-0.74-35.3-1.55-52.95-2.32c-20.08-0.88-40.16-1.76-60.24-2.64
		c-20.61-0.9-41.21-1.8-61.82-2.7c-20.63-0.9-41.26-1.8-61.89-2.71c-17.32-0.76-34.63-1.52-51.94-2.27c-0.01,0-0.03,0-0.04,0
		c-0.13-0.01-0.27-0.01-0.4-0.02c-0.07,0-0.13-0.01-0.2-0.01c-4-0.18-7.72-1.64-10.55-4.54c-2.76-2.83-4.3-6.71-4.25-10.66
		c0.11-8.01,7.03-15.13,15.2-14.8c0.09,0,0.19,0.01,0.28,0.01c0.01,0,0.01,0,0.02,0c0.1,0,0.2,0.01,0.3,0.01
		c0.18,0.01,0.36,0.01,0.54,0.03c19.21,0.84,38.43,1.68,57.64,2.52c20.62,0.9,41.23,1.8,61.85,2.7c20.65,0.91,41.3,1.81,61.96,2.71
		c19.82,0.87,39.65,1.73,59.48,2.6c15.81,0.69,31.62,1.41,47.43,2.07c4,0.18,7.72,1.63,10.55,4.54c2.76,2.83,4.3,6.71,4.25,10.66
		c-0.1,7.81-6.71,14.81-14.63,14.81C689.15,316.75,688.96,316.74,688.77,316.73z"/>
	<path class="st1" d="M472.69,365.77c-25.22,0.51-41.55-5.51-62.81-18.5c-9.35-6.03-15.93-15.35-22.68-24
		c-3.35-4.44-6.89-8.85-9.21-13.94c-5.06-9.51-0.39-23.13,11.1-24.5c8.09-1.09,15.8,4.72,16.9,12.83c1.27,3.32,4.25,5.98,6.23,8.96
		c3.68,4.84,7.43,9.67,11.8,13.92c5.29,3.89,11.49,6.4,17.2,9.63c20.72,9.36,44.69,5.66,66.28,1.55
		c39.01-5.81,76.21-19.37,114.41-28.76c10.04-2.59,19.87-5.84,29.89-8.46c6.97-1.38,13.26-5.27,20.16-2.27
		c11.93,4.56,12.07,23.14,0,27.64c-29.85,9.13-60.24,16.47-90.21,25.25c-25.52,7.6-51.39,13.69-77.73,17.63
		C493.72,364.85,483.24,366.08,472.69,365.77z M399.59,312.03c1.93-1.3,3.51-3.07,4.61-5.1C403.08,308.95,401.5,310.7,399.59,312.03
		z"/>
	<path class="st1" d="M671.55,473.92c-2.66-0.05-5.31-0.09-7.56-0.46c-0.15-0.03-0.29-0.06-0.44-0.09l-0.18-0.04
		c-3.67-0.81-6.87-2.52-9.23-5.57c-2.45-3.16-3.53-7.24-2.99-11.2c0.53-3.88,2.6-7.45,5.7-9.84c3.04-2.34,7.36-3.73,11.2-2.99
		c0.12,0.02,0.24,0.05,0.36,0.07c0.11,0.02,0.23,0.03,0.35,0.05c3.98,0.15,7.96,0.08,11.94-0.06c4.14-0.15,8.29-0.16,12.43-0.37
		c7.16-0.57,14.33-1.63,21.38-3c3.92-0.86,7.8-1.88,11.61-3.14c2.19-0.81,4.33-1.7,6.43-2.7c1.48-0.79,2.94-1.62,4.36-2.52
		c1.54-1.12,2.99-2.34,4.45-3.57c1.49-1.26,3-2.48,4.49-3.75c1.1-1.03,2.15-2.1,3.17-3.21c1.73-2.02,3.42-4.08,4.96-6.23
		c0.66-1.07,1.27-2.17,1.86-3.28c1.15-2.38,2.25-4.78,3.2-7.25c0.33-1.07,0.62-2.15,0.88-3.23c0.6-3.55,0.95-7.13,1.23-10.72
		c0.37-7.44,0.24-14.91-0.21-22.35c-0.24-3.45-0.52-6.9-0.66-8.87c-0.19-2.55-0.44-5.09-0.86-7.61c-0.12-0.49-0.25-0.98-0.39-1.46
		c-0.12-0.31-0.25-0.61-0.39-0.91l-1.31-2.23c-1.26-1.86-2.49-3.73-3.73-5.61c-0.37-0.51-0.74-1.01-1.13-1.5
		c-0.26-0.27-0.52-0.53-0.79-0.78c-0.29-0.23-0.58-0.45-0.87-0.67c-1.47-0.92-2.98-1.76-4.52-2.56c-5-2.45-10.03-4.88-15.24-6.81
		c-3.3-1.11-6.63-2.15-9.9-3.34c-2.84-1.03-5.61-2.21-8.44-3.24c-2.65-0.84-5.36-1.39-8.08-2.01c-2.91-0.67-5.73-1.73-8.54-2.74
		c-1.95-0.65-3.91-1.19-5.91-1.64c-1.96-0.36-3.95-0.64-5.94-0.8c-3.81-0.3-7.55-2.73-9.84-5.7c-2.45-3.16-3.53-7.24-2.99-11.2
		c0.53-3.88,2.6-7.45,5.7-9.84c3.29-2.55,7.13-3.31,11.2-2.99c2.93,0.23,5.83,0.75,8.71,1.35c4.37,0.91,8.5,2.4,10.85,3.21
		c4.08,1.41,8.34,2.02,12.46,3.3c4.46,1.39,8.73,3.29,13.11,4.87c3.95,1.32,7.95,2.51,11.81,4.08c3.93,1.6,7.73,3.5,11.58,5.3
		c4.7,2.21,9.48,4.62,13.51,7.92c2.42,1.98,4.7,4.24,6.54,6.77c1.53,2.1,2.9,4.31,4.34,6.48c1.28,1.89,2.55,3.78,3.64,5.79
		c1.55,2.86,2.75,5.89,3.51,9.05c1.14,4.75,1.51,9.58,1.83,14.44c0.72,10.29,1.4,20.52,1.01,30.85c-0.2,5.37-0.59,10.88-1.56,16.18
		c-0.68,3.71-1.64,7.18-2.91,10.73c-0.86,2.41-1.99,4.74-3.09,7.05c-1.24,2.59-2.54,5.14-4.07,7.57c-1.53,2.44-3.34,4.7-5.15,6.93
		c-1.7,2.09-3.46,4.16-5.33,6.11c-2.12,2.21-4.48,4.17-6.83,6.12c-1.85,1.54-3.66,3.13-5.55,4.62c-2.23,1.75-4.62,3.3-7.07,4.71
		c-4.97,2.88-10.21,4.95-15.62,6.82c-9.89,3.42-20.41,4.95-30.75,6.27c-5.71,0.73-11.42,1.01-17.17,1.11
		c-4.3,0.08-8.58,0.32-12.87,0.32C672.69,473.93,672.12,473.93,671.55,473.92z"/>
	<path class="st1" d="M177.16,577.22c-1.28-28.01-1.64-56.05-1.06-84.09c0.43-24.68,0.17-49.61,4.2-74.03
		c8.23-49.25,28.49-79.88,71.38-105.57c29.92-15.06,62.42-24.32,95.11-31.18c10.35-2.68,20.59-5.71,31.24-7.05
		c12.99-2.29,33.1-4.97,33.99,13.43c0,8.18-6.82,15-15,15c-5.14-0.2-10.22,0.4-15.27,1.35c-9.33,1.12-18.23,4.07-27.32,6.27
		c-11.92,2.87-24.02,4.98-35.74,8.64c-16.92,4.77-33.43,11.01-49.5,18.13c-10.03,5.51-19.07,12.64-27.75,20.06
		c-16.35,14.63-25.21,35.69-29.84,56.77c-4.7,22.41-5.08,45.44-5.31,68.26c-0.6,26.8-0.57,53.61,0.23,80.4
		c0.25,4.54,0.75,9.06,0.66,13.61C206.59,596.84,177.81,597.07,177.16,577.22z"/>
	<path class="st1" d="M494.32,423.7c0-8.18,6.82-15,15-15s15,6.82,15,15s-6.82,15-15,15S494.32,431.88,494.32,423.7z"/>
	<path class="st1" d="M542.42,424.23c0-8.18,6.82-15,15-15s15,6.82,15,15s-6.82,15-15,15S542.42,432.4,542.42,424.23z"/>
	<path class="st1" d="M595.96,424.39c0-8.18,6.82-15,15-15s15,6.82,15,15s-6.82,15-15,15S595.96,432.56,595.96,424.39z"/>
	<path class="st1" d="M450.6,455.8c3.59-0.21,7.08-1.59,9.81-3.95c3.34-2.88,5.12-6.75,5.7-11.06c0.57-4.31-0.02-8.7,0.5-13
		c0.06-0.49,0.12-0.98,0.17-1.48c1.81-3.61,2.06-7.58,1.22-11.56c-0.04-0.2-0.08-0.39-0.12-0.58c-0.02-0.19-0.05-0.38-0.07-0.56
		c0-0.41,0.02-0.83,0.04-1.24c0-0.04,0.01-0.09,0.02-0.13c0.28-2.76,0.07-5.44-0.78-7.95c1.03-4.11,0.35-8.26-1.57-12.02
		c-0.3-0.58-0.63-1.15-1-1.69c2.17-1.61,4.45-3.08,6.76-4.41c14.12-8.73,30.8-8.66,47.05-8.58c4,0.02,7.97,0.04,11.87-0.07
		c32.21-0.14,64.51-1.57,96.69,0.51c8.38,1.15,17.32,1.28,25.18,4.64c12.02,6.81,21.75,19.8,22.55,33.86
		c1.5,10.09,2.5,20.59,0.2,30.65c-5.75,18.63-33.05,11.52-29.03-7.56c1.08-7.02-0.34-13.99-1.02-20.95
		c-0.12-3.54-3.83-6.77-5.62-8.76c-17.66-3.11-35.56-3-53.43-2.89c-5.15,0.03-10.29,0.06-15.43,0.02
		c-22.21,0.18-44.41,0.55-66.62,0.72c-8.64,0.16-16.87,2.78-23.41,8.56c-2.49,2.82-1.86,7.27-2.45,10.8
		c-0.02,5.16-0.39,10.32-1.09,15.43c2.41,11.04-6.32,18.32-15.05,18.32C457.6,460.88,453.54,459.3,450.6,455.8z"/>
	<path class="st1" d="M773.26,372.01c-7.04-3.94-9.57-13.64-5.38-20.52c4.65-8.66,16.09-7.12,23.34-12.35
		c10.39-6.17,14.1-18.22,15.12-29.63c0.88-21.78-0.81-43.27-2.04-64.85c-0.01-31.94-25.21-28.57-49.25-29.01
		c-24.1-0.09-48.05,3.14-72.12,4.03c-31.59,2.32-63.44,2.58-95.04,0.46c-49.96-1.6-89.53-1.77-95.93-62.35
		c-6.79-25.51,26.51-32.38,29.25-8.11c0.64,6.54,1.23,13.16,3.46,19.4c4.69,17.42,20.06,18.23,35.32,19.77
		c31.1,1.64,60.56,3.28,91.44,2.39c26.61-0.58,53.18-2.96,79.73-4.86c20.43-0.73,41.34-2.35,61.45,2.09
		c17.76,3.11,33.28,16.86,38.47,34.14c3.89,13.9,3.35,28.54,4.34,42.83c1.2,24.17,3.98,49.64-5.43,72.57
		c-6.31,14.99-19.42,26.91-34.74,32.22C788.28,372.7,780.3,376.2,773.26,372.01z"/>
	<path class="st1" d="M449.02,455.7c-0.12-9.88,0.73-19.73,1.42-29.58c0.71-9.16,1.2-20.47,7.24-27.74
		c20.96-34.12,49.27-2.69,28.53,12.36c-5.4,4.25-5.24,9.19-5.72,15.45c-0.94,10.22-1.63,20.02-1.48,29.51
		C478.38,475.43,449.67,475.47,449.02,455.7z"/>
	<path class="st1" d="M410.95,469.54c0.22-8.42-0.19-16.85,0.12-25.26c0.77-10.1,1.62-20.19,1.43-30.34c0.64-19.73,29.35-19.76,30,0
		c0.14,10-0.54,19.99-1.41,29.94c-1.46,10.64,3.32,28.74-4.53,36.27C427.8,489.56,410.4,482.5,410.95,469.54z"/>
	<path class="st1" d="M426.66,471.54c-3.07-2.49-5.06-6.16-5.48-10.09c-0.41-3.94,0.77-7.93,3.27-11.01
		c2.4-2.96,6.22-5.26,10.09-5.47c0.05,0,0.09,0,0.13-0.01c0.03,0,0.06,0,0.08,0c7.58-0.41,15.16-0.8,22.74-1.2
		c4.03-0.22,7.82,0.68,11.01,3.26c3.07,2.49,5.06,6.16,5.48,10.09c0.41,3.94-0.77,7.93-3.27,11.01c-2.4,2.96-6.22,5.27-10.09,5.48
		c-7.65,0.41-15.31,0.8-22.96,1.21c-0.38,0.02-0.76,0.03-1.14,0.03C432.93,474.83,429.55,473.88,426.66,471.54z"/>
</g>
</svg>
