<?xml version="1.0" encoding="utf-8"?>
<!-- Generator: Adobe Adobe Illustrator 24.2.0, SVG Export Plug-In . SVG Version: 6.00 Build 0)  -->
<svg version="1.1" id="Capa_de_vector_1_" xmlns="http://www.w3.org/2000/svg" xmlns:xlink="http://www.w3.org/1999/xlink" x="0px"
	 y="0px" viewBox="0 0 1000 1000" style="enable-background:new 0 0 1000 1000;" xml:space="preserve">
<style type="text/css">
	.st0{fill:#A46460;}
</style>
<path class="st0" d="M527.2,566.14c-5.81-5.81-5.73-15.39,0-21.21c14.39-14.61,28.79-29.21,43.18-43.81
	c14.74-14.95,29.48-29.91,44.21-44.86c14.68-14.9,29.37-29.8,44.05-44.7c14.92-15.14,29.84-30.29,44.77-45.43
	c14.85-15.05,29.69-30.12,44.54-45.19c15.08-15.3,30.16-30.61,45.24-45.91c14.66-14.88,29.31-29.75,43.97-44.62
	c14.59-14.8,29.19-29.61,43.78-44.42c11.03-11.19,22.07-22.37,33.09-33.57c0.02-0.02,0.03-0.04,0.05-0.05
	c0.02-0.02,0.03-0.03,0.04-0.04c5.73-5.82,15.46-5.75,21.21,0c5.82,5.82,5.73,15.39,0,21.21c-13.49,13.72-27.02,27.41-40.53,41.12
	c-14.48,14.7-28.97,29.4-43.46,44.1c-14.89,15.11-29.77,30.21-44.66,45.31c-14.91,15.14-29.83,30.27-44.75,45.41
	c-14.96,15.19-29.94,30.37-44.9,45.56c-14.91,15.14-29.84,30.28-44.76,45.42c-14.68,14.89-29.36,29.79-44.03,44.68
	c-14.69,14.9-29.38,29.81-44.06,44.71c-10.94,11.1-21.88,22.2-32.82,33.3c-0.05,0.05-0.09,0.09-0.14,0.14
	c-0.94,0.95-1.88,1.91-2.82,2.86c-2.86,2.9-6.71,4.34-10.57,4.34C533.97,570.48,530.09,569.02,527.2,566.14z"/>
<path class="st0" d="M393.14,430.87c-5.78-5.77-5.8-15.44-0.02-21.21c0.23-0.23,0.45-0.45,0.68-0.68c0.04-0.04,0.07-0.07,0.11-0.11
	c14.39-14.36,28.78-28.74,43.16-43.12c14.9-14.89,29.8-29.77,44.71-44.66c15.18-15.17,30.37-30.34,45.55-45.5
	c15.31-15.29,30.62-30.58,45.93-45.87c15.2-15.18,30.4-30.37,45.61-45.55c14.81-14.79,29.62-29.59,44.43-44.38
	c14.88-14.86,29.76-29.71,44.63-44.58c14.71-14.7,29.42-29.39,44.13-44.08c10.79-10.78,21.57-21.55,32.36-32.32
	c0.16-0.16,0.31-0.31,0.47-0.47c5.78-5.78,15.43-5.8,21.21-0.02c5.78,5.77,5.8,15.44,0.02,21.21
	c-10.61,10.59-21.2,21.18-31.81,31.77c-14.59,14.57-29.18,29.14-43.77,43.72c-14.89,14.88-29.78,29.75-44.67,44.62
	c-15.05,15.04-30.11,30.07-45.16,45.11c-15.16,15.15-30.33,30.29-45.49,45.44c-15.01,14.99-30.02,29.98-45.02,44.97
	c-15.21,15.2-30.43,30.4-45.64,45.59c-14.95,14.93-29.9,29.88-44.86,44.8c-14.83,14.81-29.66,29.62-44.49,44.44
	c-0.06,0.06-0.12,0.12-0.17,0.18c-0.11,0.11-0.22,0.22-0.33,0.33c-0.12,0.12-0.23,0.23-0.35,0.35c-2.9,2.89-6.76,4.34-10.62,4.34
	C399.88,435.2,396.03,433.76,393.14,430.87z"/>
<path class="st0" d="M524.19,568.6c-11.32-11.25-22.68-22.48-34.01-33.72c-13.66-13.54-27.32-27.09-40.99-40.62
	c-14.08-13.96-28.16-27.92-42.25-41.88c-5.82-5.77-11.63-11.53-17.45-17.29c-5.8-5.75-5.74-15.46,0.02-21.21
	c5.81-5.8,15.41-5.73,21.21,0.03c0.72,0.71,1.44,1.43,2.16,2.14c0.05,0.05,0.09,0.09,0.14,0.14c13.18,13.07,26.37,26.14,39.56,39.22
	c13.87,13.75,27.74,27.5,41.61,41.25c13.11,13,26.23,26,39.34,39c3.81,3.78,7.64,7.56,11.45,11.35c0.05,0.04,0.09,0.09,0.14,0.13
	c0.1,0.1,0.2,0.2,0.3,0.3c5.78,5.78,5.76,15.45-0.02,21.21c-2.89,2.89-6.73,4.32-10.57,4.32
	C530.97,572.94,527.1,571.49,524.19,568.6z"/>
<path class="st0" d="M924.03,176.33c-4.12-0.22-7.69-2.14-10.48-5.1c-11.26-11.91-22.51-23.83-33.77-35.74
	c-13.47-14.25-26.94-28.51-40.4-42.76c-13.86-14.66-27.71-29.33-41.57-43.99c-3.46-3.66-6.92-7.33-10.38-10.98
	c-0.07-0.07-0.14-0.14-0.2-0.21c-0.15-0.16-0.29-0.31-0.44-0.47c-5.62-5.93-4.57-15.95,1.41-21.17c2.92-2.55,6.8-3.91,10.69-3.7
	c4.13,0.23,7.67,2.14,10.48,5.1c0.12,0.13,0.25,0.26,0.37,0.39c0.01,0.01,0.02,0.03,0.04,0.04c13,13.74,25.99,27.5,38.98,41.25
	c13.78,14.58,27.56,29.16,41.34,43.75c12.41,13.14,24.83,26.28,37.25,39.42c2.93,3.1,5.86,6.2,8.79,9.3
	c5.61,5.94,4.57,15.95-1.4,21.17c-2.73,2.38-6.28,3.72-9.9,3.72C924.56,176.36,924.29,176.35,924.03,176.33z"/>
<path class="st0" d="M623.99,476.4c-4.17-0.2-7.55-2.12-10.46-5c-12.21-12.21-24.53-24.29-36.8-36.43
	c-14.08-13.95-28.16-27.89-42.25-41.83c-14.52-14.38-29.05-28.77-43.57-43.14c-3.18-3.15-6.36-6.32-9.55-9.46
	c-2.71-2.68-3.96-7-3.78-10.72c0.19-3.99,2.02-7.8,5-10.46c2.92-2.61,6.82-3.97,10.72-3.79c4.18,0.2,7.55,2.13,10.46,5
	c13.98,13.78,27.89,27.62,41.84,41.43c14.28,14.14,28.56,28.28,42.84,42.42c13.66,13.52,27.31,27.04,40.97,40.57
	c2.14,2.12,4.28,4.22,6.41,6.35c0,0,0.01,0.01,0.01,0.01c0.03,0.03,0.07,0.06,0.1,0.1c2.7,2.7,3.97,6.98,3.79,10.72
	c-0.2,3.99-2.02,7.8-5,10.46c-2.74,2.45-6.35,3.8-10.01,3.8C624.46,476.42,624.22,476.42,623.99,476.4z"/>
<path class="st0" d="M36.41,910.55c-5.89-5.45-6.52-15.33-0.82-21.2c8.43-8.68,16.86-17.37,25.29-26.05
	c11.81-12.16,23.62-24.33,35.43-36.49c13.6-14.01,27.2-28.02,40.8-42.03c13.91-14.32,27.81-28.65,41.72-42.97
	c14.4-14.83,28.8-29.66,43.2-44.5c14.42-14.85,28.84-29.7,43.25-44.55c14.64-15.09,29.29-30.17,43.93-45.25
	c14.38-14.82,28.77-29.63,43.15-44.45c14.57-15,29.14-30.01,43.71-45.02c13.36-13.77,26.73-27.53,40.09-41.3
	c0.18-0.18,0.36-0.36,0.54-0.55c2.73-2.81,6.29-4.59,10.24-4.8c4-0.2,8.02,1.25,10.96,3.97c5.89,5.45,6.52,15.33,0.82,21.2
	c-12.73,13.11-25.45,26.22-38.18,39.33c-14.64,15.08-29.29,30.17-43.93,45.25c-14.34,14.77-28.68,29.54-43.02,44.3
	c-14.64,15.08-29.28,30.16-43.91,45.23c-14.41,14.85-28.83,29.7-43.24,44.54c-14.5,14.94-29.01,29.88-43.52,44.82
	c-13.94,14.36-27.88,28.72-41.82,43.08c-13.59,14-27.18,28-40.77,42c-11.89,12.25-23.77,24.49-35.66,36.73
	c-8.82,9.08-17.64,18.17-26.46,27.25c-0.2,0.2-0.39,0.4-0.59,0.6c-2.73,2.81-6.29,4.59-10.24,4.8c-0.25,0.01-0.5,0.02-0.74,0.02
	C42.87,914.54,39.17,913.1,36.41,910.55z"/>
<path class="st0" d="M713.56,979.89c-19.11-4.23-37.7-11.21-54.86-20.63c-16.94-9.3-32.66-20.89-46.4-34.49
	c-14.91-14.76-27.53-31.62-37.48-50.08c-10.13-18.78-17.4-39.25-21.29-60.23c-3.79-20.44-4.72-41.54-2.26-62.2
	c2.46-20.64,7.73-40.89,16.09-59.94c8.36-19.05,19.41-36.75,32.93-52.58c6.98-8.17,14.62-15.86,22.82-22.81
	c0.25-0.21,0.51-0.42,0.77-0.61c5.69-4.82,11.63-9.35,17.81-13.55c15.52-10.57,32.51-18.89,50.26-24.97
	c18.48-6.33,37.95-9.89,57.45-10.82c19.87-0.95,40.02,1,59.33,5.79c19.95,4.95,39.27,12.68,56.92,23.26
	c15.95,9.56,30.77,21.04,43.64,34.5c13.89,14.54,25.72,30.79,35.07,48.62c8.85,16.88,15.23,34.97,19.23,53.6
	c4.18,19.48,5.39,39.66,3.84,59.52c-1.6,20.57-6.3,41.03-13.91,60.21c-7.24,18.22-16.93,35.43-28.91,50.96
	c-12.57,16.29-27.48,30.56-44.17,42.56c-15.59,11.21-32.81,20.13-50.88,26.64c-18.99,6.84-38.98,10.82-59.12,11.96
	c-3.81,0.22-7.63,0.32-11.44,0.32C743.73,984.91,728.45,983.19,713.56,979.89z M779.96,953.69c7.72-0.96,15.37-2.38,22.93-4.23
	c7.47-1.94,14.8-4.31,22-7.1c6.98-2.81,13.8-6.02,20.42-9.61c6.67-3.72,13.1-7.82,19.29-12.28c6.21-4.6,12.14-9.55,17.78-14.84
	c5.55-5.36,10.8-11.01,15.7-16.97c2.71-3.38,5.3-6.85,7.79-10.39c1.25-1.79,2.47-3.61,3.66-5.44c0.54-0.84,1.08-1.68,1.61-2.52
	c0.27-0.44,0.55-0.89,0.82-1.33c0.17-0.3,0.35-0.6,0.53-0.9c2.25-3.77,4.36-7.62,6.34-11.53c1.33-2.63,2.59-5.28,3.81-7.96
	c3.17-7.28,5.92-14.74,8.21-22.34c2.21-7.75,3.95-15.61,5.22-23.57c1.14-7.93,1.81-15.91,2-23.92c0.07-7.96-0.32-15.9-1.2-23.81
	c-0.97-7.78-2.39-15.48-4.26-23.09c-1.96-7.53-4.36-14.92-7.18-22.17c-2.82-6.96-6.02-13.74-9.6-20.33
	c-3.69-6.58-7.74-12.95-12.15-19.08c-4.59-6.19-9.52-12.11-14.79-17.74c-5.33-5.53-10.95-10.75-16.88-15.64
	c-6.11-4.9-12.49-9.43-19.13-13.58c-6.75-4.09-13.72-7.77-20.9-11.04c-7.46-3.27-15.1-6.07-22.91-8.41
	c-7.54-2.14-15.2-3.84-22.95-5.08c-8.09-1.18-16.22-1.86-24.39-2.04c-7.87-0.06-15.73,0.33-23.56,1.19
	c-7.74,0.96-15.41,2.37-22.99,4.23c-7.53,1.95-14.93,4.34-22.18,7.16c-7.05,2.85-13.92,6.09-20.6,9.72
	c-6.57,3.68-12.93,7.73-19.03,12.14c-5.6,4.14-10.97,8.57-16.1,13.27c-0.48,0.44-0.95,0.88-1.43,1.33
	c-5.59,5.38-10.86,11.06-15.8,17.04c-4.95,6.17-9.51,12.62-13.7,19.33c-4.05,6.72-7.7,13.65-10.95,20.79
	c-3.16,7.26-5.89,14.68-8.2,22.25c-2.21,7.73-3.96,15.57-5.24,23.51c-1.17,8.04-1.85,16.13-2.04,24.24
	c-0.06,7.98,0.34,15.93,1.21,23.86c0.97,7.7,2.37,15.32,4.22,22.86c1.98,7.59,4.4,15.05,7.24,22.36c2.81,6.9,5.99,13.64,9.53,20.19
	c3.75,6.68,7.86,13.14,12.34,19.35c4.55,6.12,9.44,11.97,14.65,17.55c5.31,5.51,10.92,10.72,16.83,15.59
	c6.13,4.92,12.53,9.47,19.2,13.63c6.83,4.13,13.89,7.86,21.16,11.15c7.33,3.19,14.82,5.93,22.48,8.23
	c7.63,2.18,15.38,3.88,23.21,5.14c8.03,1.16,16.12,1.84,24.23,2.02C764.16,954.96,772.07,954.55,779.96,953.69z"/>
<path class="st0" d="M892.28,919.14c-4.17-0.25-7.53-2.19-10.38-5.06c-0.02-0.02-0.05-0.05-0.07-0.07c0,0-0.01,0-0.01-0.01
	c0,0-0.01-0.01-0.01-0.01c0,0,0,0,0,0c0,0,0.01,0.01,0.01,0.01c0,0,0,0,0,0c0.01,0.01,0.01,0.01,0.02,0.02
	c0.03,0.03,0.07,0.07,0.1,0.1c-0.01-0.01-0.03-0.03-0.04-0.04c-0.03-0.03-0.06-0.06-0.09-0.09c0,0,0,0,0,0c0,0,0,0,0,0
	c0,0,0,0-0.01-0.01c0,0,0,0,0,0c-0.01-0.01-0.02-0.02-0.02-0.02c-0.08-0.08-0.16-0.15-0.24-0.23c-0.4-0.37-0.78-0.75-1.14-1.16
	c-0.07-0.07-0.13-0.13-0.2-0.2c-0.22-0.23-0.45-0.45-0.66-0.66c-0.02-0.02-0.04-0.04-0.06-0.06l-0.06-0.06
	c-0.11-0.11-0.22-0.23-0.34-0.34c-0.37-0.34-0.72-0.69-1.06-1.07c-3.16-3.18-6.32-6.36-9.49-9.54c-3.41-3.43-6.82-6.86-10.23-10.3
	c-1.66-1.67-3.32-3.34-4.99-5.02c-0.83-0.84-1.66-1.67-2.49-2.51c-0.27-0.27-0.54-0.55-0.82-0.82c-0.41-0.37-0.79-0.76-1.15-1.16
	c-1.47-1.48-2.94-2.96-4.42-4.44c-0.08-0.08-0.16-0.16-0.24-0.24c-0.12-0.12-0.24-0.24-0.36-0.37c-0.16-0.16-0.32-0.31-0.48-0.47
	l-0.02-0.01c-0.06-0.06-0.13-0.13-0.19-0.19c-0.45-0.4-0.87-0.83-1.27-1.28c-0.72-0.72-1.44-1.45-2.16-2.17
	c-0.39-0.4-0.79-0.79-1.18-1.19c-0.05-0.05-0.1-0.1-0.14-0.15c-0.08-0.08-0.16-0.16-0.23-0.23c-0.43-0.43-0.86-0.86-1.29-1.29
	c-0.81-0.82-1.63-1.64-2.45-2.46c-0.42-0.42-0.84-0.84-1.26-1.27c-0.01-0.01-0.02-0.02-0.03-0.03c-0.07-0.07-0.14-0.14-0.21-0.21
	c-0.5-0.5-1-1.01-1.5-1.52c-0.24-0.24-0.48-0.48-0.72-0.73c-0.41-0.37-0.8-0.76-1.16-1.17c-0.4-0.4-0.79-0.8-1.19-1.2
	c-0.88-0.88-1.75-1.75-2.62-2.63c-0.06-0.06-0.12-0.12-0.19-0.19c-0.89-0.73-1.7-1.55-2.43-2.44c-0.18-0.18-0.37-0.37-0.55-0.55
	c-1.23-1.1-2.33-2.35-3.48-3.51c-2.96-2.97-5.91-5.94-8.87-8.92c-0.02-0.02-0.04-0.04-0.06-0.06c-3.79-3.82-7.58-7.63-10.01-10.08
	c-0.55-0.55-1.08-1.08-1.59-1.63c-0.21-0.2-0.42-0.4-0.63-0.61l-0.87-0.87c-2.74-2.75-5.47-5.5-8.21-8.26
	c-0.39-0.35-0.77-0.73-1.13-1.13c-0.98-0.99-1.97-1.98-2.95-2.97c-0.05-0.05-0.1-0.1-0.15-0.15c-0.01-0.01-0.03-0.03-0.04-0.04
	c-0.05-0.05-0.1-0.1-0.15-0.15c-0.2-0.2-0.39-0.39-0.58-0.59c-0.03-0.03-0.07-0.07-0.1-0.1c-0.06-0.06-0.12-0.12-0.18-0.18
	c-0.1-0.1-0.19-0.19-0.29-0.29c-0.3-0.28-0.59-0.57-0.87-0.88l-0.08-0.09c-0.18-0.19-0.36-0.37-0.53-0.56
	c-0.25-0.24-0.5-0.48-0.71-0.69c-0.01-0.01-0.03-0.03-0.04-0.04c-0.44-0.43-0.87-0.88-1.23-1.24c-2.53-2.54-5.06-5.09-7.16-7.2
	c-0.71-0.72-1.43-1.44-2.15-2.16c-2.5-2.51-4.99-5.02-7.49-7.53c-0.37-0.37-0.74-0.75-1.12-1.12c-0.07-0.08-0.15-0.15-0.22-0.23
	c-0.09-0.09-0.19-0.19-0.28-0.28l-2.63-2.64c-1.63-1.63-3.25-3.27-4.88-4.9c-0.6-0.59-1.21-1.18-1.81-1.79
	c-0.28-0.27-0.55-0.55-0.81-0.85c-1.39-1.4-2.78-2.8-4.18-4.2c-1.32-1.33-2.65-2.66-3.97-3.99c-0.02-0.02-0.04-0.04-0.06-0.06
	c-0.22-0.22-0.45-0.45-0.67-0.67c-0.03-0.03-0.05-0.05-0.08-0.08c-0.35-0.32-0.68-0.65-1-1.01c-0.92-0.92-1.84-1.85-2.76-2.78
	c-0.13-0.13-0.27-0.27-0.4-0.4c-0.55-0.51-1.07-1.04-1.59-1.58c-0.38-0.35-0.74-0.72-1.08-1.11c-0.29-0.3-0.59-0.59-0.88-0.88
	c-0.06-0.06-0.11-0.11-0.17-0.17c-0.56-0.56-1.11-1.12-1.67-1.68c-0.88-0.88-1.75-1.76-2.62-2.64c-1.97-1.98-3.94-3.97-5.91-5.95
	c-1.78-1.79-3.56-3.58-5.34-5.37c-0.9-0.91-1.8-1.82-2.7-2.72c-0.23-0.23-0.46-0.46-0.69-0.7c-0.46-0.41-0.9-0.84-1.31-1.32
	c0,0,0,0-0.01-0.01c-0.02-0.02-0.05-0.05-0.07-0.07c-0.25-0.26-0.51-0.51-0.76-0.77c-0.17-0.17-0.34-0.34-0.51-0.51
	c-0.02-0.02-0.04-0.04-0.06-0.06c-0.3-0.31-0.61-0.61-0.91-0.92c-0.36-0.36-0.71-0.72-1.07-1.08c0,0-0.01-0.01-0.01-0.01l0,0
	c-0.42-0.38-0.82-0.78-1.19-1.2c-0.03-0.03-0.06-0.06-0.09-0.09c-0.01-0.01-0.03-0.03-0.04-0.04c-0.05-0.05-0.09-0.09-0.14-0.14
	c-0.4-0.36-0.78-0.74-1.13-1.14c0,0-0.01-0.01-0.01-0.01l-0.36-0.36c-0.59-0.59-1.17-1.18-1.76-1.76c0,0-0.01-0.01-0.01-0.01
	c-0.48-0.43-0.93-0.88-1.35-1.36c-0.05-0.05-0.11-0.11-0.16-0.16c-0.71-0.6-1.39-1.27-2-1.99c-0.33-0.31-0.64-0.63-0.94-0.97
	c-1.7-1.71-3.39-3.41-3.73-3.75c-3.84-3.87-7.68-7.73-11.53-11.6c-0.3-0.28-0.59-0.57-0.86-0.87c0,0,0,0,0,0l-0.01-0.01
	c-0.02-0.02-0.05-0.05-0.07-0.07c-0.03-0.03-0.06-0.06-0.08-0.09c-0.07-0.06-0.13-0.13-0.2-0.19c-0.51-0.52-1.03-1.03-1.51-1.51
	c-1.91-1.92-3.82-3.85-5.73-5.77c-0.41-0.37-0.79-0.75-0.85-0.86c-0.1-0.1-0.2-0.2-0.3-0.3c0,0-0.01-0.01-0.01-0.01
	c-0.98-0.99-1.96-1.97-2.94-2.96c-0.25-0.26-0.51-0.51-0.76-0.77c-0.02-0.02-0.05-0.05-0.07-0.07c-0.37-0.37-0.74-0.75-1.11-1.12
	c0,0-0.01-0.01-0.01-0.01c0,0,0,0,0,0c-0.37-0.38-0.74-0.75-0.88-0.88c-0.14-0.14-0.27-0.27-0.41-0.41
	c-0.29-0.27-0.56-0.54-0.69-0.69c-0.05-0.05-0.09-0.09-0.14-0.14c0,0,0,0,0-0.01c-0.85-0.86-1.7-1.72-2.56-2.57
	c-0.59-0.59-1.2-1.18-1.79-1.78c-0.26-0.25-0.5-0.5-0.74-0.76c-0.16-0.16-0.32-0.32-0.48-0.48c-0.05-0.05-0.1-0.1-0.15-0.15
	c-0.01-0.01-0.02-0.03-0.04-0.04c-1.95-1.96-3.89-3.92-5.84-5.88c-0.96-0.97-1.93-1.94-2.89-2.91c-0.4-0.41-0.8-0.81-1.1-1.11
	c-0.06-0.06-0.11-0.11-0.17-0.17c-0.01-0.01-0.02-0.02-0.03-0.03c-0.17-0.17-0.34-0.34-0.51-0.51c-0.14-0.14-0.28-0.28-0.3-0.3
	c-0.42-0.42-0.83-0.84-1.25-1.26c-0.4-0.35-0.78-0.73-1.14-1.12c-0.38-0.35-0.74-0.72-1.08-1.11c0,0,0,0,0,0
	c-0.81-0.81-1.62-1.63-2.43-2.44c-1.84-1.86-3.7-3.72-5.54-5.58c-1.79-1.8-3.58-3.6-5.37-5.4c-0.93-0.93-1.85-1.86-2.77-2.79
	c-0.08-0.08-0.15-0.15-0.23-0.23c-0.75-0.63-1.44-1.32-2.06-2.07c-0.03-0.03-0.05-0.05-0.08-0.08c-1.63-1.65-3.27-3.29-4.91-4.94
	c-0.52-0.52-1.03-1.03-1.54-1.55c0,0,0,0,0,0c-0.19-0.19-0.38-0.39-0.57-0.59c-0.12-0.12-0.24-0.23-0.36-0.35
	c-1.25-1.33-2.25-2.86-2.94-4.53c-0.63-1.43-1.03-2.97-1.16-4.65c-0.3-4,1.05-8.04,3.71-11.05c2.57-2.91,6.25-4.75,10.12-5.03
	c3.82-0.29,8.28,0.95,11.05,3.71c0,0,0.01,0.01,0.01,0.01c0,0,0,0,0,0c0,0,0,0,0,0c0.44,0.44,0.85,0.85,1.27,1.28
	c1.16,1.17,2.32,2.34,3.48,3.51c0.83,0.83,1.65,1.66,2.48,2.5c0.21,0.21,0.43,0.43,0.64,0.64c0.68,0.58,1.32,1.22,1.9,1.91
	c0.42,0.42,0.83,0.83,1.25,1.25c3.61,3.63,7.21,7.26,10.82,10.89c1.25,1.26,2.51,2.52,3.76,3.79c0.21,0.21,0.41,0.42,0.62,0.62
	c0.77,0.64,1.48,1.35,2.13,2.12c0.09,0.09,0.18,0.19,0.26,0.29c0.05,0.05,0.1,0.1,0.15,0.15c0.28,0.28,0.55,0.56,0.83,0.84
	c0.77,0.77,1.53,1.54,2.3,2.31c-0.37-0.37-0.74-0.74-1.02-1.03c-0.03-0.03-0.06-0.06-0.1-0.1c-0.08-0.08-0.16-0.16-0.24-0.24
	c3.2,3.22,6.4,6.44,9.59,9.66c0.48,0.43,0.93,0.88,1.35,1.36c0.05,0.05,0.1,0.1,0.15,0.15c0.25,0.23,0.49,0.47,0.72,0.72
	c0.11,0.11,0.23,0.23,0.35,0.35c0.67,0.68,1.34,1.35,2.02,2.03c0.4,0.4,0.79,0.8,1.18,1.19c0.08,0.07,0.15,0.14,0.22,0.21
	c0.48,0.49,0.97,0.98,1.45,1.46c0.29,0.27,0.57,0.54,0.83,0.83c0.25,0.22,0.48,0.45,0.71,0.68c1.7,1.56,3.27,3.33,4.86,4.93
	c0.01,0.01,0.01,0.01,0.02,0.02c1.99,2,3.98,4,5.97,6.01c0.08,0.08,0.16,0.16,0.24,0.24c0.52,0.52,1.03,1.04,1.54,1.55
	c0.02,0.02,0.04,0.04,0.06,0.06c0.17,0.17,0.34,0.34,0.51,0.52c0.38,0.35,0.75,0.72,1.1,1.11c3.45,3.48,6.91,6.95,10.22,10.28
	c0.1,0.11,0.21,0.21,0.31,0.32l0.12,0.12c1.13,1.14,2.26,2.28,3.39,3.41c0.2,0.2,0.4,0.4,0.6,0.61c0.67,0.57,1.3,1.19,1.89,1.86
	c0.17,0.17,0.33,0.35,0.49,0.53c0.26,0.26,0.52,0.53,0.79,0.79c0.04,0.04,0.08,0.08,0.12,0.12c0.69,0.7,1.39,1.4,1.69,1.7
	c0.21,0.21,0.43,0.43,0.64,0.64l0.18,0.18c0.35,0.35,0.7,0.7,1.05,1.05c0.46,0.41,0.89,0.84,1.3,1.31c0.1,0.1,0.2,0.2,0.3,0.31
	c0.54,0.54,1.09,1.09,1.63,1.64c0.36,0.33,0.71,0.68,1.04,1.04c0.05,0.05,0.1,0.1,0.15,0.15c0.03,0.03,0.06,0.06,0.09,0.09
	c0.08,0.08,0.17,0.17,0.25,0.25c0.36,0.33,0.71,0.68,1.04,1.05c0.43,0.43,0.86,0.86,1.28,1.29c0.05,0.05,0.11,0.11,0.16,0.16
	c0.05,0.05,0.09,0.09,0.14,0.14c1.02,1.03,2.04,2.05,3.06,3.08c1.73,1.74,3.46,3.48,5.18,5.21c3.37,3.39,6.74,6.79,10.12,10.18
	c0.57,0.57,1.13,1.14,1.7,1.71c0.54,0.5,1.06,1.03,1.57,1.56c0.39,0.36,0.75,0.73,1.1,1.13c0.68,0.68,1.36,1.37,2.04,2.05
	c0.01,0.01,0.01,0.01,0.02,0.02c0.42,0.38,0.82,0.78,1.2,1.21c0.1,0.1,0.19,0.2,0.28,0.3c0.29,0.28,0.58,0.57,0.88,0.87l0.29,0.29
	c0.18,0.19,0.37,0.37,0.56,0.56c0.15,0.15,0.3,0.29,0.44,0.45c1.47,1.48,2.93,2.95,4.4,4.43c1.2,1.21,2.49,2.39,3.64,3.66
	c0.19,0.19,0.38,0.38,0.57,0.58c0.04,0.04,0.07,0.07,0.11,0.11c1.96,1.98,3.93,3.95,4.54,4.56c1.44,1.45,2.88,2.9,4.09,4.11
	c0.08,0.08,0.17,0.17,0.25,0.25c0.44,0.39,0.85,0.81,1.24,1.25c0.33,0.33,0.65,0.66,0.98,0.99c0,0,0.01,0.01,0.01,0.01
	c0.07,0.07,0.14,0.13,0.2,0.2c0.82,0.83,1.64,1.66,2.46,2.48c1.57,1.58,3.14,3.16,3.34,3.37l1.18,1.19
	c1.97,1.98,3.94,3.97,5.91,5.95c0.89,0.89,1.77,1.79,2.66,2.68c0.34,0.34,0.68,0.69,1.03,1.03c0.1,0.1,0.21,0.21,0.31,0.31
	c0.38,0.34,0.74,0.7,1.09,1.07c0.76,0.63,1.46,1.33,2.11,2.08c1.7,1.58,3.27,3.35,4.86,4.95c0.05,0.05,0.09,0.1,0.14,0.14
	c0.06,0.06,0.12,0.11,0.17,0.17c1.75,1.76,3.5,3.52,5.25,5.29c0.77,0.78,1.55,1.56,2.14,2.16c0.07,0.07,0.13,0.13,0.2,0.2
	c0.4,0.36,0.79,0.75,1.15,1.15c0.45,0.4,0.87,0.83,1.26,1.27c1.9,1.91,3.79,3.82,5.69,5.73c1.37,1.38,2.89,2.74,4.23,4.22
	c0.3,0.29,0.59,0.59,0.86,0.9c0.16,0.16,0.32,0.32,0.48,0.48c3.45,3.47,6.91,6.95,10.36,10.43c0.68,0.56,1.33,1.17,1.92,1.82
	c0.65,0.6,1.25,1.25,1.8,1.93c0.01,0.01,0.02,0.03,0.04,0.04c0.14,0.14,0.27,0.27,0.41,0.41c0.03,0.03,0.05,0.05,0.08,0.08
	c1.03,1.04,2.07,2.08,3.1,3.12c0.85,0.85,1.7,1.71,2.54,2.56c0.07,0.07,0.13,0.14,0.2,0.21c0.12,0.12,0.25,0.25,0.37,0.37l1.49,1.5
	c0.41,0.41,0.82,0.82,1.23,1.23l0.02,0.02c1.87,1.88,3.74,3.76,4.25,4.27c1.36,1.37,2.72,2.74,4.08,4.1c0.2,0.2,0.4,0.39,0.59,0.59
	c0.38,0.38,0.76,0.75,1.13,1.14c0.02,0.03,0.05,0.05,0.07,0.08c0.74,0.72,1.46,1.47,2.19,2.21c0.83,0.83,1.65,1.66,2.48,2.5
	c0.01,0.01,0.02,0.02,0.03,0.03c0.4,0.36,0.78,0.74,1.14,1.15c1.65,1.65,3.29,3.31,4.93,4.96c3.32,3.34,6.63,6.67,9.95,10
	c4.04,4.07,8.08,8.13,12.12,12.2c0.31,0.31,0.62,0.62,0.93,0.93c0.44,0.39,0.85,0.8,1.23,1.24l0.02,0.03
	c0.33,0.33,0.65,0.66,0.98,0.98c0.45,0.4,0.88,0.82,1.29,1.27c0.13,0.13,0.25,0.27,0.38,0.41c0.18,0.18,0.35,0.36,0.48,0.48
	c0.27,0.27,0.53,0.53,0.8,0.8c2.68,2.71,3.91,7.04,3.69,10.75c-0.23,3.99-2.09,7.78-5.09,10.41c-2.73,2.38-6.28,3.72-9.89,3.72
	C892.86,919.17,892.57,919.16,892.28,919.14z"/>
<path class="st0" d="M203.16,952.69c-2.85-2.64-4.59-6.36-4.79-10.24c-0.2-3.85,1.16-8.22,3.98-10.96
	c6.92-6.72,13.68-13.61,20.51-20.41c7.29-7.26,14.59-14.52,21.88-21.77c14.59-14.52,29.17-29.03,43.75-43.54
	c14.66-14.59,29.32-29.18,43.98-43.77c14.42-14.36,28.84-28.71,43.27-43.06c12.44-12.38,24.87-24.75,37.3-37.13
	c2.97-2.96,5.94-5.91,8.91-8.87c0,0,0,0,0,0c2.82-2.77,6.23-4.59,10.24-4.79c4.01-0.2,8.02,1.25,10.96,3.98
	c5.81,5.38,6.62,15.43,0.82,21.2c0,0,0,0,0,0l0,0c0,0,0,0,0,0c-9.26,9.22-18.52,18.43-27.78,27.64
	c-14.47,14.41-28.95,28.82-43.43,43.22c-14.45,14.38-28.9,28.76-43.35,43.14c-14.65,14.58-29.3,29.16-43.96,43.75
	c-14.6,14.53-29.2,29.07-43.8,43.6c-5.77,5.73-11.46,11.55-17.3,17.21c-2.84,2.76-6.21,4.59-10.24,4.79
	c-0.25,0.01-0.5,0.02-0.74,0.02C209.62,956.69,205.92,955.25,203.16,952.69z"/>
<path class="st0" d="M416.84,734.7c-2.12-3.34-2.83-7.45-1.96-11.31c0.83-3.7,2.96-6.61,5.45-8.54c0.67-0.49,1.32-1.01,1.94-1.56
	c0.45-0.45,0.88-0.92,1.3-1.4c0.49-0.64,0.96-1.3,1.4-1.97c0.57-0.97,1.1-1.97,1.58-2.99c0.61-1.44,1.14-2.91,1.61-4.4
	c0.56-2.05,1.02-4.13,1.37-6.23c0.42-2.99,0.65-6,0.75-9.02c0.03-4.22-0.19-8.43-0.64-12.62c-0.66-5.3-1.64-10.56-2.89-15.75
	c-1.59-6.19-3.55-12.27-5.84-18.24c-2.51-6.28-5.37-12.41-8.58-18.36c-3.01-5.41-6.3-10.65-9.89-15.68
	c-3.07-4.16-6.33-8.15-9.84-11.95c-2.79-2.9-5.71-5.66-8.79-8.25c-2.36-1.88-4.8-3.65-7.35-5.28c-0.13-0.08-0.25-0.15-0.38-0.23
	c-3.4-2.02-6.02-4.86-7.24-8.69c-1.22-3.82-0.83-8.07,1.05-11.61c1.83-3.43,4.99-6.06,8.69-7.24c3.69-1.18,8.22-0.96,11.61,1.05
	c16.49,9.79,29.66,24.18,40.27,40c10.2,15.2,18.07,32.11,23.3,49.65c4.76,15.99,7.45,32.9,6.21,49.61
	c-0.7,9.35-2.83,18.5-6.79,27.02c-3.48,7.48-8.9,13.88-15.64,18.61c-2.31,1.63-5,2.37-7.7,2.37
	C424.74,741.71,419.6,739.06,416.84,734.7z"/>
<path class="st0" d="M136.22,981.28c-15.13-2.11-29.67-7.27-43.14-14.41c-13.22-7.01-25.29-16.05-36.28-26.17
	c-8.9-8.21-17.16-17.27-24.49-26.91c-4.95-6.5-3.75-16.04,2.75-21.04c6.45-4.96,16.09-3.75,21.04,2.75
	c2.68,3.53,5.53,6.94,8.45,10.27c5.28,5.9,10.89,11.51,16.85,16.74c5.04,4.31,10.32,8.33,15.85,12.01c4.71,3.03,9.58,5.8,14.61,8.26
	c4.3,2,8.7,3.77,13.2,5.27c3.86,1.2,7.77,2.2,11.74,2.96c3.47,0.59,6.96,1.01,10.47,1.24c3.27,0.13,6.53,0.1,9.8-0.1
	c3.05-0.27,6.08-0.69,9.09-1.27c2.95-0.65,5.86-1.44,8.72-2.38c2.9-1.03,5.74-2.22,8.51-3.54c2.94-1.5,5.8-3.15,8.56-4.95
	c3-2.06,5.88-4.28,8.64-6.66c0.38-0.34,0.76-0.69,1.14-1.04c2.92-2.7,6.44-4.38,10.47-4.42c4-0.05,7.91,1.55,10.74,4.36
	c5.62,5.58,6.06,15.66,0.06,21.22c-5.59,5.18-11.59,9.82-18.08,13.82c-8.97,5.53-18.94,9.72-29.2,12.16
	c-8.07,1.92-16.32,2.88-24.59,2.88C146.16,982.32,141.17,981.97,136.22,981.28z"/>
</svg>
