<?xml version="1.0" encoding="utf-8"?>
<!-- Generator: Adobe Adobe Illustrator 24.2.0, SVG Export Plug-In . SVG Version: 6.00 Build 0)  -->
<svg version="1.1" id="Layer_1" xmlns="http://www.w3.org/2000/svg" xmlns:xlink="http://www.w3.org/1999/xlink" x="0px" y="0px"
	 viewBox="0 0 300 300" style="enable-background:new 0 0 300 300;" xml:space="preserve">
<style type="text/css">
	.st0{fill:#C7CCAC;}
	.st1{fill:#FFFFFF;}
</style>
<circle class="st0" cx="149.89" cy="150.14" r="146.5"/>
<path class="st1" d="M63.5,197v-94c0-5.52,4.48-10,10-10h153c5.52,0,10,4.48,10,10v94c0,5.52-4.48,10-10,10h-153
	C67.98,207,63.5,202.52,63.5,197z"/>
<rect x="47.9" y="118.15" transform="matrix(0.8419 0.5396 -0.5396 0.8419 81.5633 -37.1047)" class="st0" width="112.41" height="5"/>
<rect x="145.7" y="174.37" transform="matrix(0.8068 0.5909 -0.5909 0.8068 142.5674 -82.1927)" class="st0" width="102.5" height="5"/>
<rect x="139.44" y="118.89" transform="matrix(0.829 -0.5592 0.5592 0.829 -35.0125 128.2505)" class="st0" width="105.59" height="5"/>
<rect x="48.1" y="176.03" transform="matrix(-0.8047 0.5936 -0.5936 -0.8047 288.0662 262.3109)" class="st0" width="105.59" height="5"/>
</svg>
