<?xml version="1.0" encoding="utf-8"?>
<!-- Generator: Adobe Adobe Illustrator 24.2.0, SVG Export Plug-In . SVG Version: 6.00 Build 0)  -->
<svg version="1.1" id="Capa_de_vector_1_" xmlns="http://www.w3.org/2000/svg" xmlns:xlink="http://www.w3.org/1999/xlink" x="0px"
	 y="0px" viewBox="0 0 1000 1000" style="enable-background:new 0 0 1000 1000;" xml:space="preserve">
<style type="text/css">
	.st0{fill:#AF9786;}
</style>
<path class="st0" d="M446.68,904.49c-8.24-0.09-14.84-7-14.83-15.17c0.04-25.52,0.07-51.04,0.1-76.56
	c0.04-31.79,0.08-63.57,0.12-95.36c0.04-31.89,0.08-63.77,0.12-95.66c0.04-32.6,0.08-65.2,0.12-97.79
	c0.04-32.52,0.09-65.05,0.12-97.58c0.04-33.1,0.08-66.19,0.12-99.29c0.04-32.6,0.09-65.2,0.12-97.8
	c0.04-32.59,0.08-65.18,0.12-97.77c0.01-6.02,0.02-12.03,0.02-18.04c0-8.18,7.07-14.92,15.17-14.83c8.24,0.09,14.83,7,14.83,15.17
	c0,29.34-0.08,58.68-0.11,88.02c-0.04,33.06-0.08,66.12-0.12,99.18c-0.04,33.1-0.08,66.2-0.12,99.3
	c-0.04,32.34-0.08,64.69-0.12,97.04c-0.04,32.83-0.09,65.67-0.12,98.5c-0.04,32.17-0.08,64.34-0.12,96.51
	c-0.05,31.66-0.08,63.31-0.12,94.97c-0.04,30.6-0.08,61.2-0.12,91.8c0,3.52-0.01,7.03-0.01,10.55c-0.01,8.12-6.96,14.83-15,14.83
	C446.79,904.49,446.73,904.49,446.68,904.49z"/>
<path class="st0" d="M691.8,883.12c-12.64-3.13-23.77-12.26-29.94-23.63c-3.16-5.83-5.08-12.24-5.69-18.84
	c-0.34-3.7-0.26-7.47,0.28-11.15c0.55-3.74,1.57-7.22,2.82-10.78c2.14-6.05,6.04-11.74,10.51-16.29
	c4.54-4.63,10.04-8.37,16.03-10.87c1.49-0.62,3.02-1.19,4.57-1.66c8.86-2.81,18.7-2.62,27.58-0.11
	c11.78,3.32,21.86,11.42,28.16,21.84c3.13,5.18,5.12,10.99,6.14,16.93c1.1,6.41,0.64,12.86-0.73,19.18
	c-2.71,12.5-11.21,23.25-21.88,29.99c-5.4,3.41-11.67,5.53-17.95,6.52c-2.31,0.36-4.63,0.53-6.94,0.53
	C700.41,884.78,696.06,884.18,691.8,883.12z M705.66,854.76c0.83-0.09,1.66-0.2,2.48-0.33c0.85-0.21,1.68-0.44,2.51-0.7
	c0.69-0.27,1.36-0.55,2.03-0.86c0.7-0.38,1.39-0.78,2.07-1.2c0.65-0.47,1.28-0.95,1.89-1.46c0.55-0.52,1.08-1.05,1.6-1.59
	c0.5-0.61,0.99-1.23,1.46-1.87c0.44-0.7,0.86-1.41,1.26-2.14c0.33-0.73,0.65-1.47,0.94-2.22c0.24-0.78,0.46-1.56,0.65-2.35
	c0.14-0.82,0.25-1.64,0.34-2.47c0.03-0.75,0.03-1.51,0.01-2.26c-0.09-0.88-0.2-1.76-0.34-2.64c-0.19-0.8-0.41-1.58-0.65-2.36
	c-0.28-0.73-0.58-1.46-0.9-2.17c-0.38-0.7-0.78-1.4-1.2-2.08c-0.46-0.64-0.94-1.26-1.43-1.87c-0.56-0.59-1.13-1.17-1.71-1.73
	c-0.61-0.5-1.23-0.98-1.86-1.45c-0.63-0.4-1.27-0.77-1.92-1.14c-0.79-0.37-1.59-0.71-2.4-1.02c-0.78-0.24-1.56-0.45-2.35-0.65
	c-0.79-0.13-1.59-0.24-2.39-0.33c-0.82-0.03-1.64-0.03-2.46-0.01c-0.9,0.09-1.79,0.2-2.68,0.35c-0.55,0.13-1.1,0.27-1.65,0.43
	c-0.08,0.02-0.16,0.05-0.24,0.07c-0.83,0.31-1.64,0.66-2.45,1.03c-0.74,0.4-1.46,0.82-2.17,1.27c-0.64,0.47-1.26,0.95-1.88,1.45
	c-0.54,0.51-1.07,1.03-1.58,1.57c-0.51,0.62-1,1.24-1.47,1.89c-0.42,0.68-0.83,1.37-1.21,2.07c-0.36,0.79-0.69,1.6-1,2.41
	c-0.21,0.71-0.4,1.42-0.58,2.14c-0.13,0.8-0.24,1.59-0.34,2.4c-0.03,0.87-0.03,1.73-0.01,2.6c0.08,0.79,0.19,1.57,0.31,2.35
	c0.2,0.85,0.43,1.7,0.69,2.54c0.26,0.68,0.54,1.35,0.84,2.02c0.4,0.75,0.83,1.48,1.27,2.2c0.47,0.65,0.96,1.28,1.46,1.9
	c0.49,0.52,0.99,1.02,1.5,1.52c0.65,0.54,1.32,1.06,2,1.56c0.66,0.41,1.33,0.81,2.01,1.18c0.71,0.32,1.43,0.63,2.15,0.92
	c0.74,0.23,1.48,0.44,2.23,0.63c0.96,0.17,1.92,0.3,2.89,0.4C704.13,854.78,704.89,854.78,705.66,854.76z"/>
<path class="st0" d="M674.28,226.25c-6.1-0.47-12.07-2.73-17.39-5.65c-5.51-3.03-10.57-7.63-14.15-12.79
	c-2.02-2.92-3.89-6.01-5.16-9.35c-1.29-3.39-2.17-6.71-2.79-10.29c-1.08-6.29-0.39-13.04,1.35-19.13
	c2.95-10.27,9.85-19.27,18.8-25.04c5.53-3.56,11.63-5.72,18.03-6.66c0.59-0.14,1.19-0.23,1.8-0.29c0.01,0,0.02,0,0.02,0l0.35-0.02
	c0.23-0.01,0.46-0.03,0.68-0.04c0.08,0,0.16-0.01,0.23-0.01c0.06-0.01,0.13-0.01,0.19-0.02c0.18-0.01,0.37-0.02,0.55-0.03
	c0-0.01,0-0.01,0-0.02c0,0,0,0-0.01,0c0,0,0,0,0.01,0l0,0c0,0,0.01,0,0.01,0c0.29-0.02,0.57-0.04,0.86-0.05
	c0.47-0.03,0.94-0.02,1.41,0.02c2.61-0.01,5.21,0.16,7.81,0.66c3.23,0.61,6.32,1.46,9.36,2.71c3.27,1.34,6.22,3.13,9.12,5.11
	c5.14,3.5,9.51,8.54,12.59,13.9c3.26,5.68,5.39,12.16,5.83,18.71c0.25,3.64,0.19,7.26-0.4,10.88c-0.54,3.32-1.48,6.43-2.66,9.57
	c-2.11,5.61-5.71,10.72-9.89,14.98c-4.4,4.48-10.03,8.17-15.96,10.27c-3.3,1.16-6.7,2.15-10.2,2.53c-1.83,0.19-3.61,0.28-5.4,0.28
	C677.65,226.46,675.98,226.38,674.28,226.25z M680,196.5c0.69-0.07,1.37-0.16,2.06-0.27c0.63-0.16,1.26-0.32,1.89-0.51
	c0.63-0.25,1.25-0.51,1.87-0.78c0.55-0.3,1.1-0.62,1.64-0.95c0.51-0.38,1.02-0.76,1.51-1.17c0.44-0.41,0.86-0.84,1.28-1.27
	c0.4-0.49,0.79-0.98,1.16-1.48c0.32-0.52,0.64-1.04,0.93-1.57c0.29-0.62,0.55-1.24,0.81-1.87c0.2-0.65,0.39-1.31,0.55-1.98
	c0.11-0.66,0.2-1.32,0.27-1.98c0.02-0.63,0.02-1.26,0-1.89c-0.07-0.66-0.15-1.32-0.26-1.97c-0.16-0.65-0.33-1.3-0.53-1.95
	c-0.23-0.6-0.48-1.2-0.75-1.78c-0.31-0.57-0.63-1.12-0.97-1.67c-0.36-0.5-0.73-0.98-1.12-1.46c-0.44-0.47-0.89-0.92-1.35-1.36
	c-0.49-0.4-1-0.79-1.51-1.17c-0.55-0.34-1.1-0.67-1.67-0.98c-0.58-0.27-1.17-0.52-1.76-0.75c-0.63-0.2-1.27-0.38-1.91-0.53
	c-0.69-0.12-1.38-0.21-2.07-0.29c-0.62-0.02-1.23-0.03-1.85-0.01c-0.61,0.06-1.22,0.14-1.82,0.24c-0.62,0.15-1.23,0.31-1.83,0.5
	c-0.67,0.26-1.33,0.54-1.99,0.84c-0.55,0.31-1.1,0.63-1.64,0.96c-0.58,0.43-1.15,0.88-1.71,1.34c-0.38,0.37-0.75,0.75-1.12,1.13
	c-0.44,0.55-0.87,1.1-1.29,1.67c-0.3,0.49-0.6,0.99-0.88,1.49c-0.28,0.61-0.54,1.22-0.78,1.84c-0.17,0.56-0.32,1.11-0.47,1.68
	c-0.12,0.72-0.23,1.45-0.31,2.18c-0.02,0.7-0.02,1.4,0,2.1c0.07,0.57,0.14,1.14,0.23,1.71c0.17,0.7,0.36,1.4,0.56,2.09
	c0.24,0.59,0.49,1.18,0.75,1.76c0.3,0.54,0.61,1.07,0.93,1.6c0.36,0.49,0.72,0.96,1.1,1.43c0.48,0.51,0.98,1.01,1.49,1.5
	c0.48,0.38,0.96,0.75,1.46,1.12c0.48,0.3,0.96,0.58,1.45,0.86c0.63,0.29,1.27,0.57,1.91,0.82c0.63,0.19,1.26,0.37,1.9,0.53
	c0.68,0.11,1.36,0.2,2.04,0.28C678.8,196.51,679.4,196.51,680,196.5z"/>
<path class="st0" d="M831.89,575.71c-7.01-1.7-13.43-5.11-18.77-9.95c-5.09-4.62-8.79-10.49-11.19-16.89
	c-2.2-5.84-3.03-12.66-2.18-18.85c0.47-3.4,1.16-6.65,2.32-9.89c1.18-3.29,2.89-6.32,4.79-9.23c3.85-5.91,9.62-10.63,15.84-13.88
	c3.27-1.71,6.85-2.91,10.46-3.67c0.04-0.01,0.08-0.02,0.12-0.03c0.06-0.01,0.11-0.02,0.17-0.03c0.3-0.06,0.6-0.11,0.9-0.15
	c9.43-1.53,19.17-0.06,27.59,4.6c6.18,3.41,11.48,8.33,15.3,14.29c3.58,5.58,5.66,11.9,6.39,18.47c0.7,6.25-0.16,12.79-2.33,18.69
	c-2.4,6.52-6.36,12.14-11.41,16.86c-7.56,7.07-17.96,10.82-28.28,10.82C838.31,576.85,835.05,576.47,831.89,575.71z M841.48,546.86
	c0.58-0.02,1.15-0.05,1.73-0.1c0.49-0.09,0.99-0.18,1.48-0.28c0.57-0.18,1.14-0.36,1.7-0.56c0.45-0.21,0.89-0.43,1.33-0.66
	c0.42-0.26,0.83-0.54,1.24-0.82c0.4-0.33,0.79-0.66,1.17-1c0.38-0.4,0.75-0.81,1.11-1.23c0.31-0.43,0.61-0.86,0.9-1.31
	c0.24-0.45,0.48-0.9,0.7-1.36c0.2-0.51,0.38-1.03,0.55-1.55c0.13-0.54,0.25-1.09,0.35-1.64c0.05-0.51,0.09-1.03,0.12-1.54
	c-0.02-0.54-0.05-1.08-0.1-1.62c-0.09-0.55-0.2-1.09-0.32-1.64c-0.16-0.52-0.33-1.04-0.52-1.55c-0.21-0.46-0.43-0.91-0.67-1.36
	c-0.26-0.42-0.53-0.83-0.81-1.23c-0.33-0.41-0.67-0.8-1.02-1.19c-0.38-0.36-0.76-0.71-1.16-1.05c-0.43-0.31-0.86-0.61-1.3-0.9
	c-0.51-0.28-1.02-0.54-1.54-0.79c-0.49-0.19-0.99-0.37-1.49-0.53c-0.55-0.13-1.11-0.25-1.66-0.35c-0.5-0.05-1.01-0.09-1.51-0.11
	c-0.58,0.02-1.17,0.05-1.75,0.1c-0.21,0.03-0.41,0.07-0.62,0.11c-0.01,0-0.03,0.01-0.04,0.01c-0.04,0.01-0.07,0.02-0.11,0.02
	c-0.2,0.04-0.41,0.08-0.61,0.13c-0.49,0.15-0.98,0.31-1.46,0.49c-0.44,0.2-0.88,0.42-1.32,0.65c-0.5,0.31-0.99,0.64-1.47,0.97
	c-0.43,0.35-0.85,0.72-1.26,1.09c-0.3,0.32-0.59,0.64-0.87,0.96c-0.34,0.46-0.67,0.93-0.99,1.4c-0.29,0.53-0.57,1.07-0.83,1.62
	c-0.18,0.47-0.34,0.94-0.5,1.41c-0.11,0.48-0.22,0.97-0.31,1.46c-0.06,0.57-0.1,1.14-0.13,1.71c0.02,0.5,0.05,1,0.09,1.5
	c0.1,0.58,0.21,1.16,0.34,1.74c0.15,0.48,0.31,0.95,0.48,1.43c0.24,0.52,0.49,1.03,0.75,1.53c0.28,0.43,0.56,0.86,0.85,1.28
	c0.32,0.38,0.64,0.75,0.97,1.12c0.37,0.34,0.74,0.68,1.12,1.01c0.44,0.32,0.89,0.62,1.34,0.92c0.47,0.25,0.93,0.49,1.41,0.73
	c0.52,0.19,1.04,0.38,1.57,0.55c0.49,0.11,0.98,0.22,1.47,0.32C840.38,546.78,840.93,546.83,841.48,546.86z"/>
<path class="st0" d="M239.04,590.45c1.75-28.34,18.74-52.91,35.23-74.98c14.21-16.81,28.8-33.32,46.35-46.76
	c29.38-22.29,64.57-40.71,96.59-57.73c11.8-6.07,27.4-20.65,37.87-4.56c8.76,17.64-11.81,23.61-23.26,30.73
	c-17.9,9.37-35.54,19.23-53.19,29.05c-42.74,23.93-80.07,58.23-102.81,101.89c-3.2,7.06-5.88,14.64-6.77,22.35
	C268.61,610.06,239.49,610.18,239.04,590.45z"/>
<path class="st0" d="M440.33,422.88c-16.86-14.58,6.49-29.93,15.64-40.09c11.34-12.46,21.78-25.74,29.68-40.68
	c15.33-24.78,24.27-54.39,21.55-83.65c-2.17-19.66,26.68-23.53,29.73-4.07c2.48,21.34-1.14,43.03-7.06,63.54
	c-10.23,30.19-27.64,58.01-48.84,81.7c-3.49,4-7.02,7.82-10.91,11.43C461.17,419.83,453.66,432.12,440.33,422.88z"/>
<path class="st0" d="M333.75,262.01c0-0.03-0.01-0.05-0.01-0.08c-0.01-0.13-0.03-0.26-0.04-0.39c-0.83-8.98-0.79-17.9,0.38-26.85
	c1.43-10.91,4.59-21.75,9.25-31.71c4.86-10.39,11.19-19.8,18.81-28.35c6.72-7.55,14.65-13.93,23.14-19.38
	c17.63-11.33,38.94-17.24,59.85-17.11c19.62,0.12,39,5.44,55.95,15.32c16.18,9.44,29.83,23.09,39.43,39.16
	c3.96,6.63,7.1,13.65,9.65,20.92c2.71,8.07,4.65,16.35,5.47,24.84c0.27,2.77,0.45,5.55,0.54,8.34c0.26,8.18-7.08,14.98-15.04,14.96
	c-3.96-0.01-7.8-1.62-10.59-4.42c-2.86-2.88-4.24-6.61-4.36-10.62c-0.02-0.69-0.05-1.37-0.09-2.06c-0.28-3.68-0.76-7.35-1.45-10.97
	c-0.75-3.52-1.69-6.99-2.82-10.4c-1.21-3.39-2.6-6.71-4.17-9.94c-0.97-1.89-1.99-3.75-3.09-5.57c-0.66-1.11-1.35-2.2-2.05-3.28
	c-0.3-0.44-0.61-0.88-0.91-1.32c-1.7-2.42-3.53-4.75-5.45-7c-2.34-2.61-4.8-5.09-7.4-7.45c-2.63-2.27-5.36-4.39-8.2-6.38
	c-2.96-1.96-6.02-3.76-9.17-5.4c-3.13-1.53-6.33-2.89-9.61-4.09c-3.43-1.16-6.92-2.13-10.45-2.92c-3.61-0.7-7.25-1.21-10.91-1.52
	c-3.66-0.21-7.32-0.22-10.97-0.04c-3.68,0.29-7.34,0.77-10.97,1.46c-3.52,0.76-6.98,1.71-10.4,2.83c-3.31,1.19-6.55,2.55-9.72,4.07
	c-3.15,1.62-6.22,3.4-9.19,5.33c-2.84,1.96-5.58,4.06-8.21,6.3c-2.59,2.33-5.06,4.77-7.4,7.35c-2.28,2.65-4.41,5.4-6.42,8.26
	c-1.9,2.88-3.65,5.85-5.25,8.91c-1.56,3.18-2.95,6.43-4.18,9.76c-1.18,3.52-2.17,7.09-2.98,10.71c-0.68,3.55-1.17,7.12-1.48,10.72
	c-0.21,3.72-0.21,7.43-0.02,11.15c0.08,0.95,0.16,1.89,0.25,2.84c0,0.01,0,0.03,0,0.04c0,0,0,0,0,0.01
	c0.38,4.04-0.5,7.95-3.02,11.19c-2.4,3.09-5.98,5.15-9.86,5.67c-0.63,0.08-1.26,0.12-1.89,0.12
	C341.43,275.01,334.58,269.49,333.75,262.01z"/>
<path class="st0" d="M215.19,595.68c-7.42-16.27-13.29-33.27-17.2-50.73c-4.57-20.4-6.85-41.23-6.51-62.14
	c0.34-20.91,3.2-41.83,8.55-62.05c5.5-20.79,13.55-40.88,23.96-59.7c2.45-4.43,5.05-8.78,7.76-13.06c0.9-1.42,1.75-2.91,2.77-4.27
	c0.12-0.18,0.24-0.37,0.36-0.56c0.7-1.06,1.41-2.11,2.12-3.16c1.36-2,2.75-3.98,4.18-5.94c2.88-3.95,5.86-7.84,8.97-11.61
	c13.6-16.46,28.97-31.35,46.12-44.09c16.72-12.42,34.89-22.83,54.07-30.96c19.56-8.29,40.17-14.09,61.15-17.39
	c21.11-3.32,42.57-3.87,63.85-2.02c21.04,1.83,41.81,6.5,61.75,13.38c18.82,6.49,36.91,15.26,53.71,25.94
	c17.64,11.22,33.92,24.48,48.41,39.56c0.91,0.95,1.8,1.91,2.7,2.87c0.36,0.38,0.71,0.76,1.05,1.15c0.01,0.01,0.02,0.02,0.02,0.03
	c0.17,0.17,0.33,0.34,0.49,0.51c0.52,0.51,1.01,1.06,1.46,1.64c0.47,0.52,0.95,1.05,1.42,1.58c1.65,1.85,3.27,3.74,4.87,5.64
	c3.18,3.78,6.22,7.68,9.17,11.64c12.14,16.33,22.4,34.12,30.37,52.84c8.08,18.99,13.98,38.92,17.38,59.28
	c3.48,20.92,4.31,42.11,2.78,63.25c-1.46,20.08-5.45,40.12-11.67,59.26c-1.23,3.78-2.52,7.54-3.89,11.27
	c-0.05,0.15-0.1,0.29-0.16,0.44c-0.05,0.14-0.11,0.29-0.16,0.43c-0.03,0.08-0.06,0.17-0.09,0.25c-2.89,7.64-12.07,11.31-19.53,8.3
	c-3.59-1.45-6.55-4.3-8.11-7.85c-1.66-3.75-1.6-7.87-0.19-11.68c1.07-2.89,2.11-5.79,3.08-8.72c3.12-9.64,5.64-19.47,7.57-29.42
	c1.84-10.12,3.05-20.32,3.66-30.59c0.47-10.41,0.31-20.82-0.5-31.21c-0.93-10.2-2.46-20.31-4.6-30.33
	c-2.28-9.99-5.15-19.82-8.6-29.47c-3.55-9.49-7.63-18.74-12.28-27.75c-4.67-8.77-9.83-17.24-15.48-25.41
	c-5.63-7.92-11.7-15.51-18.2-22.73c-6.58-7.2-13.61-14-21.02-20.33c-7.51-6.31-15.36-12.17-23.54-17.57
	c-8.31-5.35-16.92-10.19-25.79-14.53c-9.14-4.34-18.53-8.12-28.13-11.33c-9.61-3.08-19.37-5.58-29.27-7.51
	c-10.12-1.83-20.32-3.04-30.59-3.65c-10.37-0.46-20.73-0.3-31.07,0.49c-10.29,0.93-20.49,2.48-30.6,4.65
	c-9.82,2.25-19.49,5.07-28.98,8.45c-9.53,3.55-18.83,7.64-27.87,12.29c-8.8,4.67-17.29,9.85-25.49,15.51
	c-7.98,5.67-15.61,11.78-22.89,18.33c-7.11,6.57-13.83,13.52-20.17,20.85c-6.17,7.34-11.9,15-17.22,22.97
	c-0.13,0.2-0.26,0.4-0.4,0.6c-0.02,0.03-0.04,0.06-0.06,0.09c-0.14,0.21-0.27,0.42-0.41,0.62c-0.08,0.14-0.17,0.27-0.25,0.4
	c-1.03,1.61-2.04,3.22-3.02,4.86c-3.92,6.51-7.54,13.17-10.88,19.99c-4.31,9.14-8.07,18.49-11.29,28.07
	c-3.1,9.7-5.63,19.57-7.57,29.57c-1.8,10.03-3,20.14-3.59,30.31c-0.46,10.43-0.29,20.86,0.52,31.27c0.94,10.28,2.5,20.48,4.68,30.57
	c2.26,9.87,5.11,19.57,8.53,29.1c2.19,5.87,4.59,11.65,7.19,17.35c3.39,7.44-0.25,16.51-7.66,19.79c-1.93,0.85-3.95,1.26-5.94,1.26
	C223.26,604.59,217.71,601.2,215.19,595.68z"/>
<path class="st0" d="M269.16,710.04c-23.73-0.67-49.88-7.5-63.13-28.9c-17.01-28.27-24.86-76.03,7.65-96.22
	c9.24-6.66,20.82-9.51,31.98-6.83c10.71,1.4,20.47,2.98,21.21,16.08c0,8.17-6.82,15-15,15c-5.61,0.25-11.09-2.29-16.62-1.89
	c-3.86,1.91-8.39,3.92-10.76,7.67c-4.48,10.54-3.72,22.85-0.31,33.59c7.45,25.33,20.06,29.98,44.98,31.49
	C288.95,680.54,288.85,709.6,269.16,710.04z"/>
<path class="st0" d="M629.83,702.12c-12.82-1.17-17.6-19.28-7.13-26.74c7.5-6.03,17.37-0.92,25.95-2.82
	c10.63-1.66,17.94-9.5,24.89-17.05c7.52-9.12,13.79-20.99,14.08-32.99c-0.1-11.59-9.49-24.5-22.14-19.61
	c-14.96,15.2-36.15-7.3-21.09-21.94c11.41-9.68,28.76-11.23,42.59-6.4c9.34,3.92,17,11.4,22.68,19.66
	c17.02,27.31,4.1,62.78-16.61,84.32C676.99,697.7,654.5,706.03,629.83,702.12z"/>
<path class="st0" d="M642.57,584.91c-6.1-24.75-19.67-38.07-38.85-53.59c-19.23-16.81-38.97-33.07-59.23-48.63
	c-24.35-17.8-47.48-37.75-65.77-61.88c-6.12-8.46-14.52-17.07-14.95-28.05c0-8.18,6.82-15,15-15c10.86,0.41,12.54,7.46,16.68,15.32
	c5.28,7.43,11.01,14.55,16.86,21.54c17.03,19.24,37.6,34.73,58.05,50.1c28.16,23.53,58.5,45.18,82.72,72.93
	c6.89,8.21,11.17,18.09,14.6,28.14c2.64,7.17,6.77,15.4,2.3,22.69C663.9,599.72,645.56,597.47,642.57,584.91z"/>
<path class="st0" d="M442.91,852.84c-48.45-14.87-95.53-36.03-135-68.27c-17.86-12.96-32.7-31.2-39.92-52.2
	c-3.11-12.14-4.02-24.8-5.34-37.23c0.47-19.5,29.21-19.79,30-0.25c1.49,9.9,1.74,20.06,4.36,29.75
	c8.04,20.96,26.29,34.86,43.99,47.43c19.86,13.54,40.59,26.1,63.09,34.76c15.38,6.26,30.85,12.4,46.8,17.08
	C469.72,829.85,462.07,857.57,442.91,852.84z"/>
<path class="st0" d="M436.38,837c0.05-10.84,9.57-15.25,18.95-15.83c5.98-1.12,11.4-3.77,16.81-6.47c13-5.98,25.58-12.8,38.67-18.61
	c18.53-9.9,35.78-22.6,50.61-37.47c10.14-9.81,19.59-20.44,28.19-31.62c4.41-7.41,7.71-15.44,11.89-22.99
	c2.66-5.26,5.01-10.71,6.21-16.51c0.73-3.9,2.5-7.34,5.69-9.8c6.28-5.04,16.24-3.77,21.04,2.71c9.38,12.66-6.2,35.7-11.82,48
	c-5.15,12.17-12.89,22.79-22.1,32.19c-19.17,23.12-42.53,42.73-68.34,58.06c-12.55,6.92-25.89,12.2-38.47,19.1
	C478.11,844.83,440.24,866.24,436.38,837z"/>
<path class="st0" d="M445.7,771.77c-11.56-0.79-23.58-0.85-34.29-5.81c-10.41-4.94-20.73-12.91-24.96-23.93
	c-4.95-17.96,20.6-27.3,28.3-10.25c5.21,6.61,13.49,9.08,21.63,9.27c10.52,1.15,21.53,1.89,31.23-3.16
	c9.72-3.42,11.67-15.53,21.33-18.32c12.38-3.87,23.94,11.01,16.94,22.03C493.82,762.37,469.29,773.52,445.7,771.77z"/>
<path class="st0" d="M539.43,605.46c-12.96,0.13-26.18-1.33-37.92-7.18c-8.09-4.26-17.86-10.38-18.12-20.6
	c0.81-16.06,19.39-19.76,28.72-7.73c8.51,5.03,18.66,5.74,28.33,5.5c14.25-1.62,14.86-11.72,25.98-11.86
	c13-0.38,19.98,16.64,10.61,25.61C567.56,599.35,553.19,605.05,539.43,605.46z"/>
<path class="st0" d="M361.44,606.14c-17.92,0.63-35.7-5.6-48.25-18.65c-12.23-7.73-6.31-27.64,8.27-27.45
	c9.02-0.33,13.63,8.56,20.83,12.32c5.16,2.72,10.82,3.86,16.63,3.67c10.76,1.57,22.23-0.59,30.19-8.46
	c14.24-13.56,34.82,6.97,21.22,21.21C397.68,601.04,379.1,608.36,361.44,606.14z"/>
<path class="st0" d="M346.06,504.95c0-8.18,6.82-15,15-15s15,6.82,15,15c0,8.18-6.82,15-15,15S346.06,513.12,346.06,504.95z"/>
<path class="st0" d="M379.65,515.63c0-8.18,6.82-15,15-15s15,6.82,15,15c0,8.18-6.82,15-15,15S379.65,523.8,379.65,515.63z"/>
<path class="st0" d="M384.58,649.45c0-8.18,6.82-15,15-15s15,6.82,15,15s-6.82,15-15,15S384.58,657.63,384.58,649.45z"/>
<path class="st0" d="M307.36,647.09c0-8.18,6.82-15,15-15s15,6.82,15,15s-6.82,15-15,15S307.36,655.27,307.36,647.09z"/>
<path class="st0" d="M330.29,695.96c0-8.18,6.82-15,15-15s15,6.82,15,15s-6.82,15-15,15S330.29,704.13,330.29,695.96z"/>
<path class="st0" d="M385.04,700.14c0-8.18,6.82-15,15-15s15,6.82,15,15s-6.82,15-15,15S385.04,708.32,385.04,700.14z"/>
<path class="st0" d="M258.59,636.35c0-8.18,6.82-15,15-15s15,6.82,15,15s-6.82,15-15,15S258.59,644.53,258.59,636.35z"/>
<path class="st0" d="M278.63,249.18c-19.43-0.12-38.86-0.25-58.28-0.38c-21.3-0.14-42.61-0.28-63.91-0.42
	c-6.01-0.04-12.02-0.08-18.03-0.12c-0.01,0-0.02,0-0.03,0c-0.2,0-0.4,0-0.6,0c-8.18-0.05-14.85-7.22-14.69-15.3
	c0.16-8.26,7.14-14.74,15.3-14.69c20.64,0.13,41.29,0.27,61.93,0.41c20.85,0.14,41.71,0.27,62.56,0.41
	c5.46,0.04,10.91,0.07,16.37,0.11c8.18,0.05,14.85,7.22,14.69,15.3c-0.16,8.23-7.09,14.69-15.21,14.69
	C278.69,249.18,278.66,249.18,278.63,249.18z"/>
<path class="st0" d="M276.02,240.62c-8.12-7.39-18.66-13.45-23.41-23.71c-5.46-14.06,12.05-26.64,23.62-16.92
	c5.5,6.7,12.18,12.01,18.89,17.49C309.98,230.41,291.45,252.8,276.02,240.62z M281.6,212.32c0.02-0.08,0.04-0.16,0.05-0.23
	c-0.01-0.13-0.02-0.26-0.04-0.39C281.62,211.91,281.61,212.12,281.6,212.32z"/>
<path class="st0" d="M258.78,260.5c-13.94-13.58,1.19-25.69,12.6-33.72c7.49-6.43,18.64-13,27.56-5.24
	c8.99,7.06,6.12,22.62-4.88,25.77C282.43,253.87,273.33,271.47,258.78,260.5z"/>
<path class="st0" d="M134.69,833.09c-2.69-2.84-4.17-6.7-4.09-10.61c0.08-3.99,1.8-7.85,4.7-10.6c2.95-2.79,6.62-3.95,10.61-4.09
	c0,0,0.01,0,0.01,0c0,0,0.01,0,0.01,0c0.08,0,0.16,0,0.24,0c19.56-0.58,39.11-1.31,58.67-1.96c19.66-0.65,39.33-1.31,58.99-1.96
	c1.68-0.06,3.36-0.11,5.04-0.17c3.91-0.13,7.96,1.91,10.6,4.7c2.69,2.84,4.17,6.7,4.09,10.61c-0.08,4-1.8,7.86-4.7,10.6
	c-2.95,2.79-6.62,3.95-10.61,4.09c-15.55,0.52-31.11,1.04-46.66,1.56c-20.3,0.68-40.6,1.34-60.9,2.03
	c-5.08,0.17-10.15,0.36-15.23,0.51c-0.05,0-0.1,0-0.15,0.01c-0.01,0-0.02,0-0.03,0c-0.11,0-0.22,0-0.33,0
	C141.15,837.79,137.26,835.81,134.69,833.09z"/>
<path class="st0" d="M275.41,829.45c-11.35-4.04-21.73-10.09-31.04-17.71c-7.73-1.5-12.94-9.38-11.69-17.08
	c0.88-7.68,8.19-13.42,15.75-13.18c8.45,0.5,14.49,7.09,21.08,11.65c5.55,3.96,11.83,6.5,18.16,8.94
	C305.49,810.34,293.66,837.11,275.41,829.45z"/>
<path class="st0" d="M245.86,853.32c-14.51-13.15,3.23-27.68,13.46-36.45c10.97-9.74,30.01-24.36,39.28-4.68
	c4.6,14.57-8.34,18.02-17.25,25.34c-6.34,5.36-9.94,8.45-14.38,13.77C261.85,857.69,252.08,858.46,245.86,853.32z"/>
</svg>
