<?xml version="1.0" encoding="utf-8"?>
<!-- Generator: Adobe Adobe Illustrator 24.2.0, SVG Export Plug-In . SVG Version: 6.00 Build 0)  -->
<svg version="1.1" id="Capa_de_vector_1_" xmlns="http://www.w3.org/2000/svg" xmlns:xlink="http://www.w3.org/1999/xlink" x="0px"
	 y="0px" viewBox="0 0 1000 1000" style="enable-background:new 0 0 1000 1000;" xml:space="preserve">
<style type="text/css">
	.st0{fill:#A46460;}
</style>
<path class="st0" d="M121.52,959.91c0.04-19.61,0.06-39.23,0.09-58.84c0.03-21.58,0.06-43.17,0.09-64.75
	c0.04-21.77,0.07-43.55,0.1-65.32c0.03-22.04,0.07-44.09,0.1-66.13c0.03-22.17,0.07-44.34,0.1-66.51
	c0.03-21.62,0.06-43.25,0.09-64.87c0.04-21.8,0.07-43.61,0.1-65.41c0.03-21.18,0.06-42.37,0.09-63.55
	c0.01-4.69,0.01-9.38,0.02-14.07c0.01-8.18,6.82-15,15-15c8.17,0,15.01,6.82,15,15c-0.03,18.59-0.05,37.18-0.08,55.76
	c-0.03,21.75-0.06,43.5-0.09,65.25c-0.03,21.44-0.07,42.89-0.1,64.33c-0.03,22.22-0.06,44.44-0.1,66.66
	c-0.03,22.17-0.06,44.34-0.1,66.51c-0.03,21.6-0.06,43.19-0.09,64.79c-0.03,21.59-0.06,43.18-0.09,64.77
	c-0.04,21.92-0.07,43.84-0.1,65.75c-0.01,5.21-0.01,10.43-0.02,15.64c-0.02,8.18-6.81,15-15,15
	C128.36,974.91,121.51,968.08,121.52,959.91z"/>
<path class="st0" d="M698.87,956.71c-0.31-16.38-0.61-32.76-0.92-49.14c-0.4-21.51-0.8-43.02-1.2-64.53
	c-0.42-22.45-0.84-44.9-1.26-67.35c-0.41-22.13-0.83-44.27-1.24-66.4c-0.41-22.14-0.83-44.29-1.24-66.43
	c-0.41-21.96-0.82-43.92-1.23-65.88c-0.41-22.05-0.82-44.11-1.23-66.17c-0.4-21.64-0.8-43.29-1.21-64.93
	c-0.09-4.79-0.18-9.57-0.27-14.36c-0.15-8.18,6.95-15,15-15c8.29,0,14.85,6.83,15,15c0.38,19.64,0.73,39.28,1.1,58.92
	c0.41,21.95,0.82,43.89,1.23,65.83c0.41,21.95,0.82,43.89,1.23,65.84c0.41,21.94,0.82,43.87,1.23,65.8
	c0.42,22.5,0.84,45.01,1.26,67.52c0.41,22.07,0.82,44.14,1.23,66.21c0.41,21.89,0.82,43.79,1.23,65.68
	c0.39,20.62,0.77,41.25,1.16,61.87c0.05,2.52,0.09,5.03,0.14,7.54c0.15,8.18-6.94,15-15,15
	C705.58,971.71,699.02,964.88,698.87,956.71z"/>
<path class="st0" d="M489.28,824.23c-17.85-0.18-35.71-0.41-53.56-0.61c-21.21-0.24-42.43-0.49-63.64-0.73
	c-3.29-0.04-6.58-0.08-9.87-0.11c-8.18-0.09-15-6.76-15-15c0-8.11,6.82-15.09,15-15c19.41,0.21,38.82,0.44,58.23,0.66
	c20.4,0.24,40.8,0.46,61.21,0.7c2.27,0.02,4.53,0.05,6.79,0.08c0.28,0,0.55,0.01,0.83,0.01c8.18,0.13,15,6.73,15,15
	c0,8.06-6.74,15-14.85,15C489.38,824.23,489.33,824.23,489.28,824.23z"/>
<path class="st0" d="M307.52,930.64c-8.18,0-15.07-6.59-15.16-14.83c-0.09-8.12,6.66-15.15,14.83-15.16
	c20.82,0,41.64-0.04,62.46-0.07c21.1-0.03,42.2-0.05,63.3-0.07c20.49-0.02,40.98-0.05,61.47-0.07c4.4-0.01,8.8,0,13.2,0
	c7.48,0.01,14.97,0.01,22.46-0.02c0.24-0.01,0.48-0.02,0.73-0.02c1.07,0,2.15,0,3.22,0c8.18-0.02,15.07,6.61,15.16,14.84
	c0.09,8.15-6.66,15.1-14.83,15.16c-13.08,0.09-26.17,0.08-39.25,0.07c-6.54,0-13.08-0.01-19.62,0c-20.82,0.02-41.64,0.05-62.46,0.07
	c-21.14,0.02-42.28,0.05-63.42,0.07c-13.98,0.02-27.97,0.05-41.96,0.05c0,0,0,0,0,0C307.6,930.64,307.56,930.64,307.52,930.64z"/>
<path class="st0" d="M813.27,462.23c-3.48-0.47-6.79-1.24-10.11-2.41c-3.41-1.2-6.56-2.98-9.58-4.92
	c-5.34-3.43-9.86-8.43-13.14-13.82c-3.62-5.95-5.61-12.51-6.36-19.41c-0.69-6.32,0.38-12.82,2.39-18.8
	c3.75-11.18,12.39-20.09,22.77-25.37c9.18-4.67,20.68-5.71,30.6-3.04c0.27,0.07,0.53,0.15,0.57,0.16c0.12,0.03,0.23,0.07,0.35,0.1
	c0.18,0.06,0.35,0.11,0.52,0.18c0.2,0.07,0.39,0.14,0.58,0.21c0-0.01,0.01-0.03,0.01-0.04c3.17,1.01,6.24,2.26,9.14,3.97
	c4.57,2.71,8.72,6.06,12.1,10.18c6.34,7.73,10.14,17.5,10.3,27.53c0.1,5.93-0.83,12.05-3.14,17.55c-1.31,3.12-2.81,5.99-4.68,8.82
	c-1.94,2.93-4.37,5.48-6.91,7.88c-7.87,7.44-19.01,11.59-29.88,11.59C816.94,462.6,815.09,462.48,813.27,462.23z M818.42,432.58
	c0.66-0.02,1.32-0.05,1.99-0.1c0.65-0.1,1.3-0.22,1.95-0.36c0.63-0.19,1.25-0.39,1.87-0.61c0.55-0.25,1.09-0.51,1.62-0.78
	c0.54-0.33,1.06-0.67,1.59-1.03c0.52-0.42,1.03-0.85,1.53-1.3c0.4-0.42,0.78-0.84,1.16-1.27c0.4-0.53,0.78-1.07,1.14-1.62
	c0.32-0.59,0.63-1.18,0.92-1.78c0.24-0.61,0.46-1.22,0.66-1.84c0.16-0.64,0.3-1.29,0.42-1.93c0.07-0.65,0.12-1.29,0.16-1.95
	c-0.02-0.66-0.05-1.32-0.11-1.98c-0.1-0.63-0.22-1.26-0.36-1.88c-0.19-0.63-0.4-1.26-0.62-1.88c-0.26-0.57-0.53-1.14-0.82-1.7
	c-0.32-0.53-0.66-1.05-1.02-1.56c-0.39-0.49-0.79-0.96-1.21-1.43c-0.46-0.44-0.92-0.87-1.41-1.28c-0.5-0.37-1.01-0.73-1.54-1.08
	c-0.61-0.34-1.23-0.66-1.85-0.96c-0.58-0.23-1.17-0.45-1.77-0.65c-0.6-0.15-1.19-0.27-1.8-0.38c-0.67-0.07-1.34-0.13-2.02-0.17
	c-0.66,0.02-1.32,0.05-1.97,0.1c-0.65,0.11-1.3,0.23-1.95,0.36c-0.57,0.17-1.14,0.36-1.71,0.56c-0.69,0.31-1.37,0.64-2.05,0.99
	c-0.45,0.29-0.9,0.58-1.34,0.88c-0.49,0.39-0.97,0.79-1.44,1.2c-0.44,0.46-0.87,0.92-1.29,1.39c-0.39,0.52-0.77,1.05-1.13,1.6
	c-0.33,0.6-0.64,1.2-0.94,1.82c-0.23,0.6-0.45,1.2-0.65,1.81c-0.14,0.6-0.28,1.2-0.4,1.8c-0.08,0.71-0.13,1.42-0.17,2.13
	c0.02,0.63,0.05,1.25,0.1,1.88c0.11,0.67,0.24,1.33,0.38,2c0.18,0.57,0.36,1.14,0.56,1.71c0.28,0.63,0.58,1.24,0.89,1.85
	c0.33,0.53,0.67,1.05,1.02,1.56c0.35,0.43,0.71,0.86,1.08,1.28c0.48,0.46,0.97,0.92,1.47,1.36c0.51,0.37,1.02,0.74,1.55,1.09
	c0.54,0.3,1.08,0.58,1.63,0.86c0.64,0.26,1.29,0.49,1.94,0.72c0.62,0.15,1.25,0.29,1.88,0.41
	C817.07,432.48,817.75,432.54,818.42,432.58z M830.75,374.73c-0.04-0.01-0.08-0.02-0.12-0.04c0.42,0.12,0.83,0.24,1.25,0.36
	c0,0-0.01,0-0.01,0c0,0.01,0,0.01-0.01,0.02C831.49,374.96,831.12,374.84,830.75,374.73z"/>
<path class="st0" d="M171.17,126.95c-3.62-0.61-7.01-1.72-10.41-3.07c-6.16-2.44-11.89-6.85-16.18-11.87
	c-9.07-10.63-12.96-24.89-10.08-38.64c1.09-5.21,3.01-10.37,5.93-14.84c1.4-2.15,2.91-4.17,4.59-6.1c2.07-2.38,4.45-4.39,6.93-6.33
	c4.13-3.23,9.13-5.5,14.14-6.98c2.19-0.65,4.43-1.12,6.7-1.43c0.33-0.07,0.67-0.13,1.01-0.18c0.06-0.01,0.12-0.01,0.18-0.02
	c0.31-0.03,0.62-0.06,0.93-0.07c0.57-0.04,1.13-0.07,1.69-0.09c1.22-0.07,2.44-0.08,3.66-0.06c0.54,0.01,1.07,0.06,1.59,0.13
	c1.08,0.07,2.16,0.18,3.24,0.33c5.96,0.81,11.64,3,16.82,6.02c10.57,6.15,18.13,17.03,20.83,28.88c1.37,6.01,1.54,12.64,0.18,18.67
	c-0.79,3.47-1.79,6.77-3.24,10.02c-1.33,2.98-3.09,5.66-4.98,8.3c-3.66,5.11-8.88,9.53-14.43,12.47
	c-5.58,2.95-11.75,4.96-18.08,5.35c-1.16,0.07-2.31,0.11-3.46,0.11C176.21,127.56,173.69,127.38,171.17,126.95z M179.33,97.59
	c0.66-0.06,1.31-0.13,1.97-0.21c0.61-0.13,1.22-0.28,1.82-0.44c0.65-0.23,1.29-0.48,1.93-0.75c0.63-0.33,1.25-0.67,1.87-1.03
	c0.52-0.36,1.02-0.73,1.51-1.11c0.48-0.44,0.95-0.88,1.41-1.34c0.41-0.48,0.81-0.98,1.19-1.48c0.36-0.55,0.7-1.11,1.03-1.67
	c0.27-0.57,0.53-1.14,0.77-1.72c0.21-0.64,0.41-1.28,0.59-1.92c0.14-0.7,0.25-1.4,0.35-2.11c0.03-0.65,0.05-1.29,0.05-1.94
	c-0.05-0.68-0.12-1.35-0.21-2.02c-0.13-0.62-0.29-1.24-0.46-1.86c-0.24-0.66-0.49-1.31-0.76-1.95c-0.3-0.57-0.61-1.14-0.93-1.69
	c-0.38-0.56-0.78-1.1-1.2-1.63c-0.42-0.46-0.85-0.92-1.29-1.36c-0.5-0.43-1.01-0.84-1.53-1.24c-0.54-0.36-1.09-0.69-1.65-1.02
	c-0.62-0.3-1.24-0.58-1.88-0.85c-0.64-0.22-1.29-0.42-1.94-0.59c-0.66-0.13-1.32-0.23-1.98-0.32c-0.46-0.03-0.91-0.04-1.37-0.05
	c-0.84,0.06-1.67,0.15-2.5,0.26c-0.67,0.15-1.33,0.31-1.99,0.49c-0.69,0.25-1.36,0.52-2.03,0.81c-0.5,0.27-0.99,0.54-1.47,0.82
	c-0.56,0.4-1.12,0.81-1.67,1.22c-0.45,0.41-0.88,0.82-1.31,1.24c-0.43,0.51-0.84,1.02-1.25,1.54c-0.39,0.61-0.76,1.22-1.13,1.84
	c-0.26,0.55-0.5,1.1-0.74,1.65c-0.19,0.59-0.37,1.18-0.54,1.77c-0.15,0.82-0.29,1.65-0.4,2.48c-0.02,0.54-0.03,1.08-0.03,1.62
	c0.06,0.76,0.15,1.51,0.25,2.26c0.13,0.57,0.26,1.13,0.41,1.69c0.25,0.68,0.51,1.35,0.79,2.02c0.26,0.5,0.54,1,0.82,1.49
	c0.38,0.55,0.77,1.09,1.18,1.63c0.43,0.48,0.88,0.95,1.33,1.4c0.54,0.46,1.08,0.9,1.64,1.34c0.44,0.28,0.89,0.56,1.34,0.83
	c0.71,0.35,1.43,0.68,2.16,0.99c0.52,0.17,1.05,0.33,1.58,0.48c0.78,0.15,1.57,0.28,2.36,0.39
	C178.05,97.57,178.69,97.59,179.33,97.59z"/>
<path class="st0" d="M675.1,173.32c-4.05-5.72-6.24-12.5-7.01-19.42c-0.81-7.28,0.85-14.76,3.9-21.34
	c4.61-9.96,13.57-17.35,23.85-20.81c0.34-0.15,0.69-0.27,1.05-0.38c0.65-0.2,1.27-0.4,1.91-0.57c0,0,0,0,0,0
	c0.02,0,0.04-0.01,0.06-0.01c0.12-0.03,0.25-0.07,0.38-0.1c0.17-0.04,0.34-0.08,0.5-0.11c1.35-0.3,2.72-0.53,4.09-0.68
	c0.22-0.03,0.43-0.05,0.65-0.08c0.38-0.04,0.76-0.07,1.13-0.08c6.75-0.45,13.58,0.81,19.78,3.56c9.68,4.3,17.32,12.63,21.12,22.46
	c2.09,5.42,2.97,11.39,2.58,17.19c-0.45,6.7-2.62,12.98-6.03,18.73c-3.43,5.77-8.52,10.26-14.18,13.73
	c-6.04,3.7-13.22,5.33-20.23,5.44c-0.2,0-0.4,0-0.6,0C694.93,190.86,682.61,183.92,675.1,173.32z M708.77,160.88
	c0.47-0.03,0.94-0.07,1.42-0.13c0.47-0.1,0.94-0.21,1.41-0.32c0.44-0.15,0.88-0.32,1.31-0.49c0.45-0.23,0.89-0.46,1.33-0.71
	c0.33-0.23,0.66-0.46,0.98-0.7c0.33-0.29,0.66-0.59,0.97-0.9c0.29-0.33,0.57-0.66,0.85-1c0.27-0.4,0.53-0.8,0.78-1.2
	c0.22-0.44,0.43-0.89,0.63-1.34c0.14-0.39,0.26-0.78,0.38-1.17c0.1-0.48,0.19-0.95,0.27-1.43c0.03-0.48,0.06-0.95,0.07-1.43
	c-0.03-0.49-0.07-0.97-0.13-1.45c-0.1-0.47-0.2-0.94-0.32-1.41c-0.15-0.44-0.31-0.87-0.48-1.3c-0.21-0.42-0.43-0.83-0.66-1.24
	c-0.26-0.38-0.52-0.75-0.79-1.11c-0.29-0.33-0.59-0.65-0.89-0.97c-0.33-0.29-0.67-0.57-1.01-0.85c-0.38-0.26-0.76-0.5-1.15-0.74
	c-0.41-0.21-0.83-0.4-1.24-0.59c-0.45-0.15-0.89-0.3-1.34-0.43c-0.48-0.1-0.97-0.19-1.45-0.27c-0.51-0.04-1.01-0.06-1.52-0.07
	c-0.38,0.02-0.75,0.05-1.13,0.09c-0.44,0.09-0.88,0.19-1.32,0.3c-0.51,0.18-1.02,0.37-1.53,0.57c-0.45,0.23-0.89,0.47-1.33,0.72
	c-0.31,0.22-0.62,0.44-0.93,0.66c-0.38,0.33-0.74,0.67-1.11,1.01c-0.28,0.32-0.56,0.65-0.83,0.99c-0.25,0.38-0.5,0.77-0.74,1.16
	c-0.2,0.41-0.39,0.82-0.58,1.24c-0.14,0.41-0.27,0.83-0.4,1.24c-0.1,0.49-0.19,0.99-0.27,1.48c-0.03,0.54-0.05,1.08-0.06,1.62
	c0.03,0.36,0.06,0.71,0.09,1.07c0.11,0.55,0.23,1.1,0.37,1.65c0.13,0.37,0.26,0.73,0.4,1.09c0.23,0.46,0.47,0.91,0.72,1.37
	c0.24,0.35,0.48,0.69,0.73,1.03c0.3,0.34,0.61,0.68,0.93,1.01c0.31,0.27,0.63,0.54,0.95,0.81c0.41,0.28,0.83,0.55,1.25,0.81
	c0.39,0.19,0.78,0.38,1.17,0.56c0.45,0.16,0.9,0.3,1.36,0.45c0.51,0.1,1.02,0.2,1.54,0.28C707.9,160.85,708.34,160.87,708.77,160.88
	z"/>
<path class="st0" d="M238.67,517.36c0.01-1.2,0.01-2.41,0.01-3.61c-0.01-1.37-0.01-2.74-0.08-4.11c-0.01-0.2-0.02-0.4-0.03-0.61
	c0.02-14.08,0.01-28.16,0.02-42.24c0.01-19.98,0.03-39.97,0.04-59.96c0.01-20.56,0.03-41.12,0.04-61.68
	c0.01-20.62,0.03-41.24,0.04-61.86c0.01-18.54,0-37.09,0.04-55.63c0.01-8.18,6.8-15,14.99-15.01c8.17,0,15.01,6.82,15.01,14.99
	c0,19.25-0.03,38.49-0.04,57.74c-0.01,20.65-0.02,41.3-0.04,61.95c-0.02,20.5-0.03,41.01-0.04,61.51
	c-0.01,19.98-0.03,39.96-0.04,59.94c-0.01,15.58,0.04,31.16-0.03,46.74c-0.04,8.18-6.79,15-14.99,15.01
	C246.01,530.52,239.59,524.7,238.67,517.36z"/>
<path class="st0" d="M575.46,510.28c-0.12-17.3-0.25-34.61-0.37-51.91c-0.14-20.45-0.29-40.89-0.44-61.34
	c-0.15-20.73-0.3-41.46-0.45-62.2c-0.15-21.04-0.3-42.07-0.45-63.11c-0.13-18.65-0.4-37.31-0.4-55.96c0-8.18,6.82-15,15-15
	c8.18,0,15,6.82,15,15c0,19.78,0.29,39.56,0.43,59.34c0.15,20.94,0.3,41.89,0.45,62.83c0.15,20.79,0.3,41.57,0.45,62.36
	c0.14,20.35,0.29,40.7,0.44,61.05c0.12,16.31,0.24,32.62,0.35,48.93c0.06,8.18-6.86,15-15,15
	C582.24,525.28,575.52,518.46,575.46,510.28z"/>
<path class="st0" d="M271.8,234.34c0,0.03,0,0.06,0,0.09c0,0.01,0,0.01,0,0.02C271.81,234.41,271.81,234.37,271.8,234.34z"/>
<path class="st0" d="M271.81,234.47c0,0.01,0,0.01,0,0.02c0,0,0,0.01,0,0.01C271.81,234.49,271.81,234.48,271.81,234.47z"/>
<path class="st0" d="M271.81,234.5C271.81,234.5,271.81,234.49,271.81,234.5c0-0.02,0-0.02,0-0.03c0-0.01,0-0.01,0-0.02v0
	C271.81,234.47,271.81,234.48,271.81,234.5C271.81,234.5,271.81,234.5,271.81,234.5z"/>
<path class="st0" d="M271.81,234.5C271.81,234.5,271.81,234.5,271.81,234.5C271.81,234.5,271.81,234.5,271.81,234.5
	c0,0.01,0,0.01,0,0.01c0,0.01,0,0.01,0,0.02C271.81,234.52,271.81,234.51,271.81,234.5z"/>
<path class="st0" d="M271.81,234.57c0-0.01,0-0.02,0-0.03c0,0.05,0,0.11,0,0.17C271.81,234.66,271.81,234.62,271.81,234.57z"/>
<path class="st0" d="M271.81,234.54C271.81,234.54,271.81,234.54,271.81,234.54c0-0.01,0-0.02,0-0.02
	C271.81,234.52,271.81,234.53,271.81,234.54C271.81,234.54,271.81,234.53,271.81,234.54C271.81,234.54,271.81,234.54,271.81,234.54
	S271.81,234.54,271.81,234.54C271.81,234.54,271.81,234.54,271.81,234.54c0,0.01,0,0.02,0,0.03c0,0.02,0,0.03,0,0.04
	C271.81,234.58,271.81,234.56,271.81,234.54c0-0.02,0-0.02,0-0.03c0,0,0,0,0,0c0,0,0,0,0,0c0-0.04,0-0.08,0-0.12c0,0,0-0.01,0-0.01
	c0,0,0,0,0,0.01c-0.03-1.02-0.07-2.04-0.11-3.05c0.01-0.17,0.01-0.34,0.02-0.5c0.02-0.54,0.05-1.07,0.08-1.61
	c0.33,1.84,0.36,3.68,0.02,5.51C271.81,234.67,271.81,234.6,271.81,234.54z"/>
<path class="st0" d="M268.98,225.54c0-0.01,0-0.01,0-0.01C268.98,225.53,268.98,225.54,268.98,225.54c0,0.01,0,0.03,0,0.04
	C268.98,225.56,268.98,225.55,268.98,225.54z"/>
<path class="st0" d="M268.98,225.63c0,0,0-0.01,0-0.01c0-0.03,0-0.05,0-0.08c0,0.05,0,0.09,0,0.14
	C268.99,225.66,268.98,225.65,268.98,225.63z"/>
<path class="st0" d="M251.28,245.7c-3.43-1.44-6.7-4.41-8-7.97c-2.47-6.79-3.97-13.71-4.45-20.94c-0.53-8.01,0.54-16.19,2.88-23.86
	c6.1-20.04,20.26-36.52,36.7-49.05c15.98-12.19,34.31-20.95,53.23-27.55c17.93-6.25,36.64-10.4,55.47-12.75
	c18.27-2.28,36.77-3,55.16-1.99c18.45,1.01,36.75,3.59,54.7,8.08c18.66,4.66,37,11.55,53.64,21.27
	c14.82,8.65,28.77,19.86,38.55,34.1c6.82,9.93,11.68,21.02,13.36,32.99c0.38,2.64,0.56,5.32,0.63,7.99
	c0.21,8.17-6.95,15.01-14.97,15.02c-3.96,0.01-7.81-1.58-10.61-4.38c-2.86-2.84-4.31-6.61-4.41-10.6c-0.01-0.42-0.03-0.84-0.05-1.25
	c-0.15-1.74-0.39-3.47-0.71-5.19c-0.41-1.79-0.9-3.57-1.48-5.32c-0.69-1.86-1.47-3.69-2.34-5.48c-1.09-2.07-2.28-4.08-3.56-6.04
	c-1.59-2.27-3.29-4.45-5.1-6.55c-2.29-2.53-4.72-4.92-7.25-7.21c-3.3-2.84-6.76-5.48-10.35-7.94c-4.75-3.14-9.69-5.98-14.76-8.57
	c-6.75-3.32-13.71-6.19-20.8-8.7c-9.19-3.12-18.57-5.61-28.07-7.59c-11.39-2.24-22.92-3.73-34.5-4.54
	c-12.55-0.76-25.13-0.73-37.68,0.09c-12.02,0.89-23.98,2.49-35.8,4.87c-10.2,2.15-20.27,4.88-30.13,8.28
	c-7.64,2.73-15.12,5.86-22.39,9.46c-5.56,2.86-10.96,5.98-16.17,9.44c-3.94,2.72-7.74,5.63-11.36,8.76
	c-2.8,2.53-5.46,5.19-7.99,7.99c-1.95,2.29-3.79,4.66-5.5,7.13c-1.32,2.05-2.56,4.15-3.69,6.32c-0.93,1.95-1.77,3.94-2.52,5.97
	c-0.57,1.77-1.06,3.56-1.46,5.38c-0.31,1.74-0.55,3.5-0.7,5.26c-0.07,1.67-0.07,3.34,0.01,5.02c0.02,0.26,0.05,0.53,0.08,0.79
	c-0.02,1.6-0.05,3.21,0,4.81c0-0.01,0-0.03,0-0.04c0-0.03,0-0.05,0-0.08c0,0.02,0,0.03,0,0.04c0-0.03,0-0.06,0-0.09
	c0,0.05,0,0.1,0,0.15c0,0.07,0,0.14,0.01,0.2c0-0.01,0-0.02,0-0.03c0,0.03,0,0.06,0,0.09c-0.03,0.29,0.02,0.6,0.02,0.88
	c0.01,0.32,0.02,0.63,0.03,0.95c0.01,0.36,0.02,0.72,0.04,1.08c0,0.24-0.01,0.5,0.02,0.74c0,0.01,0,0.03,0,0.04c0,0,0-0.01,0-0.01
	c0,0.11,0.01,0.22,0.01,0.33c0,0,0,0,0-0.01c0,0.01,0,0.01,0,0.02c0,0.01,0,0.02,0,0.04c0,0.01,0,0.03,0,0.04c0,0,0,0,0,0.01v0
	c0.05,1.94,0.13,3.87,0.21,5.81c-0.03,0.66-0.05,1.33-0.07,1.99c-0.05,1.4-0.09,2.8-0.13,4.21c-0.04,1.17-0.09,2.35-0.12,3.52
	c-1.55,1.96-3.59,3.53-5.9,4.52c-1.86,0.79-3.86,1.18-5.86,1.18C255.11,246.87,253.13,246.48,251.28,245.7z"/>
<path class="st0" d="M360.23,661.04c-18.88-5.41-37.12-13.56-53.45-24.5c-15.94-10.68-30.14-23.69-41.67-39.06
	c-11.93-15.9-20.86-34.43-25.21-53.86c-0.38-1.68-0.73-3.36-1.04-5.05c-0.02-0.23-0.03-0.45-0.05-0.68c0,0.01,0,0.02,0,0.03
	c-0.12-2.22-0.15-4.43-0.15-6.66c0-0.53,0-1.06,0-1.59c0-0.29,0-0.58,0-0.88c0-0.21,0.01-0.43-0.01-0.64c0-0.05,0-0.09,0-0.14
	c0,0.05,0,0.11,0,0.17c0-2.16,0-4.32,0-6.49c0-2.65,0.04-5.29,0.03-7.94c-0.01-1.37-0.01-2.74-0.08-4.11
	c-0.07-1.34-0.14-2.68-0.22-4.03c0-0.04,0-0.08-0.01-0.12c0,0.04,0,0.08,0.01,0.12c0,0.02,0,0.04,0,0.05
	c-0.02-0.31-0.03-0.63-0.05-0.94c2.61-4.56,7.53-7.69,13.09-7.66c8.2,0.03,14.95,6.88,14.95,15.05c0,2.55,0.07,5.09,0.2,7.64
	c0.36,4.71,0.97,9.38,1.85,14.02c1.01,4.75,2.27,9.42,3.8,14.02c1.64,4.62,3.55,9.14,5.69,13.56c2.3,4.51,4.85,8.89,7.62,13.12
	c3.05,4.46,6.35,8.75,9.88,12.84c3.78,4.24,7.79,8.26,12.02,12.06c4.61,4.01,9.43,7.75,14.45,11.22c5.52,3.69,11.24,7.05,17.14,10.1
	c6.52,3.23,13.21,6.07,20.05,8.53c7.23,2.47,14.57,4.51,22.04,6.12c8.03,1.61,16.14,2.73,24.3,3.37c8.16,0.52,16.33,0.54,24.5,0.09
	c8.31-0.59,16.55-1.67,24.73-3.25c7.74-1.61,15.37-3.67,22.86-6.18c7.04-2.46,13.93-5.34,20.63-8.62
	c6.21-3.14,12.22-6.63,18.03-10.46c5.23-3.57,10.26-7.42,15.07-11.54c4.51-4,8.79-8.24,12.83-12.72c3.62-4.15,7.01-8.5,10.14-13.02
	c2.93-4.39,5.63-8.93,8.06-13.62c2.24-4.53,4.23-9.17,5.95-13.91c1.59-4.69,2.94-9.44,3.99-14.28c0.93-4.69,1.59-9.43,1.97-14.2
	c0.09-1.39,0.14-2.78,0.2-4.16c0.16-4.01,1.55-7.73,4.43-10.59c2.81-2.79,6.66-4.37,10.62-4.35c8.03,0.03,15.18,6.88,14.95,15.05
	c0,0.08,0,0.16-0.01,0.24c-0.01,0.19-0.02,0.38-0.03,0.57c-0.38,8.68-1.41,17.18-3.27,25.69c-4.14,18.98-12.56,36.75-23.63,52.63
	c-11.34,16.27-26.04,30.31-42.33,41.55c-16.72,11.53-35.14,20.27-54.54,26.26c-19.5,6.02-39.99,9.07-60.4,9.25
	c-0.6,0-1.2,0.01-1.79,0.01C398.75,669.13,379.09,666.45,360.23,661.04z"/>
<path class="st0" d="M238.38,505.54C238.38,505.54,238.38,505.54,238.38,505.54c0,0.03,0,0.05,0,0.07
	C238.38,505.58,238.38,505.56,238.38,505.54z"/>
<path class="st0" d="M247.09,559.44c-2.96-2.31-5.36-6.05-5.66-9.86c-0.3-3.77-0.59-7.54-0.88-11.3
	c-0.61-7.88-1.23-15.76-1.84-23.64c-0.01-0.13-0.02-0.26-0.03-0.38c0-0.17,0-0.34,0-0.51c-0.01-1.37-0.01-2.74-0.08-4.11
	c-0.07-1.34-0.14-2.68-0.22-4.03c0,0,0,0.01,0,0.01c0,0.01,0,0.03,0,0.04c0-0.01,0-0.03,0-0.04c0-0.02,0-0.05,0-0.07
	c0-0.02,0-0.04,0-0.06c0,0.02,0,0.04,0,0.06c-0.01-0.22-0.02-0.43-0.03-0.65c0.33-2.58,1.26-5.02,2.95-7.19
	c2.4-3.09,5.98-5.15,9.86-5.66c3.96-0.52,8.04,0.58,11.19,3.03c2.96,2.31,5.36,6.05,5.66,9.86c0.62,7.95,1.23,15.91,1.85,23.86
	c0.38,4.95,0.77,9.89,1.15,14.84c0.05,0.66,0.1,1.33,0.16,2c0.32,4.06-0.48,7.91-3.03,11.19c-2.41,3.09-5.98,5.15-9.86,5.66
	c-0.64,0.09-1.3,0.13-1.95,0.13C253.01,562.6,249.73,561.5,247.09,559.44z"/>
<path class="st0" d="M568.75,537.27c-1.35-2.48-2.79-4.91-4.33-7.28c-2.36-3.5-4.9-6.86-7.61-10.1c-0.31-0.33-0.61-0.68-0.9-1.04
	c-3.12-3.51-6.42-6.84-9.88-10c-4.27-3.77-8.76-7.29-13.43-10.56c-5.42-3.67-11.05-7-16.84-10.04c-6.71-3.38-13.61-6.36-20.66-8.95
	c-8.29-2.92-16.73-5.31-25.31-7.21c-9.52-1.98-19.14-3.35-28.82-4.15c-10.07-0.7-20.16-0.79-30.24-0.27
	c-9.97,0.65-19.86,1.87-29.68,3.7c-9.42,1.89-18.7,4.32-27.82,7.32c-8.06,2.78-15.94,5.99-23.62,9.69
	c-6.69,3.34-13.17,7.03-19.43,11.1c-5.33,3.6-10.47,7.45-15.37,11.61c-4.22,3.71-8.25,7.63-12.04,11.78
	c-3.31,3.76-6.44,7.69-9.32,11.8c-0.06,0.09-0.13,0.19-0.2,0.28l-0.07,0.09c-2.19,3.05-4.98,5.36-8.71,6.35
	c-3.88,1.03-8.1,0.44-11.54-1.62c-3.33-1.99-5.81-5.27-6.8-9.03c-0.98-3.7-0.59-8.3,1.62-11.54c10.21-14.96,22.88-27.88,37.37-38.72
	c16.24-12.15,34.58-21.63,53.65-28.47c19.62-7.04,40.06-11.54,60.8-13.52c20.58-1.96,41.41-1.41,61.86,1.64
	c20.18,3,40.05,8.64,58.67,16.98c10.36,4.64,20.23,10.23,29.6,16.62c8.49,5.92,16.47,12.47,23.7,19.89
	c2.06,2.11,4.01,4.31,5.93,6.54c0.17,0.2,0.35,0.4,0.52,0.6c1.29,1.51,2.54,3.04,3.76,4.6c4.17,5.36,7.95,11.07,11.18,17.04
	c1.93,3.56,2.52,7.65,1.4,11.57c-1.07,3.73-3.61,6.96-6.98,8.89c-2.27,1.3-4.83,1.92-7.37,1.92
	C576.59,544.78,571.37,542.11,568.75,537.27z"/>
<path class="st0" d="M129.54,451.31c-3.15-2.44-5.06-5.94-5.7-9.84c-1.64-10.07-1.01-20.62,0.69-30.63
	c2.75-16.22,8.18-31.95,15.18-46.81c8.46-17.96,19.05-34.92,31.46-50.41c12.55-15.66,27.04-29.94,43.74-41.15
	c6.58-4.42,13.61-8.32,21.01-11.19c0.23-0.09,0.45-0.18,0.68-0.26c3.82-1.43,7.87-1.61,11.68,0c3.57,1.51,6.47,4.41,7.98,7.98
	c3.08,7.29-0.34,16.79-7.98,19.66c-2.41,0.91-4.77,1.94-7.09,3.07c-3.58,1.85-7.04,3.92-10.39,6.14c-4.76,3.27-9.3,6.85-13.66,10.63
	c-5.82,5.2-11.3,10.76-16.49,16.59c-6.1,7.02-11.76,14.41-17,22.09c-5.22,7.84-10,15.95-14.27,24.34
	c-3.62,7.31-6.86,14.81-9.59,22.5c-1.98,5.82-3.67,11.74-4.95,17.76c-0.81,4.15-1.42,8.34-1.76,12.56
	c-0.16,2.85-0.18,5.71-0.04,8.57c0.01,0.13,0.02,0.26,0.03,0.39c-0.01,0.26-0.02,0.52-0.03,0.78c0,0.11-0.01,0.22-0.01,0.33
	c-0.11,2.45-0.09,4.91-0.01,7.37c0,0.18-0.01,0.36-0.01,0.53c-0.01,0.59-0.01,1.18-0.02,1.77c-1.79,5.26-6.58,9.44-12.25,10.2
	c-0.66,0.09-1.34,0.14-2,0.14C135.44,454.44,132.18,453.34,129.54,451.31z"/>
<path class="st0" d="M689.44,439.7c-0.02-2.69-0.13-5.39-0.32-8.08c-0.56-6.22-1.55-12.4-2.85-18.5c-1.84-8.08-4.22-16.04-7-23.84
	c-3.57-9.64-7.75-19.04-12.45-28.19c-4.96-9.4-10.45-18.5-16.47-27.27c-5.51-7.83-11.43-15.36-17.81-22.5
	c-5.09-5.55-10.43-10.83-16.11-15.77c-4.25-3.58-8.66-6.94-13.27-10.03c-1.39-0.89-2.8-1.77-4.23-2.6
	c-7.07-4.08-9.72-13.29-5.67-20.45c4.01-7.06,13.36-9.75,20.45-5.66c17.04,9.83,31.69,23.58,44.54,38.35
	c13.21,15.19,24.62,32.09,34,49.9c9.22,17.52,16.87,35.92,21.76,55.14c3.13,12.31,5.21,24.96,5.43,37.69c0,0.22,0.01,0.44,0.01,0.66
	c0,0.11,0.01,0.23,0.01,0.34c0,0.13,0,0.26,0,0.39c0.05,8.17-6.57,15.09-14.79,15.21c-0.07,0-0.14,0-0.2,0
	C696.39,454.49,689.51,447.81,689.44,439.7z"/>
<path class="st0" d="M594.9,281.05c-21.61-7.5-8.51-37.13,12.19-27.75C627.03,261.98,614.51,290.83,594.9,281.05z"/>
</svg>
