
<!-- Generator: Adobe Adobe Illustrator 24.2.0, SVG Export Plug-In . SVG Version: 6.00 Build 0)  -->
<svg version="1.1" id="Capa_de_vector_1_" xmlns="http://www.w3.org/2000/svg" xmlns:xlink="http://www.w3.org/1999/xlink" x="0px"
	 y="0px" viewBox="0 0 1000 1000" style="enable-background:new 0 0 1000 1000;" xml:space="preserve">
<style type="text/css">
	.st0{fill:#A65656;}
</style>
<path class="st0" d="M326.56,550.05c-10-4.57-21.6-9.03-31.63-12.44c-24.78-9.38-49.09-20.03-73.77-29.67
	c-38.41-15.92-77.19-33.25-110.75-58.1c-36.95-28.54-67.31-67.15-78.06-113.26c-2.67-13.18-3.12-26.75-6.36-39.84
	c0.2,0.61,0.39,1.23,0.59,1.85c0.08,0.16,0.15,0.32,0.23,0.48c-7.35-24.62,28.59-29.83,29.67-2.68c2.27,10.47,3.29,21.13,4.75,31.72
	c5.56,24.28,17.36,46.93,33.5,65.85c28.39,33.59,67.13,55.43,106.94,72.81c28.45,13.77,58.53,23.83,87.52,36.37
	c16.09,7.08,33.15,11.7,49.04,19.27C356.17,530.61,344.99,557.33,326.56,550.05z"/>
<path class="st0" d="M454.98,875.48c-25.69-18.76-44.27-45.27-58.04-73.65c-14.1-28.36-24.89-58.49-33.62-88.92
	c-8.8-29.66-18.78-58.9-25.02-89.27c-5.7-20.61-7.33-42-13.05-62.61c-3.02-14.37-11.27-34.73,10.64-37.28
	c8.33,0,14.74,6.86,15.13,14.95c4.59,20.87,9.86,41.54,12.73,62.74c6.97,30.34,14.59,60.49,24.52,90.01
	c6.27,22.45,13.15,44.68,22.05,66.25c7.55,20.49,17.47,40.01,29.1,58.48c9.69,13.33,20.39,25.95,33.91,35.55
	C488.51,864.22,471.04,887.09,454.98,875.48z"/>
<path class="st0" d="M537.19,906.29c-3.36-2.07-5.64-5.34-6.68-9.12c-4.59-16.62-8.93-33.3-13.4-49.95
	c-5.26-19.61-10.52-39.21-15.78-58.82c-5.37-20.02-10.74-40.04-16.11-60.05c-5.49-20.47-10.98-40.95-16.48-61.42
	c-5.41-20.19-10.83-40.37-16.24-60.56c-5.34-19.92-10.69-39.84-16.03-59.75c-3.24-12.07-6.48-24.14-9.71-36.21
	c-2.11-7.9,3.06-16.23,10.89-18.21c8.02-2.02,16.08,3.01,18.21,10.89c0.02,0.07,0.04,0.14,0.06,0.21c0.05,0.2,0.11,0.39,0.16,0.58
	c0.01,0.03,0.02,0.06,0.02,0.1c5.05,18.85,10.11,37.69,15.16,56.53c5.46,20.34,10.91,40.68,16.37,61.02
	c5.41,20.19,10.83,40.38,16.25,60.57c5.45,20.3,10.88,40.6,16.34,60.89c5.32,19.79,10.62,39.57,15.92,59.36
	c5.18,19.34,10.37,38.67,15.56,58.01c2.47,9.21,4.88,18.44,7.4,27.63c0.17,0.61,0.34,1.23,0.51,1.85
	c2.14,7.89-3.07,16.23-10.89,18.21c-1.19,0.3-2.41,0.45-3.62,0.45C542.33,908.51,539.57,907.75,537.19,906.29z"/>
<path class="st0" d="M516,917.18c-5.39-0.84-10.75-2.54-15.6-5.05c-9.11-4.71-16.71-11.43-22.9-19.59
	c-7.54-9.93-12.65-21.84-15.44-33.95c-2.8-12.16-3.41-24.68-1.94-37.08c1.39-11.7,5.02-23.06,10.62-33.41
	c5.55-10.25,13.76-19.41,23.85-25.34c7.05-4.14,16.52-1.09,20.37,5.92c1.91,3.46,2.36,7.61,1.26,11.41
	c-1.11,3.84-3.68,6.88-7.08,8.91c-1.02,0.68-2,1.41-2.96,2.17c-1.08,0.94-2.13,1.93-3.13,2.96c-1.19,1.33-2.31,2.71-3.36,4.15
	c-1.17,1.72-2.26,3.5-3.26,5.33c-1.16,2.28-2.18,4.62-3.09,7.01c-0.63,1.82-1.2,3.67-1.7,5.53c-0.25,0.92-0.48,1.84-0.69,2.77
	c-0.18,0.88-0.35,1.77-0.5,2.66c-0.4,2.29-0.69,4.6-0.91,6.91c-0.22,3.31-0.27,6.62-0.15,9.93c0.21,3.34,0.59,6.65,1.16,9.95
	c0.6,3.02,1.35,6.01,2.25,8.95c0.89,2.63,1.9,5.22,3.04,7.76c1.05,2.15,2.19,4.24,3.44,6.27c1.14,1.74,2.37,3.42,3.67,5.04
	c1.14,1.32,2.34,2.6,3.6,3.81c1.12,1,2.28,1.95,3.48,2.85c1.08,0.73,2.2,1.42,3.34,2.06c1.02,0.5,2.05,0.96,3.11,1.38
	c0.96,0.32,1.93,0.6,2.91,0.85c0.88,0.16,1.77,0.3,2.66,0.4c0.88,0.05,1.76,0.06,2.65,0.04c0.88-0.07,1.75-0.18,2.62-0.31
	c0.85-0.18,1.69-0.4,2.52-0.64c0.9-0.32,1.8-0.67,2.67-1.06c0.96-0.48,1.9-1,2.82-1.56c0.28-0.19,0.55-0.38,0.83-0.57
	c6.67-4.71,16.09-3.41,20.96,3.27c4.76,6.52,3.41,16.25-3.27,20.96c-5.93,4.19-12.75,7.45-19.91,8.84
	c-3.51,0.68-7.03,1.06-10.56,1.06C520.9,917.75,518.45,917.57,516,917.18z"/>
<path class="st0" d="M470.89,887.2c-7.1-4.03-14.98-9.01-19.88-15.47c-2.63-2.59-4.34-6.15-4.49-9.88
	c-0.58-8.03,6.13-15.5,14.18-15.78c7.18-0.66,11.67,4.34,15.95,9.27c4.12,3.3,9.15,5.1,13.13,8.62
	c14.16,13.18-3.79,34.68-19.37,22.86C470.41,886.83,470.89,887.2,470.89,887.2z"/>
<path class="st0" d="M518.9,607.33c-6.41-7.57-12.31-15.53-18.88-22.95c-5.57-5.59-11.03-11.29-16.17-17.29
	c-12.3-13.3-24.22-26.92-36.68-40.08c-7.23-8.45-20.43-17.48-14.42-30.12c3.46-7.33,12.93-10.9,20.19-7.13
	c4.95,2.14,6.75,7.47,10.67,10.8c12.59,13.13,24.37,27,36.95,40.14c7.46,8.4,14.91,16.78,22.84,24.75
	c6.07,7.12,11.76,14.58,17.76,21.76C554,602.37,532.53,621.59,518.9,607.33z M451.91,517.19c0.41-0.17,0.82-0.35,1.22-0.52
	c0.05-0.05,0.1-0.1,0.15-0.15C452.84,516.76,452.38,516.98,451.91,517.19z"/>
<path class="st0" d="M658.67,882.9c-43.12-13.61-63.41-58.85-80.3-97.17c-23.69-51.36-36.86-106.48-53.21-160.39
	c-2.16-8.14-6.78-16.08-5.43-24.74c1.25-7.93,9.82-13.54,17.61-11.83c6.76,1.21,11.93,7.48,12.08,14.23
	c4.62,13.81,8.78,27.77,12.75,41.79c13.17,47.47,27.32,94.85,48.35,139.53c9.48,21.79,20.68,43.29,38.33,59.63
	c3.89,3.65,8.71,6.2,13.49,8.47c5.58,1.82,11.76,3.68,14.45,9.45C683.02,873.28,670.87,887.47,658.67,882.9z"/>
<path class="st0" d="M638.06,577.89c-3.72-0.28-7.75-2.04-10.12-5c-12-14.94-23.99-29.88-35.99-44.82
	c-12.88-16.03-25.74-32.07-38.62-48.1c-12.36-15.39-24.76-30.74-37.07-46.17c-2.55-3.2-4.05-6.9-3.74-11.06
	c0.29-3.86,2.1-7.55,5-10.12c5.91-5.25,16.03-5.09,21.18,1.26c0.02,0.02,0.04,0.04,0.05,0.07c0.05,0.06,0.1,0.13,0.15,0.2
	c12.33,15.44,24.74,30.81,37.11,46.22c12.88,16.03,25.74,32.07,38.62,48.1c11.91,14.84,23.83,29.68,35.74,44.52
	c2.56,3.19,4.05,6.91,3.74,11.06c-0.29,3.86-2.1,7.55-5,10.12c-2.73,2.43-6.34,3.78-9.99,3.79
	C638.77,577.93,638.42,577.92,638.06,577.89z"/>
<path class="st0" d="M716.51,892.64c-4.88-17.44-9.75-34.88-14.62-52.32c-5.45-19.49-10.9-38.98-16.34-58.48
	c-5.66-20.24-11.31-40.48-16.97-60.72c-5.56-19.88-11.11-39.77-16.67-59.66c-5.55-19.83-11.09-39.67-16.63-59.51
	c-2.84-10.16-5.66-20.32-8.52-30.46c-1.09-3.87-0.97-7.81,0.87-11.45c1.79-3.53,4.95-6.25,8.71-7.48c7.52-2.47,16.71,1.7,18.93,9.57
	c5.02,17.83,9.97,35.68,14.96,53.52c5.59,20.02,11.19,40.04,16.79,60.05c5.62,20.1,11.24,40.21,16.86,60.31
	c5.6,20.04,11.2,40.08,16.8,60.12c5.45,19.47,10.89,38.95,16.33,58.43c2.67,9.57,5.35,19.14,8.03,28.72
	c1.08,3.87,0.97,7.8-0.87,11.45c-1.79,3.53-4.95,6.25-8.71,7.48c-1.46,0.48-2.98,0.71-4.51,0.71
	C724.61,902.93,718.29,898.99,716.51,892.64z"/>
<path class="st0" d="M698.3,916.87c-5.13-0.85-9.89-2.61-14.52-4.95c-6.83-3.45-12.56-8.69-17.55-14.43
	c-6.6-7.92-11.66-16.86-15.22-26.55c-4.5-12.23-6.72-25.28-6.74-38.3c-0.02-13.05,2.28-26.34,7.52-38.34
	c3.5-8,8.41-15.68,14.91-21.57c5.46-4.95,11.75-8.68,18.83-10.76c7.84-2.3,16.28,3.27,18.18,10.95c0.93,3.77,0.35,7.84-1.61,11.2
	c-1.92,3.28-4.88,5.45-7.86,6.51c-0.88,0.28-1.74,0.61-2.59,0.98c-0.63,0.32-1.24,0.66-1.85,1.02c-0.72,0.49-1.41,1.01-2.1,1.55
	c-0.79,0.71-1.55,1.46-2.28,2.23c-0.89,1.05-1.73,2.14-2.53,3.26c-0.93,1.45-1.8,2.93-2.6,4.45c-0.93,1.96-1.77,3.96-2.51,6
	c-0.8,2.46-1.48,4.95-2.04,7.47c-0.58,3.01-1.01,6.05-1.28,9.11c-0.22,3.38-0.26,6.77-0.12,10.15c0.22,3.56,0.63,7.1,1.23,10.62
	c0.64,3.31,1.45,6.59,2.43,9.81c0.99,2.98,2.12,5.91,3.41,8.77c1.13,2.32,2.37,4.59,3.73,6.79c1.2,1.8,2.48,3.55,3.85,5.22
	c1.12,1.27,2.3,2.48,3.53,3.64c0.98,0.84,2,1.64,3.05,2.4c0.86,0.55,1.74,1.07,2.63,1.56c0.76,0.36,1.54,0.68,2.33,0.98
	c0.62,0.19,1.25,0.37,1.88,0.52c0.55,0.1,1.11,0.17,1.67,0.24c0.52,0.02,1.04,0.03,1.57,0.02c0.49-0.04,0.98-0.1,1.47-0.17
	c0.53-0.11,1.05-0.24,1.57-0.39c0.56-0.2,1.11-0.42,1.66-0.65c0.63-0.32,1.25-0.67,1.86-1.03c0.69-0.48,1.37-0.98,2.03-1.51
	c0.75-0.68,1.48-1.39,2.18-2.12c5.64-5.93,15.67-5.41,21.21,0.28c2.76,2.83,4.3,6.71,4.25,10.66c-0.05,4.06-1.77,7.64-4.53,10.55
	c-5.89,6.19-13.4,10.75-21.64,13c-3.42,0.93-7.01,1.39-10.6,1.39C702.83,917.43,700.53,917.24,698.3,916.87z"/>
<path class="st0" d="M762.94,867.2c-29.88-17.24-54.88-44.14-69.26-75.56c-2.73-7.96-9.4-16.3-5.59-24.92
	c2.98-7.48,12.28-11.28,19.64-8.02c8.99,3.82,9.9,14.72,14.09,22.42c12.09,24.93,32.19,46.45,56.26,60.17
	C794.79,851.88,780.26,876.65,762.94,867.2z"/>
<path class="st0" d="M735.95,525.44c-4.16-0.21-7.66-2.16-10.51-5.09c-7.49-7.94-15.52-15.35-22.63-23.64
	c-12.68-15.13-27.19-28.62-39.23-44.29c-10.4-11.92-21.06-23.6-29.88-36.78c-3.38-5.04-7.36-9.61-10.93-14.52
	c-4.84-7.95-9.75-16.03-14-24.32c-8.24-20.39-14.79-41.92-14.8-64.07c-0.42-4.94-0.5-9.89-0.8-14.84c-0.5-2.96-0.14-6.09,1.25-8.96
	c4.67-10.19,20.05-11.37,26-1.77c2.42,3.81,2.82,8.22,2.84,12.62c0.63,8.68,0.69,17.4,1.53,26.06c2.76,14.6,6.71,29.41,13.52,42.66
	c8.24,15.51,19.42,29.01,29.67,43.2c17.28,20.02,34.19,40.33,52.49,59.44c8.5,10.55,18.21,19.73,27.53,29.42
	C756.85,509.82,748.73,526.59,735.95,525.44z"/>
<path class="st0" d="M825.66,879.8c-3.43-1.7-6.58-4.99-7.59-8.77c-4.32-16.27-8.6-32.55-12.89-48.82
	c-5.2-19.67-10.39-39.34-15.59-59.01c-5.32-20.16-10.65-40.32-15.98-60.48c-5.25-19.89-10.52-39.78-15.76-59.68
	c-5.32-20.15-10.65-40.3-15.97-60.45c-5.17-19.58-10.35-39.16-15.52-58.75c-0.62-2.35-1.25-4.7-1.86-7.05
	c-1.02-3.88-0.99-7.68,0.82-11.34c1.78-3.58,4.97-6.34,8.77-7.59c3.71-1.22,7.84-0.92,11.34,0.82c3.41,1.7,6.6,5,7.58,8.77
	c4.88,18.64,9.84,37.26,14.77,55.89c5.29,20.02,10.57,40.04,15.86,60.05c5.26,19.91,10.52,39.83,15.78,59.75
	c5.27,19.95,10.54,39.91,15.81,59.86c5.28,19.96,10.55,39.93,15.82,59.89c4.72,17.88,9.45,35.76,14.17,53.64
	c0.46,1.72,0.91,3.44,1.36,5.15c1.03,3.87,0.99,7.69-0.82,11.34c-1.78,3.58-4.97,6.34-8.77,7.59c-1.51,0.5-3.08,0.74-4.65,0.74
	C830.05,881.36,827.74,880.84,825.66,879.8z"/>
<path class="st0" d="M809.59,891.89c-13.1-1.37-25.12-8.38-34.07-17.86c-11.18-11.84-18.75-26.71-22.7-42.46
	c-3.21-12.81-4.42-26.26-2.77-39.4l0.27-1.94c2.52-16.73,9.11-33.49,22.46-44.54c4.38-3.62,9.39-6.42,14.77-8.25
	c7.73-2.63,16.4,2.28,18.75,9.92c1.15,3.74,0.79,7.85-1.02,11.32c-1.86,3.59-5.01,6.07-8.78,7.39c-0.57,0.24-1.12,0.49-1.67,0.77
	c-0.65,0.37-1.28,0.77-1.91,1.18c-0.7,0.54-1.38,1.1-2.04,1.68c-0.79,0.78-1.54,1.6-2.26,2.44c-0.83,1.08-1.62,2.2-2.35,3.35
	c-0.07,0.12-0.14,0.24-0.21,0.36c-0.77,1.34-1.46,2.71-2.11,4.11c-0.84,2.02-1.58,4.07-2.22,6.16c-0.68,2.52-1.23,5.07-1.65,7.64
	c-0.41,2.98-0.65,5.98-0.75,8.99c-0.03,3.33,0.12,6.66,0.44,9.98c0.41,3.4,0.99,6.77,1.74,10.1c0.82,3.26,1.8,6.46,2.94,9.62
	c1.13,2.88,2.4,5.7,3.82,8.45c1.28,2.31,2.66,4.56,4.17,6.74c1.35,1.83,2.78,3.59,4.31,5.27c1.25,1.28,2.55,2.49,3.91,3.65
	c1.11,0.86,2.26,1.67,3.45,2.44c0.97,0.56,1.96,1.07,2.97,1.55c0.86,0.35,1.74,0.67,2.63,0.95c0.7,0.18,1.41,0.33,2.13,0.47
	c0.63,0.07,1.25,0.13,1.88,0.16c0.57-0.01,1.14-0.03,1.71-0.07c0.56-0.08,1.12-0.18,1.68-0.29c0.56-0.16,1.11-0.33,1.66-0.51
	c0.58-0.24,1.16-0.51,1.72-0.78l1.59-0.95c3.13-2.22,6.61-3.48,10.52-3.15c4,0.34,7.77,2.33,10.31,5.43c2.47,3,3.68,6.93,3.35,10.8
	c-0.33,3.83-2.26,8-5.43,10.32c-4.5,3.29-9.38,5.99-14.78,7.5c-3.97,1.11-8.08,1.71-12.2,1.71
	C812.45,892.11,811.02,892.04,809.59,891.89z"/>
<path class="st0" d="M823.9,406.37c-23.34-10.31-46.69-20.63-70.03-30.95c-25.77-11.39-51.54-22.78-77.31-34.17
	c-26.06-11.52-52.12-23.03-78.19-34.55c-26.19-11.58-52.38-23.15-78.58-34.73c-25.97-11.47-51.93-22.95-77.9-34.43
	c-26.09-11.53-52.18-23.05-78.26-34.58c-26.3-11.62-52.6-23.25-78.9-34.87c-25.64-11.33-51.29-22.66-76.93-34
	c-17.44-7.71-34.86-15.46-52.32-23.12c-7.49-3.29-10.78-12.52-7.43-19.88c3.42-7.52,12.4-10.71,19.87-7.43
	c23.7,10.4,47.35,20.92,71.02,31.38c25.81,11.41,51.62,22.81,77.43,34.22c26.11,11.54,52.23,23.08,78.34,34.62
	c26.5,11.71,53.01,23.42,79.51,35.14c26.12,11.54,52.25,23.09,78.38,34.63c25.9,11.45,51.81,22.89,77.71,34.34
	c25.97,11.48,51.95,22.96,77.93,34.44c25.34,11.2,50.68,22.39,76.02,33.59c17.36,7.68,34.73,15.35,52.09,23.02
	c7.48,3.3,10.79,12.5,7.43,19.88c-2.51,5.51-8.04,8.72-13.75,8.72C827.96,407.66,825.88,407.25,823.9,406.37z"/>
<path class="st0" d="M815.95,770.33c-3.28-1.73-6.38-3.64-9.29-5.97c-3.41-2.74-6.39-5.88-9.18-9.23c-3.25-3.9-5.98-8.29-8.26-12.82
	c-1.29-2.56-2.45-5.2-3.48-7.88c-0.43-1.11-0.82-2.25-1.2-3.38c-0.36-1.08-0.68-2.17-1.01-3.25c-0.02-0.07-0.04-0.14-0.06-0.21
	c-0.21-0.69-0.41-1.38-0.6-2.08c-1.39-4.97-2.24-10.11-2.8-15.23c-1.11-10.04-0.66-20.38,1.19-30.3
	c3.76-20.08,13.39-40.3,30.17-52.67c6.01-4.43,13-7.9,20.36-9.38c4.82-0.98,9.6-1.25,14.45-0.82c3.76,0.44,7.16,1.77,9.84,4.58
	c2.78,2.9,4.3,6.9,4.15,10.91c-0.14,3.88-1.83,7.62-4.63,10.3c-2.77,2.66-7.01,4.53-10.91,4.15c-0.26-0.02-0.51-0.05-0.77-0.08
	c-0.85-0.07-1.71-0.11-2.56-0.12c-0.81,0.05-1.62,0.13-2.42,0.24c-0.81,0.16-1.62,0.35-2.43,0.57c-0.87,0.3-1.73,0.63-2.58,0.98
	c-1.01,0.5-2,1.04-2.96,1.62c-1.1,0.75-2.18,1.54-3.22,2.37c-1.17,1.03-2.29,2.11-3.37,3.24c-1.24,1.42-2.42,2.88-3.53,4.4
	c-1.28,1.89-2.46,3.84-3.56,5.84c-1.19,2.34-2.25,4.73-3.2,7.17c-1,2.8-1.86,5.65-2.58,8.54c-0.7,3.19-1.24,6.4-1.62,9.64
	c-0.3,3.36-0.42,6.73-0.37,10.11c0.14,3.27,0.45,6.52,0.93,9.75c0.32,1.8,0.69,3.6,1.13,5.38c0.26,1.07,0.55,2.14,0.86,3.2
	c0.78,2.42,1.68,4.8,2.7,7.14c0.92,1.9,1.92,3.75,3.01,5.55c0.94,1.42,1.94,2.8,3.01,4.14c0.94,1.07,1.91,2.1,2.93,3.08
	c0.84,0.73,1.7,1.43,2.6,2.1c0.78,0.52,1.58,1.01,2.4,1.47c0.76,0.38,1.53,0.73,2.32,1.05c0.69,0.24,1.39,0.45,2.1,0.64
	c0.7,0.14,1.39,0.26,2.1,0.36c0.71,0.05,1.43,0.08,2.15,0.08c0.77-0.05,1.53-0.12,2.29-0.22c0.92-0.18,1.83-0.4,2.73-0.65
	c7.88-2.19,16.21,3.54,17.99,11.24c0.89,3.81,0.21,7.89-1.83,11.22c-2.17,3.54-5.5,5.64-9.41,6.77c-0.11,0.03-0.21,0.06-0.32,0.09
	c-0.13,0.03-0.25,0.07-0.38,0.1c-3.73,0.97-7.6,1.45-11.48,1.45C829.91,775.51,822.46,773.76,815.95,770.33z"/>
<path class="st0" d="M851.06,771.58c-3.88-0.11-7.64-1.75-10.34-4.52c-2.87-2.94-4.24-6.81-4.26-10.87
	c-0.09-18.29-0.17-36.57-0.26-54.86c-0.1-20.45-0.19-40.89-0.29-61.34c-0.1-20.34-0.2-40.68-0.29-61.02
	c-0.09-20.92-0.19-41.84-0.29-62.76c-0.1-20.77-0.2-41.53-0.29-62.29c-0.04-8.71,0.01-17.43-0.12-26.14
	c-0.12-8.17,7.48-14.81,15.39-14.6c3.88,0.1,7.64,1.75,10.35,4.52c2.89,2.96,4.2,6.8,4.26,10.88c0.29,19.07,0.18,38.16,0.27,57.24
	c0.09,20.93,0.19,41.87,0.29,62.8c0.1,20.99,0.2,41.98,0.3,62.97c0.1,20.31,0.2,40.63,0.29,60.95c0.09,19.7,0.19,39.4,0.28,59.11
	c0.04,8.45,0.08,16.9,0.12,25.35c0.04,8.04-7.19,14.61-15.02,14.61C851.31,771.59,851.19,771.59,851.06,771.58z"/>
<path class="st0" d="M847.01,441.91c-3.96-0.68-7.57-2.98-9.84-6.29c-2.04-2.98-2.79-6.41-2.6-9.34c0.03-0.27,0.05-0.53,0.06-0.8
	c-0.02-0.21-0.04-0.42-0.06-0.63c-0.13-0.68-0.28-1.35-0.46-2.02c-0.38-1.21-0.82-2.4-1.3-3.58c-0.68-1.49-1.43-2.95-2.24-4.38
	c-0.76-1.23-1.58-2.43-2.45-3.59c-0.55-0.66-1.12-1.31-1.72-1.93c-0.22-0.2-0.44-0.39-0.67-0.58c-0.07-0.03-0.14-0.06-0.21-0.09
	l-0.01-0.01c-3.16-1.41-5.78-3.77-7.38-6.9c-1.77-3.46-2.12-7.55-0.98-11.27c2.38-7.68,11.02-12.48,18.77-9.9
	c5.67,1.89,10.49,5.83,14.3,10.36c3.34,3.96,6.2,8.33,8.51,12.97c3.94,7.91,6.65,16.74,5.59,25.64c0,0.02,0,0.05-0.01,0.07
	c-0.96,7.29-7.87,12.46-14.94,12.46C848.59,442.11,847.8,442.05,847.01,441.91z"/>
<path class="st0" d="M156.88,110.94c-15.3-5.23-31.71-4.34-47.64-4.34c-9.4,0.47-18.82,0.28-28.22,0.92
	c-10.37,0.43-20.61,2.17-30.97,2.61c0.08-0.01,0.15-0.03,0.23-0.04c0.1-0.01,0.2-0.01,1.2-0.23c-19.33,3.98-26.13-23.72-7.25-29.1
	c20.29-2.18,40.69-3.99,61.13-3.92c15.37-0.63,30.94-0.58,46.17,1.76c8.12,2.19,17.32,3.04,23.75,8.95
	C187.34,100.24,172.04,119.7,156.88,110.94z"/>
<path class="st0" d="M211.65,731.02c-5.34-1.76-10.44-4.36-14.69-8.09c-4.76-4.18-8.42-9.04-11.16-14.75
	c-5.82-12.12-4.71-27.04,1.9-38.58c3.62-6.32,9.02-11.7,15.32-15.36c7.75-4.5,16.67-6.24,25.55-5.5c0.02,0,0.03,0,0.05,0
	c0.04,0,0.09,0.01,0.13,0.01c0.02,0,0.03,0,0.05,0c0.08,0.01,0.16,0.02,0.24,0.02c11.31,1.15,21.94,7.36,28.81,16.36
	c6.73,8.83,9.6,20.03,8.28,31.02c-0.65,5.4-2.5,10.63-5.13,15.37c-3.42,6.15-8.48,11.15-14.34,14.97
	c-6.54,4.26-14.55,6.48-22.48,6.48C219.89,732.98,215.64,732.33,211.65,731.02z M225.02,702.93c0.54-0.06,1.09-0.13,1.63-0.21
	c0.52-0.12,1.03-0.26,1.54-0.42c0.5-0.19,1-0.4,1.5-0.63c0.47-0.25,0.93-0.52,1.38-0.8c0.4-0.29,0.78-0.59,1.16-0.89
	c0.39-0.36,0.77-0.74,1.14-1.12c0.34-0.41,0.67-0.83,0.99-1.27c0.27-0.43,0.53-0.87,0.78-1.32c0.22-0.48,0.43-0.97,0.63-1.47
	c0.17-0.54,0.32-1.08,0.46-1.63c0.09-0.54,0.17-1.08,0.23-1.62c0.02-0.52,0.02-1.04,0.01-1.56c-0.05-0.55-0.13-1.09-0.21-1.63
	c-0.13-0.53-0.27-1.06-0.43-1.59c-0.19-0.51-0.4-1.01-0.63-1.5c-0.26-0.47-0.52-0.93-0.8-1.39c-0.3-0.41-0.61-0.82-0.93-1.21
	c-0.35-0.37-0.71-0.74-1.08-1.09c-0.4-0.33-0.81-0.65-1.23-0.96c-0.44-0.28-0.89-0.54-1.35-0.8c-0.5-0.23-1-0.45-1.51-0.65
	c-0.52-0.16-1.04-0.31-1.56-0.44c-0.5-0.08-0.99-0.16-1.49-0.21c-0.54-0.02-1.07-0.02-1.61,0c-0.61,0.06-1.22,0.14-1.83,0.24
	c-0.53,0.13-1.05,0.27-1.57,0.43c-0.5,0.19-1,0.4-1.49,0.62c-0.43,0.23-0.85,0.48-1.27,0.73c-0.43,0.31-0.85,0.63-1.26,0.97
	c-0.37,0.35-0.74,0.71-1.09,1.08c-0.34,0.41-0.66,0.83-0.98,1.26c-0.28,0.44-0.54,0.89-0.79,1.34c-0.22,0.48-0.43,0.96-0.63,1.45
	c-0.17,0.53-0.31,1.07-0.45,1.6c-0.09,0.54-0.17,1.07-0.23,1.62c-0.02,0.53-0.02,1.07-0.01,1.6c0.06,0.55,0.13,1.1,0.22,1.65
	c0.13,0.53,0.27,1.07,0.43,1.59c0.19,0.49,0.39,0.98,0.61,1.46c0.25,0.45,0.51,0.9,0.78,1.34c0.31,0.44,0.64,0.86,0.98,1.28
	c0.35,0.37,0.7,0.72,1.06,1.07c0.39,0.33,0.8,0.64,1.21,0.95c0.45,0.28,0.9,0.55,1.37,0.81c0.48,0.22,0.97,0.43,1.46,0.63
	c0.52,0.16,1.04,0.31,1.57,0.44c0.56,0.1,1.13,0.17,1.7,0.24C223.95,702.94,224.48,702.94,225.02,702.93z"/>
<path class="st0" d="M698.16,225.66c-10.37-3.17-19.62-10.48-24.58-20.2c-2.45-4.79-4.21-9.99-4.62-15.39
	c-0.54-6.99,0.38-13.96,3.2-20.42c3.41-7.83,9.12-14.09,16.23-18.73c8.19-5.33,18.95-7.28,28.52-5.59c1.84,0.32,3.71,0.71,5.49,1.3
	c0.05,0.02,0.11,0.04,0.16,0.05c3.24,1.01,6.36,2.43,9.26,4.25c9.18,5.77,16.22,15.14,18.51,25.82c1.09,5.07,1.4,10.23,0.63,15.38
	c-1.05,6.98-3.91,13.66-8.22,19.25c-7.84,10.17-20.29,15.99-32.91,15.99C705.9,227.39,701.97,226.83,698.16,225.66z M710.82,197.39
	c0.47-0.05,0.94-0.11,1.41-0.18c0.51-0.12,1.01-0.26,1.51-0.41c0.46-0.18,0.92-0.37,1.37-0.57c0.42-0.23,0.83-0.46,1.24-0.71
	c0.4-0.29,0.79-0.59,1.17-0.89c0.34-0.32,0.67-0.65,1-0.99c0.31-0.38,0.61-0.76,0.91-1.15c0.25-0.4,0.49-0.81,0.72-1.23
	c0.22-0.46,0.42-0.93,0.61-1.41c0.15-0.49,0.29-0.98,0.42-1.48c0.08-0.49,0.15-0.97,0.21-1.47c0.02-0.5,0.02-1,0.01-1.5
	c-0.05-0.5-0.12-1.01-0.19-1.51c-0.12-0.49-0.25-0.98-0.39-1.47c-0.18-0.46-0.36-0.91-0.56-1.36c-0.23-0.43-0.48-0.86-0.73-1.27
	c-0.28-0.39-0.57-0.77-0.87-1.14c-0.33-0.35-0.66-0.69-1-1.02c-0.37-0.31-0.76-0.61-1.15-0.9c-0.41-0.26-0.82-0.51-1.24-0.74
	c-0.45-0.21-0.91-0.41-1.38-0.59c-0.45-0.14-0.91-0.27-1.37-0.39c-0.52-0.09-1.05-0.16-1.58-0.22c-0.5-0.02-1-0.02-1.5-0.01
	c-0.53,0.05-1.05,0.12-1.58,0.2c-0.47,0.11-0.94,0.24-1.4,0.38c-0.47,0.18-0.93,0.37-1.39,0.58c-0.43,0.24-0.86,0.48-1.29,0.74
	c-0.38,0.27-0.75,0.55-1.11,0.85c-0.36,0.34-0.71,0.68-1.05,1.03c-0.31,0.38-0.61,0.76-0.9,1.15c-0.26,0.41-0.5,0.82-0.74,1.24
	c-0.21,0.45-0.4,0.9-0.59,1.36c-0.15,0.48-0.28,0.95-0.4,1.44c-0.08,0.5-0.16,1-0.21,1.5c-0.02,0.51-0.02,1.02-0.01,1.52
	c0.05,0.51,0.11,1.01,0.19,1.52c0.12,0.49,0.25,0.98,0.39,1.46c0.18,0.46,0.36,0.91,0.56,1.36c0.22,0.41,0.46,0.82,0.71,1.22
	c0.29,0.4,0.59,0.8,0.91,1.19c0.32,0.34,0.65,0.67,0.98,1c0.39,0.32,0.78,0.63,1.18,0.93c0.4,0.25,0.81,0.49,1.22,0.73
	c0.44,0.21,0.89,0.4,1.35,0.58c0.48,0.15,0.96,0.29,1.45,0.41c0.48,0.08,0.96,0.15,1.45,0.21
	C709.71,197.4,710.27,197.4,710.82,197.39z"/>
<path class="st0" d="M81.86,554.21c-4.46-1.86-8.55-4.23-12.16-7.48c-3.75-3.39-6.92-7.54-9.1-12.1c-2.24-4.68-3.59-9.7-3.93-14.88
	c-0.43-6.58,0.96-12.91,3.51-18.95c2.31-5.48,6.38-10.6,11.03-14.27c5.1-4.03,10.82-6.79,17.18-8.16
	c12.46-2.68,26.3,1.35,35.37,10.31c4.67,4.61,8.3,10.12,10.28,16.42c2.04,6.49,2.42,13.29,1.13,19.97
	c-2.61,13.55-12.81,25.1-25.79,29.66c-0.07,0.03-0.14,0.05-0.21,0.07c-0.15,0.05-0.3,0.1-0.45,0.14c-4.08,1.29-8.41,1.98-12.73,1.98
	C91.16,556.94,86.33,556.07,81.86,554.21z M96.39,526.94c0.46-0.02,0.91-0.05,1.37-0.1c0.41-0.08,0.82-0.16,1.23-0.26
	c0.07-0.02,0.13-0.04,0.2-0.06c0.02-0.01,0.04-0.01,0.06-0.02c0.21-0.07,0.42-0.15,0.63-0.23c0.39-0.19,0.78-0.38,1.17-0.59
	c0.39-0.25,0.77-0.51,1.15-0.78c0.3-0.26,0.6-0.52,0.9-0.78c0.28-0.31,0.56-0.62,0.83-0.94c0.25-0.36,0.5-0.72,0.74-1.1
	c0.19-0.35,0.36-0.71,0.53-1.07c0.15-0.4,0.29-0.81,0.42-1.22c0.1-0.44,0.19-0.88,0.27-1.32c0.03-0.41,0.06-0.82,0.08-1.23
	c-0.02-0.43-0.05-0.86-0.09-1.28c-0.08-0.44-0.17-0.88-0.28-1.32c-0.13-0.41-0.27-0.81-0.42-1.21c-0.18-0.37-0.36-0.74-0.56-1.11
	c-0.21-0.32-0.42-0.64-0.64-0.95c-0.26-0.31-0.52-0.6-0.79-0.9c-0.33-0.31-0.68-0.61-1.02-0.9c-0.32-0.23-0.65-0.44-0.98-0.66
	c-0.38-0.2-0.76-0.39-1.14-0.57c-0.41-0.15-0.83-0.29-1.25-0.43c-0.39-0.09-0.78-0.17-1.18-0.24c-0.44-0.04-0.87-0.07-1.31-0.09
	c-0.45,0.02-0.9,0.06-1.35,0.1c-0.4,0.07-0.8,0.16-1.2,0.24c-0.45,0.15-0.9,0.3-1.34,0.47c-0.36,0.18-0.72,0.36-1.07,0.55
	c-0.32,0.21-0.64,0.42-0.95,0.65c-0.32,0.27-0.63,0.54-0.94,0.82c-0.3,0.33-0.59,0.66-0.87,0.99c-0.23,0.34-0.46,0.68-0.68,1.03
	c-0.19,0.37-0.38,0.75-0.56,1.13c-0.14,0.38-0.27,0.77-0.39,1.16c-0.1,0.44-0.19,0.89-0.27,1.33c-0.03,0.41-0.06,0.82-0.08,1.23
	c0.02,0.45,0.05,0.9,0.1,1.35c0.08,0.42,0.17,0.84,0.26,1.25c0.13,0.38,0.26,0.76,0.4,1.14c0.18,0.38,0.37,0.75,0.56,1.12
	c0.23,0.36,0.48,0.72,0.73,1.08c0.26,0.31,0.53,0.62,0.81,0.91c0.3,0.27,0.6,0.54,0.91,0.8c0.34,0.24,0.69,0.47,1.04,0.7
	c0.35,0.18,0.7,0.36,1.05,0.52c0.42,0.16,0.85,0.3,1.28,0.44c0.44,0.1,0.88,0.18,1.32,0.26C95.5,526.9,95.94,526.92,96.39,526.94z"
	/>
<path class="st0" d="M237.28,397.46c-7.11-11.86-7.06-27.14,0.32-38.87c5.98-9.51,16.52-16.44,27.83-17.34
	c0.36-0.03,0.73-0.05,1.09-0.06c0.35-0.03,0.71-0.06,1.08-0.08c9.05-0.6,18.64,2.86,25.45,8.73c5.52,4.76,9.4,10.69,11.63,17.62
	c2.15,6.66,2.14,14.18,0.23,20.89c-1.8,6.29-5.23,12.02-9.9,16.59c-5.39,5.27-12.32,8.63-19.71,9.96c-2.04,0.37-4.1,0.55-6.15,0.55
	C256.37,415.46,243.91,408.52,237.28,397.46z M269.63,385.42c0.29-0.04,0.58-0.07,0.86-0.12c0.35-0.09,0.69-0.18,1.03-0.28
	c0.26-0.11,0.53-0.22,0.79-0.33c0.28-0.15,0.55-0.31,0.82-0.48c0.25-0.19,0.51-0.38,0.75-0.58c0.21-0.2,0.41-0.4,0.61-0.61
	c0.19-0.23,0.37-0.47,0.55-0.71c0.16-0.26,0.32-0.53,0.47-0.79c0.13-0.3,0.26-0.59,0.38-0.89c0.09-0.29,0.17-0.58,0.24-0.87
	c0.06-0.35,0.1-0.7,0.15-1.05c0-0.3,0-0.59,0-0.89c-0.04-0.32-0.08-0.63-0.13-0.95c-0.08-0.33-0.17-0.66-0.27-0.98
	c-0.11-0.29-0.23-0.57-0.36-0.85c-0.15-0.27-0.31-0.53-0.47-0.8c-0.17-0.23-0.35-0.46-0.53-0.69c-0.22-0.22-0.43-0.45-0.66-0.66
	c-0.24-0.19-0.48-0.38-0.72-0.56c-0.27-0.17-0.55-0.33-0.82-0.48c-0.29-0.13-0.57-0.25-0.86-0.37c-0.33-0.1-0.65-0.19-0.98-0.27
	c-0.35-0.06-0.71-0.11-1.06-0.15c-0.25,0-0.49,0-0.74,0c-0.27,0.03-0.55,0.07-0.82,0.11c-0.33,0.08-0.65,0.17-0.97,0.27
	c-0.32,0.13-0.63,0.26-0.95,0.4c-0.29,0.17-0.58,0.34-0.87,0.51c-0.21,0.16-0.43,0.33-0.64,0.5c-0.26,0.25-0.52,0.51-0.77,0.78
	c-0.17,0.22-0.34,0.44-0.5,0.67c-0.14,0.22-0.27,0.45-0.4,0.68c-0.14,0.32-0.28,0.63-0.41,0.95c-0.09,0.31-0.18,0.62-0.26,0.93
	c-0.05,0.31-0.09,0.62-0.12,0.93c0,0.33,0,0.66,0,0.99c0.04,0.3,0.08,0.61,0.13,0.91c0.08,0.32,0.17,0.64,0.27,0.96
	c0.12,0.29,0.25,0.59,0.37,0.88c0.15,0.27,0.31,0.53,0.47,0.8c0.18,0.24,0.37,0.48,0.56,0.72c0.19,0.19,0.38,0.39,0.58,0.57
	c0.22,0.17,0.44,0.34,0.66,0.51c0.3,0.19,0.61,0.37,0.91,0.54c0.26,0.11,0.51,0.22,0.77,0.33c0.36,0.11,0.72,0.21,1.08,0.3
	c0.28,0.04,0.57,0.08,0.85,0.12C268.96,385.42,269.3,385.42,269.63,385.42z"/>
</svg>
