<?xml version="1.0" encoding="utf-8"?>
<!-- Generator: Adobe Adobe Illustrator 24.2.0, SVG Export Plug-In . SVG Version: 6.00 Build 0)  -->
<svg version="1.1" id="Grupo_de_capas_1_" xmlns="http://www.w3.org/2000/svg" xmlns:xlink="http://www.w3.org/1999/xlink" x="0px"
	 y="0px" viewBox="0 0 1000 1000" style="enable-background:new 0 0 1000 1000;" xml:space="preserve">
<style type="text/css">
	.st0{fill:#C7CCAC;}
	.st1{fill:#F2F2F2;}
</style>
<g id="Capa_de_vector_3_">
	<path class="st0" d="M968.41,392.97c8.18,35.65,12.16,72.25,12.08,108.82c-0.09,37.45-4.79,74.77-13.48,111.18
		c-4.41,18.47-10.07,36.6-16.64,54.42c-6.24,16.93-13.46,33.53-21.67,49.59c-8.87,17.36-18.64,34.19-29.47,50.39
		c-10.55,15.79-22.06,30.92-34.41,45.34c-24.65,28.79-52.79,54.72-83.54,76.88c-30.19,21.74-62.85,40.05-97.23,54.29
		c-35.15,14.55-71.99,24.92-109.57,30.83c-24.59,3.87-49.45,5.78-74.3,5.78c-13.6,0-27.2-0.57-40.75-1.71
		c-38.62-3.23-77.06-11.09-113.73-23.71c-18.12-6.23-35.86-13.39-53.16-21.63c-16.57-7.9-32.66-16.83-48.22-26.57
		c-32.71-20.48-62.88-45.08-89.72-72.79c-26.51-27.37-49.79-57.99-69.04-90.88c-18.88-32.25-33.98-66.63-44.96-102.36
		c-10.84-35.28-17.61-71.87-20.02-108.7c-2.46-37.72-0.6-75.67,5.75-112.94c6.2-36.34,16.58-72.02,30.94-105.96
		c7.25-17.15,15.53-33.84,24.64-50.06c9.2-16.37,19.54-32.06,30.57-47.25c22.34-30.77,48.71-58.57,77.69-83.15
		c28.5-24.17,59.95-44.8,93.27-61.68c34.41-17.44,71.1-30.79,108.73-39.32c37.27-8.46,75.36-12.63,113.58-12.22
		c37.57,0.41,74.96,5.45,111.42,14.48c35.39,8.77,69.88,21.84,102.29,38.55c2.72,1.4,5.43,2.82,8.12,4.27
		c0.15,0.08,0.3,0.16,0.45,0.23c0.04,0.02,0.08,0.04,0.12,0.07c1.78,0.96,3.56,1.93,5.32,2.91c0.07,0.04,0.13,0.07,0.2,0.11
		c0.11,0.06,0.21,0.12,0.32,0.18c0.9,0.5,1.79,1,2.69,1.5c0.1,0.06,0.2,0.12,0.3,0.18c18.04,10.21,35.4,21.62,51.96,34.08
		c30.42,22.9,57.86,49.41,82.15,78.71c23.94,28.87,44.33,60.82,60.73,94.54C947.89,322.38,960.19,357.15,968.41,392.97z"/>
</g>
<g id="Capa_de_vector_2_">
	<path class="st1" d="M513.42,403.22c0.14,7.61-5.98,14.12-13.63,14.3c-0.11,0-0.22,0-0.32,0c-7.45,0-13.85-6.13-13.98-13.64
		c-0.26-14.45-0.51-28.91-0.77-43.36c-0.03-1.46-0.06-2.92-0.08-4.38c-0.08-7.61,5.94-14.12,13.64-14.3
		c7.53-0.18,14.23,6.02,14.3,13.64c0.15,15.16,0.53,30.33,0.8,45.49C513.39,401.72,513.41,402.47,513.42,403.22z"/>
	<path class="st1" d="M512.23,304.03c0.23,7.61-6.53,13.97-13.97,13.97c-3.69,0-7.27-1.48-9.88-4.09c-2.66-2.66-3.98-6.15-4.09-9.88
		c-0.24-7.91-0.48-15.83-0.72-23.75c-0.28-9.34-0.57-18.69-0.85-28.03c0-0.01,0-0.02,0-0.03c-0.23-7.61,6.53-13.97,13.97-13.97
		c3.69,0,7.27,1.48,9.88,4.09c2.67,2.67,3.97,6.15,4.09,9.88c0,0.01,0,0.01,0,0.03c0,0.02,0,0.04,0,0.06c0,0.06,0,0.12,0,0.18
		c0.39,13.07,0.79,26.15,1.19,39.23C511.98,295.84,512.1,299.93,512.23,304.03z"/>
	<path class="st1" d="M512.49,202.35c0.16,7.62-6.48,13.97-13.97,13.98c-7.73,0-13.81-6.36-13.97-13.97
		c-0.21-9.97-0.43-19.95-0.64-29.92c-0.23-10.97-0.42-21.94-0.7-32.91c-0.19-7.62,6.5-13.97,13.97-13.98c3.69,0,7.27,1.49,9.88,4.09
		c2.66,2.65,4,6.16,4.09,9.88c0.4,15.94,0.68,31.88,1.02,47.82C512.28,192.34,512.39,197.34,512.49,202.35z"/>
	<path class="st1" d="M499.64,59.47c7.55,0.02,14.04,6.4,13.93,14.02c-0.15,9.54-0.28,19.07-0.43,28.61
		c-0.11,7.59-6.31,13.93-13.97,13.93c-0.01,0-0.03,0-0.05,0c-7.55-0.02-14.05-6.4-13.93-14.02c0.14-9.34,0.28-18.68,0.42-28.02
		c0-0.04,0-0.09,0-0.13c0-0.15,0-0.3,0.01-0.45C485.74,65.79,491.96,59.45,499.64,59.47z"/>
	<path class="st1" d="M513.43,505.21c0.12,7.61-6.47,13.95-13.97,13.95c-0.01,0-0.01,0-0.02,0c-7.71-0.01-13.84-6.38-13.95-14
		c-0.13-8.8-0.28-17.61-0.41-26.41c-0.12-7.65-0.23-15.29-0.36-22.94c0-0.03,0-0.05,0-0.07c0-0.1,0-0.2,0-0.29c0-0.06,0-0.12,0-0.17
		c-0.13-7.62,6.48-13.96,14-13.95c7.71,0.01,13.84,6.38,13.95,14c0,0.09,0,0.19,0,0.28c0,0.04,0,0.09,0,0.13c0,0.02,0,0.04,0,0.06
		c0,0.01,0,0.03,0,0.04c0.2,13.07,0.41,26.15,0.62,39.22C513.32,498.43,513.37,501.82,513.43,505.21z"/>
	<path class="st1" d="M499.32,622.78c-3.69-0.11-7.23-1.7-9.76-4.38c-2.57-2.73-3.82-6.28-3.8-10c0.07-12.14,0.13-24.28,0.2-36.42
		c0.03-5.55,0.09-11.09,0.09-16.63c0-7.62,6.93-13.78,14.38-13.56c3.68,0.11,7.23,1.7,9.76,4.38c2.61,2.77,3.74,6.24,3.8,10
		c0,0,0,0.01,0,0.01v0c0,15.15-0.16,30.31-0.25,45.47c-0.01,2.53-0.03,5.05-0.04,7.58c-0.04,7.49-6.67,13.56-13.99,13.56
		C499.57,622.79,499.45,622.78,499.32,622.78z"/>
	<path class="st1" d="M499.4,723.8c-3.68-0.16-7.2-1.8-9.69-4.52c-2.57-2.81-3.65-6.3-3.65-10.05c-0.04-15.83-0.08-31.67-0.12-47.51
		c0-2.73-0.02-5.46-0.02-8.19c0-7.62,7.22-13.67,14.57-13.34c3.68,0.16,7.2,1.8,9.69,4.52c2.57,2.81,3.66,6.3,3.66,10.05
		c0,15.65,0.07,31.31,0.11,46.97c0.01,2.91,0.01,5.82,0.02,8.73c0.02,7.42-6.86,13.36-14.01,13.36
		C499.77,723.81,499.59,723.8,499.4,723.8z"/>
	<path class="st1" d="M498.29,825.6c-3.68-0.21-7.18-1.91-9.63-4.66c-2.52-2.83-3.59-6.36-3.52-10.1
		c0.29-14.62,0.61-29.24,0.91-43.86c0.08-3.77,0.15-7.53,0.23-11.3c0.16-7.62,7.36-13.57,14.76-13.14c3.68,0.21,7.18,1.9,9.63,4.65
		c2.51,2.83,3.6,6.36,3.52,10.1c-0.35,15.86-0.66,31.73-0.98,47.59c-0.05,2.52-0.11,5.04-0.16,7.56
		c-0.14,7.36-6.89,13.17-14.01,13.17C498.79,825.62,498.54,825.61,498.29,825.6z"/>
	<path class="st1" d="M498.69,898.96c-3.69-0.05-7.26-1.58-9.83-4.22c-2.67-2.75-3.8-6.18-3.96-9.93
		c-0.43-10.3-0.85-20.6-1.27-30.91c0-0.09-0.01-0.19-0.01-0.28c-0.13-3.61,1.68-7.35,4.22-9.83c2.64-2.57,6.25-4.01,9.93-3.96
		c3.69,0.05,7.25,1.58,9.83,4.22c2.66,2.73,3.83,6.18,3.96,9.93c0.36,10.27,0.84,20.54,1.26,30.8c0,0.11,0.01,0.22,0.01,0.33
		c0,0.01,0,0.02,0,0.03c0,0,0,0.01,0,0.01c0.15,3.6-1.69,7.36-4.22,9.83c-2.6,2.53-6.12,3.96-9.74,3.96
		C498.82,898.96,498.76,898.96,498.69,898.96z"/>
	<path class="st1" d="M233.43,337.41c-3.67-0.38-7.08-2.23-9.4-5.1c-2.41-2.97-3.24-6.5-3.04-10.25c1.02-15.71,3.2-31.27,6.85-46.6
		c4.4-18.46,10.94-36.37,19.3-53.39c7.62-15.51,17.01-30.29,27.98-43.65c12.03-14.64,25.74-27.67,41.2-38.63
		c14.65-10.38,30.76-18.49,47.78-24.2c17.93-6.02,37.22-8.96,56.13-8.34c10.05,0.33,20,1.43,29.85,3.52
		c9.08,1.94,17.99,4.68,26.63,8.08c6.32,2.5,12.49,5.43,18.48,8.66c6.7,3.61,9.14,12.37,5.49,18.99c-3.7,6.71-12.29,9.1-18.99,5.49
		c-2.42-1.31-4.87-2.55-7.35-3.74c-5.77-2.66-11.68-4.96-17.72-6.92c-5.71-1.73-11.49-3.15-17.36-4.23
		c-5.99-0.99-12.02-1.63-18.08-1.91c-6.08-0.17-12.15,0.01-18.2,0.55c-6.12,0.65-12.19,1.66-18.19,3.01
		c-6.02,1.46-11.94,3.28-17.76,5.41c-6.1,2.36-12.06,5.05-17.85,8.09c-5.99,3.25-11.78,6.84-17.35,10.74
		c-5.95,4.29-11.64,8.91-17.06,13.86c-5.71,5.33-11.1,11-16.15,16.96c-5.39,6.51-10.39,13.32-15,20.41
		c-5.01,7.91-9.51,16.11-13.53,24.56c-4.15,8.97-7.72,18.19-10.75,27.6c-3.1,10-5.57,20.18-7.4,30.49
		c-1.56,9.32-2.52,18.68-3.13,28.11c-0.46,7.13-7.11,12.51-14,12.51C234.34,337.48,233.89,337.46,233.43,337.41z"/>
	<path class="st1" d="M181.84,804.29c-17.41-9.02-2.99-24.94,0.97-37.66c5.22-13.33,10.87-26.55,13.45-40.73
		c7.08-39.1,9.76-78.82,12.45-118.42c3.09-32.2,5.7-64.43,7.64-96.72c6.56-66.75,9.67-133.98,5.51-200.97
		c0-7.62,6.36-13.97,13.97-13.97c7.62,0,13.97,6.36,13.97,13.97c0,9.09,0.72,18.18,1.26,27.26c1.76,29.82,0.6,59.71-0.76,89.52
		c-3.26,61.7-8.55,123.27-13.9,184.83c-4.9,53.83-4.33,110.2-25.78,160.69C204.51,784.4,200.89,811.1,181.84,804.29z"/>
	<path class="st1" d="M261.01,844.3c-25.68-0.85-52.84-4.78-73.42-21.4c-5.93-5.49-11.1-12.64-12.61-20.71
		c-0.68-5.36-1.37-11.08,1.03-16.12c3.36-6.83,11.9-9.71,18.72-6.33c7.03,3.35,8.09,10.47,7.72,17.29
		c3.57,7.19,12.05,9.78,18.79,13.2c22.12,6.66,45.95,7.47,68.86,5.52c15.02-0.49,30-3.29,43.09-11c6.42-3.17,12.86-8.69,20.42-7.37
		c11.9,1.85,15.49,19.13,5.05,25.39c-13.05,6.91-24.85,14.23-39.36,17.11c-9.44,3.3-19.47,2.94-29.3,3.94
		C280.36,844.88,270.68,844.74,261.01,844.3z"/>
	<path class="st1" d="M747.81,290.68c-3-2.49-4.48-5.88-5-9.67c-0.05-0.39-0.11-0.78-0.16-1.17c-1.19-7.93-2.84-15.78-4.96-23.52
		c-2.14-7.43-4.73-14.72-7.77-21.84c-2.89-6.53-6.16-12.87-9.81-19.01c-3.65-5.94-7.64-11.65-11.98-17.11
		c-4.15-5.07-8.59-9.89-13.31-14.45c-4.78-4.48-9.81-8.66-15.07-12.55c-5.29-3.78-10.79-7.24-16.47-10.39
		c-5.61-2.99-11.36-5.66-17.26-8.02c-6.3-2.41-12.72-4.44-19.25-6.13c-6.9-1.67-13.89-2.94-20.93-3.82
		c-7.48-0.83-14.99-1.21-22.52-1.18c-8.3,0.15-16.56,0.8-24.79,1.91c-9,1.35-17.89,3.26-26.67,5.67
		c-6.93,2.01-13.77,4.31-20.49,6.93c-0.06,0.02-0.11,0.05-0.17,0.07c-0.14,0.05-0.28,0.11-0.42,0.16
		c-7.09,2.79-15.36-1.51-17.84-8.5c-1.22-3.44-1.03-7.28,0.51-10.58c1.61-3.46,4.49-5.88,7.99-7.26c0.04-0.02,0.08-0.03,0.13-0.05
		c16.74-6.58,34.25-11.32,52.05-13.92c19.71-2.87,39.68-3.14,59.43-0.47c18.69,2.53,36.99,7.89,54.08,15.86
		c17.65,8.22,33.75,19.45,47.8,32.89c13.09,12.53,24.03,27.17,32.82,42.99c8.5,15.3,14.64,31.85,18.8,48.83
		c1.72,7.02,2.97,14.13,3.97,21.29c0.02,0.1,0.03,0.2,0.04,0.3c0.04,0.3,0.09,0.61,0.12,0.91c0.81,7.57-5.43,14.44-12.86,15.01
		c-0.35,0.03-0.71,0.04-1.06,0.04C753.52,293.91,750.31,292.76,747.81,290.68z"/>
	<path class="st1" d="M809.24,796.31c-9.89-2.37-11.58-13.95-15.49-21.83c-6.3-15.52-12.72-31.2-15.11-47.89
		c-14.04-87.57-16.27-176.29-20.43-264.73c-0.33-19.34-1.18-38.67-3-57.93c-0.63-26.18-1.62-52.62-4.86-78.42
		c-1.44-11.29-1.72-22.68-3.02-33.98c-0.77-10.1-5.24-23.79,6.7-29.02c12.22-4.82,21.08,6.05,20.17,17.79
		c2,16.24,2.67,32.57,4.52,48.83c3.53,26.14,3.45,51.25,4.68,77.29c2.84,27.38,2.15,54.94,4.24,82.37
		c2.1,58.11,4.82,116.24,10.46,174.13c3.43,22.03,5.51,44.26,9.45,66.2c2.4,10.79,6.56,21.06,10.63,31.3
		c2.62,8.65,9.73,16.61,8.02,25.72C824.51,793.43,816.48,798.29,809.24,796.31z"/>
	<path class="st1" d="M728.03,836.51c-19.78-1.17-39.49-5.08-58.28-11.34c-8.02-2.67-15.82-5.89-23.39-9.67
		c-0.04-0.02-0.07-0.03-0.11-0.05c-0.16-0.08-0.32-0.16-0.48-0.24c-6.79-3.44-8.9-12.65-5.29-19.05c1.78-3.14,4.77-5.52,8.24-6.54
		c3.72-1.09,7.41-0.47,10.81,1.25c0.47,0.24,0.94,0.47,1.41,0.7c6.09,2.88,12.35,5.34,18.73,7.49c8.63,2.76,17.4,4.94,26.3,6.63
		c9.19,1.61,18.45,2.69,27.77,3.18c7.7,0.31,15.4,0.21,23.08-0.4c5.43-0.51,10.83-1.29,16.17-2.42c3.45-0.8,6.87-1.77,10.22-2.93
		c2.11-0.8,4.19-1.7,6.22-2.7c1.3-0.71,2.57-1.46,3.81-2.27c0.79-0.58,1.56-1.18,2.3-1.81c0.44-0.42,0.87-0.86,1.28-1.31
		c0.3-0.38,0.59-0.76,0.87-1.15c0.16-0.27,0.31-0.54,0.47-0.82c0.1-0.23,0.19-0.46,0.28-0.7c0.04-0.14,0.08-0.29,0.11-0.43
		c0.05-0.42,0.09-0.85,0.16-1.27c0.47-3.09,1.67-5.89,3.87-8.15c2.54-2.61,6.07-4.15,9.71-4.22c3.72-0.07,7.38,1.36,10.05,3.96
		c2.49,2.43,4.36,6.16,4.22,9.71c-0.03,0.64-0.05,1.29-0.09,1.94c-0.04,0.68-0.16,1.35-0.33,2.01c-0.48,2.82-1.11,5.54-2.32,8.21
		c-2.57,5.66-6.46,10.33-11.19,14.33c-4.03,3.42-8.73,6.05-13.5,8.29c-4.32,2.03-8.9,3.6-13.49,4.9
		c-13.79,3.91-28.16,5.31-42.49,5.31C738.09,836.98,733.04,836.81,728.03,836.51z M798.66,792.59c-0.01-0.27-0.01-0.53-0.01-0.8
		c0,0.01-0.01,0.02-0.01,0.04c-0.01,0.25-0.02,0.51-0.04,0.76C798.63,792.58,798.65,792.59,798.66,792.59z"/>
	<path class="st1" d="M693.82,739.84c-17.38-6.95-32.3-20.72-39.68-38.12c-3.7-7.28-5.58-17.75,2.16-23.18
		c5.96-4.57,15.07-3.59,19.6,2.52c1.55,2,2.51,4.4,2.81,6.88c1.19,3.1,2.59,6.13,4.37,8.94c2.81,4.11,6.3,7.77,10.12,10.96
		c4.11,2.43,8.42,4.56,12.31,7.36C717.31,724.13,708.25,743.36,693.82,739.84z"/>
	<path class="st1" d="M616.62,733.22c-4.61-5.96-3.57-15.04,2.52-19.6c5.54-3.82,11.63-7,15.97-12.3c3.39-4.26,7.09-8.38,9.84-13.09
		c1.89-3.81,2.89-7.89,5.41-11.39c10.79-13.25,31.13,0.11,23.33,15.24c-2.99,8.7-8.07,16.34-13.97,23.33
		c-6.26,8.34-14.38,14.91-23.3,20.2C630.36,740.29,621.39,739.41,616.62,733.22z"/>
	<path class="st1" d="M655.59,777.89c-11.36-5.14-4.99-14.53-20.92-28.54c-3.58-3.05-7.32-5.92-11.49-8.13
		c-5.36-2.32-9.51-7.42-9.36-13.44c0-7.62,6.36-13.97,13.97-13.97c4.89-0.09,8.58,2.99,12.65,5.12
		c11.19,6.94,20.83,16.39,27.84,27.55c3.7,7.5,8.73,16,5.61,23.98C671.11,777.41,662.45,780.94,655.59,777.89z M637.83,718.11
		c-0.52-0.61-1.18-1.14-1.84-1.61C636.64,716.99,637.26,717.52,637.83,718.11z"/>
	<path class="st1" d="M659.14,776.23c-7.04-2.83-10.37-11.4-7.44-18.31c3.46-9.31,8.27-18.44,15.43-25.45
		c8.24-7.07,16.52-15.39,26.94-19.01c8-2.42,17.09,3.06,18.05,11.51c0.84,9.21-4.6,13.33-12.12,16.65
		c-7.34,5.63-15.52,11.07-19.44,19.78c-1.16,2.41-2.17,4.89-3.1,7.4C674.8,775.93,665.92,779.09,659.14,776.23z"/>
	<path class="st1" d="M572.19,284.62c0-7.62,6.36-13.97,13.97-13.97c1.47-0.16,2.82-0.89,4.07-1.64
		c9.74-6.81,17.72-16.29,22.56-27.15c1.38-8.09,9.63-13.6,17.61-11.37c15.76,5.66,9.93,21.04,3.31,31.79
		c-5.9,9.09-12.4,17.93-21,24.68c-7.45,6.36-16.46,11.72-26.54,11.64C578.55,298.59,572.19,292.24,572.19,284.62z"/>
	<path class="st1" d="M666.71,292.51c-18.92-7.85-44.08-27.19-48.61-48.07c-4.15-18,21.41-25.02,26.95-7.43
		c0.83,3.18,1.98,6.38,4.29,8.79c5.56,6.86,12.7,12.24,20.06,17.05c6.43,3.47,14.66,5.13,16.69,13.23
		C689.47,287.16,677.04,297.63,666.71,292.51z"/>
	<path class="st1" d="M628.67,334.69c-6.47-3.61-9.05-12.81-5.01-19.12c1.87-2.82,4.08-5.33,6.17-7.99
		c4.52-5.97,9.51-11.59,14.89-16.8c7.6-6.94,23.78-20.63,34.04-20.82c7.62,0,13.97,6.36,13.97,13.97c0,6.38-4.46,11.88-10.39,13.49
		c-1.31,0.7-2.59,1.44-3.84,2.24c-3.74,2.81-7.71,5.33-11.28,8.36c-6.43,5.75-11.33,11.31-16.33,17.98
		c-1.32,1.66-2.78,3.22-3.37,4.06C643.65,336.29,635,338.55,628.67,334.69z"/>
	<path class="st1" d="M619.13,334.7c-9.96-12.39-21.95-23.46-35.69-31.49c-3.76-2.23-7.57-4.34-9.92-8.2
		c-3.95-6.52-1.47-15.32,5.01-19.12c5.19-3.04,11.52-2.24,15.92,1.34c8.17,4.6,15.9,9.84,22.96,16.03
		c8.8,7.23,16.73,15.47,23.84,24.36C651.94,332.63,630.98,348.88,619.13,334.7z"/>
	<path class="st1" d="M368.17,639.2c-6.82-28.67,25.21-31.93,27.23-10.33C400.76,654.77,372.23,658.36,368.17,639.2z"/>
	<path class="st1" d="M428.85,661.26c0.16-5.71-0.51-11.49,0.55-17.13c3.57-14.6,26-12.85,27.39,2.11
		c0.09,5.02-0.13,10.01,0.01,15.02C456.37,679.59,429.3,679.6,428.85,661.26z"/>
	<path class="st1" d="M394.87,730.54c-5.97-6.09-4.16-17.44-4.81-25.48c0.75-8.76,11.37-14.8,19.29-10.98
		c10.67,4.45,8.51,17.16,9.38,26.58C419.28,732.72,402.99,739.32,394.87,730.54z"/>
	<path class="st1" d="M359.52,467.62c-3.58-1.13-6.19-3.57-8.1-6.73c-1.02-1.68-1.59-3.82-1.78-5.76c-0.34-3.56,0.61-6.72,2.33-9.79
		c1.69-3.02,4.91-5.33,7.98-6.78c4.97-2.34,10.38-3.6,15.78-4.51c8.88-1.5,17.82-2.41,26.81-2.96c17.87-1.1,35.96-1.2,53.81,0.44
		c2.53,0.23,5.07,0.5,7.59,0.82c3.55,0.44,6.92,2.79,8.96,5.65c2.16,3.03,3.03,6.86,2.39,10.53c-0.63,3.59-2.69,6.84-5.65,8.96
		c-3.13,2.24-6.77,2.86-10.53,2.39c-0.7-0.09-1.4-0.17-2.1-0.25c-13.73-1.4-27.6-1.58-41.39-1.2c-11.25,0.37-22.54,1.12-33.67,2.87
		c-2.4,0.42-4.78,0.9-7.14,1.51c-1.2,1.56-2.73,2.87-4.48,3.8c-2.03,1.09-4.32,1.65-6.61,1.65
		C362.3,468.26,360.88,468.05,359.52,467.62z"/>
	<path class="st1" d="M459.58,502.92c-0.1,0-0.2,0-0.31,0c-0.12,0-0.25,0-0.37,0c-17.17-0.09-34.34-0.17-51.51-0.26
		c-3.22-0.01-6.43-0.05-9.65-0.05c-3.76-0.04-7.23-1.06-10.05-3.65c-2.72-2.49-4.37-6-4.53-9.69c-0.33-7.35,5.72-14.59,13.34-14.59
		c18.06,0,36.12,0.19,54.18,0.28c2.4,0.01,4.8,0.02,7.19,0.04c0.05,0,0.1,0,0.15,0c0.14,0,0.28,0,0.42,0
		c3.71,0.04,7.15,1.1,9.94,3.65c2.72,2.49,4.37,6.01,4.53,9.69c0.16,3.68-1.16,7.33-3.65,10.05c-2.39,2.61-6.04,4.53-9.64,4.53
		C459.62,502.92,459.6,502.92,459.58,502.92z"/>
	<path class="st1" d="M285.78,329.71c0-7.62,6.36-13.97,13.97-13.97c7.62,0,13.97,6.36,13.97,13.97s-6.36,13.97-13.97,13.97
		C292.14,343.68,285.78,337.32,285.78,329.71z"/>
	<path class="st1" d="M389.39,293.8c0-7.62,6.36-13.97,13.97-13.97s13.97,6.36,13.97,13.97c0,7.62-6.36,13.97-13.97,13.97
		S389.39,301.42,389.39,293.8z"/>
	<path class="st1" d="M334.52,221.25c0-7.62,6.36-13.97,13.97-13.97s13.97,6.36,13.97,13.97c0,7.62-6.36,13.97-13.97,13.97
		S334.52,228.86,334.52,221.25z"/>
	<path class="st1" d="M323.01,551.67c0-7.62,6.36-13.97,13.97-13.97s13.97,6.36,13.97,13.97c0,7.62-6.36,13.97-13.97,13.97
		S323.01,559.29,323.01,551.67z"/>
	<path class="st1" d="M681.76,658.13c-0.13,0-0.26,0-0.38-0.01c-3.69-0.11-7.23-1.7-9.76-4.38c-2.58-2.74-3.8-6.27-3.8-10
		c0-8.43-0.11-16.86-0.11-25.29c0-7.62,6.94-13.77,14.38-13.56c3.69,0.11,7.23,1.7,9.76,4.39c2.58,2.74,3.8,6.27,3.8,10
		c0,8.4,0.1,16.79,0.11,25.19c0,0,0,0.01,0,0.01c0,0.03,0,0.06,0,0.09C695.76,652.06,689.06,658.13,681.76,658.13z"/>
	<path class="st1" d="M680.34,628.81c-10.79-1.11-16.35-13.92-9.67-22.5c6.92-9.23,15.97-2.3,23.49-7.85
		c10.45-9.76,13.27-24.35,14.91-37.96c1.23-7.82,1.99-15.68,1.88-23.61c0.07-7.49,0.38-15.15-1.15-22.51
		c-4.19-2.91-9.35-1.6-14.09-2.19c-9.65-1-18.94-10.29-16.18-20.4c2.34-9.42,14.66-13.45,22.16-7.27
		c14.75-0.71,31.22,7.42,35.12,22.54c3.2,14.63,2.19,29.72,1.55,44.55c-1.78,14.37-3.09,29.15-8.56,42.69
		C720.34,616.41,705.77,630.86,680.34,628.81z"/>
	<path class="st1" d="M493.71,864.3c-11.02-0.32-21.92-2.34-32.5-5.42c-12.54-3.65-24.43-9.17-35.76-15.61
		c-15.16-8.79-29.15-19.43-41.84-31.51c-13.86-13.21-26.25-27.94-36.98-43.8c-10.31-15.23-19.21-31.51-26.23-48.52
		c-6.87-16.63-12.21-33.86-15.36-51.6c-2.57-14.48-3.62-29.16-2.96-43.85c0.34-7.61,7.26-13.57,14.78-13.13
		c7.69,0.45,13.46,7.18,13.12,14.78c-0.12,2.72-0.19,5.44-0.19,8.16c0.1,7.14,0.62,14.25,1.52,21.32
		c1.18,8.37,2.87,16.65,5.01,24.83c2.52,9.22,5.6,18.27,9.17,27.13c4.06,9.79,8.71,19.31,13.91,28.55
		c5.45,9.47,11.46,18.6,18.01,27.34c6.38,8.33,13.23,16.27,20.57,23.77c6.72,6.72,13.82,13.04,21.32,18.88
		c6.48,4.93,13.23,9.47,20.26,13.57c5.79,3.28,11.77,6.22,17.92,8.78c5.1,2.03,10.29,3.78,15.59,5.2c4.35,1.09,8.76,1.95,13.2,2.55
		c3.02,0.34,6.06,0.56,9.1,0.65c7.62,0.22,13.56,7.35,13.12,14.78c-0.22,3.73-1.98,7.29-4.8,9.74c-2.67,2.31-6,3.39-9.47,3.39
		C494.05,864.31,493.88,864.31,493.71,864.3z"/>
	<path class="st1" d="M336.87,820.15c-4.3-6.34-2.55-15.08,3.7-19.42c4.65-3.22,9.29-6.46,13.93-9.69
		c5.76-4.01,11.52-8.01,17.28-12.02c6.24-4.36,15.18-2.54,19.42,3.7c4.31,6.35,2.54,15.06-3.7,19.42
		c-6.04,4.21-12.09,8.42-18.14,12.62c-4.36,3.03-8.7,6.07-13.07,9.1c-2.33,1.62-5.03,2.38-7.73,2.38
		C344.03,826.23,339.53,824.07,336.87,820.15z"/>
	<path class="st1" d="M485.71,856.09c-2.01-7.3,2.41-15.22,9.76-17.19c5.93-2.03,12.24-2.04,18.11-4.27
		c9.69-3.5,19.24-7.38,28.67-11.5c11.34-6.3,22.18-13.42,32.69-21.01c3.61-2.56,7.02-5.41,10.51-8.13
		c6.13-4.94,12.92-9.01,18.84-14.23c5.35-4.75,9.59-12.37,17.68-12.07c13.28-0.05,19.07,17.5,8.24,25.2
		c0.09-0.05,0.17-0.1,0.26-0.15c0.44-0.39,0.88-0.77,1.32-1.16c-6.14,6.71-12.81,12.97-20.44,17.99
		c-19.23,14.47-38.27,29.66-60.08,40.18c-14.35,5.55-28.45,13.04-43.9,14.85C498.77,868.16,488.61,865.96,485.71,856.09z"/>
	<path class="st1" d="M301.87,628.16c-1.46-2.74-4.6-3.46-7.01-5.07c-3.08-2.26-6.6-3.74-9.81-5.77
		c-11.79-7.36-18.63-19.91-21.51-33.21c-1.99-9.46-4.37-18.83-6.17-28.33c-1.65-9.32-0.85-18.78-0.3-28.15
		c-0.54-14.36,5.89-28.62,18.29-36.34c5.32-3.52,11.75-4.22,17.87-5.38c9.83-4.02,21.9,0.89,22,12.52
		c-1.55,22.73-29.65,7.15-30.07,26.08c-0.47,7.43-1.13,14.96-0.79,22.4c0.68,7.37,2.87,14.47,4.34,21.7
		c4.61,25.22,7.91,22.48,27.82,34.85c8.05,6.25,16.56,17.73,10.88,28.03C321.79,641.95,304.55,639.86,301.87,628.16z"/>
	<path class="st1" d="M298.71,503.16c-5.33-4.66-4.61-12.15-3.9-18.53c0.6-4.94,1.31-9.86,2.44-14.71
		c7.53-33.51,22.47-66.96,49.86-88.8c14.24-10.29,29.92-20.78,47.7-23.14c18.24-2.16,37.34,1.2,54.25,8.21
		c19.58,9.45,34.17,20.51,51.92,31.52c15.66,10.94,31.79,21.96,51.65,22.28c34.81,0.13,46.88-17.5,86.21-9.5
		c15.54,3.09,30.37,10.51,42.01,21.26c8.17,7.45,13.12,17.5,17.13,27.63c2.12,4.8,3.85,9.74,4.89,14.89
		c1.49,5.16,3.3,10.38,2.79,15.85c0.48,9.47-7.58,18.12-17.37,15.76c-7.01-1.63-11.86-8.73-10.65-15.81c0.4-1.97-0.43-3.83-0.97-5.7
		c-3.58-14.19-8.71-30-22.09-37.79c-18.6-12.17-42.43-12.74-62.63-4.42c-25.12,7.36-52.8,8.62-76.85-3.03
		c-9.62-4.26-18.14-10.51-26.87-16.3c-10.88-7.51-22.98-14.76-33.81-21.81c-10.83-7.07-22.58-12.73-35.5-14.52
		c-9.17-1.34-18.79-2.25-27.7,0.86c-25.53,10.85-42.74,27.28-54.63,52.15c-5.94,13.22-10.31,27.14-13.13,41.35
		c-1.89,7.25,0.56,15.88-5.02,21.74C313.43,508.15,304.05,508.43,298.71,503.16z"/>
</g>
</svg>
