<?xml version="1.0" encoding="utf-8"?>
<!-- Generator: Adobe Adobe Illustrator 24.2.0, SVG Export Plug-In . SVG Version: 6.00 Build 0)  -->
<svg version="1.1" id="Capa_de_vector_1_" xmlns="http://www.w3.org/2000/svg" xmlns:xlink="http://www.w3.org/1999/xlink" x="0px"
	 y="0px" viewBox="0 0 1000 1000" style="enable-background:new 0 0 1000 1000;" xml:space="preserve">
<style type="text/css">
	.st0{fill:#A46460;}
</style>
<path class="st0" d="M166.88,315.67c-8.09-13.46-16.17-26.93-24.25-40.39c-10.97-18.28-21.95-36.56-32.93-54.84
	c-10.95-18.24-21.9-36.48-32.86-54.72c-10.97-18.27-21.95-36.55-32.92-54.82c-7.45-12.41-14.9-24.82-22.35-37.22
	c-4.21-7.01-1.44-16.47,5.54-20.48c7.19-4.14,16.28-1.46,20.48,5.54c0.07,0.11,0.14,0.23,0.21,0.35c0.04,0.07,0.08,0.13,0.12,0.2
	c10.41,17.33,20.81,34.66,31.22,51.99c11.11,18.5,22.21,37,33.32,55.5c10.97,18.27,21.94,36.54,32.91,54.8
	c10.76,17.92,21.52,35.84,32.27,53.76c5.09,8.46,10.17,16.93,15.25,25.4c4.21,7.01,1.44,16.47-5.54,20.48
	c-2.32,1.33-4.84,1.96-7.33,1.96C174.81,323.17,169.72,320.41,166.88,315.67z"/>
<path class="st0" d="M685.56,566.07c-0.26-0.44-0.51-0.88-0.77-1.31c-0.08-0.14-0.16-0.27-0.23-0.41
	c-9.59-16.47-19.35-32.85-29.02-49.27c-10.79-18.31-21.57-36.63-32.35-54.95c-10.81-18.36-21.62-36.72-32.43-55.09
	c-10.74-18.24-21.48-36.48-32.22-54.73c-11.08-18.83-22.17-37.65-33.25-56.48c-10.78-18.3-21.55-36.61-32.33-54.92
	c-10.87-18.47-21.75-36.94-32.62-55.41c-10.89-18.49-21.78-36.98-32.66-55.48c-10.43-17.72-20.86-35.44-31.29-53.15
	c-0.02-0.04-0.05-0.08-0.07-0.12c-0.14-0.24-0.28-0.48-0.42-0.72c-0.05-0.09-0.1-0.17-0.15-0.26c-0.01-0.02-0.02-0.04-0.04-0.06
	c-0.46-0.78-0.92-1.57-1.38-2.35c-4.14-7.05-1.62-16.41,5.41-20.51c7.09-4.14,16.37-1.62,20.51,5.41c0.22,0.38,0.44,0.75,0.66,1.13
	c0.44,0.75,0.89,1.51,1.33,2.26c0.02,0.03,0.03,0.05,0.05,0.08c9.69,16.45,19.37,32.91,29.06,49.36
	c10.87,18.45,21.73,36.91,32.6,55.36c10.84,18.41,21.67,36.82,32.51,55.22c10.82,18.38,21.64,36.75,32.46,55.13
	c11.05,18.79,22.13,37.56,33.17,56.35c10.77,18.32,21.56,36.63,32.35,54.95c10.83,18.39,21.67,36.78,32.49,55.18
	c10.88,18.5,21.77,36.98,32.66,55.47c10.31,17.52,20.62,35.04,30.94,52.55c0.33,0.55,0.66,1.11,0.98,1.67
	c4.11,7.07,1.64,16.39-5.41,20.52c-2.32,1.36-4.89,2-7.43,2C693.45,573.48,688.34,570.8,685.56,566.07z"/>
<path class="st0" d="M887.49,911.63c-59.81-12.16-31.34-52.05-11.05-36.42c4.64,4.41,11.47,5.34,17.43,7.1
	c8.18-0.27,16.18-2.51,24.17-4.13c8.81-1.65,15.78-6.99,22.05-13.12c12.8-11.72,4.08-30.26-4.58-41.8
	c-9.12-11.82-21.01-20.99-32.24-30.69c-23.4-16.67-47.5-32.2-70.28-49.72c-16.35-13.35-32.73-26.8-47.3-42.11
	c-19.2-17.14-36.73-36.02-52.91-56.03c-19.12-26.58-33.31-56.41-52.07-83.2c-7.52-10.56,2.61-26.18,15.41-23.14
	c9.99,2.06,13.03,13.49,19.05,20.46c10.8,18.07,21.29,36.37,32.45,54.25c6.4,10.96,14.56,20.79,23.19,30.06
	c9.52,10.48,18.9,21.04,29.64,30.32c10.71,10.28,20.91,21.04,32.62,30.23c9.06,8.19,18.45,15.92,28.56,22.79
	c8.07,6.3,16.03,12.68,24.79,18.02c26.71,17.7,53.86,36.12,73.74,61.65c25.11,34.2,22.38,69.72-14.85,93.19
	C932.07,907.34,902.78,913.95,887.49,911.63z"/>
<path class="st0" d="M811.88,937.82c-9.94,0.11-18.97-5.19-25.86-12.02c-12.59-10.3-34.07-37.11-9.68-46.46
	c7.65-2.17,16.06,2.68,18.21,10.28c0.8,2.21,2.05,4.21,3.56,6c4.49,3.79,9.51,11.93,15.57,12.18c6.08-0.74,12.62-0.97,17.94-4.31
	c14.36-11.36,9.22-23.73,4.57-38.55c-4.06-12.74-15.42-30.88,1.86-38.81c9.16-4.15,20.44,3.16,20.69,13.1
	c3.32,8.9,6.68,17.81,9.14,26.99c3.91,13.14,5.55,27.6-1.25,40.1C856.87,928.55,835.16,938,811.88,937.82z"/>
<path class="st0" d="M732.7,928.82c-9.55-2.53-19.43-6.71-25.16-15.15c-2.96-4.15-5.49-7.25-5.39-12.46
	c-0.03-8.06,7.17-15.05,15.22-14.78c11.49-0.05,10.76,9.54,19.15,12.2c10.31,5.29,29.47-3.48,28.34-16.12
	c-1.06-14.69-5.21-28.88-9.35-42.88c-1.68-18.84,24.6-23.05,29.41-5.57c5.83,19.14,14.51,46.91,6.73,66.06
	C782.42,921.36,755.16,935.08,732.7,928.82z"/>
<path class="st0" d="M657.03,923.1c-14.47-3.53-34.41-21.8-18.39-35.38c6.44-4.91,15.99-3.68,20.94,2.73
	c2.31,2.54,5.14,4.19,8.64,4.17c20.36,1.61,24.42-24.74,21.34-40.07c-0.77-4.18-2.14-8.36-2.11-12.65
	c-0.12-10.28,11.58-18.04,20.94-13.56c5.48,2.46,8.93,7.8,9.17,13.76c2.37,10.15,3.74,20.56,2.54,30.97
	C716.51,906.76,692.11,931.31,657.03,923.1z"/>
<path class="st0" d="M597.69,909.26c-13.82-0.14-26.36-7.94-36.16-17.15c-9.32-9.57-20.79-24.9-5.44-34.9
	c6.19-3.95,15.86-1.61,19.59,4.2c2.49,3.63,4.77,7.47,8.06,10.45c8.75,8.41,19.74,8.64,31.17,7.58c8.47-1.87,5.29-26.47,4.68-33.54
	c-7.23-12.44,1.04-29.61,16.58-25.71c16.43,4.76,13.96,33.11,14.35,46.88C648.46,901.09,630.54,913.13,597.69,909.26z"/>
<path class="st0" d="M557.75,877.83c-3.7-0.13-7.88-1.72-10.32-4.61c-5.28-6.27-11.05-12.04-16.75-17.92
	c-6.44-6.65-12.86-13.32-19.67-19.59c-25.13-21.49-50.92-42.61-78.61-60.73c-68.49-47.3-145.92-79.17-217.11-121.93
	c-26.95-14.66-52.65-31.49-78.69-47.61c-10.6-3.94-21.7-10.71-16.41-23.84c10.86-20.45,34.83,0.5,47.87,8.15
	c22.26,14.21,44.91,27.86,68.07,40.57c69.21,41.55,144.58,72.41,211.1,118.53c17.64,10.85,33.84,23.77,49.94,36.75
	c19.92,14.87,38.7,31.24,55.67,49.42c6.92,8.53,20.16,16.62,20.44,28.32C573.12,871.39,565.81,878.27,557.75,877.83z"/>
<path class="st0" d="M121.82,595.34c-14.75-9.4-21.47-24.53-27.99-40.1c-8.32-19.71-12.05-41.94-8.78-63.17
	c1.59-21.53,7.58-42.46,17.62-61.57c4.18-9.67,10.43-18.11,15.85-27.08c5.45-9.26,10.92-18.54,17.58-27
	c12.02-16.91,30.3-30.92,35.02-51.91c-3.99-6.08-6.66-14.12-2.47-20.84c4.06-6.95,13.82-9.34,20.62-5.01
	c5.07,2.7,6.32,8.55,9.04,13.1c5.18,9.68,2.44,20.91-1.23,30.61c-6.32,16.68-18.85,29.92-30.09,43.43
	c-13.47,15.6-22.98,33.98-34.13,51.2c-5.74,11.7-11.81,23.48-14.63,36.29c-2.44,11.28-3.89,22.85-4.52,34.36
	c0.63,15.01,4.16,29.73,10.85,43.2c2.65,5.58,5.13,11.44,9.36,16.03C159.45,580.99,139.87,608.02,121.82,595.34z"/>
<path class="st0" d="M274.53,470.46c-8.14-8.28-13.18-18.85-19.21-28.64c-11.81-20.66-12.64-46.12-9.49-69.21
	c1.87-10.76,5.24-21.19,8.16-31.69c1.62-8.88,10.79-14.9,19.52-12.09c7.84,2.48,12.19,11.01,9.79,18.82
	c-2.42,7.89-4.67,15.87-6.71,23.87c-1.63,7.48-2.42,15.11-2.38,22.76c0.49,9.97,1.16,20.2,5.36,29.4
	c5.47,8.83,9.79,18.61,16.88,26.29C309.47,464.78,288.55,484.45,274.53,470.46z"/>
<path class="st0" d="M573.83,657.56c-6-3.25-11.52-7.83-15.2-13.66c-3.86-6.11-6.59-12.94-6.97-20.23
	c-0.48-9.19,1.65-18.46,6.9-26.12c3.49-5.09,7.88-9.28,13.02-12.46c0.47-0.33,0.95-0.65,1.45-0.95c0.1-0.06,0.2-0.12,0.31-0.17
	c0.27-0.15,0.55-0.29,0.83-0.42c0.6-0.3,1.2-0.58,1.8-0.85c0.63-0.3,1.27-0.59,1.92-0.86c0.66-0.28,1.33-0.49,2-0.66
	c6.34-2.09,13.05-2.65,19.85-1.73c11.36,1.52,22.38,8.74,28.45,18.43c2.82,4.5,5.05,9.41,5.99,14.67c0.02,0.13,0.04,0.26,0.07,0.38
	c0.19,0.8,0.3,1.6,0.35,2.4c0.54,4.43,0.49,8.89-0.39,13.31c-2.47,12.43-10.61,23.42-21.97,29.16c-5.92,2.99-12.55,4.53-19.16,4.53
	C586.41,662.35,579.75,660.78,573.83,657.56z M593.54,632.38c0.57-0.04,1.13-0.09,1.7-0.15c0.48-0.1,0.96-0.22,1.43-0.34
	c0.47-0.17,0.94-0.34,1.4-0.53c0.49-0.25,0.98-0.51,1.45-0.79c0.43-0.3,0.85-0.6,1.27-0.91c0.35-0.31,0.68-0.63,1.02-0.96
	c0.33-0.38,0.65-0.77,0.97-1.16c0.25-0.37,0.49-0.75,0.72-1.13c0.24-0.48,0.47-0.97,0.69-1.47c0.17-0.5,0.33-1,0.48-1.51
	c0.1-0.52,0.2-1.04,0.27-1.56c0.03-0.52,0.05-1.03,0.06-1.55c-0.03-0.39-0.06-0.78-0.1-1.17c-0.01-0.1-0.02-0.21-0.03-0.31
	c-0.01-0.06-0.03-0.13-0.04-0.19c-0.09-0.44-0.2-0.87-0.31-1.31c-0.18-0.51-0.37-1.01-0.57-1.5c-0.23-0.47-0.48-0.93-0.74-1.38
	c-0.27-0.4-0.56-0.8-0.85-1.19c-0.34-0.38-0.7-0.76-1.06-1.13c-0.37-0.32-0.75-0.63-1.13-0.94c-0.43-0.28-0.86-0.56-1.3-0.82
	c-0.45-0.23-0.91-0.44-1.38-0.65c-0.49-0.17-0.99-0.32-1.49-0.47c-0.47-0.09-0.95-0.18-1.43-0.25c-0.54-0.04-1.07-0.06-1.61-0.07
	c-0.56,0.04-1.13,0.09-1.69,0.15c-0.5,0.1-1,0.22-1.5,0.35c-0.41,0.14-0.81,0.3-1.21,0.46c-0.49,0.25-0.97,0.51-1.44,0.78
	c-0.44,0.3-0.87,0.61-1.29,0.93c-0.4,0.36-0.79,0.73-1.18,1.11c-0.29,0.35-0.58,0.69-0.86,1.05c-0.28,0.44-0.56,0.88-0.83,1.32
	c-0.22,0.44-0.42,0.89-0.62,1.34c-0.17,0.5-0.32,1-0.47,1.5c-0.1,0.49-0.18,0.98-0.26,1.47c-0.03,0.54-0.06,1.09-0.06,1.63
	c0.04,0.53,0.1,1.05,0.16,1.58c0.1,0.46,0.21,0.92,0.32,1.37c0.19,0.54,0.39,1.07,0.61,1.6c0.21,0.42,0.43,0.83,0.66,1.23
	c0.29,0.43,0.6,0.86,0.91,1.28c0.35,0.39,0.71,0.77,1.08,1.15c0.36,0.31,0.73,0.62,1.11,0.91c0.38,0.25,0.76,0.49,1.14,0.73
	c0.5,0.25,1,0.48,1.51,0.7c0.42,0.14,0.84,0.27,1.27,0.39c0.64,0.12,1.28,0.23,1.93,0.33C592.68,632.35,593.11,632.37,593.54,632.38
	z"/>
<path class="st0" d="M876.77,519.26c-12.27-5.2-21.72-15.6-25.69-28.32c-4.11-13.17-1.72-27.89,6.15-39.18
	c4.93-7.07,12.03-12.77,20.07-16.07c0.58-0.28,1.17-0.51,1.78-0.69c2.61-0.94,5.3-1.64,8.04-2.04c0.04,0,0.08-0.01,0.12-0.02
	c0.26-0.04,0.52-0.07,0.79-0.1c0.75-0.1,1.5-0.18,2.25-0.26c4.55-0.5,9.28-0.08,13.73,0.88c11.8,2.55,22.57,10.16,28.79,20.53
	c6.16,10.27,8.37,22.75,5.37,34.43c-3.29,12.82-12.06,24.2-24.16,29.87c-6.29,2.95-13.1,4.47-19.9,4.47
	C888.22,522.76,882.33,521.61,876.77,519.26z M894.16,492.82c0.68-0.02,1.35-0.06,2.03-0.12c0.64-0.11,1.28-0.23,1.92-0.37
	c0.65-0.2,1.3-0.42,1.94-0.65c0.63-0.29,1.25-0.59,1.87-0.92c0.57-0.36,1.14-0.74,1.69-1.13c0.47-0.39,0.93-0.79,1.38-1.2
	c0.43-0.46,0.85-0.93,1.26-1.41c0.38-0.52,0.74-1.06,1.09-1.6c0.32-0.59,0.63-1.19,0.92-1.8c0.24-0.63,0.47-1.26,0.68-1.9
	c0.16-0.66,0.3-1.33,0.43-2c0.07-0.65,0.12-1.31,0.15-1.97c-0.02-0.69-0.06-1.38-0.12-2.08c-0.1-0.63-0.23-1.26-0.37-1.89
	c-0.21-0.67-0.43-1.34-0.68-2c-0.29-0.62-0.59-1.23-0.91-1.84c-0.33-0.52-0.67-1.03-1.02-1.53c-0.45-0.55-0.91-1.08-1.39-1.59
	c-0.45-0.42-0.91-0.83-1.38-1.23c-0.51-0.37-1.02-0.72-1.55-1.06c-0.59-0.32-1.18-0.62-1.79-0.91c-0.62-0.24-1.24-0.46-1.87-0.67
	c-0.67-0.16-1.34-0.31-2.02-0.43c-0.69-0.07-1.38-0.13-2.08-0.16c-0.65,0.02-1.3,0.06-1.94,0.11c-0.57,0.09-1.14,0.2-1.7,0.32
	c-0.69,0.21-1.38,0.45-2.06,0.7c-0.58,0.27-1.16,0.54-1.73,0.83c-0.59,0.37-1.17,0.75-1.74,1.14c-0.57,0.47-1.12,0.95-1.66,1.45
	c-0.35,0.38-0.7,0.77-1.04,1.17c-0.43,0.6-0.85,1.2-1.26,1.82c-0.29,0.55-0.57,1.1-0.84,1.65c-0.24,0.64-0.47,1.28-0.69,1.94
	c-0.15,0.65-0.29,1.31-0.41,1.97c-0.07,0.71-0.12,1.42-0.16,2.14c0.03,0.67,0.07,1.34,0.13,2.01c0.11,0.63,0.23,1.25,0.36,1.87
	c0.2,0.66,0.42,1.31,0.66,1.95c0.28,0.61,0.58,1.21,0.89,1.81c0.36,0.57,0.73,1.13,1.12,1.68c0.38,0.46,0.77,0.9,1.17,1.34
	c0.46,0.43,0.93,0.86,1.41,1.27c0.56,0.41,1.13,0.8,1.72,1.17c0.5,0.27,1,0.53,1.51,0.78c0.7,0.27,1.41,0.53,2.13,0.77
	c0.62,0.15,1.24,0.28,1.87,0.4C892.76,492.73,893.45,492.78,894.16,492.82z"/>
<path class="st0" d="M612.18,302.24c-8.95-8.03-14.7-19.49-15.29-31.55c-0.18-3.64,0.01-7.23,0.63-10.83
	c0.61-3.55,1.77-6.89,3.11-10.22c2.43-5.99,6.61-11.36,11.32-15.7c7.63-7.04,17.6-10.92,27.84-11.69c0.37-0.05,0.74-0.08,1.11-0.09
	c0.51-0.01,1.01-0.03,1.5-0.04c0.16,0,0.32-0.01,0.47-0.01c0.07,0,0.14,0,0.2,0c0.02,0,0.04,0,0.07,0
	c14.7-0.01,29.05,7.78,37.31,19.88c5.52,8.08,8.34,17.74,8.07,27.52c-0.3,10.64-4.58,21.39-11.83,29.2
	c-8.15,8.78-19.36,14.51-31.43,15.06c-0.74,0.03-1.48,0.05-2.23,0.05C631.73,313.81,620.66,309.86,612.18,302.24z M643.12,283.85
	c0.68-0.05,1.35-0.11,2.02-0.19c0.7-0.14,1.4-0.3,2.09-0.48c0.68-0.24,1.36-0.49,2.03-0.77c0.59-0.3,1.17-0.61,1.74-0.93
	c0.57-0.38,1.13-0.78,1.67-1.19c0.52-0.45,1.02-0.92,1.51-1.4c0.43-0.49,0.85-0.99,1.26-1.51c0.39-0.58,0.76-1.16,1.12-1.76
	c0.3-0.59,0.58-1.19,0.85-1.8c0.24-0.69,0.47-1.38,0.67-2.09c0.15-0.7,0.27-1.4,0.37-2.1c0.05-0.68,0.08-1.35,0.09-2.03
	c-0.04-0.7-0.11-1.4-0.19-2.1c-0.13-0.69-0.29-1.37-0.47-2.04c-0.23-0.68-0.49-1.35-0.76-2.01c-0.31-0.63-0.64-1.25-0.99-1.86
	c-0.4-0.6-0.83-1.2-1.27-1.77c-0.42-0.48-0.85-0.94-1.3-1.39c-0.49-0.43-0.99-0.85-1.51-1.26c-0.56-0.38-1.14-0.75-1.72-1.09
	c-0.61-0.31-1.24-0.61-1.87-0.88c-0.67-0.24-1.36-0.46-2.04-0.65c-0.68-0.14-1.37-0.27-2.06-0.37c-0.69-0.05-1.39-0.09-2.08-0.1
	c-0.62,0.04-1.23,0.1-1.85,0.17c-0.73,0.14-1.46,0.31-2.18,0.5c-0.66,0.22-1.31,0.46-1.95,0.72c-0.65,0.32-1.29,0.65-1.92,1
	c-0.6,0.4-1.19,0.82-1.77,1.25c-0.5,0.44-0.99,0.9-1.48,1.36c-0.43,0.49-0.85,1-1.27,1.51c-0.38,0.56-0.75,1.13-1.1,1.71
	c-0.32,0.64-0.62,1.28-0.91,1.94c-0.22,0.64-0.43,1.29-0.62,1.95c-0.13,0.63-0.25,1.27-0.35,1.91c-0.06,0.8-0.1,1.59-0.11,2.39
	c0.05,0.68,0.11,1.35,0.19,2.02c0.14,0.69,0.3,1.37,0.47,2.05c0.23,0.67,0.48,1.33,0.75,1.99c0.3,0.6,0.61,1.19,0.94,1.77
	c0.39,0.59,0.8,1.16,1.23,1.73c0.43,0.48,0.86,0.95,1.31,1.42c0.52,0.46,1.05,0.9,1.59,1.33c0.56,0.38,1.14,0.75,1.72,1.1
	c0.57,0.28,1.14,0.56,1.72,0.81c0.69,0.24,1.38,0.47,2.08,0.67c0.68,0.14,1.37,0.27,2.06,0.37
	C641.62,283.81,642.37,283.84,643.12,283.85z"/>
<path class="st0" d="M230.55,811.21c-10.43-5-19.05-13.68-24.12-24.05c-2.88-5.88-4.66-12.28-5.2-18.8
	c-0.55-6.62,0.26-13.19,2.09-19.56c2.44-8.47,7.32-16.27,13.73-22.47c0.24-0.26,0.5-0.51,0.76-0.76c1.19-1.09,2.43-2.14,3.71-3.12
	c4.22-3.27,8.92-5.9,13.9-7.68c5.05-1.87,10.39-2.96,15.78-3.12c8.14-0.24,15.93,1.2,23.45,4.38c7.1,3.01,13.79,7.96,18.7,13.91
	c3.93,4.77,7.09,9.96,9.3,15.75c2.18,5.73,3.16,11.82,3.29,17.93c0.26,12.14-4.2,23.97-11.68,33.43
	c-7.37,9.34-18.36,15.93-29.98,18.33c-3.53,0.73-7.1,1.09-10.67,1.09C245.67,816.47,237.78,814.68,230.55,811.21z M254.15,786.5
	c0.97-0.06,1.93-0.15,2.89-0.27c0.99-0.19,1.96-0.42,2.93-0.68c0.96-0.33,1.91-0.68,2.85-1.07c0.87-0.43,1.72-0.89,2.57-1.37
	c0.81-0.54,1.6-1.11,2.37-1.7c0.7-0.61,1.37-1.25,2.03-1.9c0.65-0.74,1.28-1.49,1.88-2.26c0.55-0.82,1.08-1.66,1.58-2.51
	c0.44-0.88,0.85-1.76,1.23-2.67c0.31-0.9,0.6-1.81,0.85-2.73c0.2-0.96,0.37-1.93,0.51-2.9c0.08-1,0.12-1.99,0.12-2.99
	c-0.06-1.01-0.16-2.02-0.3-3.03c-0.19-0.98-0.42-1.96-0.68-2.93c-0.32-0.94-0.67-1.86-1.05-2.77c-0.44-0.89-0.91-1.77-1.42-2.63
	c-0.54-0.8-1.1-1.59-1.69-2.35c-0.62-0.72-1.27-1.41-1.95-2.08c-0.71-0.62-1.43-1.23-2.18-1.8c-0.81-0.55-1.63-1.07-2.47-1.56
	c-0.82-0.42-1.66-0.81-2.51-1.17c-0.96-0.34-1.92-0.65-2.9-0.92c-0.99-0.21-1.98-0.39-2.98-0.53c-0.97-0.08-1.93-0.11-2.9-0.12
	c-1.03,0.06-2.05,0.16-3.08,0.29c-0.99,0.19-1.96,0.42-2.93,0.69c-0.92,0.31-1.82,0.65-2.71,1.02c-0.84,0.42-1.66,0.87-2.47,1.34
	c-0.86,0.58-1.7,1.18-2.52,1.81c-0.67,0.59-1.32,1.19-1.96,1.81c-0.7,0.79-1.38,1.61-2.03,2.44c-0.53,0.79-1.03,1.6-1.52,2.42
	c-0.42,0.85-0.82,1.7-1.19,2.57c-0.33,0.95-0.62,1.9-0.89,2.86c-0.19,0.92-0.35,1.85-0.49,2.78c-0.08,0.98-0.12,1.95-0.13,2.93
	c0.06,1.05,0.15,2.09,0.29,3.13c0.2,1,0.43,1.98,0.7,2.96c0.33,0.97,0.7,1.92,1.09,2.86c0.42,0.83,0.86,1.65,1.33,2.46
	c0.56,0.83,1.14,1.64,1.75,2.43c0.62,0.71,1.27,1.39,1.94,2.06c0.71,0.63,1.43,1.22,2.18,1.8c0.79,0.53,1.59,1.04,2.41,1.52
	c0.85,0.43,1.7,0.83,2.58,1.2c0.95,0.34,1.9,0.64,2.87,0.91c0.95,0.2,1.89,0.37,2.85,0.5C252.06,786.45,253.1,786.5,254.15,786.5z"
	/>
<path class="st0" d="M402.58,941.05c-6.14-3.81-11.06-9.46-13.84-16.15c-2.88-6.9-3.35-14.5-1.62-21.74
	c2.23-9.3,8.68-17.49,17.09-22.02c0.6-0.32,1.21-0.61,1.84-0.86c-0.01-0.02-0.02-0.03-0.02-0.05c4.71-2.32,10.32-3.44,15.57-3.21
	c10.32,0.46,19.96,5.17,26.37,13.37c5.61,7.19,7.95,16.32,6.98,25.34c-0.51,4.77-2.2,9.46-4.64,13.57
	c-2.87,4.83-6.86,8.64-11.53,11.69c-5.3,3.46-11.61,5.14-17.93,5.14C414.42,946.13,407.99,944.4,402.58,941.05z M420.88,916.13
	c0.22-0.03,0.44-0.06,0.66-0.09c0.2-0.05,0.41-0.11,0.61-0.17c0.19-0.08,0.38-0.16,0.58-0.24c0.17-0.1,0.34-0.2,0.5-0.3
	c0.14-0.11,0.28-0.21,0.42-0.32c0.12-0.12,0.24-0.24,0.37-0.37c0.14-0.18,0.28-0.35,0.41-0.53c0.1-0.16,0.19-0.33,0.29-0.49
	c0.08-0.18,0.16-0.36,0.23-0.54c0.05-0.19,0.11-0.38,0.16-0.57c0.03-0.21,0.06-0.43,0.09-0.64c0-0.2,0-0.39,0-0.59
	c-0.03-0.22-0.06-0.43-0.09-0.64c-0.05-0.19-0.1-0.38-0.15-0.56c-0.08-0.19-0.16-0.37-0.24-0.56c-0.1-0.17-0.2-0.34-0.3-0.51
	c-0.1-0.14-0.21-0.27-0.31-0.41c-0.13-0.14-0.27-0.27-0.41-0.41c-0.16-0.13-0.33-0.26-0.49-0.38c-0.18-0.11-0.37-0.22-0.56-0.33
	c-0.18-0.08-0.37-0.16-0.55-0.23c-0.17-0.05-0.35-0.1-0.52-0.14c-0.23-0.04-0.47-0.07-0.7-0.09c-0.2,0-0.4,0-0.6,0
	c-0.19,0.02-0.38,0.05-0.58,0.08c-0.19,0.05-0.39,0.1-0.58,0.16c-0.14,0.06-0.28,0.12-0.42,0.18c-0.17,0.1-0.33,0.2-0.5,0.3
	c-0.23,0.17-0.45,0.34-0.68,0.51c-0.1,0.09-0.19,0.19-0.29,0.28c-0.11,0.14-0.22,0.28-0.32,0.42c-0.1,0.17-0.2,0.34-0.3,0.51
	c-0.1,0.22-0.19,0.44-0.28,0.66c-0.06,0.21-0.12,0.43-0.17,0.64c-0.03,0.19-0.05,0.37-0.07,0.56c0,0.2,0,0.39,0,0.59
	c0.03,0.2,0.05,0.4,0.08,0.6c0.05,0.2,0.11,0.39,0.16,0.59c0.08,0.19,0.16,0.38,0.24,0.57c0.09,0.17,0.19,0.33,0.29,0.5
	c0.11,0.15,0.22,0.29,0.34,0.43c0.14,0.14,0.28,0.29,0.43,0.43c0.16,0.12,0.32,0.25,0.48,0.37c0.16,0.1,0.32,0.19,0.48,0.28
	c0.18,0.08,0.36,0.15,0.53,0.23c0.2,0.06,0.4,0.11,0.6,0.17c0.21,0.03,0.42,0.06,0.63,0.09
	C420.53,916.14,420.71,916.14,420.88,916.13z"/>
</svg>
