<?xml version="1.0" encoding="utf-8"?>
<!-- Generator: Adobe Adobe Illustrator 24.2.0, SVG Export Plug-In . SVG Version: 6.00 Build 0)  -->
<svg version="1.1" id="Capa_de_vector_1_" xmlns="http://www.w3.org/2000/svg" xmlns:xlink="http://www.w3.org/1999/xlink" x="0px"
	 y="0px" viewBox="0 0 1000 1000" style="enable-background:new 0 0 1000 1000;" xml:space="preserve">
<style type="text/css">
	.st0{fill:#A46460;}
</style>
<path class="st0" d="M746.34,393.67c-8.21-0.96-13.97-8.54-13.13-16.66c0.33-3.17,0.77-6.3,0.98-9.49
	c0.14-4.11,0.06-8.21-0.25-12.31c-0.43-4.36-1.1-8.69-2-12.98c-0.96-4.11-2.13-8.18-3.55-12.16c-1.4-3.65-2.97-7.22-4.74-10.71
	c-1.56-2.85-3.25-5.62-5.07-8.31c-1.58-2.17-3.25-4.26-5.02-6.27c-1.5-1.58-3.06-3.08-4.68-4.52c-1.35-1.08-2.72-2.11-4.14-3.09
	c-1.25-0.77-2.52-1.49-3.82-2.16c-1.22-0.55-2.46-1.05-3.72-1.5c-1.14-0.34-2.3-0.65-3.47-0.88c-3.72-0.72-7.16-3.57-9.09-6.73
	c-2.09-3.43-2.71-7.64-1.72-11.53c0.96-3.76,3.42-7.06,6.73-9.09c3.57-2.18,7.5-2.5,11.53-1.72c3.83,0.74,7.66,2.05,11.19,3.71
	c5.97,2.82,11.39,6.31,16.42,10.6c8.19,6.99,14.94,15.77,20.12,25.18c2.54,4.62,4.82,9.37,6.71,14.29c0.2,0.5,0.38,1.01,0.57,1.52
	c0,0,0,0,0,0.01c0.13,0.3,0.26,0.61,0.37,0.92c0.77,1.89,1.36,3.89,1.96,5.8c0.68,2.2,1.3,4.42,1.86,6.66
	c1.25,5.02,2.23,10.11,2.88,15.24c0.75,5.97,1.09,12.01,0.98,18.03c-0.06,3.23-0.25,6.48-0.56,9.7c-0.1,1.08-0.26,2.15-0.41,3.22
	c-0.02,0.38-0.06,0.76-0.12,1.14c-0.05,0.32-0.09,0.64-0.14,0.96c-0.63,3.92-2.38,7.42-5.52,9.94c-2.67,2.14-6.01,3.29-9.41,3.29
	C747.51,393.77,746.92,393.73,746.34,393.67z"/>
<path class="st0" d="M810.41,380.51c-7.85-1.25-14.02-9.18-12.44-17.19c0.24-1.21,0.43-2.44,0.58-3.67c0.1-1.4,0.13-2.81,0.12-4.22
	c-0.08-1.45-0.22-2.9-0.42-4.34c-0.31-1.64-0.68-3.25-1.12-4.86c-0.56-1.73-1.19-3.43-1.89-5.12c-0.92-1.97-1.93-3.89-3.03-5.78
	c-1.44-2.28-3-4.47-4.66-6.6c-2.08-2.49-4.29-4.86-6.62-7.11c-2.92-2.67-5.98-5.16-9.17-7.5c-3.77-2.62-7.68-5.01-11.71-7.2
	c-4.61-2.38-9.35-4.48-14.2-6.33c-5.26-1.89-10.62-3.48-16.06-4.77c-5.52-1.2-11.08-2.1-16.69-2.69
	c-5.54-0.47-11.08-0.65-16.63-0.51c-0.45,0.02-0.91,0.04-1.36,0.06c-4.02,0.22-7.83-0.75-10.98-3.34
	c-3.06-2.51-5.02-6.19-5.41-10.13c-0.77-7.87,5.3-15.94,13.47-16.39c19.52-1.06,39.17,1.5,57.79,7.48
	c20.3,6.52,39.42,17.29,54.51,32.45c14.99,15.07,25.41,35.84,24.08,57.48c-0.16,2.62-0.45,5.25-0.96,7.82
	c-0.79,3.99-2.8,7.51-6.17,9.89c-2.53,1.79-5.6,2.73-8.68,2.73C811.97,380.69,811.19,380.63,810.41,380.51z"/>
<path class="st0" d="M699.74,347.43c-6.89-4.46-8.87-13.85-4.47-20.74c0,0,0,0,0-0.01c0.01-0.02,0.03-0.04,0.04-0.06
	c9.23-14.47,18.48-28.93,27.72-43.39c11.05-17.3,22.11-34.6,33.16-51.89c11.28-17.66,22.57-35.32,33.85-52.98
	c11.59-18.14,23.18-36.29,34.77-54.43c10.35-16.19,20.75-32.36,31.04-48.58c0.02-0.04,0.04-0.07,0.07-0.11
	c4.4-6.88,13.89-8.89,20.74-4.47c6.9,4.46,8.85,13.84,4.47,20.74c-0.02,0.04-0.05,0.07-0.07,0.11c0,0,0,0,0,0.01
	c-0.06,0.1-0.12,0.2-0.19,0.29c-10.96,17.26-22.02,34.46-33.03,51.69c-11.5,17.99-23,35.99-34.5,53.99
	c-11.39,17.83-22.79,35.66-34.18,53.5c-10.92,17.08-21.83,34.17-32.75,51.25c-8.65,13.53-17.3,27.06-25.94,40.59
	c-2.84,4.4-7.74,6.82-12.7,6.82C705,349.78,702.21,349.02,699.74,347.43z"/>
<path class="st0" d="M704.78,352.8c-3.98-0.35-7.71-2.32-10.26-5.41c-2.49-3.02-3.7-6.96-3.36-10.86c0.17-1.93,0.72-3.83,1.61-5.56
	c0.9-1.74,2.1-3.07,2.33-3.31c0.41-0.39,0.82-0.77,0.96-0.91c13.6-12.87,27.21-25.73,40.82-38.59
	c15.23-14.39,30.45-28.78,45.67-43.18c4.62-4.37,9.24-8.73,13.52-12.78c15.51-14.67,31.02-29.33,46.54-44
	c15.04-14.21,30.07-28.43,45.11-42.64c6.87-6.49,13.73-12.98,19.12-18.07c0.95-0.9,1.9-1.8,2.7-2.55c0.06-0.05,0.12-0.11,0.17-0.16
	c0.37-0.39,0.75-0.75,1.16-1.09c3.77-3.56,7.53-7.12,11.3-10.68c0,0,0.01-0.01,0.01-0.01c0.49-0.46,1-0.94,1.49-1.41
	c2.3-2.17,5.84-3.29,8.94-3.41c3.96-0.16,7.87,1.29,10.77,3.97c2.91,2.68,4.65,6.47,4.81,10.43c0.15,3.76-1.18,8.12-3.97,10.77
	c0,0-0.01,0.01-0.01,0.01l0,0c0,0,0,0,0,0c-0.13,0.13-0.27,0.25-0.4,0.37c-4.45,4.21-8.91,8.42-13.36,12.63l-1.53,1.45
	c-15.71,14.87-31.44,29.72-47.16,44.59c-15.32,14.48-30.64,28.96-45.95,43.44c-6.76,6.39-13.52,12.77-19.83,18.75
	c-3.87,3.66-7.74,7.32-11.61,10.97c-0.61,0.57-1.21,1.15-1.82,1.72c-0.01,0.01-0.02,0.02-0.03,0.03c-0.04,0.03-0.07,0.07-0.11,0.1
	c-0.57,0.54-1.15,1.09-1.72,1.63c-0.87,0.82-1.74,1.64-2.61,2.46c-2.04,1.93-4.07,3.85-6.11,5.77c-3.74,3.54-7.48,7.07-11.22,10.61
	c-14.96,14.15-29.94,28.3-44.91,42.45c-5.92,5.6-11.85,11.2-17.67,16.7c-0.12,0.12-0.25,0.24-0.37,0.35
	c-0.37,0.35-0.74,0.7-0.97,0.92c-0.21,0.2-0.42,0.39-0.62,0.59c-0.19,0.18-0.38,0.36-0.57,0.53c-2.44,2.31-6.16,3.42-9.54,3.42
	C705.65,352.86,705.21,352.84,704.78,352.8z"/>
<path class="st0" d="M701.66,472.27c-43.04-11.38-71.15-49.07-101.7-78.75c-55.92-48.96-133.39-71.36-206.98-65.4
	c-22.79,2.86-45.55,8-66.15,18.42c-18.54,8.89-37.07,18.09-52.74,31.63c-15.13,13.25-28.88,27.96-41.33,43.73
	c-8.04,9.46-15.71,19.15-21.07,30.33c-8.37,11.23-27.67,4.23-26.84-9.8c0.33-6.89,4.65-12.61,8.25-18.2
	c9.79-14.11,21.13-27.12,32.24-40.19c14.97-16.04,30.71-31.75,49.29-43.61c19.12-11.95,39.74-21.58,60.56-30.2
	c65.54-22.24,137.74-14.41,201.55,10.04c30.99,12.54,59.94,29.97,84.79,52.41c23.41,23.01,44.43,49.36,73.56,65.49
	c4.63,2.28,9.56,3.83,14.54,5.17C728.35,448.94,720.85,477.09,701.66,472.27z"/>
<path class="st0" d="M385.95,578.84c-2.62-0.11-5.23-0.25-7.84-0.4c-0.26-0.01-0.53-0.03-0.79-0.04c-0.03,0-0.06,0-0.08,0
	c-0.89,0.02-1.78-0.03-2.66-0.15c-0.98-0.05-1.96-0.14-2.94-0.2c-1.31-0.09-2.63-0.19-3.94-0.28c-5.07-0.38-10.14-0.84-15.19-1.39
	c-10.31-1.12-20.58-2.55-30.8-4.33c-21.11-3.68-41.88-8.9-62.12-15.96c-18.72-6.53-37-14.9-53.65-25.71
	c-1.79-1.16-3.57-2.36-5.33-3.56c-0.09-0.06-0.19-0.13-0.28-0.19c-0.08-0.06-0.17-0.11-0.25-0.17c-6.54-4.91-7.7-14.6-2.77-21.03
	c2.41-3.14,6.02-5.23,9.94-5.74c4.08-0.54,7.75,0.69,11.09,2.97c0.63,0.43,1.26,0.86,1.9,1.29c7.17,4.7,14.66,8.88,22.34,12.69
	c10.52,5.02,21.34,9.32,32.39,13.05c14.78,4.81,29.85,8.62,45.11,11.61c19.16,3.59,38.52,5.91,56.51,7.07c0.51,0.03,1,0.06,1.5,0.09
	c0.06,0,0.11,0,0.17,0l0,0c0.96,0.03,1.93,0.11,2.89,0.16c1.36,0.07,2.72,0.14,4.08,0.2c2.61,0.12,5.21,0.21,7.82,0.29
	c10.28,0.31,20.58,0.33,30.86,0.02c6.86-0.2,13.71-0.52,20.56-0.97c20.38-1.45,40.69-3.94,60.78-7.71c1.14-0.21,2.28-0.43,3.42-0.65
	c19.04-3.81,37.84-8.65,56.29-14.73c14.16-4.82,28.04-10.36,41.54-16.8c10.22-5.02,20.16-10.56,29.62-16.69
	c6.99-4.68,13.71-9.69,20.12-15.14c4.69-4.15,9.14-8.51,13.35-13.15c3.37-3.91,6.54-7.97,9.43-12.25c2.16-3.2,6.2-5.25,9.94-5.74
	c3.92-0.52,7.95,0.56,11.09,2.97c3.14,2.41,5.23,6.02,5.74,9.94c0.25,1.91,0.13,3.87-0.35,5.74c-0.52,2.02-1.48,3.64-2.62,5.35
	c-11.39,16.85-26.8,31.01-43.39,42.64c-17.53,12.29-36.49,22.38-56.2,30.7c-19.39,8.19-39.49,14.82-59.89,20.04
	c-20.86,5.33-42.05,9.34-63.4,12.11c-20.66,2.68-41.54,4.19-62.37,4.49c-2.78,0.04-5.56,0.06-8.34,0.06
	C401.47,579.32,393.71,579.17,385.95,578.84z"/>
<path class="st0" d="M139.08,244.68c-9.61-7.36-6.24-22.58,4.62-26.87c7.72-3.5,15.49-6.88,23.25-10.31
	c19.73-7.01,39.28-14.5,58.91-21.79c61.76-22.51,125.4-39.95,190-52.06c18.88-2.37,37.5-6.92,56.58-7.53
	c58.09,3.06,112.49,28.29,161.37,58.4c9.99,5.96,20.01,11.94,29.27,19.02c6.46,5.01,7.5,14.7,2.47,21.07
	c-7.66,9.4-18.8,5.52-26.5-1.51c-7.61-5.13-15.56-9.7-23.39-14.48c-23.72-14.74-48.81-27.27-74.69-37.72
	c-47.99-14.43-63.91-19.06-113.63-8.45c-51.15,7.98-101.22,22.34-150.77,37.2c-29.46,10.01-58.48,21.26-87.75,31.76
	c-9.9,3.26-19.24,7.78-28.79,11.91C153.86,247.81,145.61,250.06,139.08,244.68z"/>
<path class="st0" d="M170.64,303.05c-17.41-5.55-13.02-29.46,4.98-30.01c23.48-9.15,48.24-19.49,72.16-26.85
	c51.76-16.14,102.34-36.49,155.32-48.51c24.84-7.19,50.15-12.17,75.78-15.45c51.36-2.84,100.94,7.2,151.11,15.27
	c9.41,1.66,18.91,2.82,28.12,5.48c18.7,5.7,11.26,33.72-7.97,28.93c-44.64-8.82-90.47-16.61-135.79-19.72
	c-32.33-2.44-64.57,3.81-95.62,12.43c-52.14,11.71-102.14,30.83-152.89,47.21c-19.44,5.93-38.48,13.09-57.44,20.38
	C196.16,296.29,183.96,305.12,170.64,303.05z"/>
<path class="st0" d="M150.31,307.1c-14.29-1.57-26.12-11.16-34.12-22.63c-13.79-21.42-4.52-48.55,16.48-61.27
	c2.92-1.72,6.09-2.94,9.09-4.51c7.25-3.79,16.59,0.06,19.95,7.22c3.59,7.31,0.09,16.54-7.22,19.95c-2.38,1.3-5.02,2.12-7.27,3.64
	c-11.09,8.39-9.26,19.02,1.9,26.16c5.88,3.96,21.7-1.05,28.34-3.22c18.14-7.78,30.35,18.22,12.72,27.17
	C177.63,304.49,163.84,307.67,150.31,307.1z"/>
<path class="st0" d="M227.16,606.01c-7.09-15.96,6.79-17.63,12.51-28.7c3.62-6.51,5.41-13.81,7.19-20.99
	c0.36-3.11-0.03-6.39,1.5-9.3c1.38-3.1,3.69-5.39,6.57-7.11c13.14-7.08,25.68,6.48,21.82,19.75c-1.72,8.64-4.06,17.19-7.51,25.3
	C263.63,600.4,241.77,626.99,227.16,606.01z"/>
<path class="st0" d="M274.72,635.27c-16.46-15,8.77-28.92,11.37-44.17c2.73-10.02-0.77-21.39,4.73-30.63
	c9.86-15.25,33.16-3.46,26.74,13.45c-0.06,11.23-0.82,22.69-5.23,33.17c-3.86,9.5-10.25,17.96-16.5,25.99
	C290.8,639.53,280.95,640.34,274.72,635.27z"/>
<path class="st0" d="M338.91,664.31c-9.26-8.24-5.04-16.8,0.13-25.73c6.63-17.57,8.24-37.17,2.76-55.1
	c-10.35-27.7,25.55-36.44,28.27-10.81c3.83,14.76,6.32,30.01,4.62,45.27C371.88,634.98,364.71,680.1,338.91,664.31z"/>
<path class="st0" d="M406.48,678.03c-11.61-5.55-9.65-17.2-4.82-26.87c6.22-17.76,8.79-36.93,3.5-55.26
	c-12.23-33.25,27.36-38.88,27.85-12.75c4.27,17.07,7.07,34.82,3.52,52.28c-1.77,11.34-5.16,22.41-9.44,33.03
	C424.57,677.07,414.57,681.7,406.48,678.03z"/>
<path class="st0" d="M485.39,688.6c-10.95-0.45-16.69-11.7-21.95-19.85c-15.3-29.99-15.08-66.49-7.12-98.61
	c5.92-18.74,33.83-10.71,28.81,8.35c-2.35,7.99-3.08,16.3-3.84,24.56c-0.42,20.56,0.17,44.44,15.17,60.21
	C505.71,672.17,498.19,689.25,485.39,688.6z"/>
<path class="st0" d="M534.7,661.34c-23.6-20.5-35.69-52.34-37.94-83.01c-0.31-7.38,1.2-16.11,7.62-20.68
	c6.66-4.73,16.1-3.41,20.96,3.26c3.26,4.46,3.66,10.4,1.46,15.22c-0.09,5.64,1.04,11.3,2.22,16.8c3.67,13.59,8.59,26.49,17.15,37.36
	c4.37,5.86,12.13,9.72,12.89,17.64C561.04,660.77,544.5,669.94,534.7,661.34z"/>
<path class="st0" d="M598.26,642.04c-19.54-7.05-35.2-21.49-46.79-38.43c-7.07-11.02-14.01-22.86-16.26-35.91
	c-1.82-19.95,27.64-22.9,29.87-2.96c7.92,21.43,23.12,42.13,45.37,49.89C628.28,622.86,616.53,649.67,598.26,642.04z"/>
<path class="st0" d="M642.35,603.76c-25.51-5.19-54.47-20.12-59.19-48.17c-1.87-7.63-2.64-16.89,4.71-21.93
	c9.13-7.17,23.67-0.03,23.9,11.43c0.29,10.4,7.31,17.99,16.41,22.17c12.55,7.03,26.51,8.92,40.43,5.18
	c18.42-6.69,28.92,20.56,10.84,27.97C667.57,604.1,654.69,605.17,642.35,603.76z"/>
<path class="st0" d="M528.12,927.16c-78.78-0.58-158.06-4.95-234.41-25.8c-42.22-11.16-84.15-25.16-121.99-47.29
	c-38.03-23.57-67.61-59.02-89.04-97.94c-5.45-9.67-7.81-20.57-10.88-31.13c-6.04-16.74-10.65-34.06-12.57-51.79
	c-1.64-39.85-0.62-85.09,25.45-117.57c30.5-30.55,76.26-38.01,117.74-39.79c6.94,0.12,13.89,0.07,20.84-0.02
	c19.69,0.86,19.3,29.77-0.39,30c-27.73-0.3-55.92,1.02-82.25,10.5c-19.45,5.87-38.43,18.08-43.82,38.76
	c-6.21,17.16-8.03,35.51-7.97,53.66c-1.68,24.22,4.39,47.77,12.52,70.37c2.82,11.55,6.63,22.69,13.51,32.52
	c6.6,11.1,13.66,21.93,21.99,31.83c33.94,41.36,71.23,58.77,120.27,75.99c-0.49-0.18-0.99-0.36-1.48-0.54
	c-0.11-0.04-0.22-0.08-0.33-0.12c72.9,24.03,149.61,36.7,226.37,37.23c26.01,0.31,52.02,1.9,78.03,1.22
	c25.05-1.93,50.16-3.33,75.17-5.69c56.93-6.97,114.82-19.04,164.87-48.19c14.97-10.15,28.41-22.54,41.38-35.09
	c11.99-13.58,22.96-28.07,34.33-42.17c17.26-25.82,25.94-56.65,27.7-87.49c2.82-29.66,1.42-59.78-8.36-88.15
	c-9.96-31.14-32.84-57.83-61.05-74.09c-8.79-4.8-18.53-7.37-28.25-9.54c-31.24-7.97-63.41-7.36-95.25-4.1
	c-10.03,0.81-20.03,1.4-29.96,3.11c-7.89,2.45-16.8,4.05-22.43-3.88c-4.77-6.54-3.4-16.21,3.26-20.96
	c8.31-5.17,18.77-5.26,28.21-6.69c17.36-1.47,34.73-2.66,52.12-3.75c17.05-0.76,34.22,0.1,51.03,3.13
	c17.69,3.38,35.88,6.49,52.12,14.6c30.97,15.78,55.3,42.8,71.22,73.4c14.18,32.7,20.98,68.91,18.08,104.51
	c-1.12,32.51-6.28,65.04-20.91,94.32c-7.12,15.7-17.35,29.47-28.64,42.38c-18.99,25.67-43.45,49.21-70.24,66.83
	c-55.15,31.85-118.8,45.16-181.5,52.28C597.79,924.18,563.02,928.7,528.12,927.16z"/>
</svg>
