<?xml version="1.0" encoding="utf-8"?>
<!-- Generator: Adobe Adobe Illustrator 24.2.0, SVG Export Plug-In . SVG Version: 6.00 Build 0)  -->
<svg version="1.1" id="Capa_de_vector_1_" xmlns="http://www.w3.org/2000/svg" xmlns:xlink="http://www.w3.org/1999/xlink" x="0px"
	 y="0px" viewBox="0 0 1000 1000" style="enable-background:new 0 0 1000 1000;" xml:space="preserve">
<style type="text/css">
	.st0{fill:#A46460;}
</style>
<path class="st0" d="M736.14,851.76c0.05-0.04,0.09-0.07,0.14-0.11c0.13,0.07,0.25,0.14,0.38,0.21
	C736.48,851.82,736.31,851.79,736.14,851.76z"/>
<path class="st0" d="M548.57,944.1c-8.82-0.27-17.61-0.8-26.39-1.67c-8.73-0.86-17.41-2.19-26.05-3.69
	c-33.67-5.84-66.3-16.86-97.28-31.16c-29.82-13.76-57.96-31.12-84.2-50.83c-27.27-20.48-52.4-43.79-75.34-69
	c-22.81-25.08-43.42-52.11-61.79-80.6c-18.05-28-33.85-57.45-47.48-87.84c-13.37-29.82-24.45-60.71-33.3-92.18
	c-8.92-31.71-15.43-64.1-19.5-96.79c-4.24-34.13-5.61-68.56-4.1-102.92c1.48-33.91,5.95-67.87,13.9-100.88
	c4.16-17.29,9.2-34.32,15.08-51.1c5.78-16.51,12.77-32.6,20.46-48.3c3.55-7.25,7.38-14.38,11.38-21.4
	c4.04-7.11,13.05-9.98,20.34-6.02c7.07,3.85,10.06,13.23,6.02,20.34c-5.68,9.98-10.91,20.19-15.78,30.59
	c-8.11,17.86-14.98,36.18-20.8,54.9c-5.95,20.01-10.62,40.3-14.16,60.88c-3.67,22.89-5.9,45.91-6.79,69.08
	c-0.73,25.31,0.13,50.59,2.49,75.8c2.62,25.86,6.81,51.5,12.48,76.86c6.2,26.82,14.02,53.2,23.45,79.06
	c9.29,25,20.05,49.39,32.23,73.11c12.45,23.81,26.3,46.82,41.58,68.93c14.48,20.6,30.14,40.3,47.04,58.97
	c15.54,16.91,32.05,32.84,49.54,47.74c16.59,13.87,33.98,26.71,52.21,38.35c16.03,10.04,32.61,19.09,49.76,27.06
	c15.43,6.98,31.23,13.04,47.39,18.07c14.92,4.46,30.05,8.02,45.4,10.62c13.42,2.1,26.91,3.44,40.48,3.99
	c12.55,0.34,25.08-0.01,37.59-1.09c-0.01,0.21-0.02,0.43-0.03,0.64c-0.03,0.86,0.24,1.73,0.47,2.54c0.18,0.63,0.44,1.3,0.72,1.89
	c0.59,1.28,1.24,2.54,2,3.73c1.65,2.6,3.5,5.08,5.46,7.46c2.13,2.58,4.38,5.02,6.64,7.48c0.36,0.4,0.73,0.79,1.1,1.19
	c0.18,0.2,0.35,0.38,0.52,0.57c0.46,0.59,1.03,1.11,1.54,1.66c0.17,0.18,0.33,0.36,0.5,0.52c0.08,0.07,0.15,0.15,0.23,0.22
	c-1.72,0.25-3.44,0.48-5.16,0.69c-13.49,1.7-27.11,2.63-40.71,2.63C554.65,944.24,551.61,944.19,548.57,944.1z"/>
<path class="st0" d="M645.23,583.11c0.04,0.03,0.08,0.05,0.12,0.08C645.3,583.16,645.27,583.13,645.23,583.11z"/>
<path class="st0" d="M630.82,606.31c-16.46-5.25-32.77-10.98-48.86-17.27c-18.65-7.28-37.02-15.25-55.07-23.89
	c-18.12-8.68-35.94-18-53.38-27.98c-18.09-10.36-35.74-21.47-52.95-33.23c-16.83-11.5-33.24-23.62-49.09-36.44
	c-16.29-13.18-32.06-27.01-47.2-41.49c-14.44-13.82-28.29-28.25-41.49-43.26c-13.83-15.73-27-32.05-39.27-49.03
	c-12.01-16.62-23.29-33.8-33.6-51.53c-10.11-17.37-19.31-35.26-27.57-53.59c-7.89-17.5-14.75-35.43-20.7-53.68
	c-5.83-17.86-10.59-36.05-14.27-54.47c-1.83-9.12-3.41-18.3-4.71-27.52c-1.14-8.1,4.84-15.77,12.89-16.84
	c8.15-1.09,15.71,4.81,16.84,12.9c1.17,8.29,2.55,16.55,4.16,24.77c3.66,18.07,8.35,35.93,14.07,53.46c0.33,1,0.65,1.99,0.98,2.98
	c5.86,17.32,12.62,34.33,20.26,50.94c1.33,2.88,2.67,5.73,4.04,8.59c8.49,17.44,17.86,34.43,28.06,50.94
	c2.51,4.05,5.07,8.07,7.67,12.07c11.01,16.71,22.8,32.88,35.32,48.49c4.49,5.59,9.09,11.1,13.76,16.55
	c13.02,15.03,26.66,29.52,40.93,43.36c7.32,7.09,14.78,14.04,22.38,20.83c15.14,13.39,30.81,26.17,46.96,38.31
	c10.19,7.65,20.59,15.01,31.14,22.15c16.48,11.02,33.36,21.45,50.63,31.21c12.65,7.15,25.5,13.94,38.52,20.39
	c17.49,8.58,35.27,16.55,53.33,23.82c8.96,3.61,17.99,7.07,27.07,10.35c4.31,1.56,8.64,3.08,12.97,4.57c1.03,0.35,2.07,0.7,3.1,1.05
	c0.17,0.06,0.34,0.11,0.5,0.17c0.11,0.04,0.22,0.07,0.32,0.11c1.45,0.48,2.9,0.96,4.36,1.44c0.05,0.02,0.09,0.03,0.14,0.04
	c2.36,1.48,4.81,2.82,7.17,4.29c1.72,1.12,3.43,2.26,5.14,3.39c0.82,0.56,1.66,1.15,2.53,1.67c1.68,3.27,2.12,7.12,1.19,10.69
	c-1.02,3.88-3.61,7.26-7.11,9.24c-2.2,1.25-4.91,2.01-7.55,2.01C633.23,606.85,631.99,606.68,630.82,606.31z"/>
<path class="st0" d="M132.87,143.72c-9.32-4.35-10.35-14.32-6.38-22.87c2.74-8.72,7-16.81,9.86-25.47
	c3.02-7.05,5.84-14.81,12.24-19.54c6.64-4.77,16.14-3.29,20.95,3.35c5.06,6.84,2.68,15.3-2.62,21.02c-2.04,4.41-3.69,8.96-5.3,13.55
	c-3.56,7.28-6.05,14.99-8.86,22.58C149.71,143.77,140.03,147.17,132.87,143.72z"/>
<path class="st0" d="M450.64,597.85c-1.69-37.59-11.91-56.48-32.35-86.98c-7.28-10.02-13.74-21.55-0.75-30.35
	c15.28-7.5,21.2,6.83,28.04,17.44c15.1,21.9,28.01,45.62,32.28,72.19c1.39,7.91,1.65,16.02,2.56,24
	C482.18,613.79,453.72,617.42,450.64,597.85z"/>
<path class="st0" d="M607.88,689.23c-9.54-3.8-9-13.17-10.47-21.57c-2.44-14.51-2.99-29.4-8.12-43.33
	c-4.25-11.06-10.61-21.35-17.84-30.71c-3.18-3.71-7.28-6.63-9.79-10.89c-9.06-16.43,13.98-31.27,25.18-16.24
	c12.37,11.48,20.9,26.42,28.22,41.46c7.78,17.32,9.26,36.33,11.93,54.88c1,5.84,2.98,12.57,0.47,18.23
	C624.45,688.54,615.32,692.47,607.88,689.23z"/>
<path class="st0" d="M337.78,842.87c-18.8-2.63-36.81-9.42-53.52-18.29c-16.84-10.26-2.74-35.25,14.82-26.09
	c8.06,4.47,16.77,7.76,25.45,10.81c24.09,7.16,49.91,7.72,74.21,1.3c19.52-2.55,24.09,26.03,4.55,29.66
	C381.87,845.71,359.57,846.51,337.78,842.87z"/>
<path class="st0" d="M222.49,608.95c-22.31-2.38-43.89-8.46-63.54-19.44c-15.68-8.19-31.6-16.58-44.92-28.36
	c-14.27-14.69,7.88-35.65,21.97-20.55c21.85,15.63,46.25,29.7,72.58,35.91c6.63,1.13,13.33,1.77,19.92,3.13
	c18.27,4.86,12.39,32.43-6.38,29.25C222.12,608.89,222.49,608.96,222.49,608.95z"/>
<path class="st0" d="M570.32,942.96c-3.93-0.37-7.51-1.78-10.26-4.71c-2.75-2.92-4.24-6.93-4.06-10.95
	c0.17-3.87,1.88-7.61,4.7-10.26c2.82-2.65,7.03-4.43,10.95-4.06c2.31,0.22,4.63,0.29,6.95,0.27c3.93-0.14,7.83-0.53,11.72-1.1
	c6.54-1.08,13-2.61,19.36-4.45c8.58-2.61,16.98-5.77,25.18-9.41c8.04-3.67,15.87-7.79,23.41-12.42c5.28-3.34,10.39-6.93,15.25-10.85
	c2.86-2.4,5.61-4.92,8.2-7.62c1.41-1.56,2.76-3.17,4.02-4.85c0.64-0.94,1.26-1.9,1.83-2.89c0.29-0.59,0.57-1.18,0.83-1.79
	c0.08-0.25,0.16-0.49,0.24-0.74c0-0.02,0.01-0.04,0.01-0.07c1.56-8.01,9.21-13.62,17.37-12.19c7.99,1.41,13.67,9.33,12.18,17.37
	c0,0.03-0.01,0.06-0.02,0.09c-0.04,0.18-0.07,0.37-0.11,0.55c-1.05,4.93-3.1,9.52-5.74,13.82c-5.73,9.34-14.04,16.94-22.55,23.7
	c-7.7,6.12-16.08,11.43-24.66,16.22c-8.37,4.67-17.06,8.77-25.92,12.41c-8.75,3.6-17.75,6.6-26.89,9.05
	c-8.89,2.39-18.02,4.12-27.2,4.86c-2.62,0.21-5.27,0.33-7.91,0.33C574.89,943.27,572.6,943.18,570.32,942.96z"/>
<path class="st0" d="M773.38,884.05c-10.75-1.75-21.45-3.92-32.05-6.41c-2.59-0.61-5.18-1.23-7.77-1.89
	c-1.32-0.33-2.64-0.66-3.96-1.01c-0.13-0.03-0.25-0.07-0.38-0.1c-0.05-0.01-0.11-0.03-0.16-0.04c-0.22-0.06-0.43-0.11-0.65-0.17
	c0,0,0,0,0,0c-0.65-0.12-1.28-0.29-1.89-0.49l-0.02-0.01c-26.97-7.09-53.39-16.1-79.23-26.58c-26.79-10.87-52.93-23.2-78.49-36.71
	c-26.09-13.78-51.47-28.91-76.25-44.92c-24.15-15.61-47.66-32.24-70.5-49.7c-24.02-18.36-47.37-37.55-70.02-57.58
	c-21.9-19.38-43.02-39.63-63.52-60.49c-19.86-20.2-38.96-41.13-57.32-62.69c-3.66-4.3-7.29-8.62-10.89-12.98
	c-2.49-3.01-3.87-6.75-3.65-10.68c0.23-4.01,2.11-7.85,5.14-10.48c6.06-5.26,15.96-4.8,21.17,1.5
	c17.86,21.59,36.49,42.5,55.79,62.82c5.27,5.55,10.61,11.02,15.99,16.47c20.22,20.32,41.1,39.94,62.63,58.88
	c18.46,16.24,37.49,31.82,56.91,46.89c22.73,17.46,46.02,34.18,69.99,49.89c16.18,10.6,32.64,20.76,49.38,30.47
	c24.19,13.87,48.92,26.84,74.31,38.39c8.71,3.96,17.47,7.78,26.3,11.45c25.62,10.46,51.77,19.55,78.5,26.74
	c0.64,0.17,1.29,0.34,1.93,0.51c0.72,0.17,1.43,0.37,2.15,0.56c19.36,4.97,39.02,8.78,58.85,11.29c14.88,1.74,29.82,2.69,44.8,2.65
	c11.46-0.17,22.88-0.93,34.25-2.41c9.2-1.34,18.31-3.13,27.31-5.5c4.93-1.37,9.82-2.89,14.64-4.63c7.69-2.77,16.43,1.71,19.04,9.34
	c2.67,7.83-1.66,16.27-9.35,19.04c-22.33,8.05-46.01,12.18-69.66,13.59c-6.28,0.37-12.56,0.55-18.84,0.55
	C816.26,889.62,794.68,887.51,773.38,884.05z"/>
<path class="st0" d="M645.23,583.11c0.04,0.03,0.08,0.05,0.12,0.08C645.31,583.16,645.26,583.13,645.23,583.11z"/>
<path class="st0" d="M715.67,853.49c-7.73-2.41-12.39-11-9.88-18.78c1.25-3.88,2.36-7.8,3.33-11.75c1.78-7.64,3.05-15.39,3.91-23.18
	c0.88-9.16,1.18-18.36,0.95-27.56c-0.38-10.35-1.42-20.66-3.07-30.88c-1.82-10.52-4.28-20.91-7.36-31.14
	c-3.14-9.98-6.87-19.76-11.2-29.29c-3.9-8.29-8.25-16.36-13.09-24.13c-4.19-6.54-8.72-12.85-13.63-18.88
	c-3.5-4.18-7.18-8.21-11.06-12.04c-0.7-0.69-1.4-1.37-2.11-2.05c-0.37-0.31-0.72-0.63-1.05-0.97c-3.82-3.47-7.8-6.75-11.96-9.8
	c-4.02-2.83-8.19-5.45-11.82-7.42c-0.33-0.18-0.66-0.36-1-0.54c-3.35-1.81-5.77-5.61-6.63-9.23c-0.93-3.89-0.25-8.05,1.87-11.44
	c2.08-3.31,5.43-5.73,9.23-6.64c1.82-0.43,3.59-0.49,5.3-0.25c1.3,0.76,2.61,1.52,3.89,2.32c1.72,1.12,3.43,2.26,5.14,3.39
	c1.51,1.04,3.07,2.15,4.8,2.79c-0.17-0.06-0.34-0.13-0.51-0.2c0.46,0.18,0.9,0.39,1.34,0.61c1.48,0.8,2.92,1.69,4.33,2.62
	c2.55,1.71,5.07,3.45,7.62,5.16c1.74,1.16,3.49,2.32,5.24,3.48c1.09,0.95,2.16,1.92,3.22,2.9c0.11,0.09,0.21,0.19,0.31,0.29
	c0.03,0.03,0.07,0.06,0.1,0.09c0.02,0.01,0.03,0.02,0.04,0.03c0.48,0.39,0.93,0.82,1.36,1.28c0.04,0.04,0.08,0.08,0.11,0.12
	c13.32,12.7,24.55,27.27,34.06,43.02c10.8,17.88,19.01,37.24,25.1,57.19c5.71,18.72,9.34,38.11,10.8,57.63
	c1.41,18.69,0.77,37.61-2.32,56.11c-1.54,9.21-3.71,18.37-6.58,27.26c-2.05,6.34-8.02,10.54-14.42,10.54
	C718.59,854.16,717.12,853.94,715.67,853.49z"/>
</svg>
