<?xml version="1.0" encoding="utf-8"?>
<!-- Generator: Adobe Adobe Illustrator 24.2.0, SVG Export Plug-In . SVG Version: 6.00 Build 0)  -->
<svg version="1.1" id="Capa_de_vector_1_" xmlns="http://www.w3.org/2000/svg" xmlns:xlink="http://www.w3.org/1999/xlink" x="0px"
	 y="0px" viewBox="0 0 1000 1000" style="enable-background:new 0 0 1000 1000;" xml:space="preserve">
<style type="text/css">
	.st0{fill:#A46460;}
</style>
<path class="st0" d="M666.96,336.95c0,0,0.01,0.01,0.01,0.01C666.97,336.95,666.96,336.95,666.96,336.95z"/>
<path class="st0" d="M672.84,340.02C672.84,340.02,672.85,340.02,672.84,340.02C672.85,340.02,672.84,340.02,672.84,340.02z"/>
<path class="st0" d="M672.85,340.02C672.85,340.02,672.85,340.02,672.85,340.02C672.85,340.02,672.85,340.02,672.85,340.02
	C672.85,340.02,672.85,340.02,672.85,340.02z"/>
<path class="st0" d="M672.85,340.02C672.85,340.02,672.86,340.02,672.85,340.02C672.86,340.03,672.86,340.03,672.85,340.02z"/>
<path class="st0" d="M680.05,341.77c-0.73-0.11-1.47-0.2-2.2-0.34c-1.64-0.37-3.29-0.82-4.88-1.37l0,0c-0.01,0-0.02,0-0.02-0.01
	c-0.02-0.01-0.05-0.02-0.07-0.02c-0.01,0-0.02-0.01-0.03-0.01c0,0-0.01,0-0.01,0c0,0,0,0,0,0c-0.84-0.3-1.67-0.61-2.46-1
	c-1.18-0.61-2.3-1.32-3.39-2.06h0c-0.87-0.62-1.7-1.31-2.49-2.02c-1.22-1.12-2.32-2.38-3.39-3.64c-0.2-0.24-0.39-0.48-0.57-0.73
	c-0.32-0.51-0.63-1.02-0.94-1.54c-0.65-1.07-1.25-2.16-1.79-3.3c-0.53-1.11-1.03-2.22-1.45-3.38s-0.86-2.3-1.26-3.46
	c0.01,0.03,0.02,0.05,0.02,0.08c-0.01-0.03-0.02-0.05-0.03-0.08c0,0,0,0,0,0c0,0,0,0,0,0c0,0,0,0,0,0
	c-0.01-0.02-0.02-0.04-0.02-0.07c0.01,0.02,0.02,0.05,0.02,0.07c-0.13-0.42-0.25-0.84-0.34-1.27c-0.2-1.01-0.37-2.02-0.58-3.04v0
	c-0.1-0.54-0.2-1.07-0.32-1.61c-0.07-0.31-0.14-0.63-0.22-0.94c4.06-0.02,8.13-0.03,12.19-0.05c27.23-0.11,54.45-0.23,81.68-0.34
	c26.81-0.11,53.62-0.23,80.43-0.34c5.52-0.02,11.04-0.05,16.57-0.07c3.92-0.02,7.9,2.09,10.48,4.95c2.62,2.91,4.01,6.8,3.83,10.7
	c-0.18,3.99-1.98,7.81-4.95,10.48c-3.01,2.71-6.72,3.82-10.71,3.83c-23.59,0.1-47.17,0.2-70.76,0.29
	c-26.59,0.11-53.18,0.22-79.77,0.33c-3.87,0.02-7.74,0.04-11.61,0.05C680.7,341.87,680.37,341.82,680.05,341.77z"/>
<path class="st0" d="M648.6,327.02c0,0,0.01,0.01,0.01,0.02c0,0.01,0.01,0.02,0.01,0.02C648.62,327.05,648.61,327.03,648.6,327.02z"
	/>
<path class="st0" d="M648.63,327.07c0.02,0.03,0.04,0.06,0.05,0.09C648.67,327.13,648.65,327.1,648.63,327.07z"/>
<path class="st0" d="M650.56,330.23L650.56,330.23c0.01,0.01,0.01,0.01,0.01,0.02C650.57,330.24,650.57,330.24,650.56,330.23z"/>
<path class="st0" d="M650.63,330.34c-0.01-0.01-0.02-0.03-0.03-0.04c0.02,0.02,0.03,0.05,0.04,0.07
	C650.64,330.36,650.64,330.35,650.63,330.34z"/>
<path class="st0" d="M656.02,336.39c0.01,0.01,0.01,0.01,0.02,0.02C656.03,336.4,656.02,336.39,656.02,336.39z"/>
<path class="st0" d="M656.08,336.47c0.01,0.01,0.01,0.02,0.02,0.03C656.09,336.48,656.09,336.47,656.08,336.47z"/>
<path class="st0" d="M330.27,329.3c0.05-0.05,0.1-0.11,0.14-0.16c-0.11,0.12-0.21,0.25-0.32,0.37
	C330.15,329.44,330.21,329.36,330.27,329.3z"/>
<path class="st0" d="M328.88,330.86c0.12-0.14,0.24-0.27,0.36-0.4c-0.07,0.08-0.15,0.16-0.23,0.25c0.17-0.19,0.34-0.38,0.51-0.57
	c-0.03,0.03-0.05,0.06-0.08,0.09c-0.23,0.26-0.46,0.52-0.7,0.78C328.79,330.96,328.83,330.91,328.88,330.86z"/>
<path class="st0" d="M327.85,331.98c0.04-0.04,0.08-0.08,0.12-0.13c-0.05,0.05-0.09,0.1-0.14,0.15
	C327.84,332,327.84,331.99,327.85,331.98z"/>
<path class="st0" d="M329.29,335.39c-0.2,0.12-0.41,0.25-0.61,0.38C328.88,335.64,329.08,335.52,329.29,335.39z"/>
<path class="st0" d="M317.26,343c0.1-0.06,0.2-0.12,0.3-0.18c-0.13,0.08-0.27,0.16-0.39,0.24
	C317.19,343.04,317.22,343.02,317.26,343z"/>
<path class="st0" d="M317.18,343.05c-0.03,0.02-0.06,0.04-0.09,0.06c-0.1,0.06-0.21,0.13-0.31,0.19c0,0-0.01,0-0.01,0
	C316.9,343.22,317.04,343.13,317.18,343.05z"/>
<path class="st0" d="M327.82,332.02C327.82,332.02,327.82,332.02,327.82,332.02C327.81,332.03,327.81,332.03,327.82,332.02
	C327.81,332.03,327.81,332.03,327.82,332.02z"/>
<path class="st0" d="M327.81,332.03c0,0.01-0.01,0.01-0.02,0.02C327.8,332.04,327.8,332.04,327.81,332.03z"/>
<path class="st0" d="M157.66,344.08c-0.02,0-0.03,0-0.04,0c-3.91,0-7.87-2.1-10.44-4.95c-2.62-2.9-4.01-6.8-3.83-10.7
	c0.18-3.99,1.98-7.8,4.95-10.48c3.01-2.71,6.72-3.82,10.71-3.83c0.21,0,0.42,0,0.63,0c0.03,0,0.07,0,0.1,0
	c26.36-0.12,52.71-0.22,79.07-0.33c28.47-0.12,56.94-0.24,85.4-0.36c6.68-0.03,13.35-0.05,20.02-0.08c0,0.02,0,0.03,0,0.05
	c-0.12,0.14-0.25,0.27-0.38,0.41c0.12-0.12,0.24-0.25,0.36-0.38c-2.01,2.14-3.96,4.33-5.9,6.54c0.26-0.3,0.53-0.6,0.79-0.9
	c-2.72,3.07-5.36,6.21-8.04,9.33c-0.09,0.1-0.17,0.2-0.26,0.3c-0.11,0.12-0.21,0.25-0.32,0.37c0.05-0.06,0.11-0.12,0.16-0.18
	c-0.05,0.06-0.11,0.12-0.16,0.19c-0.01,0.02-0.02,0.03-0.04,0.04c-0.08,0.09-0.16,0.18-0.24,0.27c-0.22,0.25-0.45,0.5-0.67,0.76
	c-0.31,0.35-0.62,0.7-0.94,1.04c-0.16,0.18-0.33,0.36-0.49,0.54c-0.08,0.09-0.16,0.18-0.24,0.27c-0.01,0.01-0.02,0.02-0.03,0.03
	c0,0,0,0,0,0c-0.02,0.02-0.04,0.04-0.06,0.06c0.01-0.01,0.02-0.02,0.04-0.03c-0.02,0.02-0.04,0.04-0.06,0.06
	c-1.84,1.98-3.68,3.96-5.55,5.91c-1.45,1.5-2.9,2.98-4.25,4.54c-0.13,0.09-0.27,0.17-0.4,0.25c-0.26,0.16-0.52,0.32-0.78,0.49
	c-0.35,0.01-0.7,0.02-1.05,0.04c-0.5,0.02-1,0.05-1.49,0.07c-0.15,0-0.3,0-0.45,0c-0.31,0-0.62,0-0.94,0.02
	c-0.07,0-0.13,0.01-0.2,0.02c-15.59,0.06-31.17,0.13-46.76,0.19c-27.65,0.11-55.31,0.23-82.96,0.34c-8.06,0.03-16.12,0.07-24.19,0.1
	c-0.14,0-0.28,0-0.42,0C158.09,344.08,157.88,344.08,157.66,344.08z"/>
<path class="st0" d="M683.88,651.03c0.01,0,0.01,0,0.02,0.01C683.89,651.03,683.89,651.03,683.88,651.03z"/>
<path class="st0" d="M684.02,651.12C684.02,651.12,684.02,651.13,684.02,651.12C684.02,651.12,684.02,651.12,684.02,651.12z"/>
<path class="st0" d="M657.87,666.13C657.87,666.13,657.87,666.13,657.87,666.13c0,0.01-0.01,0.01-0.01,0.01
	C657.87,666.14,657.87,666.14,657.87,666.13z"/>
<path class="st0" d="M655.96,669.43C655.96,669.43,655.96,669.43,655.96,669.43C655.96,669.44,655.96,669.44,655.96,669.43
	C655.96,669.44,655.96,669.44,655.96,669.43z"/>
<path class="st0" d="M653.94,674.86C653.94,674.86,653.94,674.86,653.94,674.86C653.94,674.87,653.94,674.87,653.94,674.86
	C653.94,674.87,653.94,674.87,653.94,674.86z"/>
<path class="st0" d="M657.76,666.31C657.76,666.31,657.76,666.31,657.76,666.31C657.76,666.31,657.76,666.31,657.76,666.31z"/>
<path class="st0" d="M653.94,674.83c0,0.01,0,0.01-0.01,0.03C653.94,674.85,653.94,674.84,653.94,674.83z"/>
<path class="st0" d="M653.94,674.86C653.94,674.86,653.94,674.86,653.94,674.86C653.94,674.86,653.94,674.86,653.94,674.86z"/>
<path class="st0" d="M653.28,679.92C653.28,679.92,653.28,679.92,653.28,679.92c0,0,0,0.01,0,0.01
	C653.28,679.93,653.28,679.93,653.28,679.92z"/>
<path class="st0" d="M653.28,679.92c0,0,0,0.01,0,0.01c0,0,0,0.01,0,0.01C653.28,679.94,653.28,679.93,653.28,679.92z"/>
<path class="st0" d="M653.28,679.97C653.28,679.97,653.28,679.97,653.28,679.97C653.28,679.97,653.28,679.97,653.28,679.97
	C653.28,679.97,653.28,679.97,653.28,679.97z"/>
<path class="st0" d="M653.27,679.99C653.27,680,653.27,680,653.27,679.99c0,0.01,0,0.01,0,0.02
	C653.27,680.01,653.27,680,653.27,679.99z"/>
<path class="st0" d="M653.27,680.02C653.27,680.02,653.27,680.02,653.27,680.02c0,0.01,0,0.02,0,0.02
	C653.27,680.03,653.27,680.02,653.27,680.02z"/>
<path class="st0" d="M653.27,680.04c0,0.01,0,0.02,0,0.02c0-0.01,0-0.02,0-0.04c0-0.01,0-0.02,0-0.03c0,0,0-0.01,0-0.01
	c0,0,0-0.01,0-0.01c0,0,0,0,0,0c0-0.01,0-0.02,0-0.03c0,0.01,0,0.02,0,0.02c0.01-0.11,0.02-0.22,0.03-0.32c0,0.01,0,0.02,0,0.02
	c0-0.04,0.01-0.07,0.01-0.11c0,0,0,0,0,0c0.01-0.07,0.02-0.15,0.02-0.22c0,0.03-0.01,0.07-0.01,0.1c0-0.03,0.01-0.07,0.01-0.1
	c0-0.02,0.01-0.04,0.01-0.06c0,0.01,0,0.02-0.01,0.03c0.13-1.06,0.23-2.12,0.34-3.18c0-0.04,0.01-0.09,0.01-0.13
	c0.08-0.37,0.16-0.74,0.23-1.12c0-0.01,0-0.01,0-0.02c0-0.01,0.01-0.02,0.01-0.04c0,0,0,0,0-0.01c0,0,0,0,0,0.01
	c0.13-0.66,0.34-1.31,0.55-1.95c0.39-1.17,0.92-2.29,1.44-3.4c-0.01,0.02-0.02,0.05-0.03,0.07c0.02-0.04,0.04-0.08,0.06-0.12
	c0-0.01,0-0.02,0.01-0.02c0.27-0.54,0.58-1.05,0.88-1.57c0.29-0.52,0.6-1.04,0.92-1.54c0,0.01-0.01,0.01-0.01,0.02
	c0-0.01,0.01-0.01,0.01-0.02c0,0,0,0,0-0.01c0,0,0,0,0,0c0.01-0.02,0.03-0.04,0.04-0.07c0-0.01,0.01-0.02,0.02-0.04l0,0c0,0,0,0,0,0
	c0.01-0.01,0.02-0.02,0.02-0.04c0,0,0,0,0,0c0-0.01,0.01-0.02,0.02-0.03c0.02-0.04,0.04-0.07,0.07-0.1
	c-0.02,0.03-0.04,0.06-0.07,0.1c0.28-0.44,0.56-0.89,0.84-1.33c0.34-0.52,0.71-1.01,1.1-1.48c0.43-0.48,0.89-0.93,1.34-1.38
	c0.49-0.49,0.97-0.98,1.48-1.45c-0.04,0.04-0.08,0.07-0.12,0.11c0.47-0.43,0.95-0.86,1.46-1.25c0.95-0.66,1.93-1.28,2.89-1.91
	c0.59-0.38,1.2-0.74,1.79-1.11c0.56-0.34,1.12-0.68,1.7-0.98c-0.01,0-0.02,0.01-0.02,0.01c1.08-0.56,2.2-1.04,3.32-1.52
	c0.71-0.31,1.42-0.6,2.14-0.87c0.01-0.01,0.03-0.01,0.04-0.02c0.55-0.18,1.11-0.29,1.66-0.43c0.58-0.14,1.15-0.29,1.73-0.42
	c-0.04,0.01-0.07,0.02-0.11,0.02c0.86-0.18,1.72-0.32,2.59-0.47c0.77-0.14,1.54-0.35,2.3-0.53c0,0,0,0,0,0
	c0.03-0.01,0.06-0.02,0.09-0.02c0.39,0.08,0.82-0.03,1.12-0.31c26.47-0.05,52.94-0.1,79.41-0.14c26.45-0.04,52.9-0.09,79.35-0.14
	c6.36-0.01,12.71-0.02,19.07-0.04c8.18-0.02,14.7,7.67,14.39,15.59c-0.16,3.99-1.95,7.82-4.9,10.51c-2.98,2.71-6.71,3.88-10.68,3.88
	c-23.57,0.04-47.15,0.09-70.72,0.13c-28.47,0.05-56.94,0.1-85.4,0.15c-17.52,0.03-35.04,0.06-52.56,0.09
	C653.22,680.56,653.25,680.3,653.27,680.04z"/>
<path class="st0" d="M340.56,672.04c0,0,0-0.01-0.01-0.01C340.56,672.04,340.56,672.04,340.56,672.04
	C340.56,672.05,340.56,672.04,340.56,672.04z"/>
<path class="st0" d="M340.58,672.07c0-0.01-0.01-0.02-0.01-0.03c0.01,0.02,0.02,0.04,0.03,0.06
	C340.59,672.1,340.59,672.08,340.58,672.07z"/>
<path class="st0" d="M340.6,672.12c0,0,0-0.01,0-0.01c0,0.01,0.01,0.02,0.01,0.02C340.61,672.13,340.61,672.12,340.6,672.12z"/>
<path class="st0" d="M340.61,672.14C340.61,672.14,340.61,672.13,340.61,672.14C340.61,672.14,340.62,672.14,340.61,672.14
	C340.62,672.14,340.62,672.14,340.61,672.14z"/>
<path class="st0" d="M340.63,672.17c0-0.01-0.01-0.01-0.01-0.02c0.01,0.01,0.01,0.02,0.02,0.03
	C340.63,672.17,340.63,672.17,340.63,672.17z"/>
<path class="st0" d="M342.22,676.71c0,0.01,0,0.01,0.01,0.02C342.22,676.72,342.22,676.71,342.22,676.71z"/>
<path class="st0" d="M344.49,673.91c0.01,0.02,0.02,0.05,0.03,0.07C344.51,673.96,344.5,673.93,344.49,673.91z"/>
<path class="st0" d="M344.88,675.09c0.01,0.02,0.02,0.05,0.02,0.07c0,0,0,0.01,0,0.01c0,0,0,0,0-0.01c0,0,0,0.01,0,0.01
	c0,0,0,0.01,0,0.01C344.9,675.15,344.89,675.12,344.88,675.09z"/>
<path class="st0" d="M344.92,675.21c0,0.01,0,0.01,0.01,0.02C344.93,675.23,344.92,675.22,344.92,675.21z"/>
<path class="st0" d="M344.93,675.24c0.01,0.02,0.01,0.04,0.01,0.06C344.94,675.28,344.94,675.26,344.93,675.24z"/>
<path class="st0" d="M346.49,681.14c0,0.03,0.01,0.06,0.02,0.09c0,0,0,0,0,0C346.5,681.2,346.5,681.17,346.49,681.14z"/>
<path class="st0" d="M346.51,681.24c0,0,0,0.01,0,0.01C346.51,681.24,346.51,681.24,346.51,681.24z"/>
<path class="st0" d="M350.99,667.75C350.98,667.75,350.98,667.75,350.99,667.75C350.98,667.75,350.99,667.75,350.99,667.75
	C350.99,667.75,350.99,667.75,350.99,667.75z"/>
<path class="st0" d="M355.86,681.23C355.86,681.23,355.86,681.23,355.86,681.23C355.85,681.23,355.85,681.23,355.86,681.23
	c0,0,0.01,0.01,0.01,0.01c0,0,0,0,0,0C355.86,681.24,355.86,681.24,355.86,681.23z"/>
<path class="st0" d="M344.66,666.49C344.66,666.49,344.66,666.49,344.66,666.49C344.66,666.49,344.66,666.49,344.66,666.49
	C344.66,666.49,344.66,666.49,344.66,666.49z"/>
<path class="st0" d="M344.69,666.54L344.69,666.54C344.69,666.54,344.69,666.54,344.69,666.54
	C344.69,666.54,344.69,666.54,344.69,666.54z"/>
<path class="st0" d="M344.69,666.54C344.69,666.54,344.69,666.54,344.69,666.54C344.69,666.54,344.69,666.54,344.69,666.54
	C344.69,666.54,344.69,666.54,344.69,666.54z"/>
<path class="st0" d="M346.66,670.13C346.66,670.13,346.66,670.13,346.66,670.13C346.66,670.13,346.66,670.13,346.66,670.13
	C346.66,670.13,346.66,670.13,346.66,670.13C346.66,670.13,346.66,670.13,346.66,670.13z"/>
<path class="st0" d="M342.22,676.7C342.22,676.7,342.22,676.7,342.22,676.7C342.22,676.7,342.22,676.7,342.22,676.7z"/>
<path class="st0" d="M138.82,666.14c0.16-4,1.95-7.82,4.9-10.51c2.98-2.71,6.71-3.89,10.68-3.89c26.32,0,52.64-0.09,78.97-0.14
	c26.38-0.05,52.77-0.09,79.15-0.14c0.05,0,0.11,0,0.16,0c0.58,0,1.16,0,1.74,0c0.38,0.08,0.75,0.16,1.12,0.25
	c0.51,0.11,1.03,0.18,1.54,0.29c1.37,0.29,2.73,0.59,4.08,0.95c-0.05-0.01-0.1-0.03-0.15-0.04c1.01,0.28,2.01,0.59,2.98,0.98
	c0.46,0.2,0.9,0.43,1.34,0.67c0.08,0.04,0.15,0.09,0.23,0.13c0.51,0.31,1.02,0.62,1.55,0.89c1.26,0.78,2.49,1.61,3.67,2.5
	c0.85,0.66,1.64,1.37,2.4,2.12c0.31,0.32,0.6,0.65,0.88,1c0,0,0,0,0-0.01c0.41,0.53,0.83,1.04,1.24,1.57
	c0.28,0.38,0.51,0.79,0.76,1.18c0.25,0.4,0.53,0.79,0.77,1.2c0.19,0.34,0.37,0.69,0.57,1.02c0.19,0.3,0.39,0.61,0.57,0.92
	c0.44,0.79,0.88,1.58,1.26,2.41c0.4,0.87,0.84,1.72,1.31,2.55c0,0.01,0.01,0.02,0.02,0.04c0.01,0.02,0.02,0.03,0.02,0.05
	c0.01,0,0.01,0.01,0.02,0.02s0.01,0.02,0.01,0.02c0.12,0.23,0.25,0.46,0.35,0.7c0.49,1.24,0.89,2.52,1.23,3.8
	c0,0.01,0.01,0.02,0.01,0.03c0,0,0,0,0,0c0.18,0.72,0.35,1.43,0.48,2.15c0.13,0.77,0.34,1.53,0.46,2.3
	c0.01,0.07,0.02,0.15,0.04,0.23c-26.97,0.05-53.94,0.1-80.91,0.15c-29.46,0.05-58.91,0.1-88.37,0.16
	c-6.9,0.01-13.79,0.04-20.69,0.04C145.03,681.72,138.51,674.06,138.82,666.14z"/>
<path class="st0" d="M666.96,336.95c0,0,0.01,0.01,0.01,0.01C666.97,336.96,666.96,336.95,666.96,336.95z"/>
<path class="st0" d="M672.91,340.04c0.01,0,0.02,0.01,0.04,0.01C672.93,340.05,672.92,340.05,672.91,340.04z"/>
<path class="st0" d="M655.1,318.9c0.01,0.02,0.01,0.03,0.02,0.05C655.11,318.93,655.1,318.91,655.1,318.9z"/>
<path class="st0" d="M681.73,341.98c-0.56-0.04-1.12-0.12-1.68-0.2c-0.73-0.11-1.47-0.2-2.2-0.34c-1.64-0.37-3.28-0.82-4.88-1.37
	c0,0-0.01,0-0.01,0c-0.04-0.02-0.07-0.03-0.1-0.04c0.02,0.01,0.03,0.01,0.05,0.02c-0.02-0.01-0.05-0.02-0.07-0.02
	c0.01,0,0.01,0,0.02,0c-0.84-0.3-1.68-0.61-2.49-1c-1.17-0.61-2.3-1.32-3.39-2.06c0,0,0,0,0,0c-0.87-0.62-1.7-1.31-2.49-2.02
	c-1.22-1.12-2.32-2.38-3.39-3.64c-0.18-0.23-0.36-0.45-0.54-0.69c-0.33-0.53-0.65-1.06-0.97-1.59c-0.65-1.07-1.25-2.16-1.79-3.3
	c-0.53-1.11-1.03-2.22-1.45-3.38c-0.41-1.14-0.84-2.27-1.25-3.41c-0.01-0.02-0.01-0.03-0.02-0.05c0,0,0,0,0,0v0
	c-0.01-0.02-0.02-0.05-0.02-0.07c0.01,0.02,0.02,0.05,0.02,0.07c-0.13-0.41-0.25-0.84-0.34-1.27c-0.2-1.01-0.37-2.02-0.58-3.04v0
	c-0.11-0.54-0.2-1.07-0.32-1.61c-0.11-0.51-0.24-1.01-0.36-1.52c-0.09-0.46-0.18-0.93-0.26-1.39c-0.01-0.04-0.01-0.07-0.02-0.11
	c0.01-19.87,0.01-39.72,0.02-59.58c0.01-28.21,0.02-56.43,0.03-84.64c0-3.37,0-6.74,0-10.11c0-4.08,1.24-7.93,4.09-10.94
	c2.66-2.82,6.4-4.52,10.27-4.68c7.9-0.34,15.62,6.19,15.62,14.36c0,25.31-0.02,50.62-0.03,75.94c-0.01,29.34-0.02,58.67-0.03,88.01
	c0,7.9-0.01,15.8-0.01,23.71C682.7,342.02,682.22,342.02,681.73,341.98z"/>
<path class="st0" d="M656.02,336.39c0.01,0.01,0.01,0.01,0.02,0.02C656.03,336.4,656.02,336.39,656.02,336.39z"/>
<path class="st0" d="M656.08,336.47c0.01,0.01,0.01,0.02,0.02,0.03C656.09,336.48,656.09,336.47,656.08,336.47z"/>
<path class="st0" d="M653.2,358.25c0-0.17,0-0.34,0-0.51c0.07,0.12,0.15,0.24,0.22,0.37c-0.07,0.05-0.13,0.1-0.2,0.15
	C653.21,358.25,653.2,358.25,653.2,358.25z"/>
<path class="st0" d="M679.23,652.1c-0.03,0.01-0.06,0.01-0.09,0.02C679.17,652.12,679.2,652.11,679.23,652.1z"/>
<path class="st0" d="M675.86,652.95c-0.02,0.01-0.04,0.01-0.06,0.02C675.82,652.96,675.84,652.95,675.86,652.95z"/>
<path class="st0" d="M662.59,660.53c-0.02,0.02-0.05,0.04-0.07,0.06C662.54,660.57,662.57,660.55,662.59,660.53z"/>
<path class="st0" d="M655.96,669.43C655.96,669.43,655.96,669.43,655.96,669.43c0,0.01-0.01,0.02-0.01,0.03
	C655.95,669.45,655.95,669.44,655.96,669.43z"/>
<path class="st0" d="M657.84,666.19C657.84,666.2,657.83,666.2,657.84,666.19c-0.01,0.01-0.01,0.01-0.01,0.01
	C657.83,666.2,657.83,666.2,657.84,666.19z"/>
<path class="st0" d="M655.95,669.46c-0.02,0.03-0.03,0.06-0.05,0.09C655.92,669.52,655.93,669.49,655.95,669.46z"/>
<path class="st0" d="M653.28,679.93C653.28,679.93,653.28,679.94,653.28,679.93c0,0.01,0,0.01,0,0.02c0,0,0,0,0,0
	C653.28,679.95,653.28,679.94,653.28,679.93z"/>
<path class="st0" d="M653.03,850.04c0-25.54,0.02-51.07,0.03-76.61c0.01-28.47,0.02-56.95,0.03-85.42c0-1.84,0-3.68,0-5.52
	c0.07-0.82,0.11-1.64,0.19-2.45c0,0,0,0.01,0,0.01c0-0.02,0-0.04,0-0.06c0,0.01,0,0.03,0,0.04c0-0.03,0-0.06,0.01-0.08
	c0,0,0-0.01,0-0.01c0,0.01,0,0.01,0,0.02c0.01-0.13,0.02-0.25,0.04-0.38c0,0.02,0,0.04-0.01,0.06c0,0.01,0,0.01,0,0.02
	c0-0.01,0-0.01,0-0.02c0-0.03,0.01-0.05,0.01-0.08c0,0,0,0,0-0.01c0,0,0,0,0,0.01c0,0,0,0.01,0,0.01c0.01-0.1,0.02-0.19,0.03-0.29
	c0,0,0,0,0,0c0.13-1.05,0.22-2.1,0.33-3.15c0.01-0.05,0.01-0.09,0.02-0.14c0.09-0.37,0.17-0.75,0.24-1.12c0,0.01,0,0.02-0.01,0.03
	c0-0.02,0.01-0.05,0.01-0.07c0,0,0-0.01,0-0.01c0,0,0,0,0,0.01c0.13-0.66,0.34-1.31,0.55-1.95c0.39-1.18,0.92-2.3,1.45-3.42
	c0-0.01,0.01-0.02,0.01-0.02c0-0.01,0-0.02,0.01-0.02c0.27-0.54,0.58-1.05,0.88-1.57c0.3-0.53,0.6-1.05,0.93-1.55
	c-0.01,0.01-0.02,0.02-0.02,0.04c0.02-0.03,0.04-0.06,0.05-0.09c0.01-0.02,0.01-0.03,0.02-0.04c0,0,0,0,0,0c0,0,0,0,0-0.01
	c0,0,0.01-0.01,0.01-0.01c0,0,0,0,0,0c0.01-0.02,0.02-0.03,0.03-0.05c0,0-0.01,0-0.01,0c0.29-0.45,0.56-0.9,0.85-1.35
	c0.34-0.52,0.71-1.01,1.1-1.48c0.43-0.48,0.89-0.93,1.34-1.38c0.49-0.48,0.96-0.98,1.48-1.45c0.44-0.39,0.88-0.79,1.36-1.14
	c0.95-0.66,1.92-1.28,2.89-1.91c0.59-0.38,1.2-0.74,1.79-1.11c0.56-0.34,1.12-0.68,1.7-0.98c-0.01,0-0.02,0.01-0.02,0.01
	c1.08-0.56,2.2-1.04,3.32-1.52c0.73-0.31,1.45-0.61,2.19-0.88c0.54-0.18,1.11-0.29,1.66-0.43c0.57-0.14,1.14-0.29,1.72-0.42
	c0.83-0.17,1.66-0.31,2.49-0.45c0.45-0.08,0.9-0.18,1.34-0.29c0,5.65,0,11.3,0,16.95c-0.01,28.38-0.02,56.75-0.03,85.12
	c-0.01,27.66-0.02,55.32-0.03,82.98c0,4.12,0,8.25,0,12.38c0,4.08-1.24,7.93-4.09,10.94c-2.66,2.82-6.4,4.52-10.27,4.68
	c-0.2,0.01-0.39,0.01-0.59,0.01C660.37,864.41,653.03,858.01,653.03,850.04z"/>
<path class="st0" d="M330.5,329.04c0.05-0.05,0.09-0.1,0.14-0.15c-0.05,0.06-0.11,0.12-0.16,0.19c-0.01,0.01-0.02,0.02-0.03,0.03
	C330.46,329.08,330.48,329.06,330.5,329.04z"/>
<path class="st0" d="M330.22,329.35c0.02-0.02,0.04-0.04,0.05-0.06c0,0,0.01-0.01,0.01-0.01c-0.03,0.03-0.06,0.07-0.09,0.1
	c-0.01,0.01-0.02,0.02-0.02,0.03C330.19,329.39,330.21,329.37,330.22,329.35z"/>
<path class="st0" d="M328.88,330.86c0.08-0.08,0.15-0.17,0.23-0.25c-0.03,0.03-0.06,0.06-0.09,0.1c0.07-0.08,0.15-0.16,0.22-0.25
	c-0.05,0.05-0.09,0.1-0.14,0.15c0.14-0.16,0.28-0.32,0.43-0.47c-0.03,0.03-0.06,0.06-0.09,0.1c-0.23,0.26-0.46,0.52-0.7,0.78
	C328.79,330.96,328.83,330.91,328.88,330.86z"/>
<path class="st0" d="M328.05,331.77L328.05,331.77c-0.04,0.05-0.08,0.09-0.12,0.13C327.97,331.86,328.01,331.81,328.05,331.77z"/>
<path class="st0" d="M317.26,343c0.04-0.02,0.08-0.05,0.12-0.07c-0.07,0.04-0.15,0.09-0.22,0.14
	C317.19,343.04,317.22,343.02,317.26,343z"/>
<path class="st0" d="M317.18,343.05c-0.03,0.02-0.06,0.04-0.09,0.06c-0.1,0.06-0.21,0.13-0.31,0.19c-0.01,0-0.01,0-0.02,0
	C316.89,343.22,317.03,343.13,317.18,343.05z"/>
<path class="st0" d="M314.18,343.41c0.01-4.84,0.02-9.68,0.02-14.53c0.04-29.71,0.07-59.41,0.11-89.12
	c0.04-28.7,0.07-57.39,0.11-86.09c0.01-8.28,0.02-16.57,0.03-24.85c0.01-4.07,1.29-7.93,4.14-10.92c2.68-2.8,6.42-4.48,10.29-4.63
	c7.93-0.3,15.57,6.27,15.55,14.44c-0.03,26.91-0.07,53.82-0.1,80.73c-0.04,29.23-0.07,58.46-0.11,87.68c0,4.79-0.01,9.57-0.02,14.36
	c-0.06,0.15-0.1,0.3-0.11,0.47c-0.01,0.19,0.02,0.38,0.04,0.56c0.02,0.14,0.04,0.27,0.07,0.41c0,0.5,0,0.99,0,1.49
	c-0.12,0.13-0.24,0.26-0.36,0.39c0.12-0.13,0.24-0.26,0.36-0.39c0,0,0,0,0,0c-2.01,2.15-3.96,4.33-5.91,6.54
	c0.26-0.3,0.53-0.6,0.79-0.9c-2.72,3.07-5.36,6.21-8.04,9.33c-0.09,0.1-0.17,0.2-0.26,0.3c-0.1,0.11-0.2,0.23-0.3,0.34
	c-0.03,0.03-0.05,0.06-0.08,0.09c0.01-0.01,0.02-0.02,0.03-0.03c-0.05,0.05-0.09,0.11-0.14,0.16c-0.01,0.01-0.02,0.02-0.03,0.03
	c0,0,0,0.01-0.01,0.01c-0.02,0.02-0.03,0.04-0.05,0.05c-0.02,0.03-0.05,0.06-0.07,0.09c-0.21,0.23-0.41,0.46-0.62,0.7
	c-0.31,0.35-0.63,0.7-0.94,1.04c-0.16,0.18-0.33,0.36-0.49,0.54c-0.02,0.02-0.03,0.03-0.04,0.05c-0.07,0.08-0.15,0.16-0.23,0.25
	c-0.03,0.03-0.06,0.07-0.09,0.1c-1.83,1.98-3.68,3.96-5.55,5.91c-1.45,1.5-2.9,2.98-4.25,4.54c-0.13,0.09-0.27,0.17-0.4,0.25
	c-0.26,0.16-0.52,0.32-0.79,0.49c-0.35,0.01-0.7,0.02-1.05,0.04c-0.5,0.02-1,0.05-1.49,0.07
	C314.2,343.41,314.19,343.41,314.18,343.41z"/>
<path class="st0" d="M340.61,672.12c0-0.01-0.01-0.01-0.01-0.02C340.6,672.11,340.6,672.12,340.61,672.12z"/>
<path class="st0" d="M342.22,676.71c0,0,0,0.01,0,0.01C342.22,676.72,342.22,676.72,342.22,676.71z"/>
<path class="st0" d="M313.57,842.32c0.03-25.03,0.06-50.06,0.09-75.09c0.04-28.06,0.07-56.13,0.1-84.19
	c0.01-10.57,0.03-21.13,0.04-31.7c0.02,0,0.05,0.01,0.07,0.01c0.56,0.1,1.12,0.23,1.68,0.35c0.51,0.11,1.03,0.18,1.54,0.29
	c1.37,0.29,2.73,0.59,4.08,0.95c-0.05-0.01-0.1-0.03-0.15-0.04c1.01,0.27,2.01,0.59,2.98,0.98c0.4,0.17,0.8,0.37,1.19,0.58
	c0.13,0.07,0.26,0.15,0.39,0.22c0.53,0.32,1.05,0.64,1.6,0.92c1.25,0.77,2.46,1.59,3.62,2.47c0.85,0.66,1.64,1.37,2.4,2.12
	c0.31,0.32,0.6,0.65,0.87,1c0,0,0,0,0,0c0.4,0.53,0.83,1.04,1.24,1.56c0.28,0.38,0.51,0.79,0.76,1.19c0.25,0.4,0.53,0.79,0.77,1.2
	c0.19,0.34,0.37,0.69,0.57,1.02c0.19,0.3,0.39,0.61,0.57,0.92c0.44,0.79,0.88,1.58,1.26,2.41c0.41,0.89,0.86,1.77,1.34,2.62
	c-0.02-0.02-0.03-0.05-0.04-0.07c0.02,0.03,0.03,0.06,0.05,0.09c0.01,0.02,0.02,0.04,0.03,0.06c-0.01-0.02-0.02-0.04-0.03-0.05
	c0.13,0.24,0.26,0.48,0.37,0.74c0.49,1.25,0.89,2.54,1.23,3.84c0,0,0,0,0,0c0.18,0.71,0.35,1.43,0.48,2.15
	c0.13,0.77,0.34,1.53,0.46,2.3c0.22,1.44,0.4,2.88,0.6,4.31c-0.02,17.43-0.04,34.86-0.07,52.29c-0.04,27.16-0.07,54.32-0.1,81.48
	c-0.01,7.32-0.02,14.64-0.03,21.97c0,4.07-1.29,7.93-4.14,10.92c-2.68,2.8-6.42,4.48-10.3,4.63c-0.18,0.01-0.35,0.01-0.52,0.01
	C320.86,856.77,313.55,850.31,313.57,842.32z"/>
<path class="st0" d="M30.55,566.96c-0.11-14.46-0.21-28.92-0.32-43.38c-0.14-19.19-0.29-38.38-0.43-57.57
	c-0.1-14.04-0.21-28.09-0.31-42.12c-0.03-4.08,1.21-7.94,4.04-10.96c2.65-2.83,6.38-4.55,10.25-4.73
	c7.91-0.38,15.63,6.11,15.69,14.28c0.11,15.84,0.23,31.68,0.35,47.52c0.14,19.32,0.29,38.64,0.43,57.97
	c0.09,12.49,0.19,24.99,0.28,37.48c0,0.02,0,0.03,0,0.05c0,0.02,0,0.04,0,0.05c0.03,4.08-1.21,7.94-4.04,10.96
	c-2.65,2.83-6.38,4.55-10.25,4.73c-0.22,0.01-0.44,0.02-0.66,0.02C37.9,581.26,30.61,574.91,30.55,566.96z"/>
<path class="st0" d="M945.01,574.03c-2.74-2.48-4.9-6.39-4.91-10.16c-0.04-11.33-0.06-22.66-0.09-33.98
	c-0.05-18.88-0.11-37.76-0.16-56.63c-0.05-18.3-0.15-36.6-0.15-54.9c0,0,0,0,0,0c0-0.03,0-0.06,0-0.09c0-2.06,0.12-3.94,0.81-5.9
	c0.66-1.89,1.69-3.64,3.03-5.13c2.6-2.87,6.3-4.66,10.16-4.91c4.01-0.26,8.05,1.14,11.03,3.84c2.74,2.48,4.9,6.39,4.91,10.16
	c0,19.23,0.11,38.45,0.16,57.68c0.05,18.61,0.1,37.21,0.15,55.82c0.03,10.7,0.05,21.4,0.09,32.11c0.02,4.11-1.02,7.92-3.84,11.03
	c-2.6,2.87-6.29,4.66-10.16,4.91c-0.32,0.02-0.64,0.03-0.95,0.03C951.4,577.89,947.75,576.51,945.01,574.03z"/>
<path class="st0" d="M569.23,969.74c-1.39-0.03-2.79-0.04-4.18-0.09c-18.57-0.38-37.14-0.75-55.72-1.13
	c-19.75-0.4-39.5-0.8-59.26-1.2c-8.52-0.18-17.03-0.3-25.54-0.53c-3.91-0.1-7.88-2.5-10.3-5.47c-2.45-3.01-3.66-6.94-3.31-10.81
	c0.36-4,2.36-7.76,5.47-10.29c3.15-2.56,6.83-3.42,8.86-3.36c18.33,0.35,36.66,0.74,54.99,1.12c19.52,0.39,39.04,0.79,58.56,1.19
	c8.89,0.18,17.79,0.36,26.69,0.54c0.06,0,0.11,0,0.17,0c0.77,0.01,1.55,0.03,2.33,0.05c4.11,0.09,7.89,1.21,10.94,4.09
	c2.81,2.66,4.52,6.4,4.68,10.27c0.17,4.01-1.33,8.02-4.09,10.94c-2.49,2.63-6.35,4.68-10.07,4.68
	C569.36,969.74,569.3,969.74,569.23,969.74z"/>
<path class="st0" d="M416.66,57.96c-2.82-2.65-4.54-6.38-4.71-10.25c-0.37-7.97,6.14-15.55,14.3-15.67
	c19.06-0.28,38.11-0.64,57.17-0.96c20.2-0.34,40.41-0.68,60.61-1.02c7.06-0.12,14.11-0.24,21.17-0.36
	c4.06-0.07,7.96,1.24,10.95,4.05c2.82,2.66,4.54,6.39,4.71,10.26c0.34,7.45-5.31,14.53-12.7,15.54c-0.23,0.01-0.46,0.01-0.68,0.02
	c0.01,0,0.02,0,0.04,0c0.01,0,0.01,0,0.02,0c-0.01,0-0.01,0-0.02,0c-0.62,0.01-1.24,0.01-1.86,0c-0.62-0.01-1.24-0.02-1.86,0
	c-0.68,0.02-1.35,0.1-2.02,0.19c-16.44,0.28-32.87,0.56-49.31,0.83c-20.59,0.35-41.17,0.7-61.75,1.04c-7.7,0.13-15.4,0.25-23.1,0.39
	c-0.11,0-0.21,0-0.32,0C423.35,62.02,419.57,60.7,416.66,57.96z"/>
<path class="st0" d="M315.21,133.8c-1.05-10.64,1.18-21.31,5.72-30.95c7.57-16.08,19.81-29.46,33.74-40.32
	c10.51-8.19,22.16-14.96,34.38-20.27c7.45-3.24,15.18-5.91,23.05-7.91c3.52-0.9,7.09-1.64,10.67-2.28
	c8.05-1.43,15.81,4.98,16.89,12.84c0.54,3.98-0.57,8.09-3.04,11.25c-2.46,3.15-5.92,4.95-9.8,5.64c-0.68,0.12-1.35,0.24-2.03,0.38
	c-4.86,1.03-9.65,2.35-14.36,3.92c-5.16,1.81-10.2,3.91-15.12,6.27c-4.98,2.49-9.83,5.25-14.5,8.28c-4.29,2.88-8.42,5.98-12.35,9.32
	c-3.25,2.86-6.35,5.88-9.27,9.08c-2.27,2.61-4.42,5.33-6.4,8.17c-1.45,2.2-2.79,4.46-4,6.8c-0.79,1.66-1.51,3.36-2.16,5.08
	c-0.05,0.14-0.1,0.27-0.15,0.41c-0.09,0.3-0.19,0.61-0.28,0.92c-0.32,1.09-0.6,2.19-0.85,3.29c-0.19,1.14-0.34,2.29-0.44,3.44
	c-0.03,0.92-0.02,1.84,0.02,2.76c0.36,3.99-0.55,7.87-3.05,11.08c-2.39,3.06-5.96,5.11-9.8,5.64c-0.63,0.09-1.27,0.13-1.91,0.13
	C322.95,146.76,315.94,141.27,315.21,133.8z"/>
<path class="st0" d="M658.71,164.59c-2.85-2.43-5.04-6.24-5.2-10.04c-0.11-2.41-0.35-4.83-0.7-7.22c-0.55-3.23-1.29-6.41-2.17-9.56
	c-1.3-4.34-2.87-8.59-4.65-12.75c-2.25-5.03-4.79-9.93-7.58-14.67c-3.23-5.32-6.77-10.44-10.58-15.34
	c-3.75-4.69-7.77-9.16-12.04-13.38c-3.62-3.47-7.43-6.74-11.42-9.77c-3.11-2.27-6.33-4.37-9.67-6.27c-2.37-1.27-4.8-2.42-7.28-3.44
	c-1.75-0.65-3.53-1.21-5.34-1.7c-1.31-0.29-2.63-0.52-3.96-0.69c-0.89-0.07-1.79-0.1-2.68-0.11c-0.07,0-0.15,0.01-0.22,0.01
	c-0.77-0.05-1.55-0.05-2.32-0.06c-0.93,0-1.86-0.05-2.78-0.06c-0.88-0.02-1.76,0.01-2.64,0.03c0.02,0,0.04,0,0.05,0
	c-0.62,0.01-1.25,0.01-1.88,0c-0.62-0.01-1.24-0.02-1.86,0c-0.34,0.01-0.68,0.04-1.02,0.07c-0.96-0.38-1.87-0.84-2.7-1.38
	c-3.29-2.12-5.64-5.52-6.5-9.33c-0.87-3.9-0.12-8.05,2.04-11.41c2.2-3.41,5.49-5.43,9.33-6.5c9.3-2.59,19.51-1.34,28.59,1.51
	c9.35,2.93,18.16,7.72,26.12,13.4c8.67,6.18,16.6,13.31,23.79,21.18c6.19,6.78,11.85,14.09,16.88,21.78
	c4.32,6.61,8.25,13.52,11.56,20.68c3.61,7.8,6.59,15.83,8.71,24.16c1.19,4.7,2.05,9.5,2.53,14.32c0.12,1.25,0.22,2.52,0.27,3.78
	c0.17,4.09-0.83,7.95-3.53,11.11c-2.52,2.96-6.18,4.84-10.04,5.2c-0.45,0.04-0.9,0.06-1.36,0.06
	C664.92,168.18,661.42,166.91,658.71,164.59z"/>
<path class="st0" d="M939.81,418.68c-0.2-1.27-0.42-2.54-0.67-3.8c-0.66-2.87-1.48-5.71-2.44-8.5c-1.19-3.2-2.56-6.32-4.09-9.37
	c-1.84-3.45-3.87-6.8-6.08-10.02c-2.55-3.55-5.3-6.95-8.23-10.19c-3.35-3.55-6.89-6.9-10.63-10.05c-4.02-3.27-8.23-6.29-12.61-9.06
	c-4.32-2.64-8.78-5.03-13.36-7.17c-4.55-2.03-9.22-3.81-13.97-5.32c-4.48-1.34-9.02-2.43-13.62-3.27c-4.27-0.7-8.57-1.17-12.9-1.4
	c-0.04,0-0.08,0-0.12,0c0,0,0,0,0,0c-0.26-0.01-0.52-0.03-0.78-0.04c0.26,0.01,0.52,0.02,0.78,0.04c0-0.02,0-0.05,0-0.07
	c-0.63,0.03-1.27,0.02-1.92-0.01h0c-3.16-0.14-6.43-1.87-8.69-4.01c-2.9-2.75-4.62-6.6-4.7-10.6c-0.08-3.91,1.4-7.77,4.09-10.61
	c2.64-2.79,6.69-4.82,10.6-4.7c16.02,0.52,31.87,3.85,46.77,9.78c13.25,5.27,25.85,12.41,37,21.3
	c13.01,10.38,24.41,22.89,32.68,37.39c4.88,8.56,8.77,17.8,11.02,27.41c0.6,2.59,1.14,5.19,1.54,7.82
	c1.23,8.07-4.55,15.86-12.61,17.06c-0.72,0.11-1.45,0.16-2.16,0.16C947.44,431.46,940.94,426.05,939.81,418.68z"/>
<path class="st0" d="M851.12,666.87c-0.87-8.03,5.14-15.79,13.29-16.54c0.84-0.08,1.68-0.18,2.52-0.3c1.65-0.32,3.27-0.72,4.89-1.19
	c2.25-0.74,4.45-1.6,6.62-2.56c2.82-1.34,5.56-2.84,8.23-4.47c0.37-0.26,0.76-0.51,1.17-0.74c3.61-2.37,7.07-4.95,10.4-7.69
	c4.29-3.67,8.34-7.59,12.17-11.74c4.11-4.59,7.95-9.43,11.49-14.48c3.22-4.75,6.18-9.67,8.83-14.76c2.13-4.27,4.04-8.64,5.67-13.13
	c1.12-3.29,2.09-6.63,2.86-10.03c0.5-2.5,0.89-5.01,1.14-7.55c0.05-0.7,0.08-1.4,0.11-2.09c0.16-3.98,1.7-7.73,4.6-10.52
	c2.86-2.75,6.74-4.27,10.69-4.19c8.04,0.16,15.05,7.12,14.7,15.29c-0.5,12.06-3.55,23.77-8.06,34.93
	c-4.88,12.05-11.57,23.37-19.29,33.82c-7.8,10.55-16.89,20.09-26.98,28.46c-3.12,2.59-6.36,5.03-9.71,7.29
	c-1.25,0.84-2.53,1.64-3.8,2.45c-0.11,0.07-0.21,0.14-0.32,0.21c-0.79,0.5-1.58,0.98-2.38,1.46c-7.73,4.6-16.29,8.36-25.12,10.22
	c-2.36,0.5-4.75,0.91-7.16,1.13c-0.47,0.04-0.94,0.07-1.41,0.07C858.67,680.23,851.96,674.62,851.12,666.87z"/>
<path class="st0" d="M570.7,969.93c-8.17-0.06-14.88-7.13-14.75-15.25c0.13-8.23,7.07-14.81,15.24-14.75c0.56,0,1.12,0,1.67-0.02
	c1.74-0.12,3.47-0.32,5.2-0.59c2.22-0.43,4.42-0.98,6.59-1.63c2.81-0.93,5.57-2.01,8.26-3.23c3.42-1.64,6.74-3.48,9.95-5.49
	c3.89-2.53,7.61-5.3,11.18-8.26c4.05-3.48,7.87-7.2,11.48-11.13c3.61-4.07,6.98-8.35,10.09-12.81c2.77-4.12,5.3-8.39,7.58-12.8
	c1.86-3.78,3.53-7.65,4.97-11.61c1.08-3.19,2.01-6.43,2.74-9.71c0.5-2.56,0.89-5.14,1.13-7.73c0.11-1.61,0.16-3.23,0.14-4.84
	c-0.08-8.18,7.24-14.88,15.25-14.75c3.96,0.06,7.78,1.72,10.53,4.57c2.81,2.9,4.18,6.68,4.22,10.68
	c0.12,11.73-2.61,23.34-6.66,34.29c-3.63,9.82-8.63,19.22-14.52,27.87c-6.89,10.12-14.84,19.5-23.96,27.69
	c-8.02,7.2-16.8,13.62-26.34,18.67c-7.48,3.96-15.47,7.16-23.74,9.01c-5.18,1.16-10.48,1.82-15.78,1.82
	C571,969.93,570.85,969.93,570.7,969.93z"/>
<path class="st0" d="M414.49,966.13c-5.53-0.68-10.95-1.81-16.26-3.56c-7.26-2.38-14.14-5.69-20.7-9.61
	c-12.91-7.72-24.36-18.22-33.66-30.03c-7.17-9.1-13.38-18.93-18.21-29.47c-3.53-7.7-6.36-15.64-8.48-23.85
	c-1.67-6.45-2.79-13.07-3.35-19.71c-0.09-1.01-0.15-2.02-0.21-3.03c-0.21-4.04,0.95-7.93,3.62-11.02c2.56-2.96,6.25-4.82,10.14-5.13
	c7.98-0.64,15.71,5.61,16.14,13.76c0.15,2.71,0.41,5.42,0.77,8.11c0.62,4.03,1.48,8.02,2.54,11.95c1.25,4.34,2.75,8.61,4.47,12.79
	c1.93,4.48,4.11,8.84,6.53,13.07c2.59,4.36,5.43,8.57,8.5,12.61c2.96,3.75,6.13,7.34,9.5,10.74c3.18,3.08,6.52,5.99,10.03,8.69
	c3.03,2.23,6.16,4.29,9.42,6.17c2.82,1.54,5.71,2.93,8.68,4.15c2.46,0.93,4.97,1.75,7.52,2.43c2.12,0.49,4.27,0.89,6.44,1.17
	c1.84,0.18,3.67,0.27,5.52,0.27l3.48-0.18c0.14-0.02,0.29-0.04,0.43-0.06c0.08,0,0.16,0,0.25,0c0.08,0,0.15,0,0.23,0
	c0.17,0.03,0.34,0.05,0.5,0.07c0.75,0.11,1.51,0.14,2.26,0.15c0.82,0.01,1.64,0,2.46,0.02c0.16,0,0.33,0,0.49,0.01
	c0.17,0.02,0.33,0.05,0.5,0.07c1.44,0.38,2.83,0.98,4.16,1.85c3.32,2.16,5.67,5.61,6.48,9.48c0.82,3.87,0.05,7.97-2.11,11.28
	c-2.06,3.17-5.66,5.92-9.47,6.48c-3.43,0.51-6.85,0.75-10.27,0.75C420.07,966.58,417.29,966.42,414.49,966.13z"/>
<path class="st0" d="M152.48,681.5c-6.41-0.5-12.82-1.64-19.07-3.12c-6.92-1.64-13.74-3.77-20.32-6.45
	c-13.46-5.48-25.93-12.8-37.25-21.91c-13.07-10.53-23.93-23.61-32.07-38.26c-5.65-10.16-9.66-21.32-11.78-32.75
	c-0.55-3.01-0.93-6.05-1.23-9.09c-0.37-3.79,1.24-7.87,3.72-10.68c2.65-3.01,6.49-4.87,10.5-5.07c3.88-0.2,7.76,1.15,10.68,3.72
	c3.11,2.75,4.67,6.43,5.07,10.5c0.01,0.15,0.03,0.29,0.05,0.44c0.4,3.15,0.97,6.27,1.7,9.36c0.89,3.38,1.97,6.71,3.23,9.98
	c1.47,3.57,3.14,7.04,5,10.42c2.09,3.6,4.37,7.07,6.84,10.41c2.79,3.6,5.77,7.04,8.95,10.3c3.39,3.34,6.97,6.49,10.71,9.43
	c3.9,2.95,7.97,5.68,12.18,8.17c4.3,2.44,8.72,4.64,13.26,6.59c4.46,1.82,9.03,3.4,13.67,4.72c4.54,1.2,9.14,2.16,13.78,2.86
	c1.56,0.21,3.14,0.41,4.71,0.53c8.14,0.63,14.43,7.97,13.8,16.12c-0.61,7.77-7.3,13.84-14.99,13.84
	C153.24,681.54,152.86,681.53,152.48,681.5z"/>
<path class="st0" d="M42.31,439.98c-3.96-0.64-7.56-2.92-9.86-6.21c-2.33-3.33-2.9-7.07-2.5-11.03c0.95-9.48,3.48-18.75,7-27.57
	c4.91-12.34,12.32-23.82,21.21-33.65c11.6-12.84,25.59-23.28,41.01-31.1c12.16-6.16,25.18-10.68,38.49-13.57
	c4.67-1.01,9.4-1.8,14.14-2.42c8.11-1.07,15.59,5.62,16.34,13.54c0.37,3.94-0.86,7.92-3.38,10.97c-2.6,3.13-6.17,4.84-10.15,5.36
	c-0.98,0.13-1.95,0.27-2.92,0.41c-5.72,0.94-11.38,2.2-16.95,3.79c-5.38,1.62-10.67,3.53-15.83,5.75c-4.86,2.18-9.6,4.63-14.19,7.35
	c-4.19,2.59-8.24,5.41-12.11,8.46c-3.57,2.92-6.98,6.04-10.19,9.35c-2.88,3.1-5.59,6.36-8.1,9.76c-2.19,3.11-4.2,6.34-6.03,9.67
	c-1.61,3.1-3.05,6.28-4.32,9.54c-1.11,3.06-2.05,6.18-2.82,9.34c-0.72,3.26-1.25,6.56-1.58,9.89c-0.39,3.89-3.07,7.67-6.21,9.86
	c-2.52,1.76-5.56,2.7-8.62,2.7C43.91,440.18,43.1,440.11,42.31,439.98z"/>
<path class="st0" d="M343.74,320.23c0,0.01,0,0.02,0,0.04C343.73,320.26,343.73,320.25,343.74,320.23z"/>
<path class="st0" d="M339.25,333.45c-0.02,0.03-0.04,0.06-0.07,0.09C339.21,333.52,339.23,333.48,339.25,333.45z"/>
<path class="st0" d="M343.69,320.64c0-0.02,0.01-0.05,0.01-0.07c0,0.05-0.01,0.11-0.02,0.16
	C343.68,320.7,343.69,320.67,343.69,320.64z"/>
<path class="st0" d="M314.07,343.41c-4.67-3.12-7.47-8.98-6.7-14.65c1.31-5.89,4.29-12.2,9.97-15c3.96-9.41,16.86-11.54,24.03-4.39
	c1.3,1.15,2.23,2.46,2.89,3.86c-0.09,0.84-0.18,1.68-0.21,2.52c-0.03,0.89,0,1.79-0.09,2.67c0-0.02,0-0.04,0.01-0.05
	c-0.01,0.07-0.01,0.14-0.02,0.2c0-0.05,0.01-0.11,0.01-0.16c-0.07,0.61-0.15,1.21-0.21,1.83c0,0.02-0.01,0.05-0.01,0.07
	c0,0,0-0.01,0-0.01c-0.01,0.08-0.02,0.16-0.03,0.25c0,0,0-0.01,0-0.02c0,0.04-0.01,0.08-0.01,0.12c-0.06,0.51-0.14,1.02-0.21,1.52
	c0-0.01,0-0.02,0-0.03c-0.01,0.05-0.02,0.1-0.02,0.15c-0.02,0.14-0.04,0.28-0.06,0.42c0.01-0.05,0.02-0.11,0.02-0.16
	c0,0.05-0.02,0.11-0.02,0.16c-0.02,0.06-0.02,0.12-0.04,0.19c0.01-0.03,0.01-0.06,0.02-0.09c-0.15,0.92-0.36,1.83-0.6,2.73
	c-0.24,0.88-0.49,1.77-0.81,2.63c-0.75,1.83-1.62,3.63-2.71,5.28c-0.57,0.79-1.25,1.48-1.88,2.23c-0.6,0.7-1.27,1.33-1.93,1.96
	c-0.23,0.21-0.46,0.41-0.7,0.59c-0.46,0.32-0.91,0.65-1.36,0.97c-0.36,0.24-0.73,0.49-1.11,0.7c-0.27,0.15-0.55,0.27-0.83,0.4
	c0.05-0.02,0.1-0.04,0.15-0.07c-0.66,0.31-1.34,0.6-2.02,0.88c-0.54,0.22-1.08,0.45-1.63,0.63c-0.02,0-0.04,0.01-0.05,0.01
	c-0.51,0.15-1.02,0.3-1.52,0.45c-0.29,0.08-0.57,0.14-0.86,0.21c-0.38,0.06-0.77,0.13-1.16,0.19c-0.51,0.07-1.02,0.12-1.54,0.16
	c-0.6,0.04-1.18,0.13-1.77,0.22c-0.54,0.07-1.09,0.1-1.64,0.12c-0.57,0.03-1.13,0.11-1.69,0.17c-0.67,0.07-1.34,0.07-2.02,0.1
	c-0.5,0.02-0.99,0.05-1.49,0.07C314.16,343.41,314.12,343.41,314.07,343.41z M337.97,322.2c-0.09-0.27-0.18-0.54-0.27-0.8
	c-0.3-0.59-0.59-1.18-0.89-1.77c0.02,0.02,0.03,0.04,0.05,0.07c-0.36-0.52-0.71-1.04-1.06-1.55c-0.04-0.03-0.07-0.07-0.11-0.1
	C336.63,319.29,337.39,320.69,337.97,322.2z"/>
<path class="st0" d="M319.09,343.91C319.09,343.91,319.09,343.91,319.09,343.91C319.09,343.91,319.09,343.91,319.09,343.91
	C319.09,343.91,319.09,343.91,319.09,343.91z"/>
</svg>
