<?xml version="1.0" encoding="utf-8"?>
<!-- Generator: Adobe Adobe Illustrator 24.2.0, SVG Export Plug-In . SVG Version: 6.00 Build 0)  -->
<svg version="1.1" id="Capa_de_vector_1_" xmlns="http://www.w3.org/2000/svg" xmlns:xlink="http://www.w3.org/1999/xlink" x="0px"
	 y="0px" viewBox="0 0 300 300" style="enable-background:new 0 0 300 300;" xml:space="preserve">
<style type="text/css">
	.st0{fill:#C7CCAC;}
	.st1{fill:#FFFFFF;}
</style>
<circle class="st0" cx="150.99" cy="150.04" r="146.5"/>
<path class="st1" d="M198.21,172.79c0.12,2.77-0.21,5.61-1.24,8.2c-0.29,0.72-0.63,1.42-1.03,2.09c-0.42,0.71-0.91,1.38-1.45,2.01
	c-1.14,1.32-2.55,2.39-4.08,3.21c-1.59,0.84-3.32,1.41-5.08,1.76c-1.66,0.32-3.35,0.47-5.04,0.47c-0.26,0-0.52,0-0.78-0.01
	c-3.87-0.1-7.69-0.85-11.4-1.94c-1.92-0.57-3.8-1.24-5.66-1.98c-1.71-0.68-3.39-1.43-5.04-2.23c-3.44-1.67-6.77-3.59-9.98-5.67
	c-1.69-1.1-3.34-2.25-4.96-3.43c-0.77-0.56-1.53-1.14-2.28-1.72c-0.2-0.15-0.4-0.31-0.6-0.46c-0.03-0.03-0.06-0.05-0.1-0.08
	c-0.01,0-0.02-0.01-0.02-0.02c-0.02-0.01-0.03-0.02-0.04-0.03c-0.04-0.03-0.09-0.07-0.13-0.1c-0.11-0.09-0.22-0.18-0.34-0.27
	c-0.37-0.3-0.74-0.59-1.11-0.89c-0.75-0.62-1.49-1.24-2.22-1.88c-1.44-1.25-2.85-2.53-4.23-3.85c-2.85-2.73-5.56-5.61-8.09-8.64
	c-2.5-2.99-4.82-6.12-6.92-9.4c-2.07-3.23-3.91-6.61-5.41-10.14c-0.75-1.75-1.39-3.55-1.93-5.37c-0.27-0.91-0.51-1.84-0.71-2.77
	c-0.2-0.94-0.38-1.89-0.5-2.84c-0.12-0.97-0.21-1.95-0.23-2.93c-0.02-0.94,0-1.89,0.09-2.82c0.09-0.95,0.25-1.89,0.48-2.82
	c0.22-0.93,0.54-1.82,0.91-2.7c0.36-0.82,0.8-1.6,1.3-2.33c0.46-0.67,0.99-1.3,1.57-1.88c1.15-1.16,2.51-2.09,3.98-2.82
	c1.54-0.75,3.2-1.25,4.88-1.56c1.29-0.24,2.59-0.36,3.9-0.39c1.08-0.03,2.17,0,3.25,0.08c0.04-0.02,0.08-0.02,0.12-0.02c0,0,0,0,0,0
	s0,0,0,0c0.27,0.02,0.53,0.05,0.79,0.07c0.05,0,0.1,0.03,0.14,0.07c0.01,0,0.02,0.01,0.02,0.02c0.03,0.02,0.05,0.05,0.07,0.09
	c1.56,3.59,3.12,7.18,4.69,10.76c1.42,3.26,2.84,6.52,4.26,9.78c0.17,0.39,0.34,0.77,0.51,1.16c0.02,0.03,0.03,0.06,0.04,0.09
	c0,0,0,0.01,0,0.01c0,0,0.01,0.01,0.01,0.02c0.02,0.04,0.02,0.07,0.02,0.11c0,0,0,0.01,0,0.01c0,0.05,0,0.11,0,0.16
	c0,0.07,0,0.14-0.05,0.21c0,0,0,0,0,0c-0.03,0.17-0.09,0.33-0.13,0.48c-0.02,0.04-0.03,0.07-0.05,0.11
	c-0.01,0.02-0.02,0.04-0.02,0.05c-0.21,0.53-0.5,1.02-0.79,1.5c-0.09,0.11-0.18,0.31-0.3,0.44c0,0,0,0,0,0.01
	c-0.01,0.02-0.02,0.04-0.03,0.05c-1.58,2.14-3.16,4.29-4.74,6.43c-0.18,0.25-0.37,0.5-0.55,0.76c0,0-0.01,0.01-0.01,0.01l0,0
	c-0.05,0.1-0.11,0.2-0.16,0.27c-0.04,0.06-0.07,0.13-0.12,0.19c-0.05,0.12-0.09,0.23-0.13,0.34c-0.14,0.5-0.25,1-0.16,1.5
	c0.2,0.62,0.45,1.23,0.69,1.8c0.57,1.3,1.23,2.55,1.94,3.74c0.48,0.8,0.99,1.58,1.52,2.34c0.59,0.85,1.22,1.68,1.87,2.49
	c1.56,1.94,3.25,3.77,5.03,5.48c1.86,1.76,3.81,3.4,5.84,4.9c1.77,1.29,3.59,2.47,5.5,3.53c1.45,0.8,2.94,1.52,4.45,2.12
	c1.09,0.43,2.2,0.79,3.32,1.09c0.01,0,0.02,0,0.03,0.01c0,0,0,0,0,0c0.79,0.2,1.57,0.35,2.38,0.45c0.01,0,0.01,0,0.02,0
	c0.07,0.01,0.13,0.02,0.2,0.02c0.02,0,0.04,0.01,0.05,0.02c0.25,0,0.51,0,0.76-0.01c0.16-0.03,0.32-0.06,0.46-0.11
	c0.13-0.04,0.26-0.07,0.35-0.12c0.04-0.02,0.07-0.03,0.11-0.05c0.01-0.01,0.02-0.01,0.03-0.02c0.03-0.05,0.08-0.1,0.14-0.12
	c0.32-0.39,0.65-0.77,0.97-1.16c0.61-0.72,1.21-1.45,1.82-2.17c1.16-1.38,2.32-2.77,3.48-4.15c0.6-0.71,1.19-1.43,1.79-2.14
	c0.02-0.02,0.04-0.04,0.07-0.05c0.09-0.1,0.18-0.19,0.29-0.27c0.27-0.21,0.58-0.36,0.9-0.47c0.37-0.14,0.77-0.21,1.16-0.24
	c0.26-0.02,0.52-0.02,0.77,0.02c0.28,0.04,0.55,0.11,0.81,0.22c0.02,0.01,0.03,0.02,0.04,0.03c0,0,0.01,0,0.02,0.01
	c1.21,0.62,2.42,1.25,3.62,1.88c1.67,0.86,3.33,1.73,5,2.59c2.88,1.5,5.77,2.99,8.66,4.48c0.39,0.2,0.79,0.4,1.17,0.61
	c0.01,0,0.01,0,0.02,0.01c0.03,0.02,0.06,0.03,0.09,0.05c0.01,0,0.01,0.01,0.02,0.01c0.2,0.07,0.41,0.25,0.59,0.34
	c0,0,0.01,0,0.02,0c0.02,0,0.03,0,0.04,0c0.05,0,0.11,0.02,0.14,0.05c0.05,0.04,0.09,0.09,0.1,0.16c0,0.02,0.01,0.04,0.01,0.05
	c0,0,0,0.01,0,0.01c0,0.01,0,0.02,0,0.03C198,170.07,198.16,171.42,198.21,172.79z"/>
<path class="st1" d="M63.16,239.01c-0.01-0.04-0.01-0.09,0-0.12c-0.01,0-0.02,0-0.03,0c-0.02,0-0.04,0-0.06,0
	c-0.13-0.04-0.22-0.18-0.18-0.3c0.47-1.77,0.95-3.53,1.42-5.29c0.97-3.61,1.94-7.21,2.91-10.82c1.05-3.91,2.1-7.82,3.15-11.73
	c1.07-3.96,2.13-7.93,3.2-11.89c0.36-1.36,0.73-2.71,1.09-4.07c0.17-0.64,0.34-1.29,0.52-1.93c0.03-0.1,0.05-0.2,0.08-0.3
	c-0.01-0.02-0.02-0.04-0.03-0.06c0-0.01-0.01-0.02-0.02-0.03c-0.12-0.22-0.25-0.44-0.38-0.66c-0.02-0.04-0.04-0.07-0.05-0.1
	c-0.01-0.02-0.02-0.04-0.04-0.06c-0.14-0.25-0.27-0.49-0.41-0.74c-0.07-0.12-0.13-0.24-0.2-0.36c-0.01-0.01-0.01-0.02-0.02-0.03
	c-0.22-0.41-0.44-0.83-0.66-1.25c-0.76-1.47-1.48-2.97-2.16-4.48c-1.43-3.16-2.66-6.42-3.71-9.73c-1.01-3.18-1.85-6.43-2.49-9.71
	c-0.36-1.81-0.67-3.63-0.91-5.46c-0.12-0.93-0.23-1.85-0.33-2.78c-0.1-0.92-0.18-1.84-0.24-2.76c-0.27-3.57-0.3-7.15-0.14-10.72
	c0.07-1.73,0.21-3.45,0.39-5.16c0.18-1.72,0.41-3.43,0.69-5.14c1.12-6.87,3.04-13.61,5.71-20.04c1.22-2.93,2.59-5.8,4.11-8.59
	c1.71-3.13,3.61-6.16,5.67-9.07c1.87-2.63,3.89-5.16,6.03-7.57c2.07-2.33,4.27-4.55,6.57-6.66c2.37-2.18,4.87-4.22,7.46-6.12
	c2.46-1.81,5.02-3.49,7.65-5.04c2.59-1.52,5.25-2.91,7.97-4.16c3.03-1.4,6.14-2.62,9.3-3.68c6.07-2.02,12.36-3.37,18.72-4.06
	c3.06-0.34,6.14-0.51,9.21-0.52c2.91-0.01,5.83,0.11,8.73,0.38c3.06,0.29,6.11,0.73,9.13,1.32c3.46,0.68,6.88,1.57,10.24,2.65
	c3.3,1.06,6.54,2.33,9.7,3.77c3.15,1.43,6.22,3.05,9.18,4.85c2.8,1.69,5.5,3.54,8.11,5.52c2.39,1.82,4.68,3.77,6.88,5.82
	c4.61,4.31,8.76,9.11,12.36,14.3c1.71,2.46,3.3,5.01,4.77,7.64c1.68,3.02,3.18,6.14,4.51,9.33c1.35,3.26,2.51,6.61,3.47,10.01
	c0.45,1.58,0.85,3.18,1.21,4.78c0.38,1.71,0.71,3.43,1,5.16c0.3,1.82,0.53,3.65,0.72,5.49c0.09,0.91,0.16,1.82,0.23,2.72
	c0.01,0.09,0.01,0.18,0.02,0.26c0,0.05,0.01,0.1,0.01,0.15c0,0.02,0,0.05,0,0.08c0.01,0.12,0.02,0.24,0.02,0.36
	c0.01,0.19,0.02,0.38,0.04,0.57c0.02,0.46,0.05,0.92,0.06,1.38c0.07,1.76,0.08,3.52,0.05,5.29c-0.07,3.45-0.34,6.89-0.8,10.31
	c-0.46,3.4-1.12,6.77-1.96,10.1c-0.83,3.29-1.86,6.52-3.06,9.7c-1.18,3.12-2.54,6.17-4.06,9.14c-3.18,6.18-7.05,12-11.57,17.29
	c-4.32,5.06-9.18,9.66-14.51,13.65c-2.69,2.01-5.48,3.87-8.37,5.58c-2.89,1.71-5.89,3.24-8.95,4.61c-1.46,0.65-2.93,1.26-4.43,1.84
	c-1.66,0.64-3.33,1.23-5.02,1.76c-3.35,1.06-6.76,1.94-10.21,2.6c-3.52,0.68-7.07,1.15-10.64,1.41c-2.15,0.15-4.3,0.23-6.45,0.23
	c-1.25,0-2.5-0.03-3.75-0.08c-6.64-0.29-13.26-1.29-19.68-3.03c-3.06-0.83-6.08-1.82-9.04-2.96c-2.83-1.09-5.6-2.34-8.3-3.71
	c-0.72-0.37-1.44-0.74-2.15-1.13c-1.63,0.43-3.27,0.85-4.9,1.27c-4.02,1.04-8.04,2.09-12.05,3.13c-4.1,1.07-8.2,2.13-12.3,3.2
	c-4.03,1.05-8.05,2.09-12.07,3.14c-1.89,0.49-3.78,0.98-5.66,1.47c-0.02,0.01-0.04,0.01-0.07,0.01
	C63.3,239.19,63.2,239.12,63.16,239.01z M111.26,209.54c0.18,0.12,0.38,0.28,0.6,0.39c0.02,0.01,0.03,0.02,0.04,0.03
	c0.82,0.55,1.65,1.09,2.49,1.61c0,0,0.01,0.01,0.01,0.01c1.8,1.11,3.64,2.14,5.52,3.09c0.07,0.04,0.13,0.07,0.2,0.1
	c2.93,1.47,5.96,2.75,9.02,3.82c1.55,0.54,3.12,1.03,4.7,1.47c1.68,0.46,3.37,0.87,5.04,1.21c1.67,0.34,3.35,0.62,5.04,0.85
	c1.71,0.23,3.43,0.4,5.14,0.51c1.65,0.11,3.31,0.16,4.97,0.16c1.63,0,3.26-0.06,4.85-0.16c1.62-0.11,3.24-0.27,4.85-0.48
	c1.73-0.23,3.46-0.52,5.14-0.85c1.75-0.36,3.49-0.77,5.21-1.24c1.58-0.43,3.14-0.93,4.68-1.46c1.45-0.51,2.88-1.05,4.29-1.64
	c1.56-0.65,3.1-1.36,4.61-2.12c1.44-0.72,2.85-1.48,4.24-2.29c1.43-0.83,2.82-1.71,4.16-2.61c1.32-0.89,2.61-1.81,3.86-2.78
	c1.29-1,2.55-2.03,3.75-3.08c1.2-1.05,2.37-2.14,3.5-3.27c1.15-1.14,2.25-2.32,3.32-3.54c1.07-1.22,2.12-2.48,3.12-3.77
	c0.98-1.28,1.93-2.59,2.83-3.92c0.92-1.37,1.8-2.77,2.63-4.2c0.41-0.7,0.8-1.4,1.18-2.11c0.4-0.74,0.79-1.49,1.16-2.22
	c0.7-1.42,1.36-2.85,1.98-4.31c0.62-1.47,1.19-2.96,1.71-4.43c0.56-1.62,1.08-3.25,1.53-4.91c0.46-1.65,0.85-3.31,1.19-4.95
	c0.32-1.61,0.6-3.22,0.82-4.84c0.23-1.7,0.4-3.39,0.52-5.07c0.11-1.69,0.17-3.38,0.17-5.08c0-1.68-0.05-3.37-0.16-5.02
	c-0.11-1.68-0.27-3.35-0.5-5.02c-0.23-1.66-0.5-3.3-0.82-4.91c-0.34-1.66-0.72-3.31-1.18-4.94c-0.46-1.68-0.97-3.33-1.53-4.94
	c-0.52-1.49-1.09-2.97-1.7-4.43c-0.62-1.5-1.31-2.96-2.03-4.41c0,0,0,0,0,0c0-0.01-0.01-0.01-0.01-0.02c0,0,0-0.01,0-0.01
	c-0.73-1.44-1.49-2.86-2.3-4.26c-0.85-1.47-1.76-2.91-2.7-4.29c-0.91-1.34-1.85-2.64-2.84-3.92c-0.98-1.27-2.02-2.51-3.07-3.71
	c-1.02-1.15-2.07-2.28-3.16-3.37c-1.12-1.12-2.28-2.21-3.46-3.26c-1.25-1.1-2.53-2.16-3.85-3.18c-1.29-0.99-2.61-1.94-3.93-2.84
	c-1.29-0.86-2.59-1.68-3.92-2.47c-1.42-0.84-2.88-1.63-4.32-2.36c-1.52-0.76-3.07-1.48-4.64-2.14c-1.47-0.62-2.96-1.19-4.44-1.71
	c-3.18-1.1-6.43-2-9.7-2.67c-1.71-0.34-3.43-0.63-5.15-0.87c-1.65-0.22-3.31-0.38-4.95-0.49c-1.62-0.11-3.25-0.16-4.88-0.17
	c-1.77,0-3.54,0.06-5.29,0.18c-1.65,0.12-3.3,0.29-4.95,0.51c-1.66,0.22-3.3,0.5-4.94,0.83c-1.66,0.34-3.3,0.73-4.94,1.18
	c-1.61,0.45-3.2,0.94-4.75,1.48c-1.5,0.53-2.99,1.09-4.45,1.71c-1.61,0.68-3.2,1.41-4.75,2.19c-1.42,0.72-2.82,1.48-4.2,2.29
	c-1.41,0.82-2.79,1.7-4.14,2.62c0,0,0,0,0,0c-1.34,0.91-2.66,1.87-3.94,2.86c-1.26,0.98-2.48,2-3.67,3.04
	c-1.2,1.06-2.37,2.16-3.5,3.3c-1.1,1.1-2.16,2.23-3.17,3.38c-1.01,1.16-1.99,2.34-2.94,3.55c-1.02,1.31-1.99,2.66-2.93,4.03
	c-0.93,1.37-1.81,2.77-2.64,4.2c-0.82,1.41-1.6,2.85-2.34,4.31c-0.71,1.43-1.38,2.87-2,4.34c-0.65,1.55-1.25,3.12-1.8,4.67
	c-0.27,0.77-0.52,1.54-0.76,2.32c-0.24,0.76-0.46,1.53-0.68,2.29c-0.45,1.6-0.83,3.21-1.17,4.84c0,0,0,0,0,0
	c-0.36,1.77-0.66,3.54-0.91,5.33c-0.22,1.65-0.38,3.3-0.49,4.96c-0.11,1.68-0.16,3.37-0.17,5.06c0,1.68,0.06,3.36,0.17,5.03
	c0.12,1.72,0.3,3.43,0.53,5.13c0.23,1.69,0.52,3.37,0.86,5.01c0.34,1.62,0.73,3.24,1.17,4.84c0.44,1.62,0.95,3.21,1.49,4.77
	c0.56,1.59,1.17,3.17,1.83,4.73c0.63,1.48,1.31,2.94,2.02,4.35c0.73,1.45,1.5,2.88,2.33,4.27c0.77,1.3,1.56,2.57,2.39,3.8
	c0.07,0.15,0.17,0.28,0.27,0.41c0,0,0,0,0,0c0,0,0,0,0,0c0.03,0.04,0.06,0.08,0.09,0.11c0.04,0.05,0.07,0.1,0.12,0.14
	c0.01,0.02,0.03,0.04,0.04,0.06c-0.73,2.79-1.47,5.59-2.21,8.38c-1,3.78-1.99,7.55-2.99,11.33c-0.58,2.21-1.16,4.41-1.75,6.62
	c-0.02,0.06-0.03,0.12-0.05,0.18c2.43-0.67,4.86-1.34,7.3-2.01c3.74-1.03,7.48-2.06,11.23-3.09c1.49-0.41,2.99-0.82,4.48-1.23
	c1.06-0.29,2.13-0.58,3.2-0.88C111.17,209.48,111.21,209.51,111.26,209.54z"/>
<path class="st1" d="M103.83,212.53c-0.06-0.1-0.04-0.25,0.06-0.32c1.37-0.86,2.99-1.2,4.5-1.7c0.43-0.04,1.43-0.85,1.59-0.18
	c1.46,0.52-3.47,1.41-3.86,1.57c-0.74,0.16-1.38,0.49-2.07,0.75C103.97,212.66,103.88,212.61,103.83,212.53z"/>
</svg>
